M48
; DRILL file {KiCad 5.1.5-52549c5~84~ubuntu18.04.1} date Thu 12 Dec 2019 01:25:17 AM EST
; FORMAT={-:-/ absolute / inch / decimal}
; #@! TF.CreationDate,2019-12-12T01:25:17-05:00
; #@! TF.GenerationSoftware,Kicad,Pcbnew,5.1.5-52549c5~84~ubuntu18.04.1
FMAT,2
INCH
T1C0.0433
T2C0.0472
T3C0.0738
T4C0.1250
T5C0.3860
T6C0.0512
%
G90
G05
T1
X12.2149Y-8.0783
X15.6007Y-5.788
X15.6007Y-6.188
X9.7283Y-2.2948
X10.1283Y-2.2948
X4.4987Y-9.6633
X4.4987Y-10.0633
X11.8149Y-8.0783
X15.6007Y-7.728
X15.6007Y-8.128
X6.1417Y-2.2948
X6.5417Y-2.2948
T2
X15.5692Y-10.2239
X15.5692Y-10.3224
X15.5692Y-11.4405
X15.5692Y-11.5389
T3
X8.6431Y-2.1964
X8.6431Y-2.3932
X8.9187Y-2.1964
X8.9187Y-2.3932
X4.4003Y-10.3568
X4.4003Y-10.6324
X4.5972Y-10.3568
X4.5972Y-10.6324
X10.1365Y-6.9818
X10.1365Y-7.2574
X10.3334Y-6.9818
X10.3334Y-7.2574
X10.1436Y-6.4818
X10.1436Y-6.7574
X10.3405Y-6.4818
X10.3405Y-6.7574
X4.4003Y-9.0424
X4.4003Y-9.318
X4.5972Y-9.0424
X4.5972Y-9.318
X4.4003Y-12.168
X4.4003Y-12.4436
X4.5972Y-12.168
X4.5972Y-12.4436
X10.7038Y-7.9802
X10.7038Y-8.1771
X10.9794Y-7.9802
X10.9794Y-8.1771
X14.3294Y-13.3416
X14.3294Y-13.5385
X14.6049Y-13.3416
X14.6049Y-13.5385
X5.5175Y-7.5472
X5.5175Y-7.744
X5.7931Y-7.5472
X5.7931Y-7.744
X5.0175Y-7.5542
X5.0175Y-7.7511
X5.2931Y-7.5542
X5.2931Y-7.7511
X10.1365Y-4.6674
X10.1365Y-4.943
X10.3334Y-4.6674
X10.3334Y-4.943
X10.1365Y-3.3594
X10.1365Y-3.635
X10.3334Y-3.3594
X10.3334Y-3.635
X10.7069Y-13.3416
X10.7069Y-13.5385
X10.9825Y-13.3416
X10.9825Y-13.5385
X14.8262Y-13.3416
X14.8262Y-13.5385
X15.1018Y-13.3416
X15.1018Y-13.5385
X13.015Y-7.9873
X13.015Y-8.1842
X13.2906Y-7.9873
X13.2906Y-8.1842
X12.5181Y-13.3416
X12.5181Y-13.5385
X12.7937Y-13.3416
X12.7937Y-13.5385
X9.14Y-2.1964
X9.14Y-2.3932
X9.4156Y-2.1964
X9.4156Y-2.3932
X5.5175Y-2.1964
X5.5175Y-2.3932
X5.7931Y-2.1964
X5.7931Y-2.3932
X9.7582Y-10.3568
X9.7582Y-10.6324
X9.955Y-10.3568
X9.955Y-10.6324
X11.2038Y-7.9873
X11.2038Y-8.1842
X11.4794Y-7.9873
X11.4794Y-8.1842
X4.4003Y-12.6649
X4.4003Y-12.9405
X4.5972Y-12.6649
X4.5972Y-12.9405
X15.5023Y-2.8594
X15.5023Y-3.135
X15.6991Y-2.8594
X15.6991Y-3.135
X10.1436Y-2.8594
X10.1436Y-3.135
X10.3405Y-2.8594
X10.3405Y-3.135
X12.515Y-7.9802
X12.515Y-8.1771
X12.7906Y-7.9802
X12.7906Y-8.1771
X6.8288Y-7.5542
X6.8288Y-7.7511
X7.1044Y-7.5542
X7.1044Y-7.7511
X13.015Y-13.3416
X13.015Y-13.5385
X13.2906Y-13.3416
X13.2906Y-13.5385
X4.4003Y-10.8537
X4.4003Y-11.1292
X4.5972Y-10.8537
X4.5972Y-11.1292
X6.8319Y-2.1964
X6.8319Y-2.3932
X7.1075Y-2.1964
X7.1075Y-2.3932
X15.5023Y-5.1674
X15.5023Y-5.443
X15.6991Y-5.1674
X15.6991Y-5.443
X9.7582Y-12.168
X9.7582Y-12.4436
X9.955Y-12.168
X9.955Y-12.4436
X8.64Y-7.5542
X8.64Y-7.7511
X8.9156Y-7.5542
X8.9156Y-7.7511
X9.7582Y-8.5456
X9.7582Y-8.8212
X9.955Y-8.5456
X9.955Y-8.8212
X15.5023Y-4.6706
X15.5023Y-4.9462
X15.6991Y-4.6706
X15.6991Y-4.9462
X9.7582Y-12.6649
X9.7582Y-12.9405
X9.955Y-12.6649
X9.955Y-12.9405
X7.3288Y-7.5472
X7.3288Y-7.744
X7.6044Y-7.5472
X7.6044Y-7.744
X15.5023Y-6.9787
X15.5023Y-7.2542
X15.6991Y-6.9787
X15.6991Y-7.2542
X9.7653Y-9.0456
X9.7653Y-9.3212
X9.9621Y-9.0456
X9.9621Y-9.3212
X11.2038Y-13.3416
X11.2038Y-13.5385
X11.4794Y-13.3416
X11.4794Y-13.5385
X15.5023Y-6.4818
X15.5023Y-6.7574
X15.6991Y-6.4818
X15.6991Y-6.7574
X10.1365Y-5.1706
X10.1365Y-5.4462
X10.3334Y-5.1706
X10.3334Y-5.4462
X9.7653Y-10.8568
X9.7653Y-11.1324
X9.9621Y-10.8568
X9.9621Y-11.1324
X7.3288Y-2.1964
X7.3288Y-2.3932
X7.6044Y-2.1964
X7.6044Y-2.3932
X14.3262Y-7.9802
X14.3262Y-8.1771
X14.6018Y-7.9802
X14.6018Y-8.1771
X14.8262Y-7.9873
X14.8262Y-8.1842
X15.1018Y-7.9873
X15.1018Y-8.1842
X5.0207Y-2.1964
X5.0207Y-2.3932
X5.2963Y-2.1964
X5.2963Y-2.3932
X15.5023Y-3.3562
X15.5023Y-3.6318
X15.6991Y-3.3562
X15.6991Y-3.6318
X4.4003Y-8.5456
X4.4003Y-8.8212
X4.5972Y-8.5456
X4.5972Y-8.8212
X9.14Y-7.5472
X9.14Y-7.744
X9.4156Y-7.5472
X9.4156Y-7.744
T4
X5.1569Y-3.5383
X5.1573Y-6.4113
X5.6569Y-3.5383
X5.6569Y-6.4133
X5.739Y-8.6818
X5.739Y-9.1818
X5.739Y-10.493
X5.739Y-10.993
X5.739Y-12.3042
X5.739Y-12.8042
X6.9681Y-3.5383
X6.9681Y-6.4133
X7.4681Y-3.5383
X7.4681Y-6.4133
X8.614Y-8.6818
X8.614Y-9.1818
X8.614Y-10.493
X8.614Y-10.993
X8.614Y-12.3042
X8.614Y-12.8042
X8.7794Y-3.5383
X8.7794Y-6.4133
X9.2794Y-3.5383
X9.2794Y-6.4133
X10.8431Y-9.3227
X10.8431Y-12.1977
X11.3431Y-9.3227
X11.3431Y-12.1977
X11.4841Y-2.9956
X11.4841Y-3.4956
X11.4841Y-4.8068
X11.4841Y-5.3068
X11.4841Y-6.618
X11.4841Y-7.118
X12.6544Y-9.3227
X12.6544Y-12.1977
X13.1544Y-9.3227
X13.1544Y-12.1977
X14.3591Y-2.9956
X14.3591Y-3.4956
X14.3591Y-4.8068
X14.3591Y-5.3068
X14.3591Y-6.618
X14.3591Y-7.118
X14.4656Y-9.3227
X14.4656Y-12.1977
X14.9656Y-9.3227
X14.9656Y-12.1977
T5
X10.0294Y-7.868
T6
X15.622Y-10.2731
X15.622Y-11.4897
T0
M30
