M48
; DRILL file {KiCad 5.1.4-e60b266~84~ubuntu18.04.1} date Mon 18 Nov 2019 12:55:34 PM EST
; FORMAT={3:3/ absolute / metric / suppress leading zeros}
; #@! TF.CreationDate,2019-11-18T12:55:34-05:00
; #@! TF.GenerationSoftware,Kicad,Pcbnew,5.1.4-e60b266~84~ubuntu18.04.1
FMAT,2
METRIC,TZ
T1C1.100
T2C1.200
T3C1.600
T4C3.175
T5C9.804
T6C1.300
%
G90
G05
T1
X396258Y-147016
X396258Y-157176
X155998Y-58288
X166158Y-58288
X396258Y-196292
X396258Y-206452
X247098Y-58288
X257258Y-58288
X114268Y-245448
X114268Y-255608
X300098Y-205188
X310258Y-205188
T2
X395458Y-259688
X395458Y-262188
X395458Y-290588
X395458Y-293088
T3
X173451Y-191878
X173451Y-196878
X180451Y-191878
X180451Y-196878
X248038Y-229758
X248038Y-236758
X253038Y-229758
X253038Y-236758
X247858Y-321688
X247858Y-328688
X252858Y-321688
X252858Y-328688
X111768Y-309068
X111768Y-316068
X116768Y-309068
X116768Y-316068
X330581Y-338878
X330581Y-343878
X337581Y-338878
X337581Y-343878
X140146Y-191698
X140146Y-196698
X147146Y-191698
X147146Y-196698
X257468Y-131333
X257468Y-138333
X262468Y-131333
X262468Y-138333
X247858Y-217058
X247858Y-224058
X252858Y-217058
X252858Y-224058
X393758Y-131253
X393758Y-138253
X398758Y-131253
X398758Y-138253
X232156Y-191698
X232156Y-196698
X239156Y-191698
X239156Y-196698
X111768Y-275683
X111768Y-282683
X116768Y-275683
X116768Y-282683
X248038Y-275763
X248038Y-282763
X253038Y-275763
X253038Y-282763
X219536Y-55788
X219536Y-60788
X226536Y-55788
X226536Y-60788
X317881Y-202698
X317881Y-207698
X324881Y-202698
X324881Y-207698
X257468Y-118553
X257468Y-125553
X262468Y-118553
X262468Y-125553
X363966Y-338878
X363966Y-343878
X370966Y-338878
X370966Y-343878
X140146Y-55788
X140146Y-60788
X147146Y-55788
X147146Y-60788
X186151Y-55788
X186151Y-60788
X193151Y-55788
X193151Y-60788
X127526Y-55788
X127526Y-60788
X134526Y-55788
X134526Y-60788
X363886Y-202698
X363886Y-207698
X370886Y-202698
X370886Y-207698
X393758Y-118633
X393758Y-125633
X398758Y-118633
X398758Y-125633
X111768Y-321688
X111768Y-328688
X116768Y-321688
X116768Y-328688
X376586Y-338878
X376586Y-343878
X383586Y-338878
X383586Y-343878
X219456Y-191878
X219456Y-196878
X226456Y-191878
X226456Y-196878
X393758Y-85248
X393758Y-92248
X398758Y-85248
X398758Y-92248
X111768Y-217058
X111768Y-224058
X116768Y-217058
X116768Y-224058
X330581Y-202878
X330581Y-207878
X337581Y-202878
X337581Y-207878
X257648Y-72628
X257648Y-79628
X262648Y-72628
X262648Y-79628
X393758Y-177258
X393758Y-184258
X398758Y-177258
X398758Y-184258
X284576Y-338878
X284576Y-343878
X291576Y-338878
X291576Y-343878
X247858Y-263063
X247858Y-270063
X252858Y-263063
X252858Y-270063
X232156Y-55788
X232156Y-60788
X239156Y-55788
X239156Y-60788
X393758Y-72628
X393758Y-79628
X398758Y-72628
X398758Y-79628
X393758Y-164638
X393758Y-171638
X398758Y-164638
X398758Y-171638
X257468Y-177338
X257468Y-184338
X262468Y-177338
X262468Y-184338
X284576Y-202878
X284576Y-207878
X291576Y-202878
X291576Y-207878
X257468Y-85328
X257468Y-92328
X262468Y-85328
X262468Y-92328
X257648Y-164638
X257648Y-171638
X262648Y-164638
X262648Y-171638
X376586Y-202878
X376586Y-207878
X383586Y-202878
X383586Y-207878
X173531Y-55788
X173531Y-60788
X180531Y-55788
X180531Y-60788
X111768Y-229678
X111768Y-236678
X116768Y-229678
X116768Y-236678
X271956Y-338878
X271956Y-343878
X278956Y-338878
X278956Y-343878
X247858Y-309068
X247858Y-316068
X252858Y-309068
X252858Y-316068
X317961Y-338878
X317961Y-343878
X324961Y-338878
X324961Y-343878
X127446Y-191878
X127446Y-196878
X134446Y-191878
X134446Y-196878
X271876Y-202698
X271876Y-207698
X278876Y-202698
X278876Y-207698
X186151Y-191698
X186151Y-196698
X193151Y-191698
X193151Y-196698
X111768Y-263063
X111768Y-270063
X116768Y-263063
X116768Y-270063
T4
X130986Y-89873
X130996Y-162848
X143686Y-89873
X143686Y-162898
X145771Y-220518
X145771Y-233218
X145771Y-266523
X145771Y-279223
X145771Y-312528
X145771Y-325228
X176991Y-89873
X176991Y-162898
X189691Y-89873
X189691Y-162898
X218796Y-220518
X218796Y-233218
X218796Y-266523
X218796Y-279223
X218796Y-312528
X218796Y-325228
X222996Y-89873
X222996Y-162898
X235696Y-89873
X235696Y-162898
X275416Y-236798
X275416Y-309823
X288116Y-236798
X288116Y-309823
X291696Y-76088
X291696Y-88788
X291696Y-122093
X291696Y-134793
X291696Y-168098
X291696Y-180798
X321421Y-236798
X321421Y-309823
X334121Y-236798
X334121Y-309823
X364721Y-76088
X364721Y-88788
X364721Y-122093
X364721Y-134793
X364721Y-168098
X364721Y-180798
X367426Y-236798
X367426Y-309823
X380126Y-236798
X380126Y-309823
T5
X254746Y-199848
T6
X396798Y-260938
X396798Y-291838
T0
M30
