G04 #@! TF.GenerationSoftware,KiCad,Pcbnew,5.1.5-52549c5~84~ubuntu18.04.1*
G04 #@! TF.CreationDate,2019-12-12T01:36:16-05:00*
G04 #@! TF.ProjectId,data_pod_battery_board,64617461-5f70-46f6-945f-626174746572,1*
G04 #@! TF.SameCoordinates,Original*
G04 #@! TF.FileFunction,Legend,Top*
G04 #@! TF.FilePolarity,Positive*
%FSLAX46Y46*%
G04 Gerber Fmt 4.6, Leading zero omitted, Abs format (unit mm)*
G04 Created by KiCad (PCBNEW 5.1.5-52549c5~84~ubuntu18.04.1) date 2019-12-12 01:36:16*
%MOMM*%
%LPD*%
G04 APERTURE LIST*
%ADD10C,0.375000*%
%ADD11C,0.120000*%
%ADD12C,0.150000*%
%ADD13C,0.250000*%
%ADD14C,0.500000*%
G04 APERTURE END LIST*
D10*
X325043154Y-64197848D02*
X325757439Y-64197848D01*
X324900296Y-64626419D02*
X325400296Y-63126419D01*
X325900296Y-64626419D01*
X326686011Y-63126419D02*
X326971725Y-63126419D01*
X327114582Y-63197848D01*
X327257439Y-63340705D01*
X327328868Y-63626419D01*
X327328868Y-64126419D01*
X327257439Y-64412133D01*
X327114582Y-64554990D01*
X326971725Y-64626419D01*
X326686011Y-64626419D01*
X326543154Y-64554990D01*
X326400296Y-64412133D01*
X326328868Y-64126419D01*
X326328868Y-63626419D01*
X326400296Y-63340705D01*
X326543154Y-63197848D01*
X326686011Y-63126419D01*
X327971725Y-64626419D02*
X327971725Y-63126419D01*
X328471725Y-64197848D01*
X328971725Y-63126419D01*
X328971725Y-64626419D01*
X330400296Y-64626419D02*
X329686011Y-64626419D01*
X329686011Y-63126419D01*
X331971725Y-64197848D02*
X332686011Y-64197848D01*
X331828868Y-64626419D02*
X332328868Y-63126419D01*
X332828868Y-64626419D01*
X333828868Y-63840705D02*
X334043154Y-63912133D01*
X334114582Y-63983562D01*
X334186011Y-64126419D01*
X334186011Y-64340705D01*
X334114582Y-64483562D01*
X334043154Y-64554990D01*
X333900296Y-64626419D01*
X333328868Y-64626419D01*
X333328868Y-63126419D01*
X333828868Y-63126419D01*
X333971725Y-63197848D01*
X334043154Y-63269276D01*
X334114582Y-63412133D01*
X334114582Y-63554990D01*
X334043154Y-63697848D01*
X333971725Y-63769276D01*
X333828868Y-63840705D01*
X333328868Y-63840705D01*
X334828868Y-64626419D02*
X334828868Y-63126419D01*
X335543154Y-64626419D02*
X335543154Y-63126419D01*
X336186011Y-64554990D02*
X336400296Y-64626419D01*
X336757439Y-64626419D01*
X336900296Y-64554990D01*
X336971725Y-64483562D01*
X337043154Y-64340705D01*
X337043154Y-64197848D01*
X336971725Y-64054990D01*
X336900296Y-63983562D01*
X336757439Y-63912133D01*
X336471725Y-63840705D01*
X336328868Y-63769276D01*
X336257439Y-63697848D01*
X336186011Y-63554990D01*
X336186011Y-63412133D01*
X336257439Y-63269276D01*
X336328868Y-63197848D01*
X336471725Y-63126419D01*
X336828868Y-63126419D01*
X337043154Y-63197848D01*
X337614582Y-64554990D02*
X337828868Y-64626419D01*
X338186011Y-64626419D01*
X338328868Y-64554990D01*
X338400296Y-64483562D01*
X338471725Y-64340705D01*
X338471725Y-64197848D01*
X338400296Y-64054990D01*
X338328868Y-63983562D01*
X338186011Y-63912133D01*
X337900296Y-63840705D01*
X337757439Y-63769276D01*
X337686011Y-63697848D01*
X337614582Y-63554990D01*
X337614582Y-63412133D01*
X337686011Y-63269276D01*
X337757439Y-63197848D01*
X337900296Y-63126419D01*
X338257439Y-63126419D01*
X338471725Y-63197848D01*
X340757439Y-63840705D02*
X340971725Y-63912133D01*
X341043154Y-63983562D01*
X341114582Y-64126419D01*
X341114582Y-64340705D01*
X341043154Y-64483562D01*
X340971725Y-64554990D01*
X340828868Y-64626419D01*
X340257439Y-64626419D01*
X340257439Y-63126419D01*
X340757439Y-63126419D01*
X340900296Y-63197848D01*
X340971725Y-63269276D01*
X341043154Y-63412133D01*
X341043154Y-63554990D01*
X340971725Y-63697848D01*
X340900296Y-63769276D01*
X340757439Y-63840705D01*
X340257439Y-63840705D01*
X342400296Y-64626419D02*
X342400296Y-63840705D01*
X342328868Y-63697848D01*
X342186011Y-63626419D01*
X341900296Y-63626419D01*
X341757439Y-63697848D01*
X342400296Y-64554990D02*
X342257439Y-64626419D01*
X341900296Y-64626419D01*
X341757439Y-64554990D01*
X341686011Y-64412133D01*
X341686011Y-64269276D01*
X341757439Y-64126419D01*
X341900296Y-64054990D01*
X342257439Y-64054990D01*
X342400296Y-63983562D01*
X342900296Y-63626419D02*
X343471725Y-63626419D01*
X343114582Y-63126419D02*
X343114582Y-64412133D01*
X343186011Y-64554990D01*
X343328868Y-64626419D01*
X343471725Y-64626419D01*
X343757439Y-63626419D02*
X344328868Y-63626419D01*
X343971725Y-63126419D02*
X343971725Y-64412133D01*
X344043154Y-64554990D01*
X344186011Y-64626419D01*
X344328868Y-64626419D01*
X345400296Y-64554990D02*
X345257439Y-64626419D01*
X344971725Y-64626419D01*
X344828868Y-64554990D01*
X344757439Y-64412133D01*
X344757439Y-63840705D01*
X344828868Y-63697848D01*
X344971725Y-63626419D01*
X345257439Y-63626419D01*
X345400296Y-63697848D01*
X345471725Y-63840705D01*
X345471725Y-63983562D01*
X344757439Y-64126419D01*
X346114582Y-64626419D02*
X346114582Y-63626419D01*
X346114582Y-63912133D02*
X346186011Y-63769276D01*
X346257439Y-63697848D01*
X346400296Y-63626419D01*
X346543154Y-63626419D01*
X346900296Y-63626419D02*
X347257439Y-64626419D01*
X347614582Y-63626419D02*
X347257439Y-64626419D01*
X347114582Y-64983562D01*
X347043154Y-65054990D01*
X346900296Y-65126419D01*
X349828868Y-63840705D02*
X350043154Y-63912133D01*
X350114582Y-63983562D01*
X350186011Y-64126419D01*
X350186011Y-64340705D01*
X350114582Y-64483562D01*
X350043154Y-64554990D01*
X349900296Y-64626419D01*
X349328868Y-64626419D01*
X349328868Y-63126419D01*
X349828868Y-63126419D01*
X349971725Y-63197848D01*
X350043154Y-63269276D01*
X350114582Y-63412133D01*
X350114582Y-63554990D01*
X350043154Y-63697848D01*
X349971725Y-63769276D01*
X349828868Y-63840705D01*
X349328868Y-63840705D01*
X351043154Y-64626419D02*
X350900296Y-64554990D01*
X350828868Y-64483562D01*
X350757439Y-64340705D01*
X350757439Y-63912133D01*
X350828868Y-63769276D01*
X350900296Y-63697848D01*
X351043154Y-63626419D01*
X351257439Y-63626419D01*
X351400296Y-63697848D01*
X351471725Y-63769276D01*
X351543154Y-63912133D01*
X351543154Y-64340705D01*
X351471725Y-64483562D01*
X351400296Y-64554990D01*
X351257439Y-64626419D01*
X351043154Y-64626419D01*
X352828868Y-64626419D02*
X352828868Y-63840705D01*
X352757439Y-63697848D01*
X352614582Y-63626419D01*
X352328868Y-63626419D01*
X352186011Y-63697848D01*
X352828868Y-64554990D02*
X352686011Y-64626419D01*
X352328868Y-64626419D01*
X352186011Y-64554990D01*
X352114582Y-64412133D01*
X352114582Y-64269276D01*
X352186011Y-64126419D01*
X352328868Y-64054990D01*
X352686011Y-64054990D01*
X352828868Y-63983562D01*
X353543154Y-64626419D02*
X353543154Y-63626419D01*
X353543154Y-63912133D02*
X353614582Y-63769276D01*
X353686011Y-63697848D01*
X353828868Y-63626419D01*
X353971725Y-63626419D01*
X355114582Y-64626419D02*
X355114582Y-63126419D01*
X355114582Y-64554990D02*
X354971725Y-64626419D01*
X354686011Y-64626419D01*
X354543154Y-64554990D01*
X354471725Y-64483562D01*
X354400296Y-64340705D01*
X354400296Y-63912133D01*
X354471725Y-63769276D01*
X354543154Y-63697848D01*
X354686011Y-63626419D01*
X354971725Y-63626419D01*
X355114582Y-63697848D01*
X357828868Y-64626419D02*
X357328868Y-63912133D01*
X356971725Y-64626419D02*
X356971725Y-63126419D01*
X357543154Y-63126419D01*
X357686011Y-63197848D01*
X357757439Y-63269276D01*
X357828868Y-63412133D01*
X357828868Y-63626419D01*
X357757439Y-63769276D01*
X357686011Y-63840705D01*
X357543154Y-63912133D01*
X356971725Y-63912133D01*
X359043154Y-64554990D02*
X358900296Y-64626419D01*
X358614582Y-64626419D01*
X358471725Y-64554990D01*
X358400296Y-64412133D01*
X358400296Y-63840705D01*
X358471725Y-63697848D01*
X358614582Y-63626419D01*
X358900296Y-63626419D01*
X359043154Y-63697848D01*
X359114582Y-63840705D01*
X359114582Y-63983562D01*
X358400296Y-64126419D01*
X359614582Y-63626419D02*
X359971725Y-64626419D01*
X360328868Y-63626419D01*
X361971725Y-63269276D02*
X362043154Y-63197848D01*
X362186011Y-63126419D01*
X362543154Y-63126419D01*
X362686011Y-63197848D01*
X362757439Y-63269276D01*
X362828868Y-63412133D01*
X362828868Y-63554990D01*
X362757439Y-63769276D01*
X361900296Y-64626419D01*
X362828868Y-64626419D01*
X363471725Y-64483562D02*
X363543154Y-64554990D01*
X363471725Y-64626419D01*
X363400296Y-64554990D01*
X363471725Y-64483562D01*
X363471725Y-64626419D01*
D11*
X397728152Y-199431848D02*
X394788152Y-199431848D01*
X397728152Y-199671848D02*
X394788152Y-199671848D01*
X397728152Y-199551848D02*
X394788152Y-199551848D01*
X396258152Y-205111848D02*
X396258152Y-204091848D01*
X396258152Y-197631848D02*
X396258152Y-198651848D01*
X397728152Y-204091848D02*
X397728152Y-198651848D01*
X394788152Y-204091848D02*
X397728152Y-204091848D01*
X394788152Y-198651848D02*
X394788152Y-204091848D01*
X397728152Y-198651848D02*
X394788152Y-198651848D01*
X307118152Y-206657848D02*
X307118152Y-203717848D01*
X306878152Y-206657848D02*
X306878152Y-203717848D01*
X306998152Y-206657848D02*
X306998152Y-203717848D01*
X301438152Y-205187848D02*
X302458152Y-205187848D01*
X308918152Y-205187848D02*
X307898152Y-205187848D01*
X302458152Y-206657848D02*
X307898152Y-206657848D01*
X302458152Y-203717848D02*
X302458152Y-206657848D01*
X307898152Y-203717848D02*
X302458152Y-203717848D01*
X307898152Y-206657848D02*
X307898152Y-203717848D01*
X139283152Y-228517848D02*
X152283152Y-228517848D01*
X152283152Y-228517848D02*
X152283152Y-212517848D01*
X139283152Y-212517848D02*
X152283152Y-212517848D01*
X139283152Y-228517848D02*
X139283152Y-212517848D01*
X220370652Y-220517848D02*
G75*
G03X220370652Y-220517848I-1587500J0D01*
G01*
X147370652Y-220517848D02*
G75*
G03X147370652Y-220517848I-1587500J0D01*
G01*
X119783152Y-239517848D02*
X244783152Y-239517848D01*
X244783152Y-201517848D02*
X244783152Y-239517848D01*
X119783152Y-201517848D02*
X244783152Y-201517848D01*
X119783152Y-239517848D02*
X119783152Y-201517848D01*
X212283152Y-228517848D02*
X212283152Y-212517848D01*
X212283152Y-212517848D02*
X225283152Y-212517848D01*
X225283152Y-228517848D02*
X225283152Y-212517848D01*
X212283152Y-228517848D02*
X225283152Y-228517848D01*
X139283152Y-274522848D02*
X152283152Y-274522848D01*
X152283152Y-274522848D02*
X152283152Y-258522848D01*
X139283152Y-258522848D02*
X152283152Y-258522848D01*
X139283152Y-274522848D02*
X139283152Y-258522848D01*
X220370652Y-266522848D02*
G75*
G03X220370652Y-266522848I-1587500J0D01*
G01*
X147370652Y-266522848D02*
G75*
G03X147370652Y-266522848I-1587500J0D01*
G01*
X119783152Y-285522848D02*
X244783152Y-285522848D01*
X244783152Y-247522848D02*
X244783152Y-285522848D01*
X119783152Y-247522848D02*
X244783152Y-247522848D01*
X119783152Y-285522848D02*
X119783152Y-247522848D01*
X212283152Y-274522848D02*
X212283152Y-258522848D01*
X212283152Y-258522848D02*
X225283152Y-258522848D01*
X225283152Y-274522848D02*
X225283152Y-258522848D01*
X212283152Y-274522848D02*
X225283152Y-274522848D01*
X139283152Y-320527848D02*
X152283152Y-320527848D01*
X152283152Y-320527848D02*
X152283152Y-304527848D01*
X139283152Y-304527848D02*
X152283152Y-304527848D01*
X139283152Y-320527848D02*
X139283152Y-304527848D01*
X220370652Y-312527848D02*
G75*
G03X220370652Y-312527848I-1587500J0D01*
G01*
X147370652Y-312527848D02*
G75*
G03X147370652Y-312527848I-1587500J0D01*
G01*
X119783152Y-331527848D02*
X244783152Y-331527848D01*
X244783152Y-293527848D02*
X244783152Y-331527848D01*
X119783152Y-293527848D02*
X244783152Y-293527848D01*
X119783152Y-331527848D02*
X119783152Y-293527848D01*
X212283152Y-320527848D02*
X212283152Y-304527848D01*
X212283152Y-304527848D02*
X225283152Y-304527848D01*
X225283152Y-320527848D02*
X225283152Y-304527848D01*
X212283152Y-320527848D02*
X225283152Y-320527848D01*
X283415652Y-316310348D02*
X283415652Y-303310348D01*
X283415652Y-303310348D02*
X267415652Y-303310348D01*
X267415652Y-316310348D02*
X267415652Y-303310348D01*
X283415652Y-316310348D02*
X267415652Y-316310348D01*
X277003152Y-236810348D02*
G75*
G03X277003152Y-236810348I-1587500J0D01*
G01*
X277003152Y-309810348D02*
G75*
G03X277003152Y-309810348I-1587500J0D01*
G01*
X294415652Y-335810348D02*
X294415652Y-210810348D01*
X256415652Y-210810348D02*
X294415652Y-210810348D01*
X256415652Y-335810348D02*
X256415652Y-210810348D01*
X294415652Y-335810348D02*
X256415652Y-335810348D01*
X283415652Y-243310348D02*
X267415652Y-243310348D01*
X267415652Y-243310348D02*
X267415652Y-230310348D01*
X283415652Y-230310348D02*
X267415652Y-230310348D01*
X283415652Y-243310348D02*
X283415652Y-230310348D01*
X329420652Y-316310348D02*
X329420652Y-303310348D01*
X329420652Y-303310348D02*
X313420652Y-303310348D01*
X313420652Y-316310348D02*
X313420652Y-303310348D01*
X329420652Y-316310348D02*
X313420652Y-316310348D01*
X323008152Y-236810348D02*
G75*
G03X323008152Y-236810348I-1587500J0D01*
G01*
X323008152Y-309810348D02*
G75*
G03X323008152Y-309810348I-1587500J0D01*
G01*
X340420652Y-335810348D02*
X340420652Y-210810348D01*
X302420652Y-210810348D02*
X340420652Y-210810348D01*
X302420652Y-335810348D02*
X302420652Y-210810348D01*
X340420652Y-335810348D02*
X302420652Y-335810348D01*
X329420652Y-243310348D02*
X313420652Y-243310348D01*
X313420652Y-243310348D02*
X313420652Y-230310348D01*
X329420652Y-230310348D02*
X313420652Y-230310348D01*
X329420652Y-243310348D02*
X329420652Y-230310348D01*
X375425652Y-243310348D02*
X375425652Y-230310348D01*
X375425652Y-230310348D02*
X359425652Y-230310348D01*
X359425652Y-243310348D02*
X359425652Y-230310348D01*
X375425652Y-243310348D02*
X359425652Y-243310348D01*
X386425652Y-335810348D02*
X348425652Y-335810348D01*
X348425652Y-335810348D02*
X348425652Y-210810348D01*
X348425652Y-210810348D02*
X386425652Y-210810348D01*
X386425652Y-335810348D02*
X386425652Y-210810348D01*
X369013152Y-309810348D02*
G75*
G03X369013152Y-309810348I-1587500J0D01*
G01*
X369013152Y-236810348D02*
G75*
G03X369013152Y-236810348I-1587500J0D01*
G01*
X375425652Y-316310348D02*
X359425652Y-316310348D01*
X359425652Y-316310348D02*
X359425652Y-303310348D01*
X375425652Y-303310348D02*
X359425652Y-303310348D01*
X375425652Y-316310348D02*
X375425652Y-303310348D01*
X298258152Y-172797848D02*
X285258152Y-172797848D01*
X285258152Y-172797848D02*
X285258152Y-188797848D01*
X298258152Y-188797848D02*
X285258152Y-188797848D01*
X298258152Y-172797848D02*
X298258152Y-188797848D01*
X390758152Y-161797848D02*
X390758152Y-199797848D01*
X390758152Y-199797848D02*
X265758152Y-199797848D01*
X265758152Y-199797848D02*
X265758152Y-161797848D01*
X390758152Y-161797848D02*
X265758152Y-161797848D01*
X366345652Y-180797848D02*
G75*
G03X366345652Y-180797848I-1587500J0D01*
G01*
X293345652Y-180797848D02*
G75*
G03X293345652Y-180797848I-1587500J0D01*
G01*
X371258152Y-172797848D02*
X371258152Y-188797848D01*
X371258152Y-188797848D02*
X358258152Y-188797848D01*
X358258152Y-172797848D02*
X358258152Y-188797848D01*
X371258152Y-172797848D02*
X358258152Y-172797848D01*
X298258152Y-126792848D02*
X285258152Y-126792848D01*
X285258152Y-126792848D02*
X285258152Y-142792848D01*
X298258152Y-142792848D02*
X285258152Y-142792848D01*
X298258152Y-126792848D02*
X298258152Y-142792848D01*
X390758152Y-115792848D02*
X390758152Y-153792848D01*
X390758152Y-153792848D02*
X265758152Y-153792848D01*
X265758152Y-153792848D02*
X265758152Y-115792848D01*
X390758152Y-115792848D02*
X265758152Y-115792848D01*
X366345652Y-134792848D02*
G75*
G03X366345652Y-134792848I-1587500J0D01*
G01*
X293345652Y-134792848D02*
G75*
G03X293345652Y-134792848I-1587500J0D01*
G01*
X371258152Y-126792848D02*
X371258152Y-142792848D01*
X371258152Y-142792848D02*
X358258152Y-142792848D01*
X358258152Y-126792848D02*
X358258152Y-142792848D01*
X371258152Y-126792848D02*
X358258152Y-126792848D01*
X371258152Y-80787848D02*
X358258152Y-80787848D01*
X358258152Y-80787848D02*
X358258152Y-96787848D01*
X371258152Y-96787848D02*
X358258152Y-96787848D01*
X371258152Y-80787848D02*
X371258152Y-96787848D01*
X293345652Y-88787848D02*
G75*
G03X293345652Y-88787848I-1587500J0D01*
G01*
X366345652Y-88787848D02*
G75*
G03X366345652Y-88787848I-1587500J0D01*
G01*
X390758152Y-69787848D02*
X265758152Y-69787848D01*
X265758152Y-107787848D02*
X265758152Y-69787848D01*
X390758152Y-107787848D02*
X265758152Y-107787848D01*
X390758152Y-69787848D02*
X390758152Y-107787848D01*
X298258152Y-80787848D02*
X298258152Y-96787848D01*
X298258152Y-96787848D02*
X285258152Y-96787848D01*
X285258152Y-80787848D02*
X285258152Y-96787848D01*
X298258152Y-80787848D02*
X285258152Y-80787848D01*
X227695652Y-83335348D02*
X227695652Y-96335348D01*
X227695652Y-96335348D02*
X243695652Y-96335348D01*
X243695652Y-83335348D02*
X243695652Y-96335348D01*
X227695652Y-83335348D02*
X243695652Y-83335348D01*
X237283152Y-162835348D02*
G75*
G03X237283152Y-162835348I-1587500J0D01*
G01*
X237283152Y-89835348D02*
G75*
G03X237283152Y-89835348I-1587500J0D01*
G01*
X216695652Y-63835348D02*
X216695652Y-188835348D01*
X254695652Y-188835348D02*
X216695652Y-188835348D01*
X254695652Y-63835348D02*
X254695652Y-188835348D01*
X216695652Y-63835348D02*
X254695652Y-63835348D01*
X227695652Y-156335348D02*
X243695652Y-156335348D01*
X243695652Y-156335348D02*
X243695652Y-169335348D01*
X227695652Y-169335348D02*
X243695652Y-169335348D01*
X227695652Y-156335348D02*
X227695652Y-169335348D01*
X181690652Y-83335348D02*
X181690652Y-96335348D01*
X181690652Y-96335348D02*
X197690652Y-96335348D01*
X197690652Y-83335348D02*
X197690652Y-96335348D01*
X181690652Y-83335348D02*
X197690652Y-83335348D01*
X191278152Y-162835348D02*
G75*
G03X191278152Y-162835348I-1587500J0D01*
G01*
X191278152Y-89835348D02*
G75*
G03X191278152Y-89835348I-1587500J0D01*
G01*
X170690652Y-63835348D02*
X170690652Y-188835348D01*
X208690652Y-188835348D02*
X170690652Y-188835348D01*
X208690652Y-63835348D02*
X208690652Y-188835348D01*
X170690652Y-63835348D02*
X208690652Y-63835348D01*
X181690652Y-156335348D02*
X197690652Y-156335348D01*
X197690652Y-156335348D02*
X197690652Y-169335348D01*
X181690652Y-169335348D02*
X197690652Y-169335348D01*
X181690652Y-156335348D02*
X181690652Y-169335348D01*
X135685652Y-156335348D02*
X135685652Y-169335348D01*
X135685652Y-169335348D02*
X151685652Y-169335348D01*
X151685652Y-156335348D02*
X151685652Y-169335348D01*
X135685652Y-156335348D02*
X151685652Y-156335348D01*
X124685652Y-63835348D02*
X162685652Y-63835348D01*
X162685652Y-63835348D02*
X162685652Y-188835348D01*
X162685652Y-188835348D02*
X124685652Y-188835348D01*
X124685652Y-63835348D02*
X124685652Y-188835348D01*
X145273152Y-89835348D02*
G75*
G03X145273152Y-89835348I-1587500J0D01*
G01*
X145273152Y-162835348D02*
G75*
G03X145273152Y-162835348I-1587500J0D01*
G01*
X135685652Y-83335348D02*
X151685652Y-83335348D01*
X151685652Y-83335348D02*
X151685652Y-96335348D01*
X135685652Y-96335348D02*
X151685652Y-96335348D01*
X135685652Y-83335348D02*
X135685652Y-96335348D01*
X394788152Y-154035848D02*
X397728152Y-154035848D01*
X394788152Y-153795848D02*
X397728152Y-153795848D01*
X394788152Y-153915848D02*
X397728152Y-153915848D01*
X396258152Y-148355848D02*
X396258152Y-149375848D01*
X396258152Y-155835848D02*
X396258152Y-154815848D01*
X394788152Y-149375848D02*
X394788152Y-154815848D01*
X397728152Y-149375848D02*
X394788152Y-149375848D01*
X397728152Y-154815848D02*
X397728152Y-149375848D01*
X394788152Y-154815848D02*
X397728152Y-154815848D01*
X254118152Y-59757848D02*
X254118152Y-56817848D01*
X253878152Y-59757848D02*
X253878152Y-56817848D01*
X253998152Y-59757848D02*
X253998152Y-56817848D01*
X248438152Y-58287848D02*
X249458152Y-58287848D01*
X255918152Y-58287848D02*
X254898152Y-58287848D01*
X249458152Y-59757848D02*
X254898152Y-59757848D01*
X249458152Y-56817848D02*
X249458152Y-59757848D01*
X254898152Y-56817848D02*
X249458152Y-56817848D01*
X254898152Y-59757848D02*
X254898152Y-56817848D01*
X163018152Y-59757848D02*
X163018152Y-56817848D01*
X162778152Y-59757848D02*
X162778152Y-56817848D01*
X162898152Y-59757848D02*
X162898152Y-56817848D01*
X157338152Y-58287848D02*
X158358152Y-58287848D01*
X164818152Y-58287848D02*
X163798152Y-58287848D01*
X158358152Y-59757848D02*
X163798152Y-59757848D01*
X158358152Y-56817848D02*
X158358152Y-59757848D01*
X163798152Y-56817848D02*
X158358152Y-56817848D01*
X163798152Y-59757848D02*
X163798152Y-56817848D01*
X115738152Y-248587848D02*
X112798152Y-248587848D01*
X115738152Y-248827848D02*
X112798152Y-248827848D01*
X115738152Y-248707848D02*
X112798152Y-248707848D01*
X114268152Y-254267848D02*
X114268152Y-253247848D01*
X114268152Y-246787848D02*
X114268152Y-247807848D01*
X115738152Y-253247848D02*
X115738152Y-247807848D01*
X112798152Y-253247848D02*
X115738152Y-253247848D01*
X112798152Y-247807848D02*
X112798152Y-253247848D01*
X115738152Y-247807848D02*
X112798152Y-247807848D01*
X393608152Y-291837848D02*
X393608152Y-294917848D01*
X393608152Y-294917848D02*
X397308152Y-294917848D01*
X397308152Y-294917848D02*
X397308152Y-294547848D01*
X397308152Y-294547848D02*
X400168152Y-294547848D01*
X400168152Y-294547848D02*
X400168152Y-291837848D01*
X393608152Y-291837848D02*
X393608152Y-288757848D01*
X393608152Y-288757848D02*
X397308152Y-288757848D01*
X397308152Y-288757848D02*
X397308152Y-289127848D01*
X397308152Y-289127848D02*
X400168152Y-289127848D01*
X400168152Y-289127848D02*
X400168152Y-291837848D01*
X395458152Y-295217848D02*
X397608152Y-295217848D01*
X397608152Y-295217848D02*
X397608152Y-294547848D01*
X397608152Y-264317848D02*
X397608152Y-263647848D01*
X395458152Y-264317848D02*
X397608152Y-264317848D01*
X400168152Y-258227848D02*
X400168152Y-260937848D01*
X397308152Y-258227848D02*
X400168152Y-258227848D01*
X397308152Y-257857848D02*
X397308152Y-258227848D01*
X393608152Y-257857848D02*
X397308152Y-257857848D01*
X393608152Y-260937848D02*
X393608152Y-257857848D01*
X400168152Y-263647848D02*
X400168152Y-260937848D01*
X397308152Y-263647848D02*
X400168152Y-263647848D01*
X397308152Y-264017848D02*
X397308152Y-263647848D01*
X393608152Y-264017848D02*
X397308152Y-264017848D01*
X393608152Y-260937848D02*
X393608152Y-264017848D01*
D12*
X320631128Y-211380228D02*
X320631128Y-212094514D01*
X320583509Y-212237371D01*
X320488271Y-212332609D01*
X320345413Y-212380228D01*
X320250175Y-212380228D01*
X321583509Y-211380228D02*
X321107318Y-211380228D01*
X321059699Y-211856419D01*
X321107318Y-211808800D01*
X321202556Y-211761181D01*
X321440652Y-211761181D01*
X321535890Y-211808800D01*
X321583509Y-211856419D01*
X321631128Y-211951657D01*
X321631128Y-212189752D01*
X321583509Y-212284990D01*
X321535890Y-212332609D01*
X321440652Y-212380228D01*
X321202556Y-212380228D01*
X321107318Y-212332609D01*
X321059699Y-212284990D01*
X322250175Y-211380228D02*
X322345413Y-211380228D01*
X322440652Y-211427848D01*
X322488271Y-211475467D01*
X322535890Y-211570705D01*
X322583509Y-211761181D01*
X322583509Y-211999276D01*
X322535890Y-212189752D01*
X322488271Y-212284990D01*
X322440652Y-212332609D01*
X322345413Y-212380228D01*
X322250175Y-212380228D01*
X322154937Y-212332609D01*
X322107318Y-212284990D01*
X322059699Y-212189752D01*
X322012080Y-211999276D01*
X322012080Y-211761181D01*
X322059699Y-211570705D01*
X322107318Y-211475467D01*
X322154937Y-211427848D01*
X322250175Y-211380228D01*
X320591128Y-334100228D02*
X320591128Y-334814514D01*
X320543509Y-334957371D01*
X320448271Y-335052609D01*
X320305413Y-335100228D01*
X320210175Y-335100228D01*
X321495890Y-334433562D02*
X321495890Y-335100228D01*
X321257794Y-334052609D02*
X321019699Y-334766895D01*
X321638747Y-334766895D01*
X322162556Y-334528800D02*
X322067318Y-334481181D01*
X322019699Y-334433562D01*
X321972080Y-334338324D01*
X321972080Y-334290705D01*
X322019699Y-334195467D01*
X322067318Y-334147848D01*
X322162556Y-334100228D01*
X322353032Y-334100228D01*
X322448271Y-334147848D01*
X322495890Y-334195467D01*
X322543509Y-334290705D01*
X322543509Y-334338324D01*
X322495890Y-334433562D01*
X322448271Y-334481181D01*
X322353032Y-334528800D01*
X322162556Y-334528800D01*
X322067318Y-334576419D01*
X322019699Y-334624038D01*
X321972080Y-334719276D01*
X321972080Y-334909752D01*
X322019699Y-335004990D01*
X322067318Y-335052609D01*
X322162556Y-335100228D01*
X322353032Y-335100228D01*
X322448271Y-335052609D01*
X322495890Y-335004990D01*
X322543509Y-334909752D01*
X322543509Y-334719276D01*
X322495890Y-334624038D01*
X322448271Y-334576419D01*
X322353032Y-334528800D01*
X266150532Y-181587371D02*
X266864818Y-181587371D01*
X267007675Y-181634990D01*
X267102913Y-181730228D01*
X267150532Y-181873086D01*
X267150532Y-181968324D01*
X266483866Y-180682609D02*
X267150532Y-180682609D01*
X266102913Y-180920705D02*
X266817199Y-181158800D01*
X266817199Y-180539752D01*
X266150532Y-179682609D02*
X266150532Y-180158800D01*
X266626723Y-180206419D01*
X266579104Y-180158800D01*
X266531485Y-180063562D01*
X266531485Y-179825467D01*
X266579104Y-179730228D01*
X266626723Y-179682609D01*
X266721961Y-179634990D01*
X266960056Y-179634990D01*
X267055294Y-179682609D01*
X267102913Y-179730228D01*
X267150532Y-179825467D01*
X267150532Y-180063562D01*
X267102913Y-180158800D01*
X267055294Y-180206419D01*
X388980532Y-181627371D02*
X389694818Y-181627371D01*
X389837675Y-181674990D01*
X389932913Y-181770228D01*
X389980532Y-181913086D01*
X389980532Y-182008324D01*
X389313866Y-180722609D02*
X389980532Y-180722609D01*
X388932913Y-180960705D02*
X389647199Y-181198800D01*
X389647199Y-180579752D01*
X388980532Y-180294038D02*
X388980532Y-179674990D01*
X389361485Y-180008324D01*
X389361485Y-179865467D01*
X389409104Y-179770228D01*
X389456723Y-179722609D01*
X389551961Y-179674990D01*
X389790056Y-179674990D01*
X389885294Y-179722609D01*
X389932913Y-179770228D01*
X389980532Y-179865467D01*
X389980532Y-180151181D01*
X389932913Y-180246419D01*
X389885294Y-180294038D01*
X366636128Y-211380228D02*
X366636128Y-212094514D01*
X366588509Y-212237371D01*
X366493271Y-212332609D01*
X366350413Y-212380228D01*
X366255175Y-212380228D01*
X367540890Y-211713562D02*
X367540890Y-212380228D01*
X367302794Y-211332609D02*
X367064699Y-212046895D01*
X367683747Y-212046895D01*
X368017080Y-211475467D02*
X368064699Y-211427848D01*
X368159937Y-211380228D01*
X368398032Y-211380228D01*
X368493271Y-211427848D01*
X368540890Y-211475467D01*
X368588509Y-211570705D01*
X368588509Y-211665943D01*
X368540890Y-211808800D01*
X367969461Y-212380228D01*
X368588509Y-212380228D01*
X274626128Y-211380228D02*
X274626128Y-212094514D01*
X274578509Y-212237371D01*
X274483271Y-212332609D01*
X274340413Y-212380228D01*
X274245175Y-212380228D01*
X275530890Y-211713562D02*
X275530890Y-212380228D01*
X275292794Y-211332609D02*
X275054699Y-212046895D01*
X275673747Y-212046895D01*
X276578509Y-212380228D02*
X276007080Y-212380228D01*
X276292794Y-212380228D02*
X276292794Y-211380228D01*
X276197556Y-211523086D01*
X276102318Y-211618324D01*
X276007080Y-211665943D01*
X366596128Y-334100228D02*
X366596128Y-334814514D01*
X366548509Y-334957371D01*
X366453271Y-335052609D01*
X366310413Y-335100228D01*
X366215175Y-335100228D01*
X367500890Y-334433562D02*
X367500890Y-335100228D01*
X367262794Y-334052609D02*
X367024699Y-334766895D01*
X367643747Y-334766895D01*
X368215175Y-334100228D02*
X368310413Y-334100228D01*
X368405652Y-334147848D01*
X368453271Y-334195467D01*
X368500890Y-334290705D01*
X368548509Y-334481181D01*
X368548509Y-334719276D01*
X368500890Y-334909752D01*
X368453271Y-335004990D01*
X368405652Y-335052609D01*
X368310413Y-335100228D01*
X368215175Y-335100228D01*
X368119937Y-335052609D01*
X368072318Y-335004990D01*
X368024699Y-334909752D01*
X367977080Y-334719276D01*
X367977080Y-334481181D01*
X368024699Y-334290705D01*
X368072318Y-334195467D01*
X368119937Y-334147848D01*
X368215175Y-334100228D01*
X274586128Y-334100228D02*
X274586128Y-334814514D01*
X274538509Y-334957371D01*
X274443271Y-335052609D01*
X274300413Y-335100228D01*
X274205175Y-335100228D01*
X274967080Y-334100228D02*
X275586128Y-334100228D01*
X275252794Y-334481181D01*
X275395652Y-334481181D01*
X275490890Y-334528800D01*
X275538509Y-334576419D01*
X275586128Y-334671657D01*
X275586128Y-334909752D01*
X275538509Y-335004990D01*
X275490890Y-335052609D01*
X275395652Y-335100228D01*
X275109937Y-335100228D01*
X275014699Y-335052609D01*
X274967080Y-335004990D01*
X276062318Y-335100228D02*
X276252794Y-335100228D01*
X276348032Y-335052609D01*
X276395652Y-335004990D01*
X276490890Y-334862133D01*
X276538509Y-334671657D01*
X276538509Y-334290705D01*
X276490890Y-334195467D01*
X276443271Y-334147848D01*
X276348032Y-334100228D01*
X276157556Y-334100228D01*
X276062318Y-334147848D01*
X276014699Y-334195467D01*
X275967080Y-334290705D01*
X275967080Y-334528800D01*
X276014699Y-334624038D01*
X276062318Y-334671657D01*
X276157556Y-334719276D01*
X276348032Y-334719276D01*
X276443271Y-334671657D01*
X276490890Y-334624038D01*
X276538509Y-334528800D01*
X266150532Y-89577371D02*
X266864818Y-89577371D01*
X267007675Y-89624990D01*
X267102913Y-89720228D01*
X267150532Y-89863086D01*
X267150532Y-89958324D01*
X266245771Y-89148800D02*
X266198152Y-89101181D01*
X266150532Y-89005943D01*
X266150532Y-88767848D01*
X266198152Y-88672609D01*
X266245771Y-88624990D01*
X266341009Y-88577371D01*
X266436247Y-88577371D01*
X266579104Y-88624990D01*
X267150532Y-89196419D01*
X267150532Y-88577371D01*
X266150532Y-87672609D02*
X266150532Y-88148800D01*
X266626723Y-88196419D01*
X266579104Y-88148800D01*
X266531485Y-88053562D01*
X266531485Y-87815467D01*
X266579104Y-87720228D01*
X266626723Y-87672609D01*
X266721961Y-87624990D01*
X266960056Y-87624990D01*
X267055294Y-87672609D01*
X267102913Y-87720228D01*
X267150532Y-87815467D01*
X267150532Y-88053562D01*
X267102913Y-88148800D01*
X267055294Y-88196419D01*
X188901128Y-200380228D02*
X188901128Y-201094514D01*
X188853509Y-201237371D01*
X188758271Y-201332609D01*
X188615413Y-201380228D01*
X188520175Y-201380228D01*
X189329699Y-200475467D02*
X189377318Y-200427848D01*
X189472556Y-200380228D01*
X189710652Y-200380228D01*
X189805890Y-200427848D01*
X189853509Y-200475467D01*
X189901128Y-200570705D01*
X189901128Y-200665943D01*
X189853509Y-200808800D01*
X189282080Y-201380228D01*
X189901128Y-201380228D01*
X190758271Y-200713562D02*
X190758271Y-201380228D01*
X190520175Y-200332609D02*
X190282080Y-201046895D01*
X190901128Y-201046895D01*
X256540532Y-221307371D02*
X257254818Y-221307371D01*
X257397675Y-221354990D01*
X257492913Y-221450228D01*
X257540532Y-221593086D01*
X257540532Y-221688324D01*
X256635771Y-220878800D02*
X256588152Y-220831181D01*
X256540532Y-220735943D01*
X256540532Y-220497848D01*
X256588152Y-220402609D01*
X256635771Y-220354990D01*
X256731009Y-220307371D01*
X256826247Y-220307371D01*
X256969104Y-220354990D01*
X257540532Y-220926419D01*
X257540532Y-220307371D01*
X256540532Y-219974038D02*
X256540532Y-219354990D01*
X256921485Y-219688324D01*
X256921485Y-219545467D01*
X256969104Y-219450228D01*
X257016723Y-219402609D01*
X257111961Y-219354990D01*
X257350056Y-219354990D01*
X257445294Y-219402609D01*
X257492913Y-219450228D01*
X257540532Y-219545467D01*
X257540532Y-219831181D01*
X257492913Y-219926419D01*
X257445294Y-219974038D01*
X256540532Y-313317371D02*
X257254818Y-313317371D01*
X257397675Y-313364990D01*
X257492913Y-313460228D01*
X257540532Y-313603086D01*
X257540532Y-313698324D01*
X256635771Y-312888800D02*
X256588152Y-312841181D01*
X256540532Y-312745943D01*
X256540532Y-312507848D01*
X256588152Y-312412609D01*
X256635771Y-312364990D01*
X256731009Y-312317371D01*
X256826247Y-312317371D01*
X256969104Y-312364990D01*
X257540532Y-312936419D01*
X257540532Y-312317371D01*
X256635771Y-311936419D02*
X256588152Y-311888800D01*
X256540532Y-311793562D01*
X256540532Y-311555467D01*
X256588152Y-311460228D01*
X256635771Y-311412609D01*
X256731009Y-311364990D01*
X256826247Y-311364990D01*
X256969104Y-311412609D01*
X257540532Y-311984038D01*
X257540532Y-311364990D01*
X388980532Y-89617371D02*
X389694818Y-89617371D01*
X389837675Y-89664990D01*
X389932913Y-89760228D01*
X389980532Y-89903086D01*
X389980532Y-89998324D01*
X389075771Y-89188800D02*
X389028152Y-89141181D01*
X388980532Y-89045943D01*
X388980532Y-88807848D01*
X389028152Y-88712609D01*
X389075771Y-88664990D01*
X389171009Y-88617371D01*
X389266247Y-88617371D01*
X389409104Y-88664990D01*
X389980532Y-89236419D01*
X389980532Y-88617371D01*
X389980532Y-87664990D02*
X389980532Y-88236419D01*
X389980532Y-87950705D02*
X388980532Y-87950705D01*
X389123390Y-88045943D01*
X389218628Y-88141181D01*
X389266247Y-88236419D01*
X188901128Y-64470228D02*
X188901128Y-65184514D01*
X188853509Y-65327371D01*
X188758271Y-65422609D01*
X188615413Y-65470228D01*
X188520175Y-65470228D01*
X189329699Y-64565467D02*
X189377318Y-64517848D01*
X189472556Y-64470228D01*
X189710652Y-64470228D01*
X189805890Y-64517848D01*
X189853509Y-64565467D01*
X189901128Y-64660705D01*
X189901128Y-64755943D01*
X189853509Y-64898800D01*
X189282080Y-65470228D01*
X189901128Y-65470228D01*
X190520175Y-64470228D02*
X190615413Y-64470228D01*
X190710652Y-64517848D01*
X190758271Y-64565467D01*
X190805890Y-64660705D01*
X190853509Y-64851181D01*
X190853509Y-65089276D01*
X190805890Y-65279752D01*
X190758271Y-65374990D01*
X190710652Y-65422609D01*
X190615413Y-65470228D01*
X190520175Y-65470228D01*
X190424937Y-65422609D01*
X190377318Y-65374990D01*
X190329699Y-65279752D01*
X190282080Y-65089276D01*
X190282080Y-64851181D01*
X190329699Y-64660705D01*
X190377318Y-64565467D01*
X190424937Y-64517848D01*
X190520175Y-64470228D01*
X120450532Y-221307371D02*
X121164818Y-221307371D01*
X121307675Y-221354990D01*
X121402913Y-221450228D01*
X121450532Y-221593086D01*
X121450532Y-221688324D01*
X121450532Y-220307371D02*
X121450532Y-220878800D01*
X121450532Y-220593086D02*
X120450532Y-220593086D01*
X120593390Y-220688324D01*
X120688628Y-220783562D01*
X120736247Y-220878800D01*
X121450532Y-219831181D02*
X121450532Y-219640705D01*
X121402913Y-219545467D01*
X121355294Y-219497848D01*
X121212437Y-219402609D01*
X121021961Y-219354990D01*
X120641009Y-219354990D01*
X120545771Y-219402609D01*
X120498152Y-219450228D01*
X120450532Y-219545467D01*
X120450532Y-219735943D01*
X120498152Y-219831181D01*
X120545771Y-219878800D01*
X120641009Y-219926419D01*
X120879104Y-219926419D01*
X120974342Y-219878800D01*
X121021961Y-219831181D01*
X121069580Y-219735943D01*
X121069580Y-219545467D01*
X121021961Y-219450228D01*
X120974342Y-219402609D01*
X120879104Y-219354990D01*
X120450532Y-313317371D02*
X121164818Y-313317371D01*
X121307675Y-313364990D01*
X121402913Y-313460228D01*
X121450532Y-313603086D01*
X121450532Y-313698324D01*
X121450532Y-312317371D02*
X121450532Y-312888800D01*
X121450532Y-312603086D02*
X120450532Y-312603086D01*
X120593390Y-312698324D01*
X120688628Y-312793562D01*
X120736247Y-312888800D01*
X120879104Y-311745943D02*
X120831485Y-311841181D01*
X120783866Y-311888800D01*
X120688628Y-311936419D01*
X120641009Y-311936419D01*
X120545771Y-311888800D01*
X120498152Y-311841181D01*
X120450532Y-311745943D01*
X120450532Y-311555467D01*
X120498152Y-311460228D01*
X120545771Y-311412609D01*
X120641009Y-311364990D01*
X120688628Y-311364990D01*
X120783866Y-311412609D01*
X120831485Y-311460228D01*
X120879104Y-311555467D01*
X120879104Y-311745943D01*
X120926723Y-311841181D01*
X120974342Y-311888800D01*
X121069580Y-311936419D01*
X121260056Y-311936419D01*
X121355294Y-311888800D01*
X121402913Y-311841181D01*
X121450532Y-311745943D01*
X121450532Y-311555467D01*
X121402913Y-311460228D01*
X121355294Y-311412609D01*
X121260056Y-311364990D01*
X121069580Y-311364990D01*
X120974342Y-311412609D01*
X120926723Y-311460228D01*
X120879104Y-311555467D01*
X266150532Y-135106181D02*
X266864818Y-135106181D01*
X267007675Y-135153800D01*
X267102913Y-135249038D01*
X267150532Y-135391895D01*
X267150532Y-135487133D01*
X267150532Y-134582371D02*
X267150532Y-134391895D01*
X267102913Y-134296657D01*
X267055294Y-134249038D01*
X266912437Y-134153800D01*
X266721961Y-134106181D01*
X266341009Y-134106181D01*
X266245771Y-134153800D01*
X266198152Y-134201419D01*
X266150532Y-134296657D01*
X266150532Y-134487133D01*
X266198152Y-134582371D01*
X266245771Y-134629990D01*
X266341009Y-134677609D01*
X266579104Y-134677609D01*
X266674342Y-134629990D01*
X266721961Y-134582371D01*
X266769580Y-134487133D01*
X266769580Y-134296657D01*
X266721961Y-134201419D01*
X266674342Y-134153800D01*
X266579104Y-134106181D01*
X235382318Y-200380228D02*
X235382318Y-201094514D01*
X235334699Y-201237371D01*
X235239461Y-201332609D01*
X235096604Y-201380228D01*
X235001366Y-201380228D01*
X236001366Y-200808800D02*
X235906128Y-200761181D01*
X235858509Y-200713562D01*
X235810890Y-200618324D01*
X235810890Y-200570705D01*
X235858509Y-200475467D01*
X235906128Y-200427848D01*
X236001366Y-200380228D01*
X236191842Y-200380228D01*
X236287080Y-200427848D01*
X236334699Y-200475467D01*
X236382318Y-200570705D01*
X236382318Y-200618324D01*
X236334699Y-200713562D01*
X236287080Y-200761181D01*
X236191842Y-200808800D01*
X236001366Y-200808800D01*
X235906128Y-200856419D01*
X235858509Y-200904038D01*
X235810890Y-200999276D01*
X235810890Y-201189752D01*
X235858509Y-201284990D01*
X235906128Y-201332609D01*
X236001366Y-201380228D01*
X236191842Y-201380228D01*
X236287080Y-201332609D01*
X236334699Y-201284990D01*
X236382318Y-201189752D01*
X236382318Y-200999276D01*
X236334699Y-200904038D01*
X236287080Y-200856419D01*
X236191842Y-200808800D01*
X143372318Y-200380228D02*
X143372318Y-201094514D01*
X143324699Y-201237371D01*
X143229461Y-201332609D01*
X143086604Y-201380228D01*
X142991366Y-201380228D01*
X143753271Y-200380228D02*
X144419937Y-200380228D01*
X143991366Y-201380228D01*
X256540532Y-266836181D02*
X257254818Y-266836181D01*
X257397675Y-266883800D01*
X257492913Y-266979038D01*
X257540532Y-267121895D01*
X257540532Y-267217133D01*
X256540532Y-265931419D02*
X256540532Y-266121895D01*
X256588152Y-266217133D01*
X256635771Y-266264752D01*
X256778628Y-266359990D01*
X256969104Y-266407609D01*
X257350056Y-266407609D01*
X257445294Y-266359990D01*
X257492913Y-266312371D01*
X257540532Y-266217133D01*
X257540532Y-266026657D01*
X257492913Y-265931419D01*
X257445294Y-265883800D01*
X257350056Y-265836181D01*
X257111961Y-265836181D01*
X257016723Y-265883800D01*
X256969104Y-265931419D01*
X256921485Y-266026657D01*
X256921485Y-266217133D01*
X256969104Y-266312371D01*
X257016723Y-266359990D01*
X257111961Y-266407609D01*
X388980532Y-135146181D02*
X389694818Y-135146181D01*
X389837675Y-135193800D01*
X389932913Y-135289038D01*
X389980532Y-135431895D01*
X389980532Y-135527133D01*
X388980532Y-134193800D02*
X388980532Y-134669990D01*
X389456723Y-134717609D01*
X389409104Y-134669990D01*
X389361485Y-134574752D01*
X389361485Y-134336657D01*
X389409104Y-134241419D01*
X389456723Y-134193800D01*
X389551961Y-134146181D01*
X389790056Y-134146181D01*
X389885294Y-134193800D01*
X389932913Y-134241419D01*
X389980532Y-134336657D01*
X389980532Y-134574752D01*
X389932913Y-134669990D01*
X389885294Y-134717609D01*
X235382318Y-64470228D02*
X235382318Y-65184514D01*
X235334699Y-65327371D01*
X235239461Y-65422609D01*
X235096604Y-65470228D01*
X235001366Y-65470228D01*
X236287080Y-64803562D02*
X236287080Y-65470228D01*
X236048985Y-64422609D02*
X235810890Y-65136895D01*
X236429937Y-65136895D01*
X143372318Y-64470228D02*
X143372318Y-65184514D01*
X143324699Y-65327371D01*
X143229461Y-65422609D01*
X143086604Y-65470228D01*
X142991366Y-65470228D01*
X143753271Y-64470228D02*
X144372318Y-64470228D01*
X144038985Y-64851181D01*
X144181842Y-64851181D01*
X144277080Y-64898800D01*
X144324699Y-64946419D01*
X144372318Y-65041657D01*
X144372318Y-65279752D01*
X144324699Y-65374990D01*
X144277080Y-65422609D01*
X144181842Y-65470228D01*
X143896128Y-65470228D01*
X143800890Y-65422609D01*
X143753271Y-65374990D01*
X120450532Y-266836181D02*
X121164818Y-266836181D01*
X121307675Y-266883800D01*
X121402913Y-266979038D01*
X121450532Y-267121895D01*
X121450532Y-267217133D01*
X120545771Y-266407609D02*
X120498152Y-266359990D01*
X120450532Y-266264752D01*
X120450532Y-266026657D01*
X120498152Y-265931419D01*
X120545771Y-265883800D01*
X120641009Y-265836181D01*
X120736247Y-265836181D01*
X120879104Y-265883800D01*
X121450532Y-266455228D01*
X121450532Y-265836181D01*
X399180532Y-202109943D02*
X398180532Y-202109943D01*
X398180532Y-201871848D01*
X398228152Y-201728990D01*
X398323390Y-201633752D01*
X398418628Y-201586133D01*
X398609104Y-201538514D01*
X398751961Y-201538514D01*
X398942437Y-201586133D01*
X399037675Y-201633752D01*
X399132913Y-201728990D01*
X399180532Y-201871848D01*
X399180532Y-202109943D01*
X398180532Y-200681371D02*
X398180532Y-200871848D01*
X398228152Y-200967086D01*
X398275771Y-201014705D01*
X398418628Y-201109943D01*
X398609104Y-201157562D01*
X398990056Y-201157562D01*
X399085294Y-201109943D01*
X399132913Y-201062324D01*
X399180532Y-200967086D01*
X399180532Y-200776609D01*
X399132913Y-200681371D01*
X399085294Y-200633752D01*
X398990056Y-200586133D01*
X398751961Y-200586133D01*
X398656723Y-200633752D01*
X398609104Y-200681371D01*
X398561485Y-200776609D01*
X398561485Y-200967086D01*
X398609104Y-201062324D01*
X398656723Y-201109943D01*
X398751961Y-201157562D01*
X398810532Y-196553752D02*
X397810532Y-196553752D01*
X398810532Y-195982324D02*
X398239104Y-196410895D01*
X397810532Y-195982324D02*
X398381961Y-196553752D01*
X304440056Y-208110228D02*
X304440056Y-207110228D01*
X304678152Y-207110228D01*
X304821009Y-207157848D01*
X304916247Y-207253086D01*
X304963866Y-207348324D01*
X305011485Y-207538800D01*
X305011485Y-207681657D01*
X304963866Y-207872133D01*
X304916247Y-207967371D01*
X304821009Y-208062609D01*
X304678152Y-208110228D01*
X304440056Y-208110228D01*
X305916247Y-207110228D02*
X305440056Y-207110228D01*
X305392437Y-207586419D01*
X305440056Y-207538800D01*
X305535294Y-207491181D01*
X305773390Y-207491181D01*
X305868628Y-207538800D01*
X305916247Y-207586419D01*
X305963866Y-207681657D01*
X305963866Y-207919752D01*
X305916247Y-208014990D01*
X305868628Y-208062609D01*
X305773390Y-208110228D01*
X305535294Y-208110228D01*
X305440056Y-208062609D01*
X305392437Y-208014990D01*
X309996247Y-207740228D02*
X309996247Y-206740228D01*
X310567675Y-207740228D02*
X310139104Y-207168800D01*
X310567675Y-206740228D02*
X309996247Y-207311657D01*
X179409818Y-242510228D02*
X179076485Y-242034038D01*
X178838390Y-242510228D02*
X178838390Y-241510228D01*
X179219342Y-241510228D01*
X179314580Y-241557848D01*
X179362199Y-241605467D01*
X179409818Y-241700705D01*
X179409818Y-241843562D01*
X179362199Y-241938800D01*
X179314580Y-241986419D01*
X179219342Y-242034038D01*
X178838390Y-242034038D01*
X179838390Y-241986419D02*
X180171723Y-241986419D01*
X180314580Y-242510228D02*
X179838390Y-242510228D01*
X179838390Y-241510228D01*
X180314580Y-241510228D01*
X181076485Y-241986419D02*
X180743152Y-241986419D01*
X180743152Y-242510228D02*
X180743152Y-241510228D01*
X181219342Y-241510228D01*
X181743152Y-241510228D02*
X181743152Y-241748324D01*
X181505056Y-241653086D02*
X181743152Y-241748324D01*
X181981247Y-241653086D01*
X181600294Y-241938800D02*
X181743152Y-241748324D01*
X181886009Y-241938800D01*
X182505056Y-241510228D02*
X182505056Y-241748324D01*
X182266961Y-241653086D02*
X182505056Y-241748324D01*
X182743152Y-241653086D01*
X182362199Y-241938800D02*
X182505056Y-241748324D01*
X182647913Y-241938800D01*
D13*
X169036961Y-218999752D02*
X171894104Y-218999752D01*
X170465532Y-223999752D02*
X170465532Y-218999752D01*
X175941723Y-223999752D02*
X173560771Y-223999752D01*
X173560771Y-218999752D01*
X179989342Y-218999752D02*
X177608390Y-218999752D01*
X177370294Y-221380705D01*
X177608390Y-221142609D01*
X178084580Y-220904514D01*
X179275056Y-220904514D01*
X179751247Y-221142609D01*
X179989342Y-221380705D01*
X180227437Y-221856895D01*
X180227437Y-223047371D01*
X179989342Y-223523562D01*
X179751247Y-223761657D01*
X179275056Y-223999752D01*
X178084580Y-223999752D01*
X177608390Y-223761657D01*
X177370294Y-223523562D01*
X182608390Y-223999752D02*
X183560771Y-223999752D01*
X184036961Y-223761657D01*
X184275056Y-223523562D01*
X184751247Y-222809276D01*
X184989342Y-221856895D01*
X184989342Y-219952133D01*
X184751247Y-219475943D01*
X184513152Y-219237848D01*
X184036961Y-218999752D01*
X183084580Y-218999752D01*
X182608390Y-219237848D01*
X182370294Y-219475943D01*
X182132199Y-219952133D01*
X182132199Y-221142609D01*
X182370294Y-221618800D01*
X182608390Y-221856895D01*
X183084580Y-222094990D01*
X184036961Y-222094990D01*
X184513152Y-221856895D01*
X184751247Y-221618800D01*
X184989342Y-221142609D01*
X186656009Y-218999752D02*
X189751247Y-218999752D01*
X188084580Y-220904514D01*
X188798866Y-220904514D01*
X189275056Y-221142609D01*
X189513152Y-221380705D01*
X189751247Y-221856895D01*
X189751247Y-223047371D01*
X189513152Y-223523562D01*
X189275056Y-223761657D01*
X188798866Y-223999752D01*
X187370294Y-223999752D01*
X186894104Y-223761657D01*
X186656009Y-223523562D01*
X191417913Y-218999752D02*
X194751247Y-218999752D01*
X192608390Y-223999752D01*
D14*
X126847437Y-224327371D02*
X126847437Y-216708324D01*
X130656961Y-220517848D02*
X123037913Y-220517848D01*
X236067437Y-224277371D02*
X236067437Y-216658324D01*
D12*
X179409818Y-288515228D02*
X179076485Y-288039038D01*
X178838390Y-288515228D02*
X178838390Y-287515228D01*
X179219342Y-287515228D01*
X179314580Y-287562848D01*
X179362199Y-287610467D01*
X179409818Y-287705705D01*
X179409818Y-287848562D01*
X179362199Y-287943800D01*
X179314580Y-287991419D01*
X179219342Y-288039038D01*
X178838390Y-288039038D01*
X179838390Y-287991419D02*
X180171723Y-287991419D01*
X180314580Y-288515228D02*
X179838390Y-288515228D01*
X179838390Y-287515228D01*
X180314580Y-287515228D01*
X181076485Y-287991419D02*
X180743152Y-287991419D01*
X180743152Y-288515228D02*
X180743152Y-287515228D01*
X181219342Y-287515228D01*
X181743152Y-287515228D02*
X181743152Y-287753324D01*
X181505056Y-287658086D02*
X181743152Y-287753324D01*
X181981247Y-287658086D01*
X181600294Y-287943800D02*
X181743152Y-287753324D01*
X181886009Y-287943800D01*
X182505056Y-287515228D02*
X182505056Y-287753324D01*
X182266961Y-287658086D02*
X182505056Y-287753324D01*
X182743152Y-287658086D01*
X182362199Y-287943800D02*
X182505056Y-287753324D01*
X182647913Y-287943800D01*
D13*
X169036961Y-265004752D02*
X171894104Y-265004752D01*
X170465532Y-270004752D02*
X170465532Y-265004752D01*
X175941723Y-270004752D02*
X173560771Y-270004752D01*
X173560771Y-265004752D01*
X179989342Y-265004752D02*
X177608390Y-265004752D01*
X177370294Y-267385705D01*
X177608390Y-267147609D01*
X178084580Y-266909514D01*
X179275056Y-266909514D01*
X179751247Y-267147609D01*
X179989342Y-267385705D01*
X180227437Y-267861895D01*
X180227437Y-269052371D01*
X179989342Y-269528562D01*
X179751247Y-269766657D01*
X179275056Y-270004752D01*
X178084580Y-270004752D01*
X177608390Y-269766657D01*
X177370294Y-269528562D01*
X182608390Y-270004752D02*
X183560771Y-270004752D01*
X184036961Y-269766657D01*
X184275056Y-269528562D01*
X184751247Y-268814276D01*
X184989342Y-267861895D01*
X184989342Y-265957133D01*
X184751247Y-265480943D01*
X184513152Y-265242848D01*
X184036961Y-265004752D01*
X183084580Y-265004752D01*
X182608390Y-265242848D01*
X182370294Y-265480943D01*
X182132199Y-265957133D01*
X182132199Y-267147609D01*
X182370294Y-267623800D01*
X182608390Y-267861895D01*
X183084580Y-268099990D01*
X184036961Y-268099990D01*
X184513152Y-267861895D01*
X184751247Y-267623800D01*
X184989342Y-267147609D01*
X186656009Y-265004752D02*
X189751247Y-265004752D01*
X188084580Y-266909514D01*
X188798866Y-266909514D01*
X189275056Y-267147609D01*
X189513152Y-267385705D01*
X189751247Y-267861895D01*
X189751247Y-269052371D01*
X189513152Y-269528562D01*
X189275056Y-269766657D01*
X188798866Y-270004752D01*
X187370294Y-270004752D01*
X186894104Y-269766657D01*
X186656009Y-269528562D01*
X191417913Y-265004752D02*
X194751247Y-265004752D01*
X192608390Y-270004752D01*
D14*
X126847437Y-270332371D02*
X126847437Y-262713324D01*
X130656961Y-266522848D02*
X123037913Y-266522848D01*
X236067437Y-270282371D02*
X236067437Y-262663324D01*
D12*
X179409818Y-334520228D02*
X179076485Y-334044038D01*
X178838390Y-334520228D02*
X178838390Y-333520228D01*
X179219342Y-333520228D01*
X179314580Y-333567848D01*
X179362199Y-333615467D01*
X179409818Y-333710705D01*
X179409818Y-333853562D01*
X179362199Y-333948800D01*
X179314580Y-333996419D01*
X179219342Y-334044038D01*
X178838390Y-334044038D01*
X179838390Y-333996419D02*
X180171723Y-333996419D01*
X180314580Y-334520228D02*
X179838390Y-334520228D01*
X179838390Y-333520228D01*
X180314580Y-333520228D01*
X181076485Y-333996419D02*
X180743152Y-333996419D01*
X180743152Y-334520228D02*
X180743152Y-333520228D01*
X181219342Y-333520228D01*
X181743152Y-333520228D02*
X181743152Y-333758324D01*
X181505056Y-333663086D02*
X181743152Y-333758324D01*
X181981247Y-333663086D01*
X181600294Y-333948800D02*
X181743152Y-333758324D01*
X181886009Y-333948800D01*
X182505056Y-333520228D02*
X182505056Y-333758324D01*
X182266961Y-333663086D02*
X182505056Y-333758324D01*
X182743152Y-333663086D01*
X182362199Y-333948800D02*
X182505056Y-333758324D01*
X182647913Y-333948800D01*
D13*
X169036961Y-311009752D02*
X171894104Y-311009752D01*
X170465532Y-316009752D02*
X170465532Y-311009752D01*
X175941723Y-316009752D02*
X173560771Y-316009752D01*
X173560771Y-311009752D01*
X179989342Y-311009752D02*
X177608390Y-311009752D01*
X177370294Y-313390705D01*
X177608390Y-313152609D01*
X178084580Y-312914514D01*
X179275056Y-312914514D01*
X179751247Y-313152609D01*
X179989342Y-313390705D01*
X180227437Y-313866895D01*
X180227437Y-315057371D01*
X179989342Y-315533562D01*
X179751247Y-315771657D01*
X179275056Y-316009752D01*
X178084580Y-316009752D01*
X177608390Y-315771657D01*
X177370294Y-315533562D01*
X182608390Y-316009752D02*
X183560771Y-316009752D01*
X184036961Y-315771657D01*
X184275056Y-315533562D01*
X184751247Y-314819276D01*
X184989342Y-313866895D01*
X184989342Y-311962133D01*
X184751247Y-311485943D01*
X184513152Y-311247848D01*
X184036961Y-311009752D01*
X183084580Y-311009752D01*
X182608390Y-311247848D01*
X182370294Y-311485943D01*
X182132199Y-311962133D01*
X182132199Y-313152609D01*
X182370294Y-313628800D01*
X182608390Y-313866895D01*
X183084580Y-314104990D01*
X184036961Y-314104990D01*
X184513152Y-313866895D01*
X184751247Y-313628800D01*
X184989342Y-313152609D01*
X186656009Y-311009752D02*
X189751247Y-311009752D01*
X188084580Y-312914514D01*
X188798866Y-312914514D01*
X189275056Y-313152609D01*
X189513152Y-313390705D01*
X189751247Y-313866895D01*
X189751247Y-315057371D01*
X189513152Y-315533562D01*
X189275056Y-315771657D01*
X188798866Y-316009752D01*
X187370294Y-316009752D01*
X186894104Y-315771657D01*
X186656009Y-315533562D01*
X191417913Y-311009752D02*
X194751247Y-311009752D01*
X192608390Y-316009752D01*
D14*
X126847437Y-316337371D02*
X126847437Y-308718324D01*
X130656961Y-312527848D02*
X123037913Y-312527848D01*
X236067437Y-316287371D02*
X236067437Y-308668324D01*
D12*
X297408032Y-276183681D02*
X296931842Y-276517014D01*
X297408032Y-276755109D02*
X296408032Y-276755109D01*
X296408032Y-276374157D01*
X296455652Y-276278919D01*
X296503271Y-276231300D01*
X296598509Y-276183681D01*
X296741366Y-276183681D01*
X296836604Y-276231300D01*
X296884223Y-276278919D01*
X296931842Y-276374157D01*
X296931842Y-276755109D01*
X296884223Y-275755109D02*
X296884223Y-275421776D01*
X297408032Y-275278919D02*
X297408032Y-275755109D01*
X296408032Y-275755109D01*
X296408032Y-275278919D01*
X296884223Y-274517014D02*
X296884223Y-274850348D01*
X297408032Y-274850348D02*
X296408032Y-274850348D01*
X296408032Y-274374157D01*
X296408032Y-273850348D02*
X296646128Y-273850348D01*
X296550890Y-274088443D02*
X296646128Y-273850348D01*
X296550890Y-273612252D01*
X296836604Y-273993205D02*
X296646128Y-273850348D01*
X296836604Y-273707490D01*
X296408032Y-273088443D02*
X296646128Y-273088443D01*
X296550890Y-273326538D02*
X296646128Y-273088443D01*
X296550890Y-272850348D01*
X296836604Y-273231300D02*
X296646128Y-273088443D01*
X296836604Y-272945586D01*
D13*
X273897556Y-286556538D02*
X273897556Y-283699395D01*
X278897556Y-285127967D02*
X273897556Y-285127967D01*
X278897556Y-279651776D02*
X278897556Y-282032728D01*
X273897556Y-282032728D01*
X273897556Y-275604157D02*
X273897556Y-277985109D01*
X276278509Y-278223205D01*
X276040413Y-277985109D01*
X275802318Y-277508919D01*
X275802318Y-276318443D01*
X276040413Y-275842252D01*
X276278509Y-275604157D01*
X276754699Y-275366062D01*
X277945175Y-275366062D01*
X278421366Y-275604157D01*
X278659461Y-275842252D01*
X278897556Y-276318443D01*
X278897556Y-277508919D01*
X278659461Y-277985109D01*
X278421366Y-278223205D01*
X278897556Y-272985109D02*
X278897556Y-272032728D01*
X278659461Y-271556538D01*
X278421366Y-271318443D01*
X277707080Y-270842252D01*
X276754699Y-270604157D01*
X274849937Y-270604157D01*
X274373747Y-270842252D01*
X274135652Y-271080348D01*
X273897556Y-271556538D01*
X273897556Y-272508919D01*
X274135652Y-272985109D01*
X274373747Y-273223205D01*
X274849937Y-273461300D01*
X276040413Y-273461300D01*
X276516604Y-273223205D01*
X276754699Y-272985109D01*
X276992794Y-272508919D01*
X276992794Y-271556538D01*
X276754699Y-271080348D01*
X276516604Y-270842252D01*
X276040413Y-270604157D01*
X273897556Y-268937490D02*
X273897556Y-265842252D01*
X275802318Y-267508919D01*
X275802318Y-266794633D01*
X276040413Y-266318443D01*
X276278509Y-266080348D01*
X276754699Y-265842252D01*
X277945175Y-265842252D01*
X278421366Y-266080348D01*
X278659461Y-266318443D01*
X278897556Y-266794633D01*
X278897556Y-268223205D01*
X278659461Y-268699395D01*
X278421366Y-268937490D01*
X273897556Y-264175586D02*
X273897556Y-260842252D01*
X278897556Y-262985109D01*
D14*
X271606128Y-330174633D02*
X279225175Y-330174633D01*
X275415652Y-333984157D02*
X275415652Y-326365109D01*
X271556128Y-220954633D02*
X279175175Y-220954633D01*
D12*
X343413032Y-276183681D02*
X342936842Y-276517014D01*
X343413032Y-276755109D02*
X342413032Y-276755109D01*
X342413032Y-276374157D01*
X342460652Y-276278919D01*
X342508271Y-276231300D01*
X342603509Y-276183681D01*
X342746366Y-276183681D01*
X342841604Y-276231300D01*
X342889223Y-276278919D01*
X342936842Y-276374157D01*
X342936842Y-276755109D01*
X342889223Y-275755109D02*
X342889223Y-275421776D01*
X343413032Y-275278919D02*
X343413032Y-275755109D01*
X342413032Y-275755109D01*
X342413032Y-275278919D01*
X342889223Y-274517014D02*
X342889223Y-274850348D01*
X343413032Y-274850348D02*
X342413032Y-274850348D01*
X342413032Y-274374157D01*
X342413032Y-273850348D02*
X342651128Y-273850348D01*
X342555890Y-274088443D02*
X342651128Y-273850348D01*
X342555890Y-273612252D01*
X342841604Y-273993205D02*
X342651128Y-273850348D01*
X342841604Y-273707490D01*
X342413032Y-273088443D02*
X342651128Y-273088443D01*
X342555890Y-273326538D02*
X342651128Y-273088443D01*
X342555890Y-272850348D01*
X342841604Y-273231300D02*
X342651128Y-273088443D01*
X342841604Y-272945586D01*
D13*
X319902556Y-286556538D02*
X319902556Y-283699395D01*
X324902556Y-285127967D02*
X319902556Y-285127967D01*
X324902556Y-279651776D02*
X324902556Y-282032728D01*
X319902556Y-282032728D01*
X319902556Y-275604157D02*
X319902556Y-277985109D01*
X322283509Y-278223205D01*
X322045413Y-277985109D01*
X321807318Y-277508919D01*
X321807318Y-276318443D01*
X322045413Y-275842252D01*
X322283509Y-275604157D01*
X322759699Y-275366062D01*
X323950175Y-275366062D01*
X324426366Y-275604157D01*
X324664461Y-275842252D01*
X324902556Y-276318443D01*
X324902556Y-277508919D01*
X324664461Y-277985109D01*
X324426366Y-278223205D01*
X324902556Y-272985109D02*
X324902556Y-272032728D01*
X324664461Y-271556538D01*
X324426366Y-271318443D01*
X323712080Y-270842252D01*
X322759699Y-270604157D01*
X320854937Y-270604157D01*
X320378747Y-270842252D01*
X320140652Y-271080348D01*
X319902556Y-271556538D01*
X319902556Y-272508919D01*
X320140652Y-272985109D01*
X320378747Y-273223205D01*
X320854937Y-273461300D01*
X322045413Y-273461300D01*
X322521604Y-273223205D01*
X322759699Y-272985109D01*
X322997794Y-272508919D01*
X322997794Y-271556538D01*
X322759699Y-271080348D01*
X322521604Y-270842252D01*
X322045413Y-270604157D01*
X319902556Y-268937490D02*
X319902556Y-265842252D01*
X321807318Y-267508919D01*
X321807318Y-266794633D01*
X322045413Y-266318443D01*
X322283509Y-266080348D01*
X322759699Y-265842252D01*
X323950175Y-265842252D01*
X324426366Y-266080348D01*
X324664461Y-266318443D01*
X324902556Y-266794633D01*
X324902556Y-268223205D01*
X324664461Y-268699395D01*
X324426366Y-268937490D01*
X319902556Y-264175586D02*
X319902556Y-260842252D01*
X324902556Y-262985109D01*
D14*
X317611128Y-330174633D02*
X325230175Y-330174633D01*
X321420652Y-333984157D02*
X321420652Y-326365109D01*
X317561128Y-220954633D02*
X325180175Y-220954633D01*
D12*
X389418032Y-276183681D02*
X388941842Y-276517014D01*
X389418032Y-276755109D02*
X388418032Y-276755109D01*
X388418032Y-276374157D01*
X388465652Y-276278919D01*
X388513271Y-276231300D01*
X388608509Y-276183681D01*
X388751366Y-276183681D01*
X388846604Y-276231300D01*
X388894223Y-276278919D01*
X388941842Y-276374157D01*
X388941842Y-276755109D01*
X388894223Y-275755109D02*
X388894223Y-275421776D01*
X389418032Y-275278919D02*
X389418032Y-275755109D01*
X388418032Y-275755109D01*
X388418032Y-275278919D01*
X388894223Y-274517014D02*
X388894223Y-274850348D01*
X389418032Y-274850348D02*
X388418032Y-274850348D01*
X388418032Y-274374157D01*
X388418032Y-273850348D02*
X388656128Y-273850348D01*
X388560890Y-274088443D02*
X388656128Y-273850348D01*
X388560890Y-273612252D01*
X388846604Y-273993205D02*
X388656128Y-273850348D01*
X388846604Y-273707490D01*
X388418032Y-273088443D02*
X388656128Y-273088443D01*
X388560890Y-273326538D02*
X388656128Y-273088443D01*
X388560890Y-272850348D01*
X388846604Y-273231300D02*
X388656128Y-273088443D01*
X388846604Y-272945586D01*
D13*
X365907556Y-286556538D02*
X365907556Y-283699395D01*
X370907556Y-285127967D02*
X365907556Y-285127967D01*
X370907556Y-279651776D02*
X370907556Y-282032728D01*
X365907556Y-282032728D01*
X365907556Y-275604157D02*
X365907556Y-277985109D01*
X368288509Y-278223205D01*
X368050413Y-277985109D01*
X367812318Y-277508919D01*
X367812318Y-276318443D01*
X368050413Y-275842252D01*
X368288509Y-275604157D01*
X368764699Y-275366062D01*
X369955175Y-275366062D01*
X370431366Y-275604157D01*
X370669461Y-275842252D01*
X370907556Y-276318443D01*
X370907556Y-277508919D01*
X370669461Y-277985109D01*
X370431366Y-278223205D01*
X370907556Y-272985109D02*
X370907556Y-272032728D01*
X370669461Y-271556538D01*
X370431366Y-271318443D01*
X369717080Y-270842252D01*
X368764699Y-270604157D01*
X366859937Y-270604157D01*
X366383747Y-270842252D01*
X366145652Y-271080348D01*
X365907556Y-271556538D01*
X365907556Y-272508919D01*
X366145652Y-272985109D01*
X366383747Y-273223205D01*
X366859937Y-273461300D01*
X368050413Y-273461300D01*
X368526604Y-273223205D01*
X368764699Y-272985109D01*
X369002794Y-272508919D01*
X369002794Y-271556538D01*
X368764699Y-271080348D01*
X368526604Y-270842252D01*
X368050413Y-270604157D01*
X365907556Y-268937490D02*
X365907556Y-265842252D01*
X367812318Y-267508919D01*
X367812318Y-266794633D01*
X368050413Y-266318443D01*
X368288509Y-266080348D01*
X368764699Y-265842252D01*
X369955175Y-265842252D01*
X370431366Y-266080348D01*
X370669461Y-266318443D01*
X370907556Y-266794633D01*
X370907556Y-268223205D01*
X370669461Y-268699395D01*
X370431366Y-268937490D01*
X365907556Y-264175586D02*
X365907556Y-260842252D01*
X370907556Y-262985109D01*
D14*
X363566128Y-220954633D02*
X371185175Y-220954633D01*
X363616128Y-330174633D02*
X371235175Y-330174633D01*
X367425652Y-333984157D02*
X367425652Y-326365109D01*
D12*
X328464818Y-159710228D02*
X328131485Y-159234038D01*
X327893390Y-159710228D02*
X327893390Y-158710228D01*
X328274342Y-158710228D01*
X328369580Y-158757848D01*
X328417199Y-158805467D01*
X328464818Y-158900705D01*
X328464818Y-159043562D01*
X328417199Y-159138800D01*
X328369580Y-159186419D01*
X328274342Y-159234038D01*
X327893390Y-159234038D01*
X328893390Y-159186419D02*
X329226723Y-159186419D01*
X329369580Y-159710228D02*
X328893390Y-159710228D01*
X328893390Y-158710228D01*
X329369580Y-158710228D01*
X330131485Y-159186419D02*
X329798152Y-159186419D01*
X329798152Y-159710228D02*
X329798152Y-158710228D01*
X330274342Y-158710228D01*
X330798152Y-158710228D02*
X330798152Y-158948324D01*
X330560056Y-158853086D02*
X330798152Y-158948324D01*
X331036247Y-158853086D01*
X330655294Y-159138800D02*
X330798152Y-158948324D01*
X330941009Y-159138800D01*
X331560056Y-158710228D02*
X331560056Y-158948324D01*
X331321961Y-158853086D02*
X331560056Y-158948324D01*
X331798152Y-158853086D01*
X331417199Y-159138800D02*
X331560056Y-158948324D01*
X331702913Y-159138800D01*
D13*
X315551961Y-176839752D02*
X318409104Y-176839752D01*
X316980532Y-181839752D02*
X316980532Y-176839752D01*
X322456723Y-181839752D02*
X320075771Y-181839752D01*
X320075771Y-176839752D01*
X326504342Y-176839752D02*
X324123390Y-176839752D01*
X323885294Y-179220705D01*
X324123390Y-178982609D01*
X324599580Y-178744514D01*
X325790056Y-178744514D01*
X326266247Y-178982609D01*
X326504342Y-179220705D01*
X326742437Y-179696895D01*
X326742437Y-180887371D01*
X326504342Y-181363562D01*
X326266247Y-181601657D01*
X325790056Y-181839752D01*
X324599580Y-181839752D01*
X324123390Y-181601657D01*
X323885294Y-181363562D01*
X329123390Y-181839752D02*
X330075771Y-181839752D01*
X330551961Y-181601657D01*
X330790056Y-181363562D01*
X331266247Y-180649276D01*
X331504342Y-179696895D01*
X331504342Y-177792133D01*
X331266247Y-177315943D01*
X331028152Y-177077848D01*
X330551961Y-176839752D01*
X329599580Y-176839752D01*
X329123390Y-177077848D01*
X328885294Y-177315943D01*
X328647199Y-177792133D01*
X328647199Y-178982609D01*
X328885294Y-179458800D01*
X329123390Y-179696895D01*
X329599580Y-179934990D01*
X330551961Y-179934990D01*
X331028152Y-179696895D01*
X331266247Y-179458800D01*
X331504342Y-178982609D01*
X333171009Y-176839752D02*
X336266247Y-176839752D01*
X334599580Y-178744514D01*
X335313866Y-178744514D01*
X335790056Y-178982609D01*
X336028152Y-179220705D01*
X336266247Y-179696895D01*
X336266247Y-180887371D01*
X336028152Y-181363562D01*
X335790056Y-181601657D01*
X335313866Y-181839752D01*
X333885294Y-181839752D01*
X333409104Y-181601657D01*
X333171009Y-181363562D01*
X337932913Y-176839752D02*
X341266247Y-176839752D01*
X339123390Y-181839752D01*
D14*
X275902437Y-184657371D02*
X275902437Y-177038324D01*
X385122437Y-184607371D02*
X385122437Y-176988324D01*
X388931961Y-180797848D02*
X381312913Y-180797848D01*
D12*
X328464818Y-113705228D02*
X328131485Y-113229038D01*
X327893390Y-113705228D02*
X327893390Y-112705228D01*
X328274342Y-112705228D01*
X328369580Y-112752848D01*
X328417199Y-112800467D01*
X328464818Y-112895705D01*
X328464818Y-113038562D01*
X328417199Y-113133800D01*
X328369580Y-113181419D01*
X328274342Y-113229038D01*
X327893390Y-113229038D01*
X328893390Y-113181419D02*
X329226723Y-113181419D01*
X329369580Y-113705228D02*
X328893390Y-113705228D01*
X328893390Y-112705228D01*
X329369580Y-112705228D01*
X330131485Y-113181419D02*
X329798152Y-113181419D01*
X329798152Y-113705228D02*
X329798152Y-112705228D01*
X330274342Y-112705228D01*
X330798152Y-112705228D02*
X330798152Y-112943324D01*
X330560056Y-112848086D02*
X330798152Y-112943324D01*
X331036247Y-112848086D01*
X330655294Y-113133800D02*
X330798152Y-112943324D01*
X330941009Y-113133800D01*
X331560056Y-112705228D02*
X331560056Y-112943324D01*
X331321961Y-112848086D02*
X331560056Y-112943324D01*
X331798152Y-112848086D01*
X331417199Y-113133800D02*
X331560056Y-112943324D01*
X331702913Y-113133800D01*
D13*
X315551961Y-130834752D02*
X318409104Y-130834752D01*
X316980532Y-135834752D02*
X316980532Y-130834752D01*
X322456723Y-135834752D02*
X320075771Y-135834752D01*
X320075771Y-130834752D01*
X326504342Y-130834752D02*
X324123390Y-130834752D01*
X323885294Y-133215705D01*
X324123390Y-132977609D01*
X324599580Y-132739514D01*
X325790056Y-132739514D01*
X326266247Y-132977609D01*
X326504342Y-133215705D01*
X326742437Y-133691895D01*
X326742437Y-134882371D01*
X326504342Y-135358562D01*
X326266247Y-135596657D01*
X325790056Y-135834752D01*
X324599580Y-135834752D01*
X324123390Y-135596657D01*
X323885294Y-135358562D01*
X329123390Y-135834752D02*
X330075771Y-135834752D01*
X330551961Y-135596657D01*
X330790056Y-135358562D01*
X331266247Y-134644276D01*
X331504342Y-133691895D01*
X331504342Y-131787133D01*
X331266247Y-131310943D01*
X331028152Y-131072848D01*
X330551961Y-130834752D01*
X329599580Y-130834752D01*
X329123390Y-131072848D01*
X328885294Y-131310943D01*
X328647199Y-131787133D01*
X328647199Y-132977609D01*
X328885294Y-133453800D01*
X329123390Y-133691895D01*
X329599580Y-133929990D01*
X330551961Y-133929990D01*
X331028152Y-133691895D01*
X331266247Y-133453800D01*
X331504342Y-132977609D01*
X333171009Y-130834752D02*
X336266247Y-130834752D01*
X334599580Y-132739514D01*
X335313866Y-132739514D01*
X335790056Y-132977609D01*
X336028152Y-133215705D01*
X336266247Y-133691895D01*
X336266247Y-134882371D01*
X336028152Y-135358562D01*
X335790056Y-135596657D01*
X335313866Y-135834752D01*
X333885294Y-135834752D01*
X333409104Y-135596657D01*
X333171009Y-135358562D01*
X337932913Y-130834752D02*
X341266247Y-130834752D01*
X339123390Y-135834752D01*
D14*
X275902437Y-138652371D02*
X275902437Y-131033324D01*
X385122437Y-138602371D02*
X385122437Y-130983324D01*
X388931961Y-134792848D02*
X381312913Y-134792848D01*
D12*
X328464818Y-67700228D02*
X328131485Y-67224038D01*
X327893390Y-67700228D02*
X327893390Y-66700228D01*
X328274342Y-66700228D01*
X328369580Y-66747848D01*
X328417199Y-66795467D01*
X328464818Y-66890705D01*
X328464818Y-67033562D01*
X328417199Y-67128800D01*
X328369580Y-67176419D01*
X328274342Y-67224038D01*
X327893390Y-67224038D01*
X328893390Y-67176419D02*
X329226723Y-67176419D01*
X329369580Y-67700228D02*
X328893390Y-67700228D01*
X328893390Y-66700228D01*
X329369580Y-66700228D01*
X330131485Y-67176419D02*
X329798152Y-67176419D01*
X329798152Y-67700228D02*
X329798152Y-66700228D01*
X330274342Y-66700228D01*
X330798152Y-66700228D02*
X330798152Y-66938324D01*
X330560056Y-66843086D02*
X330798152Y-66938324D01*
X331036247Y-66843086D01*
X330655294Y-67128800D02*
X330798152Y-66938324D01*
X330941009Y-67128800D01*
X331560056Y-66700228D02*
X331560056Y-66938324D01*
X331321961Y-66843086D02*
X331560056Y-66938324D01*
X331798152Y-66843086D01*
X331417199Y-67128800D02*
X331560056Y-66938324D01*
X331702913Y-67128800D01*
D13*
X315551961Y-84829752D02*
X318409104Y-84829752D01*
X316980532Y-89829752D02*
X316980532Y-84829752D01*
X322456723Y-89829752D02*
X320075771Y-89829752D01*
X320075771Y-84829752D01*
X326504342Y-84829752D02*
X324123390Y-84829752D01*
X323885294Y-87210705D01*
X324123390Y-86972609D01*
X324599580Y-86734514D01*
X325790056Y-86734514D01*
X326266247Y-86972609D01*
X326504342Y-87210705D01*
X326742437Y-87686895D01*
X326742437Y-88877371D01*
X326504342Y-89353562D01*
X326266247Y-89591657D01*
X325790056Y-89829752D01*
X324599580Y-89829752D01*
X324123390Y-89591657D01*
X323885294Y-89353562D01*
X329123390Y-89829752D02*
X330075771Y-89829752D01*
X330551961Y-89591657D01*
X330790056Y-89353562D01*
X331266247Y-88639276D01*
X331504342Y-87686895D01*
X331504342Y-85782133D01*
X331266247Y-85305943D01*
X331028152Y-85067848D01*
X330551961Y-84829752D01*
X329599580Y-84829752D01*
X329123390Y-85067848D01*
X328885294Y-85305943D01*
X328647199Y-85782133D01*
X328647199Y-86972609D01*
X328885294Y-87448800D01*
X329123390Y-87686895D01*
X329599580Y-87924990D01*
X330551961Y-87924990D01*
X331028152Y-87686895D01*
X331266247Y-87448800D01*
X331504342Y-86972609D01*
X333171009Y-84829752D02*
X336266247Y-84829752D01*
X334599580Y-86734514D01*
X335313866Y-86734514D01*
X335790056Y-86972609D01*
X336028152Y-87210705D01*
X336266247Y-87686895D01*
X336266247Y-88877371D01*
X336028152Y-89353562D01*
X335790056Y-89591657D01*
X335313866Y-89829752D01*
X333885294Y-89829752D01*
X333409104Y-89591657D01*
X333171009Y-89353562D01*
X337932913Y-84829752D02*
X341266247Y-84829752D01*
X339123390Y-89829752D01*
D14*
X385122437Y-92597371D02*
X385122437Y-84978324D01*
X388931961Y-88787848D02*
X381312913Y-88787848D01*
X275902437Y-92647371D02*
X275902437Y-85028324D01*
D12*
X214608032Y-126128681D02*
X214131842Y-126462014D01*
X214608032Y-126700109D02*
X213608032Y-126700109D01*
X213608032Y-126319157D01*
X213655652Y-126223919D01*
X213703271Y-126176300D01*
X213798509Y-126128681D01*
X213941366Y-126128681D01*
X214036604Y-126176300D01*
X214084223Y-126223919D01*
X214131842Y-126319157D01*
X214131842Y-126700109D01*
X214084223Y-125700109D02*
X214084223Y-125366776D01*
X214608032Y-125223919D02*
X214608032Y-125700109D01*
X213608032Y-125700109D01*
X213608032Y-125223919D01*
X214084223Y-124462014D02*
X214084223Y-124795348D01*
X214608032Y-124795348D02*
X213608032Y-124795348D01*
X213608032Y-124319157D01*
X213608032Y-123795348D02*
X213846128Y-123795348D01*
X213750890Y-124033443D02*
X213846128Y-123795348D01*
X213750890Y-123557252D01*
X214036604Y-123938205D02*
X213846128Y-123795348D01*
X214036604Y-123652490D01*
X213608032Y-123033443D02*
X213846128Y-123033443D01*
X213750890Y-123271538D02*
X213846128Y-123033443D01*
X213750890Y-122795348D01*
X214036604Y-123176300D02*
X213846128Y-123033443D01*
X214036604Y-122890586D01*
D13*
X231737556Y-139041538D02*
X231737556Y-136184395D01*
X236737556Y-137612967D02*
X231737556Y-137612967D01*
X236737556Y-132136776D02*
X236737556Y-134517728D01*
X231737556Y-134517728D01*
X231737556Y-128089157D02*
X231737556Y-130470109D01*
X234118509Y-130708205D01*
X233880413Y-130470109D01*
X233642318Y-129993919D01*
X233642318Y-128803443D01*
X233880413Y-128327252D01*
X234118509Y-128089157D01*
X234594699Y-127851062D01*
X235785175Y-127851062D01*
X236261366Y-128089157D01*
X236499461Y-128327252D01*
X236737556Y-128803443D01*
X236737556Y-129993919D01*
X236499461Y-130470109D01*
X236261366Y-130708205D01*
X236737556Y-125470109D02*
X236737556Y-124517728D01*
X236499461Y-124041538D01*
X236261366Y-123803443D01*
X235547080Y-123327252D01*
X234594699Y-123089157D01*
X232689937Y-123089157D01*
X232213747Y-123327252D01*
X231975652Y-123565348D01*
X231737556Y-124041538D01*
X231737556Y-124993919D01*
X231975652Y-125470109D01*
X232213747Y-125708205D01*
X232689937Y-125946300D01*
X233880413Y-125946300D01*
X234356604Y-125708205D01*
X234594699Y-125470109D01*
X234832794Y-124993919D01*
X234832794Y-124041538D01*
X234594699Y-123565348D01*
X234356604Y-123327252D01*
X233880413Y-123089157D01*
X231737556Y-121422490D02*
X231737556Y-118327252D01*
X233642318Y-119993919D01*
X233642318Y-119279633D01*
X233880413Y-118803443D01*
X234118509Y-118565348D01*
X234594699Y-118327252D01*
X235785175Y-118327252D01*
X236261366Y-118565348D01*
X236499461Y-118803443D01*
X236737556Y-119279633D01*
X236737556Y-120708205D01*
X236499461Y-121184395D01*
X236261366Y-121422490D01*
X231737556Y-116660586D02*
X231737556Y-113327252D01*
X236737556Y-115470109D01*
D14*
X231886128Y-70899633D02*
X239505175Y-70899633D01*
X235695652Y-74709157D02*
X235695652Y-67090109D01*
X231936128Y-180119633D02*
X239555175Y-180119633D01*
D12*
X168603032Y-126128681D02*
X168126842Y-126462014D01*
X168603032Y-126700109D02*
X167603032Y-126700109D01*
X167603032Y-126319157D01*
X167650652Y-126223919D01*
X167698271Y-126176300D01*
X167793509Y-126128681D01*
X167936366Y-126128681D01*
X168031604Y-126176300D01*
X168079223Y-126223919D01*
X168126842Y-126319157D01*
X168126842Y-126700109D01*
X168079223Y-125700109D02*
X168079223Y-125366776D01*
X168603032Y-125223919D02*
X168603032Y-125700109D01*
X167603032Y-125700109D01*
X167603032Y-125223919D01*
X168079223Y-124462014D02*
X168079223Y-124795348D01*
X168603032Y-124795348D02*
X167603032Y-124795348D01*
X167603032Y-124319157D01*
X167603032Y-123795348D02*
X167841128Y-123795348D01*
X167745890Y-124033443D02*
X167841128Y-123795348D01*
X167745890Y-123557252D01*
X168031604Y-123938205D02*
X167841128Y-123795348D01*
X168031604Y-123652490D01*
X167603032Y-123033443D02*
X167841128Y-123033443D01*
X167745890Y-123271538D02*
X167841128Y-123033443D01*
X167745890Y-122795348D01*
X168031604Y-123176300D02*
X167841128Y-123033443D01*
X168031604Y-122890586D01*
D13*
X185732556Y-139041538D02*
X185732556Y-136184395D01*
X190732556Y-137612967D02*
X185732556Y-137612967D01*
X190732556Y-132136776D02*
X190732556Y-134517728D01*
X185732556Y-134517728D01*
X185732556Y-128089157D02*
X185732556Y-130470109D01*
X188113509Y-130708205D01*
X187875413Y-130470109D01*
X187637318Y-129993919D01*
X187637318Y-128803443D01*
X187875413Y-128327252D01*
X188113509Y-128089157D01*
X188589699Y-127851062D01*
X189780175Y-127851062D01*
X190256366Y-128089157D01*
X190494461Y-128327252D01*
X190732556Y-128803443D01*
X190732556Y-129993919D01*
X190494461Y-130470109D01*
X190256366Y-130708205D01*
X190732556Y-125470109D02*
X190732556Y-124517728D01*
X190494461Y-124041538D01*
X190256366Y-123803443D01*
X189542080Y-123327252D01*
X188589699Y-123089157D01*
X186684937Y-123089157D01*
X186208747Y-123327252D01*
X185970652Y-123565348D01*
X185732556Y-124041538D01*
X185732556Y-124993919D01*
X185970652Y-125470109D01*
X186208747Y-125708205D01*
X186684937Y-125946300D01*
X187875413Y-125946300D01*
X188351604Y-125708205D01*
X188589699Y-125470109D01*
X188827794Y-124993919D01*
X188827794Y-124041538D01*
X188589699Y-123565348D01*
X188351604Y-123327252D01*
X187875413Y-123089157D01*
X185732556Y-121422490D02*
X185732556Y-118327252D01*
X187637318Y-119993919D01*
X187637318Y-119279633D01*
X187875413Y-118803443D01*
X188113509Y-118565348D01*
X188589699Y-118327252D01*
X189780175Y-118327252D01*
X190256366Y-118565348D01*
X190494461Y-118803443D01*
X190732556Y-119279633D01*
X190732556Y-120708205D01*
X190494461Y-121184395D01*
X190256366Y-121422490D01*
X185732556Y-116660586D02*
X185732556Y-113327252D01*
X190732556Y-115470109D01*
D14*
X185881128Y-70899633D02*
X193500175Y-70899633D01*
X189690652Y-74709157D02*
X189690652Y-67090109D01*
X185931128Y-180119633D02*
X193550175Y-180119633D01*
D12*
X122598032Y-126128681D02*
X122121842Y-126462014D01*
X122598032Y-126700109D02*
X121598032Y-126700109D01*
X121598032Y-126319157D01*
X121645652Y-126223919D01*
X121693271Y-126176300D01*
X121788509Y-126128681D01*
X121931366Y-126128681D01*
X122026604Y-126176300D01*
X122074223Y-126223919D01*
X122121842Y-126319157D01*
X122121842Y-126700109D01*
X122074223Y-125700109D02*
X122074223Y-125366776D01*
X122598032Y-125223919D02*
X122598032Y-125700109D01*
X121598032Y-125700109D01*
X121598032Y-125223919D01*
X122074223Y-124462014D02*
X122074223Y-124795348D01*
X122598032Y-124795348D02*
X121598032Y-124795348D01*
X121598032Y-124319157D01*
X121598032Y-123795348D02*
X121836128Y-123795348D01*
X121740890Y-124033443D02*
X121836128Y-123795348D01*
X121740890Y-123557252D01*
X122026604Y-123938205D02*
X121836128Y-123795348D01*
X122026604Y-123652490D01*
X121598032Y-123033443D02*
X121836128Y-123033443D01*
X121740890Y-123271538D02*
X121836128Y-123033443D01*
X121740890Y-122795348D01*
X122026604Y-123176300D02*
X121836128Y-123033443D01*
X122026604Y-122890586D01*
D13*
X139727556Y-139041538D02*
X139727556Y-136184395D01*
X144727556Y-137612967D02*
X139727556Y-137612967D01*
X144727556Y-132136776D02*
X144727556Y-134517728D01*
X139727556Y-134517728D01*
X139727556Y-128089157D02*
X139727556Y-130470109D01*
X142108509Y-130708205D01*
X141870413Y-130470109D01*
X141632318Y-129993919D01*
X141632318Y-128803443D01*
X141870413Y-128327252D01*
X142108509Y-128089157D01*
X142584699Y-127851062D01*
X143775175Y-127851062D01*
X144251366Y-128089157D01*
X144489461Y-128327252D01*
X144727556Y-128803443D01*
X144727556Y-129993919D01*
X144489461Y-130470109D01*
X144251366Y-130708205D01*
X144727556Y-125470109D02*
X144727556Y-124517728D01*
X144489461Y-124041538D01*
X144251366Y-123803443D01*
X143537080Y-123327252D01*
X142584699Y-123089157D01*
X140679937Y-123089157D01*
X140203747Y-123327252D01*
X139965652Y-123565348D01*
X139727556Y-124041538D01*
X139727556Y-124993919D01*
X139965652Y-125470109D01*
X140203747Y-125708205D01*
X140679937Y-125946300D01*
X141870413Y-125946300D01*
X142346604Y-125708205D01*
X142584699Y-125470109D01*
X142822794Y-124993919D01*
X142822794Y-124041538D01*
X142584699Y-123565348D01*
X142346604Y-123327252D01*
X141870413Y-123089157D01*
X139727556Y-121422490D02*
X139727556Y-118327252D01*
X141632318Y-119993919D01*
X141632318Y-119279633D01*
X141870413Y-118803443D01*
X142108509Y-118565348D01*
X142584699Y-118327252D01*
X143775175Y-118327252D01*
X144251366Y-118565348D01*
X144489461Y-118803443D01*
X144727556Y-119279633D01*
X144727556Y-120708205D01*
X144489461Y-121184395D01*
X144251366Y-121422490D01*
X139727556Y-116660586D02*
X139727556Y-113327252D01*
X144727556Y-115470109D01*
D14*
X139926128Y-180119633D02*
X147545175Y-180119633D01*
X139876128Y-70899633D02*
X147495175Y-70899633D01*
X143685652Y-74709157D02*
X143685652Y-67090109D01*
D12*
X394240532Y-152833943D02*
X393240532Y-152833943D01*
X393240532Y-152595848D01*
X393288152Y-152452990D01*
X393383390Y-152357752D01*
X393478628Y-152310133D01*
X393669104Y-152262514D01*
X393811961Y-152262514D01*
X394002437Y-152310133D01*
X394097675Y-152357752D01*
X394192913Y-152452990D01*
X394240532Y-152595848D01*
X394240532Y-152833943D01*
X393573866Y-151405371D02*
X394240532Y-151405371D01*
X393192913Y-151643467D02*
X393907199Y-151881562D01*
X393907199Y-151262514D01*
X394610532Y-157437752D02*
X393610532Y-157437752D01*
X394610532Y-156866324D02*
X394039104Y-157294895D01*
X393610532Y-156866324D02*
X394181961Y-157437752D01*
X251440056Y-61210228D02*
X251440056Y-60210228D01*
X251678152Y-60210228D01*
X251821009Y-60257848D01*
X251916247Y-60353086D01*
X251963866Y-60448324D01*
X252011485Y-60638800D01*
X252011485Y-60781657D01*
X251963866Y-60972133D01*
X251916247Y-61067371D01*
X251821009Y-61162609D01*
X251678152Y-61210228D01*
X251440056Y-61210228D01*
X252344818Y-60210228D02*
X252963866Y-60210228D01*
X252630532Y-60591181D01*
X252773390Y-60591181D01*
X252868628Y-60638800D01*
X252916247Y-60686419D01*
X252963866Y-60781657D01*
X252963866Y-61019752D01*
X252916247Y-61114990D01*
X252868628Y-61162609D01*
X252773390Y-61210228D01*
X252487675Y-61210228D01*
X252392437Y-61162609D01*
X252344818Y-61114990D01*
X256996247Y-60840228D02*
X256996247Y-59840228D01*
X257567675Y-60840228D02*
X257139104Y-60268800D01*
X257567675Y-59840228D02*
X256996247Y-60411657D01*
X160340056Y-61210228D02*
X160340056Y-60210228D01*
X160578152Y-60210228D01*
X160721009Y-60257848D01*
X160816247Y-60353086D01*
X160863866Y-60448324D01*
X160911485Y-60638800D01*
X160911485Y-60781657D01*
X160863866Y-60972133D01*
X160816247Y-61067371D01*
X160721009Y-61162609D01*
X160578152Y-61210228D01*
X160340056Y-61210228D01*
X161292437Y-60305467D02*
X161340056Y-60257848D01*
X161435294Y-60210228D01*
X161673390Y-60210228D01*
X161768628Y-60257848D01*
X161816247Y-60305467D01*
X161863866Y-60400705D01*
X161863866Y-60495943D01*
X161816247Y-60638800D01*
X161244818Y-61210228D01*
X161863866Y-61210228D01*
X165896247Y-60840228D02*
X165896247Y-59840228D01*
X166467675Y-60840228D02*
X166039104Y-60268800D01*
X166467675Y-59840228D02*
X165896247Y-60411657D01*
X117190532Y-251265943D02*
X116190532Y-251265943D01*
X116190532Y-251027848D01*
X116238152Y-250884990D01*
X116333390Y-250789752D01*
X116428628Y-250742133D01*
X116619104Y-250694514D01*
X116761961Y-250694514D01*
X116952437Y-250742133D01*
X117047675Y-250789752D01*
X117142913Y-250884990D01*
X117190532Y-251027848D01*
X117190532Y-251265943D01*
X117190532Y-249742133D02*
X117190532Y-250313562D01*
X117190532Y-250027848D02*
X116190532Y-250027848D01*
X116333390Y-250123086D01*
X116428628Y-250218324D01*
X116476247Y-250313562D01*
X116820532Y-245709752D02*
X115820532Y-245709752D01*
X116820532Y-245138324D02*
X116249104Y-245566895D01*
X115820532Y-245138324D02*
X116391961Y-245709752D01*
X395124818Y-295460228D02*
X395124818Y-296174514D01*
X395077199Y-296317371D01*
X394981961Y-296412609D01*
X394839104Y-296460228D01*
X394743866Y-296460228D01*
X396124818Y-296460228D02*
X395553390Y-296460228D01*
X395839104Y-296460228D02*
X395839104Y-295460228D01*
X395743866Y-295603086D01*
X395648628Y-295698324D01*
X395553390Y-295745943D01*
X394648628Y-264560228D02*
X394648628Y-265274514D01*
X394601009Y-265417371D01*
X394505771Y-265512609D01*
X394362913Y-265560228D01*
X394267675Y-265560228D01*
X395029580Y-264560228D02*
X395648628Y-264560228D01*
X395315294Y-264941181D01*
X395458152Y-264941181D01*
X395553390Y-264988800D01*
X395601009Y-265036419D01*
X395648628Y-265131657D01*
X395648628Y-265369752D01*
X395601009Y-265464990D01*
X395553390Y-265512609D01*
X395458152Y-265560228D01*
X395172437Y-265560228D01*
X395077199Y-265512609D01*
X395029580Y-265464990D01*
X396505771Y-264893562D02*
X396505771Y-265560228D01*
X396267675Y-264512609D02*
X396029580Y-265226895D01*
X396648628Y-265226895D01*
M02*
