G04 #@! TF.GenerationSoftware,KiCad,Pcbnew,5.1.5-52549c5~84~ubuntu18.04.1*
G04 #@! TF.CreationDate,2019-12-12T01:36:16-05:00*
G04 #@! TF.ProjectId,data_pod_battery_board,64617461-5f70-46f6-945f-626174746572,1*
G04 #@! TF.SameCoordinates,Original*
G04 #@! TF.FileFunction,Legend,Bot*
G04 #@! TF.FilePolarity,Positive*
%FSLAX46Y46*%
G04 Gerber Fmt 4.6, Leading zero omitted, Abs format (unit mm)*
G04 Created by KiCad (PCBNEW 5.1.5-52549c5~84~ubuntu18.04.1) date 2019-12-12 01:36:16*
%MOMM*%
%LPD*%
G04 APERTURE LIST*
%ADD10C,0.120000*%
%ADD11C,0.150000*%
%ADD12C,0.250000*%
%ADD13C,0.500000*%
G04 APERTURE END LIST*
D10*
X296069652Y-303269848D02*
X296069652Y-316269848D01*
X296069652Y-316269848D02*
X280069652Y-316269848D01*
X280069652Y-303269848D02*
X280069652Y-316269848D01*
X296069652Y-303269848D02*
X280069652Y-303269848D01*
X307069652Y-210769848D02*
X269069652Y-210769848D01*
X269069652Y-210769848D02*
X269069652Y-335769848D01*
X269069652Y-335769848D02*
X307069652Y-335769848D01*
X307069652Y-210769848D02*
X307069652Y-335769848D01*
X289657152Y-236769848D02*
G75*
G03X289657152Y-236769848I-1587500J0D01*
G01*
X289657152Y-309769848D02*
G75*
G03X289657152Y-309769848I-1587500J0D01*
G01*
X296069652Y-230269848D02*
X280069652Y-230269848D01*
X280069652Y-230269848D02*
X280069652Y-243269848D01*
X296069652Y-243269848D02*
X280069652Y-243269848D01*
X296069652Y-230269848D02*
X296069652Y-243269848D01*
X342043652Y-303269848D02*
X342043652Y-316269848D01*
X342043652Y-316269848D02*
X326043652Y-316269848D01*
X326043652Y-303269848D02*
X326043652Y-316269848D01*
X342043652Y-303269848D02*
X326043652Y-303269848D01*
X353043652Y-210769848D02*
X315043652Y-210769848D01*
X315043652Y-210769848D02*
X315043652Y-335769848D01*
X315043652Y-335769848D02*
X353043652Y-335769848D01*
X353043652Y-210769848D02*
X353043652Y-335769848D01*
X335631152Y-236769848D02*
G75*
G03X335631152Y-236769848I-1587500J0D01*
G01*
X335631152Y-309769848D02*
G75*
G03X335631152Y-309769848I-1587500J0D01*
G01*
X342043652Y-230269848D02*
X326043652Y-230269848D01*
X326043652Y-230269848D02*
X326043652Y-243269848D01*
X342043652Y-243269848D02*
X326043652Y-243269848D01*
X342043652Y-230269848D02*
X342043652Y-243269848D01*
X388017652Y-230269848D02*
X388017652Y-243269848D01*
X388017652Y-243269848D02*
X372017652Y-243269848D01*
X372017652Y-230269848D02*
X372017652Y-243269848D01*
X388017652Y-230269848D02*
X372017652Y-230269848D01*
X381605152Y-309769848D02*
G75*
G03X381605152Y-309769848I-1587500J0D01*
G01*
X381605152Y-236769848D02*
G75*
G03X381605152Y-236769848I-1587500J0D01*
G01*
X399017652Y-210769848D02*
X399017652Y-335769848D01*
X361017652Y-335769848D02*
X399017652Y-335769848D01*
X361017652Y-210769848D02*
X361017652Y-335769848D01*
X399017652Y-210769848D02*
X361017652Y-210769848D01*
X388017652Y-303269848D02*
X372017652Y-303269848D01*
X372017652Y-303269848D02*
X372017652Y-316269848D01*
X388017652Y-316269848D02*
X372017652Y-316269848D01*
X388017652Y-303269848D02*
X388017652Y-316269848D01*
X152295652Y-241299848D02*
X139295652Y-241299848D01*
X139295652Y-241299848D02*
X139295652Y-225299848D01*
X152295652Y-225299848D02*
X139295652Y-225299848D01*
X152295652Y-241299848D02*
X152295652Y-225299848D01*
X244795652Y-252299848D02*
X244795652Y-214299848D01*
X244795652Y-214299848D02*
X119795652Y-214299848D01*
X119795652Y-214299848D02*
X119795652Y-252299848D01*
X244795652Y-252299848D02*
X119795652Y-252299848D01*
X220383152Y-233299848D02*
G75*
G03X220383152Y-233299848I-1587500J0D01*
G01*
X147383152Y-233299848D02*
G75*
G03X147383152Y-233299848I-1587500J0D01*
G01*
X225295652Y-241299848D02*
X225295652Y-225299848D01*
X225295652Y-225299848D02*
X212295652Y-225299848D01*
X212295652Y-241299848D02*
X212295652Y-225299848D01*
X225295652Y-241299848D02*
X212295652Y-241299848D01*
X152295652Y-287273848D02*
X139295652Y-287273848D01*
X139295652Y-287273848D02*
X139295652Y-271273848D01*
X152295652Y-271273848D02*
X139295652Y-271273848D01*
X152295652Y-287273848D02*
X152295652Y-271273848D01*
X244795652Y-298273848D02*
X244795652Y-260273848D01*
X244795652Y-260273848D02*
X119795652Y-260273848D01*
X119795652Y-260273848D02*
X119795652Y-298273848D01*
X244795652Y-298273848D02*
X119795652Y-298273848D01*
X220383152Y-279273848D02*
G75*
G03X220383152Y-279273848I-1587500J0D01*
G01*
X147383152Y-279273848D02*
G75*
G03X147383152Y-279273848I-1587500J0D01*
G01*
X225295652Y-287273848D02*
X225295652Y-271273848D01*
X225295652Y-271273848D02*
X212295652Y-271273848D01*
X212295652Y-287273848D02*
X212295652Y-271273848D01*
X225295652Y-287273848D02*
X212295652Y-287273848D01*
X225295652Y-333247848D02*
X212295652Y-333247848D01*
X212295652Y-333247848D02*
X212295652Y-317247848D01*
X225295652Y-317247848D02*
X212295652Y-317247848D01*
X225295652Y-333247848D02*
X225295652Y-317247848D01*
X147383152Y-325247848D02*
G75*
G03X147383152Y-325247848I-1587500J0D01*
G01*
X220383152Y-325247848D02*
G75*
G03X220383152Y-325247848I-1587500J0D01*
G01*
X244795652Y-344247848D02*
X119795652Y-344247848D01*
X119795652Y-306247848D02*
X119795652Y-344247848D01*
X244795652Y-306247848D02*
X119795652Y-306247848D01*
X244795652Y-344247848D02*
X244795652Y-306247848D01*
X152295652Y-333247848D02*
X152295652Y-317247848D01*
X152295652Y-317247848D02*
X139295652Y-317247848D01*
X139295652Y-333247848D02*
X139295652Y-317247848D01*
X152295652Y-333247848D02*
X139295652Y-333247848D01*
X358195652Y-159995848D02*
X371195652Y-159995848D01*
X371195652Y-159995848D02*
X371195652Y-175995848D01*
X358195652Y-175995848D02*
X371195652Y-175995848D01*
X358195652Y-159995848D02*
X358195652Y-175995848D01*
X265695652Y-148995848D02*
X265695652Y-186995848D01*
X265695652Y-186995848D02*
X390695652Y-186995848D01*
X390695652Y-186995848D02*
X390695652Y-148995848D01*
X265695652Y-148995848D02*
X390695652Y-148995848D01*
X293283152Y-167995848D02*
G75*
G03X293283152Y-167995848I-1587500J0D01*
G01*
X366283152Y-167995848D02*
G75*
G03X366283152Y-167995848I-1587500J0D01*
G01*
X285195652Y-159995848D02*
X285195652Y-175995848D01*
X285195652Y-175995848D02*
X298195652Y-175995848D01*
X298195652Y-159995848D02*
X298195652Y-175995848D01*
X285195652Y-159995848D02*
X298195652Y-159995848D01*
X358195652Y-114021848D02*
X371195652Y-114021848D01*
X371195652Y-114021848D02*
X371195652Y-130021848D01*
X358195652Y-130021848D02*
X371195652Y-130021848D01*
X358195652Y-114021848D02*
X358195652Y-130021848D01*
X265695652Y-103021848D02*
X265695652Y-141021848D01*
X265695652Y-141021848D02*
X390695652Y-141021848D01*
X390695652Y-141021848D02*
X390695652Y-103021848D01*
X265695652Y-103021848D02*
X390695652Y-103021848D01*
X293283152Y-122021848D02*
G75*
G03X293283152Y-122021848I-1587500J0D01*
G01*
X366283152Y-122021848D02*
G75*
G03X366283152Y-122021848I-1587500J0D01*
G01*
X285195652Y-114021848D02*
X285195652Y-130021848D01*
X285195652Y-130021848D02*
X298195652Y-130021848D01*
X298195652Y-114021848D02*
X298195652Y-130021848D01*
X285195652Y-114021848D02*
X298195652Y-114021848D01*
X285195652Y-68047848D02*
X298195652Y-68047848D01*
X298195652Y-68047848D02*
X298195652Y-84047848D01*
X285195652Y-84047848D02*
X298195652Y-84047848D01*
X285195652Y-68047848D02*
X285195652Y-84047848D01*
X366283152Y-76047848D02*
G75*
G03X366283152Y-76047848I-1587500J0D01*
G01*
X293283152Y-76047848D02*
G75*
G03X293283152Y-76047848I-1587500J0D01*
G01*
X265695652Y-57047848D02*
X390695652Y-57047848D01*
X390695652Y-95047848D02*
X390695652Y-57047848D01*
X265695652Y-95047848D02*
X390695652Y-95047848D01*
X265695652Y-57047848D02*
X265695652Y-95047848D01*
X358195652Y-68047848D02*
X358195652Y-84047848D01*
X358195652Y-84047848D02*
X371195652Y-84047848D01*
X371195652Y-68047848D02*
X371195652Y-84047848D01*
X358195652Y-68047848D02*
X371195652Y-68047848D01*
X214943652Y-96347848D02*
X214943652Y-83347848D01*
X214943652Y-83347848D02*
X230943652Y-83347848D01*
X230943652Y-96347848D02*
X230943652Y-83347848D01*
X214943652Y-96347848D02*
X230943652Y-96347848D01*
X203943652Y-188847848D02*
X241943652Y-188847848D01*
X241943652Y-188847848D02*
X241943652Y-63847848D01*
X241943652Y-63847848D02*
X203943652Y-63847848D01*
X203943652Y-188847848D02*
X203943652Y-63847848D01*
X224531152Y-162847848D02*
G75*
G03X224531152Y-162847848I-1587500J0D01*
G01*
X224531152Y-89847848D02*
G75*
G03X224531152Y-89847848I-1587500J0D01*
G01*
X214943652Y-169347848D02*
X230943652Y-169347848D01*
X230943652Y-169347848D02*
X230943652Y-156347848D01*
X214943652Y-156347848D02*
X230943652Y-156347848D01*
X214943652Y-169347848D02*
X214943652Y-156347848D01*
X168969652Y-96347848D02*
X168969652Y-83347848D01*
X168969652Y-83347848D02*
X184969652Y-83347848D01*
X184969652Y-96347848D02*
X184969652Y-83347848D01*
X168969652Y-96347848D02*
X184969652Y-96347848D01*
X157969652Y-188847848D02*
X195969652Y-188847848D01*
X195969652Y-188847848D02*
X195969652Y-63847848D01*
X195969652Y-63847848D02*
X157969652Y-63847848D01*
X157969652Y-188847848D02*
X157969652Y-63847848D01*
X178557152Y-162847848D02*
G75*
G03X178557152Y-162847848I-1587500J0D01*
G01*
X178557152Y-89847848D02*
G75*
G03X178557152Y-89847848I-1587500J0D01*
G01*
X168969652Y-169347848D02*
X184969652Y-169347848D01*
X184969652Y-169347848D02*
X184969652Y-156347848D01*
X168969652Y-156347848D02*
X184969652Y-156347848D01*
X168969652Y-169347848D02*
X168969652Y-156347848D01*
X122995652Y-169347848D02*
X122995652Y-156347848D01*
X122995652Y-156347848D02*
X138995652Y-156347848D01*
X138995652Y-169347848D02*
X138995652Y-156347848D01*
X122995652Y-169347848D02*
X138995652Y-169347848D01*
X132583152Y-89847848D02*
G75*
G03X132583152Y-89847848I-1587500J0D01*
G01*
X132583152Y-162847848D02*
G75*
G03X132583152Y-162847848I-1587500J0D01*
G01*
X111995652Y-188847848D02*
X111995652Y-63847848D01*
X149995652Y-63847848D02*
X111995652Y-63847848D01*
X149995652Y-188847848D02*
X149995652Y-63847848D01*
X111995652Y-188847848D02*
X149995652Y-188847848D01*
X122995652Y-96347848D02*
X138995652Y-96347848D01*
X138995652Y-96347848D02*
X138995652Y-83347848D01*
X122995652Y-83347848D02*
X138995652Y-83347848D01*
X122995652Y-96347848D02*
X122995652Y-83347848D01*
D11*
X388980532Y-167268324D02*
X389694818Y-167268324D01*
X389837675Y-167220705D01*
X389932913Y-167125467D01*
X389980532Y-166982609D01*
X389980532Y-166887371D01*
X389313866Y-168173086D02*
X389980532Y-168173086D01*
X388932913Y-167934990D02*
X389647199Y-167696895D01*
X389647199Y-168315943D01*
X389980532Y-168744514D02*
X389980532Y-168934990D01*
X389932913Y-169030228D01*
X389885294Y-169077848D01*
X389742437Y-169173086D01*
X389551961Y-169220705D01*
X389171009Y-169220705D01*
X389075771Y-169173086D01*
X389028152Y-169125467D01*
X388980532Y-169030228D01*
X388980532Y-168839752D01*
X389028152Y-168744514D01*
X389075771Y-168696895D01*
X389171009Y-168649276D01*
X389409104Y-168649276D01*
X389504342Y-168696895D01*
X389551961Y-168744514D01*
X389599580Y-168839752D01*
X389599580Y-169030228D01*
X389551961Y-169125467D01*
X389504342Y-169173086D01*
X389409104Y-169220705D01*
X252870532Y-167268324D02*
X253584818Y-167268324D01*
X253727675Y-167220705D01*
X253822913Y-167125467D01*
X253870532Y-166982609D01*
X253870532Y-166887371D01*
X253203866Y-168173086D02*
X253870532Y-168173086D01*
X252822913Y-167934990D02*
X253537199Y-167696895D01*
X253537199Y-168315943D01*
X252870532Y-168601657D02*
X252870532Y-169268324D01*
X253870532Y-168839752D01*
X334950175Y-334100228D02*
X334950175Y-334814514D01*
X334997794Y-334957371D01*
X335093032Y-335052609D01*
X335235890Y-335100228D01*
X335331128Y-335100228D01*
X334045413Y-334433562D02*
X334045413Y-335100228D01*
X334283509Y-334052609D02*
X334521604Y-334766895D01*
X333902556Y-334766895D01*
X333093032Y-334100228D02*
X333283509Y-334100228D01*
X333378747Y-334147848D01*
X333426366Y-334195467D01*
X333521604Y-334338324D01*
X333569223Y-334528800D01*
X333569223Y-334909752D01*
X333521604Y-335004990D01*
X333473985Y-335052609D01*
X333378747Y-335100228D01*
X333188271Y-335100228D01*
X333093032Y-335052609D01*
X333045413Y-335004990D01*
X332997794Y-334909752D01*
X332997794Y-334671657D01*
X333045413Y-334576419D01*
X333093032Y-334528800D01*
X333188271Y-334481181D01*
X333378747Y-334481181D01*
X333473985Y-334528800D01*
X333521604Y-334576419D01*
X333569223Y-334671657D01*
X334950175Y-198100228D02*
X334950175Y-198814514D01*
X334997794Y-198957371D01*
X335093032Y-199052609D01*
X335235890Y-199100228D01*
X335331128Y-199100228D01*
X334045413Y-198433562D02*
X334045413Y-199100228D01*
X334283509Y-198052609D02*
X334521604Y-198766895D01*
X333902556Y-198766895D01*
X333093032Y-198433562D02*
X333093032Y-199100228D01*
X333331128Y-198052609D02*
X333569223Y-198766895D01*
X332950175Y-198766895D01*
X380955175Y-334100228D02*
X380955175Y-334814514D01*
X381002794Y-334957371D01*
X381098032Y-335052609D01*
X381240890Y-335100228D01*
X381336128Y-335100228D01*
X380574223Y-334100228D02*
X379955175Y-334100228D01*
X380288509Y-334481181D01*
X380145652Y-334481181D01*
X380050413Y-334528800D01*
X380002794Y-334576419D01*
X379955175Y-334671657D01*
X379955175Y-334909752D01*
X380002794Y-335004990D01*
X380050413Y-335052609D01*
X380145652Y-335100228D01*
X380431366Y-335100228D01*
X380526604Y-335052609D01*
X380574223Y-335004990D01*
X379383747Y-334528800D02*
X379478985Y-334481181D01*
X379526604Y-334433562D01*
X379574223Y-334338324D01*
X379574223Y-334290705D01*
X379526604Y-334195467D01*
X379478985Y-334147848D01*
X379383747Y-334100228D01*
X379193271Y-334100228D01*
X379098032Y-334147848D01*
X379050413Y-334195467D01*
X379002794Y-334290705D01*
X379002794Y-334338324D01*
X379050413Y-334433562D01*
X379098032Y-334481181D01*
X379193271Y-334528800D01*
X379383747Y-334528800D01*
X379478985Y-334576419D01*
X379526604Y-334624038D01*
X379574223Y-334719276D01*
X379574223Y-334909752D01*
X379526604Y-335004990D01*
X379478985Y-335052609D01*
X379383747Y-335100228D01*
X379193271Y-335100228D01*
X379098032Y-335052609D01*
X379050413Y-335004990D01*
X379002794Y-334909752D01*
X379002794Y-334719276D01*
X379050413Y-334624038D01*
X379098032Y-334576419D01*
X379193271Y-334528800D01*
X288945175Y-334100228D02*
X288945175Y-334814514D01*
X288992794Y-334957371D01*
X289088032Y-335052609D01*
X289230890Y-335100228D01*
X289326128Y-335100228D01*
X288564223Y-334100228D02*
X287945175Y-334100228D01*
X288278509Y-334481181D01*
X288135652Y-334481181D01*
X288040413Y-334528800D01*
X287992794Y-334576419D01*
X287945175Y-334671657D01*
X287945175Y-334909752D01*
X287992794Y-335004990D01*
X288040413Y-335052609D01*
X288135652Y-335100228D01*
X288421366Y-335100228D01*
X288516604Y-335052609D01*
X288564223Y-335004990D01*
X287611842Y-334100228D02*
X286945175Y-334100228D01*
X287373747Y-335100228D01*
X380955175Y-198100228D02*
X380955175Y-198814514D01*
X381002794Y-198957371D01*
X381098032Y-199052609D01*
X381240890Y-199100228D01*
X381336128Y-199100228D01*
X380574223Y-198100228D02*
X379955175Y-198100228D01*
X380288509Y-198481181D01*
X380145652Y-198481181D01*
X380050413Y-198528800D01*
X380002794Y-198576419D01*
X379955175Y-198671657D01*
X379955175Y-198909752D01*
X380002794Y-199004990D01*
X380050413Y-199052609D01*
X380145652Y-199100228D01*
X380431366Y-199100228D01*
X380526604Y-199052609D01*
X380574223Y-199004990D01*
X379098032Y-198100228D02*
X379288509Y-198100228D01*
X379383747Y-198147848D01*
X379431366Y-198195467D01*
X379526604Y-198338324D01*
X379574223Y-198528800D01*
X379574223Y-198909752D01*
X379526604Y-199004990D01*
X379478985Y-199052609D01*
X379383747Y-199100228D01*
X379193271Y-199100228D01*
X379098032Y-199052609D01*
X379050413Y-199004990D01*
X379002794Y-198909752D01*
X379002794Y-198671657D01*
X379050413Y-198576419D01*
X379098032Y-198528800D01*
X379193271Y-198481181D01*
X379383747Y-198481181D01*
X379478985Y-198528800D01*
X379526604Y-198576419D01*
X379574223Y-198671657D01*
X288945175Y-198100228D02*
X288945175Y-198814514D01*
X288992794Y-198957371D01*
X289088032Y-199052609D01*
X289230890Y-199100228D01*
X289326128Y-199100228D01*
X288564223Y-198100228D02*
X287945175Y-198100228D01*
X288278509Y-198481181D01*
X288135652Y-198481181D01*
X288040413Y-198528800D01*
X287992794Y-198576419D01*
X287945175Y-198671657D01*
X287945175Y-198909752D01*
X287992794Y-199004990D01*
X288040413Y-199052609D01*
X288135652Y-199100228D01*
X288421366Y-199100228D01*
X288516604Y-199052609D01*
X288564223Y-199004990D01*
X287040413Y-198100228D02*
X287516604Y-198100228D01*
X287564223Y-198576419D01*
X287516604Y-198528800D01*
X287421366Y-198481181D01*
X287183271Y-198481181D01*
X287088032Y-198528800D01*
X287040413Y-198576419D01*
X286992794Y-198671657D01*
X286992794Y-198909752D01*
X287040413Y-199004990D01*
X287088032Y-199052609D01*
X287183271Y-199100228D01*
X287421366Y-199100228D01*
X287516604Y-199052609D01*
X287564223Y-199004990D01*
X388980532Y-75258324D02*
X389694818Y-75258324D01*
X389837675Y-75210705D01*
X389932913Y-75115467D01*
X389980532Y-74972609D01*
X389980532Y-74877371D01*
X388980532Y-75639276D02*
X388980532Y-76258324D01*
X389361485Y-75924990D01*
X389361485Y-76067848D01*
X389409104Y-76163086D01*
X389456723Y-76210705D01*
X389551961Y-76258324D01*
X389790056Y-76258324D01*
X389885294Y-76210705D01*
X389932913Y-76163086D01*
X389980532Y-76067848D01*
X389980532Y-75782133D01*
X389932913Y-75686895D01*
X389885294Y-75639276D01*
X388980532Y-76591657D02*
X388980532Y-77210705D01*
X389361485Y-76877371D01*
X389361485Y-77020228D01*
X389409104Y-77115467D01*
X389456723Y-77163086D01*
X389551961Y-77210705D01*
X389790056Y-77210705D01*
X389885294Y-77163086D01*
X389932913Y-77115467D01*
X389980532Y-77020228D01*
X389980532Y-76734514D01*
X389932913Y-76639276D01*
X389885294Y-76591657D01*
X177780175Y-64470228D02*
X177780175Y-65184514D01*
X177827794Y-65327371D01*
X177923032Y-65422609D01*
X178065890Y-65470228D01*
X178161128Y-65470228D01*
X177399223Y-64470228D02*
X176780175Y-64470228D01*
X177113509Y-64851181D01*
X176970652Y-64851181D01*
X176875413Y-64898800D01*
X176827794Y-64946419D01*
X176780175Y-65041657D01*
X176780175Y-65279752D01*
X176827794Y-65374990D01*
X176875413Y-65422609D01*
X176970652Y-65470228D01*
X177256366Y-65470228D01*
X177351604Y-65422609D01*
X177399223Y-65374990D01*
X176399223Y-64565467D02*
X176351604Y-64517848D01*
X176256366Y-64470228D01*
X176018271Y-64470228D01*
X175923032Y-64517848D01*
X175875413Y-64565467D01*
X175827794Y-64660705D01*
X175827794Y-64755943D01*
X175875413Y-64898800D01*
X176446842Y-65470228D01*
X175827794Y-65470228D01*
X120450532Y-232428324D02*
X121164818Y-232428324D01*
X121307675Y-232380705D01*
X121402913Y-232285467D01*
X121450532Y-232142609D01*
X121450532Y-232047371D01*
X120450532Y-232809276D02*
X120450532Y-233428324D01*
X120831485Y-233094990D01*
X120831485Y-233237848D01*
X120879104Y-233333086D01*
X120926723Y-233380705D01*
X121021961Y-233428324D01*
X121260056Y-233428324D01*
X121355294Y-233380705D01*
X121402913Y-233333086D01*
X121450532Y-233237848D01*
X121450532Y-232952133D01*
X121402913Y-232856895D01*
X121355294Y-232809276D01*
X121450532Y-234380705D02*
X121450532Y-233809276D01*
X121450532Y-234094990D02*
X120450532Y-234094990D01*
X120593390Y-233999752D01*
X120688628Y-233904514D01*
X120736247Y-233809276D01*
X120450532Y-324438324D02*
X121164818Y-324438324D01*
X121307675Y-324390705D01*
X121402913Y-324295467D01*
X121450532Y-324152609D01*
X121450532Y-324057371D01*
X120450532Y-324819276D02*
X120450532Y-325438324D01*
X120831485Y-325104990D01*
X120831485Y-325247848D01*
X120879104Y-325343086D01*
X120926723Y-325390705D01*
X121021961Y-325438324D01*
X121260056Y-325438324D01*
X121355294Y-325390705D01*
X121402913Y-325343086D01*
X121450532Y-325247848D01*
X121450532Y-324962133D01*
X121402913Y-324866895D01*
X121355294Y-324819276D01*
X120450532Y-326057371D02*
X120450532Y-326152609D01*
X120498152Y-326247848D01*
X120545771Y-326295467D01*
X120641009Y-326343086D01*
X120831485Y-326390705D01*
X121069580Y-326390705D01*
X121260056Y-326343086D01*
X121355294Y-326295467D01*
X121402913Y-326247848D01*
X121450532Y-326152609D01*
X121450532Y-326057371D01*
X121402913Y-325962133D01*
X121355294Y-325914514D01*
X121260056Y-325866895D01*
X121069580Y-325819276D01*
X120831485Y-325819276D01*
X120641009Y-325866895D01*
X120545771Y-325914514D01*
X120498152Y-325962133D01*
X120450532Y-326057371D01*
X252870532Y-75258324D02*
X253584818Y-75258324D01*
X253727675Y-75210705D01*
X253822913Y-75115467D01*
X253870532Y-74972609D01*
X253870532Y-74877371D01*
X252965771Y-75686895D02*
X252918152Y-75734514D01*
X252870532Y-75829752D01*
X252870532Y-76067848D01*
X252918152Y-76163086D01*
X252965771Y-76210705D01*
X253061009Y-76258324D01*
X253156247Y-76258324D01*
X253299104Y-76210705D01*
X253870532Y-75639276D01*
X253870532Y-76258324D01*
X253870532Y-76734514D02*
X253870532Y-76924990D01*
X253822913Y-77020228D01*
X253775294Y-77067848D01*
X253632437Y-77163086D01*
X253441961Y-77210705D01*
X253061009Y-77210705D01*
X252965771Y-77163086D01*
X252918152Y-77115467D01*
X252870532Y-77020228D01*
X252870532Y-76829752D01*
X252918152Y-76734514D01*
X252965771Y-76686895D01*
X253061009Y-76639276D01*
X253299104Y-76639276D01*
X253394342Y-76686895D01*
X253441961Y-76734514D01*
X253489580Y-76829752D01*
X253489580Y-77020228D01*
X253441961Y-77115467D01*
X253394342Y-77163086D01*
X253299104Y-77210705D01*
X177820175Y-187100228D02*
X177820175Y-187814514D01*
X177867794Y-187957371D01*
X177963032Y-188052609D01*
X178105890Y-188100228D01*
X178201128Y-188100228D01*
X177391604Y-187195467D02*
X177343985Y-187147848D01*
X177248747Y-187100228D01*
X177010652Y-187100228D01*
X176915413Y-187147848D01*
X176867794Y-187195467D01*
X176820175Y-187290705D01*
X176820175Y-187385943D01*
X176867794Y-187528800D01*
X177439223Y-188100228D01*
X176820175Y-188100228D01*
X176248747Y-187528800D02*
X176343985Y-187481181D01*
X176391604Y-187433562D01*
X176439223Y-187338324D01*
X176439223Y-187290705D01*
X176391604Y-187195467D01*
X176343985Y-187147848D01*
X176248747Y-187100228D01*
X176058271Y-187100228D01*
X175963032Y-187147848D01*
X175915413Y-187195467D01*
X175867794Y-187290705D01*
X175867794Y-187338324D01*
X175915413Y-187433562D01*
X175963032Y-187481181D01*
X176058271Y-187528800D01*
X176248747Y-187528800D01*
X176343985Y-187576419D01*
X176391604Y-187624038D01*
X176439223Y-187719276D01*
X176439223Y-187909752D01*
X176391604Y-188004990D01*
X176343985Y-188052609D01*
X176248747Y-188100228D01*
X176058271Y-188100228D01*
X175963032Y-188052609D01*
X175915413Y-188004990D01*
X175867794Y-187909752D01*
X175867794Y-187719276D01*
X175915413Y-187624038D01*
X175963032Y-187576419D01*
X176058271Y-187528800D01*
X243260532Y-232388324D02*
X243974818Y-232388324D01*
X244117675Y-232340705D01*
X244212913Y-232245467D01*
X244260532Y-232102609D01*
X244260532Y-232007371D01*
X243355771Y-232816895D02*
X243308152Y-232864514D01*
X243260532Y-232959752D01*
X243260532Y-233197848D01*
X243308152Y-233293086D01*
X243355771Y-233340705D01*
X243451009Y-233388324D01*
X243546247Y-233388324D01*
X243689104Y-233340705D01*
X244260532Y-232769276D01*
X244260532Y-233388324D01*
X243260532Y-233721657D02*
X243260532Y-234388324D01*
X244260532Y-233959752D01*
X256540532Y-324438324D02*
X257254818Y-324438324D01*
X257397675Y-324390705D01*
X257492913Y-324295467D01*
X257540532Y-324152609D01*
X257540532Y-324057371D01*
X256635771Y-324866895D02*
X256588152Y-324914514D01*
X256540532Y-325009752D01*
X256540532Y-325247848D01*
X256588152Y-325343086D01*
X256635771Y-325390705D01*
X256731009Y-325438324D01*
X256826247Y-325438324D01*
X256969104Y-325390705D01*
X257540532Y-324819276D01*
X257540532Y-325438324D01*
X256540532Y-326295467D02*
X256540532Y-326104990D01*
X256588152Y-326009752D01*
X256635771Y-325962133D01*
X256778628Y-325866895D01*
X256969104Y-325819276D01*
X257350056Y-325819276D01*
X257445294Y-325866895D01*
X257492913Y-325914514D01*
X257540532Y-326009752D01*
X257540532Y-326200228D01*
X257492913Y-326295467D01*
X257445294Y-326343086D01*
X257350056Y-326390705D01*
X257111961Y-326390705D01*
X257016723Y-326343086D01*
X256969104Y-326295467D01*
X256921485Y-326200228D01*
X256921485Y-326009752D01*
X256969104Y-325914514D01*
X257016723Y-325866895D01*
X257111961Y-325819276D01*
X388980532Y-121263324D02*
X389694818Y-121263324D01*
X389837675Y-121215705D01*
X389932913Y-121120467D01*
X389980532Y-120977609D01*
X389980532Y-120882371D01*
X389980532Y-122263324D02*
X389980532Y-121691895D01*
X389980532Y-121977609D02*
X388980532Y-121977609D01*
X389123390Y-121882371D01*
X389218628Y-121787133D01*
X389266247Y-121691895D01*
X388980532Y-122596657D02*
X388980532Y-123263324D01*
X389980532Y-122834752D01*
X223785175Y-64470228D02*
X223785175Y-65184514D01*
X223832794Y-65327371D01*
X223928032Y-65422609D01*
X224070890Y-65470228D01*
X224166128Y-65470228D01*
X222785175Y-65470228D02*
X223356604Y-65470228D01*
X223070890Y-65470228D02*
X223070890Y-64470228D01*
X223166128Y-64613086D01*
X223261366Y-64708324D01*
X223356604Y-64755943D01*
X221928032Y-64470228D02*
X222118509Y-64470228D01*
X222213747Y-64517848D01*
X222261366Y-64565467D01*
X222356604Y-64708324D01*
X222404223Y-64898800D01*
X222404223Y-65279752D01*
X222356604Y-65374990D01*
X222308985Y-65422609D01*
X222213747Y-65470228D01*
X222023271Y-65470228D01*
X221928032Y-65422609D01*
X221880413Y-65374990D01*
X221832794Y-65279752D01*
X221832794Y-65041657D01*
X221880413Y-64946419D01*
X221928032Y-64898800D01*
X222023271Y-64851181D01*
X222213747Y-64851181D01*
X222308985Y-64898800D01*
X222356604Y-64946419D01*
X222404223Y-65041657D01*
X131775175Y-64470228D02*
X131775175Y-65184514D01*
X131822794Y-65327371D01*
X131918032Y-65422609D01*
X132060890Y-65470228D01*
X132156128Y-65470228D01*
X130775175Y-65470228D02*
X131346604Y-65470228D01*
X131060890Y-65470228D02*
X131060890Y-64470228D01*
X131156128Y-64613086D01*
X131251366Y-64708324D01*
X131346604Y-64755943D01*
X129870413Y-64470228D02*
X130346604Y-64470228D01*
X130394223Y-64946419D01*
X130346604Y-64898800D01*
X130251366Y-64851181D01*
X130013271Y-64851181D01*
X129918032Y-64898800D01*
X129870413Y-64946419D01*
X129822794Y-65041657D01*
X129822794Y-65279752D01*
X129870413Y-65374990D01*
X129918032Y-65422609D01*
X130013271Y-65470228D01*
X130251366Y-65470228D01*
X130346604Y-65422609D01*
X130394223Y-65374990D01*
X120450532Y-278433324D02*
X121164818Y-278433324D01*
X121307675Y-278385705D01*
X121402913Y-278290467D01*
X121450532Y-278147609D01*
X121450532Y-278052371D01*
X121450532Y-279433324D02*
X121450532Y-278861895D01*
X121450532Y-279147609D02*
X120450532Y-279147609D01*
X120593390Y-279052371D01*
X120688628Y-278957133D01*
X120736247Y-278861895D01*
X120783866Y-280290467D02*
X121450532Y-280290467D01*
X120402913Y-280052371D02*
X121117199Y-279814276D01*
X121117199Y-280433324D01*
X266150532Y-121303324D02*
X266864818Y-121303324D01*
X267007675Y-121255705D01*
X267102913Y-121160467D01*
X267150532Y-121017609D01*
X267150532Y-120922371D01*
X267150532Y-122303324D02*
X267150532Y-121731895D01*
X267150532Y-122017609D02*
X266150532Y-122017609D01*
X266293390Y-121922371D01*
X266388628Y-121827133D01*
X266436247Y-121731895D01*
X266150532Y-122636657D02*
X266150532Y-123255705D01*
X266531485Y-122922371D01*
X266531485Y-123065228D01*
X266579104Y-123160467D01*
X266626723Y-123208086D01*
X266721961Y-123255705D01*
X266960056Y-123255705D01*
X267055294Y-123208086D01*
X267102913Y-123160467D01*
X267150532Y-123065228D01*
X267150532Y-122779514D01*
X267102913Y-122684276D01*
X267055294Y-122636657D01*
X223825175Y-187100228D02*
X223825175Y-187814514D01*
X223872794Y-187957371D01*
X223968032Y-188052609D01*
X224110890Y-188100228D01*
X224206128Y-188100228D01*
X222825175Y-188100228D02*
X223396604Y-188100228D01*
X223110890Y-188100228D02*
X223110890Y-187100228D01*
X223206128Y-187243086D01*
X223301366Y-187338324D01*
X223396604Y-187385943D01*
X222444223Y-187195467D02*
X222396604Y-187147848D01*
X222301366Y-187100228D01*
X222063271Y-187100228D01*
X221968032Y-187147848D01*
X221920413Y-187195467D01*
X221872794Y-187290705D01*
X221872794Y-187385943D01*
X221920413Y-187528800D01*
X222491842Y-188100228D01*
X221872794Y-188100228D01*
X131815175Y-187100228D02*
X131815175Y-187814514D01*
X131862794Y-187957371D01*
X131958032Y-188052609D01*
X132100890Y-188100228D01*
X132196128Y-188100228D01*
X130815175Y-188100228D02*
X131386604Y-188100228D01*
X131100890Y-188100228D02*
X131100890Y-187100228D01*
X131196128Y-187243086D01*
X131291366Y-187338324D01*
X131386604Y-187385943D01*
X129862794Y-188100228D02*
X130434223Y-188100228D01*
X130148509Y-188100228D02*
X130148509Y-187100228D01*
X130243747Y-187243086D01*
X130338985Y-187338324D01*
X130434223Y-187385943D01*
X243260532Y-278393324D02*
X243974818Y-278393324D01*
X244117675Y-278345705D01*
X244212913Y-278250467D01*
X244260532Y-278107609D01*
X244260532Y-278012371D01*
X244260532Y-279393324D02*
X244260532Y-278821895D01*
X244260532Y-279107609D02*
X243260532Y-279107609D01*
X243403390Y-279012371D01*
X243498628Y-278917133D01*
X243546247Y-278821895D01*
X243260532Y-280012371D02*
X243260532Y-280107609D01*
X243308152Y-280202848D01*
X243355771Y-280250467D01*
X243451009Y-280298086D01*
X243641485Y-280345705D01*
X243879580Y-280345705D01*
X244070056Y-280298086D01*
X244165294Y-280250467D01*
X244212913Y-280202848D01*
X244260532Y-280107609D01*
X244260532Y-280012371D01*
X244212913Y-279917133D01*
X244165294Y-279869514D01*
X244070056Y-279821895D01*
X243879580Y-279774276D01*
X243641485Y-279774276D01*
X243451009Y-279821895D01*
X243355771Y-279869514D01*
X243308152Y-279917133D01*
X243260532Y-280012371D01*
X310062032Y-270396514D02*
X309585842Y-270063181D01*
X310062032Y-269825086D02*
X309062032Y-269825086D01*
X309062032Y-270206038D01*
X309109652Y-270301276D01*
X309157271Y-270348895D01*
X309252509Y-270396514D01*
X309395366Y-270396514D01*
X309490604Y-270348895D01*
X309538223Y-270301276D01*
X309585842Y-270206038D01*
X309585842Y-269825086D01*
X309538223Y-270825086D02*
X309538223Y-271158419D01*
X310062032Y-271301276D02*
X310062032Y-270825086D01*
X309062032Y-270825086D01*
X309062032Y-271301276D01*
X309538223Y-272063181D02*
X309538223Y-271729848D01*
X310062032Y-271729848D02*
X309062032Y-271729848D01*
X309062032Y-272206038D01*
X309062032Y-272729848D02*
X309300128Y-272729848D01*
X309204890Y-272491752D02*
X309300128Y-272729848D01*
X309204890Y-272967943D01*
X309490604Y-272586990D02*
X309300128Y-272729848D01*
X309490604Y-272872705D01*
X309062032Y-273491752D02*
X309300128Y-273491752D01*
X309204890Y-273253657D02*
X309300128Y-273491752D01*
X309204890Y-273729848D01*
X309490604Y-273348895D02*
X309300128Y-273491752D01*
X309490604Y-273634609D01*
D12*
X286551556Y-260023657D02*
X286551556Y-262880800D01*
X291551556Y-261452228D02*
X286551556Y-261452228D01*
X291551556Y-266928419D02*
X291551556Y-264547467D01*
X286551556Y-264547467D01*
X286551556Y-270976038D02*
X286551556Y-268595086D01*
X288932509Y-268356990D01*
X288694413Y-268595086D01*
X288456318Y-269071276D01*
X288456318Y-270261752D01*
X288694413Y-270737943D01*
X288932509Y-270976038D01*
X289408699Y-271214133D01*
X290599175Y-271214133D01*
X291075366Y-270976038D01*
X291313461Y-270737943D01*
X291551556Y-270261752D01*
X291551556Y-269071276D01*
X291313461Y-268595086D01*
X291075366Y-268356990D01*
X291551556Y-273595086D02*
X291551556Y-274547467D01*
X291313461Y-275023657D01*
X291075366Y-275261752D01*
X290361080Y-275737943D01*
X289408699Y-275976038D01*
X287503937Y-275976038D01*
X287027747Y-275737943D01*
X286789652Y-275499848D01*
X286551556Y-275023657D01*
X286551556Y-274071276D01*
X286789652Y-273595086D01*
X287027747Y-273356990D01*
X287503937Y-273118895D01*
X288694413Y-273118895D01*
X289170604Y-273356990D01*
X289408699Y-273595086D01*
X289646794Y-274071276D01*
X289646794Y-275023657D01*
X289408699Y-275499848D01*
X289170604Y-275737943D01*
X288694413Y-275976038D01*
X286551556Y-277642705D02*
X286551556Y-280737943D01*
X288456318Y-279071276D01*
X288456318Y-279785562D01*
X288694413Y-280261752D01*
X288932509Y-280499848D01*
X289408699Y-280737943D01*
X290599175Y-280737943D01*
X291075366Y-280499848D01*
X291313461Y-280261752D01*
X291551556Y-279785562D01*
X291551556Y-278356990D01*
X291313461Y-277880800D01*
X291075366Y-277642705D01*
X286551556Y-282404609D02*
X286551556Y-285737943D01*
X291551556Y-283595086D01*
D13*
X291829175Y-327054133D02*
X284210128Y-327054133D01*
X291879175Y-217834133D02*
X284260128Y-217834133D01*
X288069652Y-221643657D02*
X288069652Y-214024609D01*
D11*
X356036032Y-270396514D02*
X355559842Y-270063181D01*
X356036032Y-269825086D02*
X355036032Y-269825086D01*
X355036032Y-270206038D01*
X355083652Y-270301276D01*
X355131271Y-270348895D01*
X355226509Y-270396514D01*
X355369366Y-270396514D01*
X355464604Y-270348895D01*
X355512223Y-270301276D01*
X355559842Y-270206038D01*
X355559842Y-269825086D01*
X355512223Y-270825086D02*
X355512223Y-271158419D01*
X356036032Y-271301276D02*
X356036032Y-270825086D01*
X355036032Y-270825086D01*
X355036032Y-271301276D01*
X355512223Y-272063181D02*
X355512223Y-271729848D01*
X356036032Y-271729848D02*
X355036032Y-271729848D01*
X355036032Y-272206038D01*
X355036032Y-272729848D02*
X355274128Y-272729848D01*
X355178890Y-272491752D02*
X355274128Y-272729848D01*
X355178890Y-272967943D01*
X355464604Y-272586990D02*
X355274128Y-272729848D01*
X355464604Y-272872705D01*
X355036032Y-273491752D02*
X355274128Y-273491752D01*
X355178890Y-273253657D02*
X355274128Y-273491752D01*
X355178890Y-273729848D01*
X355464604Y-273348895D02*
X355274128Y-273491752D01*
X355464604Y-273634609D01*
D12*
X332525556Y-260023657D02*
X332525556Y-262880800D01*
X337525556Y-261452228D02*
X332525556Y-261452228D01*
X337525556Y-266928419D02*
X337525556Y-264547467D01*
X332525556Y-264547467D01*
X332525556Y-270976038D02*
X332525556Y-268595086D01*
X334906509Y-268356990D01*
X334668413Y-268595086D01*
X334430318Y-269071276D01*
X334430318Y-270261752D01*
X334668413Y-270737943D01*
X334906509Y-270976038D01*
X335382699Y-271214133D01*
X336573175Y-271214133D01*
X337049366Y-270976038D01*
X337287461Y-270737943D01*
X337525556Y-270261752D01*
X337525556Y-269071276D01*
X337287461Y-268595086D01*
X337049366Y-268356990D01*
X337525556Y-273595086D02*
X337525556Y-274547467D01*
X337287461Y-275023657D01*
X337049366Y-275261752D01*
X336335080Y-275737943D01*
X335382699Y-275976038D01*
X333477937Y-275976038D01*
X333001747Y-275737943D01*
X332763652Y-275499848D01*
X332525556Y-275023657D01*
X332525556Y-274071276D01*
X332763652Y-273595086D01*
X333001747Y-273356990D01*
X333477937Y-273118895D01*
X334668413Y-273118895D01*
X335144604Y-273356990D01*
X335382699Y-273595086D01*
X335620794Y-274071276D01*
X335620794Y-275023657D01*
X335382699Y-275499848D01*
X335144604Y-275737943D01*
X334668413Y-275976038D01*
X332525556Y-277642705D02*
X332525556Y-280737943D01*
X334430318Y-279071276D01*
X334430318Y-279785562D01*
X334668413Y-280261752D01*
X334906509Y-280499848D01*
X335382699Y-280737943D01*
X336573175Y-280737943D01*
X337049366Y-280499848D01*
X337287461Y-280261752D01*
X337525556Y-279785562D01*
X337525556Y-278356990D01*
X337287461Y-277880800D01*
X337049366Y-277642705D01*
X332525556Y-282404609D02*
X332525556Y-285737943D01*
X337525556Y-283595086D01*
D13*
X337803175Y-327054133D02*
X330184128Y-327054133D01*
X337853175Y-217834133D02*
X330234128Y-217834133D01*
X334043652Y-221643657D02*
X334043652Y-214024609D01*
D11*
X397986478Y-269355838D02*
X397510288Y-269022505D01*
X397986478Y-268784410D02*
X396986478Y-268784410D01*
X396986478Y-269165362D01*
X397034098Y-269260600D01*
X397081717Y-269308219D01*
X397176955Y-269355838D01*
X397319812Y-269355838D01*
X397415050Y-269308219D01*
X397462669Y-269260600D01*
X397510288Y-269165362D01*
X397510288Y-268784410D01*
X397462669Y-269784410D02*
X397462669Y-270117743D01*
X397986478Y-270260600D02*
X397986478Y-269784410D01*
X396986478Y-269784410D01*
X396986478Y-270260600D01*
X397462669Y-271022505D02*
X397462669Y-270689172D01*
X397986478Y-270689172D02*
X396986478Y-270689172D01*
X396986478Y-271165362D01*
X396986478Y-271689172D02*
X397224574Y-271689172D01*
X397129336Y-271451076D02*
X397224574Y-271689172D01*
X397129336Y-271927267D01*
X397415050Y-271546314D02*
X397224574Y-271689172D01*
X397415050Y-271832029D01*
X396986478Y-272451076D02*
X397224574Y-272451076D01*
X397129336Y-272212981D02*
X397224574Y-272451076D01*
X397129336Y-272689172D01*
X397415050Y-272308219D02*
X397224574Y-272451076D01*
X397415050Y-272593933D01*
D12*
X378499556Y-260023657D02*
X378499556Y-262880800D01*
X383499556Y-261452228D02*
X378499556Y-261452228D01*
X383499556Y-266928419D02*
X383499556Y-264547467D01*
X378499556Y-264547467D01*
X378499556Y-270976038D02*
X378499556Y-268595086D01*
X380880509Y-268356990D01*
X380642413Y-268595086D01*
X380404318Y-269071276D01*
X380404318Y-270261752D01*
X380642413Y-270737943D01*
X380880509Y-270976038D01*
X381356699Y-271214133D01*
X382547175Y-271214133D01*
X383023366Y-270976038D01*
X383261461Y-270737943D01*
X383499556Y-270261752D01*
X383499556Y-269071276D01*
X383261461Y-268595086D01*
X383023366Y-268356990D01*
X383499556Y-273595086D02*
X383499556Y-274547467D01*
X383261461Y-275023657D01*
X383023366Y-275261752D01*
X382309080Y-275737943D01*
X381356699Y-275976038D01*
X379451937Y-275976038D01*
X378975747Y-275737943D01*
X378737652Y-275499848D01*
X378499556Y-275023657D01*
X378499556Y-274071276D01*
X378737652Y-273595086D01*
X378975747Y-273356990D01*
X379451937Y-273118895D01*
X380642413Y-273118895D01*
X381118604Y-273356990D01*
X381356699Y-273595086D01*
X381594794Y-274071276D01*
X381594794Y-275023657D01*
X381356699Y-275499848D01*
X381118604Y-275737943D01*
X380642413Y-275976038D01*
X378499556Y-277642705D02*
X378499556Y-280737943D01*
X380404318Y-279071276D01*
X380404318Y-279785562D01*
X380642413Y-280261752D01*
X380880509Y-280499848D01*
X381356699Y-280737943D01*
X382547175Y-280737943D01*
X383023366Y-280499848D01*
X383261461Y-280261752D01*
X383499556Y-279785562D01*
X383499556Y-278356990D01*
X383261461Y-277880800D01*
X383023366Y-277642705D01*
X378499556Y-282404609D02*
X378499556Y-285737943D01*
X383499556Y-283595086D01*
D13*
X383827175Y-217834133D02*
X376208128Y-217834133D01*
X380017652Y-221643657D02*
X380017652Y-214024609D01*
X383777175Y-327054133D02*
X376158128Y-327054133D01*
D11*
X185168985Y-255292228D02*
X185502318Y-254816038D01*
X185740413Y-255292228D02*
X185740413Y-254292228D01*
X185359461Y-254292228D01*
X185264223Y-254339848D01*
X185216604Y-254387467D01*
X185168985Y-254482705D01*
X185168985Y-254625562D01*
X185216604Y-254720800D01*
X185264223Y-254768419D01*
X185359461Y-254816038D01*
X185740413Y-254816038D01*
X184740413Y-254768419D02*
X184407080Y-254768419D01*
X184264223Y-255292228D02*
X184740413Y-255292228D01*
X184740413Y-254292228D01*
X184264223Y-254292228D01*
X183502318Y-254768419D02*
X183835652Y-254768419D01*
X183835652Y-255292228D02*
X183835652Y-254292228D01*
X183359461Y-254292228D01*
X182835652Y-254292228D02*
X182835652Y-254530324D01*
X183073747Y-254435086D02*
X182835652Y-254530324D01*
X182597556Y-254435086D01*
X182978509Y-254720800D02*
X182835652Y-254530324D01*
X182692794Y-254720800D01*
X182073747Y-254292228D02*
X182073747Y-254530324D01*
X182311842Y-254435086D02*
X182073747Y-254530324D01*
X181835652Y-254435086D01*
X182216604Y-254720800D02*
X182073747Y-254530324D01*
X181930890Y-254720800D01*
D12*
X195541842Y-231781752D02*
X192684699Y-231781752D01*
X194113271Y-236781752D02*
X194113271Y-231781752D01*
X188637080Y-236781752D02*
X191018032Y-236781752D01*
X191018032Y-231781752D01*
X184589461Y-231781752D02*
X186970413Y-231781752D01*
X187208509Y-234162705D01*
X186970413Y-233924609D01*
X186494223Y-233686514D01*
X185303747Y-233686514D01*
X184827556Y-233924609D01*
X184589461Y-234162705D01*
X184351366Y-234638895D01*
X184351366Y-235829371D01*
X184589461Y-236305562D01*
X184827556Y-236543657D01*
X185303747Y-236781752D01*
X186494223Y-236781752D01*
X186970413Y-236543657D01*
X187208509Y-236305562D01*
X181970413Y-236781752D02*
X181018032Y-236781752D01*
X180541842Y-236543657D01*
X180303747Y-236305562D01*
X179827556Y-235591276D01*
X179589461Y-234638895D01*
X179589461Y-232734133D01*
X179827556Y-232257943D01*
X180065652Y-232019848D01*
X180541842Y-231781752D01*
X181494223Y-231781752D01*
X181970413Y-232019848D01*
X182208509Y-232257943D01*
X182446604Y-232734133D01*
X182446604Y-233924609D01*
X182208509Y-234400800D01*
X181970413Y-234638895D01*
X181494223Y-234876990D01*
X180541842Y-234876990D01*
X180065652Y-234638895D01*
X179827556Y-234400800D01*
X179589461Y-233924609D01*
X177922794Y-231781752D02*
X174827556Y-231781752D01*
X176494223Y-233686514D01*
X175779937Y-233686514D01*
X175303747Y-233924609D01*
X175065652Y-234162705D01*
X174827556Y-234638895D01*
X174827556Y-235829371D01*
X175065652Y-236305562D01*
X175303747Y-236543657D01*
X175779937Y-236781752D01*
X177208509Y-236781752D01*
X177684699Y-236543657D01*
X177922794Y-236305562D01*
X173160890Y-231781752D02*
X169827556Y-231781752D01*
X171970413Y-236781752D01*
D13*
X129939937Y-229440324D02*
X129939937Y-237059371D01*
X239159937Y-229490324D02*
X239159937Y-237109371D01*
X242969461Y-233299848D02*
X235350413Y-233299848D01*
D11*
X185168985Y-301266228D02*
X185502318Y-300790038D01*
X185740413Y-301266228D02*
X185740413Y-300266228D01*
X185359461Y-300266228D01*
X185264223Y-300313848D01*
X185216604Y-300361467D01*
X185168985Y-300456705D01*
X185168985Y-300599562D01*
X185216604Y-300694800D01*
X185264223Y-300742419D01*
X185359461Y-300790038D01*
X185740413Y-300790038D01*
X184740413Y-300742419D02*
X184407080Y-300742419D01*
X184264223Y-301266228D02*
X184740413Y-301266228D01*
X184740413Y-300266228D01*
X184264223Y-300266228D01*
X183502318Y-300742419D02*
X183835652Y-300742419D01*
X183835652Y-301266228D02*
X183835652Y-300266228D01*
X183359461Y-300266228D01*
X182835652Y-300266228D02*
X182835652Y-300504324D01*
X183073747Y-300409086D02*
X182835652Y-300504324D01*
X182597556Y-300409086D01*
X182978509Y-300694800D02*
X182835652Y-300504324D01*
X182692794Y-300694800D01*
X182073747Y-300266228D02*
X182073747Y-300504324D01*
X182311842Y-300409086D02*
X182073747Y-300504324D01*
X181835652Y-300409086D01*
X182216604Y-300694800D02*
X182073747Y-300504324D01*
X181930890Y-300694800D01*
D12*
X195541842Y-277755752D02*
X192684699Y-277755752D01*
X194113271Y-282755752D02*
X194113271Y-277755752D01*
X188637080Y-282755752D02*
X191018032Y-282755752D01*
X191018032Y-277755752D01*
X184589461Y-277755752D02*
X186970413Y-277755752D01*
X187208509Y-280136705D01*
X186970413Y-279898609D01*
X186494223Y-279660514D01*
X185303747Y-279660514D01*
X184827556Y-279898609D01*
X184589461Y-280136705D01*
X184351366Y-280612895D01*
X184351366Y-281803371D01*
X184589461Y-282279562D01*
X184827556Y-282517657D01*
X185303747Y-282755752D01*
X186494223Y-282755752D01*
X186970413Y-282517657D01*
X187208509Y-282279562D01*
X181970413Y-282755752D02*
X181018032Y-282755752D01*
X180541842Y-282517657D01*
X180303747Y-282279562D01*
X179827556Y-281565276D01*
X179589461Y-280612895D01*
X179589461Y-278708133D01*
X179827556Y-278231943D01*
X180065652Y-277993848D01*
X180541842Y-277755752D01*
X181494223Y-277755752D01*
X181970413Y-277993848D01*
X182208509Y-278231943D01*
X182446604Y-278708133D01*
X182446604Y-279898609D01*
X182208509Y-280374800D01*
X181970413Y-280612895D01*
X181494223Y-280850990D01*
X180541842Y-280850990D01*
X180065652Y-280612895D01*
X179827556Y-280374800D01*
X179589461Y-279898609D01*
X177922794Y-277755752D02*
X174827556Y-277755752D01*
X176494223Y-279660514D01*
X175779937Y-279660514D01*
X175303747Y-279898609D01*
X175065652Y-280136705D01*
X174827556Y-280612895D01*
X174827556Y-281803371D01*
X175065652Y-282279562D01*
X175303747Y-282517657D01*
X175779937Y-282755752D01*
X177208509Y-282755752D01*
X177684699Y-282517657D01*
X177922794Y-282279562D01*
X173160890Y-277755752D02*
X169827556Y-277755752D01*
X171970413Y-282755752D01*
D13*
X129939937Y-275414324D02*
X129939937Y-283033371D01*
X239159937Y-275464324D02*
X239159937Y-283083371D01*
X242969461Y-279273848D02*
X235350413Y-279273848D01*
D11*
X181176139Y-342488698D02*
X181509472Y-342012508D01*
X181747567Y-342488698D02*
X181747567Y-341488698D01*
X181366615Y-341488698D01*
X181271377Y-341536318D01*
X181223758Y-341583937D01*
X181176139Y-341679175D01*
X181176139Y-341822032D01*
X181223758Y-341917270D01*
X181271377Y-341964889D01*
X181366615Y-342012508D01*
X181747567Y-342012508D01*
X180747567Y-341964889D02*
X180414234Y-341964889D01*
X180271377Y-342488698D02*
X180747567Y-342488698D01*
X180747567Y-341488698D01*
X180271377Y-341488698D01*
X179509472Y-341964889D02*
X179842806Y-341964889D01*
X179842806Y-342488698D02*
X179842806Y-341488698D01*
X179366615Y-341488698D01*
X178842806Y-341488698D02*
X178842806Y-341726794D01*
X179080901Y-341631556D02*
X178842806Y-341726794D01*
X178604710Y-341631556D01*
X178985663Y-341917270D02*
X178842806Y-341726794D01*
X178699948Y-341917270D01*
X178080901Y-341488698D02*
X178080901Y-341726794D01*
X178318996Y-341631556D02*
X178080901Y-341726794D01*
X177842806Y-341631556D01*
X178223758Y-341917270D02*
X178080901Y-341726794D01*
X177938044Y-341917270D01*
D12*
X195541842Y-323729752D02*
X192684699Y-323729752D01*
X194113271Y-328729752D02*
X194113271Y-323729752D01*
X188637080Y-328729752D02*
X191018032Y-328729752D01*
X191018032Y-323729752D01*
X184589461Y-323729752D02*
X186970413Y-323729752D01*
X187208509Y-326110705D01*
X186970413Y-325872609D01*
X186494223Y-325634514D01*
X185303747Y-325634514D01*
X184827556Y-325872609D01*
X184589461Y-326110705D01*
X184351366Y-326586895D01*
X184351366Y-327777371D01*
X184589461Y-328253562D01*
X184827556Y-328491657D01*
X185303747Y-328729752D01*
X186494223Y-328729752D01*
X186970413Y-328491657D01*
X187208509Y-328253562D01*
X181970413Y-328729752D02*
X181018032Y-328729752D01*
X180541842Y-328491657D01*
X180303747Y-328253562D01*
X179827556Y-327539276D01*
X179589461Y-326586895D01*
X179589461Y-324682133D01*
X179827556Y-324205943D01*
X180065652Y-323967848D01*
X180541842Y-323729752D01*
X181494223Y-323729752D01*
X181970413Y-323967848D01*
X182208509Y-324205943D01*
X182446604Y-324682133D01*
X182446604Y-325872609D01*
X182208509Y-326348800D01*
X181970413Y-326586895D01*
X181494223Y-326824990D01*
X180541842Y-326824990D01*
X180065652Y-326586895D01*
X179827556Y-326348800D01*
X179589461Y-325872609D01*
X177922794Y-323729752D02*
X174827556Y-323729752D01*
X176494223Y-325634514D01*
X175779937Y-325634514D01*
X175303747Y-325872609D01*
X175065652Y-326110705D01*
X174827556Y-326586895D01*
X174827556Y-327777371D01*
X175065652Y-328253562D01*
X175303747Y-328491657D01*
X175779937Y-328729752D01*
X177208509Y-328729752D01*
X177684699Y-328491657D01*
X177922794Y-328253562D01*
X173160890Y-323729752D02*
X169827556Y-323729752D01*
X171970413Y-328729752D01*
D13*
X239159937Y-321438324D02*
X239159937Y-329057371D01*
X242969461Y-325247848D02*
X235350413Y-325247848D01*
X129939937Y-321388324D02*
X129939937Y-329007371D01*
D11*
X327988985Y-146908228D02*
X328322318Y-146432038D01*
X328560413Y-146908228D02*
X328560413Y-145908228D01*
X328179461Y-145908228D01*
X328084223Y-145955848D01*
X328036604Y-146003467D01*
X327988985Y-146098705D01*
X327988985Y-146241562D01*
X328036604Y-146336800D01*
X328084223Y-146384419D01*
X328179461Y-146432038D01*
X328560413Y-146432038D01*
X327560413Y-146384419D02*
X327227080Y-146384419D01*
X327084223Y-146908228D02*
X327560413Y-146908228D01*
X327560413Y-145908228D01*
X327084223Y-145908228D01*
X326322318Y-146384419D02*
X326655652Y-146384419D01*
X326655652Y-146908228D02*
X326655652Y-145908228D01*
X326179461Y-145908228D01*
X325655652Y-145908228D02*
X325655652Y-146146324D01*
X325893747Y-146051086D02*
X325655652Y-146146324D01*
X325417556Y-146051086D01*
X325798509Y-146336800D02*
X325655652Y-146146324D01*
X325512794Y-146336800D01*
X324893747Y-145908228D02*
X324893747Y-146146324D01*
X325131842Y-146051086D02*
X324893747Y-146146324D01*
X324655652Y-146051086D01*
X325036604Y-146336800D02*
X324893747Y-146146324D01*
X324750890Y-146336800D01*
D12*
X340901842Y-164037752D02*
X338044699Y-164037752D01*
X339473271Y-169037752D02*
X339473271Y-164037752D01*
X333997080Y-169037752D02*
X336378032Y-169037752D01*
X336378032Y-164037752D01*
X329949461Y-164037752D02*
X332330413Y-164037752D01*
X332568509Y-166418705D01*
X332330413Y-166180609D01*
X331854223Y-165942514D01*
X330663747Y-165942514D01*
X330187556Y-166180609D01*
X329949461Y-166418705D01*
X329711366Y-166894895D01*
X329711366Y-168085371D01*
X329949461Y-168561562D01*
X330187556Y-168799657D01*
X330663747Y-169037752D01*
X331854223Y-169037752D01*
X332330413Y-168799657D01*
X332568509Y-168561562D01*
X327330413Y-169037752D02*
X326378032Y-169037752D01*
X325901842Y-168799657D01*
X325663747Y-168561562D01*
X325187556Y-167847276D01*
X324949461Y-166894895D01*
X324949461Y-164990133D01*
X325187556Y-164513943D01*
X325425652Y-164275848D01*
X325901842Y-164037752D01*
X326854223Y-164037752D01*
X327330413Y-164275848D01*
X327568509Y-164513943D01*
X327806604Y-164990133D01*
X327806604Y-166180609D01*
X327568509Y-166656800D01*
X327330413Y-166894895D01*
X326854223Y-167132990D01*
X325901842Y-167132990D01*
X325425652Y-166894895D01*
X325187556Y-166656800D01*
X324949461Y-166180609D01*
X323282794Y-164037752D02*
X320187556Y-164037752D01*
X321854223Y-165942514D01*
X321139937Y-165942514D01*
X320663747Y-166180609D01*
X320425652Y-166418705D01*
X320187556Y-166894895D01*
X320187556Y-168085371D01*
X320425652Y-168561562D01*
X320663747Y-168799657D01*
X321139937Y-169037752D01*
X322568509Y-169037752D01*
X323044699Y-168799657D01*
X323282794Y-168561562D01*
X318520890Y-164037752D02*
X315187556Y-164037752D01*
X317330413Y-169037752D01*
D13*
X381979937Y-164236324D02*
X381979937Y-171855371D01*
X272759937Y-164186324D02*
X272759937Y-171805371D01*
X276569461Y-167995848D02*
X268950413Y-167995848D01*
D11*
X327988985Y-100934228D02*
X328322318Y-100458038D01*
X328560413Y-100934228D02*
X328560413Y-99934228D01*
X328179461Y-99934228D01*
X328084223Y-99981848D01*
X328036604Y-100029467D01*
X327988985Y-100124705D01*
X327988985Y-100267562D01*
X328036604Y-100362800D01*
X328084223Y-100410419D01*
X328179461Y-100458038D01*
X328560413Y-100458038D01*
X327560413Y-100410419D02*
X327227080Y-100410419D01*
X327084223Y-100934228D02*
X327560413Y-100934228D01*
X327560413Y-99934228D01*
X327084223Y-99934228D01*
X326322318Y-100410419D02*
X326655652Y-100410419D01*
X326655652Y-100934228D02*
X326655652Y-99934228D01*
X326179461Y-99934228D01*
X325655652Y-99934228D02*
X325655652Y-100172324D01*
X325893747Y-100077086D02*
X325655652Y-100172324D01*
X325417556Y-100077086D01*
X325798509Y-100362800D02*
X325655652Y-100172324D01*
X325512794Y-100362800D01*
X324893747Y-99934228D02*
X324893747Y-100172324D01*
X325131842Y-100077086D02*
X324893747Y-100172324D01*
X324655652Y-100077086D01*
X325036604Y-100362800D02*
X324893747Y-100172324D01*
X324750890Y-100362800D01*
D12*
X340901842Y-118063752D02*
X338044699Y-118063752D01*
X339473271Y-123063752D02*
X339473271Y-118063752D01*
X333997080Y-123063752D02*
X336378032Y-123063752D01*
X336378032Y-118063752D01*
X329949461Y-118063752D02*
X332330413Y-118063752D01*
X332568509Y-120444705D01*
X332330413Y-120206609D01*
X331854223Y-119968514D01*
X330663747Y-119968514D01*
X330187556Y-120206609D01*
X329949461Y-120444705D01*
X329711366Y-120920895D01*
X329711366Y-122111371D01*
X329949461Y-122587562D01*
X330187556Y-122825657D01*
X330663747Y-123063752D01*
X331854223Y-123063752D01*
X332330413Y-122825657D01*
X332568509Y-122587562D01*
X327330413Y-123063752D02*
X326378032Y-123063752D01*
X325901842Y-122825657D01*
X325663747Y-122587562D01*
X325187556Y-121873276D01*
X324949461Y-120920895D01*
X324949461Y-119016133D01*
X325187556Y-118539943D01*
X325425652Y-118301848D01*
X325901842Y-118063752D01*
X326854223Y-118063752D01*
X327330413Y-118301848D01*
X327568509Y-118539943D01*
X327806604Y-119016133D01*
X327806604Y-120206609D01*
X327568509Y-120682800D01*
X327330413Y-120920895D01*
X326854223Y-121158990D01*
X325901842Y-121158990D01*
X325425652Y-120920895D01*
X325187556Y-120682800D01*
X324949461Y-120206609D01*
X323282794Y-118063752D02*
X320187556Y-118063752D01*
X321854223Y-119968514D01*
X321139937Y-119968514D01*
X320663747Y-120206609D01*
X320425652Y-120444705D01*
X320187556Y-120920895D01*
X320187556Y-122111371D01*
X320425652Y-122587562D01*
X320663747Y-122825657D01*
X321139937Y-123063752D01*
X322568509Y-123063752D01*
X323044699Y-122825657D01*
X323282794Y-122587562D01*
X318520890Y-118063752D02*
X315187556Y-118063752D01*
X317330413Y-123063752D01*
D13*
X381979937Y-118262324D02*
X381979937Y-125881371D01*
X272759937Y-118212324D02*
X272759937Y-125831371D01*
X276569461Y-122021848D02*
X268950413Y-122021848D01*
D11*
X330570163Y-60149992D02*
X330903496Y-59673802D01*
X331141591Y-60149992D02*
X331141591Y-59149992D01*
X330760639Y-59149992D01*
X330665401Y-59197612D01*
X330617782Y-59245231D01*
X330570163Y-59340469D01*
X330570163Y-59483326D01*
X330617782Y-59578564D01*
X330665401Y-59626183D01*
X330760639Y-59673802D01*
X331141591Y-59673802D01*
X330141591Y-59626183D02*
X329808258Y-59626183D01*
X329665401Y-60149992D02*
X330141591Y-60149992D01*
X330141591Y-59149992D01*
X329665401Y-59149992D01*
X328903496Y-59626183D02*
X329236830Y-59626183D01*
X329236830Y-60149992D02*
X329236830Y-59149992D01*
X328760639Y-59149992D01*
X328236830Y-59149992D02*
X328236830Y-59388088D01*
X328474925Y-59292850D02*
X328236830Y-59388088D01*
X327998734Y-59292850D01*
X328379687Y-59578564D02*
X328236830Y-59388088D01*
X328093972Y-59578564D01*
X327474925Y-59149992D02*
X327474925Y-59388088D01*
X327713020Y-59292850D02*
X327474925Y-59388088D01*
X327236830Y-59292850D01*
X327617782Y-59578564D02*
X327474925Y-59388088D01*
X327332068Y-59578564D01*
D12*
X340901842Y-72089752D02*
X338044699Y-72089752D01*
X339473271Y-77089752D02*
X339473271Y-72089752D01*
X333997080Y-77089752D02*
X336378032Y-77089752D01*
X336378032Y-72089752D01*
X329949461Y-72089752D02*
X332330413Y-72089752D01*
X332568509Y-74470705D01*
X332330413Y-74232609D01*
X331854223Y-73994514D01*
X330663747Y-73994514D01*
X330187556Y-74232609D01*
X329949461Y-74470705D01*
X329711366Y-74946895D01*
X329711366Y-76137371D01*
X329949461Y-76613562D01*
X330187556Y-76851657D01*
X330663747Y-77089752D01*
X331854223Y-77089752D01*
X332330413Y-76851657D01*
X332568509Y-76613562D01*
X327330413Y-77089752D02*
X326378032Y-77089752D01*
X325901842Y-76851657D01*
X325663747Y-76613562D01*
X325187556Y-75899276D01*
X324949461Y-74946895D01*
X324949461Y-73042133D01*
X325187556Y-72565943D01*
X325425652Y-72327848D01*
X325901842Y-72089752D01*
X326854223Y-72089752D01*
X327330413Y-72327848D01*
X327568509Y-72565943D01*
X327806604Y-73042133D01*
X327806604Y-74232609D01*
X327568509Y-74708800D01*
X327330413Y-74946895D01*
X326854223Y-75184990D01*
X325901842Y-75184990D01*
X325425652Y-74946895D01*
X325187556Y-74708800D01*
X324949461Y-74232609D01*
X323282794Y-72089752D02*
X320187556Y-72089752D01*
X321854223Y-73994514D01*
X321139937Y-73994514D01*
X320663747Y-74232609D01*
X320425652Y-74470705D01*
X320187556Y-74946895D01*
X320187556Y-76137371D01*
X320425652Y-76613562D01*
X320663747Y-76851657D01*
X321139937Y-77089752D01*
X322568509Y-77089752D01*
X323044699Y-76851657D01*
X323282794Y-76613562D01*
X318520890Y-72089752D02*
X315187556Y-72089752D01*
X317330413Y-77089752D01*
D13*
X272759937Y-72238324D02*
X272759937Y-79857371D01*
X276569461Y-76047848D02*
X268950413Y-76047848D01*
X381979937Y-72288324D02*
X381979937Y-79907371D01*
D11*
X200951271Y-129221181D02*
X201427461Y-129554514D01*
X200951271Y-129792609D02*
X201951271Y-129792609D01*
X201951271Y-129411657D01*
X201903652Y-129316419D01*
X201856032Y-129268800D01*
X201760794Y-129221181D01*
X201617937Y-129221181D01*
X201522699Y-129268800D01*
X201475080Y-129316419D01*
X201427461Y-129411657D01*
X201427461Y-129792609D01*
X201475080Y-128792609D02*
X201475080Y-128459276D01*
X200951271Y-128316419D02*
X200951271Y-128792609D01*
X201951271Y-128792609D01*
X201951271Y-128316419D01*
X201475080Y-127554514D02*
X201475080Y-127887848D01*
X200951271Y-127887848D02*
X201951271Y-127887848D01*
X201951271Y-127411657D01*
X201951271Y-126887848D02*
X201713175Y-126887848D01*
X201808413Y-127125943D02*
X201713175Y-126887848D01*
X201808413Y-126649752D01*
X201522699Y-127030705D02*
X201713175Y-126887848D01*
X201522699Y-126744990D01*
X201951271Y-126125943D02*
X201713175Y-126125943D01*
X201808413Y-126364038D02*
X201713175Y-126125943D01*
X201808413Y-125887848D01*
X201522699Y-126268800D02*
X201713175Y-126125943D01*
X201522699Y-125983086D01*
D12*
X224461747Y-139594038D02*
X224461747Y-136736895D01*
X219461747Y-138165467D02*
X224461747Y-138165467D01*
X219461747Y-132689276D02*
X219461747Y-135070228D01*
X224461747Y-135070228D01*
X224461747Y-128641657D02*
X224461747Y-131022609D01*
X222080794Y-131260705D01*
X222318890Y-131022609D01*
X222556985Y-130546419D01*
X222556985Y-129355943D01*
X222318890Y-128879752D01*
X222080794Y-128641657D01*
X221604604Y-128403562D01*
X220414128Y-128403562D01*
X219937937Y-128641657D01*
X219699842Y-128879752D01*
X219461747Y-129355943D01*
X219461747Y-130546419D01*
X219699842Y-131022609D01*
X219937937Y-131260705D01*
X219461747Y-126022609D02*
X219461747Y-125070228D01*
X219699842Y-124594038D01*
X219937937Y-124355943D01*
X220652223Y-123879752D01*
X221604604Y-123641657D01*
X223509366Y-123641657D01*
X223985556Y-123879752D01*
X224223652Y-124117848D01*
X224461747Y-124594038D01*
X224461747Y-125546419D01*
X224223652Y-126022609D01*
X223985556Y-126260705D01*
X223509366Y-126498800D01*
X222318890Y-126498800D01*
X221842699Y-126260705D01*
X221604604Y-126022609D01*
X221366509Y-125546419D01*
X221366509Y-124594038D01*
X221604604Y-124117848D01*
X221842699Y-123879752D01*
X222318890Y-123641657D01*
X224461747Y-121974990D02*
X224461747Y-118879752D01*
X222556985Y-120546419D01*
X222556985Y-119832133D01*
X222318890Y-119355943D01*
X222080794Y-119117848D01*
X221604604Y-118879752D01*
X220414128Y-118879752D01*
X219937937Y-119117848D01*
X219699842Y-119355943D01*
X219461747Y-119832133D01*
X219461747Y-121260705D01*
X219699842Y-121736895D01*
X219937937Y-121974990D01*
X224461747Y-117213086D02*
X224461747Y-113879752D01*
X219461747Y-116022609D01*
D13*
X226803175Y-73992133D02*
X219184128Y-73992133D01*
X226753175Y-183212133D02*
X219134128Y-183212133D01*
X222943652Y-187021657D02*
X222943652Y-179402609D01*
D11*
X154977271Y-129221181D02*
X155453461Y-129554514D01*
X154977271Y-129792609D02*
X155977271Y-129792609D01*
X155977271Y-129411657D01*
X155929652Y-129316419D01*
X155882032Y-129268800D01*
X155786794Y-129221181D01*
X155643937Y-129221181D01*
X155548699Y-129268800D01*
X155501080Y-129316419D01*
X155453461Y-129411657D01*
X155453461Y-129792609D01*
X155501080Y-128792609D02*
X155501080Y-128459276D01*
X154977271Y-128316419D02*
X154977271Y-128792609D01*
X155977271Y-128792609D01*
X155977271Y-128316419D01*
X155501080Y-127554514D02*
X155501080Y-127887848D01*
X154977271Y-127887848D02*
X155977271Y-127887848D01*
X155977271Y-127411657D01*
X155977271Y-126887848D02*
X155739175Y-126887848D01*
X155834413Y-127125943D02*
X155739175Y-126887848D01*
X155834413Y-126649752D01*
X155548699Y-127030705D02*
X155739175Y-126887848D01*
X155548699Y-126744990D01*
X155977271Y-126125943D02*
X155739175Y-126125943D01*
X155834413Y-126364038D02*
X155739175Y-126125943D01*
X155834413Y-125887848D01*
X155548699Y-126268800D02*
X155739175Y-126125943D01*
X155548699Y-125983086D01*
D12*
X178487747Y-139594038D02*
X178487747Y-136736895D01*
X173487747Y-138165467D02*
X178487747Y-138165467D01*
X173487747Y-132689276D02*
X173487747Y-135070228D01*
X178487747Y-135070228D01*
X178487747Y-128641657D02*
X178487747Y-131022609D01*
X176106794Y-131260705D01*
X176344890Y-131022609D01*
X176582985Y-130546419D01*
X176582985Y-129355943D01*
X176344890Y-128879752D01*
X176106794Y-128641657D01*
X175630604Y-128403562D01*
X174440128Y-128403562D01*
X173963937Y-128641657D01*
X173725842Y-128879752D01*
X173487747Y-129355943D01*
X173487747Y-130546419D01*
X173725842Y-131022609D01*
X173963937Y-131260705D01*
X173487747Y-126022609D02*
X173487747Y-125070228D01*
X173725842Y-124594038D01*
X173963937Y-124355943D01*
X174678223Y-123879752D01*
X175630604Y-123641657D01*
X177535366Y-123641657D01*
X178011556Y-123879752D01*
X178249652Y-124117848D01*
X178487747Y-124594038D01*
X178487747Y-125546419D01*
X178249652Y-126022609D01*
X178011556Y-126260705D01*
X177535366Y-126498800D01*
X176344890Y-126498800D01*
X175868699Y-126260705D01*
X175630604Y-126022609D01*
X175392509Y-125546419D01*
X175392509Y-124594038D01*
X175630604Y-124117848D01*
X175868699Y-123879752D01*
X176344890Y-123641657D01*
X178487747Y-121974990D02*
X178487747Y-118879752D01*
X176582985Y-120546419D01*
X176582985Y-119832133D01*
X176344890Y-119355943D01*
X176106794Y-119117848D01*
X175630604Y-118879752D01*
X174440128Y-118879752D01*
X173963937Y-119117848D01*
X173725842Y-119355943D01*
X173487747Y-119832133D01*
X173487747Y-121260705D01*
X173725842Y-121736895D01*
X173963937Y-121974990D01*
X178487747Y-117213086D02*
X178487747Y-113879752D01*
X173487747Y-116022609D01*
D13*
X180829175Y-73992133D02*
X173210128Y-73992133D01*
X180779175Y-183212133D02*
X173160128Y-183212133D01*
X176969652Y-187021657D02*
X176969652Y-179402609D01*
D11*
X109003271Y-129221181D02*
X109479461Y-129554514D01*
X109003271Y-129792609D02*
X110003271Y-129792609D01*
X110003271Y-129411657D01*
X109955652Y-129316419D01*
X109908032Y-129268800D01*
X109812794Y-129221181D01*
X109669937Y-129221181D01*
X109574699Y-129268800D01*
X109527080Y-129316419D01*
X109479461Y-129411657D01*
X109479461Y-129792609D01*
X109527080Y-128792609D02*
X109527080Y-128459276D01*
X109003271Y-128316419D02*
X109003271Y-128792609D01*
X110003271Y-128792609D01*
X110003271Y-128316419D01*
X109527080Y-127554514D02*
X109527080Y-127887848D01*
X109003271Y-127887848D02*
X110003271Y-127887848D01*
X110003271Y-127411657D01*
X110003271Y-126887848D02*
X109765175Y-126887848D01*
X109860413Y-127125943D02*
X109765175Y-126887848D01*
X109860413Y-126649752D01*
X109574699Y-127030705D02*
X109765175Y-126887848D01*
X109574699Y-126744990D01*
X110003271Y-126125943D02*
X109765175Y-126125943D01*
X109860413Y-126364038D02*
X109765175Y-126125943D01*
X109860413Y-125887848D01*
X109574699Y-126268800D02*
X109765175Y-126125943D01*
X109574699Y-125983086D01*
D12*
X132513747Y-139594038D02*
X132513747Y-136736895D01*
X127513747Y-138165467D02*
X132513747Y-138165467D01*
X127513747Y-132689276D02*
X127513747Y-135070228D01*
X132513747Y-135070228D01*
X132513747Y-128641657D02*
X132513747Y-131022609D01*
X130132794Y-131260705D01*
X130370890Y-131022609D01*
X130608985Y-130546419D01*
X130608985Y-129355943D01*
X130370890Y-128879752D01*
X130132794Y-128641657D01*
X129656604Y-128403562D01*
X128466128Y-128403562D01*
X127989937Y-128641657D01*
X127751842Y-128879752D01*
X127513747Y-129355943D01*
X127513747Y-130546419D01*
X127751842Y-131022609D01*
X127989937Y-131260705D01*
X127513747Y-126022609D02*
X127513747Y-125070228D01*
X127751842Y-124594038D01*
X127989937Y-124355943D01*
X128704223Y-123879752D01*
X129656604Y-123641657D01*
X131561366Y-123641657D01*
X132037556Y-123879752D01*
X132275652Y-124117848D01*
X132513747Y-124594038D01*
X132513747Y-125546419D01*
X132275652Y-126022609D01*
X132037556Y-126260705D01*
X131561366Y-126498800D01*
X130370890Y-126498800D01*
X129894699Y-126260705D01*
X129656604Y-126022609D01*
X129418509Y-125546419D01*
X129418509Y-124594038D01*
X129656604Y-124117848D01*
X129894699Y-123879752D01*
X130370890Y-123641657D01*
X132513747Y-121974990D02*
X132513747Y-118879752D01*
X130608985Y-120546419D01*
X130608985Y-119832133D01*
X130370890Y-119355943D01*
X130132794Y-119117848D01*
X129656604Y-118879752D01*
X128466128Y-118879752D01*
X127989937Y-119117848D01*
X127751842Y-119355943D01*
X127513747Y-119832133D01*
X127513747Y-121260705D01*
X127751842Y-121736895D01*
X127989937Y-121974990D01*
X132513747Y-117213086D02*
X132513747Y-113879752D01*
X127513747Y-116022609D01*
D13*
X134805175Y-183212133D02*
X127186128Y-183212133D01*
X130995652Y-187021657D02*
X130995652Y-179402609D01*
X134855175Y-73992133D02*
X127236128Y-73992133D01*
M02*
