G04 #@! TF.GenerationSoftware,KiCad,Pcbnew,5.1.5-52549c5~84~ubuntu18.04.1*
G04 #@! TF.CreationDate,2020-01-18T14:29:20-05:00*
G04 #@! TF.ProjectId,datapod_IR_splitter,64617461-706f-4645-9f49-525f73706c69,rev?*
G04 #@! TF.SameCoordinates,Original*
G04 #@! TF.FileFunction,Soldermask,Bot*
G04 #@! TF.FilePolarity,Negative*
%FSLAX46Y46*%
G04 Gerber Fmt 4.6, Leading zero omitted, Abs format (unit mm)*
G04 Created by KiCad (PCBNEW 5.1.5-52549c5~84~ubuntu18.04.1) date 2020-01-18 14:29:20*
%MOMM*%
%LPD*%
G04 APERTURE LIST*
%ADD10C,0.100000*%
G04 APERTURE END LIST*
D10*
G36*
X154418254Y-134527818D02*
G01*
X154791511Y-134682426D01*
X154791513Y-134682427D01*
X155127436Y-134906884D01*
X155413116Y-135192564D01*
X155637574Y-135528489D01*
X155792182Y-135901746D01*
X155871000Y-136297993D01*
X155871000Y-136702007D01*
X155792182Y-137098254D01*
X155637574Y-137471511D01*
X155637573Y-137471513D01*
X155413116Y-137807436D01*
X155127436Y-138093116D01*
X154791513Y-138317573D01*
X154791512Y-138317574D01*
X154791511Y-138317574D01*
X154418254Y-138472182D01*
X154022007Y-138551000D01*
X153617993Y-138551000D01*
X153221746Y-138472182D01*
X152848489Y-138317574D01*
X152848488Y-138317574D01*
X152848487Y-138317573D01*
X152512564Y-138093116D01*
X152226884Y-137807436D01*
X152002427Y-137471513D01*
X152002426Y-137471511D01*
X151847818Y-137098254D01*
X151769000Y-136702007D01*
X151769000Y-136297993D01*
X151847818Y-135901746D01*
X152002426Y-135528489D01*
X152226884Y-135192564D01*
X152512564Y-134906884D01*
X152848487Y-134682427D01*
X152848489Y-134682426D01*
X153221746Y-134527818D01*
X153617993Y-134449000D01*
X154022007Y-134449000D01*
X154418254Y-134527818D01*
G37*
G36*
X136638254Y-134527818D02*
G01*
X137011511Y-134682426D01*
X137011513Y-134682427D01*
X137347436Y-134906884D01*
X137633116Y-135192564D01*
X137857574Y-135528489D01*
X138012182Y-135901746D01*
X138091000Y-136297993D01*
X138091000Y-136702007D01*
X138012182Y-137098254D01*
X137857574Y-137471511D01*
X137857573Y-137471513D01*
X137633116Y-137807436D01*
X137347436Y-138093116D01*
X137011513Y-138317573D01*
X137011512Y-138317574D01*
X137011511Y-138317574D01*
X136638254Y-138472182D01*
X136242007Y-138551000D01*
X135837993Y-138551000D01*
X135441746Y-138472182D01*
X135068489Y-138317574D01*
X135068488Y-138317574D01*
X135068487Y-138317573D01*
X134732564Y-138093116D01*
X134446884Y-137807436D01*
X134222427Y-137471513D01*
X134222426Y-137471511D01*
X134067818Y-137098254D01*
X133989000Y-136702007D01*
X133989000Y-136297993D01*
X134067818Y-135901746D01*
X134222426Y-135528489D01*
X134446884Y-135192564D01*
X134732564Y-134906884D01*
X135068487Y-134682427D01*
X135068489Y-134682426D01*
X135441746Y-134527818D01*
X135837993Y-134449000D01*
X136242007Y-134449000D01*
X136638254Y-134527818D01*
G37*
G36*
X115627477Y-127703892D02*
G01*
X115970541Y-127845994D01*
X116455707Y-128046956D01*
X117201093Y-128545008D01*
X117834992Y-129178907D01*
X118333044Y-129924293D01*
X118526360Y-130391000D01*
X118676108Y-130752523D01*
X118851000Y-131631764D01*
X118851000Y-132528236D01*
X118676108Y-133407477D01*
X118534006Y-133750541D01*
X118333044Y-134235707D01*
X117834992Y-134981093D01*
X117201093Y-135614992D01*
X116455707Y-136113044D01*
X116009200Y-136297993D01*
X115627477Y-136456108D01*
X114748236Y-136631000D01*
X113851764Y-136631000D01*
X112972523Y-136456108D01*
X112590800Y-136297993D01*
X112144293Y-136113044D01*
X111398907Y-135614992D01*
X110765008Y-134981093D01*
X110266956Y-134235707D01*
X110065994Y-133750541D01*
X109923892Y-133407477D01*
X109749000Y-132528236D01*
X109749000Y-131631764D01*
X109923892Y-130752523D01*
X110073640Y-130391000D01*
X110266956Y-129924293D01*
X110765008Y-129178907D01*
X111398907Y-128545008D01*
X112144293Y-128046956D01*
X112629459Y-127845994D01*
X112972523Y-127703892D01*
X113851764Y-127529000D01*
X114748236Y-127529000D01*
X115627477Y-127703892D01*
G37*
G36*
X168967477Y-127703892D02*
G01*
X169310541Y-127845994D01*
X169795707Y-128046956D01*
X170541093Y-128545008D01*
X171174992Y-129178907D01*
X171673044Y-129924293D01*
X171866360Y-130391000D01*
X172016108Y-130752523D01*
X172191000Y-131631764D01*
X172191000Y-132528236D01*
X172016108Y-133407477D01*
X171874006Y-133750541D01*
X171673044Y-134235707D01*
X171174992Y-134981093D01*
X170541093Y-135614992D01*
X169795707Y-136113044D01*
X169349200Y-136297993D01*
X168967477Y-136456108D01*
X168088236Y-136631000D01*
X167191764Y-136631000D01*
X166312523Y-136456108D01*
X165930800Y-136297993D01*
X165484293Y-136113044D01*
X164738907Y-135614992D01*
X164105008Y-134981093D01*
X163606956Y-134235707D01*
X163405994Y-133750541D01*
X163263892Y-133407477D01*
X163089000Y-132528236D01*
X163089000Y-131631764D01*
X163263892Y-130752523D01*
X163413640Y-130391000D01*
X163606956Y-129924293D01*
X164105008Y-129178907D01*
X164738907Y-128545008D01*
X165484293Y-128046956D01*
X165969459Y-127845994D01*
X166312523Y-127703892D01*
X167191764Y-127529000D01*
X168088236Y-127529000D01*
X168967477Y-127703892D01*
G37*
G36*
X135471000Y-130391000D02*
G01*
X133769000Y-130391000D01*
X133769000Y-128689000D01*
X135471000Y-128689000D01*
X135471000Y-130391000D01*
G37*
G36*
X153251000Y-130391000D02*
G01*
X151549000Y-130391000D01*
X151549000Y-128689000D01*
X153251000Y-128689000D01*
X153251000Y-130391000D01*
G37*
G36*
X155488228Y-127336703D02*
G01*
X155643100Y-127400853D01*
X155782481Y-127493985D01*
X155901015Y-127612519D01*
X155994147Y-127751900D01*
X156058297Y-127906772D01*
X156091000Y-128071184D01*
X156091000Y-128238816D01*
X156058297Y-128403228D01*
X155994147Y-128558100D01*
X155901015Y-128697481D01*
X155782481Y-128816015D01*
X155643100Y-128909147D01*
X155488228Y-128973297D01*
X155323816Y-129006000D01*
X155156184Y-129006000D01*
X154991772Y-128973297D01*
X154836900Y-128909147D01*
X154697519Y-128816015D01*
X154578985Y-128697481D01*
X154485853Y-128558100D01*
X154421703Y-128403228D01*
X154389000Y-128238816D01*
X154389000Y-128071184D01*
X154421703Y-127906772D01*
X154485853Y-127751900D01*
X154578985Y-127612519D01*
X154697519Y-127493985D01*
X154836900Y-127400853D01*
X154991772Y-127336703D01*
X155156184Y-127304000D01*
X155323816Y-127304000D01*
X155488228Y-127336703D01*
G37*
G36*
X137708228Y-127336703D02*
G01*
X137863100Y-127400853D01*
X138002481Y-127493985D01*
X138121015Y-127612519D01*
X138214147Y-127751900D01*
X138278297Y-127906772D01*
X138311000Y-128071184D01*
X138311000Y-128238816D01*
X138278297Y-128403228D01*
X138214147Y-128558100D01*
X138121015Y-128697481D01*
X138002481Y-128816015D01*
X137863100Y-128909147D01*
X137708228Y-128973297D01*
X137543816Y-129006000D01*
X137376184Y-129006000D01*
X137211772Y-128973297D01*
X137056900Y-128909147D01*
X136917519Y-128816015D01*
X136798985Y-128697481D01*
X136705853Y-128558100D01*
X136641703Y-128403228D01*
X136609000Y-128238816D01*
X136609000Y-128071184D01*
X136641703Y-127906772D01*
X136705853Y-127751900D01*
X136798985Y-127612519D01*
X136917519Y-127493985D01*
X137056900Y-127400853D01*
X137211772Y-127336703D01*
X137376184Y-127304000D01*
X137543816Y-127304000D01*
X137708228Y-127336703D01*
G37*
G36*
X152648228Y-125951703D02*
G01*
X152803100Y-126015853D01*
X152942481Y-126108985D01*
X153061015Y-126227519D01*
X153154147Y-126366900D01*
X153218297Y-126521772D01*
X153251000Y-126686184D01*
X153251000Y-126853816D01*
X153218297Y-127018228D01*
X153154147Y-127173100D01*
X153061015Y-127312481D01*
X152942481Y-127431015D01*
X152803100Y-127524147D01*
X152648228Y-127588297D01*
X152483816Y-127621000D01*
X152316184Y-127621000D01*
X152151772Y-127588297D01*
X151996900Y-127524147D01*
X151857519Y-127431015D01*
X151738985Y-127312481D01*
X151645853Y-127173100D01*
X151581703Y-127018228D01*
X151549000Y-126853816D01*
X151549000Y-126686184D01*
X151581703Y-126521772D01*
X151645853Y-126366900D01*
X151738985Y-126227519D01*
X151857519Y-126108985D01*
X151996900Y-126015853D01*
X152151772Y-125951703D01*
X152316184Y-125919000D01*
X152483816Y-125919000D01*
X152648228Y-125951703D01*
G37*
G36*
X134868228Y-125951703D02*
G01*
X135023100Y-126015853D01*
X135162481Y-126108985D01*
X135281015Y-126227519D01*
X135374147Y-126366900D01*
X135438297Y-126521772D01*
X135471000Y-126686184D01*
X135471000Y-126853816D01*
X135438297Y-127018228D01*
X135374147Y-127173100D01*
X135281015Y-127312481D01*
X135162481Y-127431015D01*
X135023100Y-127524147D01*
X134868228Y-127588297D01*
X134703816Y-127621000D01*
X134536184Y-127621000D01*
X134371772Y-127588297D01*
X134216900Y-127524147D01*
X134077519Y-127431015D01*
X133958985Y-127312481D01*
X133865853Y-127173100D01*
X133801703Y-127018228D01*
X133769000Y-126853816D01*
X133769000Y-126686184D01*
X133801703Y-126521772D01*
X133865853Y-126366900D01*
X133958985Y-126227519D01*
X134077519Y-126108985D01*
X134216900Y-126015853D01*
X134371772Y-125951703D01*
X134536184Y-125919000D01*
X134703816Y-125919000D01*
X134868228Y-125951703D01*
G37*
G36*
X155488228Y-124566703D02*
G01*
X155643100Y-124630853D01*
X155782481Y-124723985D01*
X155901015Y-124842519D01*
X155994147Y-124981900D01*
X156058297Y-125136772D01*
X156091000Y-125301184D01*
X156091000Y-125468816D01*
X156058297Y-125633228D01*
X155994147Y-125788100D01*
X155901015Y-125927481D01*
X155782481Y-126046015D01*
X155643100Y-126139147D01*
X155488228Y-126203297D01*
X155323816Y-126236000D01*
X155156184Y-126236000D01*
X154991772Y-126203297D01*
X154836900Y-126139147D01*
X154697519Y-126046015D01*
X154578985Y-125927481D01*
X154485853Y-125788100D01*
X154421703Y-125633228D01*
X154389000Y-125468816D01*
X154389000Y-125301184D01*
X154421703Y-125136772D01*
X154485853Y-124981900D01*
X154578985Y-124842519D01*
X154697519Y-124723985D01*
X154836900Y-124630853D01*
X154991772Y-124566703D01*
X155156184Y-124534000D01*
X155323816Y-124534000D01*
X155488228Y-124566703D01*
G37*
G36*
X137708228Y-124566703D02*
G01*
X137863100Y-124630853D01*
X138002481Y-124723985D01*
X138121015Y-124842519D01*
X138214147Y-124981900D01*
X138278297Y-125136772D01*
X138311000Y-125301184D01*
X138311000Y-125468816D01*
X138278297Y-125633228D01*
X138214147Y-125788100D01*
X138121015Y-125927481D01*
X138002481Y-126046015D01*
X137863100Y-126139147D01*
X137708228Y-126203297D01*
X137543816Y-126236000D01*
X137376184Y-126236000D01*
X137211772Y-126203297D01*
X137056900Y-126139147D01*
X136917519Y-126046015D01*
X136798985Y-125927481D01*
X136705853Y-125788100D01*
X136641703Y-125633228D01*
X136609000Y-125468816D01*
X136609000Y-125301184D01*
X136641703Y-125136772D01*
X136705853Y-124981900D01*
X136798985Y-124842519D01*
X136917519Y-124723985D01*
X137056900Y-124630853D01*
X137211772Y-124566703D01*
X137376184Y-124534000D01*
X137543816Y-124534000D01*
X137708228Y-124566703D01*
G37*
G36*
X152648228Y-123181703D02*
G01*
X152803100Y-123245853D01*
X152942481Y-123338985D01*
X153061015Y-123457519D01*
X153154147Y-123596900D01*
X153218297Y-123751772D01*
X153251000Y-123916184D01*
X153251000Y-124083816D01*
X153218297Y-124248228D01*
X153154147Y-124403100D01*
X153061015Y-124542481D01*
X152942481Y-124661015D01*
X152803100Y-124754147D01*
X152648228Y-124818297D01*
X152483816Y-124851000D01*
X152316184Y-124851000D01*
X152151772Y-124818297D01*
X151996900Y-124754147D01*
X151857519Y-124661015D01*
X151738985Y-124542481D01*
X151645853Y-124403100D01*
X151581703Y-124248228D01*
X151549000Y-124083816D01*
X151549000Y-123916184D01*
X151581703Y-123751772D01*
X151645853Y-123596900D01*
X151738985Y-123457519D01*
X151857519Y-123338985D01*
X151996900Y-123245853D01*
X152151772Y-123181703D01*
X152316184Y-123149000D01*
X152483816Y-123149000D01*
X152648228Y-123181703D01*
G37*
G36*
X134868228Y-123181703D02*
G01*
X135023100Y-123245853D01*
X135162481Y-123338985D01*
X135281015Y-123457519D01*
X135374147Y-123596900D01*
X135438297Y-123751772D01*
X135471000Y-123916184D01*
X135471000Y-124083816D01*
X135438297Y-124248228D01*
X135374147Y-124403100D01*
X135281015Y-124542481D01*
X135162481Y-124661015D01*
X135023100Y-124754147D01*
X134868228Y-124818297D01*
X134703816Y-124851000D01*
X134536184Y-124851000D01*
X134371772Y-124818297D01*
X134216900Y-124754147D01*
X134077519Y-124661015D01*
X133958985Y-124542481D01*
X133865853Y-124403100D01*
X133801703Y-124248228D01*
X133769000Y-124083816D01*
X133769000Y-123916184D01*
X133801703Y-123751772D01*
X133865853Y-123596900D01*
X133958985Y-123457519D01*
X134077519Y-123338985D01*
X134216900Y-123245853D01*
X134371772Y-123181703D01*
X134536184Y-123149000D01*
X134703816Y-123149000D01*
X134868228Y-123181703D01*
G37*
G36*
X137708228Y-121796703D02*
G01*
X137863100Y-121860853D01*
X138002481Y-121953985D01*
X138121015Y-122072519D01*
X138214147Y-122211900D01*
X138278297Y-122366772D01*
X138311000Y-122531184D01*
X138311000Y-122698816D01*
X138278297Y-122863228D01*
X138214147Y-123018100D01*
X138121015Y-123157481D01*
X138002481Y-123276015D01*
X137863100Y-123369147D01*
X137708228Y-123433297D01*
X137543816Y-123466000D01*
X137376184Y-123466000D01*
X137211772Y-123433297D01*
X137056900Y-123369147D01*
X136917519Y-123276015D01*
X136798985Y-123157481D01*
X136705853Y-123018100D01*
X136641703Y-122863228D01*
X136609000Y-122698816D01*
X136609000Y-122531184D01*
X136641703Y-122366772D01*
X136705853Y-122211900D01*
X136798985Y-122072519D01*
X136917519Y-121953985D01*
X137056900Y-121860853D01*
X137211772Y-121796703D01*
X137376184Y-121764000D01*
X137543816Y-121764000D01*
X137708228Y-121796703D01*
G37*
G36*
X155488228Y-121796703D02*
G01*
X155643100Y-121860853D01*
X155782481Y-121953985D01*
X155901015Y-122072519D01*
X155994147Y-122211900D01*
X156058297Y-122366772D01*
X156091000Y-122531184D01*
X156091000Y-122698816D01*
X156058297Y-122863228D01*
X155994147Y-123018100D01*
X155901015Y-123157481D01*
X155782481Y-123276015D01*
X155643100Y-123369147D01*
X155488228Y-123433297D01*
X155323816Y-123466000D01*
X155156184Y-123466000D01*
X154991772Y-123433297D01*
X154836900Y-123369147D01*
X154697519Y-123276015D01*
X154578985Y-123157481D01*
X154485853Y-123018100D01*
X154421703Y-122863228D01*
X154389000Y-122698816D01*
X154389000Y-122531184D01*
X154421703Y-122366772D01*
X154485853Y-122211900D01*
X154578985Y-122072519D01*
X154697519Y-121953985D01*
X154836900Y-121860853D01*
X154991772Y-121796703D01*
X155156184Y-121764000D01*
X155323816Y-121764000D01*
X155488228Y-121796703D01*
G37*
G36*
X134868228Y-120411703D02*
G01*
X135023100Y-120475853D01*
X135162481Y-120568985D01*
X135281015Y-120687519D01*
X135374147Y-120826900D01*
X135438297Y-120981772D01*
X135471000Y-121146184D01*
X135471000Y-121313816D01*
X135438297Y-121478228D01*
X135374147Y-121633100D01*
X135281015Y-121772481D01*
X135162481Y-121891015D01*
X135023100Y-121984147D01*
X134868228Y-122048297D01*
X134703816Y-122081000D01*
X134536184Y-122081000D01*
X134371772Y-122048297D01*
X134216900Y-121984147D01*
X134077519Y-121891015D01*
X133958985Y-121772481D01*
X133865853Y-121633100D01*
X133801703Y-121478228D01*
X133769000Y-121313816D01*
X133769000Y-121146184D01*
X133801703Y-120981772D01*
X133865853Y-120826900D01*
X133958985Y-120687519D01*
X134077519Y-120568985D01*
X134216900Y-120475853D01*
X134371772Y-120411703D01*
X134536184Y-120379000D01*
X134703816Y-120379000D01*
X134868228Y-120411703D01*
G37*
G36*
X152648228Y-120411703D02*
G01*
X152803100Y-120475853D01*
X152942481Y-120568985D01*
X153061015Y-120687519D01*
X153154147Y-120826900D01*
X153218297Y-120981772D01*
X153251000Y-121146184D01*
X153251000Y-121313816D01*
X153218297Y-121478228D01*
X153154147Y-121633100D01*
X153061015Y-121772481D01*
X152942481Y-121891015D01*
X152803100Y-121984147D01*
X152648228Y-122048297D01*
X152483816Y-122081000D01*
X152316184Y-122081000D01*
X152151772Y-122048297D01*
X151996900Y-121984147D01*
X151857519Y-121891015D01*
X151738985Y-121772481D01*
X151645853Y-121633100D01*
X151581703Y-121478228D01*
X151549000Y-121313816D01*
X151549000Y-121146184D01*
X151581703Y-120981772D01*
X151645853Y-120826900D01*
X151738985Y-120687519D01*
X151857519Y-120568985D01*
X151996900Y-120475853D01*
X152151772Y-120411703D01*
X152316184Y-120379000D01*
X152483816Y-120379000D01*
X152648228Y-120411703D01*
G37*
G36*
X118558254Y-116747818D02*
G01*
X118931511Y-116902426D01*
X118931513Y-116902427D01*
X119267436Y-117126884D01*
X119553116Y-117412564D01*
X119684371Y-117609000D01*
X119777574Y-117748489D01*
X119932182Y-118121746D01*
X120011000Y-118517993D01*
X120011000Y-118922007D01*
X119932182Y-119318254D01*
X119816816Y-119596772D01*
X119777573Y-119691513D01*
X119553116Y-120027436D01*
X119267436Y-120313116D01*
X118931513Y-120537573D01*
X118931512Y-120537574D01*
X118931511Y-120537574D01*
X118558254Y-120692182D01*
X118162007Y-120771000D01*
X117757993Y-120771000D01*
X117361746Y-120692182D01*
X116988489Y-120537574D01*
X116988488Y-120537574D01*
X116988487Y-120537573D01*
X116652564Y-120313116D01*
X116366884Y-120027436D01*
X116142427Y-119691513D01*
X116103184Y-119596772D01*
X115987818Y-119318254D01*
X115909000Y-118922007D01*
X115909000Y-118517993D01*
X115987818Y-118121746D01*
X116142426Y-117748489D01*
X116235630Y-117609000D01*
X116366884Y-117412564D01*
X116652564Y-117126884D01*
X116988487Y-116902427D01*
X116988489Y-116902426D01*
X117361746Y-116747818D01*
X117757993Y-116669000D01*
X118162007Y-116669000D01*
X118558254Y-116747818D01*
G37*
G36*
X137708228Y-119026703D02*
G01*
X137863100Y-119090853D01*
X138002481Y-119183985D01*
X138121015Y-119302519D01*
X138214147Y-119441900D01*
X138278297Y-119596772D01*
X138311000Y-119761184D01*
X138311000Y-119928816D01*
X138278297Y-120093228D01*
X138214147Y-120248100D01*
X138121015Y-120387481D01*
X138002481Y-120506015D01*
X137863100Y-120599147D01*
X137708228Y-120663297D01*
X137543816Y-120696000D01*
X137376184Y-120696000D01*
X137211772Y-120663297D01*
X137056900Y-120599147D01*
X136917519Y-120506015D01*
X136798985Y-120387481D01*
X136705853Y-120248100D01*
X136641703Y-120093228D01*
X136609000Y-119928816D01*
X136609000Y-119761184D01*
X136641703Y-119596772D01*
X136705853Y-119441900D01*
X136798985Y-119302519D01*
X136917519Y-119183985D01*
X137056900Y-119090853D01*
X137211772Y-119026703D01*
X137376184Y-118994000D01*
X137543816Y-118994000D01*
X137708228Y-119026703D01*
G37*
G36*
X155488228Y-119026703D02*
G01*
X155643100Y-119090853D01*
X155782481Y-119183985D01*
X155901015Y-119302519D01*
X155994147Y-119441900D01*
X156058297Y-119596772D01*
X156091000Y-119761184D01*
X156091000Y-119928816D01*
X156058297Y-120093228D01*
X155994147Y-120248100D01*
X155901015Y-120387481D01*
X155782481Y-120506015D01*
X155643100Y-120599147D01*
X155488228Y-120663297D01*
X155323816Y-120696000D01*
X155156184Y-120696000D01*
X154991772Y-120663297D01*
X154836900Y-120599147D01*
X154697519Y-120506015D01*
X154578985Y-120387481D01*
X154485853Y-120248100D01*
X154421703Y-120093228D01*
X154389000Y-119928816D01*
X154389000Y-119761184D01*
X154421703Y-119596772D01*
X154485853Y-119441900D01*
X154578985Y-119302519D01*
X154697519Y-119183985D01*
X154836900Y-119090853D01*
X154991772Y-119026703D01*
X155156184Y-118994000D01*
X155323816Y-118994000D01*
X155488228Y-119026703D01*
G37*
G36*
X134868228Y-117641703D02*
G01*
X135023100Y-117705853D01*
X135162481Y-117798985D01*
X135281015Y-117917519D01*
X135374147Y-118056900D01*
X135438297Y-118211772D01*
X135471000Y-118376184D01*
X135471000Y-118543816D01*
X135438297Y-118708228D01*
X135374147Y-118863100D01*
X135281015Y-119002481D01*
X135162481Y-119121015D01*
X135023100Y-119214147D01*
X134868228Y-119278297D01*
X134703816Y-119311000D01*
X134536184Y-119311000D01*
X134371772Y-119278297D01*
X134216900Y-119214147D01*
X134077519Y-119121015D01*
X133958985Y-119002481D01*
X133865853Y-118863100D01*
X133801703Y-118708228D01*
X133769000Y-118543816D01*
X133769000Y-118376184D01*
X133801703Y-118211772D01*
X133865853Y-118056900D01*
X133958985Y-117917519D01*
X134077519Y-117798985D01*
X134216900Y-117705853D01*
X134371772Y-117641703D01*
X134536184Y-117609000D01*
X134703816Y-117609000D01*
X134868228Y-117641703D01*
G37*
G36*
X152648228Y-117641703D02*
G01*
X152803100Y-117705853D01*
X152942481Y-117798985D01*
X153061015Y-117917519D01*
X153154147Y-118056900D01*
X153218297Y-118211772D01*
X153251000Y-118376184D01*
X153251000Y-118543816D01*
X153218297Y-118708228D01*
X153154147Y-118863100D01*
X153061015Y-119002481D01*
X152942481Y-119121015D01*
X152803100Y-119214147D01*
X152648228Y-119278297D01*
X152483816Y-119311000D01*
X152316184Y-119311000D01*
X152151772Y-119278297D01*
X151996900Y-119214147D01*
X151857519Y-119121015D01*
X151738985Y-119002481D01*
X151645853Y-118863100D01*
X151581703Y-118708228D01*
X151549000Y-118543816D01*
X151549000Y-118376184D01*
X151581703Y-118211772D01*
X151645853Y-118056900D01*
X151738985Y-117917519D01*
X151857519Y-117798985D01*
X151996900Y-117705853D01*
X152151772Y-117641703D01*
X152316184Y-117609000D01*
X152483816Y-117609000D01*
X152648228Y-117641703D01*
G37*
G36*
X154418254Y-109527818D02*
G01*
X154791511Y-109682426D01*
X154791513Y-109682427D01*
X155127436Y-109906884D01*
X155413116Y-110192564D01*
X155591020Y-110458815D01*
X155637574Y-110528489D01*
X155792182Y-110901746D01*
X155871000Y-111297993D01*
X155871000Y-111702007D01*
X155792182Y-112098254D01*
X155637574Y-112471511D01*
X155637573Y-112471513D01*
X155413116Y-112807436D01*
X155127436Y-113093116D01*
X154791513Y-113317573D01*
X154791512Y-113317574D01*
X154791511Y-113317574D01*
X154418254Y-113472182D01*
X154022007Y-113551000D01*
X153617993Y-113551000D01*
X153221746Y-113472182D01*
X152848489Y-113317574D01*
X152848488Y-113317574D01*
X152848487Y-113317573D01*
X152512564Y-113093116D01*
X152226884Y-112807436D01*
X152002427Y-112471513D01*
X152002426Y-112471511D01*
X151847818Y-112098254D01*
X151769000Y-111702007D01*
X151769000Y-111297993D01*
X151847818Y-110901746D01*
X152002426Y-110528489D01*
X152048981Y-110458815D01*
X152226884Y-110192564D01*
X152512564Y-109906884D01*
X152848487Y-109682427D01*
X152848489Y-109682426D01*
X153221746Y-109527818D01*
X153617993Y-109449000D01*
X154022007Y-109449000D01*
X154418254Y-109527818D01*
G37*
G36*
X136638254Y-109527818D02*
G01*
X137011511Y-109682426D01*
X137011513Y-109682427D01*
X137347436Y-109906884D01*
X137633116Y-110192564D01*
X137811020Y-110458815D01*
X137857574Y-110528489D01*
X138012182Y-110901746D01*
X138091000Y-111297993D01*
X138091000Y-111702007D01*
X138012182Y-112098254D01*
X137857574Y-112471511D01*
X137857573Y-112471513D01*
X137633116Y-112807436D01*
X137347436Y-113093116D01*
X137011513Y-113317573D01*
X137011512Y-113317574D01*
X137011511Y-113317574D01*
X136638254Y-113472182D01*
X136242007Y-113551000D01*
X135837993Y-113551000D01*
X135441746Y-113472182D01*
X135068489Y-113317574D01*
X135068488Y-113317574D01*
X135068487Y-113317573D01*
X134732564Y-113093116D01*
X134446884Y-112807436D01*
X134222427Y-112471513D01*
X134222426Y-112471511D01*
X134067818Y-112098254D01*
X133989000Y-111702007D01*
X133989000Y-111297993D01*
X134067818Y-110901746D01*
X134222426Y-110528489D01*
X134268981Y-110458815D01*
X134446884Y-110192564D01*
X134732564Y-109906884D01*
X135068487Y-109682427D01*
X135068489Y-109682426D01*
X135441746Y-109527818D01*
X135837993Y-109449000D01*
X136242007Y-109449000D01*
X136638254Y-109527818D01*
G37*
G36*
X120231000Y-112611000D02*
G01*
X118529000Y-112611000D01*
X118529000Y-110909000D01*
X120231000Y-110909000D01*
X120231000Y-112611000D01*
G37*
G36*
X116788228Y-109556703D02*
G01*
X116943100Y-109620853D01*
X117082481Y-109713985D01*
X117201015Y-109832519D01*
X117294147Y-109971900D01*
X117358297Y-110126772D01*
X117391000Y-110291184D01*
X117391000Y-110458816D01*
X117358297Y-110623228D01*
X117294147Y-110778100D01*
X117201015Y-110917481D01*
X117082481Y-111036015D01*
X116943100Y-111129147D01*
X116788228Y-111193297D01*
X116623816Y-111226000D01*
X116456184Y-111226000D01*
X116291772Y-111193297D01*
X116136900Y-111129147D01*
X115997519Y-111036015D01*
X115878985Y-110917481D01*
X115785853Y-110778100D01*
X115721703Y-110623228D01*
X115689000Y-110458816D01*
X115689000Y-110291184D01*
X115721703Y-110126772D01*
X115785853Y-109971900D01*
X115878985Y-109832519D01*
X115997519Y-109713985D01*
X116136900Y-109620853D01*
X116291772Y-109556703D01*
X116456184Y-109524000D01*
X116623816Y-109524000D01*
X116788228Y-109556703D01*
G37*
G36*
X119628228Y-108171703D02*
G01*
X119783100Y-108235853D01*
X119922481Y-108328985D01*
X120041015Y-108447519D01*
X120134147Y-108586900D01*
X120198297Y-108741772D01*
X120231000Y-108906184D01*
X120231000Y-109073816D01*
X120198297Y-109238228D01*
X120134147Y-109393100D01*
X120041015Y-109532481D01*
X119922481Y-109651015D01*
X119783100Y-109744147D01*
X119628228Y-109808297D01*
X119463816Y-109841000D01*
X119296184Y-109841000D01*
X119131772Y-109808297D01*
X118976900Y-109744147D01*
X118837519Y-109651015D01*
X118718985Y-109532481D01*
X118625853Y-109393100D01*
X118561703Y-109238228D01*
X118529000Y-109073816D01*
X118529000Y-108906184D01*
X118561703Y-108741772D01*
X118625853Y-108586900D01*
X118718985Y-108447519D01*
X118837519Y-108328985D01*
X118976900Y-108235853D01*
X119131772Y-108171703D01*
X119296184Y-108139000D01*
X119463816Y-108139000D01*
X119628228Y-108171703D01*
G37*
G36*
X116788228Y-106786703D02*
G01*
X116943100Y-106850853D01*
X117082481Y-106943985D01*
X117201015Y-107062519D01*
X117294147Y-107201900D01*
X117358297Y-107356772D01*
X117391000Y-107521184D01*
X117391000Y-107688816D01*
X117358297Y-107853228D01*
X117294147Y-108008100D01*
X117201015Y-108147481D01*
X117082481Y-108266015D01*
X116943100Y-108359147D01*
X116788228Y-108423297D01*
X116623816Y-108456000D01*
X116456184Y-108456000D01*
X116291772Y-108423297D01*
X116136900Y-108359147D01*
X115997519Y-108266015D01*
X115878985Y-108147481D01*
X115785853Y-108008100D01*
X115721703Y-107853228D01*
X115689000Y-107688816D01*
X115689000Y-107521184D01*
X115721703Y-107356772D01*
X115785853Y-107201900D01*
X115878985Y-107062519D01*
X115997519Y-106943985D01*
X116136900Y-106850853D01*
X116291772Y-106786703D01*
X116456184Y-106754000D01*
X116623816Y-106754000D01*
X116788228Y-106786703D01*
G37*
G36*
X119628228Y-105401703D02*
G01*
X119783100Y-105465853D01*
X119922481Y-105558985D01*
X120041015Y-105677519D01*
X120134147Y-105816900D01*
X120198297Y-105971772D01*
X120231000Y-106136184D01*
X120231000Y-106303816D01*
X120198297Y-106468228D01*
X120134147Y-106623100D01*
X120041015Y-106762481D01*
X119922481Y-106881015D01*
X119783100Y-106974147D01*
X119628228Y-107038297D01*
X119463816Y-107071000D01*
X119296184Y-107071000D01*
X119131772Y-107038297D01*
X118976900Y-106974147D01*
X118837519Y-106881015D01*
X118718985Y-106762481D01*
X118625853Y-106623100D01*
X118561703Y-106468228D01*
X118529000Y-106303816D01*
X118529000Y-106136184D01*
X118561703Y-105971772D01*
X118625853Y-105816900D01*
X118718985Y-105677519D01*
X118837519Y-105558985D01*
X118976900Y-105465853D01*
X119131772Y-105401703D01*
X119296184Y-105369000D01*
X119463816Y-105369000D01*
X119628228Y-105401703D01*
G37*
G36*
X116788228Y-104016703D02*
G01*
X116943100Y-104080853D01*
X117082481Y-104173985D01*
X117201015Y-104292519D01*
X117294147Y-104431900D01*
X117358297Y-104586772D01*
X117391000Y-104751184D01*
X117391000Y-104918816D01*
X117358297Y-105083228D01*
X117294147Y-105238100D01*
X117201015Y-105377481D01*
X117082481Y-105496015D01*
X116943100Y-105589147D01*
X116788228Y-105653297D01*
X116623816Y-105686000D01*
X116456184Y-105686000D01*
X116291772Y-105653297D01*
X116136900Y-105589147D01*
X115997519Y-105496015D01*
X115878985Y-105377481D01*
X115785853Y-105238100D01*
X115721703Y-105083228D01*
X115689000Y-104918816D01*
X115689000Y-104751184D01*
X115721703Y-104586772D01*
X115785853Y-104431900D01*
X115878985Y-104292519D01*
X115997519Y-104173985D01*
X116136900Y-104080853D01*
X116291772Y-104016703D01*
X116456184Y-103984000D01*
X116623816Y-103984000D01*
X116788228Y-104016703D01*
G37*
G36*
X119628228Y-102631703D02*
G01*
X119783100Y-102695853D01*
X119922481Y-102788985D01*
X120041015Y-102907519D01*
X120134147Y-103046900D01*
X120198297Y-103201772D01*
X120231000Y-103366184D01*
X120231000Y-103533816D01*
X120198297Y-103698228D01*
X120134147Y-103853100D01*
X120041015Y-103992481D01*
X119922481Y-104111015D01*
X119783100Y-104204147D01*
X119628228Y-104268297D01*
X119463816Y-104301000D01*
X119296184Y-104301000D01*
X119131772Y-104268297D01*
X118976900Y-104204147D01*
X118837519Y-104111015D01*
X118718985Y-103992481D01*
X118625853Y-103853100D01*
X118561703Y-103698228D01*
X118529000Y-103533816D01*
X118529000Y-103366184D01*
X118561703Y-103201772D01*
X118625853Y-103046900D01*
X118718985Y-102907519D01*
X118837519Y-102788985D01*
X118976900Y-102695853D01*
X119131772Y-102631703D01*
X119296184Y-102599000D01*
X119463816Y-102599000D01*
X119628228Y-102631703D01*
G37*
G36*
X136638254Y-98967818D02*
G01*
X137011511Y-99122426D01*
X137011513Y-99122427D01*
X137347436Y-99346884D01*
X137633116Y-99632564D01*
X137764371Y-99829000D01*
X137857574Y-99968489D01*
X138012182Y-100341746D01*
X138091000Y-100737993D01*
X138091000Y-101142007D01*
X138012182Y-101538254D01*
X137896816Y-101816772D01*
X137857573Y-101911513D01*
X137633116Y-102247436D01*
X137347436Y-102533116D01*
X137011513Y-102757573D01*
X137011512Y-102757574D01*
X137011511Y-102757574D01*
X136638254Y-102912182D01*
X136242007Y-102991000D01*
X135837993Y-102991000D01*
X135441746Y-102912182D01*
X135068489Y-102757574D01*
X135068488Y-102757574D01*
X135068487Y-102757573D01*
X134732564Y-102533116D01*
X134446884Y-102247436D01*
X134222427Y-101911513D01*
X134183184Y-101816772D01*
X134067818Y-101538254D01*
X133989000Y-101142007D01*
X133989000Y-100737993D01*
X134067818Y-100341746D01*
X134222426Y-99968489D01*
X134315630Y-99829000D01*
X134446884Y-99632564D01*
X134732564Y-99346884D01*
X135068487Y-99122427D01*
X135068489Y-99122426D01*
X135441746Y-98967818D01*
X135837993Y-98889000D01*
X136242007Y-98889000D01*
X136638254Y-98967818D01*
G37*
G36*
X154418254Y-98967818D02*
G01*
X154791511Y-99122426D01*
X154791513Y-99122427D01*
X155127436Y-99346884D01*
X155413116Y-99632564D01*
X155544371Y-99829000D01*
X155637574Y-99968489D01*
X155792182Y-100341746D01*
X155871000Y-100737993D01*
X155871000Y-101142007D01*
X155792182Y-101538254D01*
X155676816Y-101816772D01*
X155637573Y-101911513D01*
X155413116Y-102247436D01*
X155127436Y-102533116D01*
X154791513Y-102757573D01*
X154791512Y-102757574D01*
X154791511Y-102757574D01*
X154418254Y-102912182D01*
X154022007Y-102991000D01*
X153617993Y-102991000D01*
X153221746Y-102912182D01*
X152848489Y-102757574D01*
X152848488Y-102757574D01*
X152848487Y-102757573D01*
X152512564Y-102533116D01*
X152226884Y-102247436D01*
X152002427Y-101911513D01*
X151963184Y-101816772D01*
X151847818Y-101538254D01*
X151769000Y-101142007D01*
X151769000Y-100737993D01*
X151847818Y-100341746D01*
X152002426Y-99968489D01*
X152095630Y-99829000D01*
X152226884Y-99632564D01*
X152512564Y-99346884D01*
X152848487Y-99122427D01*
X152848489Y-99122426D01*
X153221746Y-98967818D01*
X153617993Y-98889000D01*
X154022007Y-98889000D01*
X154418254Y-98967818D01*
G37*
G36*
X116788228Y-101246703D02*
G01*
X116943100Y-101310853D01*
X117082481Y-101403985D01*
X117201015Y-101522519D01*
X117294147Y-101661900D01*
X117358297Y-101816772D01*
X117391000Y-101981184D01*
X117391000Y-102148816D01*
X117358297Y-102313228D01*
X117294147Y-102468100D01*
X117201015Y-102607481D01*
X117082481Y-102726015D01*
X116943100Y-102819147D01*
X116788228Y-102883297D01*
X116623816Y-102916000D01*
X116456184Y-102916000D01*
X116291772Y-102883297D01*
X116136900Y-102819147D01*
X115997519Y-102726015D01*
X115878985Y-102607481D01*
X115785853Y-102468100D01*
X115721703Y-102313228D01*
X115689000Y-102148816D01*
X115689000Y-101981184D01*
X115721703Y-101816772D01*
X115785853Y-101661900D01*
X115878985Y-101522519D01*
X115997519Y-101403985D01*
X116136900Y-101310853D01*
X116291772Y-101246703D01*
X116456184Y-101214000D01*
X116623816Y-101214000D01*
X116788228Y-101246703D01*
G37*
G36*
X119628228Y-99861703D02*
G01*
X119783100Y-99925853D01*
X119922481Y-100018985D01*
X120041015Y-100137519D01*
X120134147Y-100276900D01*
X120198297Y-100431772D01*
X120231000Y-100596184D01*
X120231000Y-100763816D01*
X120198297Y-100928228D01*
X120134147Y-101083100D01*
X120041015Y-101222481D01*
X119922481Y-101341015D01*
X119783100Y-101434147D01*
X119628228Y-101498297D01*
X119463816Y-101531000D01*
X119296184Y-101531000D01*
X119131772Y-101498297D01*
X118976900Y-101434147D01*
X118837519Y-101341015D01*
X118718985Y-101222481D01*
X118625853Y-101083100D01*
X118561703Y-100928228D01*
X118529000Y-100763816D01*
X118529000Y-100596184D01*
X118561703Y-100431772D01*
X118625853Y-100276900D01*
X118718985Y-100137519D01*
X118837519Y-100018985D01*
X118976900Y-99925853D01*
X119131772Y-99861703D01*
X119296184Y-99829000D01*
X119463816Y-99829000D01*
X119628228Y-99861703D01*
G37*
G36*
X118558254Y-91747818D02*
G01*
X118931511Y-91902426D01*
X118931513Y-91902427D01*
X119267436Y-92126884D01*
X119553116Y-92412564D01*
X119731020Y-92678815D01*
X119777574Y-92748489D01*
X119932182Y-93121746D01*
X120011000Y-93517993D01*
X120011000Y-93922007D01*
X119932182Y-94318254D01*
X119777574Y-94691511D01*
X119777573Y-94691513D01*
X119553116Y-95027436D01*
X119267436Y-95313116D01*
X118931513Y-95537573D01*
X118931512Y-95537574D01*
X118931511Y-95537574D01*
X118558254Y-95692182D01*
X118162007Y-95771000D01*
X117757993Y-95771000D01*
X117361746Y-95692182D01*
X116988489Y-95537574D01*
X116988488Y-95537574D01*
X116988487Y-95537573D01*
X116652564Y-95313116D01*
X116366884Y-95027436D01*
X116142427Y-94691513D01*
X116142426Y-94691511D01*
X115987818Y-94318254D01*
X115909000Y-93922007D01*
X115909000Y-93517993D01*
X115987818Y-93121746D01*
X116142426Y-92748489D01*
X116188981Y-92678815D01*
X116366884Y-92412564D01*
X116652564Y-92126884D01*
X116988487Y-91902427D01*
X116988489Y-91902426D01*
X117361746Y-91747818D01*
X117757993Y-91669000D01*
X118162007Y-91669000D01*
X118558254Y-91747818D01*
G37*
G36*
X153251000Y-94831000D02*
G01*
X151549000Y-94831000D01*
X151549000Y-93129000D01*
X153251000Y-93129000D01*
X153251000Y-94831000D01*
G37*
G36*
X135471000Y-94831000D02*
G01*
X133769000Y-94831000D01*
X133769000Y-93129000D01*
X135471000Y-93129000D01*
X135471000Y-94831000D01*
G37*
G36*
X155488228Y-91776703D02*
G01*
X155643100Y-91840853D01*
X155782481Y-91933985D01*
X155901015Y-92052519D01*
X155994147Y-92191900D01*
X156058297Y-92346772D01*
X156091000Y-92511184D01*
X156091000Y-92678816D01*
X156058297Y-92843228D01*
X155994147Y-92998100D01*
X155901015Y-93137481D01*
X155782481Y-93256015D01*
X155643100Y-93349147D01*
X155488228Y-93413297D01*
X155323816Y-93446000D01*
X155156184Y-93446000D01*
X154991772Y-93413297D01*
X154836900Y-93349147D01*
X154697519Y-93256015D01*
X154578985Y-93137481D01*
X154485853Y-92998100D01*
X154421703Y-92843228D01*
X154389000Y-92678816D01*
X154389000Y-92511184D01*
X154421703Y-92346772D01*
X154485853Y-92191900D01*
X154578985Y-92052519D01*
X154697519Y-91933985D01*
X154836900Y-91840853D01*
X154991772Y-91776703D01*
X155156184Y-91744000D01*
X155323816Y-91744000D01*
X155488228Y-91776703D01*
G37*
G36*
X137708228Y-91776703D02*
G01*
X137863100Y-91840853D01*
X138002481Y-91933985D01*
X138121015Y-92052519D01*
X138214147Y-92191900D01*
X138278297Y-92346772D01*
X138311000Y-92511184D01*
X138311000Y-92678816D01*
X138278297Y-92843228D01*
X138214147Y-92998100D01*
X138121015Y-93137481D01*
X138002481Y-93256015D01*
X137863100Y-93349147D01*
X137708228Y-93413297D01*
X137543816Y-93446000D01*
X137376184Y-93446000D01*
X137211772Y-93413297D01*
X137056900Y-93349147D01*
X136917519Y-93256015D01*
X136798985Y-93137481D01*
X136705853Y-92998100D01*
X136641703Y-92843228D01*
X136609000Y-92678816D01*
X136609000Y-92511184D01*
X136641703Y-92346772D01*
X136705853Y-92191900D01*
X136798985Y-92052519D01*
X136917519Y-91933985D01*
X137056900Y-91840853D01*
X137211772Y-91776703D01*
X137376184Y-91744000D01*
X137543816Y-91744000D01*
X137708228Y-91776703D01*
G37*
G36*
X152648228Y-90391703D02*
G01*
X152803100Y-90455853D01*
X152942481Y-90548985D01*
X153061015Y-90667519D01*
X153154147Y-90806900D01*
X153218297Y-90961772D01*
X153251000Y-91126184D01*
X153251000Y-91293816D01*
X153218297Y-91458228D01*
X153154147Y-91613100D01*
X153061015Y-91752481D01*
X152942481Y-91871015D01*
X152803100Y-91964147D01*
X152648228Y-92028297D01*
X152483816Y-92061000D01*
X152316184Y-92061000D01*
X152151772Y-92028297D01*
X151996900Y-91964147D01*
X151857519Y-91871015D01*
X151738985Y-91752481D01*
X151645853Y-91613100D01*
X151581703Y-91458228D01*
X151549000Y-91293816D01*
X151549000Y-91126184D01*
X151581703Y-90961772D01*
X151645853Y-90806900D01*
X151738985Y-90667519D01*
X151857519Y-90548985D01*
X151996900Y-90455853D01*
X152151772Y-90391703D01*
X152316184Y-90359000D01*
X152483816Y-90359000D01*
X152648228Y-90391703D01*
G37*
G36*
X134868228Y-90391703D02*
G01*
X135023100Y-90455853D01*
X135162481Y-90548985D01*
X135281015Y-90667519D01*
X135374147Y-90806900D01*
X135438297Y-90961772D01*
X135471000Y-91126184D01*
X135471000Y-91293816D01*
X135438297Y-91458228D01*
X135374147Y-91613100D01*
X135281015Y-91752481D01*
X135162481Y-91871015D01*
X135023100Y-91964147D01*
X134868228Y-92028297D01*
X134703816Y-92061000D01*
X134536184Y-92061000D01*
X134371772Y-92028297D01*
X134216900Y-91964147D01*
X134077519Y-91871015D01*
X133958985Y-91752481D01*
X133865853Y-91613100D01*
X133801703Y-91458228D01*
X133769000Y-91293816D01*
X133769000Y-91126184D01*
X133801703Y-90961772D01*
X133865853Y-90806900D01*
X133958985Y-90667519D01*
X134077519Y-90548985D01*
X134216900Y-90455853D01*
X134371772Y-90391703D01*
X134536184Y-90359000D01*
X134703816Y-90359000D01*
X134868228Y-90391703D01*
G37*
G36*
X137708228Y-89006703D02*
G01*
X137863100Y-89070853D01*
X138002481Y-89163985D01*
X138121015Y-89282519D01*
X138214147Y-89421900D01*
X138278297Y-89576772D01*
X138311000Y-89741184D01*
X138311000Y-89908816D01*
X138278297Y-90073228D01*
X138214147Y-90228100D01*
X138121015Y-90367481D01*
X138002481Y-90486015D01*
X137863100Y-90579147D01*
X137708228Y-90643297D01*
X137543816Y-90676000D01*
X137376184Y-90676000D01*
X137211772Y-90643297D01*
X137056900Y-90579147D01*
X136917519Y-90486015D01*
X136798985Y-90367481D01*
X136705853Y-90228100D01*
X136641703Y-90073228D01*
X136609000Y-89908816D01*
X136609000Y-89741184D01*
X136641703Y-89576772D01*
X136705853Y-89421900D01*
X136798985Y-89282519D01*
X136917519Y-89163985D01*
X137056900Y-89070853D01*
X137211772Y-89006703D01*
X137376184Y-88974000D01*
X137543816Y-88974000D01*
X137708228Y-89006703D01*
G37*
G36*
X155488228Y-89006703D02*
G01*
X155643100Y-89070853D01*
X155782481Y-89163985D01*
X155901015Y-89282519D01*
X155994147Y-89421900D01*
X156058297Y-89576772D01*
X156091000Y-89741184D01*
X156091000Y-89908816D01*
X156058297Y-90073228D01*
X155994147Y-90228100D01*
X155901015Y-90367481D01*
X155782481Y-90486015D01*
X155643100Y-90579147D01*
X155488228Y-90643297D01*
X155323816Y-90676000D01*
X155156184Y-90676000D01*
X154991772Y-90643297D01*
X154836900Y-90579147D01*
X154697519Y-90486015D01*
X154578985Y-90367481D01*
X154485853Y-90228100D01*
X154421703Y-90073228D01*
X154389000Y-89908816D01*
X154389000Y-89741184D01*
X154421703Y-89576772D01*
X154485853Y-89421900D01*
X154578985Y-89282519D01*
X154697519Y-89163985D01*
X154836900Y-89070853D01*
X154991772Y-89006703D01*
X155156184Y-88974000D01*
X155323816Y-88974000D01*
X155488228Y-89006703D01*
G37*
G36*
X152648228Y-87621703D02*
G01*
X152803100Y-87685853D01*
X152942481Y-87778985D01*
X153061015Y-87897519D01*
X153154147Y-88036900D01*
X153218297Y-88191772D01*
X153251000Y-88356184D01*
X153251000Y-88523816D01*
X153218297Y-88688228D01*
X153154147Y-88843100D01*
X153061015Y-88982481D01*
X152942481Y-89101015D01*
X152803100Y-89194147D01*
X152648228Y-89258297D01*
X152483816Y-89291000D01*
X152316184Y-89291000D01*
X152151772Y-89258297D01*
X151996900Y-89194147D01*
X151857519Y-89101015D01*
X151738985Y-88982481D01*
X151645853Y-88843100D01*
X151581703Y-88688228D01*
X151549000Y-88523816D01*
X151549000Y-88356184D01*
X151581703Y-88191772D01*
X151645853Y-88036900D01*
X151738985Y-87897519D01*
X151857519Y-87778985D01*
X151996900Y-87685853D01*
X152151772Y-87621703D01*
X152316184Y-87589000D01*
X152483816Y-87589000D01*
X152648228Y-87621703D01*
G37*
G36*
X134868228Y-87621703D02*
G01*
X135023100Y-87685853D01*
X135162481Y-87778985D01*
X135281015Y-87897519D01*
X135374147Y-88036900D01*
X135438297Y-88191772D01*
X135471000Y-88356184D01*
X135471000Y-88523816D01*
X135438297Y-88688228D01*
X135374147Y-88843100D01*
X135281015Y-88982481D01*
X135162481Y-89101015D01*
X135023100Y-89194147D01*
X134868228Y-89258297D01*
X134703816Y-89291000D01*
X134536184Y-89291000D01*
X134371772Y-89258297D01*
X134216900Y-89194147D01*
X134077519Y-89101015D01*
X133958985Y-88982481D01*
X133865853Y-88843100D01*
X133801703Y-88688228D01*
X133769000Y-88523816D01*
X133769000Y-88356184D01*
X133801703Y-88191772D01*
X133865853Y-88036900D01*
X133958985Y-87897519D01*
X134077519Y-87778985D01*
X134216900Y-87685853D01*
X134371772Y-87621703D01*
X134536184Y-87589000D01*
X134703816Y-87589000D01*
X134868228Y-87621703D01*
G37*
G36*
X155488228Y-86236703D02*
G01*
X155643100Y-86300853D01*
X155782481Y-86393985D01*
X155901015Y-86512519D01*
X155994147Y-86651900D01*
X156058297Y-86806772D01*
X156091000Y-86971184D01*
X156091000Y-87138816D01*
X156058297Y-87303228D01*
X155994147Y-87458100D01*
X155901015Y-87597481D01*
X155782481Y-87716015D01*
X155643100Y-87809147D01*
X155488228Y-87873297D01*
X155323816Y-87906000D01*
X155156184Y-87906000D01*
X154991772Y-87873297D01*
X154836900Y-87809147D01*
X154697519Y-87716015D01*
X154578985Y-87597481D01*
X154485853Y-87458100D01*
X154421703Y-87303228D01*
X154389000Y-87138816D01*
X154389000Y-86971184D01*
X154421703Y-86806772D01*
X154485853Y-86651900D01*
X154578985Y-86512519D01*
X154697519Y-86393985D01*
X154836900Y-86300853D01*
X154991772Y-86236703D01*
X155156184Y-86204000D01*
X155323816Y-86204000D01*
X155488228Y-86236703D01*
G37*
G36*
X137708228Y-86236703D02*
G01*
X137863100Y-86300853D01*
X138002481Y-86393985D01*
X138121015Y-86512519D01*
X138214147Y-86651900D01*
X138278297Y-86806772D01*
X138311000Y-86971184D01*
X138311000Y-87138816D01*
X138278297Y-87303228D01*
X138214147Y-87458100D01*
X138121015Y-87597481D01*
X138002481Y-87716015D01*
X137863100Y-87809147D01*
X137708228Y-87873297D01*
X137543816Y-87906000D01*
X137376184Y-87906000D01*
X137211772Y-87873297D01*
X137056900Y-87809147D01*
X136917519Y-87716015D01*
X136798985Y-87597481D01*
X136705853Y-87458100D01*
X136641703Y-87303228D01*
X136609000Y-87138816D01*
X136609000Y-86971184D01*
X136641703Y-86806772D01*
X136705853Y-86651900D01*
X136798985Y-86512519D01*
X136917519Y-86393985D01*
X137056900Y-86300853D01*
X137211772Y-86236703D01*
X137376184Y-86204000D01*
X137543816Y-86204000D01*
X137708228Y-86236703D01*
G37*
G36*
X152648228Y-84851703D02*
G01*
X152803100Y-84915853D01*
X152942481Y-85008985D01*
X153061015Y-85127519D01*
X153154147Y-85266900D01*
X153218297Y-85421772D01*
X153251000Y-85586184D01*
X153251000Y-85753816D01*
X153218297Y-85918228D01*
X153154147Y-86073100D01*
X153061015Y-86212481D01*
X152942481Y-86331015D01*
X152803100Y-86424147D01*
X152648228Y-86488297D01*
X152483816Y-86521000D01*
X152316184Y-86521000D01*
X152151772Y-86488297D01*
X151996900Y-86424147D01*
X151857519Y-86331015D01*
X151738985Y-86212481D01*
X151645853Y-86073100D01*
X151581703Y-85918228D01*
X151549000Y-85753816D01*
X151549000Y-85586184D01*
X151581703Y-85421772D01*
X151645853Y-85266900D01*
X151738985Y-85127519D01*
X151857519Y-85008985D01*
X151996900Y-84915853D01*
X152151772Y-84851703D01*
X152316184Y-84819000D01*
X152483816Y-84819000D01*
X152648228Y-84851703D01*
G37*
G36*
X134868228Y-84851703D02*
G01*
X135023100Y-84915853D01*
X135162481Y-85008985D01*
X135281015Y-85127519D01*
X135374147Y-85266900D01*
X135438297Y-85421772D01*
X135471000Y-85586184D01*
X135471000Y-85753816D01*
X135438297Y-85918228D01*
X135374147Y-86073100D01*
X135281015Y-86212481D01*
X135162481Y-86331015D01*
X135023100Y-86424147D01*
X134868228Y-86488297D01*
X134703816Y-86521000D01*
X134536184Y-86521000D01*
X134371772Y-86488297D01*
X134216900Y-86424147D01*
X134077519Y-86331015D01*
X133958985Y-86212481D01*
X133865853Y-86073100D01*
X133801703Y-85918228D01*
X133769000Y-85753816D01*
X133769000Y-85586184D01*
X133801703Y-85421772D01*
X133865853Y-85266900D01*
X133958985Y-85127519D01*
X134077519Y-85008985D01*
X134216900Y-84915853D01*
X134371772Y-84851703D01*
X134536184Y-84819000D01*
X134703816Y-84819000D01*
X134868228Y-84851703D01*
G37*
G36*
X168967477Y-76903892D02*
G01*
X169310541Y-77045994D01*
X169795707Y-77246956D01*
X170541093Y-77745008D01*
X171174992Y-78378907D01*
X171673044Y-79124293D01*
X171874006Y-79609459D01*
X172016108Y-79952523D01*
X172191000Y-80831764D01*
X172191000Y-81728236D01*
X172016108Y-82607477D01*
X171929658Y-82816185D01*
X171673044Y-83435707D01*
X171174992Y-84181093D01*
X170541093Y-84814992D01*
X169795707Y-85313044D01*
X169310541Y-85514006D01*
X168967477Y-85656108D01*
X168088236Y-85831000D01*
X167191764Y-85831000D01*
X166312523Y-85656108D01*
X165969459Y-85514006D01*
X165484293Y-85313044D01*
X164738907Y-84814992D01*
X164105008Y-84181093D01*
X163606956Y-83435707D01*
X163350342Y-82816185D01*
X163263892Y-82607477D01*
X163089000Y-81728236D01*
X163089000Y-80831764D01*
X163263892Y-79952523D01*
X163405994Y-79609459D01*
X163606956Y-79124293D01*
X164105008Y-78378907D01*
X164738907Y-77745008D01*
X165484293Y-77246956D01*
X165969459Y-77045994D01*
X166312523Y-76903892D01*
X167191764Y-76729000D01*
X168088236Y-76729000D01*
X168967477Y-76903892D01*
G37*
G36*
X115627477Y-76903892D02*
G01*
X115970541Y-77045994D01*
X116455707Y-77246956D01*
X117201093Y-77745008D01*
X117834992Y-78378907D01*
X118333044Y-79124293D01*
X118534006Y-79609459D01*
X118676108Y-79952523D01*
X118851000Y-80831764D01*
X118851000Y-81728236D01*
X118676108Y-82607477D01*
X118589658Y-82816185D01*
X118333044Y-83435707D01*
X117834992Y-84181093D01*
X117201093Y-84814992D01*
X116455707Y-85313044D01*
X115970541Y-85514006D01*
X115627477Y-85656108D01*
X114748236Y-85831000D01*
X113851764Y-85831000D01*
X112972523Y-85656108D01*
X112629459Y-85514006D01*
X112144293Y-85313044D01*
X111398907Y-84814992D01*
X110765008Y-84181093D01*
X110266956Y-83435707D01*
X110010342Y-82816185D01*
X109923892Y-82607477D01*
X109749000Y-81728236D01*
X109749000Y-80831764D01*
X109923892Y-79952523D01*
X110065994Y-79609459D01*
X110266956Y-79124293D01*
X110765008Y-78378907D01*
X111398907Y-77745008D01*
X112144293Y-77246956D01*
X112629459Y-77045994D01*
X112972523Y-76903892D01*
X113851764Y-76729000D01*
X114748236Y-76729000D01*
X115627477Y-76903892D01*
G37*
G36*
X155488228Y-83466703D02*
G01*
X155643100Y-83530853D01*
X155782481Y-83623985D01*
X155901015Y-83742519D01*
X155994147Y-83881900D01*
X156058297Y-84036772D01*
X156091000Y-84201184D01*
X156091000Y-84368816D01*
X156058297Y-84533228D01*
X155994147Y-84688100D01*
X155901015Y-84827481D01*
X155782481Y-84946015D01*
X155643100Y-85039147D01*
X155488228Y-85103297D01*
X155323816Y-85136000D01*
X155156184Y-85136000D01*
X154991772Y-85103297D01*
X154836900Y-85039147D01*
X154697519Y-84946015D01*
X154578985Y-84827481D01*
X154485853Y-84688100D01*
X154421703Y-84533228D01*
X154389000Y-84368816D01*
X154389000Y-84201184D01*
X154421703Y-84036772D01*
X154485853Y-83881900D01*
X154578985Y-83742519D01*
X154697519Y-83623985D01*
X154836900Y-83530853D01*
X154991772Y-83466703D01*
X155156184Y-83434000D01*
X155323816Y-83434000D01*
X155488228Y-83466703D01*
G37*
G36*
X137708228Y-83466703D02*
G01*
X137863100Y-83530853D01*
X138002481Y-83623985D01*
X138121015Y-83742519D01*
X138214147Y-83881900D01*
X138278297Y-84036772D01*
X138311000Y-84201184D01*
X138311000Y-84368816D01*
X138278297Y-84533228D01*
X138214147Y-84688100D01*
X138121015Y-84827481D01*
X138002481Y-84946015D01*
X137863100Y-85039147D01*
X137708228Y-85103297D01*
X137543816Y-85136000D01*
X137376184Y-85136000D01*
X137211772Y-85103297D01*
X137056900Y-85039147D01*
X136917519Y-84946015D01*
X136798985Y-84827481D01*
X136705853Y-84688100D01*
X136641703Y-84533228D01*
X136609000Y-84368816D01*
X136609000Y-84201184D01*
X136641703Y-84036772D01*
X136705853Y-83881900D01*
X136798985Y-83742519D01*
X136917519Y-83623985D01*
X137056900Y-83530853D01*
X137211772Y-83466703D01*
X137376184Y-83434000D01*
X137543816Y-83434000D01*
X137708228Y-83466703D01*
G37*
G36*
X152648228Y-82081703D02*
G01*
X152803100Y-82145853D01*
X152942481Y-82238985D01*
X153061015Y-82357519D01*
X153154147Y-82496900D01*
X153218297Y-82651772D01*
X153251000Y-82816184D01*
X153251000Y-82983816D01*
X153218297Y-83148228D01*
X153154147Y-83303100D01*
X153061015Y-83442481D01*
X152942481Y-83561015D01*
X152803100Y-83654147D01*
X152648228Y-83718297D01*
X152483816Y-83751000D01*
X152316184Y-83751000D01*
X152151772Y-83718297D01*
X151996900Y-83654147D01*
X151857519Y-83561015D01*
X151738985Y-83442481D01*
X151645853Y-83303100D01*
X151581703Y-83148228D01*
X151549000Y-82983816D01*
X151549000Y-82816184D01*
X151581703Y-82651772D01*
X151645853Y-82496900D01*
X151738985Y-82357519D01*
X151857519Y-82238985D01*
X151996900Y-82145853D01*
X152151772Y-82081703D01*
X152316184Y-82049000D01*
X152483816Y-82049000D01*
X152648228Y-82081703D01*
G37*
G36*
X134868228Y-82081703D02*
G01*
X135023100Y-82145853D01*
X135162481Y-82238985D01*
X135281015Y-82357519D01*
X135374147Y-82496900D01*
X135438297Y-82651772D01*
X135471000Y-82816184D01*
X135471000Y-82983816D01*
X135438297Y-83148228D01*
X135374147Y-83303100D01*
X135281015Y-83442481D01*
X135162481Y-83561015D01*
X135023100Y-83654147D01*
X134868228Y-83718297D01*
X134703816Y-83751000D01*
X134536184Y-83751000D01*
X134371772Y-83718297D01*
X134216900Y-83654147D01*
X134077519Y-83561015D01*
X133958985Y-83442481D01*
X133865853Y-83303100D01*
X133801703Y-83148228D01*
X133769000Y-82983816D01*
X133769000Y-82816184D01*
X133801703Y-82651772D01*
X133865853Y-82496900D01*
X133958985Y-82357519D01*
X134077519Y-82238985D01*
X134216900Y-82145853D01*
X134371772Y-82081703D01*
X134536184Y-82049000D01*
X134703816Y-82049000D01*
X134868228Y-82081703D01*
G37*
G36*
X154418254Y-73967818D02*
G01*
X154791511Y-74122426D01*
X154791513Y-74122427D01*
X155127436Y-74346884D01*
X155413116Y-74632564D01*
X155637574Y-74968489D01*
X155792182Y-75341746D01*
X155871000Y-75737993D01*
X155871000Y-76142007D01*
X155792182Y-76538254D01*
X155713172Y-76729000D01*
X155637573Y-76911513D01*
X155413116Y-77247436D01*
X155127436Y-77533116D01*
X154791513Y-77757573D01*
X154791512Y-77757574D01*
X154791511Y-77757574D01*
X154418254Y-77912182D01*
X154022007Y-77991000D01*
X153617993Y-77991000D01*
X153221746Y-77912182D01*
X152848489Y-77757574D01*
X152848488Y-77757574D01*
X152848487Y-77757573D01*
X152512564Y-77533116D01*
X152226884Y-77247436D01*
X152002427Y-76911513D01*
X151926828Y-76729000D01*
X151847818Y-76538254D01*
X151769000Y-76142007D01*
X151769000Y-75737993D01*
X151847818Y-75341746D01*
X152002426Y-74968489D01*
X152226884Y-74632564D01*
X152512564Y-74346884D01*
X152848487Y-74122427D01*
X152848489Y-74122426D01*
X153221746Y-73967818D01*
X153617993Y-73889000D01*
X154022007Y-73889000D01*
X154418254Y-73967818D01*
G37*
G36*
X136638254Y-73967818D02*
G01*
X137011511Y-74122426D01*
X137011513Y-74122427D01*
X137347436Y-74346884D01*
X137633116Y-74632564D01*
X137857574Y-74968489D01*
X138012182Y-75341746D01*
X138091000Y-75737993D01*
X138091000Y-76142007D01*
X138012182Y-76538254D01*
X137933172Y-76729000D01*
X137857573Y-76911513D01*
X137633116Y-77247436D01*
X137347436Y-77533116D01*
X137011513Y-77757573D01*
X137011512Y-77757574D01*
X137011511Y-77757574D01*
X136638254Y-77912182D01*
X136242007Y-77991000D01*
X135837993Y-77991000D01*
X135441746Y-77912182D01*
X135068489Y-77757574D01*
X135068488Y-77757574D01*
X135068487Y-77757573D01*
X134732564Y-77533116D01*
X134446884Y-77247436D01*
X134222427Y-76911513D01*
X134146828Y-76729000D01*
X134067818Y-76538254D01*
X133989000Y-76142007D01*
X133989000Y-75737993D01*
X134067818Y-75341746D01*
X134222426Y-74968489D01*
X134446884Y-74632564D01*
X134732564Y-74346884D01*
X135068487Y-74122427D01*
X135068489Y-74122426D01*
X135441746Y-73967818D01*
X135837993Y-73889000D01*
X136242007Y-73889000D01*
X136638254Y-73967818D01*
G37*
M02*
