M48
; DRILL file {KiCad 5.1.5-52549c5~84~ubuntu18.04.1} date Sun 19 Jan 2020 03:21:04 PM EST
; FORMAT={-:-/ absolute / inch / decimal}
; #@! TF.CreationDate,2020-01-19T15:21:04-05:00
; #@! TF.GenerationSoftware,Kicad,Pcbnew,5.1.5-52549c5~84~ubuntu18.04.1
FMAT,2
INCH
T1C0.0394
T2C0.1260
T3C0.1772
%
G90
G05
T1
X5.13Y-3.2638
X5.13Y-3.3728
X5.13Y-3.4819
X5.13Y-3.5909
X5.13Y-3.7
X5.2418Y-3.3183
X5.2418Y-3.4274
X5.2418Y-3.5364
X5.2418Y-3.6455
X5.13Y-4.6638
X5.13Y-4.7728
X5.13Y-4.8819
X5.13Y-4.9909
X5.13Y-5.1
X5.2418Y-4.7183
X5.2418Y-4.8274
X5.2418Y-4.9364
X5.2418Y-5.0455
X6.05Y-3.2638
X6.05Y-3.3728
X6.05Y-3.4819
X6.05Y-3.5909
X6.05Y-3.7
X6.1618Y-3.3183
X6.1618Y-3.4274
X6.1618Y-3.5364
X6.1618Y-3.6455
X4.5882Y-4.0183
X4.5882Y-4.1274
X4.5882Y-4.2364
X4.5882Y-4.3455
X4.7Y-3.9638
X4.7Y-4.0728
X4.7Y-4.1819
X4.7Y-4.2909
X4.7Y-4.4
X6.05Y-4.6638
X6.05Y-4.7728
X6.05Y-4.8819
X6.05Y-4.9909
X6.05Y-5.1
X6.1618Y-4.7183
X6.1618Y-4.8274
X6.1618Y-4.9364
X6.1618Y-5.0455
T2
X6.1059Y-4.3898
X6.1059Y-5.374
X5.1859Y-2.9898
X5.1859Y-3.974
X5.1859Y-4.3898
X5.1859Y-5.374
X6.1059Y-2.9898
X6.1059Y-3.974
X4.6441Y-3.6898
X4.6441Y-4.674
T3
X4.5Y-5.2
X6.6Y-5.2
X6.6Y-3.2
X4.5Y-3.2
T0
M30
