G04 #@! TF.GenerationSoftware,KiCad,Pcbnew,5.1.5-52549c5~84~ubuntu18.04.1*
G04 #@! TF.CreationDate,2020-01-18T14:29:20-05:00*
G04 #@! TF.ProjectId,datapod_IR_splitter,64617461-706f-4645-9f49-525f73706c69,rev?*
G04 #@! TF.SameCoordinates,Original*
G04 #@! TF.FileFunction,Copper,L2,Bot*
G04 #@! TF.FilePolarity,Positive*
%FSLAX46Y46*%
G04 Gerber Fmt 4.6, Leading zero omitted, Abs format (unit mm)*
G04 Created by KiCad (PCBNEW 5.1.5-52549c5~84~ubuntu18.04.1) date 2020-01-18 14:29:20*
%MOMM*%
%LPD*%
G04 APERTURE LIST*
%ADD10R,1.600000X1.600000*%
%ADD11C,1.600000*%
%ADD12C,4.000000*%
%ADD13C,9.000000*%
%ADD14C,0.762000*%
%ADD15C,0.254000*%
G04 APERTURE END LIST*
D10*
X119380000Y-111760000D03*
D11*
X119380000Y-108990000D03*
X119380000Y-106220000D03*
X119380000Y-103450000D03*
X119380000Y-100680000D03*
X116540000Y-110375000D03*
X116540000Y-107605000D03*
X116540000Y-104835000D03*
X116540000Y-102065000D03*
D12*
X117960000Y-93720000D03*
X117960000Y-118720000D03*
D10*
X152400000Y-129540000D03*
D11*
X152400000Y-126770000D03*
X152400000Y-124000000D03*
X152400000Y-121230000D03*
X152400000Y-118460000D03*
X155240000Y-128155000D03*
X155240000Y-125385000D03*
X155240000Y-122615000D03*
X155240000Y-119845000D03*
D12*
X153820000Y-136500000D03*
X153820000Y-111500000D03*
X136040000Y-75940000D03*
X136040000Y-100940000D03*
D11*
X137460000Y-84285000D03*
X137460000Y-87055000D03*
X137460000Y-89825000D03*
X137460000Y-92595000D03*
X134620000Y-82900000D03*
X134620000Y-85670000D03*
X134620000Y-88440000D03*
X134620000Y-91210000D03*
D10*
X134620000Y-93980000D03*
X152400000Y-93980000D03*
D11*
X152400000Y-91210000D03*
X152400000Y-88440000D03*
X152400000Y-85670000D03*
X152400000Y-82900000D03*
X155240000Y-92595000D03*
X155240000Y-89825000D03*
X155240000Y-87055000D03*
X155240000Y-84285000D03*
D12*
X153820000Y-100940000D03*
X153820000Y-75940000D03*
X136040000Y-111500000D03*
X136040000Y-136500000D03*
D11*
X137460000Y-119845000D03*
X137460000Y-122615000D03*
X137460000Y-125385000D03*
X137460000Y-128155000D03*
X134620000Y-118460000D03*
X134620000Y-121230000D03*
X134620000Y-124000000D03*
X134620000Y-126770000D03*
D10*
X134620000Y-129540000D03*
D13*
X114300000Y-81280000D03*
X114300000Y-132080000D03*
X167640000Y-132080000D03*
X167640000Y-81280000D03*
D14*
X134620000Y-85670000D02*
X127690000Y-85670000D01*
X127690000Y-85670000D02*
X127000000Y-84980000D01*
X127000000Y-84980000D02*
X127000000Y-71120000D01*
X127000000Y-71120000D02*
X144780000Y-71120000D01*
X144780000Y-78050000D02*
X152400000Y-85670000D01*
X144780000Y-71120000D02*
X144780000Y-78050000D01*
X134620000Y-121230000D02*
X127690000Y-121230000D01*
X127690000Y-121230000D02*
X127000000Y-120540000D01*
X127000000Y-120540000D02*
X127000000Y-106680000D01*
X127000000Y-106680000D02*
X144780000Y-106680000D01*
X144780000Y-113610000D02*
X152400000Y-121230000D01*
X144780000Y-106680000D02*
X144780000Y-113610000D01*
X126310000Y-103450000D02*
X127000000Y-104140000D01*
X119380000Y-103450000D02*
X126310000Y-103450000D01*
X127000000Y-84980000D02*
X127000000Y-104140000D01*
X127000000Y-104140000D02*
X127000000Y-106680000D01*
X143855000Y-89825000D02*
X144780000Y-90750000D01*
X137460000Y-89825000D02*
X143855000Y-89825000D01*
X144780000Y-90750000D02*
X144780000Y-104140000D01*
X144780000Y-104140000D02*
X147320000Y-106680000D01*
X137460000Y-125385000D02*
X143165000Y-125385000D01*
X143165000Y-125385000D02*
X144780000Y-127000000D01*
X144780000Y-127000000D02*
X144780000Y-139700000D01*
X144780000Y-139700000D02*
X147320000Y-142240000D01*
X147320000Y-142240000D02*
X157480000Y-142240000D01*
X157480000Y-142240000D02*
X160020000Y-139700000D01*
X160020000Y-130165000D02*
X155240000Y-125385000D01*
X160020000Y-139700000D02*
X160020000Y-130165000D01*
X147320000Y-106680000D02*
X157480000Y-106680000D01*
X157480000Y-106680000D02*
X160020000Y-104140000D01*
X160020000Y-94605000D02*
X155240000Y-89825000D01*
X160020000Y-104140000D02*
X160020000Y-94605000D01*
X160020000Y-104140000D02*
X160020000Y-130165000D01*
X116540000Y-107605000D02*
X114300000Y-109845000D01*
X114300000Y-118879882D02*
X124460000Y-129039882D01*
X114300000Y-109845000D02*
X114300000Y-118879882D01*
X124460000Y-129039882D02*
X124460000Y-137160000D01*
X124460000Y-137160000D02*
X129540000Y-142240000D01*
X129540000Y-142240000D02*
X147320000Y-142240000D01*
D15*
G36*
X172060000Y-78652241D02*
G01*
X171628615Y-78006628D01*
X170913372Y-77291385D01*
X170072335Y-76729422D01*
X169137824Y-76342335D01*
X168145753Y-76145000D01*
X167134247Y-76145000D01*
X166142176Y-76342335D01*
X165207665Y-76729422D01*
X164366628Y-77291385D01*
X163651385Y-78006628D01*
X163089422Y-78847665D01*
X162702335Y-79782176D01*
X162505000Y-80774247D01*
X162505000Y-81785753D01*
X162702335Y-82777824D01*
X163089422Y-83712335D01*
X163651385Y-84553372D01*
X164366628Y-85268615D01*
X165207665Y-85830578D01*
X166142176Y-86217665D01*
X167134247Y-86415000D01*
X168145753Y-86415000D01*
X169137824Y-86217665D01*
X170072335Y-85830578D01*
X170913372Y-85268615D01*
X171628615Y-84553372D01*
X172060000Y-83907758D01*
X172060001Y-129452242D01*
X171628615Y-128806628D01*
X170913372Y-128091385D01*
X170072335Y-127529422D01*
X169137824Y-127142335D01*
X168145753Y-126945000D01*
X167134247Y-126945000D01*
X166142176Y-127142335D01*
X165207665Y-127529422D01*
X164366628Y-128091385D01*
X163651385Y-128806628D01*
X163089422Y-129647665D01*
X162702335Y-130582176D01*
X162505000Y-131574247D01*
X162505000Y-132585753D01*
X162702335Y-133577824D01*
X163089422Y-134512335D01*
X163651385Y-135353372D01*
X164366628Y-136068615D01*
X165207665Y-136630578D01*
X166142176Y-137017665D01*
X167134247Y-137215000D01*
X168145753Y-137215000D01*
X169137824Y-137017665D01*
X170072335Y-136630578D01*
X170913372Y-136068615D01*
X171628615Y-135353372D01*
X172060001Y-134707758D01*
X172060001Y-146660000D01*
X122193381Y-146660000D01*
X112373469Y-136840089D01*
X112802176Y-137017665D01*
X113794247Y-137215000D01*
X114805753Y-137215000D01*
X115797824Y-137017665D01*
X116732335Y-136630578D01*
X117573372Y-136068615D01*
X118288615Y-135353372D01*
X118850578Y-134512335D01*
X119237665Y-133577824D01*
X119435000Y-132585753D01*
X119435000Y-131574247D01*
X119237665Y-130582176D01*
X118850578Y-129647665D01*
X118288615Y-128806628D01*
X117573372Y-128091385D01*
X116732335Y-127529422D01*
X115797824Y-127142335D01*
X114805753Y-126945000D01*
X113794247Y-126945000D01*
X112802176Y-127142335D01*
X111867665Y-127529422D01*
X111026628Y-128091385D01*
X110311385Y-128806628D01*
X109749422Y-129647665D01*
X109362335Y-130582176D01*
X109165000Y-131574247D01*
X109165000Y-132585753D01*
X109362335Y-133577824D01*
X109539911Y-134006531D01*
X107340000Y-131806620D01*
X107340000Y-109845000D01*
X113279085Y-109845000D01*
X113284000Y-109894902D01*
X113284001Y-118829970D01*
X113279085Y-118879882D01*
X113298702Y-119079052D01*
X113335851Y-119201514D01*
X113356799Y-119270569D01*
X113451141Y-119447072D01*
X113578105Y-119601778D01*
X113616868Y-119633590D01*
X123444000Y-129460723D01*
X123444001Y-137110088D01*
X123439085Y-137160000D01*
X123458702Y-137359170D01*
X123511897Y-137534526D01*
X123516799Y-137550687D01*
X123611141Y-137727190D01*
X123738105Y-137881896D01*
X123776868Y-137913708D01*
X128786292Y-142923133D01*
X128818104Y-142961896D01*
X128972810Y-143088860D01*
X129087832Y-143150340D01*
X129149312Y-143183202D01*
X129340829Y-143241298D01*
X129540000Y-143260915D01*
X129589902Y-143256000D01*
X147270105Y-143256000D01*
X147319999Y-143260914D01*
X147369893Y-143256000D01*
X157430098Y-143256000D01*
X157480000Y-143260915D01*
X157529902Y-143256000D01*
X157679171Y-143241298D01*
X157870687Y-143183202D01*
X158047190Y-143088860D01*
X158201896Y-142961896D01*
X158233712Y-142923128D01*
X160703133Y-140453708D01*
X160741896Y-140421896D01*
X160868860Y-140267190D01*
X160963202Y-140090687D01*
X161021298Y-139899171D01*
X161036000Y-139749902D01*
X161036000Y-139749895D01*
X161040914Y-139700001D01*
X161036000Y-139650107D01*
X161036000Y-130214902D01*
X161040915Y-130165000D01*
X161036000Y-130115098D01*
X161036000Y-104189895D01*
X161040914Y-104140001D01*
X161036000Y-104090107D01*
X161036000Y-94654902D01*
X161040915Y-94605000D01*
X161021298Y-94405829D01*
X160963202Y-94214313D01*
X160962982Y-94213902D01*
X160868860Y-94037810D01*
X160741896Y-93883104D01*
X160703133Y-93851292D01*
X156675000Y-89823160D01*
X156675000Y-89683665D01*
X156619853Y-89406426D01*
X156511680Y-89145273D01*
X156354637Y-88910241D01*
X156154759Y-88710363D01*
X155919727Y-88553320D01*
X155658574Y-88445147D01*
X155632699Y-88440000D01*
X155658574Y-88434853D01*
X155919727Y-88326680D01*
X156154759Y-88169637D01*
X156354637Y-87969759D01*
X156511680Y-87734727D01*
X156619853Y-87473574D01*
X156675000Y-87196335D01*
X156675000Y-86913665D01*
X156619853Y-86636426D01*
X156511680Y-86375273D01*
X156354637Y-86140241D01*
X156154759Y-85940363D01*
X155919727Y-85783320D01*
X155658574Y-85675147D01*
X155632699Y-85670000D01*
X155658574Y-85664853D01*
X155919727Y-85556680D01*
X156154759Y-85399637D01*
X156354637Y-85199759D01*
X156511680Y-84964727D01*
X156619853Y-84703574D01*
X156675000Y-84426335D01*
X156675000Y-84143665D01*
X156619853Y-83866426D01*
X156511680Y-83605273D01*
X156354637Y-83370241D01*
X156154759Y-83170363D01*
X155919727Y-83013320D01*
X155658574Y-82905147D01*
X155381335Y-82850000D01*
X155098665Y-82850000D01*
X154821426Y-82905147D01*
X154560273Y-83013320D01*
X154325241Y-83170363D01*
X154125363Y-83370241D01*
X153968320Y-83605273D01*
X153860147Y-83866426D01*
X153805000Y-84143665D01*
X153805000Y-84426335D01*
X153860147Y-84703574D01*
X153968320Y-84964727D01*
X154125363Y-85199759D01*
X154325241Y-85399637D01*
X154560273Y-85556680D01*
X154821426Y-85664853D01*
X154847301Y-85670000D01*
X154821426Y-85675147D01*
X154560273Y-85783320D01*
X154325241Y-85940363D01*
X154125363Y-86140241D01*
X153968320Y-86375273D01*
X153860147Y-86636426D01*
X153805000Y-86913665D01*
X153805000Y-87196335D01*
X153860147Y-87473574D01*
X153968320Y-87734727D01*
X154125363Y-87969759D01*
X154325241Y-88169637D01*
X154560273Y-88326680D01*
X154821426Y-88434853D01*
X154847301Y-88440000D01*
X154821426Y-88445147D01*
X154560273Y-88553320D01*
X154325241Y-88710363D01*
X154125363Y-88910241D01*
X153968320Y-89145273D01*
X153860147Y-89406426D01*
X153805000Y-89683665D01*
X153805000Y-89966335D01*
X153860147Y-90243574D01*
X153968320Y-90504727D01*
X154125363Y-90739759D01*
X154325241Y-90939637D01*
X154560273Y-91096680D01*
X154821426Y-91204853D01*
X154847301Y-91210000D01*
X154821426Y-91215147D01*
X154560273Y-91323320D01*
X154325241Y-91480363D01*
X154125363Y-91680241D01*
X153968320Y-91915273D01*
X153860147Y-92176426D01*
X153805000Y-92453665D01*
X153805000Y-92736335D01*
X153860147Y-93013574D01*
X153968320Y-93274727D01*
X154125363Y-93509759D01*
X154325241Y-93709637D01*
X154560273Y-93866680D01*
X154821426Y-93974853D01*
X155098665Y-94030000D01*
X155381335Y-94030000D01*
X155658574Y-93974853D01*
X155919727Y-93866680D01*
X156154759Y-93709637D01*
X156354637Y-93509759D01*
X156511680Y-93274727D01*
X156619853Y-93013574D01*
X156675000Y-92736335D01*
X156675000Y-92696840D01*
X159004001Y-95025842D01*
X159004000Y-103719159D01*
X157059160Y-105664000D01*
X147740841Y-105664000D01*
X145796000Y-103719160D01*
X145796000Y-102787499D01*
X152152106Y-102787499D01*
X152368228Y-103154258D01*
X152828105Y-103394938D01*
X153326098Y-103541275D01*
X153843071Y-103587648D01*
X154359159Y-103532273D01*
X154854526Y-103377279D01*
X155271772Y-103154258D01*
X155487894Y-102787499D01*
X153820000Y-101119605D01*
X152152106Y-102787499D01*
X145796000Y-102787499D01*
X145796000Y-100963071D01*
X151172352Y-100963071D01*
X151227727Y-101479159D01*
X151382721Y-101974526D01*
X151605742Y-102391772D01*
X151972501Y-102607894D01*
X153640395Y-100940000D01*
X153999605Y-100940000D01*
X155667499Y-102607894D01*
X156034258Y-102391772D01*
X156274938Y-101931895D01*
X156421275Y-101433902D01*
X156467648Y-100916929D01*
X156412273Y-100400841D01*
X156257279Y-99905474D01*
X156034258Y-99488228D01*
X155667499Y-99272106D01*
X153999605Y-100940000D01*
X153640395Y-100940000D01*
X151972501Y-99272106D01*
X151605742Y-99488228D01*
X151365062Y-99948105D01*
X151218725Y-100446098D01*
X151172352Y-100963071D01*
X145796000Y-100963071D01*
X145796000Y-99092501D01*
X152152106Y-99092501D01*
X153820000Y-100760395D01*
X155487894Y-99092501D01*
X155271772Y-98725742D01*
X154811895Y-98485062D01*
X154313902Y-98338725D01*
X153796929Y-98292352D01*
X153280841Y-98347727D01*
X152785474Y-98502721D01*
X152368228Y-98725742D01*
X152152106Y-99092501D01*
X145796000Y-99092501D01*
X145796000Y-90799902D01*
X145800915Y-90750000D01*
X145781298Y-90550829D01*
X145723202Y-90359313D01*
X145628860Y-90182810D01*
X145533706Y-90066865D01*
X145501896Y-90028104D01*
X145463133Y-89996292D01*
X144608712Y-89141872D01*
X144576896Y-89103104D01*
X144422190Y-88976140D01*
X144245687Y-88881798D01*
X144054171Y-88823702D01*
X143904902Y-88809000D01*
X143855000Y-88804085D01*
X143805098Y-88809000D01*
X138473396Y-88809000D01*
X138374759Y-88710363D01*
X138139727Y-88553320D01*
X137878574Y-88445147D01*
X137852699Y-88440000D01*
X137878574Y-88434853D01*
X138139727Y-88326680D01*
X138374759Y-88169637D01*
X138574637Y-87969759D01*
X138731680Y-87734727D01*
X138839853Y-87473574D01*
X138895000Y-87196335D01*
X138895000Y-86913665D01*
X138839853Y-86636426D01*
X138731680Y-86375273D01*
X138574637Y-86140241D01*
X138374759Y-85940363D01*
X138139727Y-85783320D01*
X137878574Y-85675147D01*
X137852699Y-85670000D01*
X137878574Y-85664853D01*
X138139727Y-85556680D01*
X138374759Y-85399637D01*
X138574637Y-85199759D01*
X138731680Y-84964727D01*
X138839853Y-84703574D01*
X138895000Y-84426335D01*
X138895000Y-84143665D01*
X138839853Y-83866426D01*
X138731680Y-83605273D01*
X138574637Y-83370241D01*
X138374759Y-83170363D01*
X138139727Y-83013320D01*
X137878574Y-82905147D01*
X137601335Y-82850000D01*
X137318665Y-82850000D01*
X137041426Y-82905147D01*
X136780273Y-83013320D01*
X136545241Y-83170363D01*
X136345363Y-83370241D01*
X136188320Y-83605273D01*
X136080147Y-83866426D01*
X136025000Y-84143665D01*
X136025000Y-84426335D01*
X136080147Y-84703574D01*
X136188320Y-84964727D01*
X136345363Y-85199759D01*
X136545241Y-85399637D01*
X136780273Y-85556680D01*
X137041426Y-85664853D01*
X137067301Y-85670000D01*
X137041426Y-85675147D01*
X136780273Y-85783320D01*
X136545241Y-85940363D01*
X136345363Y-86140241D01*
X136188320Y-86375273D01*
X136080147Y-86636426D01*
X136025000Y-86913665D01*
X136025000Y-87196335D01*
X136080147Y-87473574D01*
X136188320Y-87734727D01*
X136345363Y-87969759D01*
X136545241Y-88169637D01*
X136780273Y-88326680D01*
X137041426Y-88434853D01*
X137067301Y-88440000D01*
X137041426Y-88445147D01*
X136780273Y-88553320D01*
X136545241Y-88710363D01*
X136345363Y-88910241D01*
X136188320Y-89145273D01*
X136080147Y-89406426D01*
X136025000Y-89683665D01*
X136025000Y-89966335D01*
X136080147Y-90243574D01*
X136188320Y-90504727D01*
X136345363Y-90739759D01*
X136545241Y-90939637D01*
X136780273Y-91096680D01*
X137041426Y-91204853D01*
X137067301Y-91210000D01*
X137041426Y-91215147D01*
X136780273Y-91323320D01*
X136545241Y-91480363D01*
X136345363Y-91680241D01*
X136188320Y-91915273D01*
X136080147Y-92176426D01*
X136025000Y-92453665D01*
X136025000Y-92736335D01*
X136080147Y-93013574D01*
X136188320Y-93274727D01*
X136345363Y-93509759D01*
X136545241Y-93709637D01*
X136780273Y-93866680D01*
X137041426Y-93974853D01*
X137318665Y-94030000D01*
X137601335Y-94030000D01*
X137878574Y-93974853D01*
X138139727Y-93866680D01*
X138374759Y-93709637D01*
X138574637Y-93509759D01*
X138731680Y-93274727D01*
X138839853Y-93013574D01*
X138895000Y-92736335D01*
X138895000Y-92453665D01*
X138839853Y-92176426D01*
X138731680Y-91915273D01*
X138574637Y-91680241D01*
X138374759Y-91480363D01*
X138139727Y-91323320D01*
X137878574Y-91215147D01*
X137852699Y-91210000D01*
X137878574Y-91204853D01*
X138139727Y-91096680D01*
X138374759Y-90939637D01*
X138473396Y-90841000D01*
X143434160Y-90841000D01*
X143764000Y-91170841D01*
X143764001Y-104090088D01*
X143759085Y-104140000D01*
X143778702Y-104339170D01*
X143817176Y-104466000D01*
X143836799Y-104530687D01*
X143931141Y-104707190D01*
X144058105Y-104861896D01*
X144096866Y-104893706D01*
X144871230Y-105668071D01*
X144829902Y-105664000D01*
X144780000Y-105659085D01*
X144730098Y-105664000D01*
X128016000Y-105664000D01*
X128016000Y-104189893D01*
X128020914Y-104139999D01*
X128016000Y-104090105D01*
X128016000Y-102787499D01*
X134372106Y-102787499D01*
X134588228Y-103154258D01*
X135048105Y-103394938D01*
X135546098Y-103541275D01*
X136063071Y-103587648D01*
X136579159Y-103532273D01*
X137074526Y-103377279D01*
X137491772Y-103154258D01*
X137707894Y-102787499D01*
X136040000Y-101119605D01*
X134372106Y-102787499D01*
X128016000Y-102787499D01*
X128016000Y-100963071D01*
X133392352Y-100963071D01*
X133447727Y-101479159D01*
X133602721Y-101974526D01*
X133825742Y-102391772D01*
X134192501Y-102607894D01*
X135860395Y-100940000D01*
X136219605Y-100940000D01*
X137887499Y-102607894D01*
X138254258Y-102391772D01*
X138494938Y-101931895D01*
X138641275Y-101433902D01*
X138687648Y-100916929D01*
X138632273Y-100400841D01*
X138477279Y-99905474D01*
X138254258Y-99488228D01*
X137887499Y-99272106D01*
X136219605Y-100940000D01*
X135860395Y-100940000D01*
X134192501Y-99272106D01*
X133825742Y-99488228D01*
X133585062Y-99948105D01*
X133438725Y-100446098D01*
X133392352Y-100963071D01*
X128016000Y-100963071D01*
X128016000Y-99092501D01*
X134372106Y-99092501D01*
X136040000Y-100760395D01*
X137707894Y-99092501D01*
X137491772Y-98725742D01*
X137031895Y-98485062D01*
X136533902Y-98338725D01*
X136016929Y-98292352D01*
X135500841Y-98347727D01*
X135005474Y-98502721D01*
X134588228Y-98725742D01*
X134372106Y-99092501D01*
X128016000Y-99092501D01*
X128016000Y-86686000D01*
X133606604Y-86686000D01*
X133705241Y-86784637D01*
X133940273Y-86941680D01*
X134201426Y-87049853D01*
X134227301Y-87055000D01*
X134201426Y-87060147D01*
X133940273Y-87168320D01*
X133705241Y-87325363D01*
X133505363Y-87525241D01*
X133348320Y-87760273D01*
X133240147Y-88021426D01*
X133185000Y-88298665D01*
X133185000Y-88581335D01*
X133240147Y-88858574D01*
X133348320Y-89119727D01*
X133505363Y-89354759D01*
X133705241Y-89554637D01*
X133940273Y-89711680D01*
X134201426Y-89819853D01*
X134227301Y-89825000D01*
X134201426Y-89830147D01*
X133940273Y-89938320D01*
X133705241Y-90095363D01*
X133505363Y-90295241D01*
X133348320Y-90530273D01*
X133240147Y-90791426D01*
X133185000Y-91068665D01*
X133185000Y-91351335D01*
X133240147Y-91628574D01*
X133348320Y-91889727D01*
X133505363Y-92124759D01*
X133705241Y-92324637D01*
X133940273Y-92481680D01*
X134085725Y-92541928D01*
X133820000Y-92541928D01*
X133695518Y-92554188D01*
X133575820Y-92590498D01*
X133465506Y-92649463D01*
X133368815Y-92728815D01*
X133289463Y-92825506D01*
X133230498Y-92935820D01*
X133194188Y-93055518D01*
X133181928Y-93180000D01*
X133181928Y-94780000D01*
X133194188Y-94904482D01*
X133230498Y-95024180D01*
X133289463Y-95134494D01*
X133368815Y-95231185D01*
X133465506Y-95310537D01*
X133575820Y-95369502D01*
X133695518Y-95405812D01*
X133820000Y-95418072D01*
X135420000Y-95418072D01*
X135544482Y-95405812D01*
X135664180Y-95369502D01*
X135774494Y-95310537D01*
X135871185Y-95231185D01*
X135950537Y-95134494D01*
X136009502Y-95024180D01*
X136045812Y-94904482D01*
X136058072Y-94780000D01*
X136058072Y-93180000D01*
X136045812Y-93055518D01*
X136009502Y-92935820D01*
X135950537Y-92825506D01*
X135871185Y-92728815D01*
X135774494Y-92649463D01*
X135664180Y-92590498D01*
X135544482Y-92554188D01*
X135420000Y-92541928D01*
X135154275Y-92541928D01*
X135299727Y-92481680D01*
X135534759Y-92324637D01*
X135734637Y-92124759D01*
X135891680Y-91889727D01*
X135999853Y-91628574D01*
X136055000Y-91351335D01*
X136055000Y-91068665D01*
X135999853Y-90791426D01*
X135891680Y-90530273D01*
X135734637Y-90295241D01*
X135534759Y-90095363D01*
X135299727Y-89938320D01*
X135038574Y-89830147D01*
X135012699Y-89825000D01*
X135038574Y-89819853D01*
X135299727Y-89711680D01*
X135534759Y-89554637D01*
X135734637Y-89354759D01*
X135891680Y-89119727D01*
X135999853Y-88858574D01*
X136055000Y-88581335D01*
X136055000Y-88298665D01*
X135999853Y-88021426D01*
X135891680Y-87760273D01*
X135734637Y-87525241D01*
X135534759Y-87325363D01*
X135299727Y-87168320D01*
X135038574Y-87060147D01*
X135012699Y-87055000D01*
X135038574Y-87049853D01*
X135299727Y-86941680D01*
X135534759Y-86784637D01*
X135734637Y-86584759D01*
X135891680Y-86349727D01*
X135999853Y-86088574D01*
X136055000Y-85811335D01*
X136055000Y-85528665D01*
X135999853Y-85251426D01*
X135891680Y-84990273D01*
X135734637Y-84755241D01*
X135534759Y-84555363D01*
X135299727Y-84398320D01*
X135038574Y-84290147D01*
X135010118Y-84284487D01*
X135236292Y-84203603D01*
X135361514Y-84136671D01*
X135433097Y-83892702D01*
X134620000Y-83079605D01*
X133806903Y-83892702D01*
X133878486Y-84136671D01*
X134133996Y-84257571D01*
X134236289Y-84283212D01*
X134201426Y-84290147D01*
X133940273Y-84398320D01*
X133705241Y-84555363D01*
X133606604Y-84654000D01*
X128110841Y-84654000D01*
X128016000Y-84559160D01*
X128016000Y-82970512D01*
X133179783Y-82970512D01*
X133221213Y-83250130D01*
X133316397Y-83516292D01*
X133383329Y-83641514D01*
X133627298Y-83713097D01*
X134440395Y-82900000D01*
X134799605Y-82900000D01*
X135612702Y-83713097D01*
X135856671Y-83641514D01*
X135977571Y-83386004D01*
X136046300Y-83111816D01*
X136060217Y-82829488D01*
X136018787Y-82549870D01*
X135923603Y-82283708D01*
X135856671Y-82158486D01*
X135612702Y-82086903D01*
X134799605Y-82900000D01*
X134440395Y-82900000D01*
X133627298Y-82086903D01*
X133383329Y-82158486D01*
X133262429Y-82413996D01*
X133193700Y-82688184D01*
X133179783Y-82970512D01*
X128016000Y-82970512D01*
X128016000Y-81907298D01*
X133806903Y-81907298D01*
X134620000Y-82720395D01*
X135433097Y-81907298D01*
X135361514Y-81663329D01*
X135106004Y-81542429D01*
X134831816Y-81473700D01*
X134549488Y-81459783D01*
X134269870Y-81501213D01*
X134003708Y-81596397D01*
X133878486Y-81663329D01*
X133806903Y-81907298D01*
X128016000Y-81907298D01*
X128016000Y-77787499D01*
X134372106Y-77787499D01*
X134588228Y-78154258D01*
X135048105Y-78394938D01*
X135546098Y-78541275D01*
X136063071Y-78587648D01*
X136579159Y-78532273D01*
X137074526Y-78377279D01*
X137491772Y-78154258D01*
X137707894Y-77787499D01*
X136040000Y-76119605D01*
X134372106Y-77787499D01*
X128016000Y-77787499D01*
X128016000Y-75963071D01*
X133392352Y-75963071D01*
X133447727Y-76479159D01*
X133602721Y-76974526D01*
X133825742Y-77391772D01*
X134192501Y-77607894D01*
X135860395Y-75940000D01*
X136219605Y-75940000D01*
X137887499Y-77607894D01*
X138254258Y-77391772D01*
X138494938Y-76931895D01*
X138641275Y-76433902D01*
X138687648Y-75916929D01*
X138632273Y-75400841D01*
X138477279Y-74905474D01*
X138254258Y-74488228D01*
X137887499Y-74272106D01*
X136219605Y-75940000D01*
X135860395Y-75940000D01*
X134192501Y-74272106D01*
X133825742Y-74488228D01*
X133585062Y-74948105D01*
X133438725Y-75446098D01*
X133392352Y-75963071D01*
X128016000Y-75963071D01*
X128016000Y-74092501D01*
X134372106Y-74092501D01*
X136040000Y-75760395D01*
X137707894Y-74092501D01*
X137491772Y-73725742D01*
X137031895Y-73485062D01*
X136533902Y-73338725D01*
X136016929Y-73292352D01*
X135500841Y-73347727D01*
X135005474Y-73502721D01*
X134588228Y-73725742D01*
X134372106Y-74092501D01*
X128016000Y-74092501D01*
X128016000Y-72136000D01*
X143764000Y-72136000D01*
X143764001Y-78000088D01*
X143759085Y-78050000D01*
X143778702Y-78249170D01*
X143817564Y-78377279D01*
X143836799Y-78440687D01*
X143931141Y-78617190D01*
X144058105Y-78771896D01*
X144096868Y-78803708D01*
X150965000Y-85671841D01*
X150965000Y-85811335D01*
X151020147Y-86088574D01*
X151128320Y-86349727D01*
X151285363Y-86584759D01*
X151485241Y-86784637D01*
X151720273Y-86941680D01*
X151981426Y-87049853D01*
X152007301Y-87055000D01*
X151981426Y-87060147D01*
X151720273Y-87168320D01*
X151485241Y-87325363D01*
X151285363Y-87525241D01*
X151128320Y-87760273D01*
X151020147Y-88021426D01*
X150965000Y-88298665D01*
X150965000Y-88581335D01*
X151020147Y-88858574D01*
X151128320Y-89119727D01*
X151285363Y-89354759D01*
X151485241Y-89554637D01*
X151720273Y-89711680D01*
X151981426Y-89819853D01*
X152007301Y-89825000D01*
X151981426Y-89830147D01*
X151720273Y-89938320D01*
X151485241Y-90095363D01*
X151285363Y-90295241D01*
X151128320Y-90530273D01*
X151020147Y-90791426D01*
X150965000Y-91068665D01*
X150965000Y-91351335D01*
X151020147Y-91628574D01*
X151128320Y-91889727D01*
X151285363Y-92124759D01*
X151485241Y-92324637D01*
X151720273Y-92481680D01*
X151865725Y-92541928D01*
X151600000Y-92541928D01*
X151475518Y-92554188D01*
X151355820Y-92590498D01*
X151245506Y-92649463D01*
X151148815Y-92728815D01*
X151069463Y-92825506D01*
X151010498Y-92935820D01*
X150974188Y-93055518D01*
X150961928Y-93180000D01*
X150961928Y-94780000D01*
X150974188Y-94904482D01*
X151010498Y-95024180D01*
X151069463Y-95134494D01*
X151148815Y-95231185D01*
X151245506Y-95310537D01*
X151355820Y-95369502D01*
X151475518Y-95405812D01*
X151600000Y-95418072D01*
X153200000Y-95418072D01*
X153324482Y-95405812D01*
X153444180Y-95369502D01*
X153554494Y-95310537D01*
X153651185Y-95231185D01*
X153730537Y-95134494D01*
X153789502Y-95024180D01*
X153825812Y-94904482D01*
X153838072Y-94780000D01*
X153838072Y-93180000D01*
X153825812Y-93055518D01*
X153789502Y-92935820D01*
X153730537Y-92825506D01*
X153651185Y-92728815D01*
X153554494Y-92649463D01*
X153444180Y-92590498D01*
X153324482Y-92554188D01*
X153200000Y-92541928D01*
X152934275Y-92541928D01*
X153079727Y-92481680D01*
X153314759Y-92324637D01*
X153514637Y-92124759D01*
X153671680Y-91889727D01*
X153779853Y-91628574D01*
X153835000Y-91351335D01*
X153835000Y-91068665D01*
X153779853Y-90791426D01*
X153671680Y-90530273D01*
X153514637Y-90295241D01*
X153314759Y-90095363D01*
X153079727Y-89938320D01*
X152818574Y-89830147D01*
X152792699Y-89825000D01*
X152818574Y-89819853D01*
X153079727Y-89711680D01*
X153314759Y-89554637D01*
X153514637Y-89354759D01*
X153671680Y-89119727D01*
X153779853Y-88858574D01*
X153835000Y-88581335D01*
X153835000Y-88298665D01*
X153779853Y-88021426D01*
X153671680Y-87760273D01*
X153514637Y-87525241D01*
X153314759Y-87325363D01*
X153079727Y-87168320D01*
X152818574Y-87060147D01*
X152792699Y-87055000D01*
X152818574Y-87049853D01*
X153079727Y-86941680D01*
X153314759Y-86784637D01*
X153514637Y-86584759D01*
X153671680Y-86349727D01*
X153779853Y-86088574D01*
X153835000Y-85811335D01*
X153835000Y-85528665D01*
X153779853Y-85251426D01*
X153671680Y-84990273D01*
X153514637Y-84755241D01*
X153314759Y-84555363D01*
X153079727Y-84398320D01*
X152818574Y-84290147D01*
X152790118Y-84284487D01*
X153016292Y-84203603D01*
X153141514Y-84136671D01*
X153213097Y-83892702D01*
X152400000Y-83079605D01*
X152385858Y-83093748D01*
X152206253Y-82914143D01*
X152220395Y-82900000D01*
X152579605Y-82900000D01*
X153392702Y-83713097D01*
X153636671Y-83641514D01*
X153757571Y-83386004D01*
X153826300Y-83111816D01*
X153840217Y-82829488D01*
X153798787Y-82549870D01*
X153703603Y-82283708D01*
X153636671Y-82158486D01*
X153392702Y-82086903D01*
X152579605Y-82900000D01*
X152220395Y-82900000D01*
X151407298Y-82086903D01*
X151163329Y-82158486D01*
X151042429Y-82413996D01*
X150973700Y-82688184D01*
X150968125Y-82801284D01*
X150074139Y-81907298D01*
X151586903Y-81907298D01*
X152400000Y-82720395D01*
X153213097Y-81907298D01*
X153141514Y-81663329D01*
X152886004Y-81542429D01*
X152611816Y-81473700D01*
X152329488Y-81459783D01*
X152049870Y-81501213D01*
X151783708Y-81596397D01*
X151658486Y-81663329D01*
X151586903Y-81907298D01*
X150074139Y-81907298D01*
X145954340Y-77787499D01*
X152152106Y-77787499D01*
X152368228Y-78154258D01*
X152828105Y-78394938D01*
X153326098Y-78541275D01*
X153843071Y-78587648D01*
X154359159Y-78532273D01*
X154854526Y-78377279D01*
X155271772Y-78154258D01*
X155487894Y-77787499D01*
X153820000Y-76119605D01*
X152152106Y-77787499D01*
X145954340Y-77787499D01*
X145796000Y-77629160D01*
X145796000Y-75963071D01*
X151172352Y-75963071D01*
X151227727Y-76479159D01*
X151382721Y-76974526D01*
X151605742Y-77391772D01*
X151972501Y-77607894D01*
X153640395Y-75940000D01*
X153999605Y-75940000D01*
X155667499Y-77607894D01*
X156034258Y-77391772D01*
X156274938Y-76931895D01*
X156421275Y-76433902D01*
X156467648Y-75916929D01*
X156412273Y-75400841D01*
X156257279Y-74905474D01*
X156034258Y-74488228D01*
X155667499Y-74272106D01*
X153999605Y-75940000D01*
X153640395Y-75940000D01*
X151972501Y-74272106D01*
X151605742Y-74488228D01*
X151365062Y-74948105D01*
X151218725Y-75446098D01*
X151172352Y-75963071D01*
X145796000Y-75963071D01*
X145796000Y-74092501D01*
X152152106Y-74092501D01*
X153820000Y-75760395D01*
X155487894Y-74092501D01*
X155271772Y-73725742D01*
X154811895Y-73485062D01*
X154313902Y-73338725D01*
X153796929Y-73292352D01*
X153280841Y-73347727D01*
X152785474Y-73502721D01*
X152368228Y-73725742D01*
X152152106Y-74092501D01*
X145796000Y-74092501D01*
X145796000Y-71169902D01*
X145800915Y-71120000D01*
X145781298Y-70920829D01*
X145723202Y-70729313D01*
X145628860Y-70552810D01*
X145501896Y-70398104D01*
X145347190Y-70271140D01*
X145170687Y-70176798D01*
X144979171Y-70118702D01*
X144829902Y-70104000D01*
X144780000Y-70099085D01*
X144730098Y-70104000D01*
X127049902Y-70104000D01*
X127000000Y-70099085D01*
X126950098Y-70104000D01*
X126800829Y-70118702D01*
X126609313Y-70176798D01*
X126432810Y-70271140D01*
X126278104Y-70398104D01*
X126151140Y-70552810D01*
X126056798Y-70729313D01*
X125998702Y-70920829D01*
X125979085Y-71120000D01*
X125984001Y-71169912D01*
X125984000Y-84930098D01*
X125979085Y-84980000D01*
X125984000Y-85029901D01*
X125984001Y-102434000D01*
X120393396Y-102434000D01*
X120294759Y-102335363D01*
X120059727Y-102178320D01*
X119798574Y-102070147D01*
X119770118Y-102064487D01*
X119996292Y-101983603D01*
X120121514Y-101916671D01*
X120193097Y-101672702D01*
X119380000Y-100859605D01*
X118566903Y-101672702D01*
X118638486Y-101916671D01*
X118893996Y-102037571D01*
X118996289Y-102063212D01*
X118961426Y-102070147D01*
X118700273Y-102178320D01*
X118465241Y-102335363D01*
X118265363Y-102535241D01*
X118108320Y-102770273D01*
X118000147Y-103031426D01*
X117945000Y-103308665D01*
X117945000Y-103591335D01*
X118000147Y-103868574D01*
X118108320Y-104129727D01*
X118265363Y-104364759D01*
X118465241Y-104564637D01*
X118700273Y-104721680D01*
X118961426Y-104829853D01*
X118987301Y-104835000D01*
X118961426Y-104840147D01*
X118700273Y-104948320D01*
X118465241Y-105105363D01*
X118265363Y-105305241D01*
X118108320Y-105540273D01*
X118000147Y-105801426D01*
X117945000Y-106078665D01*
X117945000Y-106361335D01*
X118000147Y-106638574D01*
X118108320Y-106899727D01*
X118265363Y-107134759D01*
X118465241Y-107334637D01*
X118700273Y-107491680D01*
X118961426Y-107599853D01*
X118987301Y-107605000D01*
X118961426Y-107610147D01*
X118700273Y-107718320D01*
X118465241Y-107875363D01*
X118265363Y-108075241D01*
X118108320Y-108310273D01*
X118000147Y-108571426D01*
X117945000Y-108848665D01*
X117945000Y-109131335D01*
X118000147Y-109408574D01*
X118108320Y-109669727D01*
X118265363Y-109904759D01*
X118465241Y-110104637D01*
X118700273Y-110261680D01*
X118845725Y-110321928D01*
X118580000Y-110321928D01*
X118455518Y-110334188D01*
X118335820Y-110370498D01*
X118225506Y-110429463D01*
X118128815Y-110508815D01*
X118049463Y-110605506D01*
X117990498Y-110715820D01*
X117954188Y-110835518D01*
X117941928Y-110960000D01*
X117941928Y-112560000D01*
X117954188Y-112684482D01*
X117990498Y-112804180D01*
X118049463Y-112914494D01*
X118128815Y-113011185D01*
X118225506Y-113090537D01*
X118335820Y-113149502D01*
X118455518Y-113185812D01*
X118580000Y-113198072D01*
X120180000Y-113198072D01*
X120304482Y-113185812D01*
X120424180Y-113149502D01*
X120534494Y-113090537D01*
X120631185Y-113011185D01*
X120710537Y-112914494D01*
X120769502Y-112804180D01*
X120805812Y-112684482D01*
X120818072Y-112560000D01*
X120818072Y-110960000D01*
X120805812Y-110835518D01*
X120769502Y-110715820D01*
X120710537Y-110605506D01*
X120631185Y-110508815D01*
X120534494Y-110429463D01*
X120424180Y-110370498D01*
X120304482Y-110334188D01*
X120180000Y-110321928D01*
X119914275Y-110321928D01*
X120059727Y-110261680D01*
X120294759Y-110104637D01*
X120494637Y-109904759D01*
X120651680Y-109669727D01*
X120759853Y-109408574D01*
X120815000Y-109131335D01*
X120815000Y-108848665D01*
X120759853Y-108571426D01*
X120651680Y-108310273D01*
X120494637Y-108075241D01*
X120294759Y-107875363D01*
X120059727Y-107718320D01*
X119798574Y-107610147D01*
X119772699Y-107605000D01*
X119798574Y-107599853D01*
X120059727Y-107491680D01*
X120294759Y-107334637D01*
X120494637Y-107134759D01*
X120651680Y-106899727D01*
X120759853Y-106638574D01*
X120815000Y-106361335D01*
X120815000Y-106078665D01*
X120759853Y-105801426D01*
X120651680Y-105540273D01*
X120494637Y-105305241D01*
X120294759Y-105105363D01*
X120059727Y-104948320D01*
X119798574Y-104840147D01*
X119772699Y-104835000D01*
X119798574Y-104829853D01*
X120059727Y-104721680D01*
X120294759Y-104564637D01*
X120393396Y-104466000D01*
X125889160Y-104466000D01*
X125984000Y-104560841D01*
X125984001Y-106630088D01*
X125979085Y-106680000D01*
X125984001Y-106729912D01*
X125984000Y-120490098D01*
X125979085Y-120540000D01*
X125984000Y-120589901D01*
X125998702Y-120739170D01*
X126056798Y-120930686D01*
X126151140Y-121107190D01*
X126278104Y-121261896D01*
X126316872Y-121293712D01*
X126936292Y-121913133D01*
X126968104Y-121951896D01*
X127122810Y-122078860D01*
X127299313Y-122173202D01*
X127432732Y-122213674D01*
X127490828Y-122231298D01*
X127510177Y-122233204D01*
X127640098Y-122246000D01*
X127640105Y-122246000D01*
X127689999Y-122250914D01*
X127739893Y-122246000D01*
X133606604Y-122246000D01*
X133705241Y-122344637D01*
X133940273Y-122501680D01*
X134201426Y-122609853D01*
X134227301Y-122615000D01*
X134201426Y-122620147D01*
X133940273Y-122728320D01*
X133705241Y-122885363D01*
X133505363Y-123085241D01*
X133348320Y-123320273D01*
X133240147Y-123581426D01*
X133185000Y-123858665D01*
X133185000Y-124141335D01*
X133240147Y-124418574D01*
X133348320Y-124679727D01*
X133505363Y-124914759D01*
X133705241Y-125114637D01*
X133940273Y-125271680D01*
X134201426Y-125379853D01*
X134227301Y-125385000D01*
X134201426Y-125390147D01*
X133940273Y-125498320D01*
X133705241Y-125655363D01*
X133505363Y-125855241D01*
X133348320Y-126090273D01*
X133240147Y-126351426D01*
X133185000Y-126628665D01*
X133185000Y-126911335D01*
X133240147Y-127188574D01*
X133348320Y-127449727D01*
X133505363Y-127684759D01*
X133705241Y-127884637D01*
X133940273Y-128041680D01*
X134085725Y-128101928D01*
X133820000Y-128101928D01*
X133695518Y-128114188D01*
X133575820Y-128150498D01*
X133465506Y-128209463D01*
X133368815Y-128288815D01*
X133289463Y-128385506D01*
X133230498Y-128495820D01*
X133194188Y-128615518D01*
X133181928Y-128740000D01*
X133181928Y-130340000D01*
X133194188Y-130464482D01*
X133230498Y-130584180D01*
X133289463Y-130694494D01*
X133368815Y-130791185D01*
X133465506Y-130870537D01*
X133575820Y-130929502D01*
X133695518Y-130965812D01*
X133820000Y-130978072D01*
X135420000Y-130978072D01*
X135544482Y-130965812D01*
X135664180Y-130929502D01*
X135774494Y-130870537D01*
X135871185Y-130791185D01*
X135950537Y-130694494D01*
X136009502Y-130584180D01*
X136045812Y-130464482D01*
X136058072Y-130340000D01*
X136058072Y-128740000D01*
X136045812Y-128615518D01*
X136009502Y-128495820D01*
X135950537Y-128385506D01*
X135871185Y-128288815D01*
X135774494Y-128209463D01*
X135664180Y-128150498D01*
X135544482Y-128114188D01*
X135420000Y-128101928D01*
X135154275Y-128101928D01*
X135299727Y-128041680D01*
X135534759Y-127884637D01*
X135734637Y-127684759D01*
X135891680Y-127449727D01*
X135999853Y-127188574D01*
X136055000Y-126911335D01*
X136055000Y-126628665D01*
X135999853Y-126351426D01*
X135891680Y-126090273D01*
X135734637Y-125855241D01*
X135534759Y-125655363D01*
X135299727Y-125498320D01*
X135038574Y-125390147D01*
X135012699Y-125385000D01*
X135038574Y-125379853D01*
X135299727Y-125271680D01*
X135534759Y-125114637D01*
X135734637Y-124914759D01*
X135891680Y-124679727D01*
X135999853Y-124418574D01*
X136055000Y-124141335D01*
X136055000Y-123858665D01*
X135999853Y-123581426D01*
X135891680Y-123320273D01*
X135734637Y-123085241D01*
X135534759Y-122885363D01*
X135299727Y-122728320D01*
X135038574Y-122620147D01*
X135012699Y-122615000D01*
X135038574Y-122609853D01*
X135299727Y-122501680D01*
X135534759Y-122344637D01*
X135734637Y-122144759D01*
X135891680Y-121909727D01*
X135999853Y-121648574D01*
X136055000Y-121371335D01*
X136055000Y-121088665D01*
X135999853Y-120811426D01*
X135891680Y-120550273D01*
X135734637Y-120315241D01*
X135534759Y-120115363D01*
X135299727Y-119958320D01*
X135038574Y-119850147D01*
X135010118Y-119844487D01*
X135236292Y-119763603D01*
X135361514Y-119696671D01*
X135433097Y-119452702D01*
X134620000Y-118639605D01*
X133806903Y-119452702D01*
X133878486Y-119696671D01*
X134133996Y-119817571D01*
X134236289Y-119843212D01*
X134201426Y-119850147D01*
X133940273Y-119958320D01*
X133705241Y-120115363D01*
X133606604Y-120214000D01*
X128110841Y-120214000D01*
X128016000Y-120119160D01*
X128016000Y-118530512D01*
X133179783Y-118530512D01*
X133221213Y-118810130D01*
X133316397Y-119076292D01*
X133383329Y-119201514D01*
X133627298Y-119273097D01*
X134440395Y-118460000D01*
X134799605Y-118460000D01*
X135612702Y-119273097D01*
X135856671Y-119201514D01*
X135977571Y-118946004D01*
X136046300Y-118671816D01*
X136060217Y-118389488D01*
X136018787Y-118109870D01*
X135923603Y-117843708D01*
X135856671Y-117718486D01*
X135612702Y-117646903D01*
X134799605Y-118460000D01*
X134440395Y-118460000D01*
X133627298Y-117646903D01*
X133383329Y-117718486D01*
X133262429Y-117973996D01*
X133193700Y-118248184D01*
X133179783Y-118530512D01*
X128016000Y-118530512D01*
X128016000Y-117467298D01*
X133806903Y-117467298D01*
X134620000Y-118280395D01*
X135433097Y-117467298D01*
X135361514Y-117223329D01*
X135106004Y-117102429D01*
X134831816Y-117033700D01*
X134549488Y-117019783D01*
X134269870Y-117061213D01*
X134003708Y-117156397D01*
X133878486Y-117223329D01*
X133806903Y-117467298D01*
X128016000Y-117467298D01*
X128016000Y-113347499D01*
X134372106Y-113347499D01*
X134588228Y-113714258D01*
X135048105Y-113954938D01*
X135546098Y-114101275D01*
X136063071Y-114147648D01*
X136579159Y-114092273D01*
X137074526Y-113937279D01*
X137491772Y-113714258D01*
X137707894Y-113347499D01*
X136040000Y-111679605D01*
X134372106Y-113347499D01*
X128016000Y-113347499D01*
X128016000Y-111523071D01*
X133392352Y-111523071D01*
X133447727Y-112039159D01*
X133602721Y-112534526D01*
X133825742Y-112951772D01*
X134192501Y-113167894D01*
X135860395Y-111500000D01*
X136219605Y-111500000D01*
X137887499Y-113167894D01*
X138254258Y-112951772D01*
X138494938Y-112491895D01*
X138641275Y-111993902D01*
X138687648Y-111476929D01*
X138632273Y-110960841D01*
X138477279Y-110465474D01*
X138254258Y-110048228D01*
X137887499Y-109832106D01*
X136219605Y-111500000D01*
X135860395Y-111500000D01*
X134192501Y-109832106D01*
X133825742Y-110048228D01*
X133585062Y-110508105D01*
X133438725Y-111006098D01*
X133392352Y-111523071D01*
X128016000Y-111523071D01*
X128016000Y-109652501D01*
X134372106Y-109652501D01*
X136040000Y-111320395D01*
X137707894Y-109652501D01*
X137491772Y-109285742D01*
X137031895Y-109045062D01*
X136533902Y-108898725D01*
X136016929Y-108852352D01*
X135500841Y-108907727D01*
X135005474Y-109062721D01*
X134588228Y-109285742D01*
X134372106Y-109652501D01*
X128016000Y-109652501D01*
X128016000Y-107696000D01*
X143764000Y-107696000D01*
X143764001Y-113560088D01*
X143759085Y-113610000D01*
X143778702Y-113809170D01*
X143817564Y-113937279D01*
X143836799Y-114000687D01*
X143931141Y-114177190D01*
X144058105Y-114331896D01*
X144096868Y-114363708D01*
X150965000Y-121231841D01*
X150965000Y-121371335D01*
X151020147Y-121648574D01*
X151128320Y-121909727D01*
X151285363Y-122144759D01*
X151485241Y-122344637D01*
X151720273Y-122501680D01*
X151981426Y-122609853D01*
X152007301Y-122615000D01*
X151981426Y-122620147D01*
X151720273Y-122728320D01*
X151485241Y-122885363D01*
X151285363Y-123085241D01*
X151128320Y-123320273D01*
X151020147Y-123581426D01*
X150965000Y-123858665D01*
X150965000Y-124141335D01*
X151020147Y-124418574D01*
X151128320Y-124679727D01*
X151285363Y-124914759D01*
X151485241Y-125114637D01*
X151720273Y-125271680D01*
X151981426Y-125379853D01*
X152007301Y-125385000D01*
X151981426Y-125390147D01*
X151720273Y-125498320D01*
X151485241Y-125655363D01*
X151285363Y-125855241D01*
X151128320Y-126090273D01*
X151020147Y-126351426D01*
X150965000Y-126628665D01*
X150965000Y-126911335D01*
X151020147Y-127188574D01*
X151128320Y-127449727D01*
X151285363Y-127684759D01*
X151485241Y-127884637D01*
X151720273Y-128041680D01*
X151865725Y-128101928D01*
X151600000Y-128101928D01*
X151475518Y-128114188D01*
X151355820Y-128150498D01*
X151245506Y-128209463D01*
X151148815Y-128288815D01*
X151069463Y-128385506D01*
X151010498Y-128495820D01*
X150974188Y-128615518D01*
X150961928Y-128740000D01*
X150961928Y-130340000D01*
X150974188Y-130464482D01*
X151010498Y-130584180D01*
X151069463Y-130694494D01*
X151148815Y-130791185D01*
X151245506Y-130870537D01*
X151355820Y-130929502D01*
X151475518Y-130965812D01*
X151600000Y-130978072D01*
X153200000Y-130978072D01*
X153324482Y-130965812D01*
X153444180Y-130929502D01*
X153554494Y-130870537D01*
X153651185Y-130791185D01*
X153730537Y-130694494D01*
X153789502Y-130584180D01*
X153825812Y-130464482D01*
X153838072Y-130340000D01*
X153838072Y-128740000D01*
X153825812Y-128615518D01*
X153789502Y-128495820D01*
X153730537Y-128385506D01*
X153651185Y-128288815D01*
X153554494Y-128209463D01*
X153444180Y-128150498D01*
X153324482Y-128114188D01*
X153200000Y-128101928D01*
X152934275Y-128101928D01*
X153079727Y-128041680D01*
X153314759Y-127884637D01*
X153514637Y-127684759D01*
X153671680Y-127449727D01*
X153779853Y-127188574D01*
X153835000Y-126911335D01*
X153835000Y-126628665D01*
X153779853Y-126351426D01*
X153671680Y-126090273D01*
X153514637Y-125855241D01*
X153314759Y-125655363D01*
X153079727Y-125498320D01*
X152818574Y-125390147D01*
X152792699Y-125385000D01*
X152818574Y-125379853D01*
X153079727Y-125271680D01*
X153314759Y-125114637D01*
X153514637Y-124914759D01*
X153671680Y-124679727D01*
X153779853Y-124418574D01*
X153835000Y-124141335D01*
X153835000Y-123858665D01*
X153779853Y-123581426D01*
X153671680Y-123320273D01*
X153514637Y-123085241D01*
X153314759Y-122885363D01*
X153079727Y-122728320D01*
X152818574Y-122620147D01*
X152792699Y-122615000D01*
X152818574Y-122609853D01*
X153079727Y-122501680D01*
X153314759Y-122344637D01*
X153514637Y-122144759D01*
X153671680Y-121909727D01*
X153779853Y-121648574D01*
X153835000Y-121371335D01*
X153835000Y-121088665D01*
X153779853Y-120811426D01*
X153671680Y-120550273D01*
X153514637Y-120315241D01*
X153314759Y-120115363D01*
X153079727Y-119958320D01*
X152818574Y-119850147D01*
X152790118Y-119844487D01*
X153016292Y-119763603D01*
X153141514Y-119696671D01*
X153213097Y-119452702D01*
X152400000Y-118639605D01*
X152385858Y-118653748D01*
X152206253Y-118474143D01*
X152220395Y-118460000D01*
X152579605Y-118460000D01*
X153392702Y-119273097D01*
X153636671Y-119201514D01*
X153757571Y-118946004D01*
X153826300Y-118671816D01*
X153840217Y-118389488D01*
X153798787Y-118109870D01*
X153703603Y-117843708D01*
X153636671Y-117718486D01*
X153392702Y-117646903D01*
X152579605Y-118460000D01*
X152220395Y-118460000D01*
X151407298Y-117646903D01*
X151163329Y-117718486D01*
X151042429Y-117973996D01*
X150973700Y-118248184D01*
X150968125Y-118361284D01*
X150074139Y-117467298D01*
X151586903Y-117467298D01*
X152400000Y-118280395D01*
X153213097Y-117467298D01*
X153141514Y-117223329D01*
X152886004Y-117102429D01*
X152611816Y-117033700D01*
X152329488Y-117019783D01*
X152049870Y-117061213D01*
X151783708Y-117156397D01*
X151658486Y-117223329D01*
X151586903Y-117467298D01*
X150074139Y-117467298D01*
X145954340Y-113347499D01*
X152152106Y-113347499D01*
X152368228Y-113714258D01*
X152828105Y-113954938D01*
X153326098Y-114101275D01*
X153843071Y-114147648D01*
X154359159Y-114092273D01*
X154854526Y-113937279D01*
X155271772Y-113714258D01*
X155487894Y-113347499D01*
X153820000Y-111679605D01*
X152152106Y-113347499D01*
X145954340Y-113347499D01*
X145796000Y-113189160D01*
X145796000Y-111523071D01*
X151172352Y-111523071D01*
X151227727Y-112039159D01*
X151382721Y-112534526D01*
X151605742Y-112951772D01*
X151972501Y-113167894D01*
X153640395Y-111500000D01*
X153999605Y-111500000D01*
X155667499Y-113167894D01*
X156034258Y-112951772D01*
X156274938Y-112491895D01*
X156421275Y-111993902D01*
X156467648Y-111476929D01*
X156412273Y-110960841D01*
X156257279Y-110465474D01*
X156034258Y-110048228D01*
X155667499Y-109832106D01*
X153999605Y-111500000D01*
X153640395Y-111500000D01*
X151972501Y-109832106D01*
X151605742Y-110048228D01*
X151365062Y-110508105D01*
X151218725Y-111006098D01*
X151172352Y-111523071D01*
X145796000Y-111523071D01*
X145796000Y-109652501D01*
X152152106Y-109652501D01*
X153820000Y-111320395D01*
X155487894Y-109652501D01*
X155271772Y-109285742D01*
X154811895Y-109045062D01*
X154313902Y-108898725D01*
X153796929Y-108852352D01*
X153280841Y-108907727D01*
X152785474Y-109062721D01*
X152368228Y-109285742D01*
X152152106Y-109652501D01*
X145796000Y-109652501D01*
X145796000Y-106729902D01*
X145800915Y-106680000D01*
X145791929Y-106588770D01*
X146566292Y-107363133D01*
X146598104Y-107401896D01*
X146752810Y-107528860D01*
X146929313Y-107623202D01*
X147062732Y-107663674D01*
X147120828Y-107681298D01*
X147140177Y-107683204D01*
X147270098Y-107696000D01*
X147270105Y-107696000D01*
X147319999Y-107700914D01*
X147369893Y-107696000D01*
X157430098Y-107696000D01*
X157480000Y-107700915D01*
X157529902Y-107696000D01*
X157679171Y-107681298D01*
X157870687Y-107623202D01*
X158047190Y-107528860D01*
X158201896Y-107401896D01*
X158233712Y-107363128D01*
X159004000Y-106592840D01*
X159004001Y-127712160D01*
X156675000Y-125383160D01*
X156675000Y-125243665D01*
X156619853Y-124966426D01*
X156511680Y-124705273D01*
X156354637Y-124470241D01*
X156154759Y-124270363D01*
X155919727Y-124113320D01*
X155658574Y-124005147D01*
X155632699Y-124000000D01*
X155658574Y-123994853D01*
X155919727Y-123886680D01*
X156154759Y-123729637D01*
X156354637Y-123529759D01*
X156511680Y-123294727D01*
X156619853Y-123033574D01*
X156675000Y-122756335D01*
X156675000Y-122473665D01*
X156619853Y-122196426D01*
X156511680Y-121935273D01*
X156354637Y-121700241D01*
X156154759Y-121500363D01*
X155919727Y-121343320D01*
X155658574Y-121235147D01*
X155632699Y-121230000D01*
X155658574Y-121224853D01*
X155919727Y-121116680D01*
X156154759Y-120959637D01*
X156354637Y-120759759D01*
X156511680Y-120524727D01*
X156619853Y-120263574D01*
X156675000Y-119986335D01*
X156675000Y-119703665D01*
X156619853Y-119426426D01*
X156511680Y-119165273D01*
X156354637Y-118930241D01*
X156154759Y-118730363D01*
X155919727Y-118573320D01*
X155658574Y-118465147D01*
X155381335Y-118410000D01*
X155098665Y-118410000D01*
X154821426Y-118465147D01*
X154560273Y-118573320D01*
X154325241Y-118730363D01*
X154125363Y-118930241D01*
X153968320Y-119165273D01*
X153860147Y-119426426D01*
X153805000Y-119703665D01*
X153805000Y-119986335D01*
X153860147Y-120263574D01*
X153968320Y-120524727D01*
X154125363Y-120759759D01*
X154325241Y-120959637D01*
X154560273Y-121116680D01*
X154821426Y-121224853D01*
X154847301Y-121230000D01*
X154821426Y-121235147D01*
X154560273Y-121343320D01*
X154325241Y-121500363D01*
X154125363Y-121700241D01*
X153968320Y-121935273D01*
X153860147Y-122196426D01*
X153805000Y-122473665D01*
X153805000Y-122756335D01*
X153860147Y-123033574D01*
X153968320Y-123294727D01*
X154125363Y-123529759D01*
X154325241Y-123729637D01*
X154560273Y-123886680D01*
X154821426Y-123994853D01*
X154847301Y-124000000D01*
X154821426Y-124005147D01*
X154560273Y-124113320D01*
X154325241Y-124270363D01*
X154125363Y-124470241D01*
X153968320Y-124705273D01*
X153860147Y-124966426D01*
X153805000Y-125243665D01*
X153805000Y-125526335D01*
X153860147Y-125803574D01*
X153968320Y-126064727D01*
X154125363Y-126299759D01*
X154325241Y-126499637D01*
X154560273Y-126656680D01*
X154821426Y-126764853D01*
X154847301Y-126770000D01*
X154821426Y-126775147D01*
X154560273Y-126883320D01*
X154325241Y-127040363D01*
X154125363Y-127240241D01*
X153968320Y-127475273D01*
X153860147Y-127736426D01*
X153805000Y-128013665D01*
X153805000Y-128296335D01*
X153860147Y-128573574D01*
X153968320Y-128834727D01*
X154125363Y-129069759D01*
X154325241Y-129269637D01*
X154560273Y-129426680D01*
X154821426Y-129534853D01*
X155098665Y-129590000D01*
X155381335Y-129590000D01*
X155658574Y-129534853D01*
X155919727Y-129426680D01*
X156154759Y-129269637D01*
X156354637Y-129069759D01*
X156511680Y-128834727D01*
X156619853Y-128573574D01*
X156675000Y-128296335D01*
X156675000Y-128256840D01*
X159004001Y-130585842D01*
X159004000Y-139279159D01*
X157059160Y-141224000D01*
X147740841Y-141224000D01*
X145796000Y-139279160D01*
X145796000Y-138347499D01*
X152152106Y-138347499D01*
X152368228Y-138714258D01*
X152828105Y-138954938D01*
X153326098Y-139101275D01*
X153843071Y-139147648D01*
X154359159Y-139092273D01*
X154854526Y-138937279D01*
X155271772Y-138714258D01*
X155487894Y-138347499D01*
X153820000Y-136679605D01*
X152152106Y-138347499D01*
X145796000Y-138347499D01*
X145796000Y-136523071D01*
X151172352Y-136523071D01*
X151227727Y-137039159D01*
X151382721Y-137534526D01*
X151605742Y-137951772D01*
X151972501Y-138167894D01*
X153640395Y-136500000D01*
X153999605Y-136500000D01*
X155667499Y-138167894D01*
X156034258Y-137951772D01*
X156274938Y-137491895D01*
X156421275Y-136993902D01*
X156467648Y-136476929D01*
X156412273Y-135960841D01*
X156257279Y-135465474D01*
X156034258Y-135048228D01*
X155667499Y-134832106D01*
X153999605Y-136500000D01*
X153640395Y-136500000D01*
X151972501Y-134832106D01*
X151605742Y-135048228D01*
X151365062Y-135508105D01*
X151218725Y-136006098D01*
X151172352Y-136523071D01*
X145796000Y-136523071D01*
X145796000Y-134652501D01*
X152152106Y-134652501D01*
X153820000Y-136320395D01*
X155487894Y-134652501D01*
X155271772Y-134285742D01*
X154811895Y-134045062D01*
X154313902Y-133898725D01*
X153796929Y-133852352D01*
X153280841Y-133907727D01*
X152785474Y-134062721D01*
X152368228Y-134285742D01*
X152152106Y-134652501D01*
X145796000Y-134652501D01*
X145796000Y-127049902D01*
X145800915Y-127000000D01*
X145781298Y-126800829D01*
X145723202Y-126609312D01*
X145664579Y-126499637D01*
X145628860Y-126432810D01*
X145501896Y-126278104D01*
X145463133Y-126246292D01*
X143918712Y-124701872D01*
X143886896Y-124663104D01*
X143732190Y-124536140D01*
X143555687Y-124441798D01*
X143364171Y-124383702D01*
X143214902Y-124369000D01*
X143165000Y-124364085D01*
X143115098Y-124369000D01*
X138473396Y-124369000D01*
X138374759Y-124270363D01*
X138139727Y-124113320D01*
X137878574Y-124005147D01*
X137852699Y-124000000D01*
X137878574Y-123994853D01*
X138139727Y-123886680D01*
X138374759Y-123729637D01*
X138574637Y-123529759D01*
X138731680Y-123294727D01*
X138839853Y-123033574D01*
X138895000Y-122756335D01*
X138895000Y-122473665D01*
X138839853Y-122196426D01*
X138731680Y-121935273D01*
X138574637Y-121700241D01*
X138374759Y-121500363D01*
X138139727Y-121343320D01*
X137878574Y-121235147D01*
X137852699Y-121230000D01*
X137878574Y-121224853D01*
X138139727Y-121116680D01*
X138374759Y-120959637D01*
X138574637Y-120759759D01*
X138731680Y-120524727D01*
X138839853Y-120263574D01*
X138895000Y-119986335D01*
X138895000Y-119703665D01*
X138839853Y-119426426D01*
X138731680Y-119165273D01*
X138574637Y-118930241D01*
X138374759Y-118730363D01*
X138139727Y-118573320D01*
X137878574Y-118465147D01*
X137601335Y-118410000D01*
X137318665Y-118410000D01*
X137041426Y-118465147D01*
X136780273Y-118573320D01*
X136545241Y-118730363D01*
X136345363Y-118930241D01*
X136188320Y-119165273D01*
X136080147Y-119426426D01*
X136025000Y-119703665D01*
X136025000Y-119986335D01*
X136080147Y-120263574D01*
X136188320Y-120524727D01*
X136345363Y-120759759D01*
X136545241Y-120959637D01*
X136780273Y-121116680D01*
X137041426Y-121224853D01*
X137067301Y-121230000D01*
X137041426Y-121235147D01*
X136780273Y-121343320D01*
X136545241Y-121500363D01*
X136345363Y-121700241D01*
X136188320Y-121935273D01*
X136080147Y-122196426D01*
X136025000Y-122473665D01*
X136025000Y-122756335D01*
X136080147Y-123033574D01*
X136188320Y-123294727D01*
X136345363Y-123529759D01*
X136545241Y-123729637D01*
X136780273Y-123886680D01*
X137041426Y-123994853D01*
X137067301Y-124000000D01*
X137041426Y-124005147D01*
X136780273Y-124113320D01*
X136545241Y-124270363D01*
X136345363Y-124470241D01*
X136188320Y-124705273D01*
X136080147Y-124966426D01*
X136025000Y-125243665D01*
X136025000Y-125526335D01*
X136080147Y-125803574D01*
X136188320Y-126064727D01*
X136345363Y-126299759D01*
X136545241Y-126499637D01*
X136780273Y-126656680D01*
X137041426Y-126764853D01*
X137067301Y-126770000D01*
X137041426Y-126775147D01*
X136780273Y-126883320D01*
X136545241Y-127040363D01*
X136345363Y-127240241D01*
X136188320Y-127475273D01*
X136080147Y-127736426D01*
X136025000Y-128013665D01*
X136025000Y-128296335D01*
X136080147Y-128573574D01*
X136188320Y-128834727D01*
X136345363Y-129069759D01*
X136545241Y-129269637D01*
X136780273Y-129426680D01*
X137041426Y-129534853D01*
X137318665Y-129590000D01*
X137601335Y-129590000D01*
X137878574Y-129534853D01*
X138139727Y-129426680D01*
X138374759Y-129269637D01*
X138574637Y-129069759D01*
X138731680Y-128834727D01*
X138839853Y-128573574D01*
X138895000Y-128296335D01*
X138895000Y-128013665D01*
X138839853Y-127736426D01*
X138731680Y-127475273D01*
X138574637Y-127240241D01*
X138374759Y-127040363D01*
X138139727Y-126883320D01*
X137878574Y-126775147D01*
X137852699Y-126770000D01*
X137878574Y-126764853D01*
X138139727Y-126656680D01*
X138374759Y-126499637D01*
X138473396Y-126401000D01*
X142744160Y-126401000D01*
X143764000Y-127420841D01*
X143764001Y-139650088D01*
X143759085Y-139700000D01*
X143778702Y-139899170D01*
X143778703Y-139899172D01*
X143836799Y-140090687D01*
X143931141Y-140267190D01*
X144058105Y-140421896D01*
X144096868Y-140453708D01*
X144867160Y-141224000D01*
X129960841Y-141224000D01*
X127084340Y-138347499D01*
X134372106Y-138347499D01*
X134588228Y-138714258D01*
X135048105Y-138954938D01*
X135546098Y-139101275D01*
X136063071Y-139147648D01*
X136579159Y-139092273D01*
X137074526Y-138937279D01*
X137491772Y-138714258D01*
X137707894Y-138347499D01*
X136040000Y-136679605D01*
X134372106Y-138347499D01*
X127084340Y-138347499D01*
X125476000Y-136739160D01*
X125476000Y-136523071D01*
X133392352Y-136523071D01*
X133447727Y-137039159D01*
X133602721Y-137534526D01*
X133825742Y-137951772D01*
X134192501Y-138167894D01*
X135860395Y-136500000D01*
X136219605Y-136500000D01*
X137887499Y-138167894D01*
X138254258Y-137951772D01*
X138494938Y-137491895D01*
X138641275Y-136993902D01*
X138687648Y-136476929D01*
X138632273Y-135960841D01*
X138477279Y-135465474D01*
X138254258Y-135048228D01*
X137887499Y-134832106D01*
X136219605Y-136500000D01*
X135860395Y-136500000D01*
X134192501Y-134832106D01*
X133825742Y-135048228D01*
X133585062Y-135508105D01*
X133438725Y-136006098D01*
X133392352Y-136523071D01*
X125476000Y-136523071D01*
X125476000Y-134652501D01*
X134372106Y-134652501D01*
X136040000Y-136320395D01*
X137707894Y-134652501D01*
X137491772Y-134285742D01*
X137031895Y-134045062D01*
X136533902Y-133898725D01*
X136016929Y-133852352D01*
X135500841Y-133907727D01*
X135005474Y-134062721D01*
X134588228Y-134285742D01*
X134372106Y-134652501D01*
X125476000Y-134652501D01*
X125476000Y-129089784D01*
X125480915Y-129039882D01*
X125461298Y-128840711D01*
X125403202Y-128649195D01*
X125362782Y-128573574D01*
X125308860Y-128472692D01*
X125181896Y-128317986D01*
X125143133Y-128286174D01*
X118201201Y-121344243D01*
X118499159Y-121312273D01*
X118994526Y-121157279D01*
X119411772Y-120934258D01*
X119627894Y-120567499D01*
X117960000Y-118899605D01*
X117945858Y-118913748D01*
X117766253Y-118734143D01*
X117780395Y-118720000D01*
X118139605Y-118720000D01*
X119807499Y-120387894D01*
X120174258Y-120171772D01*
X120414938Y-119711895D01*
X120561275Y-119213902D01*
X120607648Y-118696929D01*
X120552273Y-118180841D01*
X120397279Y-117685474D01*
X120174258Y-117268228D01*
X119807499Y-117052106D01*
X118139605Y-118720000D01*
X117780395Y-118720000D01*
X116112501Y-117052106D01*
X115745742Y-117268228D01*
X115505062Y-117728105D01*
X115358725Y-118226098D01*
X115336033Y-118479075D01*
X115316000Y-118459042D01*
X115316000Y-116872501D01*
X116292106Y-116872501D01*
X117960000Y-118540395D01*
X119627894Y-116872501D01*
X119411772Y-116505742D01*
X118951895Y-116265062D01*
X118453902Y-116118725D01*
X117936929Y-116072352D01*
X117420841Y-116127727D01*
X116925474Y-116282721D01*
X116508228Y-116505742D01*
X116292106Y-116872501D01*
X115316000Y-116872501D01*
X115316000Y-111126085D01*
X115425363Y-111289759D01*
X115625241Y-111489637D01*
X115860273Y-111646680D01*
X116121426Y-111754853D01*
X116398665Y-111810000D01*
X116681335Y-111810000D01*
X116958574Y-111754853D01*
X117219727Y-111646680D01*
X117454759Y-111489637D01*
X117654637Y-111289759D01*
X117811680Y-111054727D01*
X117919853Y-110793574D01*
X117975000Y-110516335D01*
X117975000Y-110233665D01*
X117919853Y-109956426D01*
X117811680Y-109695273D01*
X117654637Y-109460241D01*
X117454759Y-109260363D01*
X117219727Y-109103320D01*
X116958574Y-108995147D01*
X116932699Y-108990000D01*
X116958574Y-108984853D01*
X117219727Y-108876680D01*
X117454759Y-108719637D01*
X117654637Y-108519759D01*
X117811680Y-108284727D01*
X117919853Y-108023574D01*
X117975000Y-107746335D01*
X117975000Y-107463665D01*
X117919853Y-107186426D01*
X117811680Y-106925273D01*
X117654637Y-106690241D01*
X117454759Y-106490363D01*
X117219727Y-106333320D01*
X116958574Y-106225147D01*
X116932699Y-106220000D01*
X116958574Y-106214853D01*
X117219727Y-106106680D01*
X117454759Y-105949637D01*
X117654637Y-105749759D01*
X117811680Y-105514727D01*
X117919853Y-105253574D01*
X117975000Y-104976335D01*
X117975000Y-104693665D01*
X117919853Y-104416426D01*
X117811680Y-104155273D01*
X117654637Y-103920241D01*
X117454759Y-103720363D01*
X117219727Y-103563320D01*
X116958574Y-103455147D01*
X116932699Y-103450000D01*
X116958574Y-103444853D01*
X117219727Y-103336680D01*
X117454759Y-103179637D01*
X117654637Y-102979759D01*
X117811680Y-102744727D01*
X117919853Y-102483574D01*
X117975000Y-102206335D01*
X117975000Y-101923665D01*
X117919853Y-101646426D01*
X117811680Y-101385273D01*
X117654637Y-101150241D01*
X117454759Y-100950363D01*
X117219727Y-100793320D01*
X117116380Y-100750512D01*
X117939783Y-100750512D01*
X117981213Y-101030130D01*
X118076397Y-101296292D01*
X118143329Y-101421514D01*
X118387298Y-101493097D01*
X119200395Y-100680000D01*
X119559605Y-100680000D01*
X120372702Y-101493097D01*
X120616671Y-101421514D01*
X120737571Y-101166004D01*
X120806300Y-100891816D01*
X120820217Y-100609488D01*
X120778787Y-100329870D01*
X120683603Y-100063708D01*
X120616671Y-99938486D01*
X120372702Y-99866903D01*
X119559605Y-100680000D01*
X119200395Y-100680000D01*
X118387298Y-99866903D01*
X118143329Y-99938486D01*
X118022429Y-100193996D01*
X117953700Y-100468184D01*
X117939783Y-100750512D01*
X117116380Y-100750512D01*
X116958574Y-100685147D01*
X116681335Y-100630000D01*
X116398665Y-100630000D01*
X116121426Y-100685147D01*
X115860273Y-100793320D01*
X115625241Y-100950363D01*
X115425363Y-101150241D01*
X115268320Y-101385273D01*
X115160147Y-101646426D01*
X115105000Y-101923665D01*
X115105000Y-102206335D01*
X115160147Y-102483574D01*
X115268320Y-102744727D01*
X115425363Y-102979759D01*
X115625241Y-103179637D01*
X115860273Y-103336680D01*
X116121426Y-103444853D01*
X116147301Y-103450000D01*
X116121426Y-103455147D01*
X115860273Y-103563320D01*
X115625241Y-103720363D01*
X115425363Y-103920241D01*
X115268320Y-104155273D01*
X115160147Y-104416426D01*
X115105000Y-104693665D01*
X115105000Y-104976335D01*
X115160147Y-105253574D01*
X115268320Y-105514727D01*
X115425363Y-105749759D01*
X115625241Y-105949637D01*
X115860273Y-106106680D01*
X116121426Y-106214853D01*
X116147301Y-106220000D01*
X116121426Y-106225147D01*
X115860273Y-106333320D01*
X115625241Y-106490363D01*
X115425363Y-106690241D01*
X115268320Y-106925273D01*
X115160147Y-107186426D01*
X115105000Y-107463665D01*
X115105000Y-107603159D01*
X113616872Y-109091288D01*
X113578104Y-109123104D01*
X113451140Y-109277810D01*
X113356798Y-109454314D01*
X113298702Y-109645829D01*
X113298702Y-109645830D01*
X113279085Y-109845000D01*
X107340000Y-109845000D01*
X107340000Y-99687298D01*
X118566903Y-99687298D01*
X119380000Y-100500395D01*
X120193097Y-99687298D01*
X120121514Y-99443329D01*
X119866004Y-99322429D01*
X119591816Y-99253700D01*
X119309488Y-99239783D01*
X119029870Y-99281213D01*
X118763708Y-99376397D01*
X118638486Y-99443329D01*
X118566903Y-99687298D01*
X107340000Y-99687298D01*
X107340000Y-95567499D01*
X116292106Y-95567499D01*
X116508228Y-95934258D01*
X116968105Y-96174938D01*
X117466098Y-96321275D01*
X117983071Y-96367648D01*
X118499159Y-96312273D01*
X118994526Y-96157279D01*
X119411772Y-95934258D01*
X119627894Y-95567499D01*
X117960000Y-93899605D01*
X116292106Y-95567499D01*
X107340000Y-95567499D01*
X107340000Y-93743071D01*
X115312352Y-93743071D01*
X115367727Y-94259159D01*
X115522721Y-94754526D01*
X115745742Y-95171772D01*
X116112501Y-95387894D01*
X117780395Y-93720000D01*
X118139605Y-93720000D01*
X119807499Y-95387894D01*
X120174258Y-95171772D01*
X120414938Y-94711895D01*
X120561275Y-94213902D01*
X120607648Y-93696929D01*
X120552273Y-93180841D01*
X120397279Y-92685474D01*
X120174258Y-92268228D01*
X119807499Y-92052106D01*
X118139605Y-93720000D01*
X117780395Y-93720000D01*
X116112501Y-92052106D01*
X115745742Y-92268228D01*
X115505062Y-92728105D01*
X115358725Y-93226098D01*
X115312352Y-93743071D01*
X107340000Y-93743071D01*
X107340000Y-91872501D01*
X116292106Y-91872501D01*
X117960000Y-93540395D01*
X119627894Y-91872501D01*
X119411772Y-91505742D01*
X118951895Y-91265062D01*
X118453902Y-91118725D01*
X117936929Y-91072352D01*
X117420841Y-91127727D01*
X116925474Y-91282721D01*
X116508228Y-91505742D01*
X116292106Y-91872501D01*
X107340000Y-91872501D01*
X107340000Y-81553380D01*
X109539911Y-79353469D01*
X109362335Y-79782176D01*
X109165000Y-80774247D01*
X109165000Y-81785753D01*
X109362335Y-82777824D01*
X109749422Y-83712335D01*
X110311385Y-84553372D01*
X111026628Y-85268615D01*
X111867665Y-85830578D01*
X112802176Y-86217665D01*
X113794247Y-86415000D01*
X114805753Y-86415000D01*
X115797824Y-86217665D01*
X116732335Y-85830578D01*
X117573372Y-85268615D01*
X118288615Y-84553372D01*
X118850578Y-83712335D01*
X119237665Y-82777824D01*
X119435000Y-81785753D01*
X119435000Y-80774247D01*
X119237665Y-79782176D01*
X118850578Y-78847665D01*
X118288615Y-78006628D01*
X117573372Y-77291385D01*
X116732335Y-76729422D01*
X115797824Y-76342335D01*
X114805753Y-76145000D01*
X113794247Y-76145000D01*
X112802176Y-76342335D01*
X112373469Y-76519911D01*
X122193381Y-66700000D01*
X172060000Y-66700000D01*
X172060000Y-78652241D01*
G37*
X172060000Y-78652241D02*
X171628615Y-78006628D01*
X170913372Y-77291385D01*
X170072335Y-76729422D01*
X169137824Y-76342335D01*
X168145753Y-76145000D01*
X167134247Y-76145000D01*
X166142176Y-76342335D01*
X165207665Y-76729422D01*
X164366628Y-77291385D01*
X163651385Y-78006628D01*
X163089422Y-78847665D01*
X162702335Y-79782176D01*
X162505000Y-80774247D01*
X162505000Y-81785753D01*
X162702335Y-82777824D01*
X163089422Y-83712335D01*
X163651385Y-84553372D01*
X164366628Y-85268615D01*
X165207665Y-85830578D01*
X166142176Y-86217665D01*
X167134247Y-86415000D01*
X168145753Y-86415000D01*
X169137824Y-86217665D01*
X170072335Y-85830578D01*
X170913372Y-85268615D01*
X171628615Y-84553372D01*
X172060000Y-83907758D01*
X172060001Y-129452242D01*
X171628615Y-128806628D01*
X170913372Y-128091385D01*
X170072335Y-127529422D01*
X169137824Y-127142335D01*
X168145753Y-126945000D01*
X167134247Y-126945000D01*
X166142176Y-127142335D01*
X165207665Y-127529422D01*
X164366628Y-128091385D01*
X163651385Y-128806628D01*
X163089422Y-129647665D01*
X162702335Y-130582176D01*
X162505000Y-131574247D01*
X162505000Y-132585753D01*
X162702335Y-133577824D01*
X163089422Y-134512335D01*
X163651385Y-135353372D01*
X164366628Y-136068615D01*
X165207665Y-136630578D01*
X166142176Y-137017665D01*
X167134247Y-137215000D01*
X168145753Y-137215000D01*
X169137824Y-137017665D01*
X170072335Y-136630578D01*
X170913372Y-136068615D01*
X171628615Y-135353372D01*
X172060001Y-134707758D01*
X172060001Y-146660000D01*
X122193381Y-146660000D01*
X112373469Y-136840089D01*
X112802176Y-137017665D01*
X113794247Y-137215000D01*
X114805753Y-137215000D01*
X115797824Y-137017665D01*
X116732335Y-136630578D01*
X117573372Y-136068615D01*
X118288615Y-135353372D01*
X118850578Y-134512335D01*
X119237665Y-133577824D01*
X119435000Y-132585753D01*
X119435000Y-131574247D01*
X119237665Y-130582176D01*
X118850578Y-129647665D01*
X118288615Y-128806628D01*
X117573372Y-128091385D01*
X116732335Y-127529422D01*
X115797824Y-127142335D01*
X114805753Y-126945000D01*
X113794247Y-126945000D01*
X112802176Y-127142335D01*
X111867665Y-127529422D01*
X111026628Y-128091385D01*
X110311385Y-128806628D01*
X109749422Y-129647665D01*
X109362335Y-130582176D01*
X109165000Y-131574247D01*
X109165000Y-132585753D01*
X109362335Y-133577824D01*
X109539911Y-134006531D01*
X107340000Y-131806620D01*
X107340000Y-109845000D01*
X113279085Y-109845000D01*
X113284000Y-109894902D01*
X113284001Y-118829970D01*
X113279085Y-118879882D01*
X113298702Y-119079052D01*
X113335851Y-119201514D01*
X113356799Y-119270569D01*
X113451141Y-119447072D01*
X113578105Y-119601778D01*
X113616868Y-119633590D01*
X123444000Y-129460723D01*
X123444001Y-137110088D01*
X123439085Y-137160000D01*
X123458702Y-137359170D01*
X123511897Y-137534526D01*
X123516799Y-137550687D01*
X123611141Y-137727190D01*
X123738105Y-137881896D01*
X123776868Y-137913708D01*
X128786292Y-142923133D01*
X128818104Y-142961896D01*
X128972810Y-143088860D01*
X129087832Y-143150340D01*
X129149312Y-143183202D01*
X129340829Y-143241298D01*
X129540000Y-143260915D01*
X129589902Y-143256000D01*
X147270105Y-143256000D01*
X147319999Y-143260914D01*
X147369893Y-143256000D01*
X157430098Y-143256000D01*
X157480000Y-143260915D01*
X157529902Y-143256000D01*
X157679171Y-143241298D01*
X157870687Y-143183202D01*
X158047190Y-143088860D01*
X158201896Y-142961896D01*
X158233712Y-142923128D01*
X160703133Y-140453708D01*
X160741896Y-140421896D01*
X160868860Y-140267190D01*
X160963202Y-140090687D01*
X161021298Y-139899171D01*
X161036000Y-139749902D01*
X161036000Y-139749895D01*
X161040914Y-139700001D01*
X161036000Y-139650107D01*
X161036000Y-130214902D01*
X161040915Y-130165000D01*
X161036000Y-130115098D01*
X161036000Y-104189895D01*
X161040914Y-104140001D01*
X161036000Y-104090107D01*
X161036000Y-94654902D01*
X161040915Y-94605000D01*
X161021298Y-94405829D01*
X160963202Y-94214313D01*
X160962982Y-94213902D01*
X160868860Y-94037810D01*
X160741896Y-93883104D01*
X160703133Y-93851292D01*
X156675000Y-89823160D01*
X156675000Y-89683665D01*
X156619853Y-89406426D01*
X156511680Y-89145273D01*
X156354637Y-88910241D01*
X156154759Y-88710363D01*
X155919727Y-88553320D01*
X155658574Y-88445147D01*
X155632699Y-88440000D01*
X155658574Y-88434853D01*
X155919727Y-88326680D01*
X156154759Y-88169637D01*
X156354637Y-87969759D01*
X156511680Y-87734727D01*
X156619853Y-87473574D01*
X156675000Y-87196335D01*
X156675000Y-86913665D01*
X156619853Y-86636426D01*
X156511680Y-86375273D01*
X156354637Y-86140241D01*
X156154759Y-85940363D01*
X155919727Y-85783320D01*
X155658574Y-85675147D01*
X155632699Y-85670000D01*
X155658574Y-85664853D01*
X155919727Y-85556680D01*
X156154759Y-85399637D01*
X156354637Y-85199759D01*
X156511680Y-84964727D01*
X156619853Y-84703574D01*
X156675000Y-84426335D01*
X156675000Y-84143665D01*
X156619853Y-83866426D01*
X156511680Y-83605273D01*
X156354637Y-83370241D01*
X156154759Y-83170363D01*
X155919727Y-83013320D01*
X155658574Y-82905147D01*
X155381335Y-82850000D01*
X155098665Y-82850000D01*
X154821426Y-82905147D01*
X154560273Y-83013320D01*
X154325241Y-83170363D01*
X154125363Y-83370241D01*
X153968320Y-83605273D01*
X153860147Y-83866426D01*
X153805000Y-84143665D01*
X153805000Y-84426335D01*
X153860147Y-84703574D01*
X153968320Y-84964727D01*
X154125363Y-85199759D01*
X154325241Y-85399637D01*
X154560273Y-85556680D01*
X154821426Y-85664853D01*
X154847301Y-85670000D01*
X154821426Y-85675147D01*
X154560273Y-85783320D01*
X154325241Y-85940363D01*
X154125363Y-86140241D01*
X153968320Y-86375273D01*
X153860147Y-86636426D01*
X153805000Y-86913665D01*
X153805000Y-87196335D01*
X153860147Y-87473574D01*
X153968320Y-87734727D01*
X154125363Y-87969759D01*
X154325241Y-88169637D01*
X154560273Y-88326680D01*
X154821426Y-88434853D01*
X154847301Y-88440000D01*
X154821426Y-88445147D01*
X154560273Y-88553320D01*
X154325241Y-88710363D01*
X154125363Y-88910241D01*
X153968320Y-89145273D01*
X153860147Y-89406426D01*
X153805000Y-89683665D01*
X153805000Y-89966335D01*
X153860147Y-90243574D01*
X153968320Y-90504727D01*
X154125363Y-90739759D01*
X154325241Y-90939637D01*
X154560273Y-91096680D01*
X154821426Y-91204853D01*
X154847301Y-91210000D01*
X154821426Y-91215147D01*
X154560273Y-91323320D01*
X154325241Y-91480363D01*
X154125363Y-91680241D01*
X153968320Y-91915273D01*
X153860147Y-92176426D01*
X153805000Y-92453665D01*
X153805000Y-92736335D01*
X153860147Y-93013574D01*
X153968320Y-93274727D01*
X154125363Y-93509759D01*
X154325241Y-93709637D01*
X154560273Y-93866680D01*
X154821426Y-93974853D01*
X155098665Y-94030000D01*
X155381335Y-94030000D01*
X155658574Y-93974853D01*
X155919727Y-93866680D01*
X156154759Y-93709637D01*
X156354637Y-93509759D01*
X156511680Y-93274727D01*
X156619853Y-93013574D01*
X156675000Y-92736335D01*
X156675000Y-92696840D01*
X159004001Y-95025842D01*
X159004000Y-103719159D01*
X157059160Y-105664000D01*
X147740841Y-105664000D01*
X145796000Y-103719160D01*
X145796000Y-102787499D01*
X152152106Y-102787499D01*
X152368228Y-103154258D01*
X152828105Y-103394938D01*
X153326098Y-103541275D01*
X153843071Y-103587648D01*
X154359159Y-103532273D01*
X154854526Y-103377279D01*
X155271772Y-103154258D01*
X155487894Y-102787499D01*
X153820000Y-101119605D01*
X152152106Y-102787499D01*
X145796000Y-102787499D01*
X145796000Y-100963071D01*
X151172352Y-100963071D01*
X151227727Y-101479159D01*
X151382721Y-101974526D01*
X151605742Y-102391772D01*
X151972501Y-102607894D01*
X153640395Y-100940000D01*
X153999605Y-100940000D01*
X155667499Y-102607894D01*
X156034258Y-102391772D01*
X156274938Y-101931895D01*
X156421275Y-101433902D01*
X156467648Y-100916929D01*
X156412273Y-100400841D01*
X156257279Y-99905474D01*
X156034258Y-99488228D01*
X155667499Y-99272106D01*
X153999605Y-100940000D01*
X153640395Y-100940000D01*
X151972501Y-99272106D01*
X151605742Y-99488228D01*
X151365062Y-99948105D01*
X151218725Y-100446098D01*
X151172352Y-100963071D01*
X145796000Y-100963071D01*
X145796000Y-99092501D01*
X152152106Y-99092501D01*
X153820000Y-100760395D01*
X155487894Y-99092501D01*
X155271772Y-98725742D01*
X154811895Y-98485062D01*
X154313902Y-98338725D01*
X153796929Y-98292352D01*
X153280841Y-98347727D01*
X152785474Y-98502721D01*
X152368228Y-98725742D01*
X152152106Y-99092501D01*
X145796000Y-99092501D01*
X145796000Y-90799902D01*
X145800915Y-90750000D01*
X145781298Y-90550829D01*
X145723202Y-90359313D01*
X145628860Y-90182810D01*
X145533706Y-90066865D01*
X145501896Y-90028104D01*
X145463133Y-89996292D01*
X144608712Y-89141872D01*
X144576896Y-89103104D01*
X144422190Y-88976140D01*
X144245687Y-88881798D01*
X144054171Y-88823702D01*
X143904902Y-88809000D01*
X143855000Y-88804085D01*
X143805098Y-88809000D01*
X138473396Y-88809000D01*
X138374759Y-88710363D01*
X138139727Y-88553320D01*
X137878574Y-88445147D01*
X137852699Y-88440000D01*
X137878574Y-88434853D01*
X138139727Y-88326680D01*
X138374759Y-88169637D01*
X138574637Y-87969759D01*
X138731680Y-87734727D01*
X138839853Y-87473574D01*
X138895000Y-87196335D01*
X138895000Y-86913665D01*
X138839853Y-86636426D01*
X138731680Y-86375273D01*
X138574637Y-86140241D01*
X138374759Y-85940363D01*
X138139727Y-85783320D01*
X137878574Y-85675147D01*
X137852699Y-85670000D01*
X137878574Y-85664853D01*
X138139727Y-85556680D01*
X138374759Y-85399637D01*
X138574637Y-85199759D01*
X138731680Y-84964727D01*
X138839853Y-84703574D01*
X138895000Y-84426335D01*
X138895000Y-84143665D01*
X138839853Y-83866426D01*
X138731680Y-83605273D01*
X138574637Y-83370241D01*
X138374759Y-83170363D01*
X138139727Y-83013320D01*
X137878574Y-82905147D01*
X137601335Y-82850000D01*
X137318665Y-82850000D01*
X137041426Y-82905147D01*
X136780273Y-83013320D01*
X136545241Y-83170363D01*
X136345363Y-83370241D01*
X136188320Y-83605273D01*
X136080147Y-83866426D01*
X136025000Y-84143665D01*
X136025000Y-84426335D01*
X136080147Y-84703574D01*
X136188320Y-84964727D01*
X136345363Y-85199759D01*
X136545241Y-85399637D01*
X136780273Y-85556680D01*
X137041426Y-85664853D01*
X137067301Y-85670000D01*
X137041426Y-85675147D01*
X136780273Y-85783320D01*
X136545241Y-85940363D01*
X136345363Y-86140241D01*
X136188320Y-86375273D01*
X136080147Y-86636426D01*
X136025000Y-86913665D01*
X136025000Y-87196335D01*
X136080147Y-87473574D01*
X136188320Y-87734727D01*
X136345363Y-87969759D01*
X136545241Y-88169637D01*
X136780273Y-88326680D01*
X137041426Y-88434853D01*
X137067301Y-88440000D01*
X137041426Y-88445147D01*
X136780273Y-88553320D01*
X136545241Y-88710363D01*
X136345363Y-88910241D01*
X136188320Y-89145273D01*
X136080147Y-89406426D01*
X136025000Y-89683665D01*
X136025000Y-89966335D01*
X136080147Y-90243574D01*
X136188320Y-90504727D01*
X136345363Y-90739759D01*
X136545241Y-90939637D01*
X136780273Y-91096680D01*
X137041426Y-91204853D01*
X137067301Y-91210000D01*
X137041426Y-91215147D01*
X136780273Y-91323320D01*
X136545241Y-91480363D01*
X136345363Y-91680241D01*
X136188320Y-91915273D01*
X136080147Y-92176426D01*
X136025000Y-92453665D01*
X136025000Y-92736335D01*
X136080147Y-93013574D01*
X136188320Y-93274727D01*
X136345363Y-93509759D01*
X136545241Y-93709637D01*
X136780273Y-93866680D01*
X137041426Y-93974853D01*
X137318665Y-94030000D01*
X137601335Y-94030000D01*
X137878574Y-93974853D01*
X138139727Y-93866680D01*
X138374759Y-93709637D01*
X138574637Y-93509759D01*
X138731680Y-93274727D01*
X138839853Y-93013574D01*
X138895000Y-92736335D01*
X138895000Y-92453665D01*
X138839853Y-92176426D01*
X138731680Y-91915273D01*
X138574637Y-91680241D01*
X138374759Y-91480363D01*
X138139727Y-91323320D01*
X137878574Y-91215147D01*
X137852699Y-91210000D01*
X137878574Y-91204853D01*
X138139727Y-91096680D01*
X138374759Y-90939637D01*
X138473396Y-90841000D01*
X143434160Y-90841000D01*
X143764000Y-91170841D01*
X143764001Y-104090088D01*
X143759085Y-104140000D01*
X143778702Y-104339170D01*
X143817176Y-104466000D01*
X143836799Y-104530687D01*
X143931141Y-104707190D01*
X144058105Y-104861896D01*
X144096866Y-104893706D01*
X144871230Y-105668071D01*
X144829902Y-105664000D01*
X144780000Y-105659085D01*
X144730098Y-105664000D01*
X128016000Y-105664000D01*
X128016000Y-104189893D01*
X128020914Y-104139999D01*
X128016000Y-104090105D01*
X128016000Y-102787499D01*
X134372106Y-102787499D01*
X134588228Y-103154258D01*
X135048105Y-103394938D01*
X135546098Y-103541275D01*
X136063071Y-103587648D01*
X136579159Y-103532273D01*
X137074526Y-103377279D01*
X137491772Y-103154258D01*
X137707894Y-102787499D01*
X136040000Y-101119605D01*
X134372106Y-102787499D01*
X128016000Y-102787499D01*
X128016000Y-100963071D01*
X133392352Y-100963071D01*
X133447727Y-101479159D01*
X133602721Y-101974526D01*
X133825742Y-102391772D01*
X134192501Y-102607894D01*
X135860395Y-100940000D01*
X136219605Y-100940000D01*
X137887499Y-102607894D01*
X138254258Y-102391772D01*
X138494938Y-101931895D01*
X138641275Y-101433902D01*
X138687648Y-100916929D01*
X138632273Y-100400841D01*
X138477279Y-99905474D01*
X138254258Y-99488228D01*
X137887499Y-99272106D01*
X136219605Y-100940000D01*
X135860395Y-100940000D01*
X134192501Y-99272106D01*
X133825742Y-99488228D01*
X133585062Y-99948105D01*
X133438725Y-100446098D01*
X133392352Y-100963071D01*
X128016000Y-100963071D01*
X128016000Y-99092501D01*
X134372106Y-99092501D01*
X136040000Y-100760395D01*
X137707894Y-99092501D01*
X137491772Y-98725742D01*
X137031895Y-98485062D01*
X136533902Y-98338725D01*
X136016929Y-98292352D01*
X135500841Y-98347727D01*
X135005474Y-98502721D01*
X134588228Y-98725742D01*
X134372106Y-99092501D01*
X128016000Y-99092501D01*
X128016000Y-86686000D01*
X133606604Y-86686000D01*
X133705241Y-86784637D01*
X133940273Y-86941680D01*
X134201426Y-87049853D01*
X134227301Y-87055000D01*
X134201426Y-87060147D01*
X133940273Y-87168320D01*
X133705241Y-87325363D01*
X133505363Y-87525241D01*
X133348320Y-87760273D01*
X133240147Y-88021426D01*
X133185000Y-88298665D01*
X133185000Y-88581335D01*
X133240147Y-88858574D01*
X133348320Y-89119727D01*
X133505363Y-89354759D01*
X133705241Y-89554637D01*
X133940273Y-89711680D01*
X134201426Y-89819853D01*
X134227301Y-89825000D01*
X134201426Y-89830147D01*
X133940273Y-89938320D01*
X133705241Y-90095363D01*
X133505363Y-90295241D01*
X133348320Y-90530273D01*
X133240147Y-90791426D01*
X133185000Y-91068665D01*
X133185000Y-91351335D01*
X133240147Y-91628574D01*
X133348320Y-91889727D01*
X133505363Y-92124759D01*
X133705241Y-92324637D01*
X133940273Y-92481680D01*
X134085725Y-92541928D01*
X133820000Y-92541928D01*
X133695518Y-92554188D01*
X133575820Y-92590498D01*
X133465506Y-92649463D01*
X133368815Y-92728815D01*
X133289463Y-92825506D01*
X133230498Y-92935820D01*
X133194188Y-93055518D01*
X133181928Y-93180000D01*
X133181928Y-94780000D01*
X133194188Y-94904482D01*
X133230498Y-95024180D01*
X133289463Y-95134494D01*
X133368815Y-95231185D01*
X133465506Y-95310537D01*
X133575820Y-95369502D01*
X133695518Y-95405812D01*
X133820000Y-95418072D01*
X135420000Y-95418072D01*
X135544482Y-95405812D01*
X135664180Y-95369502D01*
X135774494Y-95310537D01*
X135871185Y-95231185D01*
X135950537Y-95134494D01*
X136009502Y-95024180D01*
X136045812Y-94904482D01*
X136058072Y-94780000D01*
X136058072Y-93180000D01*
X136045812Y-93055518D01*
X136009502Y-92935820D01*
X135950537Y-92825506D01*
X135871185Y-92728815D01*
X135774494Y-92649463D01*
X135664180Y-92590498D01*
X135544482Y-92554188D01*
X135420000Y-92541928D01*
X135154275Y-92541928D01*
X135299727Y-92481680D01*
X135534759Y-92324637D01*
X135734637Y-92124759D01*
X135891680Y-91889727D01*
X135999853Y-91628574D01*
X136055000Y-91351335D01*
X136055000Y-91068665D01*
X135999853Y-90791426D01*
X135891680Y-90530273D01*
X135734637Y-90295241D01*
X135534759Y-90095363D01*
X135299727Y-89938320D01*
X135038574Y-89830147D01*
X135012699Y-89825000D01*
X135038574Y-89819853D01*
X135299727Y-89711680D01*
X135534759Y-89554637D01*
X135734637Y-89354759D01*
X135891680Y-89119727D01*
X135999853Y-88858574D01*
X136055000Y-88581335D01*
X136055000Y-88298665D01*
X135999853Y-88021426D01*
X135891680Y-87760273D01*
X135734637Y-87525241D01*
X135534759Y-87325363D01*
X135299727Y-87168320D01*
X135038574Y-87060147D01*
X135012699Y-87055000D01*
X135038574Y-87049853D01*
X135299727Y-86941680D01*
X135534759Y-86784637D01*
X135734637Y-86584759D01*
X135891680Y-86349727D01*
X135999853Y-86088574D01*
X136055000Y-85811335D01*
X136055000Y-85528665D01*
X135999853Y-85251426D01*
X135891680Y-84990273D01*
X135734637Y-84755241D01*
X135534759Y-84555363D01*
X135299727Y-84398320D01*
X135038574Y-84290147D01*
X135010118Y-84284487D01*
X135236292Y-84203603D01*
X135361514Y-84136671D01*
X135433097Y-83892702D01*
X134620000Y-83079605D01*
X133806903Y-83892702D01*
X133878486Y-84136671D01*
X134133996Y-84257571D01*
X134236289Y-84283212D01*
X134201426Y-84290147D01*
X133940273Y-84398320D01*
X133705241Y-84555363D01*
X133606604Y-84654000D01*
X128110841Y-84654000D01*
X128016000Y-84559160D01*
X128016000Y-82970512D01*
X133179783Y-82970512D01*
X133221213Y-83250130D01*
X133316397Y-83516292D01*
X133383329Y-83641514D01*
X133627298Y-83713097D01*
X134440395Y-82900000D01*
X134799605Y-82900000D01*
X135612702Y-83713097D01*
X135856671Y-83641514D01*
X135977571Y-83386004D01*
X136046300Y-83111816D01*
X136060217Y-82829488D01*
X136018787Y-82549870D01*
X135923603Y-82283708D01*
X135856671Y-82158486D01*
X135612702Y-82086903D01*
X134799605Y-82900000D01*
X134440395Y-82900000D01*
X133627298Y-82086903D01*
X133383329Y-82158486D01*
X133262429Y-82413996D01*
X133193700Y-82688184D01*
X133179783Y-82970512D01*
X128016000Y-82970512D01*
X128016000Y-81907298D01*
X133806903Y-81907298D01*
X134620000Y-82720395D01*
X135433097Y-81907298D01*
X135361514Y-81663329D01*
X135106004Y-81542429D01*
X134831816Y-81473700D01*
X134549488Y-81459783D01*
X134269870Y-81501213D01*
X134003708Y-81596397D01*
X133878486Y-81663329D01*
X133806903Y-81907298D01*
X128016000Y-81907298D01*
X128016000Y-77787499D01*
X134372106Y-77787499D01*
X134588228Y-78154258D01*
X135048105Y-78394938D01*
X135546098Y-78541275D01*
X136063071Y-78587648D01*
X136579159Y-78532273D01*
X137074526Y-78377279D01*
X137491772Y-78154258D01*
X137707894Y-77787499D01*
X136040000Y-76119605D01*
X134372106Y-77787499D01*
X128016000Y-77787499D01*
X128016000Y-75963071D01*
X133392352Y-75963071D01*
X133447727Y-76479159D01*
X133602721Y-76974526D01*
X133825742Y-77391772D01*
X134192501Y-77607894D01*
X135860395Y-75940000D01*
X136219605Y-75940000D01*
X137887499Y-77607894D01*
X138254258Y-77391772D01*
X138494938Y-76931895D01*
X138641275Y-76433902D01*
X138687648Y-75916929D01*
X138632273Y-75400841D01*
X138477279Y-74905474D01*
X138254258Y-74488228D01*
X137887499Y-74272106D01*
X136219605Y-75940000D01*
X135860395Y-75940000D01*
X134192501Y-74272106D01*
X133825742Y-74488228D01*
X133585062Y-74948105D01*
X133438725Y-75446098D01*
X133392352Y-75963071D01*
X128016000Y-75963071D01*
X128016000Y-74092501D01*
X134372106Y-74092501D01*
X136040000Y-75760395D01*
X137707894Y-74092501D01*
X137491772Y-73725742D01*
X137031895Y-73485062D01*
X136533902Y-73338725D01*
X136016929Y-73292352D01*
X135500841Y-73347727D01*
X135005474Y-73502721D01*
X134588228Y-73725742D01*
X134372106Y-74092501D01*
X128016000Y-74092501D01*
X128016000Y-72136000D01*
X143764000Y-72136000D01*
X143764001Y-78000088D01*
X143759085Y-78050000D01*
X143778702Y-78249170D01*
X143817564Y-78377279D01*
X143836799Y-78440687D01*
X143931141Y-78617190D01*
X144058105Y-78771896D01*
X144096868Y-78803708D01*
X150965000Y-85671841D01*
X150965000Y-85811335D01*
X151020147Y-86088574D01*
X151128320Y-86349727D01*
X151285363Y-86584759D01*
X151485241Y-86784637D01*
X151720273Y-86941680D01*
X151981426Y-87049853D01*
X152007301Y-87055000D01*
X151981426Y-87060147D01*
X151720273Y-87168320D01*
X151485241Y-87325363D01*
X151285363Y-87525241D01*
X151128320Y-87760273D01*
X151020147Y-88021426D01*
X150965000Y-88298665D01*
X150965000Y-88581335D01*
X151020147Y-88858574D01*
X151128320Y-89119727D01*
X151285363Y-89354759D01*
X151485241Y-89554637D01*
X151720273Y-89711680D01*
X151981426Y-89819853D01*
X152007301Y-89825000D01*
X151981426Y-89830147D01*
X151720273Y-89938320D01*
X151485241Y-90095363D01*
X151285363Y-90295241D01*
X151128320Y-90530273D01*
X151020147Y-90791426D01*
X150965000Y-91068665D01*
X150965000Y-91351335D01*
X151020147Y-91628574D01*
X151128320Y-91889727D01*
X151285363Y-92124759D01*
X151485241Y-92324637D01*
X151720273Y-92481680D01*
X151865725Y-92541928D01*
X151600000Y-92541928D01*
X151475518Y-92554188D01*
X151355820Y-92590498D01*
X151245506Y-92649463D01*
X151148815Y-92728815D01*
X151069463Y-92825506D01*
X151010498Y-92935820D01*
X150974188Y-93055518D01*
X150961928Y-93180000D01*
X150961928Y-94780000D01*
X150974188Y-94904482D01*
X151010498Y-95024180D01*
X151069463Y-95134494D01*
X151148815Y-95231185D01*
X151245506Y-95310537D01*
X151355820Y-95369502D01*
X151475518Y-95405812D01*
X151600000Y-95418072D01*
X153200000Y-95418072D01*
X153324482Y-95405812D01*
X153444180Y-95369502D01*
X153554494Y-95310537D01*
X153651185Y-95231185D01*
X153730537Y-95134494D01*
X153789502Y-95024180D01*
X153825812Y-94904482D01*
X153838072Y-94780000D01*
X153838072Y-93180000D01*
X153825812Y-93055518D01*
X153789502Y-92935820D01*
X153730537Y-92825506D01*
X153651185Y-92728815D01*
X153554494Y-92649463D01*
X153444180Y-92590498D01*
X153324482Y-92554188D01*
X153200000Y-92541928D01*
X152934275Y-92541928D01*
X153079727Y-92481680D01*
X153314759Y-92324637D01*
X153514637Y-92124759D01*
X153671680Y-91889727D01*
X153779853Y-91628574D01*
X153835000Y-91351335D01*
X153835000Y-91068665D01*
X153779853Y-90791426D01*
X153671680Y-90530273D01*
X153514637Y-90295241D01*
X153314759Y-90095363D01*
X153079727Y-89938320D01*
X152818574Y-89830147D01*
X152792699Y-89825000D01*
X152818574Y-89819853D01*
X153079727Y-89711680D01*
X153314759Y-89554637D01*
X153514637Y-89354759D01*
X153671680Y-89119727D01*
X153779853Y-88858574D01*
X153835000Y-88581335D01*
X153835000Y-88298665D01*
X153779853Y-88021426D01*
X153671680Y-87760273D01*
X153514637Y-87525241D01*
X153314759Y-87325363D01*
X153079727Y-87168320D01*
X152818574Y-87060147D01*
X152792699Y-87055000D01*
X152818574Y-87049853D01*
X153079727Y-86941680D01*
X153314759Y-86784637D01*
X153514637Y-86584759D01*
X153671680Y-86349727D01*
X153779853Y-86088574D01*
X153835000Y-85811335D01*
X153835000Y-85528665D01*
X153779853Y-85251426D01*
X153671680Y-84990273D01*
X153514637Y-84755241D01*
X153314759Y-84555363D01*
X153079727Y-84398320D01*
X152818574Y-84290147D01*
X152790118Y-84284487D01*
X153016292Y-84203603D01*
X153141514Y-84136671D01*
X153213097Y-83892702D01*
X152400000Y-83079605D01*
X152385858Y-83093748D01*
X152206253Y-82914143D01*
X152220395Y-82900000D01*
X152579605Y-82900000D01*
X153392702Y-83713097D01*
X153636671Y-83641514D01*
X153757571Y-83386004D01*
X153826300Y-83111816D01*
X153840217Y-82829488D01*
X153798787Y-82549870D01*
X153703603Y-82283708D01*
X153636671Y-82158486D01*
X153392702Y-82086903D01*
X152579605Y-82900000D01*
X152220395Y-82900000D01*
X151407298Y-82086903D01*
X151163329Y-82158486D01*
X151042429Y-82413996D01*
X150973700Y-82688184D01*
X150968125Y-82801284D01*
X150074139Y-81907298D01*
X151586903Y-81907298D01*
X152400000Y-82720395D01*
X153213097Y-81907298D01*
X153141514Y-81663329D01*
X152886004Y-81542429D01*
X152611816Y-81473700D01*
X152329488Y-81459783D01*
X152049870Y-81501213D01*
X151783708Y-81596397D01*
X151658486Y-81663329D01*
X151586903Y-81907298D01*
X150074139Y-81907298D01*
X145954340Y-77787499D01*
X152152106Y-77787499D01*
X152368228Y-78154258D01*
X152828105Y-78394938D01*
X153326098Y-78541275D01*
X153843071Y-78587648D01*
X154359159Y-78532273D01*
X154854526Y-78377279D01*
X155271772Y-78154258D01*
X155487894Y-77787499D01*
X153820000Y-76119605D01*
X152152106Y-77787499D01*
X145954340Y-77787499D01*
X145796000Y-77629160D01*
X145796000Y-75963071D01*
X151172352Y-75963071D01*
X151227727Y-76479159D01*
X151382721Y-76974526D01*
X151605742Y-77391772D01*
X151972501Y-77607894D01*
X153640395Y-75940000D01*
X153999605Y-75940000D01*
X155667499Y-77607894D01*
X156034258Y-77391772D01*
X156274938Y-76931895D01*
X156421275Y-76433902D01*
X156467648Y-75916929D01*
X156412273Y-75400841D01*
X156257279Y-74905474D01*
X156034258Y-74488228D01*
X155667499Y-74272106D01*
X153999605Y-75940000D01*
X153640395Y-75940000D01*
X151972501Y-74272106D01*
X151605742Y-74488228D01*
X151365062Y-74948105D01*
X151218725Y-75446098D01*
X151172352Y-75963071D01*
X145796000Y-75963071D01*
X145796000Y-74092501D01*
X152152106Y-74092501D01*
X153820000Y-75760395D01*
X155487894Y-74092501D01*
X155271772Y-73725742D01*
X154811895Y-73485062D01*
X154313902Y-73338725D01*
X153796929Y-73292352D01*
X153280841Y-73347727D01*
X152785474Y-73502721D01*
X152368228Y-73725742D01*
X152152106Y-74092501D01*
X145796000Y-74092501D01*
X145796000Y-71169902D01*
X145800915Y-71120000D01*
X145781298Y-70920829D01*
X145723202Y-70729313D01*
X145628860Y-70552810D01*
X145501896Y-70398104D01*
X145347190Y-70271140D01*
X145170687Y-70176798D01*
X144979171Y-70118702D01*
X144829902Y-70104000D01*
X144780000Y-70099085D01*
X144730098Y-70104000D01*
X127049902Y-70104000D01*
X127000000Y-70099085D01*
X126950098Y-70104000D01*
X126800829Y-70118702D01*
X126609313Y-70176798D01*
X126432810Y-70271140D01*
X126278104Y-70398104D01*
X126151140Y-70552810D01*
X126056798Y-70729313D01*
X125998702Y-70920829D01*
X125979085Y-71120000D01*
X125984001Y-71169912D01*
X125984000Y-84930098D01*
X125979085Y-84980000D01*
X125984000Y-85029901D01*
X125984001Y-102434000D01*
X120393396Y-102434000D01*
X120294759Y-102335363D01*
X120059727Y-102178320D01*
X119798574Y-102070147D01*
X119770118Y-102064487D01*
X119996292Y-101983603D01*
X120121514Y-101916671D01*
X120193097Y-101672702D01*
X119380000Y-100859605D01*
X118566903Y-101672702D01*
X118638486Y-101916671D01*
X118893996Y-102037571D01*
X118996289Y-102063212D01*
X118961426Y-102070147D01*
X118700273Y-102178320D01*
X118465241Y-102335363D01*
X118265363Y-102535241D01*
X118108320Y-102770273D01*
X118000147Y-103031426D01*
X117945000Y-103308665D01*
X117945000Y-103591335D01*
X118000147Y-103868574D01*
X118108320Y-104129727D01*
X118265363Y-104364759D01*
X118465241Y-104564637D01*
X118700273Y-104721680D01*
X118961426Y-104829853D01*
X118987301Y-104835000D01*
X118961426Y-104840147D01*
X118700273Y-104948320D01*
X118465241Y-105105363D01*
X118265363Y-105305241D01*
X118108320Y-105540273D01*
X118000147Y-105801426D01*
X117945000Y-106078665D01*
X117945000Y-106361335D01*
X118000147Y-106638574D01*
X118108320Y-106899727D01*
X118265363Y-107134759D01*
X118465241Y-107334637D01*
X118700273Y-107491680D01*
X118961426Y-107599853D01*
X118987301Y-107605000D01*
X118961426Y-107610147D01*
X118700273Y-107718320D01*
X118465241Y-107875363D01*
X118265363Y-108075241D01*
X118108320Y-108310273D01*
X118000147Y-108571426D01*
X117945000Y-108848665D01*
X117945000Y-109131335D01*
X118000147Y-109408574D01*
X118108320Y-109669727D01*
X118265363Y-109904759D01*
X118465241Y-110104637D01*
X118700273Y-110261680D01*
X118845725Y-110321928D01*
X118580000Y-110321928D01*
X118455518Y-110334188D01*
X118335820Y-110370498D01*
X118225506Y-110429463D01*
X118128815Y-110508815D01*
X118049463Y-110605506D01*
X117990498Y-110715820D01*
X117954188Y-110835518D01*
X117941928Y-110960000D01*
X117941928Y-112560000D01*
X117954188Y-112684482D01*
X117990498Y-112804180D01*
X118049463Y-112914494D01*
X118128815Y-113011185D01*
X118225506Y-113090537D01*
X118335820Y-113149502D01*
X118455518Y-113185812D01*
X118580000Y-113198072D01*
X120180000Y-113198072D01*
X120304482Y-113185812D01*
X120424180Y-113149502D01*
X120534494Y-113090537D01*
X120631185Y-113011185D01*
X120710537Y-112914494D01*
X120769502Y-112804180D01*
X120805812Y-112684482D01*
X120818072Y-112560000D01*
X120818072Y-110960000D01*
X120805812Y-110835518D01*
X120769502Y-110715820D01*
X120710537Y-110605506D01*
X120631185Y-110508815D01*
X120534494Y-110429463D01*
X120424180Y-110370498D01*
X120304482Y-110334188D01*
X120180000Y-110321928D01*
X119914275Y-110321928D01*
X120059727Y-110261680D01*
X120294759Y-110104637D01*
X120494637Y-109904759D01*
X120651680Y-109669727D01*
X120759853Y-109408574D01*
X120815000Y-109131335D01*
X120815000Y-108848665D01*
X120759853Y-108571426D01*
X120651680Y-108310273D01*
X120494637Y-108075241D01*
X120294759Y-107875363D01*
X120059727Y-107718320D01*
X119798574Y-107610147D01*
X119772699Y-107605000D01*
X119798574Y-107599853D01*
X120059727Y-107491680D01*
X120294759Y-107334637D01*
X120494637Y-107134759D01*
X120651680Y-106899727D01*
X120759853Y-106638574D01*
X120815000Y-106361335D01*
X120815000Y-106078665D01*
X120759853Y-105801426D01*
X120651680Y-105540273D01*
X120494637Y-105305241D01*
X120294759Y-105105363D01*
X120059727Y-104948320D01*
X119798574Y-104840147D01*
X119772699Y-104835000D01*
X119798574Y-104829853D01*
X120059727Y-104721680D01*
X120294759Y-104564637D01*
X120393396Y-104466000D01*
X125889160Y-104466000D01*
X125984000Y-104560841D01*
X125984001Y-106630088D01*
X125979085Y-106680000D01*
X125984001Y-106729912D01*
X125984000Y-120490098D01*
X125979085Y-120540000D01*
X125984000Y-120589901D01*
X125998702Y-120739170D01*
X126056798Y-120930686D01*
X126151140Y-121107190D01*
X126278104Y-121261896D01*
X126316872Y-121293712D01*
X126936292Y-121913133D01*
X126968104Y-121951896D01*
X127122810Y-122078860D01*
X127299313Y-122173202D01*
X127432732Y-122213674D01*
X127490828Y-122231298D01*
X127510177Y-122233204D01*
X127640098Y-122246000D01*
X127640105Y-122246000D01*
X127689999Y-122250914D01*
X127739893Y-122246000D01*
X133606604Y-122246000D01*
X133705241Y-122344637D01*
X133940273Y-122501680D01*
X134201426Y-122609853D01*
X134227301Y-122615000D01*
X134201426Y-122620147D01*
X133940273Y-122728320D01*
X133705241Y-122885363D01*
X133505363Y-123085241D01*
X133348320Y-123320273D01*
X133240147Y-123581426D01*
X133185000Y-123858665D01*
X133185000Y-124141335D01*
X133240147Y-124418574D01*
X133348320Y-124679727D01*
X133505363Y-124914759D01*
X133705241Y-125114637D01*
X133940273Y-125271680D01*
X134201426Y-125379853D01*
X134227301Y-125385000D01*
X134201426Y-125390147D01*
X133940273Y-125498320D01*
X133705241Y-125655363D01*
X133505363Y-125855241D01*
X133348320Y-126090273D01*
X133240147Y-126351426D01*
X133185000Y-126628665D01*
X133185000Y-126911335D01*
X133240147Y-127188574D01*
X133348320Y-127449727D01*
X133505363Y-127684759D01*
X133705241Y-127884637D01*
X133940273Y-128041680D01*
X134085725Y-128101928D01*
X133820000Y-128101928D01*
X133695518Y-128114188D01*
X133575820Y-128150498D01*
X133465506Y-128209463D01*
X133368815Y-128288815D01*
X133289463Y-128385506D01*
X133230498Y-128495820D01*
X133194188Y-128615518D01*
X133181928Y-128740000D01*
X133181928Y-130340000D01*
X133194188Y-130464482D01*
X133230498Y-130584180D01*
X133289463Y-130694494D01*
X133368815Y-130791185D01*
X133465506Y-130870537D01*
X133575820Y-130929502D01*
X133695518Y-130965812D01*
X133820000Y-130978072D01*
X135420000Y-130978072D01*
X135544482Y-130965812D01*
X135664180Y-130929502D01*
X135774494Y-130870537D01*
X135871185Y-130791185D01*
X135950537Y-130694494D01*
X136009502Y-130584180D01*
X136045812Y-130464482D01*
X136058072Y-130340000D01*
X136058072Y-128740000D01*
X136045812Y-128615518D01*
X136009502Y-128495820D01*
X135950537Y-128385506D01*
X135871185Y-128288815D01*
X135774494Y-128209463D01*
X135664180Y-128150498D01*
X135544482Y-128114188D01*
X135420000Y-128101928D01*
X135154275Y-128101928D01*
X135299727Y-128041680D01*
X135534759Y-127884637D01*
X135734637Y-127684759D01*
X135891680Y-127449727D01*
X135999853Y-127188574D01*
X136055000Y-126911335D01*
X136055000Y-126628665D01*
X135999853Y-126351426D01*
X135891680Y-126090273D01*
X135734637Y-125855241D01*
X135534759Y-125655363D01*
X135299727Y-125498320D01*
X135038574Y-125390147D01*
X135012699Y-125385000D01*
X135038574Y-125379853D01*
X135299727Y-125271680D01*
X135534759Y-125114637D01*
X135734637Y-124914759D01*
X135891680Y-124679727D01*
X135999853Y-124418574D01*
X136055000Y-124141335D01*
X136055000Y-123858665D01*
X135999853Y-123581426D01*
X135891680Y-123320273D01*
X135734637Y-123085241D01*
X135534759Y-122885363D01*
X135299727Y-122728320D01*
X135038574Y-122620147D01*
X135012699Y-122615000D01*
X135038574Y-122609853D01*
X135299727Y-122501680D01*
X135534759Y-122344637D01*
X135734637Y-122144759D01*
X135891680Y-121909727D01*
X135999853Y-121648574D01*
X136055000Y-121371335D01*
X136055000Y-121088665D01*
X135999853Y-120811426D01*
X135891680Y-120550273D01*
X135734637Y-120315241D01*
X135534759Y-120115363D01*
X135299727Y-119958320D01*
X135038574Y-119850147D01*
X135010118Y-119844487D01*
X135236292Y-119763603D01*
X135361514Y-119696671D01*
X135433097Y-119452702D01*
X134620000Y-118639605D01*
X133806903Y-119452702D01*
X133878486Y-119696671D01*
X134133996Y-119817571D01*
X134236289Y-119843212D01*
X134201426Y-119850147D01*
X133940273Y-119958320D01*
X133705241Y-120115363D01*
X133606604Y-120214000D01*
X128110841Y-120214000D01*
X128016000Y-120119160D01*
X128016000Y-118530512D01*
X133179783Y-118530512D01*
X133221213Y-118810130D01*
X133316397Y-119076292D01*
X133383329Y-119201514D01*
X133627298Y-119273097D01*
X134440395Y-118460000D01*
X134799605Y-118460000D01*
X135612702Y-119273097D01*
X135856671Y-119201514D01*
X135977571Y-118946004D01*
X136046300Y-118671816D01*
X136060217Y-118389488D01*
X136018787Y-118109870D01*
X135923603Y-117843708D01*
X135856671Y-117718486D01*
X135612702Y-117646903D01*
X134799605Y-118460000D01*
X134440395Y-118460000D01*
X133627298Y-117646903D01*
X133383329Y-117718486D01*
X133262429Y-117973996D01*
X133193700Y-118248184D01*
X133179783Y-118530512D01*
X128016000Y-118530512D01*
X128016000Y-117467298D01*
X133806903Y-117467298D01*
X134620000Y-118280395D01*
X135433097Y-117467298D01*
X135361514Y-117223329D01*
X135106004Y-117102429D01*
X134831816Y-117033700D01*
X134549488Y-117019783D01*
X134269870Y-117061213D01*
X134003708Y-117156397D01*
X133878486Y-117223329D01*
X133806903Y-117467298D01*
X128016000Y-117467298D01*
X128016000Y-113347499D01*
X134372106Y-113347499D01*
X134588228Y-113714258D01*
X135048105Y-113954938D01*
X135546098Y-114101275D01*
X136063071Y-114147648D01*
X136579159Y-114092273D01*
X137074526Y-113937279D01*
X137491772Y-113714258D01*
X137707894Y-113347499D01*
X136040000Y-111679605D01*
X134372106Y-113347499D01*
X128016000Y-113347499D01*
X128016000Y-111523071D01*
X133392352Y-111523071D01*
X133447727Y-112039159D01*
X133602721Y-112534526D01*
X133825742Y-112951772D01*
X134192501Y-113167894D01*
X135860395Y-111500000D01*
X136219605Y-111500000D01*
X137887499Y-113167894D01*
X138254258Y-112951772D01*
X138494938Y-112491895D01*
X138641275Y-111993902D01*
X138687648Y-111476929D01*
X138632273Y-110960841D01*
X138477279Y-110465474D01*
X138254258Y-110048228D01*
X137887499Y-109832106D01*
X136219605Y-111500000D01*
X135860395Y-111500000D01*
X134192501Y-109832106D01*
X133825742Y-110048228D01*
X133585062Y-110508105D01*
X133438725Y-111006098D01*
X133392352Y-111523071D01*
X128016000Y-111523071D01*
X128016000Y-109652501D01*
X134372106Y-109652501D01*
X136040000Y-111320395D01*
X137707894Y-109652501D01*
X137491772Y-109285742D01*
X137031895Y-109045062D01*
X136533902Y-108898725D01*
X136016929Y-108852352D01*
X135500841Y-108907727D01*
X135005474Y-109062721D01*
X134588228Y-109285742D01*
X134372106Y-109652501D01*
X128016000Y-109652501D01*
X128016000Y-107696000D01*
X143764000Y-107696000D01*
X143764001Y-113560088D01*
X143759085Y-113610000D01*
X143778702Y-113809170D01*
X143817564Y-113937279D01*
X143836799Y-114000687D01*
X143931141Y-114177190D01*
X144058105Y-114331896D01*
X144096868Y-114363708D01*
X150965000Y-121231841D01*
X150965000Y-121371335D01*
X151020147Y-121648574D01*
X151128320Y-121909727D01*
X151285363Y-122144759D01*
X151485241Y-122344637D01*
X151720273Y-122501680D01*
X151981426Y-122609853D01*
X152007301Y-122615000D01*
X151981426Y-122620147D01*
X151720273Y-122728320D01*
X151485241Y-122885363D01*
X151285363Y-123085241D01*
X151128320Y-123320273D01*
X151020147Y-123581426D01*
X150965000Y-123858665D01*
X150965000Y-124141335D01*
X151020147Y-124418574D01*
X151128320Y-124679727D01*
X151285363Y-124914759D01*
X151485241Y-125114637D01*
X151720273Y-125271680D01*
X151981426Y-125379853D01*
X152007301Y-125385000D01*
X151981426Y-125390147D01*
X151720273Y-125498320D01*
X151485241Y-125655363D01*
X151285363Y-125855241D01*
X151128320Y-126090273D01*
X151020147Y-126351426D01*
X150965000Y-126628665D01*
X150965000Y-126911335D01*
X151020147Y-127188574D01*
X151128320Y-127449727D01*
X151285363Y-127684759D01*
X151485241Y-127884637D01*
X151720273Y-128041680D01*
X151865725Y-128101928D01*
X151600000Y-128101928D01*
X151475518Y-128114188D01*
X151355820Y-128150498D01*
X151245506Y-128209463D01*
X151148815Y-128288815D01*
X151069463Y-128385506D01*
X151010498Y-128495820D01*
X150974188Y-128615518D01*
X150961928Y-128740000D01*
X150961928Y-130340000D01*
X150974188Y-130464482D01*
X151010498Y-130584180D01*
X151069463Y-130694494D01*
X151148815Y-130791185D01*
X151245506Y-130870537D01*
X151355820Y-130929502D01*
X151475518Y-130965812D01*
X151600000Y-130978072D01*
X153200000Y-130978072D01*
X153324482Y-130965812D01*
X153444180Y-130929502D01*
X153554494Y-130870537D01*
X153651185Y-130791185D01*
X153730537Y-130694494D01*
X153789502Y-130584180D01*
X153825812Y-130464482D01*
X153838072Y-130340000D01*
X153838072Y-128740000D01*
X153825812Y-128615518D01*
X153789502Y-128495820D01*
X153730537Y-128385506D01*
X153651185Y-128288815D01*
X153554494Y-128209463D01*
X153444180Y-128150498D01*
X153324482Y-128114188D01*
X153200000Y-128101928D01*
X152934275Y-128101928D01*
X153079727Y-128041680D01*
X153314759Y-127884637D01*
X153514637Y-127684759D01*
X153671680Y-127449727D01*
X153779853Y-127188574D01*
X153835000Y-126911335D01*
X153835000Y-126628665D01*
X153779853Y-126351426D01*
X153671680Y-126090273D01*
X153514637Y-125855241D01*
X153314759Y-125655363D01*
X153079727Y-125498320D01*
X152818574Y-125390147D01*
X152792699Y-125385000D01*
X152818574Y-125379853D01*
X153079727Y-125271680D01*
X153314759Y-125114637D01*
X153514637Y-124914759D01*
X153671680Y-124679727D01*
X153779853Y-124418574D01*
X153835000Y-124141335D01*
X153835000Y-123858665D01*
X153779853Y-123581426D01*
X153671680Y-123320273D01*
X153514637Y-123085241D01*
X153314759Y-122885363D01*
X153079727Y-122728320D01*
X152818574Y-122620147D01*
X152792699Y-122615000D01*
X152818574Y-122609853D01*
X153079727Y-122501680D01*
X153314759Y-122344637D01*
X153514637Y-122144759D01*
X153671680Y-121909727D01*
X153779853Y-121648574D01*
X153835000Y-121371335D01*
X153835000Y-121088665D01*
X153779853Y-120811426D01*
X153671680Y-120550273D01*
X153514637Y-120315241D01*
X153314759Y-120115363D01*
X153079727Y-119958320D01*
X152818574Y-119850147D01*
X152790118Y-119844487D01*
X153016292Y-119763603D01*
X153141514Y-119696671D01*
X153213097Y-119452702D01*
X152400000Y-118639605D01*
X152385858Y-118653748D01*
X152206253Y-118474143D01*
X152220395Y-118460000D01*
X152579605Y-118460000D01*
X153392702Y-119273097D01*
X153636671Y-119201514D01*
X153757571Y-118946004D01*
X153826300Y-118671816D01*
X153840217Y-118389488D01*
X153798787Y-118109870D01*
X153703603Y-117843708D01*
X153636671Y-117718486D01*
X153392702Y-117646903D01*
X152579605Y-118460000D01*
X152220395Y-118460000D01*
X151407298Y-117646903D01*
X151163329Y-117718486D01*
X151042429Y-117973996D01*
X150973700Y-118248184D01*
X150968125Y-118361284D01*
X150074139Y-117467298D01*
X151586903Y-117467298D01*
X152400000Y-118280395D01*
X153213097Y-117467298D01*
X153141514Y-117223329D01*
X152886004Y-117102429D01*
X152611816Y-117033700D01*
X152329488Y-117019783D01*
X152049870Y-117061213D01*
X151783708Y-117156397D01*
X151658486Y-117223329D01*
X151586903Y-117467298D01*
X150074139Y-117467298D01*
X145954340Y-113347499D01*
X152152106Y-113347499D01*
X152368228Y-113714258D01*
X152828105Y-113954938D01*
X153326098Y-114101275D01*
X153843071Y-114147648D01*
X154359159Y-114092273D01*
X154854526Y-113937279D01*
X155271772Y-113714258D01*
X155487894Y-113347499D01*
X153820000Y-111679605D01*
X152152106Y-113347499D01*
X145954340Y-113347499D01*
X145796000Y-113189160D01*
X145796000Y-111523071D01*
X151172352Y-111523071D01*
X151227727Y-112039159D01*
X151382721Y-112534526D01*
X151605742Y-112951772D01*
X151972501Y-113167894D01*
X153640395Y-111500000D01*
X153999605Y-111500000D01*
X155667499Y-113167894D01*
X156034258Y-112951772D01*
X156274938Y-112491895D01*
X156421275Y-111993902D01*
X156467648Y-111476929D01*
X156412273Y-110960841D01*
X156257279Y-110465474D01*
X156034258Y-110048228D01*
X155667499Y-109832106D01*
X153999605Y-111500000D01*
X153640395Y-111500000D01*
X151972501Y-109832106D01*
X151605742Y-110048228D01*
X151365062Y-110508105D01*
X151218725Y-111006098D01*
X151172352Y-111523071D01*
X145796000Y-111523071D01*
X145796000Y-109652501D01*
X152152106Y-109652501D01*
X153820000Y-111320395D01*
X155487894Y-109652501D01*
X155271772Y-109285742D01*
X154811895Y-109045062D01*
X154313902Y-108898725D01*
X153796929Y-108852352D01*
X153280841Y-108907727D01*
X152785474Y-109062721D01*
X152368228Y-109285742D01*
X152152106Y-109652501D01*
X145796000Y-109652501D01*
X145796000Y-106729902D01*
X145800915Y-106680000D01*
X145791929Y-106588770D01*
X146566292Y-107363133D01*
X146598104Y-107401896D01*
X146752810Y-107528860D01*
X146929313Y-107623202D01*
X147062732Y-107663674D01*
X147120828Y-107681298D01*
X147140177Y-107683204D01*
X147270098Y-107696000D01*
X147270105Y-107696000D01*
X147319999Y-107700914D01*
X147369893Y-107696000D01*
X157430098Y-107696000D01*
X157480000Y-107700915D01*
X157529902Y-107696000D01*
X157679171Y-107681298D01*
X157870687Y-107623202D01*
X158047190Y-107528860D01*
X158201896Y-107401896D01*
X158233712Y-107363128D01*
X159004000Y-106592840D01*
X159004001Y-127712160D01*
X156675000Y-125383160D01*
X156675000Y-125243665D01*
X156619853Y-124966426D01*
X156511680Y-124705273D01*
X156354637Y-124470241D01*
X156154759Y-124270363D01*
X155919727Y-124113320D01*
X155658574Y-124005147D01*
X155632699Y-124000000D01*
X155658574Y-123994853D01*
X155919727Y-123886680D01*
X156154759Y-123729637D01*
X156354637Y-123529759D01*
X156511680Y-123294727D01*
X156619853Y-123033574D01*
X156675000Y-122756335D01*
X156675000Y-122473665D01*
X156619853Y-122196426D01*
X156511680Y-121935273D01*
X156354637Y-121700241D01*
X156154759Y-121500363D01*
X155919727Y-121343320D01*
X155658574Y-121235147D01*
X155632699Y-121230000D01*
X155658574Y-121224853D01*
X155919727Y-121116680D01*
X156154759Y-120959637D01*
X156354637Y-120759759D01*
X156511680Y-120524727D01*
X156619853Y-120263574D01*
X156675000Y-119986335D01*
X156675000Y-119703665D01*
X156619853Y-119426426D01*
X156511680Y-119165273D01*
X156354637Y-118930241D01*
X156154759Y-118730363D01*
X155919727Y-118573320D01*
X155658574Y-118465147D01*
X155381335Y-118410000D01*
X155098665Y-118410000D01*
X154821426Y-118465147D01*
X154560273Y-118573320D01*
X154325241Y-118730363D01*
X154125363Y-118930241D01*
X153968320Y-119165273D01*
X153860147Y-119426426D01*
X153805000Y-119703665D01*
X153805000Y-119986335D01*
X153860147Y-120263574D01*
X153968320Y-120524727D01*
X154125363Y-120759759D01*
X154325241Y-120959637D01*
X154560273Y-121116680D01*
X154821426Y-121224853D01*
X154847301Y-121230000D01*
X154821426Y-121235147D01*
X154560273Y-121343320D01*
X154325241Y-121500363D01*
X154125363Y-121700241D01*
X153968320Y-121935273D01*
X153860147Y-122196426D01*
X153805000Y-122473665D01*
X153805000Y-122756335D01*
X153860147Y-123033574D01*
X153968320Y-123294727D01*
X154125363Y-123529759D01*
X154325241Y-123729637D01*
X154560273Y-123886680D01*
X154821426Y-123994853D01*
X154847301Y-124000000D01*
X154821426Y-124005147D01*
X154560273Y-124113320D01*
X154325241Y-124270363D01*
X154125363Y-124470241D01*
X153968320Y-124705273D01*
X153860147Y-124966426D01*
X153805000Y-125243665D01*
X153805000Y-125526335D01*
X153860147Y-125803574D01*
X153968320Y-126064727D01*
X154125363Y-126299759D01*
X154325241Y-126499637D01*
X154560273Y-126656680D01*
X154821426Y-126764853D01*
X154847301Y-126770000D01*
X154821426Y-126775147D01*
X154560273Y-126883320D01*
X154325241Y-127040363D01*
X154125363Y-127240241D01*
X153968320Y-127475273D01*
X153860147Y-127736426D01*
X153805000Y-128013665D01*
X153805000Y-128296335D01*
X153860147Y-128573574D01*
X153968320Y-128834727D01*
X154125363Y-129069759D01*
X154325241Y-129269637D01*
X154560273Y-129426680D01*
X154821426Y-129534853D01*
X155098665Y-129590000D01*
X155381335Y-129590000D01*
X155658574Y-129534853D01*
X155919727Y-129426680D01*
X156154759Y-129269637D01*
X156354637Y-129069759D01*
X156511680Y-128834727D01*
X156619853Y-128573574D01*
X156675000Y-128296335D01*
X156675000Y-128256840D01*
X159004001Y-130585842D01*
X159004000Y-139279159D01*
X157059160Y-141224000D01*
X147740841Y-141224000D01*
X145796000Y-139279160D01*
X145796000Y-138347499D01*
X152152106Y-138347499D01*
X152368228Y-138714258D01*
X152828105Y-138954938D01*
X153326098Y-139101275D01*
X153843071Y-139147648D01*
X154359159Y-139092273D01*
X154854526Y-138937279D01*
X155271772Y-138714258D01*
X155487894Y-138347499D01*
X153820000Y-136679605D01*
X152152106Y-138347499D01*
X145796000Y-138347499D01*
X145796000Y-136523071D01*
X151172352Y-136523071D01*
X151227727Y-137039159D01*
X151382721Y-137534526D01*
X151605742Y-137951772D01*
X151972501Y-138167894D01*
X153640395Y-136500000D01*
X153999605Y-136500000D01*
X155667499Y-138167894D01*
X156034258Y-137951772D01*
X156274938Y-137491895D01*
X156421275Y-136993902D01*
X156467648Y-136476929D01*
X156412273Y-135960841D01*
X156257279Y-135465474D01*
X156034258Y-135048228D01*
X155667499Y-134832106D01*
X153999605Y-136500000D01*
X153640395Y-136500000D01*
X151972501Y-134832106D01*
X151605742Y-135048228D01*
X151365062Y-135508105D01*
X151218725Y-136006098D01*
X151172352Y-136523071D01*
X145796000Y-136523071D01*
X145796000Y-134652501D01*
X152152106Y-134652501D01*
X153820000Y-136320395D01*
X155487894Y-134652501D01*
X155271772Y-134285742D01*
X154811895Y-134045062D01*
X154313902Y-133898725D01*
X153796929Y-133852352D01*
X153280841Y-133907727D01*
X152785474Y-134062721D01*
X152368228Y-134285742D01*
X152152106Y-134652501D01*
X145796000Y-134652501D01*
X145796000Y-127049902D01*
X145800915Y-127000000D01*
X145781298Y-126800829D01*
X145723202Y-126609312D01*
X145664579Y-126499637D01*
X145628860Y-126432810D01*
X145501896Y-126278104D01*
X145463133Y-126246292D01*
X143918712Y-124701872D01*
X143886896Y-124663104D01*
X143732190Y-124536140D01*
X143555687Y-124441798D01*
X143364171Y-124383702D01*
X143214902Y-124369000D01*
X143165000Y-124364085D01*
X143115098Y-124369000D01*
X138473396Y-124369000D01*
X138374759Y-124270363D01*
X138139727Y-124113320D01*
X137878574Y-124005147D01*
X137852699Y-124000000D01*
X137878574Y-123994853D01*
X138139727Y-123886680D01*
X138374759Y-123729637D01*
X138574637Y-123529759D01*
X138731680Y-123294727D01*
X138839853Y-123033574D01*
X138895000Y-122756335D01*
X138895000Y-122473665D01*
X138839853Y-122196426D01*
X138731680Y-121935273D01*
X138574637Y-121700241D01*
X138374759Y-121500363D01*
X138139727Y-121343320D01*
X137878574Y-121235147D01*
X137852699Y-121230000D01*
X137878574Y-121224853D01*
X138139727Y-121116680D01*
X138374759Y-120959637D01*
X138574637Y-120759759D01*
X138731680Y-120524727D01*
X138839853Y-120263574D01*
X138895000Y-119986335D01*
X138895000Y-119703665D01*
X138839853Y-119426426D01*
X138731680Y-119165273D01*
X138574637Y-118930241D01*
X138374759Y-118730363D01*
X138139727Y-118573320D01*
X137878574Y-118465147D01*
X137601335Y-118410000D01*
X137318665Y-118410000D01*
X137041426Y-118465147D01*
X136780273Y-118573320D01*
X136545241Y-118730363D01*
X136345363Y-118930241D01*
X136188320Y-119165273D01*
X136080147Y-119426426D01*
X136025000Y-119703665D01*
X136025000Y-119986335D01*
X136080147Y-120263574D01*
X136188320Y-120524727D01*
X136345363Y-120759759D01*
X136545241Y-120959637D01*
X136780273Y-121116680D01*
X137041426Y-121224853D01*
X137067301Y-121230000D01*
X137041426Y-121235147D01*
X136780273Y-121343320D01*
X136545241Y-121500363D01*
X136345363Y-121700241D01*
X136188320Y-121935273D01*
X136080147Y-122196426D01*
X136025000Y-122473665D01*
X136025000Y-122756335D01*
X136080147Y-123033574D01*
X136188320Y-123294727D01*
X136345363Y-123529759D01*
X136545241Y-123729637D01*
X136780273Y-123886680D01*
X137041426Y-123994853D01*
X137067301Y-124000000D01*
X137041426Y-124005147D01*
X136780273Y-124113320D01*
X136545241Y-124270363D01*
X136345363Y-124470241D01*
X136188320Y-124705273D01*
X136080147Y-124966426D01*
X136025000Y-125243665D01*
X136025000Y-125526335D01*
X136080147Y-125803574D01*
X136188320Y-126064727D01*
X136345363Y-126299759D01*
X136545241Y-126499637D01*
X136780273Y-126656680D01*
X137041426Y-126764853D01*
X137067301Y-126770000D01*
X137041426Y-126775147D01*
X136780273Y-126883320D01*
X136545241Y-127040363D01*
X136345363Y-127240241D01*
X136188320Y-127475273D01*
X136080147Y-127736426D01*
X136025000Y-128013665D01*
X136025000Y-128296335D01*
X136080147Y-128573574D01*
X136188320Y-128834727D01*
X136345363Y-129069759D01*
X136545241Y-129269637D01*
X136780273Y-129426680D01*
X137041426Y-129534853D01*
X137318665Y-129590000D01*
X137601335Y-129590000D01*
X137878574Y-129534853D01*
X138139727Y-129426680D01*
X138374759Y-129269637D01*
X138574637Y-129069759D01*
X138731680Y-128834727D01*
X138839853Y-128573574D01*
X138895000Y-128296335D01*
X138895000Y-128013665D01*
X138839853Y-127736426D01*
X138731680Y-127475273D01*
X138574637Y-127240241D01*
X138374759Y-127040363D01*
X138139727Y-126883320D01*
X137878574Y-126775147D01*
X137852699Y-126770000D01*
X137878574Y-126764853D01*
X138139727Y-126656680D01*
X138374759Y-126499637D01*
X138473396Y-126401000D01*
X142744160Y-126401000D01*
X143764000Y-127420841D01*
X143764001Y-139650088D01*
X143759085Y-139700000D01*
X143778702Y-139899170D01*
X143778703Y-139899172D01*
X143836799Y-140090687D01*
X143931141Y-140267190D01*
X144058105Y-140421896D01*
X144096868Y-140453708D01*
X144867160Y-141224000D01*
X129960841Y-141224000D01*
X127084340Y-138347499D01*
X134372106Y-138347499D01*
X134588228Y-138714258D01*
X135048105Y-138954938D01*
X135546098Y-139101275D01*
X136063071Y-139147648D01*
X136579159Y-139092273D01*
X137074526Y-138937279D01*
X137491772Y-138714258D01*
X137707894Y-138347499D01*
X136040000Y-136679605D01*
X134372106Y-138347499D01*
X127084340Y-138347499D01*
X125476000Y-136739160D01*
X125476000Y-136523071D01*
X133392352Y-136523071D01*
X133447727Y-137039159D01*
X133602721Y-137534526D01*
X133825742Y-137951772D01*
X134192501Y-138167894D01*
X135860395Y-136500000D01*
X136219605Y-136500000D01*
X137887499Y-138167894D01*
X138254258Y-137951772D01*
X138494938Y-137491895D01*
X138641275Y-136993902D01*
X138687648Y-136476929D01*
X138632273Y-135960841D01*
X138477279Y-135465474D01*
X138254258Y-135048228D01*
X137887499Y-134832106D01*
X136219605Y-136500000D01*
X135860395Y-136500000D01*
X134192501Y-134832106D01*
X133825742Y-135048228D01*
X133585062Y-135508105D01*
X133438725Y-136006098D01*
X133392352Y-136523071D01*
X125476000Y-136523071D01*
X125476000Y-134652501D01*
X134372106Y-134652501D01*
X136040000Y-136320395D01*
X137707894Y-134652501D01*
X137491772Y-134285742D01*
X137031895Y-134045062D01*
X136533902Y-133898725D01*
X136016929Y-133852352D01*
X135500841Y-133907727D01*
X135005474Y-134062721D01*
X134588228Y-134285742D01*
X134372106Y-134652501D01*
X125476000Y-134652501D01*
X125476000Y-129089784D01*
X125480915Y-129039882D01*
X125461298Y-128840711D01*
X125403202Y-128649195D01*
X125362782Y-128573574D01*
X125308860Y-128472692D01*
X125181896Y-128317986D01*
X125143133Y-128286174D01*
X118201201Y-121344243D01*
X118499159Y-121312273D01*
X118994526Y-121157279D01*
X119411772Y-120934258D01*
X119627894Y-120567499D01*
X117960000Y-118899605D01*
X117945858Y-118913748D01*
X117766253Y-118734143D01*
X117780395Y-118720000D01*
X118139605Y-118720000D01*
X119807499Y-120387894D01*
X120174258Y-120171772D01*
X120414938Y-119711895D01*
X120561275Y-119213902D01*
X120607648Y-118696929D01*
X120552273Y-118180841D01*
X120397279Y-117685474D01*
X120174258Y-117268228D01*
X119807499Y-117052106D01*
X118139605Y-118720000D01*
X117780395Y-118720000D01*
X116112501Y-117052106D01*
X115745742Y-117268228D01*
X115505062Y-117728105D01*
X115358725Y-118226098D01*
X115336033Y-118479075D01*
X115316000Y-118459042D01*
X115316000Y-116872501D01*
X116292106Y-116872501D01*
X117960000Y-118540395D01*
X119627894Y-116872501D01*
X119411772Y-116505742D01*
X118951895Y-116265062D01*
X118453902Y-116118725D01*
X117936929Y-116072352D01*
X117420841Y-116127727D01*
X116925474Y-116282721D01*
X116508228Y-116505742D01*
X116292106Y-116872501D01*
X115316000Y-116872501D01*
X115316000Y-111126085D01*
X115425363Y-111289759D01*
X115625241Y-111489637D01*
X115860273Y-111646680D01*
X116121426Y-111754853D01*
X116398665Y-111810000D01*
X116681335Y-111810000D01*
X116958574Y-111754853D01*
X117219727Y-111646680D01*
X117454759Y-111489637D01*
X117654637Y-111289759D01*
X117811680Y-111054727D01*
X117919853Y-110793574D01*
X117975000Y-110516335D01*
X117975000Y-110233665D01*
X117919853Y-109956426D01*
X117811680Y-109695273D01*
X117654637Y-109460241D01*
X117454759Y-109260363D01*
X117219727Y-109103320D01*
X116958574Y-108995147D01*
X116932699Y-108990000D01*
X116958574Y-108984853D01*
X117219727Y-108876680D01*
X117454759Y-108719637D01*
X117654637Y-108519759D01*
X117811680Y-108284727D01*
X117919853Y-108023574D01*
X117975000Y-107746335D01*
X117975000Y-107463665D01*
X117919853Y-107186426D01*
X117811680Y-106925273D01*
X117654637Y-106690241D01*
X117454759Y-106490363D01*
X117219727Y-106333320D01*
X116958574Y-106225147D01*
X116932699Y-106220000D01*
X116958574Y-106214853D01*
X117219727Y-106106680D01*
X117454759Y-105949637D01*
X117654637Y-105749759D01*
X117811680Y-105514727D01*
X117919853Y-105253574D01*
X117975000Y-104976335D01*
X117975000Y-104693665D01*
X117919853Y-104416426D01*
X117811680Y-104155273D01*
X117654637Y-103920241D01*
X117454759Y-103720363D01*
X117219727Y-103563320D01*
X116958574Y-103455147D01*
X116932699Y-103450000D01*
X116958574Y-103444853D01*
X117219727Y-103336680D01*
X117454759Y-103179637D01*
X117654637Y-102979759D01*
X117811680Y-102744727D01*
X117919853Y-102483574D01*
X117975000Y-102206335D01*
X117975000Y-101923665D01*
X117919853Y-101646426D01*
X117811680Y-101385273D01*
X117654637Y-101150241D01*
X117454759Y-100950363D01*
X117219727Y-100793320D01*
X117116380Y-100750512D01*
X117939783Y-100750512D01*
X117981213Y-101030130D01*
X118076397Y-101296292D01*
X118143329Y-101421514D01*
X118387298Y-101493097D01*
X119200395Y-100680000D01*
X119559605Y-100680000D01*
X120372702Y-101493097D01*
X120616671Y-101421514D01*
X120737571Y-101166004D01*
X120806300Y-100891816D01*
X120820217Y-100609488D01*
X120778787Y-100329870D01*
X120683603Y-100063708D01*
X120616671Y-99938486D01*
X120372702Y-99866903D01*
X119559605Y-100680000D01*
X119200395Y-100680000D01*
X118387298Y-99866903D01*
X118143329Y-99938486D01*
X118022429Y-100193996D01*
X117953700Y-100468184D01*
X117939783Y-100750512D01*
X117116380Y-100750512D01*
X116958574Y-100685147D01*
X116681335Y-100630000D01*
X116398665Y-100630000D01*
X116121426Y-100685147D01*
X115860273Y-100793320D01*
X115625241Y-100950363D01*
X115425363Y-101150241D01*
X115268320Y-101385273D01*
X115160147Y-101646426D01*
X115105000Y-101923665D01*
X115105000Y-102206335D01*
X115160147Y-102483574D01*
X115268320Y-102744727D01*
X115425363Y-102979759D01*
X115625241Y-103179637D01*
X115860273Y-103336680D01*
X116121426Y-103444853D01*
X116147301Y-103450000D01*
X116121426Y-103455147D01*
X115860273Y-103563320D01*
X115625241Y-103720363D01*
X115425363Y-103920241D01*
X115268320Y-104155273D01*
X115160147Y-104416426D01*
X115105000Y-104693665D01*
X115105000Y-104976335D01*
X115160147Y-105253574D01*
X115268320Y-105514727D01*
X115425363Y-105749759D01*
X115625241Y-105949637D01*
X115860273Y-106106680D01*
X116121426Y-106214853D01*
X116147301Y-106220000D01*
X116121426Y-106225147D01*
X115860273Y-106333320D01*
X115625241Y-106490363D01*
X115425363Y-106690241D01*
X115268320Y-106925273D01*
X115160147Y-107186426D01*
X115105000Y-107463665D01*
X115105000Y-107603159D01*
X113616872Y-109091288D01*
X113578104Y-109123104D01*
X113451140Y-109277810D01*
X113356798Y-109454314D01*
X113298702Y-109645829D01*
X113298702Y-109645830D01*
X113279085Y-109845000D01*
X107340000Y-109845000D01*
X107340000Y-99687298D01*
X118566903Y-99687298D01*
X119380000Y-100500395D01*
X120193097Y-99687298D01*
X120121514Y-99443329D01*
X119866004Y-99322429D01*
X119591816Y-99253700D01*
X119309488Y-99239783D01*
X119029870Y-99281213D01*
X118763708Y-99376397D01*
X118638486Y-99443329D01*
X118566903Y-99687298D01*
X107340000Y-99687298D01*
X107340000Y-95567499D01*
X116292106Y-95567499D01*
X116508228Y-95934258D01*
X116968105Y-96174938D01*
X117466098Y-96321275D01*
X117983071Y-96367648D01*
X118499159Y-96312273D01*
X118994526Y-96157279D01*
X119411772Y-95934258D01*
X119627894Y-95567499D01*
X117960000Y-93899605D01*
X116292106Y-95567499D01*
X107340000Y-95567499D01*
X107340000Y-93743071D01*
X115312352Y-93743071D01*
X115367727Y-94259159D01*
X115522721Y-94754526D01*
X115745742Y-95171772D01*
X116112501Y-95387894D01*
X117780395Y-93720000D01*
X118139605Y-93720000D01*
X119807499Y-95387894D01*
X120174258Y-95171772D01*
X120414938Y-94711895D01*
X120561275Y-94213902D01*
X120607648Y-93696929D01*
X120552273Y-93180841D01*
X120397279Y-92685474D01*
X120174258Y-92268228D01*
X119807499Y-92052106D01*
X118139605Y-93720000D01*
X117780395Y-93720000D01*
X116112501Y-92052106D01*
X115745742Y-92268228D01*
X115505062Y-92728105D01*
X115358725Y-93226098D01*
X115312352Y-93743071D01*
X107340000Y-93743071D01*
X107340000Y-91872501D01*
X116292106Y-91872501D01*
X117960000Y-93540395D01*
X119627894Y-91872501D01*
X119411772Y-91505742D01*
X118951895Y-91265062D01*
X118453902Y-91118725D01*
X117936929Y-91072352D01*
X117420841Y-91127727D01*
X116925474Y-91282721D01*
X116508228Y-91505742D01*
X116292106Y-91872501D01*
X107340000Y-91872501D01*
X107340000Y-81553380D01*
X109539911Y-79353469D01*
X109362335Y-79782176D01*
X109165000Y-80774247D01*
X109165000Y-81785753D01*
X109362335Y-82777824D01*
X109749422Y-83712335D01*
X110311385Y-84553372D01*
X111026628Y-85268615D01*
X111867665Y-85830578D01*
X112802176Y-86217665D01*
X113794247Y-86415000D01*
X114805753Y-86415000D01*
X115797824Y-86217665D01*
X116732335Y-85830578D01*
X117573372Y-85268615D01*
X118288615Y-84553372D01*
X118850578Y-83712335D01*
X119237665Y-82777824D01*
X119435000Y-81785753D01*
X119435000Y-80774247D01*
X119237665Y-79782176D01*
X118850578Y-78847665D01*
X118288615Y-78006628D01*
X117573372Y-77291385D01*
X116732335Y-76729422D01*
X115797824Y-76342335D01*
X114805753Y-76145000D01*
X113794247Y-76145000D01*
X112802176Y-76342335D01*
X112373469Y-76519911D01*
X122193381Y-66700000D01*
X172060000Y-66700000D01*
X172060000Y-78652241D01*
M02*
