G04 #@! TF.GenerationSoftware,KiCad,Pcbnew,5.1.5-52549c5~84~ubuntu18.04.1*
G04 #@! TF.CreationDate,2020-01-19T15:20:56-05:00*
G04 #@! TF.ProjectId,datapod_IR_splitter,64617461-706f-4645-9f49-525f73706c69,rev?*
G04 #@! TF.SameCoordinates,Original*
G04 #@! TF.FileFunction,Soldermask,Bot*
G04 #@! TF.FilePolarity,Negative*
%FSLAX46Y46*%
G04 Gerber Fmt 4.6, Leading zero omitted, Abs format (unit mm)*
G04 Created by KiCad (PCBNEW 5.1.5-52549c5~84~ubuntu18.04.1) date 2020-01-19 15:20:56*
%MOMM*%
%LPD*%
G04 APERTURE LIST*
%ADD10C,0.100000*%
G04 APERTURE END LIST*
D10*
G36*
X155688254Y-134527818D02*
G01*
X156061511Y-134682426D01*
X156061513Y-134682427D01*
X156397436Y-134906884D01*
X156683116Y-135192564D01*
X156907574Y-135528489D01*
X157062182Y-135901746D01*
X157141000Y-136297993D01*
X157141000Y-136702007D01*
X157062182Y-137098254D01*
X156907574Y-137471511D01*
X156907573Y-137471513D01*
X156683116Y-137807436D01*
X156397436Y-138093116D01*
X156061513Y-138317573D01*
X156061512Y-138317574D01*
X156061511Y-138317574D01*
X155688254Y-138472182D01*
X155292007Y-138551000D01*
X154887993Y-138551000D01*
X154491746Y-138472182D01*
X154118489Y-138317574D01*
X154118488Y-138317574D01*
X154118487Y-138317573D01*
X153782564Y-138093116D01*
X153496884Y-137807436D01*
X153272427Y-137471513D01*
X153272426Y-137471511D01*
X153117818Y-137098254D01*
X153039000Y-136702007D01*
X153039000Y-136297993D01*
X153117818Y-135901746D01*
X153272426Y-135528489D01*
X153496884Y-135192564D01*
X153782564Y-134906884D01*
X154118487Y-134682427D01*
X154118489Y-134682426D01*
X154491746Y-134527818D01*
X154887993Y-134449000D01*
X155292007Y-134449000D01*
X155688254Y-134527818D01*
G37*
G36*
X132320254Y-134527818D02*
G01*
X132693511Y-134682426D01*
X132693513Y-134682427D01*
X133029436Y-134906884D01*
X133315116Y-135192564D01*
X133539574Y-135528489D01*
X133694182Y-135901746D01*
X133773000Y-136297993D01*
X133773000Y-136702007D01*
X133694182Y-137098254D01*
X133539574Y-137471511D01*
X133539573Y-137471513D01*
X133315116Y-137807436D01*
X133029436Y-138093116D01*
X132693513Y-138317573D01*
X132693512Y-138317574D01*
X132693511Y-138317574D01*
X132320254Y-138472182D01*
X131924007Y-138551000D01*
X131519993Y-138551000D01*
X131123746Y-138472182D01*
X130750489Y-138317574D01*
X130750488Y-138317574D01*
X130750487Y-138317573D01*
X130414564Y-138093116D01*
X130128884Y-137807436D01*
X129904427Y-137471513D01*
X129904426Y-137471511D01*
X129749818Y-137098254D01*
X129671000Y-136702007D01*
X129671000Y-136297993D01*
X129749818Y-135901746D01*
X129904426Y-135528489D01*
X130128884Y-135192564D01*
X130414564Y-134906884D01*
X130750487Y-134682427D01*
X130750489Y-134682426D01*
X131123746Y-134527818D01*
X131519993Y-134449000D01*
X131924007Y-134449000D01*
X132320254Y-134527818D01*
G37*
G36*
X115627477Y-127703892D02*
G01*
X115970541Y-127845994D01*
X116455707Y-128046956D01*
X117201093Y-128545008D01*
X117834992Y-129178907D01*
X118333044Y-129924293D01*
X118526360Y-130391000D01*
X118676108Y-130752523D01*
X118851000Y-131631764D01*
X118851000Y-132528236D01*
X118676108Y-133407477D01*
X118534006Y-133750541D01*
X118333044Y-134235707D01*
X117834992Y-134981093D01*
X117201093Y-135614992D01*
X116455707Y-136113044D01*
X116009200Y-136297993D01*
X115627477Y-136456108D01*
X114748236Y-136631000D01*
X113851764Y-136631000D01*
X112972523Y-136456108D01*
X112590800Y-136297993D01*
X112144293Y-136113044D01*
X111398907Y-135614992D01*
X110765008Y-134981093D01*
X110266956Y-134235707D01*
X110065994Y-133750541D01*
X109923892Y-133407477D01*
X109749000Y-132528236D01*
X109749000Y-131631764D01*
X109923892Y-130752523D01*
X110073640Y-130391000D01*
X110266956Y-129924293D01*
X110765008Y-129178907D01*
X111398907Y-128545008D01*
X112144293Y-128046956D01*
X112629459Y-127845994D01*
X112972523Y-127703892D01*
X113851764Y-127529000D01*
X114748236Y-127529000D01*
X115627477Y-127703892D01*
G37*
G36*
X168967477Y-127703892D02*
G01*
X169310541Y-127845994D01*
X169795707Y-128046956D01*
X170541093Y-128545008D01*
X171174992Y-129178907D01*
X171673044Y-129924293D01*
X171866360Y-130391000D01*
X172016108Y-130752523D01*
X172191000Y-131631764D01*
X172191000Y-132528236D01*
X172016108Y-133407477D01*
X171874006Y-133750541D01*
X171673044Y-134235707D01*
X171174992Y-134981093D01*
X170541093Y-135614992D01*
X169795707Y-136113044D01*
X169349200Y-136297993D01*
X168967477Y-136456108D01*
X168088236Y-136631000D01*
X167191764Y-136631000D01*
X166312523Y-136456108D01*
X165930800Y-136297993D01*
X165484293Y-136113044D01*
X164738907Y-135614992D01*
X164105008Y-134981093D01*
X163606956Y-134235707D01*
X163405994Y-133750541D01*
X163263892Y-133407477D01*
X163089000Y-132528236D01*
X163089000Y-131631764D01*
X163263892Y-130752523D01*
X163413640Y-130391000D01*
X163606956Y-129924293D01*
X164105008Y-129178907D01*
X164738907Y-128545008D01*
X165484293Y-128046956D01*
X165969459Y-127845994D01*
X166312523Y-127703892D01*
X167191764Y-127529000D01*
X168088236Y-127529000D01*
X168967477Y-127703892D01*
G37*
G36*
X131153000Y-130391000D02*
G01*
X129451000Y-130391000D01*
X129451000Y-128689000D01*
X131153000Y-128689000D01*
X131153000Y-130391000D01*
G37*
G36*
X154521000Y-130391000D02*
G01*
X152819000Y-130391000D01*
X152819000Y-128689000D01*
X154521000Y-128689000D01*
X154521000Y-130391000D01*
G37*
G36*
X156758228Y-127336703D02*
G01*
X156913100Y-127400853D01*
X157052481Y-127493985D01*
X157171015Y-127612519D01*
X157264147Y-127751900D01*
X157328297Y-127906772D01*
X157361000Y-128071184D01*
X157361000Y-128238816D01*
X157328297Y-128403228D01*
X157264147Y-128558100D01*
X157171015Y-128697481D01*
X157052481Y-128816015D01*
X156913100Y-128909147D01*
X156758228Y-128973297D01*
X156593816Y-129006000D01*
X156426184Y-129006000D01*
X156261772Y-128973297D01*
X156106900Y-128909147D01*
X155967519Y-128816015D01*
X155848985Y-128697481D01*
X155755853Y-128558100D01*
X155691703Y-128403228D01*
X155659000Y-128238816D01*
X155659000Y-128071184D01*
X155691703Y-127906772D01*
X155755853Y-127751900D01*
X155848985Y-127612519D01*
X155967519Y-127493985D01*
X156106900Y-127400853D01*
X156261772Y-127336703D01*
X156426184Y-127304000D01*
X156593816Y-127304000D01*
X156758228Y-127336703D01*
G37*
G36*
X133390228Y-127336703D02*
G01*
X133545100Y-127400853D01*
X133684481Y-127493985D01*
X133803015Y-127612519D01*
X133896147Y-127751900D01*
X133960297Y-127906772D01*
X133993000Y-128071184D01*
X133993000Y-128238816D01*
X133960297Y-128403228D01*
X133896147Y-128558100D01*
X133803015Y-128697481D01*
X133684481Y-128816015D01*
X133545100Y-128909147D01*
X133390228Y-128973297D01*
X133225816Y-129006000D01*
X133058184Y-129006000D01*
X132893772Y-128973297D01*
X132738900Y-128909147D01*
X132599519Y-128816015D01*
X132480985Y-128697481D01*
X132387853Y-128558100D01*
X132323703Y-128403228D01*
X132291000Y-128238816D01*
X132291000Y-128071184D01*
X132323703Y-127906772D01*
X132387853Y-127751900D01*
X132480985Y-127612519D01*
X132599519Y-127493985D01*
X132738900Y-127400853D01*
X132893772Y-127336703D01*
X133058184Y-127304000D01*
X133225816Y-127304000D01*
X133390228Y-127336703D01*
G37*
G36*
X153918228Y-125951703D02*
G01*
X154073100Y-126015853D01*
X154212481Y-126108985D01*
X154331015Y-126227519D01*
X154424147Y-126366900D01*
X154488297Y-126521772D01*
X154521000Y-126686184D01*
X154521000Y-126853816D01*
X154488297Y-127018228D01*
X154424147Y-127173100D01*
X154331015Y-127312481D01*
X154212481Y-127431015D01*
X154073100Y-127524147D01*
X153918228Y-127588297D01*
X153753816Y-127621000D01*
X153586184Y-127621000D01*
X153421772Y-127588297D01*
X153266900Y-127524147D01*
X153127519Y-127431015D01*
X153008985Y-127312481D01*
X152915853Y-127173100D01*
X152851703Y-127018228D01*
X152819000Y-126853816D01*
X152819000Y-126686184D01*
X152851703Y-126521772D01*
X152915853Y-126366900D01*
X153008985Y-126227519D01*
X153127519Y-126108985D01*
X153266900Y-126015853D01*
X153421772Y-125951703D01*
X153586184Y-125919000D01*
X153753816Y-125919000D01*
X153918228Y-125951703D01*
G37*
G36*
X130550228Y-125951703D02*
G01*
X130705100Y-126015853D01*
X130844481Y-126108985D01*
X130963015Y-126227519D01*
X131056147Y-126366900D01*
X131120297Y-126521772D01*
X131153000Y-126686184D01*
X131153000Y-126853816D01*
X131120297Y-127018228D01*
X131056147Y-127173100D01*
X130963015Y-127312481D01*
X130844481Y-127431015D01*
X130705100Y-127524147D01*
X130550228Y-127588297D01*
X130385816Y-127621000D01*
X130218184Y-127621000D01*
X130053772Y-127588297D01*
X129898900Y-127524147D01*
X129759519Y-127431015D01*
X129640985Y-127312481D01*
X129547853Y-127173100D01*
X129483703Y-127018228D01*
X129451000Y-126853816D01*
X129451000Y-126686184D01*
X129483703Y-126521772D01*
X129547853Y-126366900D01*
X129640985Y-126227519D01*
X129759519Y-126108985D01*
X129898900Y-126015853D01*
X130053772Y-125951703D01*
X130218184Y-125919000D01*
X130385816Y-125919000D01*
X130550228Y-125951703D01*
G37*
G36*
X156758228Y-124566703D02*
G01*
X156913100Y-124630853D01*
X157052481Y-124723985D01*
X157171015Y-124842519D01*
X157264147Y-124981900D01*
X157328297Y-125136772D01*
X157361000Y-125301184D01*
X157361000Y-125468816D01*
X157328297Y-125633228D01*
X157264147Y-125788100D01*
X157171015Y-125927481D01*
X157052481Y-126046015D01*
X156913100Y-126139147D01*
X156758228Y-126203297D01*
X156593816Y-126236000D01*
X156426184Y-126236000D01*
X156261772Y-126203297D01*
X156106900Y-126139147D01*
X155967519Y-126046015D01*
X155848985Y-125927481D01*
X155755853Y-125788100D01*
X155691703Y-125633228D01*
X155659000Y-125468816D01*
X155659000Y-125301184D01*
X155691703Y-125136772D01*
X155755853Y-124981900D01*
X155848985Y-124842519D01*
X155967519Y-124723985D01*
X156106900Y-124630853D01*
X156261772Y-124566703D01*
X156426184Y-124534000D01*
X156593816Y-124534000D01*
X156758228Y-124566703D01*
G37*
G36*
X133390228Y-124566703D02*
G01*
X133545100Y-124630853D01*
X133684481Y-124723985D01*
X133803015Y-124842519D01*
X133896147Y-124981900D01*
X133960297Y-125136772D01*
X133993000Y-125301184D01*
X133993000Y-125468816D01*
X133960297Y-125633228D01*
X133896147Y-125788100D01*
X133803015Y-125927481D01*
X133684481Y-126046015D01*
X133545100Y-126139147D01*
X133390228Y-126203297D01*
X133225816Y-126236000D01*
X133058184Y-126236000D01*
X132893772Y-126203297D01*
X132738900Y-126139147D01*
X132599519Y-126046015D01*
X132480985Y-125927481D01*
X132387853Y-125788100D01*
X132323703Y-125633228D01*
X132291000Y-125468816D01*
X132291000Y-125301184D01*
X132323703Y-125136772D01*
X132387853Y-124981900D01*
X132480985Y-124842519D01*
X132599519Y-124723985D01*
X132738900Y-124630853D01*
X132893772Y-124566703D01*
X133058184Y-124534000D01*
X133225816Y-124534000D01*
X133390228Y-124566703D01*
G37*
G36*
X153918228Y-123181703D02*
G01*
X154073100Y-123245853D01*
X154212481Y-123338985D01*
X154331015Y-123457519D01*
X154424147Y-123596900D01*
X154488297Y-123751772D01*
X154521000Y-123916184D01*
X154521000Y-124083816D01*
X154488297Y-124248228D01*
X154424147Y-124403100D01*
X154331015Y-124542481D01*
X154212481Y-124661015D01*
X154073100Y-124754147D01*
X153918228Y-124818297D01*
X153753816Y-124851000D01*
X153586184Y-124851000D01*
X153421772Y-124818297D01*
X153266900Y-124754147D01*
X153127519Y-124661015D01*
X153008985Y-124542481D01*
X152915853Y-124403100D01*
X152851703Y-124248228D01*
X152819000Y-124083816D01*
X152819000Y-123916184D01*
X152851703Y-123751772D01*
X152915853Y-123596900D01*
X153008985Y-123457519D01*
X153127519Y-123338985D01*
X153266900Y-123245853D01*
X153421772Y-123181703D01*
X153586184Y-123149000D01*
X153753816Y-123149000D01*
X153918228Y-123181703D01*
G37*
G36*
X130550228Y-123181703D02*
G01*
X130705100Y-123245853D01*
X130844481Y-123338985D01*
X130963015Y-123457519D01*
X131056147Y-123596900D01*
X131120297Y-123751772D01*
X131153000Y-123916184D01*
X131153000Y-124083816D01*
X131120297Y-124248228D01*
X131056147Y-124403100D01*
X130963015Y-124542481D01*
X130844481Y-124661015D01*
X130705100Y-124754147D01*
X130550228Y-124818297D01*
X130385816Y-124851000D01*
X130218184Y-124851000D01*
X130053772Y-124818297D01*
X129898900Y-124754147D01*
X129759519Y-124661015D01*
X129640985Y-124542481D01*
X129547853Y-124403100D01*
X129483703Y-124248228D01*
X129451000Y-124083816D01*
X129451000Y-123916184D01*
X129483703Y-123751772D01*
X129547853Y-123596900D01*
X129640985Y-123457519D01*
X129759519Y-123338985D01*
X129898900Y-123245853D01*
X130053772Y-123181703D01*
X130218184Y-123149000D01*
X130385816Y-123149000D01*
X130550228Y-123181703D01*
G37*
G36*
X133390228Y-121796703D02*
G01*
X133545100Y-121860853D01*
X133684481Y-121953985D01*
X133803015Y-122072519D01*
X133896147Y-122211900D01*
X133960297Y-122366772D01*
X133993000Y-122531184D01*
X133993000Y-122698816D01*
X133960297Y-122863228D01*
X133896147Y-123018100D01*
X133803015Y-123157481D01*
X133684481Y-123276015D01*
X133545100Y-123369147D01*
X133390228Y-123433297D01*
X133225816Y-123466000D01*
X133058184Y-123466000D01*
X132893772Y-123433297D01*
X132738900Y-123369147D01*
X132599519Y-123276015D01*
X132480985Y-123157481D01*
X132387853Y-123018100D01*
X132323703Y-122863228D01*
X132291000Y-122698816D01*
X132291000Y-122531184D01*
X132323703Y-122366772D01*
X132387853Y-122211900D01*
X132480985Y-122072519D01*
X132599519Y-121953985D01*
X132738900Y-121860853D01*
X132893772Y-121796703D01*
X133058184Y-121764000D01*
X133225816Y-121764000D01*
X133390228Y-121796703D01*
G37*
G36*
X156758228Y-121796703D02*
G01*
X156913100Y-121860853D01*
X157052481Y-121953985D01*
X157171015Y-122072519D01*
X157264147Y-122211900D01*
X157328297Y-122366772D01*
X157361000Y-122531184D01*
X157361000Y-122698816D01*
X157328297Y-122863228D01*
X157264147Y-123018100D01*
X157171015Y-123157481D01*
X157052481Y-123276015D01*
X156913100Y-123369147D01*
X156758228Y-123433297D01*
X156593816Y-123466000D01*
X156426184Y-123466000D01*
X156261772Y-123433297D01*
X156106900Y-123369147D01*
X155967519Y-123276015D01*
X155848985Y-123157481D01*
X155755853Y-123018100D01*
X155691703Y-122863228D01*
X155659000Y-122698816D01*
X155659000Y-122531184D01*
X155691703Y-122366772D01*
X155755853Y-122211900D01*
X155848985Y-122072519D01*
X155967519Y-121953985D01*
X156106900Y-121860853D01*
X156261772Y-121796703D01*
X156426184Y-121764000D01*
X156593816Y-121764000D01*
X156758228Y-121796703D01*
G37*
G36*
X130550228Y-120411703D02*
G01*
X130705100Y-120475853D01*
X130844481Y-120568985D01*
X130963015Y-120687519D01*
X131056147Y-120826900D01*
X131120297Y-120981772D01*
X131153000Y-121146184D01*
X131153000Y-121313816D01*
X131120297Y-121478228D01*
X131056147Y-121633100D01*
X130963015Y-121772481D01*
X130844481Y-121891015D01*
X130705100Y-121984147D01*
X130550228Y-122048297D01*
X130385816Y-122081000D01*
X130218184Y-122081000D01*
X130053772Y-122048297D01*
X129898900Y-121984147D01*
X129759519Y-121891015D01*
X129640985Y-121772481D01*
X129547853Y-121633100D01*
X129483703Y-121478228D01*
X129451000Y-121313816D01*
X129451000Y-121146184D01*
X129483703Y-120981772D01*
X129547853Y-120826900D01*
X129640985Y-120687519D01*
X129759519Y-120568985D01*
X129898900Y-120475853D01*
X130053772Y-120411703D01*
X130218184Y-120379000D01*
X130385816Y-120379000D01*
X130550228Y-120411703D01*
G37*
G36*
X153918228Y-120411703D02*
G01*
X154073100Y-120475853D01*
X154212481Y-120568985D01*
X154331015Y-120687519D01*
X154424147Y-120826900D01*
X154488297Y-120981772D01*
X154521000Y-121146184D01*
X154521000Y-121313816D01*
X154488297Y-121478228D01*
X154424147Y-121633100D01*
X154331015Y-121772481D01*
X154212481Y-121891015D01*
X154073100Y-121984147D01*
X153918228Y-122048297D01*
X153753816Y-122081000D01*
X153586184Y-122081000D01*
X153421772Y-122048297D01*
X153266900Y-121984147D01*
X153127519Y-121891015D01*
X153008985Y-121772481D01*
X152915853Y-121633100D01*
X152851703Y-121478228D01*
X152819000Y-121313816D01*
X152819000Y-121146184D01*
X152851703Y-120981772D01*
X152915853Y-120826900D01*
X153008985Y-120687519D01*
X153127519Y-120568985D01*
X153266900Y-120475853D01*
X153421772Y-120411703D01*
X153586184Y-120379000D01*
X153753816Y-120379000D01*
X153918228Y-120411703D01*
G37*
G36*
X118558254Y-116747818D02*
G01*
X118931511Y-116902426D01*
X118931513Y-116902427D01*
X119267436Y-117126884D01*
X119553116Y-117412564D01*
X119684371Y-117609000D01*
X119777574Y-117748489D01*
X119932182Y-118121746D01*
X120011000Y-118517993D01*
X120011000Y-118922007D01*
X119932182Y-119318254D01*
X119816816Y-119596772D01*
X119777573Y-119691513D01*
X119553116Y-120027436D01*
X119267436Y-120313116D01*
X118931513Y-120537573D01*
X118931512Y-120537574D01*
X118931511Y-120537574D01*
X118558254Y-120692182D01*
X118162007Y-120771000D01*
X117757993Y-120771000D01*
X117361746Y-120692182D01*
X116988489Y-120537574D01*
X116988488Y-120537574D01*
X116988487Y-120537573D01*
X116652564Y-120313116D01*
X116366884Y-120027436D01*
X116142427Y-119691513D01*
X116103184Y-119596772D01*
X115987818Y-119318254D01*
X115909000Y-118922007D01*
X115909000Y-118517993D01*
X115987818Y-118121746D01*
X116142426Y-117748489D01*
X116235630Y-117609000D01*
X116366884Y-117412564D01*
X116652564Y-117126884D01*
X116988487Y-116902427D01*
X116988489Y-116902426D01*
X117361746Y-116747818D01*
X117757993Y-116669000D01*
X118162007Y-116669000D01*
X118558254Y-116747818D01*
G37*
G36*
X133390228Y-119026703D02*
G01*
X133545100Y-119090853D01*
X133684481Y-119183985D01*
X133803015Y-119302519D01*
X133896147Y-119441900D01*
X133960297Y-119596772D01*
X133993000Y-119761184D01*
X133993000Y-119928816D01*
X133960297Y-120093228D01*
X133896147Y-120248100D01*
X133803015Y-120387481D01*
X133684481Y-120506015D01*
X133545100Y-120599147D01*
X133390228Y-120663297D01*
X133225816Y-120696000D01*
X133058184Y-120696000D01*
X132893772Y-120663297D01*
X132738900Y-120599147D01*
X132599519Y-120506015D01*
X132480985Y-120387481D01*
X132387853Y-120248100D01*
X132323703Y-120093228D01*
X132291000Y-119928816D01*
X132291000Y-119761184D01*
X132323703Y-119596772D01*
X132387853Y-119441900D01*
X132480985Y-119302519D01*
X132599519Y-119183985D01*
X132738900Y-119090853D01*
X132893772Y-119026703D01*
X133058184Y-118994000D01*
X133225816Y-118994000D01*
X133390228Y-119026703D01*
G37*
G36*
X156758228Y-119026703D02*
G01*
X156913100Y-119090853D01*
X157052481Y-119183985D01*
X157171015Y-119302519D01*
X157264147Y-119441900D01*
X157328297Y-119596772D01*
X157361000Y-119761184D01*
X157361000Y-119928816D01*
X157328297Y-120093228D01*
X157264147Y-120248100D01*
X157171015Y-120387481D01*
X157052481Y-120506015D01*
X156913100Y-120599147D01*
X156758228Y-120663297D01*
X156593816Y-120696000D01*
X156426184Y-120696000D01*
X156261772Y-120663297D01*
X156106900Y-120599147D01*
X155967519Y-120506015D01*
X155848985Y-120387481D01*
X155755853Y-120248100D01*
X155691703Y-120093228D01*
X155659000Y-119928816D01*
X155659000Y-119761184D01*
X155691703Y-119596772D01*
X155755853Y-119441900D01*
X155848985Y-119302519D01*
X155967519Y-119183985D01*
X156106900Y-119090853D01*
X156261772Y-119026703D01*
X156426184Y-118994000D01*
X156593816Y-118994000D01*
X156758228Y-119026703D01*
G37*
G36*
X130550228Y-117641703D02*
G01*
X130705100Y-117705853D01*
X130844481Y-117798985D01*
X130963015Y-117917519D01*
X131056147Y-118056900D01*
X131120297Y-118211772D01*
X131153000Y-118376184D01*
X131153000Y-118543816D01*
X131120297Y-118708228D01*
X131056147Y-118863100D01*
X130963015Y-119002481D01*
X130844481Y-119121015D01*
X130705100Y-119214147D01*
X130550228Y-119278297D01*
X130385816Y-119311000D01*
X130218184Y-119311000D01*
X130053772Y-119278297D01*
X129898900Y-119214147D01*
X129759519Y-119121015D01*
X129640985Y-119002481D01*
X129547853Y-118863100D01*
X129483703Y-118708228D01*
X129451000Y-118543816D01*
X129451000Y-118376184D01*
X129483703Y-118211772D01*
X129547853Y-118056900D01*
X129640985Y-117917519D01*
X129759519Y-117798985D01*
X129898900Y-117705853D01*
X130053772Y-117641703D01*
X130218184Y-117609000D01*
X130385816Y-117609000D01*
X130550228Y-117641703D01*
G37*
G36*
X153918228Y-117641703D02*
G01*
X154073100Y-117705853D01*
X154212481Y-117798985D01*
X154331015Y-117917519D01*
X154424147Y-118056900D01*
X154488297Y-118211772D01*
X154521000Y-118376184D01*
X154521000Y-118543816D01*
X154488297Y-118708228D01*
X154424147Y-118863100D01*
X154331015Y-119002481D01*
X154212481Y-119121015D01*
X154073100Y-119214147D01*
X153918228Y-119278297D01*
X153753816Y-119311000D01*
X153586184Y-119311000D01*
X153421772Y-119278297D01*
X153266900Y-119214147D01*
X153127519Y-119121015D01*
X153008985Y-119002481D01*
X152915853Y-118863100D01*
X152851703Y-118708228D01*
X152819000Y-118543816D01*
X152819000Y-118376184D01*
X152851703Y-118211772D01*
X152915853Y-118056900D01*
X153008985Y-117917519D01*
X153127519Y-117798985D01*
X153266900Y-117705853D01*
X153421772Y-117641703D01*
X153586184Y-117609000D01*
X153753816Y-117609000D01*
X153918228Y-117641703D01*
G37*
G36*
X155688254Y-109527818D02*
G01*
X156061511Y-109682426D01*
X156061513Y-109682427D01*
X156397436Y-109906884D01*
X156683116Y-110192564D01*
X156861020Y-110458815D01*
X156907574Y-110528489D01*
X157062182Y-110901746D01*
X157141000Y-111297993D01*
X157141000Y-111702007D01*
X157062182Y-112098254D01*
X156907574Y-112471511D01*
X156907573Y-112471513D01*
X156683116Y-112807436D01*
X156397436Y-113093116D01*
X156061513Y-113317573D01*
X156061512Y-113317574D01*
X156061511Y-113317574D01*
X155688254Y-113472182D01*
X155292007Y-113551000D01*
X154887993Y-113551000D01*
X154491746Y-113472182D01*
X154118489Y-113317574D01*
X154118488Y-113317574D01*
X154118487Y-113317573D01*
X153782564Y-113093116D01*
X153496884Y-112807436D01*
X153272427Y-112471513D01*
X153272426Y-112471511D01*
X153117818Y-112098254D01*
X153039000Y-111702007D01*
X153039000Y-111297993D01*
X153117818Y-110901746D01*
X153272426Y-110528489D01*
X153318981Y-110458815D01*
X153496884Y-110192564D01*
X153782564Y-109906884D01*
X154118487Y-109682427D01*
X154118489Y-109682426D01*
X154491746Y-109527818D01*
X154887993Y-109449000D01*
X155292007Y-109449000D01*
X155688254Y-109527818D01*
G37*
G36*
X132320254Y-109527818D02*
G01*
X132693511Y-109682426D01*
X132693513Y-109682427D01*
X133029436Y-109906884D01*
X133315116Y-110192564D01*
X133493020Y-110458815D01*
X133539574Y-110528489D01*
X133694182Y-110901746D01*
X133773000Y-111297993D01*
X133773000Y-111702007D01*
X133694182Y-112098254D01*
X133539574Y-112471511D01*
X133539573Y-112471513D01*
X133315116Y-112807436D01*
X133029436Y-113093116D01*
X132693513Y-113317573D01*
X132693512Y-113317574D01*
X132693511Y-113317574D01*
X132320254Y-113472182D01*
X131924007Y-113551000D01*
X131519993Y-113551000D01*
X131123746Y-113472182D01*
X130750489Y-113317574D01*
X130750488Y-113317574D01*
X130750487Y-113317573D01*
X130414564Y-113093116D01*
X130128884Y-112807436D01*
X129904427Y-112471513D01*
X129904426Y-112471511D01*
X129749818Y-112098254D01*
X129671000Y-111702007D01*
X129671000Y-111297993D01*
X129749818Y-110901746D01*
X129904426Y-110528489D01*
X129950981Y-110458815D01*
X130128884Y-110192564D01*
X130414564Y-109906884D01*
X130750487Y-109682427D01*
X130750489Y-109682426D01*
X131123746Y-109527818D01*
X131519993Y-109449000D01*
X131924007Y-109449000D01*
X132320254Y-109527818D01*
G37*
G36*
X120231000Y-112611000D02*
G01*
X118529000Y-112611000D01*
X118529000Y-110909000D01*
X120231000Y-110909000D01*
X120231000Y-112611000D01*
G37*
G36*
X116788228Y-109556703D02*
G01*
X116943100Y-109620853D01*
X117082481Y-109713985D01*
X117201015Y-109832519D01*
X117294147Y-109971900D01*
X117358297Y-110126772D01*
X117391000Y-110291184D01*
X117391000Y-110458816D01*
X117358297Y-110623228D01*
X117294147Y-110778100D01*
X117201015Y-110917481D01*
X117082481Y-111036015D01*
X116943100Y-111129147D01*
X116788228Y-111193297D01*
X116623816Y-111226000D01*
X116456184Y-111226000D01*
X116291772Y-111193297D01*
X116136900Y-111129147D01*
X115997519Y-111036015D01*
X115878985Y-110917481D01*
X115785853Y-110778100D01*
X115721703Y-110623228D01*
X115689000Y-110458816D01*
X115689000Y-110291184D01*
X115721703Y-110126772D01*
X115785853Y-109971900D01*
X115878985Y-109832519D01*
X115997519Y-109713985D01*
X116136900Y-109620853D01*
X116291772Y-109556703D01*
X116456184Y-109524000D01*
X116623816Y-109524000D01*
X116788228Y-109556703D01*
G37*
G36*
X119628228Y-108171703D02*
G01*
X119783100Y-108235853D01*
X119922481Y-108328985D01*
X120041015Y-108447519D01*
X120134147Y-108586900D01*
X120198297Y-108741772D01*
X120231000Y-108906184D01*
X120231000Y-109073816D01*
X120198297Y-109238228D01*
X120134147Y-109393100D01*
X120041015Y-109532481D01*
X119922481Y-109651015D01*
X119783100Y-109744147D01*
X119628228Y-109808297D01*
X119463816Y-109841000D01*
X119296184Y-109841000D01*
X119131772Y-109808297D01*
X118976900Y-109744147D01*
X118837519Y-109651015D01*
X118718985Y-109532481D01*
X118625853Y-109393100D01*
X118561703Y-109238228D01*
X118529000Y-109073816D01*
X118529000Y-108906184D01*
X118561703Y-108741772D01*
X118625853Y-108586900D01*
X118718985Y-108447519D01*
X118837519Y-108328985D01*
X118976900Y-108235853D01*
X119131772Y-108171703D01*
X119296184Y-108139000D01*
X119463816Y-108139000D01*
X119628228Y-108171703D01*
G37*
G36*
X116788228Y-106786703D02*
G01*
X116943100Y-106850853D01*
X117082481Y-106943985D01*
X117201015Y-107062519D01*
X117294147Y-107201900D01*
X117358297Y-107356772D01*
X117391000Y-107521184D01*
X117391000Y-107688816D01*
X117358297Y-107853228D01*
X117294147Y-108008100D01*
X117201015Y-108147481D01*
X117082481Y-108266015D01*
X116943100Y-108359147D01*
X116788228Y-108423297D01*
X116623816Y-108456000D01*
X116456184Y-108456000D01*
X116291772Y-108423297D01*
X116136900Y-108359147D01*
X115997519Y-108266015D01*
X115878985Y-108147481D01*
X115785853Y-108008100D01*
X115721703Y-107853228D01*
X115689000Y-107688816D01*
X115689000Y-107521184D01*
X115721703Y-107356772D01*
X115785853Y-107201900D01*
X115878985Y-107062519D01*
X115997519Y-106943985D01*
X116136900Y-106850853D01*
X116291772Y-106786703D01*
X116456184Y-106754000D01*
X116623816Y-106754000D01*
X116788228Y-106786703D01*
G37*
G36*
X119628228Y-105401703D02*
G01*
X119783100Y-105465853D01*
X119922481Y-105558985D01*
X120041015Y-105677519D01*
X120134147Y-105816900D01*
X120198297Y-105971772D01*
X120231000Y-106136184D01*
X120231000Y-106303816D01*
X120198297Y-106468228D01*
X120134147Y-106623100D01*
X120041015Y-106762481D01*
X119922481Y-106881015D01*
X119783100Y-106974147D01*
X119628228Y-107038297D01*
X119463816Y-107071000D01*
X119296184Y-107071000D01*
X119131772Y-107038297D01*
X118976900Y-106974147D01*
X118837519Y-106881015D01*
X118718985Y-106762481D01*
X118625853Y-106623100D01*
X118561703Y-106468228D01*
X118529000Y-106303816D01*
X118529000Y-106136184D01*
X118561703Y-105971772D01*
X118625853Y-105816900D01*
X118718985Y-105677519D01*
X118837519Y-105558985D01*
X118976900Y-105465853D01*
X119131772Y-105401703D01*
X119296184Y-105369000D01*
X119463816Y-105369000D01*
X119628228Y-105401703D01*
G37*
G36*
X116788228Y-104016703D02*
G01*
X116943100Y-104080853D01*
X117082481Y-104173985D01*
X117201015Y-104292519D01*
X117294147Y-104431900D01*
X117358297Y-104586772D01*
X117391000Y-104751184D01*
X117391000Y-104918816D01*
X117358297Y-105083228D01*
X117294147Y-105238100D01*
X117201015Y-105377481D01*
X117082481Y-105496015D01*
X116943100Y-105589147D01*
X116788228Y-105653297D01*
X116623816Y-105686000D01*
X116456184Y-105686000D01*
X116291772Y-105653297D01*
X116136900Y-105589147D01*
X115997519Y-105496015D01*
X115878985Y-105377481D01*
X115785853Y-105238100D01*
X115721703Y-105083228D01*
X115689000Y-104918816D01*
X115689000Y-104751184D01*
X115721703Y-104586772D01*
X115785853Y-104431900D01*
X115878985Y-104292519D01*
X115997519Y-104173985D01*
X116136900Y-104080853D01*
X116291772Y-104016703D01*
X116456184Y-103984000D01*
X116623816Y-103984000D01*
X116788228Y-104016703D01*
G37*
G36*
X119628228Y-102631703D02*
G01*
X119783100Y-102695853D01*
X119922481Y-102788985D01*
X120041015Y-102907519D01*
X120134147Y-103046900D01*
X120198297Y-103201772D01*
X120231000Y-103366184D01*
X120231000Y-103533816D01*
X120198297Y-103698228D01*
X120134147Y-103853100D01*
X120041015Y-103992481D01*
X119922481Y-104111015D01*
X119783100Y-104204147D01*
X119628228Y-104268297D01*
X119463816Y-104301000D01*
X119296184Y-104301000D01*
X119131772Y-104268297D01*
X118976900Y-104204147D01*
X118837519Y-104111015D01*
X118718985Y-103992481D01*
X118625853Y-103853100D01*
X118561703Y-103698228D01*
X118529000Y-103533816D01*
X118529000Y-103366184D01*
X118561703Y-103201772D01*
X118625853Y-103046900D01*
X118718985Y-102907519D01*
X118837519Y-102788985D01*
X118976900Y-102695853D01*
X119131772Y-102631703D01*
X119296184Y-102599000D01*
X119463816Y-102599000D01*
X119628228Y-102631703D01*
G37*
G36*
X132320254Y-98967818D02*
G01*
X132693511Y-99122426D01*
X132693513Y-99122427D01*
X133029436Y-99346884D01*
X133315116Y-99632564D01*
X133446371Y-99829000D01*
X133539574Y-99968489D01*
X133694182Y-100341746D01*
X133773000Y-100737993D01*
X133773000Y-101142007D01*
X133694182Y-101538254D01*
X133578816Y-101816772D01*
X133539573Y-101911513D01*
X133315116Y-102247436D01*
X133029436Y-102533116D01*
X132693513Y-102757573D01*
X132693512Y-102757574D01*
X132693511Y-102757574D01*
X132320254Y-102912182D01*
X131924007Y-102991000D01*
X131519993Y-102991000D01*
X131123746Y-102912182D01*
X130750489Y-102757574D01*
X130750488Y-102757574D01*
X130750487Y-102757573D01*
X130414564Y-102533116D01*
X130128884Y-102247436D01*
X129904427Y-101911513D01*
X129865184Y-101816772D01*
X129749818Y-101538254D01*
X129671000Y-101142007D01*
X129671000Y-100737993D01*
X129749818Y-100341746D01*
X129904426Y-99968489D01*
X129997630Y-99829000D01*
X130128884Y-99632564D01*
X130414564Y-99346884D01*
X130750487Y-99122427D01*
X130750489Y-99122426D01*
X131123746Y-98967818D01*
X131519993Y-98889000D01*
X131924007Y-98889000D01*
X132320254Y-98967818D01*
G37*
G36*
X155688254Y-98967818D02*
G01*
X156061511Y-99122426D01*
X156061513Y-99122427D01*
X156397436Y-99346884D01*
X156683116Y-99632564D01*
X156814371Y-99829000D01*
X156907574Y-99968489D01*
X157062182Y-100341746D01*
X157141000Y-100737993D01*
X157141000Y-101142007D01*
X157062182Y-101538254D01*
X156946816Y-101816772D01*
X156907573Y-101911513D01*
X156683116Y-102247436D01*
X156397436Y-102533116D01*
X156061513Y-102757573D01*
X156061512Y-102757574D01*
X156061511Y-102757574D01*
X155688254Y-102912182D01*
X155292007Y-102991000D01*
X154887993Y-102991000D01*
X154491746Y-102912182D01*
X154118489Y-102757574D01*
X154118488Y-102757574D01*
X154118487Y-102757573D01*
X153782564Y-102533116D01*
X153496884Y-102247436D01*
X153272427Y-101911513D01*
X153233184Y-101816772D01*
X153117818Y-101538254D01*
X153039000Y-101142007D01*
X153039000Y-100737993D01*
X153117818Y-100341746D01*
X153272426Y-99968489D01*
X153365630Y-99829000D01*
X153496884Y-99632564D01*
X153782564Y-99346884D01*
X154118487Y-99122427D01*
X154118489Y-99122426D01*
X154491746Y-98967818D01*
X154887993Y-98889000D01*
X155292007Y-98889000D01*
X155688254Y-98967818D01*
G37*
G36*
X116788228Y-101246703D02*
G01*
X116943100Y-101310853D01*
X117082481Y-101403985D01*
X117201015Y-101522519D01*
X117294147Y-101661900D01*
X117358297Y-101816772D01*
X117391000Y-101981184D01*
X117391000Y-102148816D01*
X117358297Y-102313228D01*
X117294147Y-102468100D01*
X117201015Y-102607481D01*
X117082481Y-102726015D01*
X116943100Y-102819147D01*
X116788228Y-102883297D01*
X116623816Y-102916000D01*
X116456184Y-102916000D01*
X116291772Y-102883297D01*
X116136900Y-102819147D01*
X115997519Y-102726015D01*
X115878985Y-102607481D01*
X115785853Y-102468100D01*
X115721703Y-102313228D01*
X115689000Y-102148816D01*
X115689000Y-101981184D01*
X115721703Y-101816772D01*
X115785853Y-101661900D01*
X115878985Y-101522519D01*
X115997519Y-101403985D01*
X116136900Y-101310853D01*
X116291772Y-101246703D01*
X116456184Y-101214000D01*
X116623816Y-101214000D01*
X116788228Y-101246703D01*
G37*
G36*
X119628228Y-99861703D02*
G01*
X119783100Y-99925853D01*
X119922481Y-100018985D01*
X120041015Y-100137519D01*
X120134147Y-100276900D01*
X120198297Y-100431772D01*
X120231000Y-100596184D01*
X120231000Y-100763816D01*
X120198297Y-100928228D01*
X120134147Y-101083100D01*
X120041015Y-101222481D01*
X119922481Y-101341015D01*
X119783100Y-101434147D01*
X119628228Y-101498297D01*
X119463816Y-101531000D01*
X119296184Y-101531000D01*
X119131772Y-101498297D01*
X118976900Y-101434147D01*
X118837519Y-101341015D01*
X118718985Y-101222481D01*
X118625853Y-101083100D01*
X118561703Y-100928228D01*
X118529000Y-100763816D01*
X118529000Y-100596184D01*
X118561703Y-100431772D01*
X118625853Y-100276900D01*
X118718985Y-100137519D01*
X118837519Y-100018985D01*
X118976900Y-99925853D01*
X119131772Y-99861703D01*
X119296184Y-99829000D01*
X119463816Y-99829000D01*
X119628228Y-99861703D01*
G37*
G36*
X118558254Y-91747818D02*
G01*
X118931511Y-91902426D01*
X118931513Y-91902427D01*
X119267436Y-92126884D01*
X119553116Y-92412564D01*
X119731020Y-92678815D01*
X119777574Y-92748489D01*
X119932182Y-93121746D01*
X120011000Y-93517993D01*
X120011000Y-93922007D01*
X119932182Y-94318254D01*
X119777574Y-94691511D01*
X119777573Y-94691513D01*
X119553116Y-95027436D01*
X119267436Y-95313116D01*
X118931513Y-95537573D01*
X118931512Y-95537574D01*
X118931511Y-95537574D01*
X118558254Y-95692182D01*
X118162007Y-95771000D01*
X117757993Y-95771000D01*
X117361746Y-95692182D01*
X116988489Y-95537574D01*
X116988488Y-95537574D01*
X116988487Y-95537573D01*
X116652564Y-95313116D01*
X116366884Y-95027436D01*
X116142427Y-94691513D01*
X116142426Y-94691511D01*
X115987818Y-94318254D01*
X115909000Y-93922007D01*
X115909000Y-93517993D01*
X115987818Y-93121746D01*
X116142426Y-92748489D01*
X116188981Y-92678815D01*
X116366884Y-92412564D01*
X116652564Y-92126884D01*
X116988487Y-91902427D01*
X116988489Y-91902426D01*
X117361746Y-91747818D01*
X117757993Y-91669000D01*
X118162007Y-91669000D01*
X118558254Y-91747818D01*
G37*
G36*
X154521000Y-94831000D02*
G01*
X152819000Y-94831000D01*
X152819000Y-93129000D01*
X154521000Y-93129000D01*
X154521000Y-94831000D01*
G37*
G36*
X131153000Y-94831000D02*
G01*
X129451000Y-94831000D01*
X129451000Y-93129000D01*
X131153000Y-93129000D01*
X131153000Y-94831000D01*
G37*
G36*
X156758228Y-91776703D02*
G01*
X156913100Y-91840853D01*
X157052481Y-91933985D01*
X157171015Y-92052519D01*
X157264147Y-92191900D01*
X157328297Y-92346772D01*
X157361000Y-92511184D01*
X157361000Y-92678816D01*
X157328297Y-92843228D01*
X157264147Y-92998100D01*
X157171015Y-93137481D01*
X157052481Y-93256015D01*
X156913100Y-93349147D01*
X156758228Y-93413297D01*
X156593816Y-93446000D01*
X156426184Y-93446000D01*
X156261772Y-93413297D01*
X156106900Y-93349147D01*
X155967519Y-93256015D01*
X155848985Y-93137481D01*
X155755853Y-92998100D01*
X155691703Y-92843228D01*
X155659000Y-92678816D01*
X155659000Y-92511184D01*
X155691703Y-92346772D01*
X155755853Y-92191900D01*
X155848985Y-92052519D01*
X155967519Y-91933985D01*
X156106900Y-91840853D01*
X156261772Y-91776703D01*
X156426184Y-91744000D01*
X156593816Y-91744000D01*
X156758228Y-91776703D01*
G37*
G36*
X133390228Y-91776703D02*
G01*
X133545100Y-91840853D01*
X133684481Y-91933985D01*
X133803015Y-92052519D01*
X133896147Y-92191900D01*
X133960297Y-92346772D01*
X133993000Y-92511184D01*
X133993000Y-92678816D01*
X133960297Y-92843228D01*
X133896147Y-92998100D01*
X133803015Y-93137481D01*
X133684481Y-93256015D01*
X133545100Y-93349147D01*
X133390228Y-93413297D01*
X133225816Y-93446000D01*
X133058184Y-93446000D01*
X132893772Y-93413297D01*
X132738900Y-93349147D01*
X132599519Y-93256015D01*
X132480985Y-93137481D01*
X132387853Y-92998100D01*
X132323703Y-92843228D01*
X132291000Y-92678816D01*
X132291000Y-92511184D01*
X132323703Y-92346772D01*
X132387853Y-92191900D01*
X132480985Y-92052519D01*
X132599519Y-91933985D01*
X132738900Y-91840853D01*
X132893772Y-91776703D01*
X133058184Y-91744000D01*
X133225816Y-91744000D01*
X133390228Y-91776703D01*
G37*
G36*
X153918228Y-90391703D02*
G01*
X154073100Y-90455853D01*
X154212481Y-90548985D01*
X154331015Y-90667519D01*
X154424147Y-90806900D01*
X154488297Y-90961772D01*
X154521000Y-91126184D01*
X154521000Y-91293816D01*
X154488297Y-91458228D01*
X154424147Y-91613100D01*
X154331015Y-91752481D01*
X154212481Y-91871015D01*
X154073100Y-91964147D01*
X153918228Y-92028297D01*
X153753816Y-92061000D01*
X153586184Y-92061000D01*
X153421772Y-92028297D01*
X153266900Y-91964147D01*
X153127519Y-91871015D01*
X153008985Y-91752481D01*
X152915853Y-91613100D01*
X152851703Y-91458228D01*
X152819000Y-91293816D01*
X152819000Y-91126184D01*
X152851703Y-90961772D01*
X152915853Y-90806900D01*
X153008985Y-90667519D01*
X153127519Y-90548985D01*
X153266900Y-90455853D01*
X153421772Y-90391703D01*
X153586184Y-90359000D01*
X153753816Y-90359000D01*
X153918228Y-90391703D01*
G37*
G36*
X130550228Y-90391703D02*
G01*
X130705100Y-90455853D01*
X130844481Y-90548985D01*
X130963015Y-90667519D01*
X131056147Y-90806900D01*
X131120297Y-90961772D01*
X131153000Y-91126184D01*
X131153000Y-91293816D01*
X131120297Y-91458228D01*
X131056147Y-91613100D01*
X130963015Y-91752481D01*
X130844481Y-91871015D01*
X130705100Y-91964147D01*
X130550228Y-92028297D01*
X130385816Y-92061000D01*
X130218184Y-92061000D01*
X130053772Y-92028297D01*
X129898900Y-91964147D01*
X129759519Y-91871015D01*
X129640985Y-91752481D01*
X129547853Y-91613100D01*
X129483703Y-91458228D01*
X129451000Y-91293816D01*
X129451000Y-91126184D01*
X129483703Y-90961772D01*
X129547853Y-90806900D01*
X129640985Y-90667519D01*
X129759519Y-90548985D01*
X129898900Y-90455853D01*
X130053772Y-90391703D01*
X130218184Y-90359000D01*
X130385816Y-90359000D01*
X130550228Y-90391703D01*
G37*
G36*
X133390228Y-89006703D02*
G01*
X133545100Y-89070853D01*
X133684481Y-89163985D01*
X133803015Y-89282519D01*
X133896147Y-89421900D01*
X133960297Y-89576772D01*
X133993000Y-89741184D01*
X133993000Y-89908816D01*
X133960297Y-90073228D01*
X133896147Y-90228100D01*
X133803015Y-90367481D01*
X133684481Y-90486015D01*
X133545100Y-90579147D01*
X133390228Y-90643297D01*
X133225816Y-90676000D01*
X133058184Y-90676000D01*
X132893772Y-90643297D01*
X132738900Y-90579147D01*
X132599519Y-90486015D01*
X132480985Y-90367481D01*
X132387853Y-90228100D01*
X132323703Y-90073228D01*
X132291000Y-89908816D01*
X132291000Y-89741184D01*
X132323703Y-89576772D01*
X132387853Y-89421900D01*
X132480985Y-89282519D01*
X132599519Y-89163985D01*
X132738900Y-89070853D01*
X132893772Y-89006703D01*
X133058184Y-88974000D01*
X133225816Y-88974000D01*
X133390228Y-89006703D01*
G37*
G36*
X156758228Y-89006703D02*
G01*
X156913100Y-89070853D01*
X157052481Y-89163985D01*
X157171015Y-89282519D01*
X157264147Y-89421900D01*
X157328297Y-89576772D01*
X157361000Y-89741184D01*
X157361000Y-89908816D01*
X157328297Y-90073228D01*
X157264147Y-90228100D01*
X157171015Y-90367481D01*
X157052481Y-90486015D01*
X156913100Y-90579147D01*
X156758228Y-90643297D01*
X156593816Y-90676000D01*
X156426184Y-90676000D01*
X156261772Y-90643297D01*
X156106900Y-90579147D01*
X155967519Y-90486015D01*
X155848985Y-90367481D01*
X155755853Y-90228100D01*
X155691703Y-90073228D01*
X155659000Y-89908816D01*
X155659000Y-89741184D01*
X155691703Y-89576772D01*
X155755853Y-89421900D01*
X155848985Y-89282519D01*
X155967519Y-89163985D01*
X156106900Y-89070853D01*
X156261772Y-89006703D01*
X156426184Y-88974000D01*
X156593816Y-88974000D01*
X156758228Y-89006703D01*
G37*
G36*
X153918228Y-87621703D02*
G01*
X154073100Y-87685853D01*
X154212481Y-87778985D01*
X154331015Y-87897519D01*
X154424147Y-88036900D01*
X154488297Y-88191772D01*
X154521000Y-88356184D01*
X154521000Y-88523816D01*
X154488297Y-88688228D01*
X154424147Y-88843100D01*
X154331015Y-88982481D01*
X154212481Y-89101015D01*
X154073100Y-89194147D01*
X153918228Y-89258297D01*
X153753816Y-89291000D01*
X153586184Y-89291000D01*
X153421772Y-89258297D01*
X153266900Y-89194147D01*
X153127519Y-89101015D01*
X153008985Y-88982481D01*
X152915853Y-88843100D01*
X152851703Y-88688228D01*
X152819000Y-88523816D01*
X152819000Y-88356184D01*
X152851703Y-88191772D01*
X152915853Y-88036900D01*
X153008985Y-87897519D01*
X153127519Y-87778985D01*
X153266900Y-87685853D01*
X153421772Y-87621703D01*
X153586184Y-87589000D01*
X153753816Y-87589000D01*
X153918228Y-87621703D01*
G37*
G36*
X130550228Y-87621703D02*
G01*
X130705100Y-87685853D01*
X130844481Y-87778985D01*
X130963015Y-87897519D01*
X131056147Y-88036900D01*
X131120297Y-88191772D01*
X131153000Y-88356184D01*
X131153000Y-88523816D01*
X131120297Y-88688228D01*
X131056147Y-88843100D01*
X130963015Y-88982481D01*
X130844481Y-89101015D01*
X130705100Y-89194147D01*
X130550228Y-89258297D01*
X130385816Y-89291000D01*
X130218184Y-89291000D01*
X130053772Y-89258297D01*
X129898900Y-89194147D01*
X129759519Y-89101015D01*
X129640985Y-88982481D01*
X129547853Y-88843100D01*
X129483703Y-88688228D01*
X129451000Y-88523816D01*
X129451000Y-88356184D01*
X129483703Y-88191772D01*
X129547853Y-88036900D01*
X129640985Y-87897519D01*
X129759519Y-87778985D01*
X129898900Y-87685853D01*
X130053772Y-87621703D01*
X130218184Y-87589000D01*
X130385816Y-87589000D01*
X130550228Y-87621703D01*
G37*
G36*
X156758228Y-86236703D02*
G01*
X156913100Y-86300853D01*
X157052481Y-86393985D01*
X157171015Y-86512519D01*
X157264147Y-86651900D01*
X157328297Y-86806772D01*
X157361000Y-86971184D01*
X157361000Y-87138816D01*
X157328297Y-87303228D01*
X157264147Y-87458100D01*
X157171015Y-87597481D01*
X157052481Y-87716015D01*
X156913100Y-87809147D01*
X156758228Y-87873297D01*
X156593816Y-87906000D01*
X156426184Y-87906000D01*
X156261772Y-87873297D01*
X156106900Y-87809147D01*
X155967519Y-87716015D01*
X155848985Y-87597481D01*
X155755853Y-87458100D01*
X155691703Y-87303228D01*
X155659000Y-87138816D01*
X155659000Y-86971184D01*
X155691703Y-86806772D01*
X155755853Y-86651900D01*
X155848985Y-86512519D01*
X155967519Y-86393985D01*
X156106900Y-86300853D01*
X156261772Y-86236703D01*
X156426184Y-86204000D01*
X156593816Y-86204000D01*
X156758228Y-86236703D01*
G37*
G36*
X133390228Y-86236703D02*
G01*
X133545100Y-86300853D01*
X133684481Y-86393985D01*
X133803015Y-86512519D01*
X133896147Y-86651900D01*
X133960297Y-86806772D01*
X133993000Y-86971184D01*
X133993000Y-87138816D01*
X133960297Y-87303228D01*
X133896147Y-87458100D01*
X133803015Y-87597481D01*
X133684481Y-87716015D01*
X133545100Y-87809147D01*
X133390228Y-87873297D01*
X133225816Y-87906000D01*
X133058184Y-87906000D01*
X132893772Y-87873297D01*
X132738900Y-87809147D01*
X132599519Y-87716015D01*
X132480985Y-87597481D01*
X132387853Y-87458100D01*
X132323703Y-87303228D01*
X132291000Y-87138816D01*
X132291000Y-86971184D01*
X132323703Y-86806772D01*
X132387853Y-86651900D01*
X132480985Y-86512519D01*
X132599519Y-86393985D01*
X132738900Y-86300853D01*
X132893772Y-86236703D01*
X133058184Y-86204000D01*
X133225816Y-86204000D01*
X133390228Y-86236703D01*
G37*
G36*
X153918228Y-84851703D02*
G01*
X154073100Y-84915853D01*
X154212481Y-85008985D01*
X154331015Y-85127519D01*
X154424147Y-85266900D01*
X154488297Y-85421772D01*
X154521000Y-85586184D01*
X154521000Y-85753816D01*
X154488297Y-85918228D01*
X154424147Y-86073100D01*
X154331015Y-86212481D01*
X154212481Y-86331015D01*
X154073100Y-86424147D01*
X153918228Y-86488297D01*
X153753816Y-86521000D01*
X153586184Y-86521000D01*
X153421772Y-86488297D01*
X153266900Y-86424147D01*
X153127519Y-86331015D01*
X153008985Y-86212481D01*
X152915853Y-86073100D01*
X152851703Y-85918228D01*
X152819000Y-85753816D01*
X152819000Y-85586184D01*
X152851703Y-85421772D01*
X152915853Y-85266900D01*
X153008985Y-85127519D01*
X153127519Y-85008985D01*
X153266900Y-84915853D01*
X153421772Y-84851703D01*
X153586184Y-84819000D01*
X153753816Y-84819000D01*
X153918228Y-84851703D01*
G37*
G36*
X130550228Y-84851703D02*
G01*
X130705100Y-84915853D01*
X130844481Y-85008985D01*
X130963015Y-85127519D01*
X131056147Y-85266900D01*
X131120297Y-85421772D01*
X131153000Y-85586184D01*
X131153000Y-85753816D01*
X131120297Y-85918228D01*
X131056147Y-86073100D01*
X130963015Y-86212481D01*
X130844481Y-86331015D01*
X130705100Y-86424147D01*
X130550228Y-86488297D01*
X130385816Y-86521000D01*
X130218184Y-86521000D01*
X130053772Y-86488297D01*
X129898900Y-86424147D01*
X129759519Y-86331015D01*
X129640985Y-86212481D01*
X129547853Y-86073100D01*
X129483703Y-85918228D01*
X129451000Y-85753816D01*
X129451000Y-85586184D01*
X129483703Y-85421772D01*
X129547853Y-85266900D01*
X129640985Y-85127519D01*
X129759519Y-85008985D01*
X129898900Y-84915853D01*
X130053772Y-84851703D01*
X130218184Y-84819000D01*
X130385816Y-84819000D01*
X130550228Y-84851703D01*
G37*
G36*
X168967477Y-76903892D02*
G01*
X169310541Y-77045994D01*
X169795707Y-77246956D01*
X170541093Y-77745008D01*
X171174992Y-78378907D01*
X171673044Y-79124293D01*
X171874006Y-79609459D01*
X172016108Y-79952523D01*
X172191000Y-80831764D01*
X172191000Y-81728236D01*
X172016108Y-82607477D01*
X171929658Y-82816185D01*
X171673044Y-83435707D01*
X171174992Y-84181093D01*
X170541093Y-84814992D01*
X169795707Y-85313044D01*
X169310541Y-85514006D01*
X168967477Y-85656108D01*
X168088236Y-85831000D01*
X167191764Y-85831000D01*
X166312523Y-85656108D01*
X165969459Y-85514006D01*
X165484293Y-85313044D01*
X164738907Y-84814992D01*
X164105008Y-84181093D01*
X163606956Y-83435707D01*
X163350342Y-82816185D01*
X163263892Y-82607477D01*
X163089000Y-81728236D01*
X163089000Y-80831764D01*
X163263892Y-79952523D01*
X163405994Y-79609459D01*
X163606956Y-79124293D01*
X164105008Y-78378907D01*
X164738907Y-77745008D01*
X165484293Y-77246956D01*
X165969459Y-77045994D01*
X166312523Y-76903892D01*
X167191764Y-76729000D01*
X168088236Y-76729000D01*
X168967477Y-76903892D01*
G37*
G36*
X115627477Y-76903892D02*
G01*
X115970541Y-77045994D01*
X116455707Y-77246956D01*
X117201093Y-77745008D01*
X117834992Y-78378907D01*
X118333044Y-79124293D01*
X118534006Y-79609459D01*
X118676108Y-79952523D01*
X118851000Y-80831764D01*
X118851000Y-81728236D01*
X118676108Y-82607477D01*
X118589658Y-82816185D01*
X118333044Y-83435707D01*
X117834992Y-84181093D01*
X117201093Y-84814992D01*
X116455707Y-85313044D01*
X115970541Y-85514006D01*
X115627477Y-85656108D01*
X114748236Y-85831000D01*
X113851764Y-85831000D01*
X112972523Y-85656108D01*
X112629459Y-85514006D01*
X112144293Y-85313044D01*
X111398907Y-84814992D01*
X110765008Y-84181093D01*
X110266956Y-83435707D01*
X110010342Y-82816185D01*
X109923892Y-82607477D01*
X109749000Y-81728236D01*
X109749000Y-80831764D01*
X109923892Y-79952523D01*
X110065994Y-79609459D01*
X110266956Y-79124293D01*
X110765008Y-78378907D01*
X111398907Y-77745008D01*
X112144293Y-77246956D01*
X112629459Y-77045994D01*
X112972523Y-76903892D01*
X113851764Y-76729000D01*
X114748236Y-76729000D01*
X115627477Y-76903892D01*
G37*
G36*
X156758228Y-83466703D02*
G01*
X156913100Y-83530853D01*
X157052481Y-83623985D01*
X157171015Y-83742519D01*
X157264147Y-83881900D01*
X157328297Y-84036772D01*
X157361000Y-84201184D01*
X157361000Y-84368816D01*
X157328297Y-84533228D01*
X157264147Y-84688100D01*
X157171015Y-84827481D01*
X157052481Y-84946015D01*
X156913100Y-85039147D01*
X156758228Y-85103297D01*
X156593816Y-85136000D01*
X156426184Y-85136000D01*
X156261772Y-85103297D01*
X156106900Y-85039147D01*
X155967519Y-84946015D01*
X155848985Y-84827481D01*
X155755853Y-84688100D01*
X155691703Y-84533228D01*
X155659000Y-84368816D01*
X155659000Y-84201184D01*
X155691703Y-84036772D01*
X155755853Y-83881900D01*
X155848985Y-83742519D01*
X155967519Y-83623985D01*
X156106900Y-83530853D01*
X156261772Y-83466703D01*
X156426184Y-83434000D01*
X156593816Y-83434000D01*
X156758228Y-83466703D01*
G37*
G36*
X133390228Y-83466703D02*
G01*
X133545100Y-83530853D01*
X133684481Y-83623985D01*
X133803015Y-83742519D01*
X133896147Y-83881900D01*
X133960297Y-84036772D01*
X133993000Y-84201184D01*
X133993000Y-84368816D01*
X133960297Y-84533228D01*
X133896147Y-84688100D01*
X133803015Y-84827481D01*
X133684481Y-84946015D01*
X133545100Y-85039147D01*
X133390228Y-85103297D01*
X133225816Y-85136000D01*
X133058184Y-85136000D01*
X132893772Y-85103297D01*
X132738900Y-85039147D01*
X132599519Y-84946015D01*
X132480985Y-84827481D01*
X132387853Y-84688100D01*
X132323703Y-84533228D01*
X132291000Y-84368816D01*
X132291000Y-84201184D01*
X132323703Y-84036772D01*
X132387853Y-83881900D01*
X132480985Y-83742519D01*
X132599519Y-83623985D01*
X132738900Y-83530853D01*
X132893772Y-83466703D01*
X133058184Y-83434000D01*
X133225816Y-83434000D01*
X133390228Y-83466703D01*
G37*
G36*
X153918228Y-82081703D02*
G01*
X154073100Y-82145853D01*
X154212481Y-82238985D01*
X154331015Y-82357519D01*
X154424147Y-82496900D01*
X154488297Y-82651772D01*
X154521000Y-82816184D01*
X154521000Y-82983816D01*
X154488297Y-83148228D01*
X154424147Y-83303100D01*
X154331015Y-83442481D01*
X154212481Y-83561015D01*
X154073100Y-83654147D01*
X153918228Y-83718297D01*
X153753816Y-83751000D01*
X153586184Y-83751000D01*
X153421772Y-83718297D01*
X153266900Y-83654147D01*
X153127519Y-83561015D01*
X153008985Y-83442481D01*
X152915853Y-83303100D01*
X152851703Y-83148228D01*
X152819000Y-82983816D01*
X152819000Y-82816184D01*
X152851703Y-82651772D01*
X152915853Y-82496900D01*
X153008985Y-82357519D01*
X153127519Y-82238985D01*
X153266900Y-82145853D01*
X153421772Y-82081703D01*
X153586184Y-82049000D01*
X153753816Y-82049000D01*
X153918228Y-82081703D01*
G37*
G36*
X130550228Y-82081703D02*
G01*
X130705100Y-82145853D01*
X130844481Y-82238985D01*
X130963015Y-82357519D01*
X131056147Y-82496900D01*
X131120297Y-82651772D01*
X131153000Y-82816184D01*
X131153000Y-82983816D01*
X131120297Y-83148228D01*
X131056147Y-83303100D01*
X130963015Y-83442481D01*
X130844481Y-83561015D01*
X130705100Y-83654147D01*
X130550228Y-83718297D01*
X130385816Y-83751000D01*
X130218184Y-83751000D01*
X130053772Y-83718297D01*
X129898900Y-83654147D01*
X129759519Y-83561015D01*
X129640985Y-83442481D01*
X129547853Y-83303100D01*
X129483703Y-83148228D01*
X129451000Y-82983816D01*
X129451000Y-82816184D01*
X129483703Y-82651772D01*
X129547853Y-82496900D01*
X129640985Y-82357519D01*
X129759519Y-82238985D01*
X129898900Y-82145853D01*
X130053772Y-82081703D01*
X130218184Y-82049000D01*
X130385816Y-82049000D01*
X130550228Y-82081703D01*
G37*
G36*
X155688254Y-73967818D02*
G01*
X156061511Y-74122426D01*
X156061513Y-74122427D01*
X156397436Y-74346884D01*
X156683116Y-74632564D01*
X156907574Y-74968489D01*
X157062182Y-75341746D01*
X157141000Y-75737993D01*
X157141000Y-76142007D01*
X157062182Y-76538254D01*
X156983172Y-76729000D01*
X156907573Y-76911513D01*
X156683116Y-77247436D01*
X156397436Y-77533116D01*
X156061513Y-77757573D01*
X156061512Y-77757574D01*
X156061511Y-77757574D01*
X155688254Y-77912182D01*
X155292007Y-77991000D01*
X154887993Y-77991000D01*
X154491746Y-77912182D01*
X154118489Y-77757574D01*
X154118488Y-77757574D01*
X154118487Y-77757573D01*
X153782564Y-77533116D01*
X153496884Y-77247436D01*
X153272427Y-76911513D01*
X153196828Y-76729000D01*
X153117818Y-76538254D01*
X153039000Y-76142007D01*
X153039000Y-75737993D01*
X153117818Y-75341746D01*
X153272426Y-74968489D01*
X153496884Y-74632564D01*
X153782564Y-74346884D01*
X154118487Y-74122427D01*
X154118489Y-74122426D01*
X154491746Y-73967818D01*
X154887993Y-73889000D01*
X155292007Y-73889000D01*
X155688254Y-73967818D01*
G37*
G36*
X132320254Y-73967818D02*
G01*
X132693511Y-74122426D01*
X132693513Y-74122427D01*
X133029436Y-74346884D01*
X133315116Y-74632564D01*
X133539574Y-74968489D01*
X133694182Y-75341746D01*
X133773000Y-75737993D01*
X133773000Y-76142007D01*
X133694182Y-76538254D01*
X133615172Y-76729000D01*
X133539573Y-76911513D01*
X133315116Y-77247436D01*
X133029436Y-77533116D01*
X132693513Y-77757573D01*
X132693512Y-77757574D01*
X132693511Y-77757574D01*
X132320254Y-77912182D01*
X131924007Y-77991000D01*
X131519993Y-77991000D01*
X131123746Y-77912182D01*
X130750489Y-77757574D01*
X130750488Y-77757574D01*
X130750487Y-77757573D01*
X130414564Y-77533116D01*
X130128884Y-77247436D01*
X129904427Y-76911513D01*
X129828828Y-76729000D01*
X129749818Y-76538254D01*
X129671000Y-76142007D01*
X129671000Y-75737993D01*
X129749818Y-75341746D01*
X129904426Y-74968489D01*
X130128884Y-74632564D01*
X130414564Y-74346884D01*
X130750487Y-74122427D01*
X130750489Y-74122426D01*
X131123746Y-73967818D01*
X131519993Y-73889000D01*
X131924007Y-73889000D01*
X132320254Y-73967818D01*
G37*
M02*
