G04 #@! TF.GenerationSoftware,KiCad,Pcbnew,5.1.5-52549c5~84~ubuntu18.04.1*
G04 #@! TF.CreationDate,2020-01-19T15:20:56-05:00*
G04 #@! TF.ProjectId,datapod_IR_splitter,64617461-706f-4645-9f49-525f73706c69,rev?*
G04 #@! TF.SameCoordinates,Original*
G04 #@! TF.FileFunction,Copper,L2,Bot*
G04 #@! TF.FilePolarity,Positive*
%FSLAX46Y46*%
G04 Gerber Fmt 4.6, Leading zero omitted, Abs format (unit mm)*
G04 Created by KiCad (PCBNEW 5.1.5-52549c5~84~ubuntu18.04.1) date 2020-01-19 15:20:56*
%MOMM*%
%LPD*%
G04 APERTURE LIST*
%ADD10R,1.600000X1.600000*%
%ADD11C,1.600000*%
%ADD12C,4.000000*%
%ADD13C,9.000000*%
%ADD14C,0.762000*%
%ADD15C,0.254000*%
G04 APERTURE END LIST*
D10*
X119380000Y-111760000D03*
D11*
X119380000Y-108990000D03*
X119380000Y-106220000D03*
X119380000Y-103450000D03*
X119380000Y-100680000D03*
X116540000Y-110375000D03*
X116540000Y-107605000D03*
X116540000Y-104835000D03*
X116540000Y-102065000D03*
D12*
X117960000Y-93720000D03*
X117960000Y-118720000D03*
D10*
X153670000Y-129540000D03*
D11*
X153670000Y-126770000D03*
X153670000Y-124000000D03*
X153670000Y-121230000D03*
X153670000Y-118460000D03*
X156510000Y-128155000D03*
X156510000Y-125385000D03*
X156510000Y-122615000D03*
X156510000Y-119845000D03*
D12*
X155090000Y-136500000D03*
X155090000Y-111500000D03*
X131722000Y-75940000D03*
X131722000Y-100940000D03*
D11*
X133142000Y-84285000D03*
X133142000Y-87055000D03*
X133142000Y-89825000D03*
X133142000Y-92595000D03*
X130302000Y-82900000D03*
X130302000Y-85670000D03*
X130302000Y-88440000D03*
X130302000Y-91210000D03*
D10*
X130302000Y-93980000D03*
X153670000Y-93980000D03*
D11*
X153670000Y-91210000D03*
X153670000Y-88440000D03*
X153670000Y-85670000D03*
X153670000Y-82900000D03*
X156510000Y-92595000D03*
X156510000Y-89825000D03*
X156510000Y-87055000D03*
X156510000Y-84285000D03*
D12*
X155090000Y-100940000D03*
X155090000Y-75940000D03*
X131722000Y-111500000D03*
X131722000Y-136500000D03*
D11*
X133142000Y-119845000D03*
X133142000Y-122615000D03*
X133142000Y-125385000D03*
X133142000Y-128155000D03*
X130302000Y-118460000D03*
X130302000Y-121230000D03*
X130302000Y-124000000D03*
X130302000Y-126770000D03*
D10*
X130302000Y-129540000D03*
D13*
X114300000Y-81280000D03*
X114300000Y-132080000D03*
X167640000Y-132080000D03*
X167640000Y-81280000D03*
D14*
X127690000Y-121230000D02*
X127000000Y-120540000D01*
X127000000Y-120540000D02*
X127000000Y-106680000D01*
X126310000Y-103450000D02*
X127000000Y-104140000D01*
X119380000Y-103450000D02*
X126310000Y-103450000D01*
X127000000Y-104140000D02*
X127000000Y-106680000D01*
X150186000Y-121230000D02*
X153670000Y-121230000D01*
X144780000Y-115824000D02*
X150186000Y-121230000D01*
X127000000Y-106680000D02*
X144780000Y-106680000D01*
X144780000Y-106680000D02*
X144780000Y-115824000D01*
X147392000Y-85670000D02*
X153670000Y-85670000D01*
X144780000Y-83058000D02*
X147392000Y-85670000D01*
X144780000Y-71120000D02*
X144780000Y-83058000D01*
X127000000Y-84980000D02*
X127000000Y-71120000D01*
X127000000Y-71120000D02*
X144780000Y-71120000D01*
X127690000Y-121230000D02*
X130302000Y-121230000D01*
X127072000Y-85670000D02*
X130302000Y-85670000D01*
X127000000Y-85598000D02*
X127072000Y-85670000D01*
X127000000Y-85598000D02*
X127000000Y-104140000D01*
X127000000Y-84980000D02*
X127000000Y-85598000D01*
X116540000Y-107605000D02*
X114300000Y-109845000D01*
X114300000Y-118879882D02*
X124460000Y-129039882D01*
X114300000Y-109845000D02*
X114300000Y-118879882D01*
X124460000Y-129039882D02*
X124460000Y-137160000D01*
X124460000Y-137160000D02*
X129540000Y-142240000D01*
X129540000Y-142240000D02*
X147320000Y-142240000D01*
X164247000Y-89825000D02*
X156510000Y-89825000D01*
X166624000Y-92202000D02*
X164247000Y-89825000D01*
X166624000Y-104394000D02*
X166624000Y-92202000D01*
X143855000Y-89825000D02*
X144780000Y-90750000D01*
X137460000Y-89825000D02*
X143855000Y-89825000D01*
X144780000Y-90750000D02*
X144780000Y-104140000D01*
X144780000Y-104140000D02*
X147320000Y-106680000D01*
X147320000Y-106680000D02*
X164338000Y-106680000D01*
X164338000Y-106680000D02*
X166624000Y-104394000D01*
X158913000Y-125385000D02*
X156510000Y-125385000D01*
X161036000Y-127508000D02*
X158913000Y-125385000D01*
X161036000Y-141478000D02*
X161036000Y-127508000D01*
X147320000Y-142240000D02*
X160274000Y-142240000D01*
X160274000Y-142240000D02*
X161036000Y-141478000D01*
X137460000Y-89825000D02*
X133142000Y-89825000D01*
X144780000Y-139700000D02*
X147320000Y-142240000D01*
X133142000Y-125385000D02*
X143165000Y-125385000D01*
X144780000Y-127000000D02*
X144780000Y-139700000D01*
X143165000Y-125385000D02*
X144780000Y-127000000D01*
X161036000Y-127508000D02*
X161036000Y-121158000D01*
X164338000Y-117856000D02*
X164338000Y-106680000D01*
X161036000Y-121158000D02*
X164338000Y-117856000D01*
D15*
G36*
X172060000Y-78652241D02*
G01*
X171628615Y-78006628D01*
X170913372Y-77291385D01*
X170072335Y-76729422D01*
X169137824Y-76342335D01*
X168145753Y-76145000D01*
X167134247Y-76145000D01*
X166142176Y-76342335D01*
X165207665Y-76729422D01*
X164366628Y-77291385D01*
X163651385Y-78006628D01*
X163089422Y-78847665D01*
X162702335Y-79782176D01*
X162505000Y-80774247D01*
X162505000Y-81785753D01*
X162702335Y-82777824D01*
X163089422Y-83712335D01*
X163651385Y-84553372D01*
X164366628Y-85268615D01*
X165207665Y-85830578D01*
X166142176Y-86217665D01*
X167134247Y-86415000D01*
X168145753Y-86415000D01*
X169137824Y-86217665D01*
X170072335Y-85830578D01*
X170913372Y-85268615D01*
X171628615Y-84553372D01*
X172060000Y-83907758D01*
X172060001Y-129452242D01*
X171628615Y-128806628D01*
X170913372Y-128091385D01*
X170072335Y-127529422D01*
X169137824Y-127142335D01*
X168145753Y-126945000D01*
X167134247Y-126945000D01*
X166142176Y-127142335D01*
X165207665Y-127529422D01*
X164366628Y-128091385D01*
X163651385Y-128806628D01*
X163089422Y-129647665D01*
X162702335Y-130582176D01*
X162505000Y-131574247D01*
X162505000Y-132585753D01*
X162702335Y-133577824D01*
X163089422Y-134512335D01*
X163651385Y-135353372D01*
X164366628Y-136068615D01*
X165207665Y-136630578D01*
X166142176Y-137017665D01*
X167134247Y-137215000D01*
X168145753Y-137215000D01*
X169137824Y-137017665D01*
X170072335Y-136630578D01*
X170913372Y-136068615D01*
X171628615Y-135353372D01*
X172060001Y-134707758D01*
X172060001Y-146660000D01*
X122193381Y-146660000D01*
X112373469Y-136840089D01*
X112802176Y-137017665D01*
X113794247Y-137215000D01*
X114805753Y-137215000D01*
X115797824Y-137017665D01*
X116732335Y-136630578D01*
X117573372Y-136068615D01*
X118288615Y-135353372D01*
X118850578Y-134512335D01*
X119237665Y-133577824D01*
X119435000Y-132585753D01*
X119435000Y-131574247D01*
X119237665Y-130582176D01*
X118850578Y-129647665D01*
X118288615Y-128806628D01*
X117573372Y-128091385D01*
X116732335Y-127529422D01*
X115797824Y-127142335D01*
X114805753Y-126945000D01*
X113794247Y-126945000D01*
X112802176Y-127142335D01*
X111867665Y-127529422D01*
X111026628Y-128091385D01*
X110311385Y-128806628D01*
X109749422Y-129647665D01*
X109362335Y-130582176D01*
X109165000Y-131574247D01*
X109165000Y-132585753D01*
X109362335Y-133577824D01*
X109539911Y-134006531D01*
X107340000Y-131806620D01*
X107340000Y-109845000D01*
X113279085Y-109845000D01*
X113284000Y-109894902D01*
X113284001Y-118829970D01*
X113279085Y-118879882D01*
X113298702Y-119079052D01*
X113335851Y-119201514D01*
X113356799Y-119270569D01*
X113451141Y-119447072D01*
X113578105Y-119601778D01*
X113616868Y-119633590D01*
X123444000Y-129460723D01*
X123444001Y-137110088D01*
X123439085Y-137160000D01*
X123458702Y-137359170D01*
X123511897Y-137534526D01*
X123516799Y-137550687D01*
X123611141Y-137727190D01*
X123738105Y-137881896D01*
X123776868Y-137913708D01*
X128786292Y-142923133D01*
X128818104Y-142961896D01*
X128972810Y-143088860D01*
X129087832Y-143150340D01*
X129149312Y-143183202D01*
X129340829Y-143241298D01*
X129540000Y-143260915D01*
X129589902Y-143256000D01*
X147270105Y-143256000D01*
X147319999Y-143260914D01*
X147369893Y-143256000D01*
X160224098Y-143256000D01*
X160274000Y-143260915D01*
X160323902Y-143256000D01*
X160473171Y-143241298D01*
X160664687Y-143183202D01*
X160841190Y-143088860D01*
X160995896Y-142961896D01*
X161027712Y-142923128D01*
X161719133Y-142231708D01*
X161757896Y-142199896D01*
X161884860Y-142045190D01*
X161979202Y-141868687D01*
X162037298Y-141677171D01*
X162052000Y-141527902D01*
X162052000Y-141527901D01*
X162056915Y-141478000D01*
X162052000Y-141428098D01*
X162052000Y-127557893D01*
X162056914Y-127507999D01*
X162052000Y-127458105D01*
X162052000Y-121578840D01*
X165021133Y-118609708D01*
X165059896Y-118577896D01*
X165186860Y-118423190D01*
X165281202Y-118246687D01*
X165339298Y-118055171D01*
X165354000Y-117905902D01*
X165354000Y-117905895D01*
X165358914Y-117856001D01*
X165354000Y-117806107D01*
X165354000Y-107100840D01*
X167307133Y-105147708D01*
X167345896Y-105115896D01*
X167472860Y-104961190D01*
X167567202Y-104784687D01*
X167625298Y-104593171D01*
X167640000Y-104443902D01*
X167640000Y-104443895D01*
X167644914Y-104394001D01*
X167640000Y-104344107D01*
X167640000Y-92251902D01*
X167644915Y-92202000D01*
X167625298Y-92002829D01*
X167567202Y-91811313D01*
X167472860Y-91634810D01*
X167467742Y-91628574D01*
X167345896Y-91480104D01*
X167307133Y-91448292D01*
X165000712Y-89141872D01*
X164968896Y-89103104D01*
X164814190Y-88976140D01*
X164637687Y-88881798D01*
X164446171Y-88823702D01*
X164296902Y-88809000D01*
X164247000Y-88804085D01*
X164197098Y-88809000D01*
X157523396Y-88809000D01*
X157424759Y-88710363D01*
X157189727Y-88553320D01*
X156928574Y-88445147D01*
X156902699Y-88440000D01*
X156928574Y-88434853D01*
X157189727Y-88326680D01*
X157424759Y-88169637D01*
X157624637Y-87969759D01*
X157781680Y-87734727D01*
X157889853Y-87473574D01*
X157945000Y-87196335D01*
X157945000Y-86913665D01*
X157889853Y-86636426D01*
X157781680Y-86375273D01*
X157624637Y-86140241D01*
X157424759Y-85940363D01*
X157189727Y-85783320D01*
X156928574Y-85675147D01*
X156902699Y-85670000D01*
X156928574Y-85664853D01*
X157189727Y-85556680D01*
X157424759Y-85399637D01*
X157624637Y-85199759D01*
X157781680Y-84964727D01*
X157889853Y-84703574D01*
X157945000Y-84426335D01*
X157945000Y-84143665D01*
X157889853Y-83866426D01*
X157781680Y-83605273D01*
X157624637Y-83370241D01*
X157424759Y-83170363D01*
X157189727Y-83013320D01*
X156928574Y-82905147D01*
X156651335Y-82850000D01*
X156368665Y-82850000D01*
X156091426Y-82905147D01*
X155830273Y-83013320D01*
X155595241Y-83170363D01*
X155395363Y-83370241D01*
X155238320Y-83605273D01*
X155130147Y-83866426D01*
X155075000Y-84143665D01*
X155075000Y-84426335D01*
X155130147Y-84703574D01*
X155238320Y-84964727D01*
X155395363Y-85199759D01*
X155595241Y-85399637D01*
X155830273Y-85556680D01*
X156091426Y-85664853D01*
X156117301Y-85670000D01*
X156091426Y-85675147D01*
X155830273Y-85783320D01*
X155595241Y-85940363D01*
X155395363Y-86140241D01*
X155238320Y-86375273D01*
X155130147Y-86636426D01*
X155075000Y-86913665D01*
X155075000Y-87196335D01*
X155130147Y-87473574D01*
X155238320Y-87734727D01*
X155395363Y-87969759D01*
X155595241Y-88169637D01*
X155830273Y-88326680D01*
X156091426Y-88434853D01*
X156117301Y-88440000D01*
X156091426Y-88445147D01*
X155830273Y-88553320D01*
X155595241Y-88710363D01*
X155395363Y-88910241D01*
X155238320Y-89145273D01*
X155130147Y-89406426D01*
X155075000Y-89683665D01*
X155075000Y-89966335D01*
X155130147Y-90243574D01*
X155238320Y-90504727D01*
X155395363Y-90739759D01*
X155595241Y-90939637D01*
X155830273Y-91096680D01*
X156091426Y-91204853D01*
X156117301Y-91210000D01*
X156091426Y-91215147D01*
X155830273Y-91323320D01*
X155595241Y-91480363D01*
X155395363Y-91680241D01*
X155238320Y-91915273D01*
X155130147Y-92176426D01*
X155075000Y-92453665D01*
X155075000Y-92736335D01*
X155130147Y-93013574D01*
X155238320Y-93274727D01*
X155395363Y-93509759D01*
X155595241Y-93709637D01*
X155830273Y-93866680D01*
X156091426Y-93974853D01*
X156368665Y-94030000D01*
X156651335Y-94030000D01*
X156928574Y-93974853D01*
X157189727Y-93866680D01*
X157424759Y-93709637D01*
X157624637Y-93509759D01*
X157781680Y-93274727D01*
X157889853Y-93013574D01*
X157945000Y-92736335D01*
X157945000Y-92453665D01*
X157889853Y-92176426D01*
X157781680Y-91915273D01*
X157624637Y-91680241D01*
X157424759Y-91480363D01*
X157189727Y-91323320D01*
X156928574Y-91215147D01*
X156902699Y-91210000D01*
X156928574Y-91204853D01*
X157189727Y-91096680D01*
X157424759Y-90939637D01*
X157523396Y-90841000D01*
X163826160Y-90841000D01*
X165608001Y-92622842D01*
X165608000Y-103973159D01*
X163917160Y-105664000D01*
X147740841Y-105664000D01*
X145796000Y-103719160D01*
X145796000Y-102787499D01*
X153422106Y-102787499D01*
X153638228Y-103154258D01*
X154098105Y-103394938D01*
X154596098Y-103541275D01*
X155113071Y-103587648D01*
X155629159Y-103532273D01*
X156124526Y-103377279D01*
X156541772Y-103154258D01*
X156757894Y-102787499D01*
X155090000Y-101119605D01*
X153422106Y-102787499D01*
X145796000Y-102787499D01*
X145796000Y-100963071D01*
X152442352Y-100963071D01*
X152497727Y-101479159D01*
X152652721Y-101974526D01*
X152875742Y-102391772D01*
X153242501Y-102607894D01*
X154910395Y-100940000D01*
X155269605Y-100940000D01*
X156937499Y-102607894D01*
X157304258Y-102391772D01*
X157544938Y-101931895D01*
X157691275Y-101433902D01*
X157737648Y-100916929D01*
X157682273Y-100400841D01*
X157527279Y-99905474D01*
X157304258Y-99488228D01*
X156937499Y-99272106D01*
X155269605Y-100940000D01*
X154910395Y-100940000D01*
X153242501Y-99272106D01*
X152875742Y-99488228D01*
X152635062Y-99948105D01*
X152488725Y-100446098D01*
X152442352Y-100963071D01*
X145796000Y-100963071D01*
X145796000Y-99092501D01*
X153422106Y-99092501D01*
X155090000Y-100760395D01*
X156757894Y-99092501D01*
X156541772Y-98725742D01*
X156081895Y-98485062D01*
X155583902Y-98338725D01*
X155066929Y-98292352D01*
X154550841Y-98347727D01*
X154055474Y-98502721D01*
X153638228Y-98725742D01*
X153422106Y-99092501D01*
X145796000Y-99092501D01*
X145796000Y-90799902D01*
X145800915Y-90750000D01*
X145781298Y-90550829D01*
X145723202Y-90359313D01*
X145628860Y-90182810D01*
X145533706Y-90066865D01*
X145501896Y-90028104D01*
X145463133Y-89996292D01*
X144608712Y-89141872D01*
X144576896Y-89103104D01*
X144422190Y-88976140D01*
X144245687Y-88881798D01*
X144054171Y-88823702D01*
X143904902Y-88809000D01*
X143855000Y-88804085D01*
X143805098Y-88809000D01*
X134155396Y-88809000D01*
X134056759Y-88710363D01*
X133821727Y-88553320D01*
X133560574Y-88445147D01*
X133534699Y-88440000D01*
X133560574Y-88434853D01*
X133821727Y-88326680D01*
X134056759Y-88169637D01*
X134256637Y-87969759D01*
X134413680Y-87734727D01*
X134521853Y-87473574D01*
X134577000Y-87196335D01*
X134577000Y-86913665D01*
X134521853Y-86636426D01*
X134413680Y-86375273D01*
X134256637Y-86140241D01*
X134056759Y-85940363D01*
X133821727Y-85783320D01*
X133560574Y-85675147D01*
X133534699Y-85670000D01*
X133560574Y-85664853D01*
X133821727Y-85556680D01*
X134056759Y-85399637D01*
X134256637Y-85199759D01*
X134413680Y-84964727D01*
X134521853Y-84703574D01*
X134577000Y-84426335D01*
X134577000Y-84143665D01*
X134521853Y-83866426D01*
X134413680Y-83605273D01*
X134256637Y-83370241D01*
X134056759Y-83170363D01*
X133821727Y-83013320D01*
X133560574Y-82905147D01*
X133283335Y-82850000D01*
X133000665Y-82850000D01*
X132723426Y-82905147D01*
X132462273Y-83013320D01*
X132227241Y-83170363D01*
X132027363Y-83370241D01*
X131870320Y-83605273D01*
X131762147Y-83866426D01*
X131707000Y-84143665D01*
X131707000Y-84426335D01*
X131762147Y-84703574D01*
X131870320Y-84964727D01*
X132027363Y-85199759D01*
X132227241Y-85399637D01*
X132462273Y-85556680D01*
X132723426Y-85664853D01*
X132749301Y-85670000D01*
X132723426Y-85675147D01*
X132462273Y-85783320D01*
X132227241Y-85940363D01*
X132027363Y-86140241D01*
X131870320Y-86375273D01*
X131762147Y-86636426D01*
X131707000Y-86913665D01*
X131707000Y-87196335D01*
X131762147Y-87473574D01*
X131870320Y-87734727D01*
X132027363Y-87969759D01*
X132227241Y-88169637D01*
X132462273Y-88326680D01*
X132723426Y-88434853D01*
X132749301Y-88440000D01*
X132723426Y-88445147D01*
X132462273Y-88553320D01*
X132227241Y-88710363D01*
X132027363Y-88910241D01*
X131870320Y-89145273D01*
X131762147Y-89406426D01*
X131707000Y-89683665D01*
X131707000Y-89966335D01*
X131762147Y-90243574D01*
X131870320Y-90504727D01*
X132027363Y-90739759D01*
X132227241Y-90939637D01*
X132462273Y-91096680D01*
X132723426Y-91204853D01*
X132749301Y-91210000D01*
X132723426Y-91215147D01*
X132462273Y-91323320D01*
X132227241Y-91480363D01*
X132027363Y-91680241D01*
X131870320Y-91915273D01*
X131762147Y-92176426D01*
X131707000Y-92453665D01*
X131707000Y-92736335D01*
X131762147Y-93013574D01*
X131870320Y-93274727D01*
X132027363Y-93509759D01*
X132227241Y-93709637D01*
X132462273Y-93866680D01*
X132723426Y-93974853D01*
X133000665Y-94030000D01*
X133283335Y-94030000D01*
X133560574Y-93974853D01*
X133821727Y-93866680D01*
X134056759Y-93709637D01*
X134256637Y-93509759D01*
X134413680Y-93274727D01*
X134521853Y-93013574D01*
X134577000Y-92736335D01*
X134577000Y-92453665D01*
X134521853Y-92176426D01*
X134413680Y-91915273D01*
X134256637Y-91680241D01*
X134056759Y-91480363D01*
X133821727Y-91323320D01*
X133560574Y-91215147D01*
X133534699Y-91210000D01*
X133560574Y-91204853D01*
X133821727Y-91096680D01*
X134056759Y-90939637D01*
X134155396Y-90841000D01*
X143434160Y-90841000D01*
X143764000Y-91170841D01*
X143764001Y-104090088D01*
X143759085Y-104140000D01*
X143778702Y-104339170D01*
X143817176Y-104466000D01*
X143836799Y-104530687D01*
X143931141Y-104707190D01*
X144058105Y-104861896D01*
X144096866Y-104893706D01*
X144871230Y-105668071D01*
X144829902Y-105664000D01*
X144780000Y-105659085D01*
X144730098Y-105664000D01*
X128016000Y-105664000D01*
X128016000Y-104189893D01*
X128020914Y-104139999D01*
X128016000Y-104090105D01*
X128016000Y-102787499D01*
X130054106Y-102787499D01*
X130270228Y-103154258D01*
X130730105Y-103394938D01*
X131228098Y-103541275D01*
X131745071Y-103587648D01*
X132261159Y-103532273D01*
X132756526Y-103377279D01*
X133173772Y-103154258D01*
X133389894Y-102787499D01*
X131722000Y-101119605D01*
X130054106Y-102787499D01*
X128016000Y-102787499D01*
X128016000Y-100963071D01*
X129074352Y-100963071D01*
X129129727Y-101479159D01*
X129284721Y-101974526D01*
X129507742Y-102391772D01*
X129874501Y-102607894D01*
X131542395Y-100940000D01*
X131901605Y-100940000D01*
X133569499Y-102607894D01*
X133936258Y-102391772D01*
X134176938Y-101931895D01*
X134323275Y-101433902D01*
X134369648Y-100916929D01*
X134314273Y-100400841D01*
X134159279Y-99905474D01*
X133936258Y-99488228D01*
X133569499Y-99272106D01*
X131901605Y-100940000D01*
X131542395Y-100940000D01*
X129874501Y-99272106D01*
X129507742Y-99488228D01*
X129267062Y-99948105D01*
X129120725Y-100446098D01*
X129074352Y-100963071D01*
X128016000Y-100963071D01*
X128016000Y-99092501D01*
X130054106Y-99092501D01*
X131722000Y-100760395D01*
X133389894Y-99092501D01*
X133173772Y-98725742D01*
X132713895Y-98485062D01*
X132215902Y-98338725D01*
X131698929Y-98292352D01*
X131182841Y-98347727D01*
X130687474Y-98502721D01*
X130270228Y-98725742D01*
X130054106Y-99092501D01*
X128016000Y-99092501D01*
X128016000Y-86686000D01*
X129288604Y-86686000D01*
X129387241Y-86784637D01*
X129622273Y-86941680D01*
X129883426Y-87049853D01*
X129909301Y-87055000D01*
X129883426Y-87060147D01*
X129622273Y-87168320D01*
X129387241Y-87325363D01*
X129187363Y-87525241D01*
X129030320Y-87760273D01*
X128922147Y-88021426D01*
X128867000Y-88298665D01*
X128867000Y-88581335D01*
X128922147Y-88858574D01*
X129030320Y-89119727D01*
X129187363Y-89354759D01*
X129387241Y-89554637D01*
X129622273Y-89711680D01*
X129883426Y-89819853D01*
X129909301Y-89825000D01*
X129883426Y-89830147D01*
X129622273Y-89938320D01*
X129387241Y-90095363D01*
X129187363Y-90295241D01*
X129030320Y-90530273D01*
X128922147Y-90791426D01*
X128867000Y-91068665D01*
X128867000Y-91351335D01*
X128922147Y-91628574D01*
X129030320Y-91889727D01*
X129187363Y-92124759D01*
X129387241Y-92324637D01*
X129622273Y-92481680D01*
X129767725Y-92541928D01*
X129502000Y-92541928D01*
X129377518Y-92554188D01*
X129257820Y-92590498D01*
X129147506Y-92649463D01*
X129050815Y-92728815D01*
X128971463Y-92825506D01*
X128912498Y-92935820D01*
X128876188Y-93055518D01*
X128863928Y-93180000D01*
X128863928Y-94780000D01*
X128876188Y-94904482D01*
X128912498Y-95024180D01*
X128971463Y-95134494D01*
X129050815Y-95231185D01*
X129147506Y-95310537D01*
X129257820Y-95369502D01*
X129377518Y-95405812D01*
X129502000Y-95418072D01*
X131102000Y-95418072D01*
X131226482Y-95405812D01*
X131346180Y-95369502D01*
X131456494Y-95310537D01*
X131553185Y-95231185D01*
X131632537Y-95134494D01*
X131691502Y-95024180D01*
X131727812Y-94904482D01*
X131740072Y-94780000D01*
X131740072Y-93180000D01*
X131727812Y-93055518D01*
X131691502Y-92935820D01*
X131632537Y-92825506D01*
X131553185Y-92728815D01*
X131456494Y-92649463D01*
X131346180Y-92590498D01*
X131226482Y-92554188D01*
X131102000Y-92541928D01*
X130836275Y-92541928D01*
X130981727Y-92481680D01*
X131216759Y-92324637D01*
X131416637Y-92124759D01*
X131573680Y-91889727D01*
X131681853Y-91628574D01*
X131737000Y-91351335D01*
X131737000Y-91068665D01*
X131681853Y-90791426D01*
X131573680Y-90530273D01*
X131416637Y-90295241D01*
X131216759Y-90095363D01*
X130981727Y-89938320D01*
X130720574Y-89830147D01*
X130694699Y-89825000D01*
X130720574Y-89819853D01*
X130981727Y-89711680D01*
X131216759Y-89554637D01*
X131416637Y-89354759D01*
X131573680Y-89119727D01*
X131681853Y-88858574D01*
X131737000Y-88581335D01*
X131737000Y-88298665D01*
X131681853Y-88021426D01*
X131573680Y-87760273D01*
X131416637Y-87525241D01*
X131216759Y-87325363D01*
X130981727Y-87168320D01*
X130720574Y-87060147D01*
X130694699Y-87055000D01*
X130720574Y-87049853D01*
X130981727Y-86941680D01*
X131216759Y-86784637D01*
X131416637Y-86584759D01*
X131573680Y-86349727D01*
X131681853Y-86088574D01*
X131737000Y-85811335D01*
X131737000Y-85528665D01*
X131681853Y-85251426D01*
X131573680Y-84990273D01*
X131416637Y-84755241D01*
X131216759Y-84555363D01*
X130981727Y-84398320D01*
X130720574Y-84290147D01*
X130692118Y-84284487D01*
X130918292Y-84203603D01*
X131043514Y-84136671D01*
X131115097Y-83892702D01*
X130302000Y-83079605D01*
X129488903Y-83892702D01*
X129560486Y-84136671D01*
X129815996Y-84257571D01*
X129918289Y-84283212D01*
X129883426Y-84290147D01*
X129622273Y-84398320D01*
X129387241Y-84555363D01*
X129288604Y-84654000D01*
X128016000Y-84654000D01*
X128016000Y-82970512D01*
X128861783Y-82970512D01*
X128903213Y-83250130D01*
X128998397Y-83516292D01*
X129065329Y-83641514D01*
X129309298Y-83713097D01*
X130122395Y-82900000D01*
X130481605Y-82900000D01*
X131294702Y-83713097D01*
X131538671Y-83641514D01*
X131659571Y-83386004D01*
X131728300Y-83111816D01*
X131742217Y-82829488D01*
X131700787Y-82549870D01*
X131605603Y-82283708D01*
X131538671Y-82158486D01*
X131294702Y-82086903D01*
X130481605Y-82900000D01*
X130122395Y-82900000D01*
X129309298Y-82086903D01*
X129065329Y-82158486D01*
X128944429Y-82413996D01*
X128875700Y-82688184D01*
X128861783Y-82970512D01*
X128016000Y-82970512D01*
X128016000Y-81907298D01*
X129488903Y-81907298D01*
X130302000Y-82720395D01*
X131115097Y-81907298D01*
X131043514Y-81663329D01*
X130788004Y-81542429D01*
X130513816Y-81473700D01*
X130231488Y-81459783D01*
X129951870Y-81501213D01*
X129685708Y-81596397D01*
X129560486Y-81663329D01*
X129488903Y-81907298D01*
X128016000Y-81907298D01*
X128016000Y-77787499D01*
X130054106Y-77787499D01*
X130270228Y-78154258D01*
X130730105Y-78394938D01*
X131228098Y-78541275D01*
X131745071Y-78587648D01*
X132261159Y-78532273D01*
X132756526Y-78377279D01*
X133173772Y-78154258D01*
X133389894Y-77787499D01*
X131722000Y-76119605D01*
X130054106Y-77787499D01*
X128016000Y-77787499D01*
X128016000Y-75963071D01*
X129074352Y-75963071D01*
X129129727Y-76479159D01*
X129284721Y-76974526D01*
X129507742Y-77391772D01*
X129874501Y-77607894D01*
X131542395Y-75940000D01*
X131901605Y-75940000D01*
X133569499Y-77607894D01*
X133936258Y-77391772D01*
X134176938Y-76931895D01*
X134323275Y-76433902D01*
X134369648Y-75916929D01*
X134314273Y-75400841D01*
X134159279Y-74905474D01*
X133936258Y-74488228D01*
X133569499Y-74272106D01*
X131901605Y-75940000D01*
X131542395Y-75940000D01*
X129874501Y-74272106D01*
X129507742Y-74488228D01*
X129267062Y-74948105D01*
X129120725Y-75446098D01*
X129074352Y-75963071D01*
X128016000Y-75963071D01*
X128016000Y-74092501D01*
X130054106Y-74092501D01*
X131722000Y-75760395D01*
X133389894Y-74092501D01*
X133173772Y-73725742D01*
X132713895Y-73485062D01*
X132215902Y-73338725D01*
X131698929Y-73292352D01*
X131182841Y-73347727D01*
X130687474Y-73502721D01*
X130270228Y-73725742D01*
X130054106Y-74092501D01*
X128016000Y-74092501D01*
X128016000Y-72136000D01*
X143764000Y-72136000D01*
X143764001Y-83008088D01*
X143759085Y-83058000D01*
X143778702Y-83257170D01*
X143817784Y-83386004D01*
X143836799Y-83448687D01*
X143931141Y-83625190D01*
X144058105Y-83779896D01*
X144096868Y-83811708D01*
X146638292Y-86353133D01*
X146670104Y-86391896D01*
X146824810Y-86518860D01*
X146975300Y-86599298D01*
X147001313Y-86613202D01*
X147192829Y-86671298D01*
X147392000Y-86690915D01*
X147441902Y-86686000D01*
X152656604Y-86686000D01*
X152755241Y-86784637D01*
X152990273Y-86941680D01*
X153251426Y-87049853D01*
X153277301Y-87055000D01*
X153251426Y-87060147D01*
X152990273Y-87168320D01*
X152755241Y-87325363D01*
X152555363Y-87525241D01*
X152398320Y-87760273D01*
X152290147Y-88021426D01*
X152235000Y-88298665D01*
X152235000Y-88581335D01*
X152290147Y-88858574D01*
X152398320Y-89119727D01*
X152555363Y-89354759D01*
X152755241Y-89554637D01*
X152990273Y-89711680D01*
X153251426Y-89819853D01*
X153277301Y-89825000D01*
X153251426Y-89830147D01*
X152990273Y-89938320D01*
X152755241Y-90095363D01*
X152555363Y-90295241D01*
X152398320Y-90530273D01*
X152290147Y-90791426D01*
X152235000Y-91068665D01*
X152235000Y-91351335D01*
X152290147Y-91628574D01*
X152398320Y-91889727D01*
X152555363Y-92124759D01*
X152755241Y-92324637D01*
X152990273Y-92481680D01*
X153135725Y-92541928D01*
X152870000Y-92541928D01*
X152745518Y-92554188D01*
X152625820Y-92590498D01*
X152515506Y-92649463D01*
X152418815Y-92728815D01*
X152339463Y-92825506D01*
X152280498Y-92935820D01*
X152244188Y-93055518D01*
X152231928Y-93180000D01*
X152231928Y-94780000D01*
X152244188Y-94904482D01*
X152280498Y-95024180D01*
X152339463Y-95134494D01*
X152418815Y-95231185D01*
X152515506Y-95310537D01*
X152625820Y-95369502D01*
X152745518Y-95405812D01*
X152870000Y-95418072D01*
X154470000Y-95418072D01*
X154594482Y-95405812D01*
X154714180Y-95369502D01*
X154824494Y-95310537D01*
X154921185Y-95231185D01*
X155000537Y-95134494D01*
X155059502Y-95024180D01*
X155095812Y-94904482D01*
X155108072Y-94780000D01*
X155108072Y-93180000D01*
X155095812Y-93055518D01*
X155059502Y-92935820D01*
X155000537Y-92825506D01*
X154921185Y-92728815D01*
X154824494Y-92649463D01*
X154714180Y-92590498D01*
X154594482Y-92554188D01*
X154470000Y-92541928D01*
X154204275Y-92541928D01*
X154349727Y-92481680D01*
X154584759Y-92324637D01*
X154784637Y-92124759D01*
X154941680Y-91889727D01*
X155049853Y-91628574D01*
X155105000Y-91351335D01*
X155105000Y-91068665D01*
X155049853Y-90791426D01*
X154941680Y-90530273D01*
X154784637Y-90295241D01*
X154584759Y-90095363D01*
X154349727Y-89938320D01*
X154088574Y-89830147D01*
X154062699Y-89825000D01*
X154088574Y-89819853D01*
X154349727Y-89711680D01*
X154584759Y-89554637D01*
X154784637Y-89354759D01*
X154941680Y-89119727D01*
X155049853Y-88858574D01*
X155105000Y-88581335D01*
X155105000Y-88298665D01*
X155049853Y-88021426D01*
X154941680Y-87760273D01*
X154784637Y-87525241D01*
X154584759Y-87325363D01*
X154349727Y-87168320D01*
X154088574Y-87060147D01*
X154062699Y-87055000D01*
X154088574Y-87049853D01*
X154349727Y-86941680D01*
X154584759Y-86784637D01*
X154784637Y-86584759D01*
X154941680Y-86349727D01*
X155049853Y-86088574D01*
X155105000Y-85811335D01*
X155105000Y-85528665D01*
X155049853Y-85251426D01*
X154941680Y-84990273D01*
X154784637Y-84755241D01*
X154584759Y-84555363D01*
X154349727Y-84398320D01*
X154088574Y-84290147D01*
X154060118Y-84284487D01*
X154286292Y-84203603D01*
X154411514Y-84136671D01*
X154483097Y-83892702D01*
X153670000Y-83079605D01*
X152856903Y-83892702D01*
X152928486Y-84136671D01*
X153183996Y-84257571D01*
X153286289Y-84283212D01*
X153251426Y-84290147D01*
X152990273Y-84398320D01*
X152755241Y-84555363D01*
X152656604Y-84654000D01*
X147812841Y-84654000D01*
X146129353Y-82970512D01*
X152229783Y-82970512D01*
X152271213Y-83250130D01*
X152366397Y-83516292D01*
X152433329Y-83641514D01*
X152677298Y-83713097D01*
X153490395Y-82900000D01*
X153849605Y-82900000D01*
X154662702Y-83713097D01*
X154906671Y-83641514D01*
X155027571Y-83386004D01*
X155096300Y-83111816D01*
X155110217Y-82829488D01*
X155068787Y-82549870D01*
X154973603Y-82283708D01*
X154906671Y-82158486D01*
X154662702Y-82086903D01*
X153849605Y-82900000D01*
X153490395Y-82900000D01*
X152677298Y-82086903D01*
X152433329Y-82158486D01*
X152312429Y-82413996D01*
X152243700Y-82688184D01*
X152229783Y-82970512D01*
X146129353Y-82970512D01*
X145796000Y-82637160D01*
X145796000Y-81907298D01*
X152856903Y-81907298D01*
X153670000Y-82720395D01*
X154483097Y-81907298D01*
X154411514Y-81663329D01*
X154156004Y-81542429D01*
X153881816Y-81473700D01*
X153599488Y-81459783D01*
X153319870Y-81501213D01*
X153053708Y-81596397D01*
X152928486Y-81663329D01*
X152856903Y-81907298D01*
X145796000Y-81907298D01*
X145796000Y-77787499D01*
X153422106Y-77787499D01*
X153638228Y-78154258D01*
X154098105Y-78394938D01*
X154596098Y-78541275D01*
X155113071Y-78587648D01*
X155629159Y-78532273D01*
X156124526Y-78377279D01*
X156541772Y-78154258D01*
X156757894Y-77787499D01*
X155090000Y-76119605D01*
X153422106Y-77787499D01*
X145796000Y-77787499D01*
X145796000Y-75963071D01*
X152442352Y-75963071D01*
X152497727Y-76479159D01*
X152652721Y-76974526D01*
X152875742Y-77391772D01*
X153242501Y-77607894D01*
X154910395Y-75940000D01*
X155269605Y-75940000D01*
X156937499Y-77607894D01*
X157304258Y-77391772D01*
X157544938Y-76931895D01*
X157691275Y-76433902D01*
X157737648Y-75916929D01*
X157682273Y-75400841D01*
X157527279Y-74905474D01*
X157304258Y-74488228D01*
X156937499Y-74272106D01*
X155269605Y-75940000D01*
X154910395Y-75940000D01*
X153242501Y-74272106D01*
X152875742Y-74488228D01*
X152635062Y-74948105D01*
X152488725Y-75446098D01*
X152442352Y-75963071D01*
X145796000Y-75963071D01*
X145796000Y-74092501D01*
X153422106Y-74092501D01*
X155090000Y-75760395D01*
X156757894Y-74092501D01*
X156541772Y-73725742D01*
X156081895Y-73485062D01*
X155583902Y-73338725D01*
X155066929Y-73292352D01*
X154550841Y-73347727D01*
X154055474Y-73502721D01*
X153638228Y-73725742D01*
X153422106Y-74092501D01*
X145796000Y-74092501D01*
X145796000Y-71169902D01*
X145800915Y-71120000D01*
X145781298Y-70920829D01*
X145723202Y-70729313D01*
X145628860Y-70552810D01*
X145501896Y-70398104D01*
X145347190Y-70271140D01*
X145170687Y-70176798D01*
X144979171Y-70118702D01*
X144829902Y-70104000D01*
X144780000Y-70099085D01*
X144730098Y-70104000D01*
X127049902Y-70104000D01*
X127000000Y-70099085D01*
X126950098Y-70104000D01*
X126800829Y-70118702D01*
X126609313Y-70176798D01*
X126432810Y-70271140D01*
X126278104Y-70398104D01*
X126151140Y-70552810D01*
X126056798Y-70729313D01*
X125998702Y-70920829D01*
X125979085Y-71120000D01*
X125984001Y-71169912D01*
X125984000Y-84930098D01*
X125984000Y-85548098D01*
X125979085Y-85598000D01*
X125984000Y-85647901D01*
X125984001Y-102434000D01*
X120393396Y-102434000D01*
X120294759Y-102335363D01*
X120059727Y-102178320D01*
X119798574Y-102070147D01*
X119770118Y-102064487D01*
X119996292Y-101983603D01*
X120121514Y-101916671D01*
X120193097Y-101672702D01*
X119380000Y-100859605D01*
X118566903Y-101672702D01*
X118638486Y-101916671D01*
X118893996Y-102037571D01*
X118996289Y-102063212D01*
X118961426Y-102070147D01*
X118700273Y-102178320D01*
X118465241Y-102335363D01*
X118265363Y-102535241D01*
X118108320Y-102770273D01*
X118000147Y-103031426D01*
X117945000Y-103308665D01*
X117945000Y-103591335D01*
X118000147Y-103868574D01*
X118108320Y-104129727D01*
X118265363Y-104364759D01*
X118465241Y-104564637D01*
X118700273Y-104721680D01*
X118961426Y-104829853D01*
X118987301Y-104835000D01*
X118961426Y-104840147D01*
X118700273Y-104948320D01*
X118465241Y-105105363D01*
X118265363Y-105305241D01*
X118108320Y-105540273D01*
X118000147Y-105801426D01*
X117945000Y-106078665D01*
X117945000Y-106361335D01*
X118000147Y-106638574D01*
X118108320Y-106899727D01*
X118265363Y-107134759D01*
X118465241Y-107334637D01*
X118700273Y-107491680D01*
X118961426Y-107599853D01*
X118987301Y-107605000D01*
X118961426Y-107610147D01*
X118700273Y-107718320D01*
X118465241Y-107875363D01*
X118265363Y-108075241D01*
X118108320Y-108310273D01*
X118000147Y-108571426D01*
X117945000Y-108848665D01*
X117945000Y-109131335D01*
X118000147Y-109408574D01*
X118108320Y-109669727D01*
X118265363Y-109904759D01*
X118465241Y-110104637D01*
X118700273Y-110261680D01*
X118845725Y-110321928D01*
X118580000Y-110321928D01*
X118455518Y-110334188D01*
X118335820Y-110370498D01*
X118225506Y-110429463D01*
X118128815Y-110508815D01*
X118049463Y-110605506D01*
X117990498Y-110715820D01*
X117954188Y-110835518D01*
X117941928Y-110960000D01*
X117941928Y-112560000D01*
X117954188Y-112684482D01*
X117990498Y-112804180D01*
X118049463Y-112914494D01*
X118128815Y-113011185D01*
X118225506Y-113090537D01*
X118335820Y-113149502D01*
X118455518Y-113185812D01*
X118580000Y-113198072D01*
X120180000Y-113198072D01*
X120304482Y-113185812D01*
X120424180Y-113149502D01*
X120534494Y-113090537D01*
X120631185Y-113011185D01*
X120710537Y-112914494D01*
X120769502Y-112804180D01*
X120805812Y-112684482D01*
X120818072Y-112560000D01*
X120818072Y-110960000D01*
X120805812Y-110835518D01*
X120769502Y-110715820D01*
X120710537Y-110605506D01*
X120631185Y-110508815D01*
X120534494Y-110429463D01*
X120424180Y-110370498D01*
X120304482Y-110334188D01*
X120180000Y-110321928D01*
X119914275Y-110321928D01*
X120059727Y-110261680D01*
X120294759Y-110104637D01*
X120494637Y-109904759D01*
X120651680Y-109669727D01*
X120759853Y-109408574D01*
X120815000Y-109131335D01*
X120815000Y-108848665D01*
X120759853Y-108571426D01*
X120651680Y-108310273D01*
X120494637Y-108075241D01*
X120294759Y-107875363D01*
X120059727Y-107718320D01*
X119798574Y-107610147D01*
X119772699Y-107605000D01*
X119798574Y-107599853D01*
X120059727Y-107491680D01*
X120294759Y-107334637D01*
X120494637Y-107134759D01*
X120651680Y-106899727D01*
X120759853Y-106638574D01*
X120815000Y-106361335D01*
X120815000Y-106078665D01*
X120759853Y-105801426D01*
X120651680Y-105540273D01*
X120494637Y-105305241D01*
X120294759Y-105105363D01*
X120059727Y-104948320D01*
X119798574Y-104840147D01*
X119772699Y-104835000D01*
X119798574Y-104829853D01*
X120059727Y-104721680D01*
X120294759Y-104564637D01*
X120393396Y-104466000D01*
X125889160Y-104466000D01*
X125984000Y-104560841D01*
X125984001Y-106630088D01*
X125979085Y-106680000D01*
X125984001Y-106729912D01*
X125984000Y-120490098D01*
X125979085Y-120540000D01*
X125984090Y-120590811D01*
X125998702Y-120739170D01*
X126056798Y-120930686D01*
X126151140Y-121107190D01*
X126278104Y-121261896D01*
X126316872Y-121293712D01*
X126936292Y-121913133D01*
X126968104Y-121951896D01*
X127122810Y-122078860D01*
X127299313Y-122173202D01*
X127432732Y-122213674D01*
X127490828Y-122231298D01*
X127510177Y-122233204D01*
X127640098Y-122246000D01*
X127640105Y-122246000D01*
X127689999Y-122250914D01*
X127739893Y-122246000D01*
X129288604Y-122246000D01*
X129387241Y-122344637D01*
X129622273Y-122501680D01*
X129883426Y-122609853D01*
X129909301Y-122615000D01*
X129883426Y-122620147D01*
X129622273Y-122728320D01*
X129387241Y-122885363D01*
X129187363Y-123085241D01*
X129030320Y-123320273D01*
X128922147Y-123581426D01*
X128867000Y-123858665D01*
X128867000Y-124141335D01*
X128922147Y-124418574D01*
X129030320Y-124679727D01*
X129187363Y-124914759D01*
X129387241Y-125114637D01*
X129622273Y-125271680D01*
X129883426Y-125379853D01*
X129909301Y-125385000D01*
X129883426Y-125390147D01*
X129622273Y-125498320D01*
X129387241Y-125655363D01*
X129187363Y-125855241D01*
X129030320Y-126090273D01*
X128922147Y-126351426D01*
X128867000Y-126628665D01*
X128867000Y-126911335D01*
X128922147Y-127188574D01*
X129030320Y-127449727D01*
X129187363Y-127684759D01*
X129387241Y-127884637D01*
X129622273Y-128041680D01*
X129767725Y-128101928D01*
X129502000Y-128101928D01*
X129377518Y-128114188D01*
X129257820Y-128150498D01*
X129147506Y-128209463D01*
X129050815Y-128288815D01*
X128971463Y-128385506D01*
X128912498Y-128495820D01*
X128876188Y-128615518D01*
X128863928Y-128740000D01*
X128863928Y-130340000D01*
X128876188Y-130464482D01*
X128912498Y-130584180D01*
X128971463Y-130694494D01*
X129050815Y-130791185D01*
X129147506Y-130870537D01*
X129257820Y-130929502D01*
X129377518Y-130965812D01*
X129502000Y-130978072D01*
X131102000Y-130978072D01*
X131226482Y-130965812D01*
X131346180Y-130929502D01*
X131456494Y-130870537D01*
X131553185Y-130791185D01*
X131632537Y-130694494D01*
X131691502Y-130584180D01*
X131727812Y-130464482D01*
X131740072Y-130340000D01*
X131740072Y-128740000D01*
X131727812Y-128615518D01*
X131691502Y-128495820D01*
X131632537Y-128385506D01*
X131553185Y-128288815D01*
X131456494Y-128209463D01*
X131346180Y-128150498D01*
X131226482Y-128114188D01*
X131102000Y-128101928D01*
X130836275Y-128101928D01*
X130981727Y-128041680D01*
X131216759Y-127884637D01*
X131416637Y-127684759D01*
X131573680Y-127449727D01*
X131681853Y-127188574D01*
X131737000Y-126911335D01*
X131737000Y-126628665D01*
X131681853Y-126351426D01*
X131573680Y-126090273D01*
X131416637Y-125855241D01*
X131216759Y-125655363D01*
X130981727Y-125498320D01*
X130720574Y-125390147D01*
X130694699Y-125385000D01*
X130720574Y-125379853D01*
X130981727Y-125271680D01*
X131216759Y-125114637D01*
X131416637Y-124914759D01*
X131573680Y-124679727D01*
X131681853Y-124418574D01*
X131737000Y-124141335D01*
X131737000Y-123858665D01*
X131681853Y-123581426D01*
X131573680Y-123320273D01*
X131416637Y-123085241D01*
X131216759Y-122885363D01*
X130981727Y-122728320D01*
X130720574Y-122620147D01*
X130694699Y-122615000D01*
X130720574Y-122609853D01*
X130981727Y-122501680D01*
X131216759Y-122344637D01*
X131416637Y-122144759D01*
X131573680Y-121909727D01*
X131681853Y-121648574D01*
X131737000Y-121371335D01*
X131737000Y-121088665D01*
X131681853Y-120811426D01*
X131573680Y-120550273D01*
X131416637Y-120315241D01*
X131216759Y-120115363D01*
X130981727Y-119958320D01*
X130720574Y-119850147D01*
X130692118Y-119844487D01*
X130918292Y-119763603D01*
X131043514Y-119696671D01*
X131115097Y-119452702D01*
X130302000Y-118639605D01*
X129488903Y-119452702D01*
X129560486Y-119696671D01*
X129815996Y-119817571D01*
X129918289Y-119843212D01*
X129883426Y-119850147D01*
X129622273Y-119958320D01*
X129387241Y-120115363D01*
X129288604Y-120214000D01*
X128110841Y-120214000D01*
X128016000Y-120119160D01*
X128016000Y-118530512D01*
X128861783Y-118530512D01*
X128903213Y-118810130D01*
X128998397Y-119076292D01*
X129065329Y-119201514D01*
X129309298Y-119273097D01*
X130122395Y-118460000D01*
X130481605Y-118460000D01*
X131294702Y-119273097D01*
X131538671Y-119201514D01*
X131659571Y-118946004D01*
X131728300Y-118671816D01*
X131742217Y-118389488D01*
X131700787Y-118109870D01*
X131605603Y-117843708D01*
X131538671Y-117718486D01*
X131294702Y-117646903D01*
X130481605Y-118460000D01*
X130122395Y-118460000D01*
X129309298Y-117646903D01*
X129065329Y-117718486D01*
X128944429Y-117973996D01*
X128875700Y-118248184D01*
X128861783Y-118530512D01*
X128016000Y-118530512D01*
X128016000Y-117467298D01*
X129488903Y-117467298D01*
X130302000Y-118280395D01*
X131115097Y-117467298D01*
X131043514Y-117223329D01*
X130788004Y-117102429D01*
X130513816Y-117033700D01*
X130231488Y-117019783D01*
X129951870Y-117061213D01*
X129685708Y-117156397D01*
X129560486Y-117223329D01*
X129488903Y-117467298D01*
X128016000Y-117467298D01*
X128016000Y-113347499D01*
X130054106Y-113347499D01*
X130270228Y-113714258D01*
X130730105Y-113954938D01*
X131228098Y-114101275D01*
X131745071Y-114147648D01*
X132261159Y-114092273D01*
X132756526Y-113937279D01*
X133173772Y-113714258D01*
X133389894Y-113347499D01*
X131722000Y-111679605D01*
X130054106Y-113347499D01*
X128016000Y-113347499D01*
X128016000Y-111523071D01*
X129074352Y-111523071D01*
X129129727Y-112039159D01*
X129284721Y-112534526D01*
X129507742Y-112951772D01*
X129874501Y-113167894D01*
X131542395Y-111500000D01*
X131901605Y-111500000D01*
X133569499Y-113167894D01*
X133936258Y-112951772D01*
X134176938Y-112491895D01*
X134323275Y-111993902D01*
X134369648Y-111476929D01*
X134314273Y-110960841D01*
X134159279Y-110465474D01*
X133936258Y-110048228D01*
X133569499Y-109832106D01*
X131901605Y-111500000D01*
X131542395Y-111500000D01*
X129874501Y-109832106D01*
X129507742Y-110048228D01*
X129267062Y-110508105D01*
X129120725Y-111006098D01*
X129074352Y-111523071D01*
X128016000Y-111523071D01*
X128016000Y-109652501D01*
X130054106Y-109652501D01*
X131722000Y-111320395D01*
X133389894Y-109652501D01*
X133173772Y-109285742D01*
X132713895Y-109045062D01*
X132215902Y-108898725D01*
X131698929Y-108852352D01*
X131182841Y-108907727D01*
X130687474Y-109062721D01*
X130270228Y-109285742D01*
X130054106Y-109652501D01*
X128016000Y-109652501D01*
X128016000Y-107696000D01*
X143764000Y-107696000D01*
X143764001Y-115774088D01*
X143759085Y-115824000D01*
X143778702Y-116023170D01*
X143807689Y-116118725D01*
X143836799Y-116214687D01*
X143931141Y-116391190D01*
X144058105Y-116545896D01*
X144096868Y-116577708D01*
X149432292Y-121913133D01*
X149464104Y-121951896D01*
X149502865Y-121983706D01*
X149618810Y-122078860D01*
X149795313Y-122173202D01*
X149986829Y-122231298D01*
X150186000Y-122250915D01*
X150235902Y-122246000D01*
X152656604Y-122246000D01*
X152755241Y-122344637D01*
X152990273Y-122501680D01*
X153251426Y-122609853D01*
X153277301Y-122615000D01*
X153251426Y-122620147D01*
X152990273Y-122728320D01*
X152755241Y-122885363D01*
X152555363Y-123085241D01*
X152398320Y-123320273D01*
X152290147Y-123581426D01*
X152235000Y-123858665D01*
X152235000Y-124141335D01*
X152290147Y-124418574D01*
X152398320Y-124679727D01*
X152555363Y-124914759D01*
X152755241Y-125114637D01*
X152990273Y-125271680D01*
X153251426Y-125379853D01*
X153277301Y-125385000D01*
X153251426Y-125390147D01*
X152990273Y-125498320D01*
X152755241Y-125655363D01*
X152555363Y-125855241D01*
X152398320Y-126090273D01*
X152290147Y-126351426D01*
X152235000Y-126628665D01*
X152235000Y-126911335D01*
X152290147Y-127188574D01*
X152398320Y-127449727D01*
X152555363Y-127684759D01*
X152755241Y-127884637D01*
X152990273Y-128041680D01*
X153135725Y-128101928D01*
X152870000Y-128101928D01*
X152745518Y-128114188D01*
X152625820Y-128150498D01*
X152515506Y-128209463D01*
X152418815Y-128288815D01*
X152339463Y-128385506D01*
X152280498Y-128495820D01*
X152244188Y-128615518D01*
X152231928Y-128740000D01*
X152231928Y-130340000D01*
X152244188Y-130464482D01*
X152280498Y-130584180D01*
X152339463Y-130694494D01*
X152418815Y-130791185D01*
X152515506Y-130870537D01*
X152625820Y-130929502D01*
X152745518Y-130965812D01*
X152870000Y-130978072D01*
X154470000Y-130978072D01*
X154594482Y-130965812D01*
X154714180Y-130929502D01*
X154824494Y-130870537D01*
X154921185Y-130791185D01*
X155000537Y-130694494D01*
X155059502Y-130584180D01*
X155095812Y-130464482D01*
X155108072Y-130340000D01*
X155108072Y-128740000D01*
X155095812Y-128615518D01*
X155059502Y-128495820D01*
X155000537Y-128385506D01*
X154921185Y-128288815D01*
X154824494Y-128209463D01*
X154714180Y-128150498D01*
X154594482Y-128114188D01*
X154470000Y-128101928D01*
X154204275Y-128101928D01*
X154349727Y-128041680D01*
X154584759Y-127884637D01*
X154784637Y-127684759D01*
X154941680Y-127449727D01*
X155049853Y-127188574D01*
X155105000Y-126911335D01*
X155105000Y-126628665D01*
X155049853Y-126351426D01*
X154941680Y-126090273D01*
X154784637Y-125855241D01*
X154584759Y-125655363D01*
X154349727Y-125498320D01*
X154088574Y-125390147D01*
X154062699Y-125385000D01*
X154088574Y-125379853D01*
X154349727Y-125271680D01*
X154584759Y-125114637D01*
X154784637Y-124914759D01*
X154941680Y-124679727D01*
X155049853Y-124418574D01*
X155105000Y-124141335D01*
X155105000Y-123858665D01*
X155049853Y-123581426D01*
X154941680Y-123320273D01*
X154784637Y-123085241D01*
X154584759Y-122885363D01*
X154349727Y-122728320D01*
X154088574Y-122620147D01*
X154062699Y-122615000D01*
X154088574Y-122609853D01*
X154349727Y-122501680D01*
X154584759Y-122344637D01*
X154784637Y-122144759D01*
X154941680Y-121909727D01*
X155049853Y-121648574D01*
X155105000Y-121371335D01*
X155105000Y-121088665D01*
X155049853Y-120811426D01*
X154941680Y-120550273D01*
X154784637Y-120315241D01*
X154584759Y-120115363D01*
X154349727Y-119958320D01*
X154088574Y-119850147D01*
X154060118Y-119844487D01*
X154286292Y-119763603D01*
X154411514Y-119696671D01*
X154483097Y-119452702D01*
X153670000Y-118639605D01*
X152856903Y-119452702D01*
X152928486Y-119696671D01*
X153183996Y-119817571D01*
X153286289Y-119843212D01*
X153251426Y-119850147D01*
X152990273Y-119958320D01*
X152755241Y-120115363D01*
X152656604Y-120214000D01*
X150606841Y-120214000D01*
X148923353Y-118530512D01*
X152229783Y-118530512D01*
X152271213Y-118810130D01*
X152366397Y-119076292D01*
X152433329Y-119201514D01*
X152677298Y-119273097D01*
X153490395Y-118460000D01*
X153849605Y-118460000D01*
X154662702Y-119273097D01*
X154906671Y-119201514D01*
X155027571Y-118946004D01*
X155096300Y-118671816D01*
X155110217Y-118389488D01*
X155068787Y-118109870D01*
X154973603Y-117843708D01*
X154906671Y-117718486D01*
X154662702Y-117646903D01*
X153849605Y-118460000D01*
X153490395Y-118460000D01*
X152677298Y-117646903D01*
X152433329Y-117718486D01*
X152312429Y-117973996D01*
X152243700Y-118248184D01*
X152229783Y-118530512D01*
X148923353Y-118530512D01*
X147860139Y-117467298D01*
X152856903Y-117467298D01*
X153670000Y-118280395D01*
X154483097Y-117467298D01*
X154411514Y-117223329D01*
X154156004Y-117102429D01*
X153881816Y-117033700D01*
X153599488Y-117019783D01*
X153319870Y-117061213D01*
X153053708Y-117156397D01*
X152928486Y-117223329D01*
X152856903Y-117467298D01*
X147860139Y-117467298D01*
X145796000Y-115403160D01*
X145796000Y-113347499D01*
X153422106Y-113347499D01*
X153638228Y-113714258D01*
X154098105Y-113954938D01*
X154596098Y-114101275D01*
X155113071Y-114147648D01*
X155629159Y-114092273D01*
X156124526Y-113937279D01*
X156541772Y-113714258D01*
X156757894Y-113347499D01*
X155090000Y-111679605D01*
X153422106Y-113347499D01*
X145796000Y-113347499D01*
X145796000Y-111523071D01*
X152442352Y-111523071D01*
X152497727Y-112039159D01*
X152652721Y-112534526D01*
X152875742Y-112951772D01*
X153242501Y-113167894D01*
X154910395Y-111500000D01*
X155269605Y-111500000D01*
X156937499Y-113167894D01*
X157304258Y-112951772D01*
X157544938Y-112491895D01*
X157691275Y-111993902D01*
X157737648Y-111476929D01*
X157682273Y-110960841D01*
X157527279Y-110465474D01*
X157304258Y-110048228D01*
X156937499Y-109832106D01*
X155269605Y-111500000D01*
X154910395Y-111500000D01*
X153242501Y-109832106D01*
X152875742Y-110048228D01*
X152635062Y-110508105D01*
X152488725Y-111006098D01*
X152442352Y-111523071D01*
X145796000Y-111523071D01*
X145796000Y-109652501D01*
X153422106Y-109652501D01*
X155090000Y-111320395D01*
X156757894Y-109652501D01*
X156541772Y-109285742D01*
X156081895Y-109045062D01*
X155583902Y-108898725D01*
X155066929Y-108852352D01*
X154550841Y-108907727D01*
X154055474Y-109062721D01*
X153638228Y-109285742D01*
X153422106Y-109652501D01*
X145796000Y-109652501D01*
X145796000Y-106729902D01*
X145800915Y-106680000D01*
X145791929Y-106588770D01*
X146566292Y-107363133D01*
X146598104Y-107401896D01*
X146752810Y-107528860D01*
X146929313Y-107623202D01*
X147062732Y-107663674D01*
X147120828Y-107681298D01*
X147140177Y-107683204D01*
X147270098Y-107696000D01*
X147270105Y-107696000D01*
X147319999Y-107700914D01*
X147369893Y-107696000D01*
X163322001Y-107696000D01*
X163322000Y-117435159D01*
X160352868Y-120404292D01*
X160314105Y-120436104D01*
X160187141Y-120590810D01*
X160148657Y-120662810D01*
X160092799Y-120767313D01*
X160034702Y-120958830D01*
X160015085Y-121158000D01*
X160020001Y-121207912D01*
X160020000Y-125055160D01*
X159666712Y-124701872D01*
X159634896Y-124663104D01*
X159480190Y-124536140D01*
X159303687Y-124441798D01*
X159112171Y-124383702D01*
X158962902Y-124369000D01*
X158913000Y-124364085D01*
X158863098Y-124369000D01*
X157523396Y-124369000D01*
X157424759Y-124270363D01*
X157189727Y-124113320D01*
X156928574Y-124005147D01*
X156902699Y-124000000D01*
X156928574Y-123994853D01*
X157189727Y-123886680D01*
X157424759Y-123729637D01*
X157624637Y-123529759D01*
X157781680Y-123294727D01*
X157889853Y-123033574D01*
X157945000Y-122756335D01*
X157945000Y-122473665D01*
X157889853Y-122196426D01*
X157781680Y-121935273D01*
X157624637Y-121700241D01*
X157424759Y-121500363D01*
X157189727Y-121343320D01*
X156928574Y-121235147D01*
X156902699Y-121230000D01*
X156928574Y-121224853D01*
X157189727Y-121116680D01*
X157424759Y-120959637D01*
X157624637Y-120759759D01*
X157781680Y-120524727D01*
X157889853Y-120263574D01*
X157945000Y-119986335D01*
X157945000Y-119703665D01*
X157889853Y-119426426D01*
X157781680Y-119165273D01*
X157624637Y-118930241D01*
X157424759Y-118730363D01*
X157189727Y-118573320D01*
X156928574Y-118465147D01*
X156651335Y-118410000D01*
X156368665Y-118410000D01*
X156091426Y-118465147D01*
X155830273Y-118573320D01*
X155595241Y-118730363D01*
X155395363Y-118930241D01*
X155238320Y-119165273D01*
X155130147Y-119426426D01*
X155075000Y-119703665D01*
X155075000Y-119986335D01*
X155130147Y-120263574D01*
X155238320Y-120524727D01*
X155395363Y-120759759D01*
X155595241Y-120959637D01*
X155830273Y-121116680D01*
X156091426Y-121224853D01*
X156117301Y-121230000D01*
X156091426Y-121235147D01*
X155830273Y-121343320D01*
X155595241Y-121500363D01*
X155395363Y-121700241D01*
X155238320Y-121935273D01*
X155130147Y-122196426D01*
X155075000Y-122473665D01*
X155075000Y-122756335D01*
X155130147Y-123033574D01*
X155238320Y-123294727D01*
X155395363Y-123529759D01*
X155595241Y-123729637D01*
X155830273Y-123886680D01*
X156091426Y-123994853D01*
X156117301Y-124000000D01*
X156091426Y-124005147D01*
X155830273Y-124113320D01*
X155595241Y-124270363D01*
X155395363Y-124470241D01*
X155238320Y-124705273D01*
X155130147Y-124966426D01*
X155075000Y-125243665D01*
X155075000Y-125526335D01*
X155130147Y-125803574D01*
X155238320Y-126064727D01*
X155395363Y-126299759D01*
X155595241Y-126499637D01*
X155830273Y-126656680D01*
X156091426Y-126764853D01*
X156117301Y-126770000D01*
X156091426Y-126775147D01*
X155830273Y-126883320D01*
X155595241Y-127040363D01*
X155395363Y-127240241D01*
X155238320Y-127475273D01*
X155130147Y-127736426D01*
X155075000Y-128013665D01*
X155075000Y-128296335D01*
X155130147Y-128573574D01*
X155238320Y-128834727D01*
X155395363Y-129069759D01*
X155595241Y-129269637D01*
X155830273Y-129426680D01*
X156091426Y-129534853D01*
X156368665Y-129590000D01*
X156651335Y-129590000D01*
X156928574Y-129534853D01*
X157189727Y-129426680D01*
X157424759Y-129269637D01*
X157624637Y-129069759D01*
X157781680Y-128834727D01*
X157889853Y-128573574D01*
X157945000Y-128296335D01*
X157945000Y-128013665D01*
X157889853Y-127736426D01*
X157781680Y-127475273D01*
X157624637Y-127240241D01*
X157424759Y-127040363D01*
X157189727Y-126883320D01*
X156928574Y-126775147D01*
X156902699Y-126770000D01*
X156928574Y-126764853D01*
X157189727Y-126656680D01*
X157424759Y-126499637D01*
X157523396Y-126401000D01*
X158492160Y-126401000D01*
X160020001Y-127928842D01*
X160020000Y-141057159D01*
X159853160Y-141224000D01*
X147740841Y-141224000D01*
X145796000Y-139279160D01*
X145796000Y-138347499D01*
X153422106Y-138347499D01*
X153638228Y-138714258D01*
X154098105Y-138954938D01*
X154596098Y-139101275D01*
X155113071Y-139147648D01*
X155629159Y-139092273D01*
X156124526Y-138937279D01*
X156541772Y-138714258D01*
X156757894Y-138347499D01*
X155090000Y-136679605D01*
X153422106Y-138347499D01*
X145796000Y-138347499D01*
X145796000Y-136523071D01*
X152442352Y-136523071D01*
X152497727Y-137039159D01*
X152652721Y-137534526D01*
X152875742Y-137951772D01*
X153242501Y-138167894D01*
X154910395Y-136500000D01*
X155269605Y-136500000D01*
X156937499Y-138167894D01*
X157304258Y-137951772D01*
X157544938Y-137491895D01*
X157691275Y-136993902D01*
X157737648Y-136476929D01*
X157682273Y-135960841D01*
X157527279Y-135465474D01*
X157304258Y-135048228D01*
X156937499Y-134832106D01*
X155269605Y-136500000D01*
X154910395Y-136500000D01*
X153242501Y-134832106D01*
X152875742Y-135048228D01*
X152635062Y-135508105D01*
X152488725Y-136006098D01*
X152442352Y-136523071D01*
X145796000Y-136523071D01*
X145796000Y-134652501D01*
X153422106Y-134652501D01*
X155090000Y-136320395D01*
X156757894Y-134652501D01*
X156541772Y-134285742D01*
X156081895Y-134045062D01*
X155583902Y-133898725D01*
X155066929Y-133852352D01*
X154550841Y-133907727D01*
X154055474Y-134062721D01*
X153638228Y-134285742D01*
X153422106Y-134652501D01*
X145796000Y-134652501D01*
X145796000Y-127049902D01*
X145800915Y-127000000D01*
X145781298Y-126800829D01*
X145723202Y-126609312D01*
X145690340Y-126547832D01*
X145628860Y-126432810D01*
X145501896Y-126278104D01*
X145463133Y-126246292D01*
X143918712Y-124701872D01*
X143886896Y-124663104D01*
X143732190Y-124536140D01*
X143555687Y-124441798D01*
X143364171Y-124383702D01*
X143214902Y-124369000D01*
X143165000Y-124364085D01*
X143115098Y-124369000D01*
X134155396Y-124369000D01*
X134056759Y-124270363D01*
X133821727Y-124113320D01*
X133560574Y-124005147D01*
X133534699Y-124000000D01*
X133560574Y-123994853D01*
X133821727Y-123886680D01*
X134056759Y-123729637D01*
X134256637Y-123529759D01*
X134413680Y-123294727D01*
X134521853Y-123033574D01*
X134577000Y-122756335D01*
X134577000Y-122473665D01*
X134521853Y-122196426D01*
X134413680Y-121935273D01*
X134256637Y-121700241D01*
X134056759Y-121500363D01*
X133821727Y-121343320D01*
X133560574Y-121235147D01*
X133534699Y-121230000D01*
X133560574Y-121224853D01*
X133821727Y-121116680D01*
X134056759Y-120959637D01*
X134256637Y-120759759D01*
X134413680Y-120524727D01*
X134521853Y-120263574D01*
X134577000Y-119986335D01*
X134577000Y-119703665D01*
X134521853Y-119426426D01*
X134413680Y-119165273D01*
X134256637Y-118930241D01*
X134056759Y-118730363D01*
X133821727Y-118573320D01*
X133560574Y-118465147D01*
X133283335Y-118410000D01*
X133000665Y-118410000D01*
X132723426Y-118465147D01*
X132462273Y-118573320D01*
X132227241Y-118730363D01*
X132027363Y-118930241D01*
X131870320Y-119165273D01*
X131762147Y-119426426D01*
X131707000Y-119703665D01*
X131707000Y-119986335D01*
X131762147Y-120263574D01*
X131870320Y-120524727D01*
X132027363Y-120759759D01*
X132227241Y-120959637D01*
X132462273Y-121116680D01*
X132723426Y-121224853D01*
X132749301Y-121230000D01*
X132723426Y-121235147D01*
X132462273Y-121343320D01*
X132227241Y-121500363D01*
X132027363Y-121700241D01*
X131870320Y-121935273D01*
X131762147Y-122196426D01*
X131707000Y-122473665D01*
X131707000Y-122756335D01*
X131762147Y-123033574D01*
X131870320Y-123294727D01*
X132027363Y-123529759D01*
X132227241Y-123729637D01*
X132462273Y-123886680D01*
X132723426Y-123994853D01*
X132749301Y-124000000D01*
X132723426Y-124005147D01*
X132462273Y-124113320D01*
X132227241Y-124270363D01*
X132027363Y-124470241D01*
X131870320Y-124705273D01*
X131762147Y-124966426D01*
X131707000Y-125243665D01*
X131707000Y-125526335D01*
X131762147Y-125803574D01*
X131870320Y-126064727D01*
X132027363Y-126299759D01*
X132227241Y-126499637D01*
X132462273Y-126656680D01*
X132723426Y-126764853D01*
X132749301Y-126770000D01*
X132723426Y-126775147D01*
X132462273Y-126883320D01*
X132227241Y-127040363D01*
X132027363Y-127240241D01*
X131870320Y-127475273D01*
X131762147Y-127736426D01*
X131707000Y-128013665D01*
X131707000Y-128296335D01*
X131762147Y-128573574D01*
X131870320Y-128834727D01*
X132027363Y-129069759D01*
X132227241Y-129269637D01*
X132462273Y-129426680D01*
X132723426Y-129534853D01*
X133000665Y-129590000D01*
X133283335Y-129590000D01*
X133560574Y-129534853D01*
X133821727Y-129426680D01*
X134056759Y-129269637D01*
X134256637Y-129069759D01*
X134413680Y-128834727D01*
X134521853Y-128573574D01*
X134577000Y-128296335D01*
X134577000Y-128013665D01*
X134521853Y-127736426D01*
X134413680Y-127475273D01*
X134256637Y-127240241D01*
X134056759Y-127040363D01*
X133821727Y-126883320D01*
X133560574Y-126775147D01*
X133534699Y-126770000D01*
X133560574Y-126764853D01*
X133821727Y-126656680D01*
X134056759Y-126499637D01*
X134155396Y-126401000D01*
X142744160Y-126401000D01*
X143764000Y-127420841D01*
X143764001Y-139650088D01*
X143759085Y-139700000D01*
X143778702Y-139899170D01*
X143836799Y-140090687D01*
X143931141Y-140267190D01*
X144058105Y-140421896D01*
X144096868Y-140453708D01*
X144867160Y-141224000D01*
X129960841Y-141224000D01*
X127084340Y-138347499D01*
X130054106Y-138347499D01*
X130270228Y-138714258D01*
X130730105Y-138954938D01*
X131228098Y-139101275D01*
X131745071Y-139147648D01*
X132261159Y-139092273D01*
X132756526Y-138937279D01*
X133173772Y-138714258D01*
X133389894Y-138347499D01*
X131722000Y-136679605D01*
X130054106Y-138347499D01*
X127084340Y-138347499D01*
X125476000Y-136739160D01*
X125476000Y-136523071D01*
X129074352Y-136523071D01*
X129129727Y-137039159D01*
X129284721Y-137534526D01*
X129507742Y-137951772D01*
X129874501Y-138167894D01*
X131542395Y-136500000D01*
X131901605Y-136500000D01*
X133569499Y-138167894D01*
X133936258Y-137951772D01*
X134176938Y-137491895D01*
X134323275Y-136993902D01*
X134369648Y-136476929D01*
X134314273Y-135960841D01*
X134159279Y-135465474D01*
X133936258Y-135048228D01*
X133569499Y-134832106D01*
X131901605Y-136500000D01*
X131542395Y-136500000D01*
X129874501Y-134832106D01*
X129507742Y-135048228D01*
X129267062Y-135508105D01*
X129120725Y-136006098D01*
X129074352Y-136523071D01*
X125476000Y-136523071D01*
X125476000Y-134652501D01*
X130054106Y-134652501D01*
X131722000Y-136320395D01*
X133389894Y-134652501D01*
X133173772Y-134285742D01*
X132713895Y-134045062D01*
X132215902Y-133898725D01*
X131698929Y-133852352D01*
X131182841Y-133907727D01*
X130687474Y-134062721D01*
X130270228Y-134285742D01*
X130054106Y-134652501D01*
X125476000Y-134652501D01*
X125476000Y-129089784D01*
X125480915Y-129039882D01*
X125461298Y-128840711D01*
X125403202Y-128649195D01*
X125362782Y-128573574D01*
X125308860Y-128472692D01*
X125181896Y-128317986D01*
X125143133Y-128286174D01*
X118201201Y-121344243D01*
X118499159Y-121312273D01*
X118994526Y-121157279D01*
X119411772Y-120934258D01*
X119627894Y-120567499D01*
X117960000Y-118899605D01*
X117945858Y-118913748D01*
X117766253Y-118734143D01*
X117780395Y-118720000D01*
X118139605Y-118720000D01*
X119807499Y-120387894D01*
X120174258Y-120171772D01*
X120414938Y-119711895D01*
X120561275Y-119213902D01*
X120607648Y-118696929D01*
X120552273Y-118180841D01*
X120397279Y-117685474D01*
X120174258Y-117268228D01*
X119807499Y-117052106D01*
X118139605Y-118720000D01*
X117780395Y-118720000D01*
X116112501Y-117052106D01*
X115745742Y-117268228D01*
X115505062Y-117728105D01*
X115358725Y-118226098D01*
X115336033Y-118479075D01*
X115316000Y-118459042D01*
X115316000Y-116872501D01*
X116292106Y-116872501D01*
X117960000Y-118540395D01*
X119627894Y-116872501D01*
X119411772Y-116505742D01*
X118951895Y-116265062D01*
X118453902Y-116118725D01*
X117936929Y-116072352D01*
X117420841Y-116127727D01*
X116925474Y-116282721D01*
X116508228Y-116505742D01*
X116292106Y-116872501D01*
X115316000Y-116872501D01*
X115316000Y-111126085D01*
X115425363Y-111289759D01*
X115625241Y-111489637D01*
X115860273Y-111646680D01*
X116121426Y-111754853D01*
X116398665Y-111810000D01*
X116681335Y-111810000D01*
X116958574Y-111754853D01*
X117219727Y-111646680D01*
X117454759Y-111489637D01*
X117654637Y-111289759D01*
X117811680Y-111054727D01*
X117919853Y-110793574D01*
X117975000Y-110516335D01*
X117975000Y-110233665D01*
X117919853Y-109956426D01*
X117811680Y-109695273D01*
X117654637Y-109460241D01*
X117454759Y-109260363D01*
X117219727Y-109103320D01*
X116958574Y-108995147D01*
X116932699Y-108990000D01*
X116958574Y-108984853D01*
X117219727Y-108876680D01*
X117454759Y-108719637D01*
X117654637Y-108519759D01*
X117811680Y-108284727D01*
X117919853Y-108023574D01*
X117975000Y-107746335D01*
X117975000Y-107463665D01*
X117919853Y-107186426D01*
X117811680Y-106925273D01*
X117654637Y-106690241D01*
X117454759Y-106490363D01*
X117219727Y-106333320D01*
X116958574Y-106225147D01*
X116932699Y-106220000D01*
X116958574Y-106214853D01*
X117219727Y-106106680D01*
X117454759Y-105949637D01*
X117654637Y-105749759D01*
X117811680Y-105514727D01*
X117919853Y-105253574D01*
X117975000Y-104976335D01*
X117975000Y-104693665D01*
X117919853Y-104416426D01*
X117811680Y-104155273D01*
X117654637Y-103920241D01*
X117454759Y-103720363D01*
X117219727Y-103563320D01*
X116958574Y-103455147D01*
X116932699Y-103450000D01*
X116958574Y-103444853D01*
X117219727Y-103336680D01*
X117454759Y-103179637D01*
X117654637Y-102979759D01*
X117811680Y-102744727D01*
X117919853Y-102483574D01*
X117975000Y-102206335D01*
X117975000Y-101923665D01*
X117919853Y-101646426D01*
X117811680Y-101385273D01*
X117654637Y-101150241D01*
X117454759Y-100950363D01*
X117219727Y-100793320D01*
X117116380Y-100750512D01*
X117939783Y-100750512D01*
X117981213Y-101030130D01*
X118076397Y-101296292D01*
X118143329Y-101421514D01*
X118387298Y-101493097D01*
X119200395Y-100680000D01*
X119559605Y-100680000D01*
X120372702Y-101493097D01*
X120616671Y-101421514D01*
X120737571Y-101166004D01*
X120806300Y-100891816D01*
X120820217Y-100609488D01*
X120778787Y-100329870D01*
X120683603Y-100063708D01*
X120616671Y-99938486D01*
X120372702Y-99866903D01*
X119559605Y-100680000D01*
X119200395Y-100680000D01*
X118387298Y-99866903D01*
X118143329Y-99938486D01*
X118022429Y-100193996D01*
X117953700Y-100468184D01*
X117939783Y-100750512D01*
X117116380Y-100750512D01*
X116958574Y-100685147D01*
X116681335Y-100630000D01*
X116398665Y-100630000D01*
X116121426Y-100685147D01*
X115860273Y-100793320D01*
X115625241Y-100950363D01*
X115425363Y-101150241D01*
X115268320Y-101385273D01*
X115160147Y-101646426D01*
X115105000Y-101923665D01*
X115105000Y-102206335D01*
X115160147Y-102483574D01*
X115268320Y-102744727D01*
X115425363Y-102979759D01*
X115625241Y-103179637D01*
X115860273Y-103336680D01*
X116121426Y-103444853D01*
X116147301Y-103450000D01*
X116121426Y-103455147D01*
X115860273Y-103563320D01*
X115625241Y-103720363D01*
X115425363Y-103920241D01*
X115268320Y-104155273D01*
X115160147Y-104416426D01*
X115105000Y-104693665D01*
X115105000Y-104976335D01*
X115160147Y-105253574D01*
X115268320Y-105514727D01*
X115425363Y-105749759D01*
X115625241Y-105949637D01*
X115860273Y-106106680D01*
X116121426Y-106214853D01*
X116147301Y-106220000D01*
X116121426Y-106225147D01*
X115860273Y-106333320D01*
X115625241Y-106490363D01*
X115425363Y-106690241D01*
X115268320Y-106925273D01*
X115160147Y-107186426D01*
X115105000Y-107463665D01*
X115105000Y-107603159D01*
X113616872Y-109091288D01*
X113578104Y-109123104D01*
X113451140Y-109277810D01*
X113356798Y-109454314D01*
X113298702Y-109645829D01*
X113298702Y-109645830D01*
X113279085Y-109845000D01*
X107340000Y-109845000D01*
X107340000Y-99687298D01*
X118566903Y-99687298D01*
X119380000Y-100500395D01*
X120193097Y-99687298D01*
X120121514Y-99443329D01*
X119866004Y-99322429D01*
X119591816Y-99253700D01*
X119309488Y-99239783D01*
X119029870Y-99281213D01*
X118763708Y-99376397D01*
X118638486Y-99443329D01*
X118566903Y-99687298D01*
X107340000Y-99687298D01*
X107340000Y-95567499D01*
X116292106Y-95567499D01*
X116508228Y-95934258D01*
X116968105Y-96174938D01*
X117466098Y-96321275D01*
X117983071Y-96367648D01*
X118499159Y-96312273D01*
X118994526Y-96157279D01*
X119411772Y-95934258D01*
X119627894Y-95567499D01*
X117960000Y-93899605D01*
X116292106Y-95567499D01*
X107340000Y-95567499D01*
X107340000Y-93743071D01*
X115312352Y-93743071D01*
X115367727Y-94259159D01*
X115522721Y-94754526D01*
X115745742Y-95171772D01*
X116112501Y-95387894D01*
X117780395Y-93720000D01*
X118139605Y-93720000D01*
X119807499Y-95387894D01*
X120174258Y-95171772D01*
X120414938Y-94711895D01*
X120561275Y-94213902D01*
X120607648Y-93696929D01*
X120552273Y-93180841D01*
X120397279Y-92685474D01*
X120174258Y-92268228D01*
X119807499Y-92052106D01*
X118139605Y-93720000D01*
X117780395Y-93720000D01*
X116112501Y-92052106D01*
X115745742Y-92268228D01*
X115505062Y-92728105D01*
X115358725Y-93226098D01*
X115312352Y-93743071D01*
X107340000Y-93743071D01*
X107340000Y-91872501D01*
X116292106Y-91872501D01*
X117960000Y-93540395D01*
X119627894Y-91872501D01*
X119411772Y-91505742D01*
X118951895Y-91265062D01*
X118453902Y-91118725D01*
X117936929Y-91072352D01*
X117420841Y-91127727D01*
X116925474Y-91282721D01*
X116508228Y-91505742D01*
X116292106Y-91872501D01*
X107340000Y-91872501D01*
X107340000Y-81553380D01*
X109539911Y-79353469D01*
X109362335Y-79782176D01*
X109165000Y-80774247D01*
X109165000Y-81785753D01*
X109362335Y-82777824D01*
X109749422Y-83712335D01*
X110311385Y-84553372D01*
X111026628Y-85268615D01*
X111867665Y-85830578D01*
X112802176Y-86217665D01*
X113794247Y-86415000D01*
X114805753Y-86415000D01*
X115797824Y-86217665D01*
X116732335Y-85830578D01*
X117573372Y-85268615D01*
X118288615Y-84553372D01*
X118850578Y-83712335D01*
X119237665Y-82777824D01*
X119435000Y-81785753D01*
X119435000Y-80774247D01*
X119237665Y-79782176D01*
X118850578Y-78847665D01*
X118288615Y-78006628D01*
X117573372Y-77291385D01*
X116732335Y-76729422D01*
X115797824Y-76342335D01*
X114805753Y-76145000D01*
X113794247Y-76145000D01*
X112802176Y-76342335D01*
X112373469Y-76519911D01*
X122193381Y-66700000D01*
X172060000Y-66700000D01*
X172060000Y-78652241D01*
G37*
X172060000Y-78652241D02*
X171628615Y-78006628D01*
X170913372Y-77291385D01*
X170072335Y-76729422D01*
X169137824Y-76342335D01*
X168145753Y-76145000D01*
X167134247Y-76145000D01*
X166142176Y-76342335D01*
X165207665Y-76729422D01*
X164366628Y-77291385D01*
X163651385Y-78006628D01*
X163089422Y-78847665D01*
X162702335Y-79782176D01*
X162505000Y-80774247D01*
X162505000Y-81785753D01*
X162702335Y-82777824D01*
X163089422Y-83712335D01*
X163651385Y-84553372D01*
X164366628Y-85268615D01*
X165207665Y-85830578D01*
X166142176Y-86217665D01*
X167134247Y-86415000D01*
X168145753Y-86415000D01*
X169137824Y-86217665D01*
X170072335Y-85830578D01*
X170913372Y-85268615D01*
X171628615Y-84553372D01*
X172060000Y-83907758D01*
X172060001Y-129452242D01*
X171628615Y-128806628D01*
X170913372Y-128091385D01*
X170072335Y-127529422D01*
X169137824Y-127142335D01*
X168145753Y-126945000D01*
X167134247Y-126945000D01*
X166142176Y-127142335D01*
X165207665Y-127529422D01*
X164366628Y-128091385D01*
X163651385Y-128806628D01*
X163089422Y-129647665D01*
X162702335Y-130582176D01*
X162505000Y-131574247D01*
X162505000Y-132585753D01*
X162702335Y-133577824D01*
X163089422Y-134512335D01*
X163651385Y-135353372D01*
X164366628Y-136068615D01*
X165207665Y-136630578D01*
X166142176Y-137017665D01*
X167134247Y-137215000D01*
X168145753Y-137215000D01*
X169137824Y-137017665D01*
X170072335Y-136630578D01*
X170913372Y-136068615D01*
X171628615Y-135353372D01*
X172060001Y-134707758D01*
X172060001Y-146660000D01*
X122193381Y-146660000D01*
X112373469Y-136840089D01*
X112802176Y-137017665D01*
X113794247Y-137215000D01*
X114805753Y-137215000D01*
X115797824Y-137017665D01*
X116732335Y-136630578D01*
X117573372Y-136068615D01*
X118288615Y-135353372D01*
X118850578Y-134512335D01*
X119237665Y-133577824D01*
X119435000Y-132585753D01*
X119435000Y-131574247D01*
X119237665Y-130582176D01*
X118850578Y-129647665D01*
X118288615Y-128806628D01*
X117573372Y-128091385D01*
X116732335Y-127529422D01*
X115797824Y-127142335D01*
X114805753Y-126945000D01*
X113794247Y-126945000D01*
X112802176Y-127142335D01*
X111867665Y-127529422D01*
X111026628Y-128091385D01*
X110311385Y-128806628D01*
X109749422Y-129647665D01*
X109362335Y-130582176D01*
X109165000Y-131574247D01*
X109165000Y-132585753D01*
X109362335Y-133577824D01*
X109539911Y-134006531D01*
X107340000Y-131806620D01*
X107340000Y-109845000D01*
X113279085Y-109845000D01*
X113284000Y-109894902D01*
X113284001Y-118829970D01*
X113279085Y-118879882D01*
X113298702Y-119079052D01*
X113335851Y-119201514D01*
X113356799Y-119270569D01*
X113451141Y-119447072D01*
X113578105Y-119601778D01*
X113616868Y-119633590D01*
X123444000Y-129460723D01*
X123444001Y-137110088D01*
X123439085Y-137160000D01*
X123458702Y-137359170D01*
X123511897Y-137534526D01*
X123516799Y-137550687D01*
X123611141Y-137727190D01*
X123738105Y-137881896D01*
X123776868Y-137913708D01*
X128786292Y-142923133D01*
X128818104Y-142961896D01*
X128972810Y-143088860D01*
X129087832Y-143150340D01*
X129149312Y-143183202D01*
X129340829Y-143241298D01*
X129540000Y-143260915D01*
X129589902Y-143256000D01*
X147270105Y-143256000D01*
X147319999Y-143260914D01*
X147369893Y-143256000D01*
X160224098Y-143256000D01*
X160274000Y-143260915D01*
X160323902Y-143256000D01*
X160473171Y-143241298D01*
X160664687Y-143183202D01*
X160841190Y-143088860D01*
X160995896Y-142961896D01*
X161027712Y-142923128D01*
X161719133Y-142231708D01*
X161757896Y-142199896D01*
X161884860Y-142045190D01*
X161979202Y-141868687D01*
X162037298Y-141677171D01*
X162052000Y-141527902D01*
X162052000Y-141527901D01*
X162056915Y-141478000D01*
X162052000Y-141428098D01*
X162052000Y-127557893D01*
X162056914Y-127507999D01*
X162052000Y-127458105D01*
X162052000Y-121578840D01*
X165021133Y-118609708D01*
X165059896Y-118577896D01*
X165186860Y-118423190D01*
X165281202Y-118246687D01*
X165339298Y-118055171D01*
X165354000Y-117905902D01*
X165354000Y-117905895D01*
X165358914Y-117856001D01*
X165354000Y-117806107D01*
X165354000Y-107100840D01*
X167307133Y-105147708D01*
X167345896Y-105115896D01*
X167472860Y-104961190D01*
X167567202Y-104784687D01*
X167625298Y-104593171D01*
X167640000Y-104443902D01*
X167640000Y-104443895D01*
X167644914Y-104394001D01*
X167640000Y-104344107D01*
X167640000Y-92251902D01*
X167644915Y-92202000D01*
X167625298Y-92002829D01*
X167567202Y-91811313D01*
X167472860Y-91634810D01*
X167467742Y-91628574D01*
X167345896Y-91480104D01*
X167307133Y-91448292D01*
X165000712Y-89141872D01*
X164968896Y-89103104D01*
X164814190Y-88976140D01*
X164637687Y-88881798D01*
X164446171Y-88823702D01*
X164296902Y-88809000D01*
X164247000Y-88804085D01*
X164197098Y-88809000D01*
X157523396Y-88809000D01*
X157424759Y-88710363D01*
X157189727Y-88553320D01*
X156928574Y-88445147D01*
X156902699Y-88440000D01*
X156928574Y-88434853D01*
X157189727Y-88326680D01*
X157424759Y-88169637D01*
X157624637Y-87969759D01*
X157781680Y-87734727D01*
X157889853Y-87473574D01*
X157945000Y-87196335D01*
X157945000Y-86913665D01*
X157889853Y-86636426D01*
X157781680Y-86375273D01*
X157624637Y-86140241D01*
X157424759Y-85940363D01*
X157189727Y-85783320D01*
X156928574Y-85675147D01*
X156902699Y-85670000D01*
X156928574Y-85664853D01*
X157189727Y-85556680D01*
X157424759Y-85399637D01*
X157624637Y-85199759D01*
X157781680Y-84964727D01*
X157889853Y-84703574D01*
X157945000Y-84426335D01*
X157945000Y-84143665D01*
X157889853Y-83866426D01*
X157781680Y-83605273D01*
X157624637Y-83370241D01*
X157424759Y-83170363D01*
X157189727Y-83013320D01*
X156928574Y-82905147D01*
X156651335Y-82850000D01*
X156368665Y-82850000D01*
X156091426Y-82905147D01*
X155830273Y-83013320D01*
X155595241Y-83170363D01*
X155395363Y-83370241D01*
X155238320Y-83605273D01*
X155130147Y-83866426D01*
X155075000Y-84143665D01*
X155075000Y-84426335D01*
X155130147Y-84703574D01*
X155238320Y-84964727D01*
X155395363Y-85199759D01*
X155595241Y-85399637D01*
X155830273Y-85556680D01*
X156091426Y-85664853D01*
X156117301Y-85670000D01*
X156091426Y-85675147D01*
X155830273Y-85783320D01*
X155595241Y-85940363D01*
X155395363Y-86140241D01*
X155238320Y-86375273D01*
X155130147Y-86636426D01*
X155075000Y-86913665D01*
X155075000Y-87196335D01*
X155130147Y-87473574D01*
X155238320Y-87734727D01*
X155395363Y-87969759D01*
X155595241Y-88169637D01*
X155830273Y-88326680D01*
X156091426Y-88434853D01*
X156117301Y-88440000D01*
X156091426Y-88445147D01*
X155830273Y-88553320D01*
X155595241Y-88710363D01*
X155395363Y-88910241D01*
X155238320Y-89145273D01*
X155130147Y-89406426D01*
X155075000Y-89683665D01*
X155075000Y-89966335D01*
X155130147Y-90243574D01*
X155238320Y-90504727D01*
X155395363Y-90739759D01*
X155595241Y-90939637D01*
X155830273Y-91096680D01*
X156091426Y-91204853D01*
X156117301Y-91210000D01*
X156091426Y-91215147D01*
X155830273Y-91323320D01*
X155595241Y-91480363D01*
X155395363Y-91680241D01*
X155238320Y-91915273D01*
X155130147Y-92176426D01*
X155075000Y-92453665D01*
X155075000Y-92736335D01*
X155130147Y-93013574D01*
X155238320Y-93274727D01*
X155395363Y-93509759D01*
X155595241Y-93709637D01*
X155830273Y-93866680D01*
X156091426Y-93974853D01*
X156368665Y-94030000D01*
X156651335Y-94030000D01*
X156928574Y-93974853D01*
X157189727Y-93866680D01*
X157424759Y-93709637D01*
X157624637Y-93509759D01*
X157781680Y-93274727D01*
X157889853Y-93013574D01*
X157945000Y-92736335D01*
X157945000Y-92453665D01*
X157889853Y-92176426D01*
X157781680Y-91915273D01*
X157624637Y-91680241D01*
X157424759Y-91480363D01*
X157189727Y-91323320D01*
X156928574Y-91215147D01*
X156902699Y-91210000D01*
X156928574Y-91204853D01*
X157189727Y-91096680D01*
X157424759Y-90939637D01*
X157523396Y-90841000D01*
X163826160Y-90841000D01*
X165608001Y-92622842D01*
X165608000Y-103973159D01*
X163917160Y-105664000D01*
X147740841Y-105664000D01*
X145796000Y-103719160D01*
X145796000Y-102787499D01*
X153422106Y-102787499D01*
X153638228Y-103154258D01*
X154098105Y-103394938D01*
X154596098Y-103541275D01*
X155113071Y-103587648D01*
X155629159Y-103532273D01*
X156124526Y-103377279D01*
X156541772Y-103154258D01*
X156757894Y-102787499D01*
X155090000Y-101119605D01*
X153422106Y-102787499D01*
X145796000Y-102787499D01*
X145796000Y-100963071D01*
X152442352Y-100963071D01*
X152497727Y-101479159D01*
X152652721Y-101974526D01*
X152875742Y-102391772D01*
X153242501Y-102607894D01*
X154910395Y-100940000D01*
X155269605Y-100940000D01*
X156937499Y-102607894D01*
X157304258Y-102391772D01*
X157544938Y-101931895D01*
X157691275Y-101433902D01*
X157737648Y-100916929D01*
X157682273Y-100400841D01*
X157527279Y-99905474D01*
X157304258Y-99488228D01*
X156937499Y-99272106D01*
X155269605Y-100940000D01*
X154910395Y-100940000D01*
X153242501Y-99272106D01*
X152875742Y-99488228D01*
X152635062Y-99948105D01*
X152488725Y-100446098D01*
X152442352Y-100963071D01*
X145796000Y-100963071D01*
X145796000Y-99092501D01*
X153422106Y-99092501D01*
X155090000Y-100760395D01*
X156757894Y-99092501D01*
X156541772Y-98725742D01*
X156081895Y-98485062D01*
X155583902Y-98338725D01*
X155066929Y-98292352D01*
X154550841Y-98347727D01*
X154055474Y-98502721D01*
X153638228Y-98725742D01*
X153422106Y-99092501D01*
X145796000Y-99092501D01*
X145796000Y-90799902D01*
X145800915Y-90750000D01*
X145781298Y-90550829D01*
X145723202Y-90359313D01*
X145628860Y-90182810D01*
X145533706Y-90066865D01*
X145501896Y-90028104D01*
X145463133Y-89996292D01*
X144608712Y-89141872D01*
X144576896Y-89103104D01*
X144422190Y-88976140D01*
X144245687Y-88881798D01*
X144054171Y-88823702D01*
X143904902Y-88809000D01*
X143855000Y-88804085D01*
X143805098Y-88809000D01*
X134155396Y-88809000D01*
X134056759Y-88710363D01*
X133821727Y-88553320D01*
X133560574Y-88445147D01*
X133534699Y-88440000D01*
X133560574Y-88434853D01*
X133821727Y-88326680D01*
X134056759Y-88169637D01*
X134256637Y-87969759D01*
X134413680Y-87734727D01*
X134521853Y-87473574D01*
X134577000Y-87196335D01*
X134577000Y-86913665D01*
X134521853Y-86636426D01*
X134413680Y-86375273D01*
X134256637Y-86140241D01*
X134056759Y-85940363D01*
X133821727Y-85783320D01*
X133560574Y-85675147D01*
X133534699Y-85670000D01*
X133560574Y-85664853D01*
X133821727Y-85556680D01*
X134056759Y-85399637D01*
X134256637Y-85199759D01*
X134413680Y-84964727D01*
X134521853Y-84703574D01*
X134577000Y-84426335D01*
X134577000Y-84143665D01*
X134521853Y-83866426D01*
X134413680Y-83605273D01*
X134256637Y-83370241D01*
X134056759Y-83170363D01*
X133821727Y-83013320D01*
X133560574Y-82905147D01*
X133283335Y-82850000D01*
X133000665Y-82850000D01*
X132723426Y-82905147D01*
X132462273Y-83013320D01*
X132227241Y-83170363D01*
X132027363Y-83370241D01*
X131870320Y-83605273D01*
X131762147Y-83866426D01*
X131707000Y-84143665D01*
X131707000Y-84426335D01*
X131762147Y-84703574D01*
X131870320Y-84964727D01*
X132027363Y-85199759D01*
X132227241Y-85399637D01*
X132462273Y-85556680D01*
X132723426Y-85664853D01*
X132749301Y-85670000D01*
X132723426Y-85675147D01*
X132462273Y-85783320D01*
X132227241Y-85940363D01*
X132027363Y-86140241D01*
X131870320Y-86375273D01*
X131762147Y-86636426D01*
X131707000Y-86913665D01*
X131707000Y-87196335D01*
X131762147Y-87473574D01*
X131870320Y-87734727D01*
X132027363Y-87969759D01*
X132227241Y-88169637D01*
X132462273Y-88326680D01*
X132723426Y-88434853D01*
X132749301Y-88440000D01*
X132723426Y-88445147D01*
X132462273Y-88553320D01*
X132227241Y-88710363D01*
X132027363Y-88910241D01*
X131870320Y-89145273D01*
X131762147Y-89406426D01*
X131707000Y-89683665D01*
X131707000Y-89966335D01*
X131762147Y-90243574D01*
X131870320Y-90504727D01*
X132027363Y-90739759D01*
X132227241Y-90939637D01*
X132462273Y-91096680D01*
X132723426Y-91204853D01*
X132749301Y-91210000D01*
X132723426Y-91215147D01*
X132462273Y-91323320D01*
X132227241Y-91480363D01*
X132027363Y-91680241D01*
X131870320Y-91915273D01*
X131762147Y-92176426D01*
X131707000Y-92453665D01*
X131707000Y-92736335D01*
X131762147Y-93013574D01*
X131870320Y-93274727D01*
X132027363Y-93509759D01*
X132227241Y-93709637D01*
X132462273Y-93866680D01*
X132723426Y-93974853D01*
X133000665Y-94030000D01*
X133283335Y-94030000D01*
X133560574Y-93974853D01*
X133821727Y-93866680D01*
X134056759Y-93709637D01*
X134256637Y-93509759D01*
X134413680Y-93274727D01*
X134521853Y-93013574D01*
X134577000Y-92736335D01*
X134577000Y-92453665D01*
X134521853Y-92176426D01*
X134413680Y-91915273D01*
X134256637Y-91680241D01*
X134056759Y-91480363D01*
X133821727Y-91323320D01*
X133560574Y-91215147D01*
X133534699Y-91210000D01*
X133560574Y-91204853D01*
X133821727Y-91096680D01*
X134056759Y-90939637D01*
X134155396Y-90841000D01*
X143434160Y-90841000D01*
X143764000Y-91170841D01*
X143764001Y-104090088D01*
X143759085Y-104140000D01*
X143778702Y-104339170D01*
X143817176Y-104466000D01*
X143836799Y-104530687D01*
X143931141Y-104707190D01*
X144058105Y-104861896D01*
X144096866Y-104893706D01*
X144871230Y-105668071D01*
X144829902Y-105664000D01*
X144780000Y-105659085D01*
X144730098Y-105664000D01*
X128016000Y-105664000D01*
X128016000Y-104189893D01*
X128020914Y-104139999D01*
X128016000Y-104090105D01*
X128016000Y-102787499D01*
X130054106Y-102787499D01*
X130270228Y-103154258D01*
X130730105Y-103394938D01*
X131228098Y-103541275D01*
X131745071Y-103587648D01*
X132261159Y-103532273D01*
X132756526Y-103377279D01*
X133173772Y-103154258D01*
X133389894Y-102787499D01*
X131722000Y-101119605D01*
X130054106Y-102787499D01*
X128016000Y-102787499D01*
X128016000Y-100963071D01*
X129074352Y-100963071D01*
X129129727Y-101479159D01*
X129284721Y-101974526D01*
X129507742Y-102391772D01*
X129874501Y-102607894D01*
X131542395Y-100940000D01*
X131901605Y-100940000D01*
X133569499Y-102607894D01*
X133936258Y-102391772D01*
X134176938Y-101931895D01*
X134323275Y-101433902D01*
X134369648Y-100916929D01*
X134314273Y-100400841D01*
X134159279Y-99905474D01*
X133936258Y-99488228D01*
X133569499Y-99272106D01*
X131901605Y-100940000D01*
X131542395Y-100940000D01*
X129874501Y-99272106D01*
X129507742Y-99488228D01*
X129267062Y-99948105D01*
X129120725Y-100446098D01*
X129074352Y-100963071D01*
X128016000Y-100963071D01*
X128016000Y-99092501D01*
X130054106Y-99092501D01*
X131722000Y-100760395D01*
X133389894Y-99092501D01*
X133173772Y-98725742D01*
X132713895Y-98485062D01*
X132215902Y-98338725D01*
X131698929Y-98292352D01*
X131182841Y-98347727D01*
X130687474Y-98502721D01*
X130270228Y-98725742D01*
X130054106Y-99092501D01*
X128016000Y-99092501D01*
X128016000Y-86686000D01*
X129288604Y-86686000D01*
X129387241Y-86784637D01*
X129622273Y-86941680D01*
X129883426Y-87049853D01*
X129909301Y-87055000D01*
X129883426Y-87060147D01*
X129622273Y-87168320D01*
X129387241Y-87325363D01*
X129187363Y-87525241D01*
X129030320Y-87760273D01*
X128922147Y-88021426D01*
X128867000Y-88298665D01*
X128867000Y-88581335D01*
X128922147Y-88858574D01*
X129030320Y-89119727D01*
X129187363Y-89354759D01*
X129387241Y-89554637D01*
X129622273Y-89711680D01*
X129883426Y-89819853D01*
X129909301Y-89825000D01*
X129883426Y-89830147D01*
X129622273Y-89938320D01*
X129387241Y-90095363D01*
X129187363Y-90295241D01*
X129030320Y-90530273D01*
X128922147Y-90791426D01*
X128867000Y-91068665D01*
X128867000Y-91351335D01*
X128922147Y-91628574D01*
X129030320Y-91889727D01*
X129187363Y-92124759D01*
X129387241Y-92324637D01*
X129622273Y-92481680D01*
X129767725Y-92541928D01*
X129502000Y-92541928D01*
X129377518Y-92554188D01*
X129257820Y-92590498D01*
X129147506Y-92649463D01*
X129050815Y-92728815D01*
X128971463Y-92825506D01*
X128912498Y-92935820D01*
X128876188Y-93055518D01*
X128863928Y-93180000D01*
X128863928Y-94780000D01*
X128876188Y-94904482D01*
X128912498Y-95024180D01*
X128971463Y-95134494D01*
X129050815Y-95231185D01*
X129147506Y-95310537D01*
X129257820Y-95369502D01*
X129377518Y-95405812D01*
X129502000Y-95418072D01*
X131102000Y-95418072D01*
X131226482Y-95405812D01*
X131346180Y-95369502D01*
X131456494Y-95310537D01*
X131553185Y-95231185D01*
X131632537Y-95134494D01*
X131691502Y-95024180D01*
X131727812Y-94904482D01*
X131740072Y-94780000D01*
X131740072Y-93180000D01*
X131727812Y-93055518D01*
X131691502Y-92935820D01*
X131632537Y-92825506D01*
X131553185Y-92728815D01*
X131456494Y-92649463D01*
X131346180Y-92590498D01*
X131226482Y-92554188D01*
X131102000Y-92541928D01*
X130836275Y-92541928D01*
X130981727Y-92481680D01*
X131216759Y-92324637D01*
X131416637Y-92124759D01*
X131573680Y-91889727D01*
X131681853Y-91628574D01*
X131737000Y-91351335D01*
X131737000Y-91068665D01*
X131681853Y-90791426D01*
X131573680Y-90530273D01*
X131416637Y-90295241D01*
X131216759Y-90095363D01*
X130981727Y-89938320D01*
X130720574Y-89830147D01*
X130694699Y-89825000D01*
X130720574Y-89819853D01*
X130981727Y-89711680D01*
X131216759Y-89554637D01*
X131416637Y-89354759D01*
X131573680Y-89119727D01*
X131681853Y-88858574D01*
X131737000Y-88581335D01*
X131737000Y-88298665D01*
X131681853Y-88021426D01*
X131573680Y-87760273D01*
X131416637Y-87525241D01*
X131216759Y-87325363D01*
X130981727Y-87168320D01*
X130720574Y-87060147D01*
X130694699Y-87055000D01*
X130720574Y-87049853D01*
X130981727Y-86941680D01*
X131216759Y-86784637D01*
X131416637Y-86584759D01*
X131573680Y-86349727D01*
X131681853Y-86088574D01*
X131737000Y-85811335D01*
X131737000Y-85528665D01*
X131681853Y-85251426D01*
X131573680Y-84990273D01*
X131416637Y-84755241D01*
X131216759Y-84555363D01*
X130981727Y-84398320D01*
X130720574Y-84290147D01*
X130692118Y-84284487D01*
X130918292Y-84203603D01*
X131043514Y-84136671D01*
X131115097Y-83892702D01*
X130302000Y-83079605D01*
X129488903Y-83892702D01*
X129560486Y-84136671D01*
X129815996Y-84257571D01*
X129918289Y-84283212D01*
X129883426Y-84290147D01*
X129622273Y-84398320D01*
X129387241Y-84555363D01*
X129288604Y-84654000D01*
X128016000Y-84654000D01*
X128016000Y-82970512D01*
X128861783Y-82970512D01*
X128903213Y-83250130D01*
X128998397Y-83516292D01*
X129065329Y-83641514D01*
X129309298Y-83713097D01*
X130122395Y-82900000D01*
X130481605Y-82900000D01*
X131294702Y-83713097D01*
X131538671Y-83641514D01*
X131659571Y-83386004D01*
X131728300Y-83111816D01*
X131742217Y-82829488D01*
X131700787Y-82549870D01*
X131605603Y-82283708D01*
X131538671Y-82158486D01*
X131294702Y-82086903D01*
X130481605Y-82900000D01*
X130122395Y-82900000D01*
X129309298Y-82086903D01*
X129065329Y-82158486D01*
X128944429Y-82413996D01*
X128875700Y-82688184D01*
X128861783Y-82970512D01*
X128016000Y-82970512D01*
X128016000Y-81907298D01*
X129488903Y-81907298D01*
X130302000Y-82720395D01*
X131115097Y-81907298D01*
X131043514Y-81663329D01*
X130788004Y-81542429D01*
X130513816Y-81473700D01*
X130231488Y-81459783D01*
X129951870Y-81501213D01*
X129685708Y-81596397D01*
X129560486Y-81663329D01*
X129488903Y-81907298D01*
X128016000Y-81907298D01*
X128016000Y-77787499D01*
X130054106Y-77787499D01*
X130270228Y-78154258D01*
X130730105Y-78394938D01*
X131228098Y-78541275D01*
X131745071Y-78587648D01*
X132261159Y-78532273D01*
X132756526Y-78377279D01*
X133173772Y-78154258D01*
X133389894Y-77787499D01*
X131722000Y-76119605D01*
X130054106Y-77787499D01*
X128016000Y-77787499D01*
X128016000Y-75963071D01*
X129074352Y-75963071D01*
X129129727Y-76479159D01*
X129284721Y-76974526D01*
X129507742Y-77391772D01*
X129874501Y-77607894D01*
X131542395Y-75940000D01*
X131901605Y-75940000D01*
X133569499Y-77607894D01*
X133936258Y-77391772D01*
X134176938Y-76931895D01*
X134323275Y-76433902D01*
X134369648Y-75916929D01*
X134314273Y-75400841D01*
X134159279Y-74905474D01*
X133936258Y-74488228D01*
X133569499Y-74272106D01*
X131901605Y-75940000D01*
X131542395Y-75940000D01*
X129874501Y-74272106D01*
X129507742Y-74488228D01*
X129267062Y-74948105D01*
X129120725Y-75446098D01*
X129074352Y-75963071D01*
X128016000Y-75963071D01*
X128016000Y-74092501D01*
X130054106Y-74092501D01*
X131722000Y-75760395D01*
X133389894Y-74092501D01*
X133173772Y-73725742D01*
X132713895Y-73485062D01*
X132215902Y-73338725D01*
X131698929Y-73292352D01*
X131182841Y-73347727D01*
X130687474Y-73502721D01*
X130270228Y-73725742D01*
X130054106Y-74092501D01*
X128016000Y-74092501D01*
X128016000Y-72136000D01*
X143764000Y-72136000D01*
X143764001Y-83008088D01*
X143759085Y-83058000D01*
X143778702Y-83257170D01*
X143817784Y-83386004D01*
X143836799Y-83448687D01*
X143931141Y-83625190D01*
X144058105Y-83779896D01*
X144096868Y-83811708D01*
X146638292Y-86353133D01*
X146670104Y-86391896D01*
X146824810Y-86518860D01*
X146975300Y-86599298D01*
X147001313Y-86613202D01*
X147192829Y-86671298D01*
X147392000Y-86690915D01*
X147441902Y-86686000D01*
X152656604Y-86686000D01*
X152755241Y-86784637D01*
X152990273Y-86941680D01*
X153251426Y-87049853D01*
X153277301Y-87055000D01*
X153251426Y-87060147D01*
X152990273Y-87168320D01*
X152755241Y-87325363D01*
X152555363Y-87525241D01*
X152398320Y-87760273D01*
X152290147Y-88021426D01*
X152235000Y-88298665D01*
X152235000Y-88581335D01*
X152290147Y-88858574D01*
X152398320Y-89119727D01*
X152555363Y-89354759D01*
X152755241Y-89554637D01*
X152990273Y-89711680D01*
X153251426Y-89819853D01*
X153277301Y-89825000D01*
X153251426Y-89830147D01*
X152990273Y-89938320D01*
X152755241Y-90095363D01*
X152555363Y-90295241D01*
X152398320Y-90530273D01*
X152290147Y-90791426D01*
X152235000Y-91068665D01*
X152235000Y-91351335D01*
X152290147Y-91628574D01*
X152398320Y-91889727D01*
X152555363Y-92124759D01*
X152755241Y-92324637D01*
X152990273Y-92481680D01*
X153135725Y-92541928D01*
X152870000Y-92541928D01*
X152745518Y-92554188D01*
X152625820Y-92590498D01*
X152515506Y-92649463D01*
X152418815Y-92728815D01*
X152339463Y-92825506D01*
X152280498Y-92935820D01*
X152244188Y-93055518D01*
X152231928Y-93180000D01*
X152231928Y-94780000D01*
X152244188Y-94904482D01*
X152280498Y-95024180D01*
X152339463Y-95134494D01*
X152418815Y-95231185D01*
X152515506Y-95310537D01*
X152625820Y-95369502D01*
X152745518Y-95405812D01*
X152870000Y-95418072D01*
X154470000Y-95418072D01*
X154594482Y-95405812D01*
X154714180Y-95369502D01*
X154824494Y-95310537D01*
X154921185Y-95231185D01*
X155000537Y-95134494D01*
X155059502Y-95024180D01*
X155095812Y-94904482D01*
X155108072Y-94780000D01*
X155108072Y-93180000D01*
X155095812Y-93055518D01*
X155059502Y-92935820D01*
X155000537Y-92825506D01*
X154921185Y-92728815D01*
X154824494Y-92649463D01*
X154714180Y-92590498D01*
X154594482Y-92554188D01*
X154470000Y-92541928D01*
X154204275Y-92541928D01*
X154349727Y-92481680D01*
X154584759Y-92324637D01*
X154784637Y-92124759D01*
X154941680Y-91889727D01*
X155049853Y-91628574D01*
X155105000Y-91351335D01*
X155105000Y-91068665D01*
X155049853Y-90791426D01*
X154941680Y-90530273D01*
X154784637Y-90295241D01*
X154584759Y-90095363D01*
X154349727Y-89938320D01*
X154088574Y-89830147D01*
X154062699Y-89825000D01*
X154088574Y-89819853D01*
X154349727Y-89711680D01*
X154584759Y-89554637D01*
X154784637Y-89354759D01*
X154941680Y-89119727D01*
X155049853Y-88858574D01*
X155105000Y-88581335D01*
X155105000Y-88298665D01*
X155049853Y-88021426D01*
X154941680Y-87760273D01*
X154784637Y-87525241D01*
X154584759Y-87325363D01*
X154349727Y-87168320D01*
X154088574Y-87060147D01*
X154062699Y-87055000D01*
X154088574Y-87049853D01*
X154349727Y-86941680D01*
X154584759Y-86784637D01*
X154784637Y-86584759D01*
X154941680Y-86349727D01*
X155049853Y-86088574D01*
X155105000Y-85811335D01*
X155105000Y-85528665D01*
X155049853Y-85251426D01*
X154941680Y-84990273D01*
X154784637Y-84755241D01*
X154584759Y-84555363D01*
X154349727Y-84398320D01*
X154088574Y-84290147D01*
X154060118Y-84284487D01*
X154286292Y-84203603D01*
X154411514Y-84136671D01*
X154483097Y-83892702D01*
X153670000Y-83079605D01*
X152856903Y-83892702D01*
X152928486Y-84136671D01*
X153183996Y-84257571D01*
X153286289Y-84283212D01*
X153251426Y-84290147D01*
X152990273Y-84398320D01*
X152755241Y-84555363D01*
X152656604Y-84654000D01*
X147812841Y-84654000D01*
X146129353Y-82970512D01*
X152229783Y-82970512D01*
X152271213Y-83250130D01*
X152366397Y-83516292D01*
X152433329Y-83641514D01*
X152677298Y-83713097D01*
X153490395Y-82900000D01*
X153849605Y-82900000D01*
X154662702Y-83713097D01*
X154906671Y-83641514D01*
X155027571Y-83386004D01*
X155096300Y-83111816D01*
X155110217Y-82829488D01*
X155068787Y-82549870D01*
X154973603Y-82283708D01*
X154906671Y-82158486D01*
X154662702Y-82086903D01*
X153849605Y-82900000D01*
X153490395Y-82900000D01*
X152677298Y-82086903D01*
X152433329Y-82158486D01*
X152312429Y-82413996D01*
X152243700Y-82688184D01*
X152229783Y-82970512D01*
X146129353Y-82970512D01*
X145796000Y-82637160D01*
X145796000Y-81907298D01*
X152856903Y-81907298D01*
X153670000Y-82720395D01*
X154483097Y-81907298D01*
X154411514Y-81663329D01*
X154156004Y-81542429D01*
X153881816Y-81473700D01*
X153599488Y-81459783D01*
X153319870Y-81501213D01*
X153053708Y-81596397D01*
X152928486Y-81663329D01*
X152856903Y-81907298D01*
X145796000Y-81907298D01*
X145796000Y-77787499D01*
X153422106Y-77787499D01*
X153638228Y-78154258D01*
X154098105Y-78394938D01*
X154596098Y-78541275D01*
X155113071Y-78587648D01*
X155629159Y-78532273D01*
X156124526Y-78377279D01*
X156541772Y-78154258D01*
X156757894Y-77787499D01*
X155090000Y-76119605D01*
X153422106Y-77787499D01*
X145796000Y-77787499D01*
X145796000Y-75963071D01*
X152442352Y-75963071D01*
X152497727Y-76479159D01*
X152652721Y-76974526D01*
X152875742Y-77391772D01*
X153242501Y-77607894D01*
X154910395Y-75940000D01*
X155269605Y-75940000D01*
X156937499Y-77607894D01*
X157304258Y-77391772D01*
X157544938Y-76931895D01*
X157691275Y-76433902D01*
X157737648Y-75916929D01*
X157682273Y-75400841D01*
X157527279Y-74905474D01*
X157304258Y-74488228D01*
X156937499Y-74272106D01*
X155269605Y-75940000D01*
X154910395Y-75940000D01*
X153242501Y-74272106D01*
X152875742Y-74488228D01*
X152635062Y-74948105D01*
X152488725Y-75446098D01*
X152442352Y-75963071D01*
X145796000Y-75963071D01*
X145796000Y-74092501D01*
X153422106Y-74092501D01*
X155090000Y-75760395D01*
X156757894Y-74092501D01*
X156541772Y-73725742D01*
X156081895Y-73485062D01*
X155583902Y-73338725D01*
X155066929Y-73292352D01*
X154550841Y-73347727D01*
X154055474Y-73502721D01*
X153638228Y-73725742D01*
X153422106Y-74092501D01*
X145796000Y-74092501D01*
X145796000Y-71169902D01*
X145800915Y-71120000D01*
X145781298Y-70920829D01*
X145723202Y-70729313D01*
X145628860Y-70552810D01*
X145501896Y-70398104D01*
X145347190Y-70271140D01*
X145170687Y-70176798D01*
X144979171Y-70118702D01*
X144829902Y-70104000D01*
X144780000Y-70099085D01*
X144730098Y-70104000D01*
X127049902Y-70104000D01*
X127000000Y-70099085D01*
X126950098Y-70104000D01*
X126800829Y-70118702D01*
X126609313Y-70176798D01*
X126432810Y-70271140D01*
X126278104Y-70398104D01*
X126151140Y-70552810D01*
X126056798Y-70729313D01*
X125998702Y-70920829D01*
X125979085Y-71120000D01*
X125984001Y-71169912D01*
X125984000Y-84930098D01*
X125984000Y-85548098D01*
X125979085Y-85598000D01*
X125984000Y-85647901D01*
X125984001Y-102434000D01*
X120393396Y-102434000D01*
X120294759Y-102335363D01*
X120059727Y-102178320D01*
X119798574Y-102070147D01*
X119770118Y-102064487D01*
X119996292Y-101983603D01*
X120121514Y-101916671D01*
X120193097Y-101672702D01*
X119380000Y-100859605D01*
X118566903Y-101672702D01*
X118638486Y-101916671D01*
X118893996Y-102037571D01*
X118996289Y-102063212D01*
X118961426Y-102070147D01*
X118700273Y-102178320D01*
X118465241Y-102335363D01*
X118265363Y-102535241D01*
X118108320Y-102770273D01*
X118000147Y-103031426D01*
X117945000Y-103308665D01*
X117945000Y-103591335D01*
X118000147Y-103868574D01*
X118108320Y-104129727D01*
X118265363Y-104364759D01*
X118465241Y-104564637D01*
X118700273Y-104721680D01*
X118961426Y-104829853D01*
X118987301Y-104835000D01*
X118961426Y-104840147D01*
X118700273Y-104948320D01*
X118465241Y-105105363D01*
X118265363Y-105305241D01*
X118108320Y-105540273D01*
X118000147Y-105801426D01*
X117945000Y-106078665D01*
X117945000Y-106361335D01*
X118000147Y-106638574D01*
X118108320Y-106899727D01*
X118265363Y-107134759D01*
X118465241Y-107334637D01*
X118700273Y-107491680D01*
X118961426Y-107599853D01*
X118987301Y-107605000D01*
X118961426Y-107610147D01*
X118700273Y-107718320D01*
X118465241Y-107875363D01*
X118265363Y-108075241D01*
X118108320Y-108310273D01*
X118000147Y-108571426D01*
X117945000Y-108848665D01*
X117945000Y-109131335D01*
X118000147Y-109408574D01*
X118108320Y-109669727D01*
X118265363Y-109904759D01*
X118465241Y-110104637D01*
X118700273Y-110261680D01*
X118845725Y-110321928D01*
X118580000Y-110321928D01*
X118455518Y-110334188D01*
X118335820Y-110370498D01*
X118225506Y-110429463D01*
X118128815Y-110508815D01*
X118049463Y-110605506D01*
X117990498Y-110715820D01*
X117954188Y-110835518D01*
X117941928Y-110960000D01*
X117941928Y-112560000D01*
X117954188Y-112684482D01*
X117990498Y-112804180D01*
X118049463Y-112914494D01*
X118128815Y-113011185D01*
X118225506Y-113090537D01*
X118335820Y-113149502D01*
X118455518Y-113185812D01*
X118580000Y-113198072D01*
X120180000Y-113198072D01*
X120304482Y-113185812D01*
X120424180Y-113149502D01*
X120534494Y-113090537D01*
X120631185Y-113011185D01*
X120710537Y-112914494D01*
X120769502Y-112804180D01*
X120805812Y-112684482D01*
X120818072Y-112560000D01*
X120818072Y-110960000D01*
X120805812Y-110835518D01*
X120769502Y-110715820D01*
X120710537Y-110605506D01*
X120631185Y-110508815D01*
X120534494Y-110429463D01*
X120424180Y-110370498D01*
X120304482Y-110334188D01*
X120180000Y-110321928D01*
X119914275Y-110321928D01*
X120059727Y-110261680D01*
X120294759Y-110104637D01*
X120494637Y-109904759D01*
X120651680Y-109669727D01*
X120759853Y-109408574D01*
X120815000Y-109131335D01*
X120815000Y-108848665D01*
X120759853Y-108571426D01*
X120651680Y-108310273D01*
X120494637Y-108075241D01*
X120294759Y-107875363D01*
X120059727Y-107718320D01*
X119798574Y-107610147D01*
X119772699Y-107605000D01*
X119798574Y-107599853D01*
X120059727Y-107491680D01*
X120294759Y-107334637D01*
X120494637Y-107134759D01*
X120651680Y-106899727D01*
X120759853Y-106638574D01*
X120815000Y-106361335D01*
X120815000Y-106078665D01*
X120759853Y-105801426D01*
X120651680Y-105540273D01*
X120494637Y-105305241D01*
X120294759Y-105105363D01*
X120059727Y-104948320D01*
X119798574Y-104840147D01*
X119772699Y-104835000D01*
X119798574Y-104829853D01*
X120059727Y-104721680D01*
X120294759Y-104564637D01*
X120393396Y-104466000D01*
X125889160Y-104466000D01*
X125984000Y-104560841D01*
X125984001Y-106630088D01*
X125979085Y-106680000D01*
X125984001Y-106729912D01*
X125984000Y-120490098D01*
X125979085Y-120540000D01*
X125984090Y-120590811D01*
X125998702Y-120739170D01*
X126056798Y-120930686D01*
X126151140Y-121107190D01*
X126278104Y-121261896D01*
X126316872Y-121293712D01*
X126936292Y-121913133D01*
X126968104Y-121951896D01*
X127122810Y-122078860D01*
X127299313Y-122173202D01*
X127432732Y-122213674D01*
X127490828Y-122231298D01*
X127510177Y-122233204D01*
X127640098Y-122246000D01*
X127640105Y-122246000D01*
X127689999Y-122250914D01*
X127739893Y-122246000D01*
X129288604Y-122246000D01*
X129387241Y-122344637D01*
X129622273Y-122501680D01*
X129883426Y-122609853D01*
X129909301Y-122615000D01*
X129883426Y-122620147D01*
X129622273Y-122728320D01*
X129387241Y-122885363D01*
X129187363Y-123085241D01*
X129030320Y-123320273D01*
X128922147Y-123581426D01*
X128867000Y-123858665D01*
X128867000Y-124141335D01*
X128922147Y-124418574D01*
X129030320Y-124679727D01*
X129187363Y-124914759D01*
X129387241Y-125114637D01*
X129622273Y-125271680D01*
X129883426Y-125379853D01*
X129909301Y-125385000D01*
X129883426Y-125390147D01*
X129622273Y-125498320D01*
X129387241Y-125655363D01*
X129187363Y-125855241D01*
X129030320Y-126090273D01*
X128922147Y-126351426D01*
X128867000Y-126628665D01*
X128867000Y-126911335D01*
X128922147Y-127188574D01*
X129030320Y-127449727D01*
X129187363Y-127684759D01*
X129387241Y-127884637D01*
X129622273Y-128041680D01*
X129767725Y-128101928D01*
X129502000Y-128101928D01*
X129377518Y-128114188D01*
X129257820Y-128150498D01*
X129147506Y-128209463D01*
X129050815Y-128288815D01*
X128971463Y-128385506D01*
X128912498Y-128495820D01*
X128876188Y-128615518D01*
X128863928Y-128740000D01*
X128863928Y-130340000D01*
X128876188Y-130464482D01*
X128912498Y-130584180D01*
X128971463Y-130694494D01*
X129050815Y-130791185D01*
X129147506Y-130870537D01*
X129257820Y-130929502D01*
X129377518Y-130965812D01*
X129502000Y-130978072D01*
X131102000Y-130978072D01*
X131226482Y-130965812D01*
X131346180Y-130929502D01*
X131456494Y-130870537D01*
X131553185Y-130791185D01*
X131632537Y-130694494D01*
X131691502Y-130584180D01*
X131727812Y-130464482D01*
X131740072Y-130340000D01*
X131740072Y-128740000D01*
X131727812Y-128615518D01*
X131691502Y-128495820D01*
X131632537Y-128385506D01*
X131553185Y-128288815D01*
X131456494Y-128209463D01*
X131346180Y-128150498D01*
X131226482Y-128114188D01*
X131102000Y-128101928D01*
X130836275Y-128101928D01*
X130981727Y-128041680D01*
X131216759Y-127884637D01*
X131416637Y-127684759D01*
X131573680Y-127449727D01*
X131681853Y-127188574D01*
X131737000Y-126911335D01*
X131737000Y-126628665D01*
X131681853Y-126351426D01*
X131573680Y-126090273D01*
X131416637Y-125855241D01*
X131216759Y-125655363D01*
X130981727Y-125498320D01*
X130720574Y-125390147D01*
X130694699Y-125385000D01*
X130720574Y-125379853D01*
X130981727Y-125271680D01*
X131216759Y-125114637D01*
X131416637Y-124914759D01*
X131573680Y-124679727D01*
X131681853Y-124418574D01*
X131737000Y-124141335D01*
X131737000Y-123858665D01*
X131681853Y-123581426D01*
X131573680Y-123320273D01*
X131416637Y-123085241D01*
X131216759Y-122885363D01*
X130981727Y-122728320D01*
X130720574Y-122620147D01*
X130694699Y-122615000D01*
X130720574Y-122609853D01*
X130981727Y-122501680D01*
X131216759Y-122344637D01*
X131416637Y-122144759D01*
X131573680Y-121909727D01*
X131681853Y-121648574D01*
X131737000Y-121371335D01*
X131737000Y-121088665D01*
X131681853Y-120811426D01*
X131573680Y-120550273D01*
X131416637Y-120315241D01*
X131216759Y-120115363D01*
X130981727Y-119958320D01*
X130720574Y-119850147D01*
X130692118Y-119844487D01*
X130918292Y-119763603D01*
X131043514Y-119696671D01*
X131115097Y-119452702D01*
X130302000Y-118639605D01*
X129488903Y-119452702D01*
X129560486Y-119696671D01*
X129815996Y-119817571D01*
X129918289Y-119843212D01*
X129883426Y-119850147D01*
X129622273Y-119958320D01*
X129387241Y-120115363D01*
X129288604Y-120214000D01*
X128110841Y-120214000D01*
X128016000Y-120119160D01*
X128016000Y-118530512D01*
X128861783Y-118530512D01*
X128903213Y-118810130D01*
X128998397Y-119076292D01*
X129065329Y-119201514D01*
X129309298Y-119273097D01*
X130122395Y-118460000D01*
X130481605Y-118460000D01*
X131294702Y-119273097D01*
X131538671Y-119201514D01*
X131659571Y-118946004D01*
X131728300Y-118671816D01*
X131742217Y-118389488D01*
X131700787Y-118109870D01*
X131605603Y-117843708D01*
X131538671Y-117718486D01*
X131294702Y-117646903D01*
X130481605Y-118460000D01*
X130122395Y-118460000D01*
X129309298Y-117646903D01*
X129065329Y-117718486D01*
X128944429Y-117973996D01*
X128875700Y-118248184D01*
X128861783Y-118530512D01*
X128016000Y-118530512D01*
X128016000Y-117467298D01*
X129488903Y-117467298D01*
X130302000Y-118280395D01*
X131115097Y-117467298D01*
X131043514Y-117223329D01*
X130788004Y-117102429D01*
X130513816Y-117033700D01*
X130231488Y-117019783D01*
X129951870Y-117061213D01*
X129685708Y-117156397D01*
X129560486Y-117223329D01*
X129488903Y-117467298D01*
X128016000Y-117467298D01*
X128016000Y-113347499D01*
X130054106Y-113347499D01*
X130270228Y-113714258D01*
X130730105Y-113954938D01*
X131228098Y-114101275D01*
X131745071Y-114147648D01*
X132261159Y-114092273D01*
X132756526Y-113937279D01*
X133173772Y-113714258D01*
X133389894Y-113347499D01*
X131722000Y-111679605D01*
X130054106Y-113347499D01*
X128016000Y-113347499D01*
X128016000Y-111523071D01*
X129074352Y-111523071D01*
X129129727Y-112039159D01*
X129284721Y-112534526D01*
X129507742Y-112951772D01*
X129874501Y-113167894D01*
X131542395Y-111500000D01*
X131901605Y-111500000D01*
X133569499Y-113167894D01*
X133936258Y-112951772D01*
X134176938Y-112491895D01*
X134323275Y-111993902D01*
X134369648Y-111476929D01*
X134314273Y-110960841D01*
X134159279Y-110465474D01*
X133936258Y-110048228D01*
X133569499Y-109832106D01*
X131901605Y-111500000D01*
X131542395Y-111500000D01*
X129874501Y-109832106D01*
X129507742Y-110048228D01*
X129267062Y-110508105D01*
X129120725Y-111006098D01*
X129074352Y-111523071D01*
X128016000Y-111523071D01*
X128016000Y-109652501D01*
X130054106Y-109652501D01*
X131722000Y-111320395D01*
X133389894Y-109652501D01*
X133173772Y-109285742D01*
X132713895Y-109045062D01*
X132215902Y-108898725D01*
X131698929Y-108852352D01*
X131182841Y-108907727D01*
X130687474Y-109062721D01*
X130270228Y-109285742D01*
X130054106Y-109652501D01*
X128016000Y-109652501D01*
X128016000Y-107696000D01*
X143764000Y-107696000D01*
X143764001Y-115774088D01*
X143759085Y-115824000D01*
X143778702Y-116023170D01*
X143807689Y-116118725D01*
X143836799Y-116214687D01*
X143931141Y-116391190D01*
X144058105Y-116545896D01*
X144096868Y-116577708D01*
X149432292Y-121913133D01*
X149464104Y-121951896D01*
X149502865Y-121983706D01*
X149618810Y-122078860D01*
X149795313Y-122173202D01*
X149986829Y-122231298D01*
X150186000Y-122250915D01*
X150235902Y-122246000D01*
X152656604Y-122246000D01*
X152755241Y-122344637D01*
X152990273Y-122501680D01*
X153251426Y-122609853D01*
X153277301Y-122615000D01*
X153251426Y-122620147D01*
X152990273Y-122728320D01*
X152755241Y-122885363D01*
X152555363Y-123085241D01*
X152398320Y-123320273D01*
X152290147Y-123581426D01*
X152235000Y-123858665D01*
X152235000Y-124141335D01*
X152290147Y-124418574D01*
X152398320Y-124679727D01*
X152555363Y-124914759D01*
X152755241Y-125114637D01*
X152990273Y-125271680D01*
X153251426Y-125379853D01*
X153277301Y-125385000D01*
X153251426Y-125390147D01*
X152990273Y-125498320D01*
X152755241Y-125655363D01*
X152555363Y-125855241D01*
X152398320Y-126090273D01*
X152290147Y-126351426D01*
X152235000Y-126628665D01*
X152235000Y-126911335D01*
X152290147Y-127188574D01*
X152398320Y-127449727D01*
X152555363Y-127684759D01*
X152755241Y-127884637D01*
X152990273Y-128041680D01*
X153135725Y-128101928D01*
X152870000Y-128101928D01*
X152745518Y-128114188D01*
X152625820Y-128150498D01*
X152515506Y-128209463D01*
X152418815Y-128288815D01*
X152339463Y-128385506D01*
X152280498Y-128495820D01*
X152244188Y-128615518D01*
X152231928Y-128740000D01*
X152231928Y-130340000D01*
X152244188Y-130464482D01*
X152280498Y-130584180D01*
X152339463Y-130694494D01*
X152418815Y-130791185D01*
X152515506Y-130870537D01*
X152625820Y-130929502D01*
X152745518Y-130965812D01*
X152870000Y-130978072D01*
X154470000Y-130978072D01*
X154594482Y-130965812D01*
X154714180Y-130929502D01*
X154824494Y-130870537D01*
X154921185Y-130791185D01*
X155000537Y-130694494D01*
X155059502Y-130584180D01*
X155095812Y-130464482D01*
X155108072Y-130340000D01*
X155108072Y-128740000D01*
X155095812Y-128615518D01*
X155059502Y-128495820D01*
X155000537Y-128385506D01*
X154921185Y-128288815D01*
X154824494Y-128209463D01*
X154714180Y-128150498D01*
X154594482Y-128114188D01*
X154470000Y-128101928D01*
X154204275Y-128101928D01*
X154349727Y-128041680D01*
X154584759Y-127884637D01*
X154784637Y-127684759D01*
X154941680Y-127449727D01*
X155049853Y-127188574D01*
X155105000Y-126911335D01*
X155105000Y-126628665D01*
X155049853Y-126351426D01*
X154941680Y-126090273D01*
X154784637Y-125855241D01*
X154584759Y-125655363D01*
X154349727Y-125498320D01*
X154088574Y-125390147D01*
X154062699Y-125385000D01*
X154088574Y-125379853D01*
X154349727Y-125271680D01*
X154584759Y-125114637D01*
X154784637Y-124914759D01*
X154941680Y-124679727D01*
X155049853Y-124418574D01*
X155105000Y-124141335D01*
X155105000Y-123858665D01*
X155049853Y-123581426D01*
X154941680Y-123320273D01*
X154784637Y-123085241D01*
X154584759Y-122885363D01*
X154349727Y-122728320D01*
X154088574Y-122620147D01*
X154062699Y-122615000D01*
X154088574Y-122609853D01*
X154349727Y-122501680D01*
X154584759Y-122344637D01*
X154784637Y-122144759D01*
X154941680Y-121909727D01*
X155049853Y-121648574D01*
X155105000Y-121371335D01*
X155105000Y-121088665D01*
X155049853Y-120811426D01*
X154941680Y-120550273D01*
X154784637Y-120315241D01*
X154584759Y-120115363D01*
X154349727Y-119958320D01*
X154088574Y-119850147D01*
X154060118Y-119844487D01*
X154286292Y-119763603D01*
X154411514Y-119696671D01*
X154483097Y-119452702D01*
X153670000Y-118639605D01*
X152856903Y-119452702D01*
X152928486Y-119696671D01*
X153183996Y-119817571D01*
X153286289Y-119843212D01*
X153251426Y-119850147D01*
X152990273Y-119958320D01*
X152755241Y-120115363D01*
X152656604Y-120214000D01*
X150606841Y-120214000D01*
X148923353Y-118530512D01*
X152229783Y-118530512D01*
X152271213Y-118810130D01*
X152366397Y-119076292D01*
X152433329Y-119201514D01*
X152677298Y-119273097D01*
X153490395Y-118460000D01*
X153849605Y-118460000D01*
X154662702Y-119273097D01*
X154906671Y-119201514D01*
X155027571Y-118946004D01*
X155096300Y-118671816D01*
X155110217Y-118389488D01*
X155068787Y-118109870D01*
X154973603Y-117843708D01*
X154906671Y-117718486D01*
X154662702Y-117646903D01*
X153849605Y-118460000D01*
X153490395Y-118460000D01*
X152677298Y-117646903D01*
X152433329Y-117718486D01*
X152312429Y-117973996D01*
X152243700Y-118248184D01*
X152229783Y-118530512D01*
X148923353Y-118530512D01*
X147860139Y-117467298D01*
X152856903Y-117467298D01*
X153670000Y-118280395D01*
X154483097Y-117467298D01*
X154411514Y-117223329D01*
X154156004Y-117102429D01*
X153881816Y-117033700D01*
X153599488Y-117019783D01*
X153319870Y-117061213D01*
X153053708Y-117156397D01*
X152928486Y-117223329D01*
X152856903Y-117467298D01*
X147860139Y-117467298D01*
X145796000Y-115403160D01*
X145796000Y-113347499D01*
X153422106Y-113347499D01*
X153638228Y-113714258D01*
X154098105Y-113954938D01*
X154596098Y-114101275D01*
X155113071Y-114147648D01*
X155629159Y-114092273D01*
X156124526Y-113937279D01*
X156541772Y-113714258D01*
X156757894Y-113347499D01*
X155090000Y-111679605D01*
X153422106Y-113347499D01*
X145796000Y-113347499D01*
X145796000Y-111523071D01*
X152442352Y-111523071D01*
X152497727Y-112039159D01*
X152652721Y-112534526D01*
X152875742Y-112951772D01*
X153242501Y-113167894D01*
X154910395Y-111500000D01*
X155269605Y-111500000D01*
X156937499Y-113167894D01*
X157304258Y-112951772D01*
X157544938Y-112491895D01*
X157691275Y-111993902D01*
X157737648Y-111476929D01*
X157682273Y-110960841D01*
X157527279Y-110465474D01*
X157304258Y-110048228D01*
X156937499Y-109832106D01*
X155269605Y-111500000D01*
X154910395Y-111500000D01*
X153242501Y-109832106D01*
X152875742Y-110048228D01*
X152635062Y-110508105D01*
X152488725Y-111006098D01*
X152442352Y-111523071D01*
X145796000Y-111523071D01*
X145796000Y-109652501D01*
X153422106Y-109652501D01*
X155090000Y-111320395D01*
X156757894Y-109652501D01*
X156541772Y-109285742D01*
X156081895Y-109045062D01*
X155583902Y-108898725D01*
X155066929Y-108852352D01*
X154550841Y-108907727D01*
X154055474Y-109062721D01*
X153638228Y-109285742D01*
X153422106Y-109652501D01*
X145796000Y-109652501D01*
X145796000Y-106729902D01*
X145800915Y-106680000D01*
X145791929Y-106588770D01*
X146566292Y-107363133D01*
X146598104Y-107401896D01*
X146752810Y-107528860D01*
X146929313Y-107623202D01*
X147062732Y-107663674D01*
X147120828Y-107681298D01*
X147140177Y-107683204D01*
X147270098Y-107696000D01*
X147270105Y-107696000D01*
X147319999Y-107700914D01*
X147369893Y-107696000D01*
X163322001Y-107696000D01*
X163322000Y-117435159D01*
X160352868Y-120404292D01*
X160314105Y-120436104D01*
X160187141Y-120590810D01*
X160148657Y-120662810D01*
X160092799Y-120767313D01*
X160034702Y-120958830D01*
X160015085Y-121158000D01*
X160020001Y-121207912D01*
X160020000Y-125055160D01*
X159666712Y-124701872D01*
X159634896Y-124663104D01*
X159480190Y-124536140D01*
X159303687Y-124441798D01*
X159112171Y-124383702D01*
X158962902Y-124369000D01*
X158913000Y-124364085D01*
X158863098Y-124369000D01*
X157523396Y-124369000D01*
X157424759Y-124270363D01*
X157189727Y-124113320D01*
X156928574Y-124005147D01*
X156902699Y-124000000D01*
X156928574Y-123994853D01*
X157189727Y-123886680D01*
X157424759Y-123729637D01*
X157624637Y-123529759D01*
X157781680Y-123294727D01*
X157889853Y-123033574D01*
X157945000Y-122756335D01*
X157945000Y-122473665D01*
X157889853Y-122196426D01*
X157781680Y-121935273D01*
X157624637Y-121700241D01*
X157424759Y-121500363D01*
X157189727Y-121343320D01*
X156928574Y-121235147D01*
X156902699Y-121230000D01*
X156928574Y-121224853D01*
X157189727Y-121116680D01*
X157424759Y-120959637D01*
X157624637Y-120759759D01*
X157781680Y-120524727D01*
X157889853Y-120263574D01*
X157945000Y-119986335D01*
X157945000Y-119703665D01*
X157889853Y-119426426D01*
X157781680Y-119165273D01*
X157624637Y-118930241D01*
X157424759Y-118730363D01*
X157189727Y-118573320D01*
X156928574Y-118465147D01*
X156651335Y-118410000D01*
X156368665Y-118410000D01*
X156091426Y-118465147D01*
X155830273Y-118573320D01*
X155595241Y-118730363D01*
X155395363Y-118930241D01*
X155238320Y-119165273D01*
X155130147Y-119426426D01*
X155075000Y-119703665D01*
X155075000Y-119986335D01*
X155130147Y-120263574D01*
X155238320Y-120524727D01*
X155395363Y-120759759D01*
X155595241Y-120959637D01*
X155830273Y-121116680D01*
X156091426Y-121224853D01*
X156117301Y-121230000D01*
X156091426Y-121235147D01*
X155830273Y-121343320D01*
X155595241Y-121500363D01*
X155395363Y-121700241D01*
X155238320Y-121935273D01*
X155130147Y-122196426D01*
X155075000Y-122473665D01*
X155075000Y-122756335D01*
X155130147Y-123033574D01*
X155238320Y-123294727D01*
X155395363Y-123529759D01*
X155595241Y-123729637D01*
X155830273Y-123886680D01*
X156091426Y-123994853D01*
X156117301Y-124000000D01*
X156091426Y-124005147D01*
X155830273Y-124113320D01*
X155595241Y-124270363D01*
X155395363Y-124470241D01*
X155238320Y-124705273D01*
X155130147Y-124966426D01*
X155075000Y-125243665D01*
X155075000Y-125526335D01*
X155130147Y-125803574D01*
X155238320Y-126064727D01*
X155395363Y-126299759D01*
X155595241Y-126499637D01*
X155830273Y-126656680D01*
X156091426Y-126764853D01*
X156117301Y-126770000D01*
X156091426Y-126775147D01*
X155830273Y-126883320D01*
X155595241Y-127040363D01*
X155395363Y-127240241D01*
X155238320Y-127475273D01*
X155130147Y-127736426D01*
X155075000Y-128013665D01*
X155075000Y-128296335D01*
X155130147Y-128573574D01*
X155238320Y-128834727D01*
X155395363Y-129069759D01*
X155595241Y-129269637D01*
X155830273Y-129426680D01*
X156091426Y-129534853D01*
X156368665Y-129590000D01*
X156651335Y-129590000D01*
X156928574Y-129534853D01*
X157189727Y-129426680D01*
X157424759Y-129269637D01*
X157624637Y-129069759D01*
X157781680Y-128834727D01*
X157889853Y-128573574D01*
X157945000Y-128296335D01*
X157945000Y-128013665D01*
X157889853Y-127736426D01*
X157781680Y-127475273D01*
X157624637Y-127240241D01*
X157424759Y-127040363D01*
X157189727Y-126883320D01*
X156928574Y-126775147D01*
X156902699Y-126770000D01*
X156928574Y-126764853D01*
X157189727Y-126656680D01*
X157424759Y-126499637D01*
X157523396Y-126401000D01*
X158492160Y-126401000D01*
X160020001Y-127928842D01*
X160020000Y-141057159D01*
X159853160Y-141224000D01*
X147740841Y-141224000D01*
X145796000Y-139279160D01*
X145796000Y-138347499D01*
X153422106Y-138347499D01*
X153638228Y-138714258D01*
X154098105Y-138954938D01*
X154596098Y-139101275D01*
X155113071Y-139147648D01*
X155629159Y-139092273D01*
X156124526Y-138937279D01*
X156541772Y-138714258D01*
X156757894Y-138347499D01*
X155090000Y-136679605D01*
X153422106Y-138347499D01*
X145796000Y-138347499D01*
X145796000Y-136523071D01*
X152442352Y-136523071D01*
X152497727Y-137039159D01*
X152652721Y-137534526D01*
X152875742Y-137951772D01*
X153242501Y-138167894D01*
X154910395Y-136500000D01*
X155269605Y-136500000D01*
X156937499Y-138167894D01*
X157304258Y-137951772D01*
X157544938Y-137491895D01*
X157691275Y-136993902D01*
X157737648Y-136476929D01*
X157682273Y-135960841D01*
X157527279Y-135465474D01*
X157304258Y-135048228D01*
X156937499Y-134832106D01*
X155269605Y-136500000D01*
X154910395Y-136500000D01*
X153242501Y-134832106D01*
X152875742Y-135048228D01*
X152635062Y-135508105D01*
X152488725Y-136006098D01*
X152442352Y-136523071D01*
X145796000Y-136523071D01*
X145796000Y-134652501D01*
X153422106Y-134652501D01*
X155090000Y-136320395D01*
X156757894Y-134652501D01*
X156541772Y-134285742D01*
X156081895Y-134045062D01*
X155583902Y-133898725D01*
X155066929Y-133852352D01*
X154550841Y-133907727D01*
X154055474Y-134062721D01*
X153638228Y-134285742D01*
X153422106Y-134652501D01*
X145796000Y-134652501D01*
X145796000Y-127049902D01*
X145800915Y-127000000D01*
X145781298Y-126800829D01*
X145723202Y-126609312D01*
X145690340Y-126547832D01*
X145628860Y-126432810D01*
X145501896Y-126278104D01*
X145463133Y-126246292D01*
X143918712Y-124701872D01*
X143886896Y-124663104D01*
X143732190Y-124536140D01*
X143555687Y-124441798D01*
X143364171Y-124383702D01*
X143214902Y-124369000D01*
X143165000Y-124364085D01*
X143115098Y-124369000D01*
X134155396Y-124369000D01*
X134056759Y-124270363D01*
X133821727Y-124113320D01*
X133560574Y-124005147D01*
X133534699Y-124000000D01*
X133560574Y-123994853D01*
X133821727Y-123886680D01*
X134056759Y-123729637D01*
X134256637Y-123529759D01*
X134413680Y-123294727D01*
X134521853Y-123033574D01*
X134577000Y-122756335D01*
X134577000Y-122473665D01*
X134521853Y-122196426D01*
X134413680Y-121935273D01*
X134256637Y-121700241D01*
X134056759Y-121500363D01*
X133821727Y-121343320D01*
X133560574Y-121235147D01*
X133534699Y-121230000D01*
X133560574Y-121224853D01*
X133821727Y-121116680D01*
X134056759Y-120959637D01*
X134256637Y-120759759D01*
X134413680Y-120524727D01*
X134521853Y-120263574D01*
X134577000Y-119986335D01*
X134577000Y-119703665D01*
X134521853Y-119426426D01*
X134413680Y-119165273D01*
X134256637Y-118930241D01*
X134056759Y-118730363D01*
X133821727Y-118573320D01*
X133560574Y-118465147D01*
X133283335Y-118410000D01*
X133000665Y-118410000D01*
X132723426Y-118465147D01*
X132462273Y-118573320D01*
X132227241Y-118730363D01*
X132027363Y-118930241D01*
X131870320Y-119165273D01*
X131762147Y-119426426D01*
X131707000Y-119703665D01*
X131707000Y-119986335D01*
X131762147Y-120263574D01*
X131870320Y-120524727D01*
X132027363Y-120759759D01*
X132227241Y-120959637D01*
X132462273Y-121116680D01*
X132723426Y-121224853D01*
X132749301Y-121230000D01*
X132723426Y-121235147D01*
X132462273Y-121343320D01*
X132227241Y-121500363D01*
X132027363Y-121700241D01*
X131870320Y-121935273D01*
X131762147Y-122196426D01*
X131707000Y-122473665D01*
X131707000Y-122756335D01*
X131762147Y-123033574D01*
X131870320Y-123294727D01*
X132027363Y-123529759D01*
X132227241Y-123729637D01*
X132462273Y-123886680D01*
X132723426Y-123994853D01*
X132749301Y-124000000D01*
X132723426Y-124005147D01*
X132462273Y-124113320D01*
X132227241Y-124270363D01*
X132027363Y-124470241D01*
X131870320Y-124705273D01*
X131762147Y-124966426D01*
X131707000Y-125243665D01*
X131707000Y-125526335D01*
X131762147Y-125803574D01*
X131870320Y-126064727D01*
X132027363Y-126299759D01*
X132227241Y-126499637D01*
X132462273Y-126656680D01*
X132723426Y-126764853D01*
X132749301Y-126770000D01*
X132723426Y-126775147D01*
X132462273Y-126883320D01*
X132227241Y-127040363D01*
X132027363Y-127240241D01*
X131870320Y-127475273D01*
X131762147Y-127736426D01*
X131707000Y-128013665D01*
X131707000Y-128296335D01*
X131762147Y-128573574D01*
X131870320Y-128834727D01*
X132027363Y-129069759D01*
X132227241Y-129269637D01*
X132462273Y-129426680D01*
X132723426Y-129534853D01*
X133000665Y-129590000D01*
X133283335Y-129590000D01*
X133560574Y-129534853D01*
X133821727Y-129426680D01*
X134056759Y-129269637D01*
X134256637Y-129069759D01*
X134413680Y-128834727D01*
X134521853Y-128573574D01*
X134577000Y-128296335D01*
X134577000Y-128013665D01*
X134521853Y-127736426D01*
X134413680Y-127475273D01*
X134256637Y-127240241D01*
X134056759Y-127040363D01*
X133821727Y-126883320D01*
X133560574Y-126775147D01*
X133534699Y-126770000D01*
X133560574Y-126764853D01*
X133821727Y-126656680D01*
X134056759Y-126499637D01*
X134155396Y-126401000D01*
X142744160Y-126401000D01*
X143764000Y-127420841D01*
X143764001Y-139650088D01*
X143759085Y-139700000D01*
X143778702Y-139899170D01*
X143836799Y-140090687D01*
X143931141Y-140267190D01*
X144058105Y-140421896D01*
X144096868Y-140453708D01*
X144867160Y-141224000D01*
X129960841Y-141224000D01*
X127084340Y-138347499D01*
X130054106Y-138347499D01*
X130270228Y-138714258D01*
X130730105Y-138954938D01*
X131228098Y-139101275D01*
X131745071Y-139147648D01*
X132261159Y-139092273D01*
X132756526Y-138937279D01*
X133173772Y-138714258D01*
X133389894Y-138347499D01*
X131722000Y-136679605D01*
X130054106Y-138347499D01*
X127084340Y-138347499D01*
X125476000Y-136739160D01*
X125476000Y-136523071D01*
X129074352Y-136523071D01*
X129129727Y-137039159D01*
X129284721Y-137534526D01*
X129507742Y-137951772D01*
X129874501Y-138167894D01*
X131542395Y-136500000D01*
X131901605Y-136500000D01*
X133569499Y-138167894D01*
X133936258Y-137951772D01*
X134176938Y-137491895D01*
X134323275Y-136993902D01*
X134369648Y-136476929D01*
X134314273Y-135960841D01*
X134159279Y-135465474D01*
X133936258Y-135048228D01*
X133569499Y-134832106D01*
X131901605Y-136500000D01*
X131542395Y-136500000D01*
X129874501Y-134832106D01*
X129507742Y-135048228D01*
X129267062Y-135508105D01*
X129120725Y-136006098D01*
X129074352Y-136523071D01*
X125476000Y-136523071D01*
X125476000Y-134652501D01*
X130054106Y-134652501D01*
X131722000Y-136320395D01*
X133389894Y-134652501D01*
X133173772Y-134285742D01*
X132713895Y-134045062D01*
X132215902Y-133898725D01*
X131698929Y-133852352D01*
X131182841Y-133907727D01*
X130687474Y-134062721D01*
X130270228Y-134285742D01*
X130054106Y-134652501D01*
X125476000Y-134652501D01*
X125476000Y-129089784D01*
X125480915Y-129039882D01*
X125461298Y-128840711D01*
X125403202Y-128649195D01*
X125362782Y-128573574D01*
X125308860Y-128472692D01*
X125181896Y-128317986D01*
X125143133Y-128286174D01*
X118201201Y-121344243D01*
X118499159Y-121312273D01*
X118994526Y-121157279D01*
X119411772Y-120934258D01*
X119627894Y-120567499D01*
X117960000Y-118899605D01*
X117945858Y-118913748D01*
X117766253Y-118734143D01*
X117780395Y-118720000D01*
X118139605Y-118720000D01*
X119807499Y-120387894D01*
X120174258Y-120171772D01*
X120414938Y-119711895D01*
X120561275Y-119213902D01*
X120607648Y-118696929D01*
X120552273Y-118180841D01*
X120397279Y-117685474D01*
X120174258Y-117268228D01*
X119807499Y-117052106D01*
X118139605Y-118720000D01*
X117780395Y-118720000D01*
X116112501Y-117052106D01*
X115745742Y-117268228D01*
X115505062Y-117728105D01*
X115358725Y-118226098D01*
X115336033Y-118479075D01*
X115316000Y-118459042D01*
X115316000Y-116872501D01*
X116292106Y-116872501D01*
X117960000Y-118540395D01*
X119627894Y-116872501D01*
X119411772Y-116505742D01*
X118951895Y-116265062D01*
X118453902Y-116118725D01*
X117936929Y-116072352D01*
X117420841Y-116127727D01*
X116925474Y-116282721D01*
X116508228Y-116505742D01*
X116292106Y-116872501D01*
X115316000Y-116872501D01*
X115316000Y-111126085D01*
X115425363Y-111289759D01*
X115625241Y-111489637D01*
X115860273Y-111646680D01*
X116121426Y-111754853D01*
X116398665Y-111810000D01*
X116681335Y-111810000D01*
X116958574Y-111754853D01*
X117219727Y-111646680D01*
X117454759Y-111489637D01*
X117654637Y-111289759D01*
X117811680Y-111054727D01*
X117919853Y-110793574D01*
X117975000Y-110516335D01*
X117975000Y-110233665D01*
X117919853Y-109956426D01*
X117811680Y-109695273D01*
X117654637Y-109460241D01*
X117454759Y-109260363D01*
X117219727Y-109103320D01*
X116958574Y-108995147D01*
X116932699Y-108990000D01*
X116958574Y-108984853D01*
X117219727Y-108876680D01*
X117454759Y-108719637D01*
X117654637Y-108519759D01*
X117811680Y-108284727D01*
X117919853Y-108023574D01*
X117975000Y-107746335D01*
X117975000Y-107463665D01*
X117919853Y-107186426D01*
X117811680Y-106925273D01*
X117654637Y-106690241D01*
X117454759Y-106490363D01*
X117219727Y-106333320D01*
X116958574Y-106225147D01*
X116932699Y-106220000D01*
X116958574Y-106214853D01*
X117219727Y-106106680D01*
X117454759Y-105949637D01*
X117654637Y-105749759D01*
X117811680Y-105514727D01*
X117919853Y-105253574D01*
X117975000Y-104976335D01*
X117975000Y-104693665D01*
X117919853Y-104416426D01*
X117811680Y-104155273D01*
X117654637Y-103920241D01*
X117454759Y-103720363D01*
X117219727Y-103563320D01*
X116958574Y-103455147D01*
X116932699Y-103450000D01*
X116958574Y-103444853D01*
X117219727Y-103336680D01*
X117454759Y-103179637D01*
X117654637Y-102979759D01*
X117811680Y-102744727D01*
X117919853Y-102483574D01*
X117975000Y-102206335D01*
X117975000Y-101923665D01*
X117919853Y-101646426D01*
X117811680Y-101385273D01*
X117654637Y-101150241D01*
X117454759Y-100950363D01*
X117219727Y-100793320D01*
X117116380Y-100750512D01*
X117939783Y-100750512D01*
X117981213Y-101030130D01*
X118076397Y-101296292D01*
X118143329Y-101421514D01*
X118387298Y-101493097D01*
X119200395Y-100680000D01*
X119559605Y-100680000D01*
X120372702Y-101493097D01*
X120616671Y-101421514D01*
X120737571Y-101166004D01*
X120806300Y-100891816D01*
X120820217Y-100609488D01*
X120778787Y-100329870D01*
X120683603Y-100063708D01*
X120616671Y-99938486D01*
X120372702Y-99866903D01*
X119559605Y-100680000D01*
X119200395Y-100680000D01*
X118387298Y-99866903D01*
X118143329Y-99938486D01*
X118022429Y-100193996D01*
X117953700Y-100468184D01*
X117939783Y-100750512D01*
X117116380Y-100750512D01*
X116958574Y-100685147D01*
X116681335Y-100630000D01*
X116398665Y-100630000D01*
X116121426Y-100685147D01*
X115860273Y-100793320D01*
X115625241Y-100950363D01*
X115425363Y-101150241D01*
X115268320Y-101385273D01*
X115160147Y-101646426D01*
X115105000Y-101923665D01*
X115105000Y-102206335D01*
X115160147Y-102483574D01*
X115268320Y-102744727D01*
X115425363Y-102979759D01*
X115625241Y-103179637D01*
X115860273Y-103336680D01*
X116121426Y-103444853D01*
X116147301Y-103450000D01*
X116121426Y-103455147D01*
X115860273Y-103563320D01*
X115625241Y-103720363D01*
X115425363Y-103920241D01*
X115268320Y-104155273D01*
X115160147Y-104416426D01*
X115105000Y-104693665D01*
X115105000Y-104976335D01*
X115160147Y-105253574D01*
X115268320Y-105514727D01*
X115425363Y-105749759D01*
X115625241Y-105949637D01*
X115860273Y-106106680D01*
X116121426Y-106214853D01*
X116147301Y-106220000D01*
X116121426Y-106225147D01*
X115860273Y-106333320D01*
X115625241Y-106490363D01*
X115425363Y-106690241D01*
X115268320Y-106925273D01*
X115160147Y-107186426D01*
X115105000Y-107463665D01*
X115105000Y-107603159D01*
X113616872Y-109091288D01*
X113578104Y-109123104D01*
X113451140Y-109277810D01*
X113356798Y-109454314D01*
X113298702Y-109645829D01*
X113298702Y-109645830D01*
X113279085Y-109845000D01*
X107340000Y-109845000D01*
X107340000Y-99687298D01*
X118566903Y-99687298D01*
X119380000Y-100500395D01*
X120193097Y-99687298D01*
X120121514Y-99443329D01*
X119866004Y-99322429D01*
X119591816Y-99253700D01*
X119309488Y-99239783D01*
X119029870Y-99281213D01*
X118763708Y-99376397D01*
X118638486Y-99443329D01*
X118566903Y-99687298D01*
X107340000Y-99687298D01*
X107340000Y-95567499D01*
X116292106Y-95567499D01*
X116508228Y-95934258D01*
X116968105Y-96174938D01*
X117466098Y-96321275D01*
X117983071Y-96367648D01*
X118499159Y-96312273D01*
X118994526Y-96157279D01*
X119411772Y-95934258D01*
X119627894Y-95567499D01*
X117960000Y-93899605D01*
X116292106Y-95567499D01*
X107340000Y-95567499D01*
X107340000Y-93743071D01*
X115312352Y-93743071D01*
X115367727Y-94259159D01*
X115522721Y-94754526D01*
X115745742Y-95171772D01*
X116112501Y-95387894D01*
X117780395Y-93720000D01*
X118139605Y-93720000D01*
X119807499Y-95387894D01*
X120174258Y-95171772D01*
X120414938Y-94711895D01*
X120561275Y-94213902D01*
X120607648Y-93696929D01*
X120552273Y-93180841D01*
X120397279Y-92685474D01*
X120174258Y-92268228D01*
X119807499Y-92052106D01*
X118139605Y-93720000D01*
X117780395Y-93720000D01*
X116112501Y-92052106D01*
X115745742Y-92268228D01*
X115505062Y-92728105D01*
X115358725Y-93226098D01*
X115312352Y-93743071D01*
X107340000Y-93743071D01*
X107340000Y-91872501D01*
X116292106Y-91872501D01*
X117960000Y-93540395D01*
X119627894Y-91872501D01*
X119411772Y-91505742D01*
X118951895Y-91265062D01*
X118453902Y-91118725D01*
X117936929Y-91072352D01*
X117420841Y-91127727D01*
X116925474Y-91282721D01*
X116508228Y-91505742D01*
X116292106Y-91872501D01*
X107340000Y-91872501D01*
X107340000Y-81553380D01*
X109539911Y-79353469D01*
X109362335Y-79782176D01*
X109165000Y-80774247D01*
X109165000Y-81785753D01*
X109362335Y-82777824D01*
X109749422Y-83712335D01*
X110311385Y-84553372D01*
X111026628Y-85268615D01*
X111867665Y-85830578D01*
X112802176Y-86217665D01*
X113794247Y-86415000D01*
X114805753Y-86415000D01*
X115797824Y-86217665D01*
X116732335Y-85830578D01*
X117573372Y-85268615D01*
X118288615Y-84553372D01*
X118850578Y-83712335D01*
X119237665Y-82777824D01*
X119435000Y-81785753D01*
X119435000Y-80774247D01*
X119237665Y-79782176D01*
X118850578Y-78847665D01*
X118288615Y-78006628D01*
X117573372Y-77291385D01*
X116732335Y-76729422D01*
X115797824Y-76342335D01*
X114805753Y-76145000D01*
X113794247Y-76145000D01*
X112802176Y-76342335D01*
X112373469Y-76519911D01*
X122193381Y-66700000D01*
X172060000Y-66700000D01*
X172060000Y-78652241D01*
M02*
