G04 #@! TF.GenerationSoftware,KiCad,Pcbnew,5.1.4-e60b266~84~ubuntu18.04.1*
G04 #@! TF.CreationDate,2019-11-06T15:19:43-05:00*
G04 #@! TF.ProjectId,datapod,64617461-706f-4642-9e6b-696361645f70,1*
G04 #@! TF.SameCoordinates,Original*
G04 #@! TF.FileFunction,Other,Fab,Top*
%FSLAX46Y46*%
G04 Gerber Fmt 4.6, Leading zero omitted, Abs format (unit mm)*
G04 Created by KiCad (PCBNEW 5.1.4-e60b266~84~ubuntu18.04.1) date 2019-11-06 15:19:43*
%MOMM*%
%LPD*%
G04 APERTURE LIST*
%ADD10C,0.100000*%
%ADD11C,0.150000*%
%ADD12C,0.040000*%
%ADD13C,0.105000*%
%ADD14C,0.080000*%
%ADD15C,0.075000*%
%ADD16C,0.120000*%
%ADD17C,0.110000*%
G04 APERTURE END LIST*
D10*
X144151792Y-119979924D02*
X143727528Y-119555660D01*
X144363924Y-119767792D02*
X144151792Y-119979924D01*
X143939660Y-119343528D02*
X144363924Y-119767792D01*
X143727528Y-119555660D02*
X143939660Y-119343528D01*
X108990000Y-54910000D02*
X108990000Y-50310000D01*
X108990000Y-50310000D02*
X111990000Y-50310000D01*
X111990000Y-54910000D02*
X108990000Y-54910000D01*
X111990000Y-54910000D02*
X111990000Y-50310000D01*
X110488980Y-51960560D02*
X110488980Y-51058860D01*
X110488980Y-53111180D02*
X110488980Y-54109400D01*
X111289080Y-51960560D02*
X109688880Y-51960560D01*
X109739680Y-53111180D02*
X111289080Y-53111180D01*
X110488980Y-51960560D02*
X109739680Y-53111180D01*
X110488980Y-51960560D02*
X111289080Y-53111180D01*
X152105000Y-110400000D02*
X149180000Y-110400000D01*
X149180000Y-110400000D02*
X149180000Y-105500000D01*
X149180000Y-105500000D02*
X153080000Y-105500000D01*
X153080000Y-105500000D02*
X153080000Y-109425000D01*
X153080000Y-109425000D02*
X152105000Y-110400000D01*
X149043802Y-124236934D02*
X149255934Y-124024802D01*
X149255934Y-124024802D02*
X149680198Y-124449066D01*
X149680198Y-124449066D02*
X149468066Y-124661198D01*
X149468066Y-124661198D02*
X149043802Y-124236934D01*
X143587223Y-122896456D02*
X145708544Y-125017777D01*
X145708544Y-125017777D02*
X145708544Y-125159198D01*
X145708544Y-125159198D02*
X144082198Y-126785544D01*
X144082198Y-126785544D02*
X143940777Y-126785544D01*
X143940777Y-126785544D02*
X141819456Y-124664223D01*
X141819456Y-124664223D02*
X141819456Y-124522802D01*
X141819456Y-124522802D02*
X143445802Y-122896456D01*
X143445802Y-122896456D02*
X143587223Y-122896456D01*
X142455852Y-123886406D02*
X142455852Y-125300619D01*
D11*
X160700000Y-127810000D02*
X159700000Y-128810000D01*
X160700000Y-120110000D02*
X160700000Y-127810000D01*
X156800000Y-120110000D02*
X160700000Y-120110000D01*
X156800000Y-128810000D02*
X156800000Y-120110000D01*
X159700000Y-128810000D02*
X156800000Y-128810000D01*
D10*
X153810316Y-146924401D02*
X150027295Y-150707423D01*
X150027295Y-150707423D02*
X124882577Y-125562705D01*
X124882577Y-125562705D02*
X129372705Y-121072577D01*
X129372705Y-121072577D02*
X153810316Y-145510188D01*
X153810316Y-145510188D02*
X153810316Y-146924401D01*
X155906887Y-144912683D02*
X130677317Y-119683113D01*
X130677317Y-119683113D02*
X123493113Y-126867317D01*
X123493113Y-126867317D02*
X148722683Y-152096887D01*
X148722683Y-152096887D02*
X155906887Y-144912683D01*
X86960000Y-137185000D02*
X86960000Y-139185000D01*
X85760000Y-137185000D02*
X86960000Y-137185000D01*
X85760000Y-139185000D02*
X85760000Y-137185000D01*
X86960000Y-139185000D02*
X85760000Y-139185000D01*
X97580000Y-125660000D02*
X104080000Y-125660000D01*
X104080000Y-125660000D02*
X104080000Y-135960000D01*
X104080000Y-135960000D02*
X96580000Y-135960000D01*
X96580000Y-135960000D02*
X96580000Y-126660000D01*
X96580000Y-126660000D02*
X97580000Y-125660000D01*
X111930000Y-164005000D02*
X112430000Y-164505000D01*
X114130000Y-163155000D02*
X114130000Y-164505000D01*
X111930000Y-163155000D02*
X114130000Y-163155000D01*
X112430000Y-164505000D02*
X114130000Y-164505000D01*
X111930000Y-163155000D02*
X111930000Y-164005000D01*
X95250000Y-170240000D02*
X105410000Y-170240000D01*
X95250000Y-149800000D02*
X95250000Y-170240000D01*
X105410000Y-149800000D02*
X95250000Y-149800000D01*
X105410000Y-170240000D02*
X105410000Y-149800000D01*
X103505000Y-169180000D02*
X102505000Y-170180000D01*
X103505000Y-149860000D02*
X103505000Y-169180000D01*
X97155000Y-149860000D02*
X103505000Y-149860000D01*
X97155000Y-170180000D02*
X97155000Y-149860000D01*
X102505000Y-170180000D02*
X97155000Y-170180000D01*
X42426369Y-137031415D02*
X59269653Y-153874699D01*
X59269653Y-153874699D02*
X65775035Y-147369316D01*
X65775035Y-147369316D02*
X48931751Y-130526033D01*
X48931751Y-130526033D02*
X42426369Y-137031415D01*
X43458745Y-138063791D02*
X49964127Y-131558409D01*
X58237277Y-152842323D02*
X64742659Y-146336940D01*
X53252174Y-134846455D02*
X54383545Y-133715084D01*
X54383545Y-133715084D02*
X55514916Y-134846455D01*
X55514916Y-134846455D02*
X54383545Y-135977826D01*
X60323242Y-141917523D02*
X61454613Y-140786152D01*
X61454613Y-140786152D02*
X62585983Y-141917523D01*
X62585983Y-141917523D02*
X61454613Y-143048894D01*
X47312477Y-141917523D02*
X54383545Y-148988591D01*
X54383545Y-148988591D02*
X53110753Y-150261383D01*
X53110753Y-150261383D02*
X46039685Y-143190315D01*
X46039685Y-143190315D02*
X47312477Y-141917523D01*
X48302426Y-145453057D02*
X50848011Y-147998641D01*
X50848011Y-147998641D02*
X49787351Y-149059302D01*
X49787351Y-149059302D02*
X47241766Y-146513717D01*
X47241766Y-146513717D02*
X48302426Y-145453057D01*
X46463949Y-141068995D02*
X48512477Y-140717523D01*
X48512477Y-140717523D02*
X48161005Y-142766051D01*
X52969331Y-134563613D02*
X52617859Y-136612141D01*
X52617859Y-136612141D02*
X54666387Y-136260669D01*
X26920000Y-111405000D02*
G75*
G03X27920000Y-112405000I1000000J0D01*
G01*
X27920000Y-81555000D02*
G75*
G03X26920000Y-82555000I0J-1000000D01*
G01*
X39420000Y-111405000D02*
G75*
G02X38420000Y-112405000I-1000000J0D01*
G01*
X39420000Y-82555000D02*
G75*
G03X38420000Y-81555000I-1000000J0D01*
G01*
X31097837Y-104798886D02*
G75*
G02X29220000Y-103223194I-277837J1575692D01*
G01*
X31097837Y-89161114D02*
G75*
G03X29220000Y-90736806I-277837J-1575692D01*
G01*
X35797837Y-103970149D02*
G75*
G03X37120000Y-102394457I-277837J1575692D01*
G01*
X35797837Y-89989851D02*
G75*
G02X37120000Y-91565543I-277837J-1575692D01*
G01*
X26920000Y-111405000D02*
X26920000Y-82555000D01*
X27920000Y-81555000D02*
X38420000Y-81555000D01*
X39420000Y-82555000D02*
X39420000Y-111405000D01*
X38420000Y-112405000D02*
X27920000Y-112405000D01*
X29220000Y-103223194D02*
X29220000Y-90736806D01*
X37120000Y-102394457D02*
X37120000Y-91565543D01*
X31097837Y-89161113D02*
X35797837Y-89989850D01*
X31097837Y-104798887D02*
X35797837Y-103970150D01*
X45990866Y-48747811D02*
G75*
G02X51292943Y-48934456I2269134J-10942189D01*
G01*
X50529134Y-70632189D02*
G75*
G02X45227057Y-70445544I-2269134J10942189D01*
G01*
X37264546Y-61685112D02*
G75*
G03X39423794Y-66531193I10995454J1995112D01*
G01*
X38744289Y-70399867D02*
X37417829Y-69505158D01*
X37417829Y-69505158D02*
X39423794Y-66531193D01*
X45227057Y-70445544D02*
X43221092Y-73419509D01*
X43221092Y-73419509D02*
X41894632Y-72524800D01*
X54625368Y-46855200D02*
X53298908Y-45960491D01*
X53298908Y-45960491D02*
X51292943Y-48934456D01*
X39446847Y-58449703D02*
X37264541Y-61685105D01*
X42500954Y-57856045D02*
X39446847Y-58449703D01*
X44402210Y-55037317D02*
X43808552Y-51983210D01*
X44402210Y-55037317D02*
X42500954Y-57856045D01*
X59102171Y-49874842D02*
X57096206Y-52848807D01*
X59102171Y-49874842D02*
X57775711Y-48980133D01*
X43808552Y-51983210D02*
X45990858Y-48747808D01*
X59255459Y-57694895D02*
X50529142Y-70632192D01*
X59255454Y-57694888D02*
G75*
G03X57096206Y-52848807I-10995454J-1995112D01*
G01*
X64016772Y-31308544D02*
X69799593Y-44932016D01*
X69799593Y-44932016D02*
X86138554Y-37996538D01*
X86138554Y-37996538D02*
X80355733Y-24373067D01*
X80355733Y-24373067D02*
X64016772Y-31308544D01*
X71801691Y-44082176D02*
X72169618Y-42389654D01*
X72169618Y-42389654D02*
X73642701Y-43300714D01*
X105410000Y-22800000D02*
X95250000Y-22800000D01*
X105410000Y-43240000D02*
X105410000Y-22800000D01*
X95250000Y-43240000D02*
X105410000Y-43240000D01*
X95250000Y-22800000D02*
X95250000Y-43240000D01*
X97155000Y-23860000D02*
X98155000Y-22860000D01*
X97155000Y-43180000D02*
X97155000Y-23860000D01*
X103505000Y-43180000D02*
X97155000Y-43180000D01*
X103505000Y-22860000D02*
X103505000Y-43180000D01*
X98155000Y-22860000D02*
X103505000Y-22860000D01*
X116600000Y-26900000D02*
X112000000Y-26900000D01*
X112000000Y-26900000D02*
X112000000Y-23900000D01*
X116600000Y-23900000D02*
X116600000Y-26900000D01*
X116600000Y-23900000D02*
X112000000Y-23900000D01*
X113650560Y-25401020D02*
X112748860Y-25401020D01*
X114801180Y-25401020D02*
X115799400Y-25401020D01*
X113650560Y-24600920D02*
X113650560Y-26201120D01*
X114801180Y-26150320D02*
X114801180Y-24600920D01*
X113650560Y-25401020D02*
X114801180Y-26150320D01*
X113650560Y-25401020D02*
X114801180Y-24600920D01*
X124623635Y-26740707D02*
X119828671Y-38608660D01*
X119828671Y-38608660D02*
X124835464Y-40631536D01*
X124835464Y-40631536D02*
X129630428Y-28763582D01*
X129630428Y-28763582D02*
X124623635Y-26740707D01*
X122151232Y-32860120D02*
X117515312Y-30987087D01*
X117515312Y-30987087D02*
X115192752Y-36735627D01*
X115192752Y-36735627D02*
X119828671Y-38608660D01*
X127158025Y-34882996D02*
X131793944Y-36756029D01*
X131793944Y-36756029D02*
X129471383Y-42504569D01*
X129471383Y-42504569D02*
X124835464Y-40631536D01*
X121404883Y-39245491D02*
X122861841Y-38308861D01*
X122861841Y-38308861D02*
X123259251Y-39994704D01*
D11*
X138500000Y-40680000D02*
X141900000Y-40680000D01*
X141900000Y-40680000D02*
X141900000Y-45680000D01*
X141900000Y-45680000D02*
X137500000Y-45680000D01*
X137500000Y-45680000D02*
X137500000Y-41680000D01*
X137500000Y-41680000D02*
X138500000Y-40680000D01*
D10*
X164104812Y-59583912D02*
X156499789Y-48309001D01*
X152746998Y-67244855D02*
X164104812Y-59583912D01*
X145141974Y-55969944D02*
X152746998Y-67244855D01*
X156499789Y-48309001D02*
X145141974Y-55969944D01*
X134147000Y-87129000D02*
X135347000Y-87129000D01*
X135347000Y-87129000D02*
X135347000Y-89129000D01*
X135347000Y-89129000D02*
X134147000Y-89129000D01*
X134147000Y-89129000D02*
X134147000Y-87129000D01*
X151546000Y-88875000D02*
X151546000Y-86875000D01*
X152746000Y-88875000D02*
X151546000Y-88875000D01*
X152746000Y-86875000D02*
X152746000Y-88875000D01*
X151546000Y-86875000D02*
X152746000Y-86875000D01*
X143748000Y-81372000D02*
X141748000Y-81372000D01*
X143748000Y-80172000D02*
X143748000Y-81372000D01*
X141748000Y-80172000D02*
X143748000Y-80172000D01*
X141748000Y-81372000D02*
X141748000Y-80172000D01*
X134274000Y-92209000D02*
X135474000Y-92209000D01*
X135474000Y-92209000D02*
X135474000Y-94209000D01*
X135474000Y-94209000D02*
X134274000Y-94209000D01*
X134274000Y-94209000D02*
X134274000Y-92209000D01*
X168240000Y-123945000D02*
X167040000Y-123945000D01*
X167040000Y-123945000D02*
X167040000Y-121945000D01*
X167040000Y-121945000D02*
X168240000Y-121945000D01*
X168240000Y-121945000D02*
X168240000Y-123945000D01*
X54848000Y-96428000D02*
X54848000Y-97628000D01*
X54848000Y-97628000D02*
X52848000Y-97628000D01*
X52848000Y-97628000D02*
X52848000Y-96428000D01*
X52848000Y-96428000D02*
X54848000Y-96428000D01*
X54264000Y-116570000D02*
X54264000Y-114570000D01*
X55464000Y-116570000D02*
X54264000Y-116570000D01*
X55464000Y-114570000D02*
X55464000Y-116570000D01*
X54264000Y-114570000D02*
X55464000Y-114570000D01*
X66015000Y-96555000D02*
X66015000Y-97755000D01*
X66015000Y-97755000D02*
X64015000Y-97755000D01*
X64015000Y-97755000D02*
X64015000Y-96555000D01*
X64015000Y-96555000D02*
X66015000Y-96555000D01*
X66015000Y-104105000D02*
X64015000Y-104105000D01*
X66015000Y-102905000D02*
X66015000Y-104105000D01*
X64015000Y-102905000D02*
X66015000Y-102905000D01*
X64015000Y-104105000D02*
X64015000Y-102905000D01*
X57566000Y-119355000D02*
X57566000Y-117355000D01*
X58766000Y-119355000D02*
X57566000Y-119355000D01*
X58766000Y-117355000D02*
X58766000Y-119355000D01*
X57566000Y-117355000D02*
X58766000Y-117355000D01*
X48997000Y-119288000D02*
X48997000Y-120488000D01*
X48997000Y-120488000D02*
X46997000Y-120488000D01*
X46997000Y-120488000D02*
X46997000Y-119288000D01*
X46997000Y-119288000D02*
X48997000Y-119288000D01*
X71642500Y-79667000D02*
X71642500Y-78067000D01*
X71642500Y-78067000D02*
X74842500Y-78067000D01*
X74842500Y-78067000D02*
X74842500Y-79667000D01*
X74842500Y-79667000D02*
X71642500Y-79667000D01*
X87004000Y-56446000D02*
X87004000Y-62746000D01*
X87004000Y-62746000D02*
X88004000Y-63746000D01*
X88004000Y-63746000D02*
X91304000Y-63746000D01*
X91304000Y-63746000D02*
X91304000Y-56446000D01*
X91304000Y-56446000D02*
X87004000Y-56446000D01*
X85233000Y-79848000D02*
X85233000Y-78648000D01*
X85233000Y-78648000D02*
X87233000Y-78648000D01*
X87233000Y-78648000D02*
X87233000Y-79848000D01*
X87233000Y-79848000D02*
X85233000Y-79848000D01*
X83223000Y-60539500D02*
X83223000Y-63739500D01*
X81623000Y-60539500D02*
X83223000Y-60539500D01*
X81623000Y-63739500D02*
X81623000Y-60539500D01*
X83223000Y-63739500D02*
X81623000Y-63739500D01*
X96812000Y-61961500D02*
X95212000Y-61961500D01*
X95212000Y-61961500D02*
X95212000Y-58761500D01*
X95212000Y-58761500D02*
X96812000Y-58761500D01*
X96812000Y-58761500D02*
X96812000Y-61961500D01*
X86279440Y-149858980D02*
X85128820Y-150659080D01*
X86279440Y-149858980D02*
X85128820Y-149109680D01*
X85128820Y-149109680D02*
X85128820Y-150659080D01*
X86279440Y-150659080D02*
X86279440Y-149058880D01*
X85128820Y-149858980D02*
X84130600Y-149858980D01*
X86279440Y-149858980D02*
X87181140Y-149858980D01*
X83330000Y-151360000D02*
X87930000Y-151360000D01*
X83330000Y-151360000D02*
X83330000Y-148360000D01*
X87930000Y-148360000D02*
X87930000Y-151360000D01*
X83330000Y-148360000D02*
X87930000Y-148360000D01*
X85091020Y-165209440D02*
X84290920Y-164058820D01*
X85091020Y-165209440D02*
X85840320Y-164058820D01*
X85840320Y-164058820D02*
X84290920Y-164058820D01*
X84290920Y-165209440D02*
X85891120Y-165209440D01*
X85091020Y-164058820D02*
X85091020Y-163060600D01*
X85091020Y-165209440D02*
X85091020Y-166111140D01*
X83590000Y-162260000D02*
X83590000Y-166860000D01*
X83590000Y-162260000D02*
X86590000Y-162260000D01*
X86590000Y-166860000D02*
X83590000Y-166860000D01*
X86590000Y-162260000D02*
X86590000Y-166860000D01*
X72236000Y-75311000D02*
X72386000Y-75311000D01*
X72236000Y-75111000D02*
X71936000Y-75311000D01*
X72236000Y-75511000D02*
X72236000Y-75111000D01*
X71936000Y-75311000D02*
X72236000Y-75511000D01*
X71936000Y-75311000D02*
X71786000Y-75311000D01*
X71936000Y-75511000D02*
X71936000Y-75111000D01*
X72786000Y-74861000D02*
X72786000Y-75761000D01*
X71486000Y-74861000D02*
X72786000Y-74861000D01*
X71486000Y-75761000D02*
X71486000Y-74861000D01*
X72786000Y-75761000D02*
X71486000Y-75761000D01*
X76887000Y-56238000D02*
X76887000Y-63338000D01*
X76887000Y-63338000D02*
X70687000Y-63338000D01*
X70687000Y-56238000D02*
X76887000Y-56238000D01*
X70687000Y-56238000D02*
X70687000Y-63338000D01*
X73788020Y-60437440D02*
X73788020Y-61339140D01*
X73788020Y-59286820D02*
X73788020Y-58288600D01*
X72987920Y-60437440D02*
X74588120Y-60437440D01*
X74537320Y-59286820D02*
X72987920Y-59286820D01*
X73788020Y-60437440D02*
X74537320Y-59286820D01*
X73788020Y-60437440D02*
X72987920Y-59286820D01*
X133245733Y-162864725D02*
X127462912Y-149241253D01*
X127462912Y-149241253D02*
X119776696Y-152503858D01*
X119776696Y-152503858D02*
X125559517Y-166127330D01*
X125559517Y-166127330D02*
X133245733Y-162864725D01*
X124540309Y-150481824D02*
X124172382Y-152174346D01*
X124172382Y-152174346D02*
X122699299Y-151263286D01*
X173740000Y-82555000D02*
G75*
G03X172740000Y-81555000I-1000000J0D01*
G01*
X172740000Y-112405000D02*
G75*
G03X173740000Y-111405000I0J1000000D01*
G01*
X161240000Y-82555000D02*
G75*
G02X162240000Y-81555000I1000000J0D01*
G01*
X161240000Y-111405000D02*
G75*
G03X162240000Y-112405000I1000000J0D01*
G01*
X169762163Y-89161114D02*
G75*
G02X171640000Y-90736806I277837J-1575692D01*
G01*
X169762163Y-104798886D02*
G75*
G03X171640000Y-103223194I277837J1575692D01*
G01*
X164662163Y-90060381D02*
G75*
G03X163340000Y-91636073I277837J-1575692D01*
G01*
X164662163Y-103899619D02*
G75*
G02X163340000Y-102323927I277837J1575692D01*
G01*
X173740000Y-82555000D02*
X173740000Y-111405000D01*
X172740000Y-112405000D02*
X162240000Y-112405000D01*
X161240000Y-111405000D02*
X161240000Y-82555000D01*
X162240000Y-81555000D02*
X172740000Y-81555000D01*
X171640000Y-90736806D02*
X171640000Y-103223194D01*
X163340000Y-91636073D02*
X163340000Y-102323927D01*
X169762163Y-104798887D02*
X164662163Y-103899619D01*
X169762163Y-89161113D02*
X164662163Y-90060381D01*
X49292000Y-115408000D02*
X49292000Y-114208000D01*
X49292000Y-114208000D02*
X51292000Y-114208000D01*
X51292000Y-114208000D02*
X51292000Y-115408000D01*
X51292000Y-115408000D02*
X49292000Y-115408000D01*
X75355000Y-73552000D02*
G75*
G02X74855000Y-73052000I0J500000D01*
G01*
X74855000Y-67552000D02*
G75*
G02X75355000Y-67052000I500000J0D01*
G01*
X81355000Y-73052000D02*
G75*
G02X80855000Y-73552000I-500000J0D01*
G01*
X80855000Y-67052000D02*
G75*
G02X81355000Y-67552000I0J-500000D01*
G01*
X75355000Y-67052000D02*
X80855000Y-67052000D01*
X74855000Y-73052000D02*
X74855000Y-67552000D01*
X80855000Y-73552000D02*
X75355000Y-73552000D01*
X81355000Y-67552000D02*
X81355000Y-73052000D01*
X119550000Y-60285000D02*
X119550000Y-61135000D01*
X120050000Y-61635000D02*
X121750000Y-61635000D01*
X119550000Y-60285000D02*
X121750000Y-60285000D01*
X121750000Y-60285000D02*
X121750000Y-61635000D01*
X119550000Y-61135000D02*
X120050000Y-61635000D01*
X159425000Y-134790000D02*
X158575000Y-134790000D01*
X158075000Y-135290000D02*
X158075000Y-136990000D01*
X159425000Y-134790000D02*
X159425000Y-136990000D01*
X159425000Y-136990000D02*
X158075000Y-136990000D01*
X158575000Y-134790000D02*
X158075000Y-135290000D01*
X57820000Y-99035000D02*
X57820000Y-97035000D01*
X59020000Y-99035000D02*
X57820000Y-99035000D01*
X59020000Y-97035000D02*
X59020000Y-99035000D01*
X57820000Y-97035000D02*
X59020000Y-97035000D01*
X60868000Y-119373000D02*
X60868000Y-117373000D01*
X62068000Y-119373000D02*
X60868000Y-119373000D01*
X62068000Y-117373000D02*
X62068000Y-119373000D01*
X60868000Y-117373000D02*
X62068000Y-117373000D01*
X66015000Y-106080000D02*
X66015000Y-107280000D01*
X66015000Y-107280000D02*
X64015000Y-107280000D01*
X64015000Y-107280000D02*
X64015000Y-106080000D01*
X64015000Y-106080000D02*
X66015000Y-106080000D01*
X64015000Y-100930000D02*
X64015000Y-99730000D01*
X64015000Y-99730000D02*
X66015000Y-99730000D01*
X66015000Y-99730000D02*
X66015000Y-100930000D01*
X66015000Y-100930000D02*
X64015000Y-100930000D01*
X130480000Y-58360000D02*
X130480000Y-63560000D01*
X130480000Y-63560000D02*
X133680000Y-63560000D01*
X133680000Y-63560000D02*
X133680000Y-58360000D01*
X133680000Y-58360000D02*
X130480000Y-58360000D01*
D11*
X90138000Y-73848000D02*
X90138000Y-70948000D01*
X90138000Y-70948000D02*
X98838000Y-70948000D01*
X98838000Y-70948000D02*
X98838000Y-74848000D01*
X98838000Y-74848000D02*
X91138000Y-74848000D01*
X91138000Y-74848000D02*
X90138000Y-73848000D01*
D10*
X142535000Y-86363000D02*
X145460000Y-86363000D01*
X145460000Y-86363000D02*
X145460000Y-96263000D01*
X145460000Y-96263000D02*
X141560000Y-96263000D01*
X141560000Y-96263000D02*
X141560000Y-87338000D01*
X141560000Y-87338000D02*
X142535000Y-86363000D01*
X55650000Y-109970000D02*
X55650000Y-107720000D01*
X55650000Y-107720000D02*
X58650000Y-107720000D01*
X58650000Y-107720000D02*
X58650000Y-110720000D01*
X58650000Y-110720000D02*
X56400000Y-110720000D01*
X56400000Y-110720000D02*
X55650000Y-109970000D01*
X67351000Y-67400000D02*
X70276000Y-67400000D01*
X70276000Y-67400000D02*
X70276000Y-72300000D01*
X70276000Y-72300000D02*
X66376000Y-72300000D01*
X66376000Y-72300000D02*
X66376000Y-68375000D01*
X66376000Y-68375000D02*
X67351000Y-67400000D01*
D12*
X144433961Y-119214564D02*
X144417125Y-119214564D01*
X144383454Y-119197728D01*
X144366618Y-119180893D01*
X144349782Y-119147221D01*
X144349782Y-119113549D01*
X144358200Y-119088295D01*
X144383454Y-119046205D01*
X144408707Y-119020952D01*
X144450797Y-118995698D01*
X144476051Y-118987280D01*
X144509723Y-118987280D01*
X144543394Y-119004116D01*
X144560230Y-119020952D01*
X144577066Y-119054623D01*
X144577066Y-119071459D01*
X144585484Y-119399759D02*
X144484469Y-119298744D01*
X144534976Y-119349251D02*
X144711753Y-119172475D01*
X144669663Y-119180893D01*
X144635992Y-119180893D01*
X144610738Y-119172475D01*
D11*
X113442380Y-53348095D02*
X112442380Y-53348095D01*
X112442380Y-53110000D01*
X112490000Y-52967142D01*
X112585238Y-52871904D01*
X112680476Y-52824285D01*
X112870952Y-52776666D01*
X113013809Y-52776666D01*
X113204285Y-52824285D01*
X113299523Y-52871904D01*
X113394761Y-52967142D01*
X113442380Y-53110000D01*
X113442380Y-53348095D01*
X112775714Y-51919523D02*
X113442380Y-51919523D01*
X112394761Y-52157619D02*
X113109047Y-52395714D01*
X113109047Y-51776666D01*
X151036666Y-108486666D02*
X150943333Y-108440000D01*
X150850000Y-108346666D01*
X150710000Y-108206666D01*
X150616666Y-108160000D01*
X150523333Y-108160000D01*
X150570000Y-108393333D02*
X150476666Y-108346666D01*
X150383333Y-108253333D01*
X150336666Y-108066666D01*
X150336666Y-107740000D01*
X150383333Y-107553333D01*
X150476666Y-107460000D01*
X150570000Y-107413333D01*
X150756666Y-107413333D01*
X150850000Y-107460000D01*
X150943333Y-107553333D01*
X150990000Y-107740000D01*
X150990000Y-108066666D01*
X150943333Y-108253333D01*
X150850000Y-108346666D01*
X150756666Y-108393333D01*
X150570000Y-108393333D01*
X151316666Y-107413333D02*
X151923333Y-107413333D01*
X151596666Y-107786666D01*
X151736666Y-107786666D01*
X151830000Y-107833333D01*
X151876666Y-107880000D01*
X151923333Y-107973333D01*
X151923333Y-108206666D01*
X151876666Y-108300000D01*
X151830000Y-108346666D01*
X151736666Y-108393333D01*
X151456666Y-108393333D01*
X151363333Y-108346666D01*
X151316666Y-108300000D01*
D12*
X149750235Y-123895838D02*
X149733399Y-123895838D01*
X149699728Y-123879002D01*
X149682892Y-123862167D01*
X149666056Y-123828495D01*
X149666056Y-123794823D01*
X149674474Y-123769569D01*
X149699728Y-123727479D01*
X149724981Y-123702226D01*
X149767071Y-123676972D01*
X149792325Y-123668554D01*
X149825997Y-123668554D01*
X149859668Y-123685390D01*
X149876504Y-123702226D01*
X149893340Y-123735897D01*
X149893340Y-123752733D01*
X149960684Y-123820077D02*
X149977520Y-123820077D01*
X150002773Y-123828495D01*
X150044863Y-123870584D01*
X150053281Y-123895838D01*
X150053281Y-123912674D01*
X150044863Y-123937928D01*
X150028027Y-123954764D01*
X149994355Y-123971600D01*
X149792325Y-123971600D01*
X149901758Y-124081033D01*
D13*
X143540082Y-124593512D02*
X143304380Y-124829214D01*
X143634363Y-124169248D02*
X143540082Y-124593512D01*
X143964346Y-124499231D01*
X143893636Y-125418470D02*
X143610793Y-125135627D01*
X143752214Y-125277049D02*
X144247189Y-124782074D01*
X144129338Y-124805644D01*
X144035057Y-124805644D01*
X143964346Y-124782074D01*
D11*
X158197619Y-124821904D02*
X157930952Y-124440952D01*
X157740476Y-124821904D02*
X157740476Y-124021904D01*
X158045238Y-124021904D01*
X158121428Y-124060000D01*
X158159523Y-124098095D01*
X158197619Y-124174285D01*
X158197619Y-124288571D01*
X158159523Y-124364761D01*
X158121428Y-124402857D01*
X158045238Y-124440952D01*
X157740476Y-124440952D01*
X158540476Y-124821904D02*
X158540476Y-124021904D01*
X158997619Y-124821904D01*
X158997619Y-124021904D01*
X159797619Y-124821904D02*
X159340476Y-124821904D01*
X159569047Y-124821904D02*
X159569047Y-124021904D01*
X159492857Y-124136190D01*
X159416666Y-124212380D01*
X159340476Y-124250476D01*
X138774026Y-136041522D02*
X139346446Y-136613942D01*
X139447461Y-136647614D01*
X139514805Y-136647614D01*
X139615820Y-136613942D01*
X139750507Y-136479255D01*
X139784179Y-136378240D01*
X139784179Y-136310896D01*
X139750507Y-136209881D01*
X139178087Y-135637461D01*
X140592301Y-135637461D02*
X140188240Y-136041522D01*
X140390270Y-135839492D02*
X139683164Y-135132385D01*
X139716835Y-135300744D01*
X139716835Y-135435431D01*
X139683164Y-135536446D01*
D14*
X86538571Y-138506428D02*
X86562380Y-138530238D01*
X86586190Y-138601666D01*
X86586190Y-138649285D01*
X86562380Y-138720714D01*
X86514761Y-138768333D01*
X86467142Y-138792142D01*
X86371904Y-138815952D01*
X86300476Y-138815952D01*
X86205238Y-138792142D01*
X86157619Y-138768333D01*
X86110000Y-138720714D01*
X86086190Y-138649285D01*
X86086190Y-138601666D01*
X86110000Y-138530238D01*
X86133809Y-138506428D01*
X86586190Y-138030238D02*
X86586190Y-138315952D01*
X86586190Y-138173095D02*
X86086190Y-138173095D01*
X86157619Y-138220714D01*
X86205238Y-138268333D01*
X86229047Y-138315952D01*
X86586190Y-137792142D02*
X86586190Y-137696904D01*
X86562380Y-137649285D01*
X86538571Y-137625476D01*
X86467142Y-137577857D01*
X86371904Y-137554047D01*
X86181428Y-137554047D01*
X86133809Y-137577857D01*
X86110000Y-137601666D01*
X86086190Y-137649285D01*
X86086190Y-137744523D01*
X86110000Y-137792142D01*
X86133809Y-137815952D01*
X86181428Y-137839761D01*
X86300476Y-137839761D01*
X86348095Y-137815952D01*
X86371904Y-137792142D01*
X86395714Y-137744523D01*
X86395714Y-137649285D01*
X86371904Y-137601666D01*
X86348095Y-137577857D01*
X86300476Y-137554047D01*
D11*
X99568095Y-130262380D02*
X99568095Y-131071904D01*
X99615714Y-131167142D01*
X99663333Y-131214761D01*
X99758571Y-131262380D01*
X99949047Y-131262380D01*
X100044285Y-131214761D01*
X100091904Y-131167142D01*
X100139523Y-131071904D01*
X100139523Y-130262380D01*
X101044285Y-130262380D02*
X100853809Y-130262380D01*
X100758571Y-130310000D01*
X100710952Y-130357619D01*
X100615714Y-130500476D01*
X100568095Y-130690952D01*
X100568095Y-131071904D01*
X100615714Y-131167142D01*
X100663333Y-131214761D01*
X100758571Y-131262380D01*
X100949047Y-131262380D01*
X101044285Y-131214761D01*
X101091904Y-131167142D01*
X101139523Y-131071904D01*
X101139523Y-130833809D01*
X101091904Y-130738571D01*
X101044285Y-130690952D01*
X100949047Y-130643333D01*
X100758571Y-130643333D01*
X100663333Y-130690952D01*
X100615714Y-130738571D01*
X100568095Y-130833809D01*
D15*
X112982380Y-164103809D02*
X112934761Y-164080000D01*
X112887142Y-164032380D01*
X112815714Y-163960952D01*
X112768095Y-163937142D01*
X112720476Y-163937142D01*
X112744285Y-164056190D02*
X112696666Y-164032380D01*
X112649047Y-163984761D01*
X112625238Y-163889523D01*
X112625238Y-163722857D01*
X112649047Y-163627619D01*
X112696666Y-163580000D01*
X112744285Y-163556190D01*
X112839523Y-163556190D01*
X112887142Y-163580000D01*
X112934761Y-163627619D01*
X112958571Y-163722857D01*
X112958571Y-163889523D01*
X112934761Y-163984761D01*
X112887142Y-164032380D01*
X112839523Y-164056190D01*
X112744285Y-164056190D01*
X113434761Y-164056190D02*
X113149047Y-164056190D01*
X113291904Y-164056190D02*
X113291904Y-163556190D01*
X113244285Y-163627619D01*
X113196666Y-163675238D01*
X113149047Y-163699047D01*
D11*
X99591904Y-160472380D02*
X99591904Y-159472380D01*
X100163333Y-160472380D02*
X99734761Y-159900952D01*
X100163333Y-159472380D02*
X99591904Y-160043809D01*
X101115714Y-160472380D02*
X100544285Y-160472380D01*
X100830000Y-160472380D02*
X100830000Y-159472380D01*
X100734761Y-159615238D01*
X100639523Y-159710476D01*
X100544285Y-159758095D01*
X60372065Y-148943134D02*
X60877141Y-149448210D01*
X60944485Y-149582897D01*
X60944485Y-149717584D01*
X60877141Y-149852271D01*
X60809798Y-149919614D01*
X60641439Y-148673760D02*
X61112844Y-148202355D01*
X61516905Y-149212508D01*
X32622380Y-97313333D02*
X33336666Y-97313333D01*
X33479523Y-97360952D01*
X33574761Y-97456190D01*
X33622380Y-97599047D01*
X33622380Y-97694285D01*
X32955714Y-96408571D02*
X33622380Y-96408571D01*
X32574761Y-96646666D02*
X33289047Y-96884761D01*
X33289047Y-96265714D01*
X47619605Y-59660121D02*
X48211775Y-60059544D01*
X48303580Y-60178907D01*
X48329280Y-60311119D01*
X48288873Y-60456181D01*
X48235617Y-60535137D01*
X48321074Y-59386561D02*
X48228340Y-59438889D01*
X48162233Y-59451739D01*
X48056649Y-59437960D01*
X48017171Y-59411332D01*
X47964843Y-59318597D01*
X47951994Y-59252491D01*
X47965772Y-59146907D01*
X48072285Y-58988995D01*
X48165020Y-58936667D01*
X48231126Y-58923818D01*
X48336710Y-58937596D01*
X48376188Y-58964224D01*
X48428516Y-59056959D01*
X48441365Y-59123065D01*
X48427587Y-59228649D01*
X48321074Y-59386561D01*
X48307295Y-59492145D01*
X48320145Y-59558251D01*
X48372473Y-59650986D01*
X48530385Y-59757499D01*
X48635969Y-59771277D01*
X48702075Y-59758428D01*
X48794810Y-59706100D01*
X48901323Y-59548188D01*
X48915101Y-59442604D01*
X48902251Y-59376498D01*
X48849924Y-59283763D01*
X48692012Y-59177250D01*
X48586428Y-59163472D01*
X48520321Y-59176321D01*
X48427587Y-59228649D01*
X71938958Y-28111316D02*
X72218051Y-28768820D01*
X72230037Y-28918927D01*
X72179582Y-29043806D01*
X72066687Y-29143459D01*
X71979020Y-29180671D01*
X72370672Y-28031527D02*
X72395900Y-27969087D01*
X72464961Y-27888041D01*
X72684128Y-27795010D01*
X72790402Y-27801631D01*
X72852842Y-27826858D01*
X72933888Y-27895919D01*
X72971100Y-27983586D01*
X72983085Y-28133693D01*
X72680357Y-28882971D01*
X73250194Y-28641090D01*
X99591904Y-33472380D02*
X99591904Y-32472380D01*
X100163333Y-33472380D02*
X99734761Y-32900952D01*
X100163333Y-32472380D02*
X99591904Y-33043809D01*
X100544285Y-32567619D02*
X100591904Y-32520000D01*
X100687142Y-32472380D01*
X100925238Y-32472380D01*
X101020476Y-32520000D01*
X101068095Y-32567619D01*
X101115714Y-32662857D01*
X101115714Y-32758095D01*
X101068095Y-32900952D01*
X100496666Y-33472380D01*
X101115714Y-33472380D01*
X113561904Y-23352380D02*
X113561904Y-22352380D01*
X113800000Y-22352380D01*
X113942857Y-22400000D01*
X114038095Y-22495238D01*
X114085714Y-22590476D01*
X114133333Y-22780952D01*
X114133333Y-22923809D01*
X114085714Y-23114285D01*
X114038095Y-23209523D01*
X113942857Y-23304761D01*
X113800000Y-23352380D01*
X113561904Y-23352380D01*
X114466666Y-22352380D02*
X115085714Y-22352380D01*
X114752380Y-22733333D01*
X114895238Y-22733333D01*
X114990476Y-22780952D01*
X115038095Y-22828571D01*
X115085714Y-22923809D01*
X115085714Y-23161904D01*
X115038095Y-23257142D01*
X114990476Y-23304761D01*
X114895238Y-23352380D01*
X114609523Y-23352380D01*
X114514285Y-23304761D01*
X114466666Y-23257142D01*
X126760887Y-27768560D02*
X126493311Y-28430834D01*
X126395644Y-28545451D01*
X126271664Y-28598077D01*
X126121371Y-28588713D01*
X126033067Y-28553037D01*
X127313464Y-29070351D02*
X126783645Y-28856290D01*
X127048555Y-28963320D02*
X127423161Y-28036136D01*
X127281343Y-28132914D01*
X127157363Y-28185541D01*
X127051221Y-28194015D01*
X139090476Y-42741904D02*
X139090476Y-43389523D01*
X139128571Y-43465714D01*
X139166666Y-43503809D01*
X139242857Y-43541904D01*
X139395238Y-43541904D01*
X139471428Y-43503809D01*
X139509523Y-43465714D01*
X139547619Y-43389523D01*
X139547619Y-42741904D01*
X139852380Y-42741904D02*
X140347619Y-42741904D01*
X140080952Y-43046666D01*
X140195238Y-43046666D01*
X140271428Y-43084761D01*
X140309523Y-43122857D01*
X140347619Y-43199047D01*
X140347619Y-43389523D01*
X140309523Y-43465714D01*
X140271428Y-43503809D01*
X140195238Y-43541904D01*
X139966666Y-43541904D01*
X139890476Y-43503809D01*
X139852380Y-43465714D01*
X154890992Y-57194357D02*
X154298822Y-57593780D01*
X154153760Y-57634187D01*
X154021547Y-57608488D01*
X153902185Y-57516682D01*
X153848928Y-57437726D01*
X155396928Y-57944439D02*
X155290415Y-57786527D01*
X155197681Y-57734199D01*
X155131574Y-57721349D01*
X154959884Y-57722278D01*
X154775344Y-57789313D01*
X154459520Y-58002339D01*
X154407192Y-58095073D01*
X154394343Y-58161179D01*
X154408121Y-58266764D01*
X154514634Y-58424676D01*
X154607368Y-58477003D01*
X154673475Y-58489853D01*
X154779059Y-58476074D01*
X154976449Y-58342933D01*
X155028777Y-58250199D01*
X155041626Y-58184093D01*
X155027848Y-58078508D01*
X154921335Y-57920597D01*
X154828600Y-57868269D01*
X154762494Y-57855419D01*
X154656910Y-57869198D01*
X99296666Y-96972380D02*
X98963333Y-96496190D01*
X98725238Y-96972380D02*
X98725238Y-95972380D01*
X99106190Y-95972380D01*
X99201428Y-96020000D01*
X99249047Y-96067619D01*
X99296666Y-96162857D01*
X99296666Y-96305714D01*
X99249047Y-96400952D01*
X99201428Y-96448571D01*
X99106190Y-96496190D01*
X98725238Y-96496190D01*
X99725238Y-96448571D02*
X100058571Y-96448571D01*
X100201428Y-96972380D02*
X99725238Y-96972380D01*
X99725238Y-95972380D01*
X100201428Y-95972380D01*
X100963333Y-96448571D02*
X100630000Y-96448571D01*
X100630000Y-96972380D02*
X100630000Y-95972380D01*
X101106190Y-95972380D01*
X101630000Y-95972380D02*
X101630000Y-96210476D01*
X101391904Y-96115238D02*
X101630000Y-96210476D01*
X101868095Y-96115238D01*
X101487142Y-96400952D02*
X101630000Y-96210476D01*
X101772857Y-96400952D01*
X102391904Y-95972380D02*
X102391904Y-96210476D01*
X102153809Y-96115238D02*
X102391904Y-96210476D01*
X102630000Y-96115238D01*
X102249047Y-96400952D02*
X102391904Y-96210476D01*
X102534761Y-96400952D01*
D14*
X134925571Y-88212333D02*
X134949380Y-88236142D01*
X134973190Y-88307571D01*
X134973190Y-88355190D01*
X134949380Y-88426619D01*
X134901761Y-88474238D01*
X134854142Y-88498047D01*
X134758904Y-88521857D01*
X134687476Y-88521857D01*
X134592238Y-88498047D01*
X134544619Y-88474238D01*
X134497000Y-88426619D01*
X134473190Y-88355190D01*
X134473190Y-88307571D01*
X134497000Y-88236142D01*
X134520809Y-88212333D01*
X134473190Y-88045666D02*
X134473190Y-87736142D01*
X134663666Y-87902809D01*
X134663666Y-87831380D01*
X134687476Y-87783761D01*
X134711285Y-87759952D01*
X134758904Y-87736142D01*
X134877952Y-87736142D01*
X134925571Y-87759952D01*
X134949380Y-87783761D01*
X134973190Y-87831380D01*
X134973190Y-87974238D01*
X134949380Y-88021857D01*
X134925571Y-88045666D01*
X152324571Y-87958333D02*
X152348380Y-87982142D01*
X152372190Y-88053571D01*
X152372190Y-88101190D01*
X152348380Y-88172619D01*
X152300761Y-88220238D01*
X152253142Y-88244047D01*
X152157904Y-88267857D01*
X152086476Y-88267857D01*
X151991238Y-88244047D01*
X151943619Y-88220238D01*
X151896000Y-88172619D01*
X151872190Y-88101190D01*
X151872190Y-88053571D01*
X151896000Y-87982142D01*
X151919809Y-87958333D01*
X152038857Y-87529761D02*
X152372190Y-87529761D01*
X151848380Y-87648809D02*
X152205523Y-87767857D01*
X152205523Y-87458333D01*
X142664666Y-80950571D02*
X142640857Y-80974380D01*
X142569428Y-80998190D01*
X142521809Y-80998190D01*
X142450380Y-80974380D01*
X142402761Y-80926761D01*
X142378952Y-80879142D01*
X142355142Y-80783904D01*
X142355142Y-80712476D01*
X142378952Y-80617238D01*
X142402761Y-80569619D01*
X142450380Y-80522000D01*
X142521809Y-80498190D01*
X142569428Y-80498190D01*
X142640857Y-80522000D01*
X142664666Y-80545809D01*
X143117047Y-80498190D02*
X142878952Y-80498190D01*
X142855142Y-80736285D01*
X142878952Y-80712476D01*
X142926571Y-80688666D01*
X143045619Y-80688666D01*
X143093238Y-80712476D01*
X143117047Y-80736285D01*
X143140857Y-80783904D01*
X143140857Y-80902952D01*
X143117047Y-80950571D01*
X143093238Y-80974380D01*
X143045619Y-80998190D01*
X142926571Y-80998190D01*
X142878952Y-80974380D01*
X142855142Y-80950571D01*
X135052571Y-93292333D02*
X135076380Y-93316142D01*
X135100190Y-93387571D01*
X135100190Y-93435190D01*
X135076380Y-93506619D01*
X135028761Y-93554238D01*
X134981142Y-93578047D01*
X134885904Y-93601857D01*
X134814476Y-93601857D01*
X134719238Y-93578047D01*
X134671619Y-93554238D01*
X134624000Y-93506619D01*
X134600190Y-93435190D01*
X134600190Y-93387571D01*
X134624000Y-93316142D01*
X134647809Y-93292333D01*
X134600190Y-92863761D02*
X134600190Y-92959000D01*
X134624000Y-93006619D01*
X134647809Y-93030428D01*
X134719238Y-93078047D01*
X134814476Y-93101857D01*
X135004952Y-93101857D01*
X135052571Y-93078047D01*
X135076380Y-93054238D01*
X135100190Y-93006619D01*
X135100190Y-92911380D01*
X135076380Y-92863761D01*
X135052571Y-92839952D01*
X135004952Y-92816142D01*
X134885904Y-92816142D01*
X134838285Y-92839952D01*
X134814476Y-92863761D01*
X134790666Y-92911380D01*
X134790666Y-93006619D01*
X134814476Y-93054238D01*
X134838285Y-93078047D01*
X134885904Y-93101857D01*
X167818571Y-123028333D02*
X167842380Y-123052142D01*
X167866190Y-123123571D01*
X167866190Y-123171190D01*
X167842380Y-123242619D01*
X167794761Y-123290238D01*
X167747142Y-123314047D01*
X167651904Y-123337857D01*
X167580476Y-123337857D01*
X167485238Y-123314047D01*
X167437619Y-123290238D01*
X167390000Y-123242619D01*
X167366190Y-123171190D01*
X167366190Y-123123571D01*
X167390000Y-123052142D01*
X167413809Y-123028333D01*
X167366190Y-122861666D02*
X167366190Y-122528333D01*
X167866190Y-122742619D01*
X53764666Y-97206571D02*
X53740857Y-97230380D01*
X53669428Y-97254190D01*
X53621809Y-97254190D01*
X53550380Y-97230380D01*
X53502761Y-97182761D01*
X53478952Y-97135142D01*
X53455142Y-97039904D01*
X53455142Y-96968476D01*
X53478952Y-96873238D01*
X53502761Y-96825619D01*
X53550380Y-96778000D01*
X53621809Y-96754190D01*
X53669428Y-96754190D01*
X53740857Y-96778000D01*
X53764666Y-96801809D01*
X54050380Y-96968476D02*
X54002761Y-96944666D01*
X53978952Y-96920857D01*
X53955142Y-96873238D01*
X53955142Y-96849428D01*
X53978952Y-96801809D01*
X54002761Y-96778000D01*
X54050380Y-96754190D01*
X54145619Y-96754190D01*
X54193238Y-96778000D01*
X54217047Y-96801809D01*
X54240857Y-96849428D01*
X54240857Y-96873238D01*
X54217047Y-96920857D01*
X54193238Y-96944666D01*
X54145619Y-96968476D01*
X54050380Y-96968476D01*
X54002761Y-96992285D01*
X53978952Y-97016095D01*
X53955142Y-97063714D01*
X53955142Y-97158952D01*
X53978952Y-97206571D01*
X54002761Y-97230380D01*
X54050380Y-97254190D01*
X54145619Y-97254190D01*
X54193238Y-97230380D01*
X54217047Y-97206571D01*
X54240857Y-97158952D01*
X54240857Y-97063714D01*
X54217047Y-97016095D01*
X54193238Y-96992285D01*
X54145619Y-96968476D01*
X55042571Y-115653333D02*
X55066380Y-115677142D01*
X55090190Y-115748571D01*
X55090190Y-115796190D01*
X55066380Y-115867619D01*
X55018761Y-115915238D01*
X54971142Y-115939047D01*
X54875904Y-115962857D01*
X54804476Y-115962857D01*
X54709238Y-115939047D01*
X54661619Y-115915238D01*
X54614000Y-115867619D01*
X54590190Y-115796190D01*
X54590190Y-115748571D01*
X54614000Y-115677142D01*
X54637809Y-115653333D01*
X55090190Y-115415238D02*
X55090190Y-115320000D01*
X55066380Y-115272380D01*
X55042571Y-115248571D01*
X54971142Y-115200952D01*
X54875904Y-115177142D01*
X54685428Y-115177142D01*
X54637809Y-115200952D01*
X54614000Y-115224761D01*
X54590190Y-115272380D01*
X54590190Y-115367619D01*
X54614000Y-115415238D01*
X54637809Y-115439047D01*
X54685428Y-115462857D01*
X54804476Y-115462857D01*
X54852095Y-115439047D01*
X54875904Y-115415238D01*
X54899714Y-115367619D01*
X54899714Y-115272380D01*
X54875904Y-115224761D01*
X54852095Y-115200952D01*
X54804476Y-115177142D01*
X64693571Y-97333571D02*
X64669761Y-97357380D01*
X64598333Y-97381190D01*
X64550714Y-97381190D01*
X64479285Y-97357380D01*
X64431666Y-97309761D01*
X64407857Y-97262142D01*
X64384047Y-97166904D01*
X64384047Y-97095476D01*
X64407857Y-97000238D01*
X64431666Y-96952619D01*
X64479285Y-96905000D01*
X64550714Y-96881190D01*
X64598333Y-96881190D01*
X64669761Y-96905000D01*
X64693571Y-96928809D01*
X65169761Y-97381190D02*
X64884047Y-97381190D01*
X65026904Y-97381190D02*
X65026904Y-96881190D01*
X64979285Y-96952619D01*
X64931666Y-97000238D01*
X64884047Y-97024047D01*
X65479285Y-96881190D02*
X65526904Y-96881190D01*
X65574523Y-96905000D01*
X65598333Y-96928809D01*
X65622142Y-96976428D01*
X65645952Y-97071666D01*
X65645952Y-97190714D01*
X65622142Y-97285952D01*
X65598333Y-97333571D01*
X65574523Y-97357380D01*
X65526904Y-97381190D01*
X65479285Y-97381190D01*
X65431666Y-97357380D01*
X65407857Y-97333571D01*
X65384047Y-97285952D01*
X65360238Y-97190714D01*
X65360238Y-97071666D01*
X65384047Y-96976428D01*
X65407857Y-96928809D01*
X65431666Y-96905000D01*
X65479285Y-96881190D01*
X64693571Y-103683571D02*
X64669761Y-103707380D01*
X64598333Y-103731190D01*
X64550714Y-103731190D01*
X64479285Y-103707380D01*
X64431666Y-103659761D01*
X64407857Y-103612142D01*
X64384047Y-103516904D01*
X64384047Y-103445476D01*
X64407857Y-103350238D01*
X64431666Y-103302619D01*
X64479285Y-103255000D01*
X64550714Y-103231190D01*
X64598333Y-103231190D01*
X64669761Y-103255000D01*
X64693571Y-103278809D01*
X65169761Y-103731190D02*
X64884047Y-103731190D01*
X65026904Y-103731190D02*
X65026904Y-103231190D01*
X64979285Y-103302619D01*
X64931666Y-103350238D01*
X64884047Y-103374047D01*
X65645952Y-103731190D02*
X65360238Y-103731190D01*
X65503095Y-103731190D02*
X65503095Y-103231190D01*
X65455476Y-103302619D01*
X65407857Y-103350238D01*
X65360238Y-103374047D01*
X58344571Y-118676428D02*
X58368380Y-118700238D01*
X58392190Y-118771666D01*
X58392190Y-118819285D01*
X58368380Y-118890714D01*
X58320761Y-118938333D01*
X58273142Y-118962142D01*
X58177904Y-118985952D01*
X58106476Y-118985952D01*
X58011238Y-118962142D01*
X57963619Y-118938333D01*
X57916000Y-118890714D01*
X57892190Y-118819285D01*
X57892190Y-118771666D01*
X57916000Y-118700238D01*
X57939809Y-118676428D01*
X58392190Y-118200238D02*
X58392190Y-118485952D01*
X58392190Y-118343095D02*
X57892190Y-118343095D01*
X57963619Y-118390714D01*
X58011238Y-118438333D01*
X58035047Y-118485952D01*
X57939809Y-118009761D02*
X57916000Y-117985952D01*
X57892190Y-117938333D01*
X57892190Y-117819285D01*
X57916000Y-117771666D01*
X57939809Y-117747857D01*
X57987428Y-117724047D01*
X58035047Y-117724047D01*
X58106476Y-117747857D01*
X58392190Y-118033571D01*
X58392190Y-117724047D01*
X47675571Y-120066571D02*
X47651761Y-120090380D01*
X47580333Y-120114190D01*
X47532714Y-120114190D01*
X47461285Y-120090380D01*
X47413666Y-120042761D01*
X47389857Y-119995142D01*
X47366047Y-119899904D01*
X47366047Y-119828476D01*
X47389857Y-119733238D01*
X47413666Y-119685619D01*
X47461285Y-119638000D01*
X47532714Y-119614190D01*
X47580333Y-119614190D01*
X47651761Y-119638000D01*
X47675571Y-119661809D01*
X48151761Y-120114190D02*
X47866047Y-120114190D01*
X48008904Y-120114190D02*
X48008904Y-119614190D01*
X47961285Y-119685619D01*
X47913666Y-119733238D01*
X47866047Y-119757047D01*
X48318428Y-119614190D02*
X48627952Y-119614190D01*
X48461285Y-119804666D01*
X48532714Y-119804666D01*
X48580333Y-119828476D01*
X48604142Y-119852285D01*
X48627952Y-119899904D01*
X48627952Y-120018952D01*
X48604142Y-120066571D01*
X48580333Y-120090380D01*
X48532714Y-120114190D01*
X48389857Y-120114190D01*
X48342238Y-120090380D01*
X48318428Y-120066571D01*
D16*
X72728214Y-79152714D02*
X72690119Y-79190809D01*
X72575833Y-79228904D01*
X72499642Y-79228904D01*
X72385357Y-79190809D01*
X72309166Y-79114619D01*
X72271071Y-79038428D01*
X72232976Y-78886047D01*
X72232976Y-78771761D01*
X72271071Y-78619380D01*
X72309166Y-78543190D01*
X72385357Y-78467000D01*
X72499642Y-78428904D01*
X72575833Y-78428904D01*
X72690119Y-78467000D01*
X72728214Y-78505095D01*
X73490119Y-79228904D02*
X73032976Y-79228904D01*
X73261547Y-79228904D02*
X73261547Y-78428904D01*
X73185357Y-78543190D01*
X73109166Y-78619380D01*
X73032976Y-78657476D01*
X74175833Y-78695571D02*
X74175833Y-79228904D01*
X73985357Y-78390809D02*
X73794880Y-78962238D01*
X74290119Y-78962238D01*
D11*
X89511142Y-60738857D02*
X89558761Y-60786476D01*
X89606380Y-60929333D01*
X89606380Y-61024571D01*
X89558761Y-61167428D01*
X89463523Y-61262666D01*
X89368285Y-61310285D01*
X89177809Y-61357904D01*
X89034952Y-61357904D01*
X88844476Y-61310285D01*
X88749238Y-61262666D01*
X88654000Y-61167428D01*
X88606380Y-61024571D01*
X88606380Y-60929333D01*
X88654000Y-60786476D01*
X88701619Y-60738857D01*
X89606380Y-59786476D02*
X89606380Y-60357904D01*
X89606380Y-60072190D02*
X88606380Y-60072190D01*
X88749238Y-60167428D01*
X88844476Y-60262666D01*
X88892095Y-60357904D01*
X88606380Y-58881714D02*
X88606380Y-59357904D01*
X89082571Y-59405523D01*
X89034952Y-59357904D01*
X88987333Y-59262666D01*
X88987333Y-59024571D01*
X89034952Y-58929333D01*
X89082571Y-58881714D01*
X89177809Y-58834095D01*
X89415904Y-58834095D01*
X89511142Y-58881714D01*
X89558761Y-58929333D01*
X89606380Y-59024571D01*
X89606380Y-59262666D01*
X89558761Y-59357904D01*
X89511142Y-59405523D01*
D14*
X85911571Y-79426571D02*
X85887761Y-79450380D01*
X85816333Y-79474190D01*
X85768714Y-79474190D01*
X85697285Y-79450380D01*
X85649666Y-79402761D01*
X85625857Y-79355142D01*
X85602047Y-79259904D01*
X85602047Y-79188476D01*
X85625857Y-79093238D01*
X85649666Y-79045619D01*
X85697285Y-78998000D01*
X85768714Y-78974190D01*
X85816333Y-78974190D01*
X85887761Y-78998000D01*
X85911571Y-79021809D01*
X86387761Y-79474190D02*
X86102047Y-79474190D01*
X86244904Y-79474190D02*
X86244904Y-78974190D01*
X86197285Y-79045619D01*
X86149666Y-79093238D01*
X86102047Y-79117047D01*
X86816333Y-78974190D02*
X86721095Y-78974190D01*
X86673476Y-78998000D01*
X86649666Y-79021809D01*
X86602047Y-79093238D01*
X86578238Y-79188476D01*
X86578238Y-79378952D01*
X86602047Y-79426571D01*
X86625857Y-79450380D01*
X86673476Y-79474190D01*
X86768714Y-79474190D01*
X86816333Y-79450380D01*
X86840142Y-79426571D01*
X86863952Y-79378952D01*
X86863952Y-79259904D01*
X86840142Y-79212285D01*
X86816333Y-79188476D01*
X86768714Y-79164666D01*
X86673476Y-79164666D01*
X86625857Y-79188476D01*
X86602047Y-79212285D01*
X86578238Y-79259904D01*
D16*
X82708714Y-62653785D02*
X82746809Y-62691880D01*
X82784904Y-62806166D01*
X82784904Y-62882357D01*
X82746809Y-62996642D01*
X82670619Y-63072833D01*
X82594428Y-63110928D01*
X82442047Y-63149023D01*
X82327761Y-63149023D01*
X82175380Y-63110928D01*
X82099190Y-63072833D01*
X82023000Y-62996642D01*
X81984904Y-62882357D01*
X81984904Y-62806166D01*
X82023000Y-62691880D01*
X82061095Y-62653785D01*
X82784904Y-61891880D02*
X82784904Y-62349023D01*
X82784904Y-62120452D02*
X81984904Y-62120452D01*
X82099190Y-62196642D01*
X82175380Y-62272833D01*
X82213476Y-62349023D01*
X81984904Y-61625214D02*
X81984904Y-61091880D01*
X82784904Y-61434738D01*
X96297714Y-60875785D02*
X96335809Y-60913880D01*
X96373904Y-61028166D01*
X96373904Y-61104357D01*
X96335809Y-61218642D01*
X96259619Y-61294833D01*
X96183428Y-61332928D01*
X96031047Y-61371023D01*
X95916761Y-61371023D01*
X95764380Y-61332928D01*
X95688190Y-61294833D01*
X95612000Y-61218642D01*
X95573904Y-61104357D01*
X95573904Y-61028166D01*
X95612000Y-60913880D01*
X95650095Y-60875785D01*
X96373904Y-60113880D02*
X96373904Y-60571023D01*
X96373904Y-60342452D02*
X95573904Y-60342452D01*
X95688190Y-60418642D01*
X95764380Y-60494833D01*
X95802476Y-60571023D01*
X95916761Y-59656738D02*
X95878666Y-59732928D01*
X95840571Y-59771023D01*
X95764380Y-59809119D01*
X95726285Y-59809119D01*
X95650095Y-59771023D01*
X95612000Y-59732928D01*
X95573904Y-59656738D01*
X95573904Y-59504357D01*
X95612000Y-59428166D01*
X95650095Y-59390071D01*
X95726285Y-59351976D01*
X95764380Y-59351976D01*
X95840571Y-59390071D01*
X95878666Y-59428166D01*
X95916761Y-59504357D01*
X95916761Y-59656738D01*
X95954857Y-59732928D01*
X95992952Y-59771023D01*
X96069142Y-59809119D01*
X96221523Y-59809119D01*
X96297714Y-59771023D01*
X96335809Y-59732928D01*
X96373904Y-59656738D01*
X96373904Y-59504357D01*
X96335809Y-59428166D01*
X96297714Y-59390071D01*
X96221523Y-59351976D01*
X96069142Y-59351976D01*
X95992952Y-59390071D01*
X95954857Y-59428166D01*
X95916761Y-59504357D01*
D11*
X84891904Y-152812380D02*
X84891904Y-151812380D01*
X85130000Y-151812380D01*
X85272857Y-151860000D01*
X85368095Y-151955238D01*
X85415714Y-152050476D01*
X85463333Y-152240952D01*
X85463333Y-152383809D01*
X85415714Y-152574285D01*
X85368095Y-152669523D01*
X85272857Y-152764761D01*
X85130000Y-152812380D01*
X84891904Y-152812380D01*
X86415714Y-152812380D02*
X85844285Y-152812380D01*
X86130000Y-152812380D02*
X86130000Y-151812380D01*
X86034761Y-151955238D01*
X85939523Y-152050476D01*
X85844285Y-152098095D01*
X83042380Y-165298095D02*
X82042380Y-165298095D01*
X82042380Y-165060000D01*
X82090000Y-164917142D01*
X82185238Y-164821904D01*
X82280476Y-164774285D01*
X82470952Y-164726666D01*
X82613809Y-164726666D01*
X82804285Y-164774285D01*
X82899523Y-164821904D01*
X82994761Y-164917142D01*
X83042380Y-165060000D01*
X83042380Y-165298095D01*
X82137619Y-164345714D02*
X82090000Y-164298095D01*
X82042380Y-164202857D01*
X82042380Y-163964761D01*
X82090000Y-163869523D01*
X82137619Y-163821904D01*
X82232857Y-163774285D01*
X82328095Y-163774285D01*
X82470952Y-163821904D01*
X83042380Y-164393333D01*
X83042380Y-163774285D01*
X73937904Y-76398380D02*
X73937904Y-75398380D01*
X74176000Y-75398380D01*
X74318857Y-75446000D01*
X74414095Y-75541238D01*
X74461714Y-75636476D01*
X74509333Y-75826952D01*
X74509333Y-75969809D01*
X74461714Y-76160285D01*
X74414095Y-76255523D01*
X74318857Y-76350761D01*
X74176000Y-76398380D01*
X73937904Y-76398380D01*
X75414095Y-75398380D02*
X74937904Y-75398380D01*
X74890285Y-75874571D01*
X74937904Y-75826952D01*
X75033142Y-75779333D01*
X75271238Y-75779333D01*
X75366476Y-75826952D01*
X75414095Y-75874571D01*
X75461714Y-75969809D01*
X75461714Y-76207904D01*
X75414095Y-76303142D01*
X75366476Y-76350761D01*
X75271238Y-76398380D01*
X75033142Y-76398380D01*
X74937904Y-76350761D01*
X74890285Y-76303142D01*
X72339380Y-60526095D02*
X71339380Y-60526095D01*
X71339380Y-60288000D01*
X71387000Y-60145142D01*
X71482238Y-60049904D01*
X71577476Y-60002285D01*
X71767952Y-59954666D01*
X71910809Y-59954666D01*
X72101285Y-60002285D01*
X72196523Y-60049904D01*
X72291761Y-60145142D01*
X72339380Y-60288000D01*
X72339380Y-60526095D01*
X71339380Y-59097523D02*
X71339380Y-59288000D01*
X71387000Y-59383238D01*
X71434619Y-59430857D01*
X71577476Y-59526095D01*
X71767952Y-59573714D01*
X72148904Y-59573714D01*
X72244142Y-59526095D01*
X72291761Y-59478476D01*
X72339380Y-59383238D01*
X72339380Y-59192761D01*
X72291761Y-59097523D01*
X72244142Y-59049904D01*
X72148904Y-59002285D01*
X71910809Y-59002285D01*
X71815571Y-59049904D01*
X71767952Y-59097523D01*
X71720333Y-59192761D01*
X71720333Y-59383238D01*
X71767952Y-59478476D01*
X71815571Y-59526095D01*
X71910809Y-59573714D01*
X128608306Y-163477831D02*
X128887399Y-164135335D01*
X128899385Y-164285442D01*
X128848930Y-164410321D01*
X128736035Y-164509974D01*
X128648368Y-164547186D01*
X128958974Y-163328981D02*
X129528811Y-163087100D01*
X129370826Y-163568012D01*
X129502326Y-163512194D01*
X129608600Y-163518815D01*
X129671039Y-163544042D01*
X129752086Y-163613103D01*
X129845117Y-163832271D01*
X129838496Y-163938544D01*
X129813268Y-164000984D01*
X129744207Y-164082030D01*
X129481206Y-164193667D01*
X129374933Y-164187046D01*
X129312493Y-164161819D01*
X166942380Y-97313333D02*
X167656666Y-97313333D01*
X167799523Y-97360952D01*
X167894761Y-97456190D01*
X167942380Y-97599047D01*
X167942380Y-97694285D01*
X166942380Y-96360952D02*
X166942380Y-96837142D01*
X167418571Y-96884761D01*
X167370952Y-96837142D01*
X167323333Y-96741904D01*
X167323333Y-96503809D01*
X167370952Y-96408571D01*
X167418571Y-96360952D01*
X167513809Y-96313333D01*
X167751904Y-96313333D01*
X167847142Y-96360952D01*
X167894761Y-96408571D01*
X167942380Y-96503809D01*
X167942380Y-96741904D01*
X167894761Y-96837142D01*
X167847142Y-96884761D01*
D14*
X50208666Y-115034190D02*
X49970571Y-115034190D01*
X49970571Y-114534190D01*
X50637238Y-115034190D02*
X50351523Y-115034190D01*
X50494380Y-115034190D02*
X50494380Y-114534190D01*
X50446761Y-114605619D01*
X50399142Y-114653238D01*
X50351523Y-114677047D01*
D11*
X78557380Y-70468666D02*
X78557380Y-70944857D01*
X77557380Y-70944857D01*
X77652619Y-70182952D02*
X77605000Y-70135333D01*
X77557380Y-70040095D01*
X77557380Y-69802000D01*
X77605000Y-69706761D01*
X77652619Y-69659142D01*
X77747857Y-69611523D01*
X77843095Y-69611523D01*
X77985952Y-69659142D01*
X78557380Y-70230571D01*
X78557380Y-69611523D01*
D15*
X120602380Y-61233809D02*
X120554761Y-61210000D01*
X120507142Y-61162380D01*
X120435714Y-61090952D01*
X120388095Y-61067142D01*
X120340476Y-61067142D01*
X120364285Y-61186190D02*
X120316666Y-61162380D01*
X120269047Y-61114761D01*
X120245238Y-61019523D01*
X120245238Y-60852857D01*
X120269047Y-60757619D01*
X120316666Y-60710000D01*
X120364285Y-60686190D01*
X120459523Y-60686190D01*
X120507142Y-60710000D01*
X120554761Y-60757619D01*
X120578571Y-60852857D01*
X120578571Y-61019523D01*
X120554761Y-61114761D01*
X120507142Y-61162380D01*
X120459523Y-61186190D01*
X120364285Y-61186190D01*
X120769047Y-60733809D02*
X120792857Y-60710000D01*
X120840476Y-60686190D01*
X120959523Y-60686190D01*
X121007142Y-60710000D01*
X121030952Y-60733809D01*
X121054761Y-60781428D01*
X121054761Y-60829047D01*
X121030952Y-60900476D01*
X120745238Y-61186190D01*
X121054761Y-61186190D01*
X159023809Y-135937619D02*
X159000000Y-135985238D01*
X158952380Y-136032857D01*
X158880952Y-136104285D01*
X158857142Y-136151904D01*
X158857142Y-136199523D01*
X158976190Y-136175714D02*
X158952380Y-136223333D01*
X158904761Y-136270952D01*
X158809523Y-136294761D01*
X158642857Y-136294761D01*
X158547619Y-136270952D01*
X158500000Y-136223333D01*
X158476190Y-136175714D01*
X158476190Y-136080476D01*
X158500000Y-136032857D01*
X158547619Y-135985238D01*
X158642857Y-135961428D01*
X158809523Y-135961428D01*
X158904761Y-135985238D01*
X158952380Y-136032857D01*
X158976190Y-136080476D01*
X158976190Y-136175714D01*
X158642857Y-135532857D02*
X158976190Y-135532857D01*
X158452380Y-135651904D02*
X158809523Y-135770952D01*
X158809523Y-135461428D01*
D14*
X58646190Y-98118333D02*
X58408095Y-98285000D01*
X58646190Y-98404047D02*
X58146190Y-98404047D01*
X58146190Y-98213571D01*
X58170000Y-98165952D01*
X58193809Y-98142142D01*
X58241428Y-98118333D01*
X58312857Y-98118333D01*
X58360476Y-98142142D01*
X58384285Y-98165952D01*
X58408095Y-98213571D01*
X58408095Y-98404047D01*
X58646190Y-97642142D02*
X58646190Y-97927857D01*
X58646190Y-97785000D02*
X58146190Y-97785000D01*
X58217619Y-97832619D01*
X58265238Y-97880238D01*
X58289047Y-97927857D01*
X61694190Y-118456333D02*
X61456095Y-118623000D01*
X61694190Y-118742047D02*
X61194190Y-118742047D01*
X61194190Y-118551571D01*
X61218000Y-118503952D01*
X61241809Y-118480142D01*
X61289428Y-118456333D01*
X61360857Y-118456333D01*
X61408476Y-118480142D01*
X61432285Y-118503952D01*
X61456095Y-118551571D01*
X61456095Y-118742047D01*
X61241809Y-118265857D02*
X61218000Y-118242047D01*
X61194190Y-118194428D01*
X61194190Y-118075380D01*
X61218000Y-118027761D01*
X61241809Y-118003952D01*
X61289428Y-117980142D01*
X61337047Y-117980142D01*
X61408476Y-118003952D01*
X61694190Y-118289666D01*
X61694190Y-117980142D01*
X64931666Y-106906190D02*
X64765000Y-106668095D01*
X64645952Y-106906190D02*
X64645952Y-106406190D01*
X64836428Y-106406190D01*
X64884047Y-106430000D01*
X64907857Y-106453809D01*
X64931666Y-106501428D01*
X64931666Y-106572857D01*
X64907857Y-106620476D01*
X64884047Y-106644285D01*
X64836428Y-106668095D01*
X64645952Y-106668095D01*
X65098333Y-106406190D02*
X65407857Y-106406190D01*
X65241190Y-106596666D01*
X65312619Y-106596666D01*
X65360238Y-106620476D01*
X65384047Y-106644285D01*
X65407857Y-106691904D01*
X65407857Y-106810952D01*
X65384047Y-106858571D01*
X65360238Y-106882380D01*
X65312619Y-106906190D01*
X65169761Y-106906190D01*
X65122142Y-106882380D01*
X65098333Y-106858571D01*
X64931666Y-100556190D02*
X64765000Y-100318095D01*
X64645952Y-100556190D02*
X64645952Y-100056190D01*
X64836428Y-100056190D01*
X64884047Y-100080000D01*
X64907857Y-100103809D01*
X64931666Y-100151428D01*
X64931666Y-100222857D01*
X64907857Y-100270476D01*
X64884047Y-100294285D01*
X64836428Y-100318095D01*
X64645952Y-100318095D01*
X65360238Y-100222857D02*
X65360238Y-100556190D01*
X65241190Y-100032380D02*
X65122142Y-100389523D01*
X65431666Y-100389523D01*
D13*
X132396666Y-61443333D02*
X132063333Y-61676666D01*
X132396666Y-61843333D02*
X131696666Y-61843333D01*
X131696666Y-61576666D01*
X131730000Y-61510000D01*
X131763333Y-61476666D01*
X131830000Y-61443333D01*
X131930000Y-61443333D01*
X131996666Y-61476666D01*
X132030000Y-61510000D01*
X132063333Y-61576666D01*
X132063333Y-61843333D01*
X132396666Y-61143333D02*
X131696666Y-61143333D01*
X132396666Y-60743333D01*
X131696666Y-60743333D01*
X131763333Y-60443333D02*
X131730000Y-60410000D01*
X131696666Y-60343333D01*
X131696666Y-60176666D01*
X131730000Y-60110000D01*
X131763333Y-60076666D01*
X131830000Y-60043333D01*
X131896666Y-60043333D01*
X131996666Y-60076666D01*
X132396666Y-60476666D01*
X132396666Y-60043333D01*
D11*
X73640904Y-81959380D02*
X73259952Y-82226047D01*
X73640904Y-82416523D02*
X72840904Y-82416523D01*
X72840904Y-82111761D01*
X72879000Y-82035571D01*
X72917095Y-81997476D01*
X72993285Y-81959380D01*
X73107571Y-81959380D01*
X73183761Y-81997476D01*
X73221857Y-82035571D01*
X73259952Y-82111761D01*
X73259952Y-82416523D01*
X73640904Y-81616523D02*
X72840904Y-81616523D01*
X73640904Y-81159380D01*
X72840904Y-81159380D01*
X72840904Y-80854619D02*
X72840904Y-80359380D01*
X73145666Y-80626047D01*
X73145666Y-80511761D01*
X73183761Y-80435571D01*
X73221857Y-80397476D01*
X73298047Y-80359380D01*
X73488523Y-80359380D01*
X73564714Y-80397476D01*
X73602809Y-80435571D01*
X73640904Y-80511761D01*
X73640904Y-80740333D01*
X73602809Y-80816523D01*
X73564714Y-80854619D01*
X142763333Y-90776333D02*
X142763333Y-91569666D01*
X142810000Y-91663000D01*
X142856666Y-91709666D01*
X142950000Y-91756333D01*
X143136666Y-91756333D01*
X143230000Y-91709666D01*
X143276666Y-91663000D01*
X143323333Y-91569666D01*
X143323333Y-90776333D01*
X143743333Y-90869666D02*
X143790000Y-90823000D01*
X143883333Y-90776333D01*
X144116666Y-90776333D01*
X144210000Y-90823000D01*
X144256666Y-90869666D01*
X144303333Y-90963000D01*
X144303333Y-91056333D01*
X144256666Y-91196333D01*
X143696666Y-91756333D01*
X144303333Y-91756333D01*
D17*
X56739285Y-109791428D02*
X57346428Y-109791428D01*
X57417857Y-109755714D01*
X57453571Y-109720000D01*
X57489285Y-109648571D01*
X57489285Y-109505714D01*
X57453571Y-109434285D01*
X57417857Y-109398571D01*
X57346428Y-109362857D01*
X56739285Y-109362857D01*
X56989285Y-108684285D02*
X57489285Y-108684285D01*
X56703571Y-108862857D02*
X57239285Y-109041428D01*
X57239285Y-108577142D01*
D11*
X67579333Y-69313333D02*
X67579333Y-70106666D01*
X67626000Y-70200000D01*
X67672666Y-70246666D01*
X67766000Y-70293333D01*
X67952666Y-70293333D01*
X68046000Y-70246666D01*
X68092666Y-70200000D01*
X68139333Y-70106666D01*
X68139333Y-69313333D01*
X69072666Y-69313333D02*
X68606000Y-69313333D01*
X68559333Y-69780000D01*
X68606000Y-69733333D01*
X68699333Y-69686666D01*
X68932666Y-69686666D01*
X69026000Y-69733333D01*
X69072666Y-69780000D01*
X69119333Y-69873333D01*
X69119333Y-70106666D01*
X69072666Y-70200000D01*
X69026000Y-70246666D01*
X68932666Y-70293333D01*
X68699333Y-70293333D01*
X68606000Y-70246666D01*
X68559333Y-70200000D01*
M02*
