M48
; DRILL file {KiCad 5.1.5-52549c5~84~ubuntu18.04.1} date Tue 04 Feb 2020 04:57:17 PM EST
; FORMAT={3:3/ absolute / metric / suppress leading zeros}
; #@! TF.CreationDate,2020-02-04T16:57:17-05:00
; #@! TF.GenerationSoftware,Kicad,Pcbnew,5.1.5-52549c5~84~ubuntu18.04.1
FMAT,2
METRIC,TZ
T1C0.400
T2C0.800
T3C1.000
T4C1.200
T5C1.300
T6C1.800
T7C3.200
T8C10.160
T9C1.300
T10C3.000
T11C3.200
%
G90
G05
T1
X28000Y-105000
X36830Y-75946
X47278Y-79087
X48727Y-116794
X50000Y-97000
X51365Y-137865
X51965Y-137265
X52070Y-106680
X52095Y-144805
X52124Y-125041
X52705Y-109220
X52815Y-136415
X53340Y-107950
X53495Y-146205
X54102Y-74676
X56515Y-99060
X56515Y-100330
X56836Y-146536
X57150Y-121285
X58536Y-144836
X59055Y-121285
X60325Y-121285
X60379Y-133296
X60706Y-74676
X60960Y-43434
X60960Y-109220
X61214Y-96012
X62230Y-121285
X62644Y-92599
X63246Y-44704
X63246Y-109474
X65786Y-44704
X66040Y-112198
X67000Y-130000
X67000Y-131750
X67000Y-134250
X67310Y-94742
X67351Y-64899
X67351Y-72851
X67399Y-136851
X67818Y-97282
X68973Y-88679
X68973Y-137859
X71081Y-142914
X72825Y-54175
X72898Y-70358
X72912Y-59338
X74199Y-59338
X75438Y-101092
X75692Y-97282
X80732Y-92599
X84328Y-74676
X85388Y-155278
X86106Y-75946
X87086Y-58246
X87086Y-59600
X87461Y-50969
X87461Y-52290
X87948Y-49213
X88571Y-82391
X91631Y-116978
X91723Y-144497
X92000Y-83000
X92000Y-156750
X92607Y-138327
X93000Y-78000
X94000Y-83000
X95781Y-65160
X97946Y-41609
X99361Y-41609
X99905Y-128905
X101250Y-159500
X101500Y-23750
X101500Y-24795
X101600Y-32690
X102470Y-45312
X105540Y-166614
X105612Y-57987
X106045Y-26670
X106629Y-127314
X106766Y-136666
X107000Y-80000
X109750Y-33000
X111217Y-164686
X113000Y-85000
X114300Y-34925
X114877Y-59748
X115443Y-91567
X115443Y-113157
X115570Y-51435
X116840Y-72136
X117074Y-91841
X117074Y-112796
X118618Y-64897
X118661Y-76919
X120650Y-91440
X120650Y-113030
X120650Y-119958
X120943Y-57183
X122555Y-113665
X123190Y-67945
X123215Y-166614
X126405Y-123584
X127411Y-61354
X127411Y-91664
X127411Y-113254
X128904Y-91441
X128904Y-113031
X130423Y-91192
X130423Y-112782
X130810Y-43815
X130810Y-148590
X131635Y-66492
X131635Y-91250
X131635Y-109665
X132703Y-113241
X134000Y-85000
X134000Y-107000
X134125Y-59000
X134620Y-41148
X134620Y-43180
X134620Y-45212
X135070Y-155329
X135366Y-134683
X135606Y-119958
X135890Y-62865
X137000Y-107000
X137808Y-90881
X137904Y-145306
X139050Y-66950
X140000Y-107000
X140081Y-147193
X140915Y-136471
X141320Y-148690
X141932Y-128270
X142000Y-138000
X142240Y-114935
X142429Y-83948
X142747Y-85960
X142751Y-96772
X142820Y-150160
X143000Y-107000
X143199Y-94210
X143223Y-91475
X143510Y-88319
X143773Y-76919
X143773Y-84152
X143910Y-151490
X143925Y-93120
X144282Y-133104
X144408Y-86460
X145101Y-143899
X146685Y-45085
X146685Y-124460
X147000Y-141000
X147000Y-144000
X147704Y-132137
X148082Y-154559
X148655Y-104072
X148655Y-112198
X149000Y-58000
X149000Y-146000
X149840Y-134110
X150876Y-60198
X151000Y-84000
X151000Y-152000
X151765Y-55626
X152230Y-137580
X152254Y-120683
X152400Y-46990
X152812Y-113241
X152866Y-79206
X154111Y-124309
X154630Y-113318
X154950Y-135718
X155204Y-86460
X156000Y-134000
X156187Y-128678
X156300Y-107300
X156789Y-113318
X157000Y-95000
X157000Y-99000
X159004Y-55626
X159142Y-134340
X160125Y-125469
X160504Y-119958
X160969Y-137969
X161000Y-140000
X161350Y-134650
X162072Y-104072
X162555Y-124768
X163284Y-117110
X163830Y-123190
X171000Y-88000
X171450Y-120650
T2
X94030Y-96520
X95875Y-92065
X95875Y-100975
X100330Y-90220
X100330Y-102820
X104785Y-92065
X104785Y-100975
X106630Y-96520
T3
X164393Y-90816
X164393Y-93586
X164393Y-96356
X164393Y-99126
X164393Y-101896
X167233Y-92201
X167233Y-94971
X167233Y-97741
X167233Y-100511
X33309Y-92305
X33309Y-95075
X33309Y-97845
X33309Y-100615
X36149Y-90920
X36149Y-93690
X36149Y-96460
X36149Y-99230
X36149Y-102000
T4
X48260Y-140970
X50028Y-142738
T5
X77470Y-118110
X77470Y-123190
X164000Y-134000
X166147Y-129396
X35560Y-121285
X35560Y-126365
X64770Y-56515
X64770Y-61595
T6
X119860Y-45740
X121920Y-40640
X73152Y-44704
X75301Y-49767
X78399Y-42477
X80548Y-47540
X83646Y-40250
X85795Y-45312
X121041Y-144797
X123190Y-149860
T7
X165813Y-83856
X165813Y-108856
X34729Y-83960
X34729Y-108960
T8
X100330Y-96520
T9
X48196Y-142801
T10
X70300Y-37984
X80793Y-33530
X126042Y-156580
T11
X119321Y-35060
X127666Y-38432
T0
M30
