G04 #@! TF.GenerationSoftware,KiCad,Pcbnew,5.1.4-e60b266~84~ubuntu18.04.1*
G04 #@! TF.CreationDate,2019-11-06T15:19:43-05:00*
G04 #@! TF.ProjectId,datapod,64617461-706f-4642-9e6b-696361645f70,1*
G04 #@! TF.SameCoordinates,Original*
G04 #@! TF.FileFunction,Other,User*
%FSLAX46Y46*%
G04 Gerber Fmt 4.6, Leading zero omitted, Abs format (unit mm)*
G04 Created by KiCad (PCBNEW 5.1.4-e60b266~84~ubuntu18.04.1) date 2019-11-06 15:19:43*
%MOMM*%
%LPD*%
G04 APERTURE LIST*
%ADD10C,0.050000*%
G04 APERTURE END LIST*
D10*
X144293213Y-120404188D02*
X143303264Y-119414239D01*
X144788188Y-119909213D02*
X144293213Y-120404188D01*
X143798239Y-118919264D02*
X144788188Y-119909213D01*
X143303264Y-119414239D02*
X143798239Y-118919264D01*
X112240000Y-49110000D02*
X112240000Y-56110000D01*
X112240000Y-56110000D02*
X108740000Y-56110000D01*
X108740000Y-56110000D02*
X108740000Y-49110000D01*
X108740000Y-49110000D02*
X112240000Y-49110000D01*
X154830000Y-110650000D02*
X154830000Y-105250000D01*
X154830000Y-105250000D02*
X147430000Y-105250000D01*
X147430000Y-105250000D02*
X147430000Y-110650000D01*
X147430000Y-110650000D02*
X154830000Y-110650000D01*
X148619538Y-124095513D02*
X149114513Y-123600538D01*
X149114513Y-123600538D02*
X150104462Y-124590487D01*
X150104462Y-124590487D02*
X149609487Y-125085462D01*
X149609487Y-125085462D02*
X148619538Y-124095513D01*
X142986183Y-121941862D02*
X140864862Y-124063183D01*
X140864862Y-124063183D02*
X144541817Y-127740138D01*
X144541817Y-127740138D02*
X146663138Y-125618817D01*
X146663138Y-125618817D02*
X142986183Y-121941862D01*
X162200000Y-119810000D02*
X155300000Y-119810000D01*
X162200000Y-129110000D02*
X155300000Y-129110000D01*
X155300000Y-129110000D02*
X155300000Y-119810000D01*
X162200000Y-129110000D02*
X162200000Y-119810000D01*
X156281654Y-144905611D02*
X130684389Y-119308346D01*
X130684389Y-119308346D02*
X123118346Y-126874389D01*
X123118346Y-126874389D02*
X148715611Y-152471654D01*
X148715611Y-152471654D02*
X156281654Y-144905611D01*
X87310000Y-136335000D02*
X87310000Y-140035000D01*
X85410000Y-136335000D02*
X87310000Y-136335000D01*
X85410000Y-140035000D02*
X85410000Y-136335000D01*
X87310000Y-140035000D02*
X85410000Y-140035000D01*
X94400000Y-125410000D02*
X94400000Y-136210000D01*
X94400000Y-136210000D02*
X106260000Y-136210000D01*
X106260000Y-136210000D02*
X106260000Y-125410000D01*
X106260000Y-125410000D02*
X94400000Y-125410000D01*
X114430000Y-165430000D02*
X114430000Y-162230000D01*
X111630000Y-165430000D02*
X111630000Y-162230000D01*
X111630000Y-165430000D02*
X114430000Y-165430000D01*
X114430000Y-162230000D02*
X111630000Y-162230000D01*
X94980000Y-170520000D02*
X105680000Y-170520000D01*
X94980000Y-149520000D02*
X94980000Y-170520000D01*
X105680000Y-149520000D02*
X94980000Y-149520000D01*
X105680000Y-170520000D02*
X105680000Y-149520000D01*
X38805982Y-138785040D02*
X57516028Y-157495085D01*
X57516028Y-157495085D02*
X67061969Y-147949144D01*
X67061969Y-147949144D02*
X48351924Y-129239099D01*
X48351924Y-129239099D02*
X38805982Y-138785040D01*
X26400000Y-112940000D02*
X39950000Y-112940000D01*
X39950000Y-112940000D02*
X39950000Y-81040000D01*
X39950000Y-81040000D02*
X26400000Y-81040000D01*
X26400000Y-81040000D02*
X26400000Y-112940000D01*
X51031540Y-48221160D02*
G75*
G03X38667982Y-66560873I-2771540J-11468840D01*
G01*
X45488460Y-71158840D02*
G75*
G03X57852018Y-52819127I2771540J11468840D01*
G01*
X38667982Y-66560873D02*
X35653932Y-71029385D01*
X35653932Y-71029385D02*
X42468621Y-75625951D01*
X42468621Y-75625951D02*
X45482671Y-71157438D01*
X60866068Y-48350615D02*
X57852018Y-52819127D01*
X60866068Y-48350615D02*
X54051379Y-43754049D01*
X54051379Y-43754049D02*
X51037329Y-48222562D01*
X63356552Y-31045611D02*
X72831781Y-53367854D01*
X72831781Y-53367854D02*
X90100453Y-46037738D01*
X90100453Y-46037738D02*
X80625223Y-23715495D01*
X80625223Y-23715495D02*
X63356552Y-31045611D01*
X105680000Y-22520000D02*
X94980000Y-22520000D01*
X105680000Y-43520000D02*
X105680000Y-22520000D01*
X94980000Y-43520000D02*
X105680000Y-43520000D01*
X94980000Y-22520000D02*
X94980000Y-43520000D01*
X110800000Y-23650000D02*
X117800000Y-23650000D01*
X117800000Y-23650000D02*
X117800000Y-27150000D01*
X117800000Y-27150000D02*
X110800000Y-27150000D01*
X110800000Y-27150000D02*
X110800000Y-23650000D01*
X127314335Y-27288552D02*
X124347347Y-26089811D01*
X124347347Y-26089811D02*
X121874943Y-32209225D01*
X121874943Y-32209225D02*
X117239024Y-30336192D01*
X117239024Y-30336192D02*
X114541856Y-37011916D01*
X114541856Y-37011916D02*
X120429474Y-39390667D01*
X120429474Y-39390667D02*
X117264048Y-47225371D01*
X117264048Y-47225371D02*
X118979338Y-47918393D01*
X127314335Y-27288552D02*
X130281323Y-28487294D01*
X130281323Y-28487294D02*
X127808920Y-34606707D01*
X127808920Y-34606707D02*
X132444839Y-36479740D01*
X132444839Y-36479740D02*
X129747672Y-43155464D01*
X129747672Y-43155464D02*
X123860054Y-40776712D01*
X123860054Y-40776712D02*
X120694628Y-48611415D01*
X120694628Y-48611415D02*
X118979338Y-47918393D01*
X135750000Y-40380000D02*
X135750000Y-45980000D01*
X143650000Y-40380000D02*
X143650000Y-45980000D01*
X135750000Y-40380000D02*
X143650000Y-40380000D01*
X135750000Y-45980000D02*
X143650000Y-45980000D01*
X144011688Y-55188372D02*
X156198541Y-46968237D01*
X144011688Y-55188372D02*
X153048246Y-68585620D01*
X156198541Y-46968237D02*
X165235098Y-60365484D01*
X153048246Y-68585620D02*
X165235098Y-60365484D01*
X108980000Y-96520000D02*
G75*
G03X108980000Y-96520000I-8650000J0D01*
G01*
X133797000Y-86279000D02*
X135697000Y-86279000D01*
X135697000Y-86279000D02*
X135697000Y-89979000D01*
X135697000Y-89979000D02*
X133797000Y-89979000D01*
X133797000Y-89979000D02*
X133797000Y-86279000D01*
X151196000Y-89725000D02*
X151196000Y-86025000D01*
X153096000Y-89725000D02*
X151196000Y-89725000D01*
X153096000Y-86025000D02*
X153096000Y-89725000D01*
X151196000Y-86025000D02*
X153096000Y-86025000D01*
X144598000Y-81722000D02*
X140898000Y-81722000D01*
X144598000Y-79822000D02*
X144598000Y-81722000D01*
X140898000Y-79822000D02*
X144598000Y-79822000D01*
X140898000Y-81722000D02*
X140898000Y-79822000D01*
X133924000Y-91359000D02*
X135824000Y-91359000D01*
X135824000Y-91359000D02*
X135824000Y-95059000D01*
X135824000Y-95059000D02*
X133924000Y-95059000D01*
X133924000Y-95059000D02*
X133924000Y-91359000D01*
X168590000Y-124795000D02*
X166690000Y-124795000D01*
X166690000Y-124795000D02*
X166690000Y-121095000D01*
X166690000Y-121095000D02*
X168590000Y-121095000D01*
X168590000Y-121095000D02*
X168590000Y-124795000D01*
X55698000Y-96078000D02*
X55698000Y-97978000D01*
X55698000Y-97978000D02*
X51998000Y-97978000D01*
X51998000Y-97978000D02*
X51998000Y-96078000D01*
X51998000Y-96078000D02*
X55698000Y-96078000D01*
X53914000Y-117420000D02*
X53914000Y-113720000D01*
X55814000Y-117420000D02*
X53914000Y-117420000D01*
X55814000Y-113720000D02*
X55814000Y-117420000D01*
X53914000Y-113720000D02*
X55814000Y-113720000D01*
X66865000Y-96205000D02*
X66865000Y-98105000D01*
X66865000Y-98105000D02*
X63165000Y-98105000D01*
X63165000Y-98105000D02*
X63165000Y-96205000D01*
X63165000Y-96205000D02*
X66865000Y-96205000D01*
X66865000Y-104455000D02*
X63165000Y-104455000D01*
X66865000Y-102555000D02*
X66865000Y-104455000D01*
X63165000Y-102555000D02*
X66865000Y-102555000D01*
X63165000Y-104455000D02*
X63165000Y-102555000D01*
X57216000Y-120205000D02*
X57216000Y-116505000D01*
X59116000Y-120205000D02*
X57216000Y-120205000D01*
X59116000Y-116505000D02*
X59116000Y-120205000D01*
X57216000Y-116505000D02*
X59116000Y-116505000D01*
X49847000Y-118938000D02*
X49847000Y-120838000D01*
X49847000Y-120838000D02*
X46147000Y-120838000D01*
X46147000Y-120838000D02*
X46147000Y-118938000D01*
X46147000Y-118938000D02*
X49847000Y-118938000D01*
X70792500Y-79987000D02*
X70792500Y-77747000D01*
X70792500Y-77747000D02*
X75692500Y-77747000D01*
X75692500Y-77747000D02*
X75692500Y-79987000D01*
X75692500Y-79987000D02*
X70792500Y-79987000D01*
X91554000Y-64676000D02*
X86754000Y-64676000D01*
X86754000Y-64676000D02*
X86754000Y-55516000D01*
X86754000Y-55516000D02*
X91554000Y-55516000D01*
X91554000Y-55516000D02*
X91554000Y-64676000D01*
X84383000Y-80198000D02*
X84383000Y-78298000D01*
X84383000Y-78298000D02*
X88083000Y-78298000D01*
X88083000Y-78298000D02*
X88083000Y-80198000D01*
X88083000Y-80198000D02*
X84383000Y-80198000D01*
X83543000Y-59689500D02*
X83543000Y-64589500D01*
X81303000Y-59689500D02*
X83543000Y-59689500D01*
X81303000Y-64589500D02*
X81303000Y-59689500D01*
X83543000Y-64589500D02*
X81303000Y-64589500D01*
X97132000Y-62811500D02*
X94892000Y-62811500D01*
X94892000Y-62811500D02*
X94892000Y-57911500D01*
X94892000Y-57911500D02*
X97132000Y-57911500D01*
X97132000Y-57911500D02*
X97132000Y-62811500D01*
X89130000Y-148110000D02*
X89130000Y-151610000D01*
X82130000Y-148110000D02*
X89130000Y-148110000D01*
X82130000Y-151610000D02*
X82130000Y-148110000D01*
X89130000Y-151610000D02*
X82130000Y-151610000D01*
X86840000Y-168060000D02*
X83340000Y-168060000D01*
X86840000Y-161060000D02*
X86840000Y-168060000D01*
X83340000Y-161060000D02*
X86840000Y-161060000D01*
X83340000Y-168060000D02*
X83340000Y-161060000D01*
X73386000Y-74611000D02*
X73386000Y-76011000D01*
X70886000Y-74611000D02*
X73386000Y-74611000D01*
X70886000Y-76011000D02*
X70886000Y-74611000D01*
X73386000Y-76011000D02*
X70886000Y-76011000D01*
X70437000Y-64688000D02*
X70437000Y-54888000D01*
X70437000Y-54888000D02*
X77137000Y-54888000D01*
X77137000Y-54888000D02*
X77137000Y-64688000D01*
X77137000Y-64688000D02*
X70437000Y-64688000D01*
X133905953Y-163127658D02*
X124430723Y-140805415D01*
X124430723Y-140805415D02*
X115814798Y-144462659D01*
X115814798Y-144462659D02*
X125290028Y-166784901D01*
X125290028Y-166784901D02*
X133905953Y-163127658D01*
X174260000Y-81040000D02*
X160710000Y-81040000D01*
X160710000Y-81040000D02*
X160710000Y-112940000D01*
X160710000Y-112940000D02*
X174260000Y-112940000D01*
X174260000Y-112940000D02*
X174260000Y-81040000D01*
X48442000Y-115758000D02*
X48442000Y-113858000D01*
X48442000Y-113858000D02*
X52142000Y-113858000D01*
X52142000Y-113858000D02*
X52142000Y-115758000D01*
X52142000Y-115758000D02*
X48442000Y-115758000D01*
X74605000Y-66802000D02*
X76155000Y-66802000D01*
X76155000Y-73802000D02*
X74605000Y-73802000D01*
X76155000Y-66802000D02*
X76155000Y-66202000D01*
X76155000Y-74402000D02*
X76155000Y-73802000D01*
X81605000Y-73802000D02*
X80055000Y-73802000D01*
X80055000Y-73802000D02*
X80055000Y-74402000D01*
X80055000Y-66802000D02*
X81605000Y-66802000D01*
X80055000Y-66202000D02*
X80055000Y-66802000D01*
X76155000Y-66202000D02*
X80055000Y-66202000D01*
X74605000Y-73802000D02*
X74605000Y-66802000D01*
X80055000Y-74402000D02*
X76155000Y-74402000D01*
X81605000Y-66802000D02*
X81605000Y-73802000D01*
X122050000Y-59360000D02*
X119250000Y-59360000D01*
X119250000Y-62560000D02*
X122050000Y-62560000D01*
X119250000Y-62560000D02*
X119250000Y-59360000D01*
X122050000Y-62560000D02*
X122050000Y-59360000D01*
X160350000Y-137290000D02*
X160350000Y-134490000D01*
X157150000Y-134490000D02*
X157150000Y-137290000D01*
X157150000Y-134490000D02*
X160350000Y-134490000D01*
X157150000Y-137290000D02*
X160350000Y-137290000D01*
X57470000Y-99885000D02*
X57470000Y-96185000D01*
X59370000Y-99885000D02*
X57470000Y-99885000D01*
X59370000Y-96185000D02*
X59370000Y-99885000D01*
X57470000Y-96185000D02*
X59370000Y-96185000D01*
X60518000Y-120223000D02*
X60518000Y-116523000D01*
X62418000Y-120223000D02*
X60518000Y-120223000D01*
X62418000Y-116523000D02*
X62418000Y-120223000D01*
X60518000Y-116523000D02*
X62418000Y-116523000D01*
X66865000Y-105730000D02*
X66865000Y-107630000D01*
X66865000Y-107630000D02*
X63165000Y-107630000D01*
X63165000Y-107630000D02*
X63165000Y-105730000D01*
X63165000Y-105730000D02*
X66865000Y-105730000D01*
X63165000Y-101280000D02*
X63165000Y-99380000D01*
X63165000Y-99380000D02*
X66865000Y-99380000D01*
X66865000Y-99380000D02*
X66865000Y-101280000D01*
X66865000Y-101280000D02*
X63165000Y-101280000D01*
X129870000Y-58110000D02*
X134280000Y-58110000D01*
X129870000Y-58110000D02*
X129870000Y-63810000D01*
X134280000Y-63810000D02*
X134280000Y-58110000D01*
X134280000Y-63810000D02*
X129870000Y-63810000D01*
X89838000Y-76348000D02*
X99138000Y-76348000D01*
X89838000Y-69448000D02*
X99138000Y-69448000D01*
X89838000Y-76348000D02*
X89838000Y-69448000D01*
X99138000Y-76348000D02*
X99138000Y-69448000D01*
X139810000Y-86113000D02*
X139810000Y-96513000D01*
X139810000Y-96513000D02*
X147210000Y-96513000D01*
X147210000Y-96513000D02*
X147210000Y-86113000D01*
X147210000Y-86113000D02*
X139810000Y-86113000D01*
X55400000Y-112370000D02*
X58900000Y-112370000D01*
X58900000Y-112370000D02*
X58900000Y-106070000D01*
X58900000Y-106070000D02*
X55400000Y-106070000D01*
X55400000Y-106070000D02*
X55400000Y-112370000D01*
X64626000Y-67150000D02*
X64626000Y-72550000D01*
X64626000Y-72550000D02*
X72026000Y-72550000D01*
X72026000Y-72550000D02*
X72026000Y-67150000D01*
X72026000Y-67150000D02*
X64626000Y-67150000D01*
M02*
