M48
; DRILL file {KiCad 5.1.4-e60b266~84~ubuntu18.04.1} date Wed 06 Nov 2019 11:48:29 AM EST
; FORMAT={3:3/ absolute / metric / suppress leading zeros}
; #@! TF.CreationDate,2019-11-06T11:48:29-05:00
; #@! TF.GenerationSoftware,Kicad,Pcbnew,5.1.4-e60b266~84~ubuntu18.04.1
FMAT,2
METRIC,TZ
T1C0.400
T2C1.000
T3C1.800
T4C2.800
T5C3.000
T6C3.200
T7C9.900
T8C3.000
T9C3.200
%
G90
G05
T1
X36830Y-75946
X37322Y-108093
X44314Y-115071
X46531Y-103320
X47278Y-79087
X48727Y-116794
X52070Y-106680
X52124Y-125041
X52705Y-109220
X53340Y-107950
X54102Y-74676
X59690Y-109220
X60379Y-133296
X60706Y-74676
X60960Y-43434
X60960Y-109220
X61214Y-96012
X62644Y-92599
X63246Y-109474
X66040Y-112198
X67310Y-94742
X67351Y-70278
X67818Y-97282
X68973Y-88679
X68973Y-137859
X71081Y-142914
X72825Y-54175
X72898Y-70358
X74199Y-59338
X75438Y-101092
X75692Y-97282
X80732Y-92599
X84328Y-74676
X85388Y-155278
X86106Y-75946
X87086Y-58246
X87461Y-52290
X88571Y-82391
X91631Y-116978
X91723Y-144497
X92607Y-138327
X93789Y-157035
X95781Y-65160
X97946Y-41609
X102382Y-159237
X102470Y-45312
X105540Y-166614
X105612Y-57987
X106629Y-127314
X106766Y-136666
X111217Y-164686
X114877Y-59748
X116840Y-72136
X118618Y-64897
X120650Y-119958
X120943Y-57183
X123215Y-166614
X124587Y-65786
X126405Y-123584
X127000Y-57404
X129032Y-62738
X130810Y-148590
X131635Y-66492
X132703Y-113241
X134620Y-41148
X134620Y-43180
X134620Y-45212
X135070Y-155329
X135108Y-122233
X135366Y-134683
X135606Y-119958
X135890Y-62865
X137808Y-90881
X137904Y-145306
X140081Y-147193
X140915Y-136471
X142429Y-83948
X142747Y-85960
X142751Y-96772
X142954Y-126916
X143199Y-94210
X143223Y-91475
X143510Y-88319
X143773Y-76919
X143773Y-84152
X143925Y-93120
X144282Y-133104
X144408Y-86460
X146642Y-132028
X146884Y-150205
X147320Y-124714
X147704Y-132137
X148082Y-154559
X148655Y-104072
X148655Y-112198
X148680Y-147478
X149688Y-126916
X150876Y-60198
X151765Y-55626
X152254Y-120683
X152400Y-46990
X152812Y-113241
X152866Y-79206
X154111Y-124309
X154630Y-113318
X154950Y-135718
X155204Y-86460
X156187Y-128678
X156789Y-113318
X159004Y-55626
X159142Y-134340
X159823Y-126714
X160054Y-122710
X160125Y-125469
X160504Y-119958
X162555Y-124768
X163284Y-117110
X167640Y-119169
T2
X31750Y-91440
X31750Y-94210
X31750Y-96980
X31750Y-99750
X31750Y-102520
X34590Y-92825
X34590Y-95595
X34590Y-98365
X34590Y-101135
X166070Y-92825
X166070Y-95595
X166070Y-98365
X166070Y-101135
X168910Y-91440
X168910Y-94210
X168910Y-96980
X168910Y-99750
X168910Y-102520
T3
X119860Y-45740
X121920Y-40640
X73152Y-44704
X75301Y-49767
X78399Y-42477
X80548Y-47540
X83646Y-40250
X85795Y-45312
X121041Y-144797
X123190Y-149860
T4
X48260Y-140970
X51371Y-137859
X55331Y-148041
X58442Y-144930
T5
X47072Y-134054
X62247Y-149229
T6
X33170Y-84480
X33170Y-109480
X167490Y-84480
X167490Y-109480
T7
X100330Y-96520
T8
X70300Y-37984
X80793Y-33530
X126042Y-156580
T9
X119321Y-35060
X127666Y-38432
T0
M30
