G04 #@! TF.GenerationSoftware,KiCad,Pcbnew,5.1.4-e60b266~84~ubuntu18.04.1*
G04 #@! TF.CreationDate,2019-11-06T15:19:43-05:00*
G04 #@! TF.ProjectId,datapod,64617461-706f-4642-9e6b-696361645f70,1*
G04 #@! TF.SameCoordinates,Original*
G04 #@! TF.FileFunction,Soldermask,Top*
G04 #@! TF.FilePolarity,Negative*
%FSLAX46Y46*%
G04 Gerber Fmt 4.6, Leading zero omitted, Abs format (unit mm)*
G04 Created by KiCad (PCBNEW 5.1.4-e60b266~84~ubuntu18.04.1) date 2019-11-06 15:19:43*
%MOMM*%
%LPD*%
G04 APERTURE LIST*
%ADD10C,0.100000*%
G04 APERTURE END LIST*
D10*
G36*
X97371000Y-169761000D02*
G01*
X95669000Y-169761000D01*
X95669000Y-168059000D01*
X97371000Y-168059000D01*
X97371000Y-169761000D01*
X97371000Y-169761000D01*
G37*
G36*
X104991000Y-169761000D02*
G01*
X103289000Y-169761000D01*
X103289000Y-168059000D01*
X104991000Y-168059000D01*
X104991000Y-169761000D01*
X104991000Y-169761000D01*
G37*
G36*
X86041000Y-167861000D02*
G01*
X84139000Y-167861000D01*
X84139000Y-165259000D01*
X86041000Y-165259000D01*
X86041000Y-167861000D01*
X86041000Y-167861000D01*
G37*
G36*
X97371000Y-167221000D02*
G01*
X95669000Y-167221000D01*
X95669000Y-165519000D01*
X97371000Y-165519000D01*
X97371000Y-167221000D01*
X97371000Y-167221000D01*
G37*
G36*
X104991000Y-167221000D02*
G01*
X103289000Y-167221000D01*
X103289000Y-165519000D01*
X104991000Y-165519000D01*
X104991000Y-167221000D01*
X104991000Y-167221000D01*
G37*
G36*
X113931000Y-165156000D02*
G01*
X112129000Y-165156000D01*
X112129000Y-164404000D01*
X113931000Y-164404000D01*
X113931000Y-165156000D01*
X113931000Y-165156000D01*
G37*
G36*
X104991000Y-164681000D02*
G01*
X103289000Y-164681000D01*
X103289000Y-162979000D01*
X104991000Y-162979000D01*
X104991000Y-164681000D01*
X104991000Y-164681000D01*
G37*
G36*
X97371000Y-164681000D02*
G01*
X95669000Y-164681000D01*
X95669000Y-162979000D01*
X97371000Y-162979000D01*
X97371000Y-164681000D01*
X97371000Y-164681000D01*
G37*
G36*
X86041000Y-163861000D02*
G01*
X84139000Y-163861000D01*
X84139000Y-161259000D01*
X86041000Y-161259000D01*
X86041000Y-163861000D01*
X86041000Y-163861000D01*
G37*
G36*
X113931000Y-163256000D02*
G01*
X112129000Y-163256000D01*
X112129000Y-162504000D01*
X113931000Y-162504000D01*
X113931000Y-163256000D01*
X113931000Y-163256000D01*
G37*
G36*
X104991000Y-162141000D02*
G01*
X103289000Y-162141000D01*
X103289000Y-160439000D01*
X104991000Y-160439000D01*
X104991000Y-162141000D01*
X104991000Y-162141000D01*
G37*
G36*
X97371000Y-162141000D02*
G01*
X95669000Y-162141000D01*
X95669000Y-160439000D01*
X97371000Y-160439000D01*
X97371000Y-162141000D01*
X97371000Y-162141000D01*
G37*
G36*
X104991000Y-159601000D02*
G01*
X103289000Y-159601000D01*
X103289000Y-157899000D01*
X104991000Y-157899000D01*
X104991000Y-159601000D01*
X104991000Y-159601000D01*
G37*
G36*
X97371000Y-159601000D02*
G01*
X95669000Y-159601000D01*
X95669000Y-157899000D01*
X97371000Y-157899000D01*
X97371000Y-159601000D01*
X97371000Y-159601000D01*
G37*
G36*
X126344922Y-155058487D02*
G01*
X126494747Y-155088289D01*
X126777011Y-155205206D01*
X127031042Y-155374944D01*
X127247078Y-155590980D01*
X127416816Y-155845011D01*
X127533733Y-156127275D01*
X127593337Y-156426925D01*
X127593337Y-156732445D01*
X127533733Y-157032095D01*
X127416816Y-157314359D01*
X127247078Y-157568390D01*
X127031042Y-157784426D01*
X126777011Y-157954164D01*
X126494747Y-158071081D01*
X126344922Y-158100883D01*
X126195098Y-158130685D01*
X125889576Y-158130685D01*
X125739752Y-158100883D01*
X125589927Y-158071081D01*
X125307663Y-157954164D01*
X125053632Y-157784426D01*
X124837596Y-157568390D01*
X124667858Y-157314359D01*
X124550941Y-157032095D01*
X124491337Y-156732445D01*
X124491337Y-156426925D01*
X124550941Y-156127275D01*
X124667858Y-155845011D01*
X124837596Y-155590980D01*
X125053632Y-155374944D01*
X125307663Y-155205206D01*
X125589927Y-155088289D01*
X125739752Y-155058487D01*
X125889576Y-155028685D01*
X126195098Y-155028685D01*
X126344922Y-155058487D01*
X126344922Y-155058487D01*
G37*
G36*
X104991000Y-157061000D02*
G01*
X103289000Y-157061000D01*
X103289000Y-155359000D01*
X104991000Y-155359000D01*
X104991000Y-157061000D01*
X104991000Y-157061000D01*
G37*
G36*
X97371000Y-157061000D02*
G01*
X95669000Y-157061000D01*
X95669000Y-155359000D01*
X97371000Y-155359000D01*
X97371000Y-157061000D01*
X97371000Y-157061000D01*
G37*
G36*
X97371000Y-154521000D02*
G01*
X95669000Y-154521000D01*
X95669000Y-152819000D01*
X97371000Y-152819000D01*
X97371000Y-154521000D01*
X97371000Y-154521000D01*
G37*
G36*
X104991000Y-154521000D02*
G01*
X103289000Y-154521000D01*
X103289000Y-152819000D01*
X104991000Y-152819000D01*
X104991000Y-154521000D01*
X104991000Y-154521000D01*
G37*
G36*
X124145915Y-147416853D02*
G01*
X124173788Y-147425043D01*
X124199523Y-147438511D01*
X124222137Y-147456743D01*
X124240762Y-147479037D01*
X124257635Y-147509953D01*
X124297475Y-147603810D01*
X124297476Y-147603812D01*
X124844602Y-148892761D01*
X125622124Y-150724488D01*
X125632643Y-150758104D01*
X125635742Y-150786982D01*
X125633147Y-150815915D01*
X125624957Y-150843788D01*
X125611489Y-150869523D01*
X125593257Y-150892137D01*
X125570963Y-150910762D01*
X125540047Y-150927635D01*
X125446190Y-150967475D01*
X125446188Y-150967476D01*
X124424306Y-151401239D01*
X122325512Y-152292124D01*
X122291896Y-152302643D01*
X122263018Y-152305742D01*
X122234085Y-152303147D01*
X122206212Y-152294957D01*
X122180477Y-152281489D01*
X122157863Y-152263257D01*
X122139238Y-152240963D01*
X122122365Y-152210047D01*
X121804798Y-151461905D01*
X121293944Y-150258410D01*
X120757876Y-148995512D01*
X120747357Y-148961896D01*
X120744258Y-148933018D01*
X120746853Y-148904085D01*
X120755043Y-148876212D01*
X120768511Y-148850477D01*
X120786743Y-148827863D01*
X120809037Y-148809238D01*
X120839953Y-148792365D01*
X120933810Y-148752525D01*
X120933812Y-148752524D01*
X123013373Y-147869803D01*
X124054488Y-147427876D01*
X124088104Y-147417357D01*
X124116982Y-147414258D01*
X124145915Y-147416853D01*
X124145915Y-147416853D01*
G37*
G36*
X97371000Y-151981000D02*
G01*
X95669000Y-151981000D01*
X95669000Y-150279000D01*
X97371000Y-150279000D01*
X97371000Y-151981000D01*
X97371000Y-151981000D01*
G37*
G36*
X104991000Y-151981000D02*
G01*
X103289000Y-151981000D01*
X103289000Y-150279000D01*
X104991000Y-150279000D01*
X104991000Y-151981000D01*
X104991000Y-151981000D01*
G37*
G36*
X149883752Y-150258410D02*
G01*
X148680256Y-151461906D01*
X147476760Y-150258410D01*
X148680256Y-149054914D01*
X149883752Y-150258410D01*
X149883752Y-150258410D01*
G37*
G36*
X61802509Y-145035864D02*
G01*
X55437134Y-151401239D01*
X51970897Y-147935002D01*
X58336272Y-141569627D01*
X61802509Y-145035864D01*
X61802509Y-145035864D01*
G37*
G36*
X62844826Y-147256825D02*
G01*
X63218083Y-147411433D01*
X63218085Y-147411434D01*
X63554008Y-147635891D01*
X63839688Y-147921571D01*
X63990405Y-148147134D01*
X64064146Y-148257496D01*
X64218754Y-148630753D01*
X64297572Y-149027000D01*
X64297572Y-149431014D01*
X64218754Y-149827261D01*
X64064146Y-150200518D01*
X64064145Y-150200520D01*
X63839688Y-150536443D01*
X63554008Y-150822123D01*
X63218085Y-151046580D01*
X63218084Y-151046581D01*
X63218083Y-151046581D01*
X62844826Y-151201189D01*
X62448579Y-151280007D01*
X62044565Y-151280007D01*
X61648318Y-151201189D01*
X61275061Y-151046581D01*
X61275060Y-151046581D01*
X61275059Y-151046580D01*
X60939136Y-150822123D01*
X60653456Y-150536443D01*
X60428999Y-150200520D01*
X60428998Y-150200518D01*
X60274390Y-149827261D01*
X60195572Y-149431014D01*
X60195572Y-149027000D01*
X60274390Y-148630753D01*
X60428998Y-148257496D01*
X60502740Y-148147134D01*
X60653456Y-147921571D01*
X60939136Y-147635891D01*
X61275059Y-147411434D01*
X61275061Y-147411433D01*
X61648318Y-147256825D01*
X62044565Y-147178007D01*
X62448579Y-147178007D01*
X62844826Y-147256825D01*
X62844826Y-147256825D01*
G37*
G36*
X88931000Y-150811000D02*
G01*
X86329000Y-150811000D01*
X86329000Y-148909000D01*
X88931000Y-148909000D01*
X88931000Y-150811000D01*
X88931000Y-150811000D01*
G37*
G36*
X84931000Y-150811000D02*
G01*
X82329000Y-150811000D01*
X82329000Y-148909000D01*
X84931000Y-148909000D01*
X84931000Y-150811000D01*
X84931000Y-150811000D01*
G37*
G36*
X148087701Y-148462359D02*
G01*
X146884205Y-149665855D01*
X145680709Y-148462359D01*
X146884205Y-147258863D01*
X148087701Y-148462359D01*
X148087701Y-148462359D01*
G37*
G36*
X146291650Y-146666307D02*
G01*
X145088154Y-147869803D01*
X143884658Y-146666307D01*
X145088154Y-145462811D01*
X146291650Y-146666307D01*
X146291650Y-146666307D01*
G37*
G36*
X121411845Y-142932750D02*
G01*
X121595480Y-142969277D01*
X121941440Y-143112579D01*
X122252796Y-143320620D01*
X122517582Y-143585406D01*
X122725623Y-143896762D01*
X122868925Y-144242722D01*
X122941979Y-144609991D01*
X122941979Y-144984455D01*
X122868925Y-145351724D01*
X122725623Y-145697684D01*
X122517582Y-146009040D01*
X122252796Y-146273826D01*
X121941440Y-146481867D01*
X121595480Y-146625169D01*
X121228212Y-146698223D01*
X120853746Y-146698223D01*
X120486478Y-146625169D01*
X120140518Y-146481867D01*
X119829162Y-146273826D01*
X119564376Y-146009040D01*
X119356335Y-145697684D01*
X119213033Y-145351724D01*
X119139979Y-144984455D01*
X119139979Y-144609991D01*
X119213033Y-144242722D01*
X119356335Y-143896762D01*
X119564376Y-143585406D01*
X119829162Y-143320620D01*
X120140518Y-143112579D01*
X120486478Y-142969277D01*
X120670113Y-142932750D01*
X120853746Y-142896223D01*
X121228212Y-142896223D01*
X121411845Y-142932750D01*
X121411845Y-142932750D01*
G37*
G36*
X144495598Y-144870256D02*
G01*
X143292102Y-146073752D01*
X142088606Y-144870256D01*
X143292102Y-143666760D01*
X144495598Y-144870256D01*
X144495598Y-144870256D01*
G37*
G36*
X155271906Y-144870256D02*
G01*
X154068410Y-146073752D01*
X152864914Y-144870256D01*
X154068410Y-143666760D01*
X155271906Y-144870256D01*
X155271906Y-144870256D01*
G37*
G36*
X54731441Y-137964796D02*
G01*
X48366066Y-144330171D01*
X44899829Y-140863934D01*
X51265204Y-134498559D01*
X54731441Y-137964796D01*
X54731441Y-137964796D01*
G37*
G36*
X153475855Y-143074205D02*
G01*
X152272359Y-144277701D01*
X151068863Y-143074205D01*
X152272359Y-141870709D01*
X153475855Y-143074205D01*
X153475855Y-143074205D01*
G37*
G36*
X142699547Y-143074205D02*
G01*
X141496051Y-144277701D01*
X140292555Y-143074205D01*
X141496051Y-141870709D01*
X142699547Y-143074205D01*
X142699547Y-143074205D01*
G37*
G36*
X140903496Y-141278154D02*
G01*
X139700000Y-142481650D01*
X138496504Y-141278154D01*
X139700000Y-140074658D01*
X140903496Y-141278154D01*
X140903496Y-141278154D01*
G37*
G36*
X151679803Y-141278154D02*
G01*
X150476307Y-142481650D01*
X149272811Y-141278154D01*
X150476307Y-140074658D01*
X151679803Y-141278154D01*
X151679803Y-141278154D01*
G37*
G36*
X149883752Y-139482102D02*
G01*
X148680256Y-140685598D01*
X147476760Y-139482102D01*
X148680256Y-138278606D01*
X149883752Y-139482102D01*
X149883752Y-139482102D01*
G37*
G36*
X139107445Y-139482102D02*
G01*
X137903949Y-140685598D01*
X136700453Y-139482102D01*
X137903949Y-138278606D01*
X139107445Y-139482102D01*
X139107445Y-139482102D01*
G37*
G36*
X86948674Y-138588465D02*
G01*
X86986367Y-138599899D01*
X87021103Y-138618466D01*
X87051548Y-138643452D01*
X87076534Y-138673897D01*
X87095101Y-138708633D01*
X87106535Y-138746326D01*
X87111000Y-138791661D01*
X87111000Y-139628339D01*
X87106535Y-139673674D01*
X87095101Y-139711367D01*
X87076534Y-139746103D01*
X87051548Y-139776548D01*
X87021103Y-139801534D01*
X86986367Y-139820101D01*
X86948674Y-139831535D01*
X86903339Y-139836000D01*
X85816661Y-139836000D01*
X85771326Y-139831535D01*
X85733633Y-139820101D01*
X85698897Y-139801534D01*
X85668452Y-139776548D01*
X85643466Y-139746103D01*
X85624899Y-139711367D01*
X85613465Y-139673674D01*
X85609000Y-139628339D01*
X85609000Y-138791661D01*
X85613465Y-138746326D01*
X85624899Y-138708633D01*
X85643466Y-138673897D01*
X85668452Y-138643452D01*
X85698897Y-138618466D01*
X85733633Y-138599899D01*
X85771326Y-138588465D01*
X85816661Y-138584000D01*
X86903339Y-138584000D01*
X86948674Y-138588465D01*
X86948674Y-138588465D01*
G37*
G36*
X137311394Y-137686051D02*
G01*
X136107898Y-138889547D01*
X134904402Y-137686051D01*
X136107898Y-136482555D01*
X137311394Y-137686051D01*
X137311394Y-137686051D01*
G37*
G36*
X148087701Y-137686051D02*
G01*
X146884205Y-138889547D01*
X145680709Y-137686051D01*
X146884205Y-136482555D01*
X148087701Y-137686051D01*
X148087701Y-137686051D01*
G37*
G36*
X86948674Y-136538465D02*
G01*
X86986367Y-136549899D01*
X87021103Y-136568466D01*
X87051548Y-136593452D01*
X87076534Y-136623897D01*
X87095101Y-136658633D01*
X87106535Y-136696326D01*
X87111000Y-136741661D01*
X87111000Y-137578339D01*
X87106535Y-137623674D01*
X87095101Y-137661367D01*
X87076534Y-137696103D01*
X87051548Y-137726548D01*
X87021103Y-137751534D01*
X86986367Y-137770101D01*
X86948674Y-137781535D01*
X86903339Y-137786000D01*
X85816661Y-137786000D01*
X85771326Y-137781535D01*
X85733633Y-137770101D01*
X85698897Y-137751534D01*
X85668452Y-137726548D01*
X85643466Y-137696103D01*
X85624899Y-137661367D01*
X85613465Y-137623674D01*
X85609000Y-137578339D01*
X85609000Y-136741661D01*
X85613465Y-136696326D01*
X85624899Y-136658633D01*
X85643466Y-136623897D01*
X85668452Y-136593452D01*
X85698897Y-136568466D01*
X85733633Y-136549899D01*
X85771326Y-136538465D01*
X85816661Y-136534000D01*
X86903339Y-136534000D01*
X86948674Y-136538465D01*
X86948674Y-136538465D01*
G37*
G36*
X135515342Y-135890000D02*
G01*
X134311846Y-137093496D01*
X133108350Y-135890000D01*
X134311846Y-134686504D01*
X135515342Y-135890000D01*
X135515342Y-135890000D01*
G37*
G36*
X146291650Y-135890000D02*
G01*
X145088154Y-137093496D01*
X143884658Y-135890000D01*
X145088154Y-134686504D01*
X146291650Y-135890000D01*
X146291650Y-135890000D01*
G37*
G36*
X158176000Y-136791000D02*
G01*
X157424000Y-136791000D01*
X157424000Y-134989000D01*
X158176000Y-134989000D01*
X158176000Y-136791000D01*
X158176000Y-136791000D01*
G37*
G36*
X160076000Y-136791000D02*
G01*
X159324000Y-136791000D01*
X159324000Y-134989000D01*
X160076000Y-134989000D01*
X160076000Y-136791000D01*
X160076000Y-136791000D01*
G37*
G36*
X47670315Y-132082314D02*
G01*
X48043572Y-132236922D01*
X48043574Y-132236923D01*
X48379497Y-132461380D01*
X48665177Y-132747060D01*
X48872166Y-133056840D01*
X48889635Y-133082985D01*
X49044243Y-133456242D01*
X49123061Y-133852489D01*
X49123061Y-134256503D01*
X49044243Y-134652750D01*
X48889635Y-135026007D01*
X48889634Y-135026009D01*
X48665177Y-135361932D01*
X48379497Y-135647612D01*
X48043574Y-135872069D01*
X48043573Y-135872070D01*
X48043572Y-135872070D01*
X47670315Y-136026678D01*
X47274068Y-136105496D01*
X46870054Y-136105496D01*
X46473807Y-136026678D01*
X46100550Y-135872070D01*
X46100549Y-135872070D01*
X46100548Y-135872069D01*
X45764625Y-135647612D01*
X45478945Y-135361932D01*
X45254488Y-135026009D01*
X45254487Y-135026007D01*
X45099879Y-134652750D01*
X45021061Y-134256503D01*
X45021061Y-133852489D01*
X45099879Y-133456242D01*
X45254487Y-133082985D01*
X45271957Y-133056840D01*
X45478945Y-132747060D01*
X45764625Y-132461380D01*
X46100548Y-132236923D01*
X46100550Y-132236922D01*
X46473807Y-132082314D01*
X46870054Y-132003496D01*
X47274068Y-132003496D01*
X47670315Y-132082314D01*
X47670315Y-132082314D01*
G37*
G36*
X105964928Y-134906764D02*
G01*
X105986009Y-134913160D01*
X106005445Y-134923548D01*
X106022476Y-134937524D01*
X106036452Y-134954555D01*
X106046840Y-134973991D01*
X106053236Y-134995072D01*
X106056000Y-135023140D01*
X106056000Y-135486860D01*
X106053236Y-135514928D01*
X106046840Y-135536009D01*
X106036452Y-135555445D01*
X106022476Y-135572476D01*
X106005445Y-135586452D01*
X105986009Y-135596840D01*
X105964928Y-135603236D01*
X105936860Y-135606000D01*
X104023140Y-135606000D01*
X103995072Y-135603236D01*
X103973991Y-135596840D01*
X103954555Y-135586452D01*
X103937524Y-135572476D01*
X103923548Y-135555445D01*
X103913160Y-135536009D01*
X103906764Y-135514928D01*
X103904000Y-135486860D01*
X103904000Y-135023140D01*
X103906764Y-134995072D01*
X103913160Y-134973991D01*
X103923548Y-134954555D01*
X103937524Y-134937524D01*
X103954555Y-134923548D01*
X103973991Y-134913160D01*
X103995072Y-134906764D01*
X104023140Y-134904000D01*
X105936860Y-134904000D01*
X105964928Y-134906764D01*
X105964928Y-134906764D01*
G37*
G36*
X96664928Y-134906764D02*
G01*
X96686009Y-134913160D01*
X96705445Y-134923548D01*
X96722476Y-134937524D01*
X96736452Y-134954555D01*
X96746840Y-134973991D01*
X96753236Y-134995072D01*
X96756000Y-135023140D01*
X96756000Y-135486860D01*
X96753236Y-135514928D01*
X96746840Y-135536009D01*
X96736452Y-135555445D01*
X96722476Y-135572476D01*
X96705445Y-135586452D01*
X96686009Y-135596840D01*
X96664928Y-135603236D01*
X96636860Y-135606000D01*
X94723140Y-135606000D01*
X94695072Y-135603236D01*
X94673991Y-135596840D01*
X94654555Y-135586452D01*
X94637524Y-135572476D01*
X94623548Y-135555445D01*
X94613160Y-135536009D01*
X94606764Y-135514928D01*
X94604000Y-135486860D01*
X94604000Y-135023140D01*
X94606764Y-134995072D01*
X94613160Y-134973991D01*
X94623548Y-134954555D01*
X94637524Y-134937524D01*
X94654555Y-134923548D01*
X94673991Y-134913160D01*
X94695072Y-134906764D01*
X94723140Y-134904000D01*
X96636860Y-134904000D01*
X96664928Y-134906764D01*
X96664928Y-134906764D01*
G37*
G36*
X133719291Y-134093949D02*
G01*
X132515795Y-135297445D01*
X131312299Y-134093949D01*
X132515795Y-132890453D01*
X133719291Y-134093949D01*
X133719291Y-134093949D01*
G37*
G36*
X144495598Y-134093949D02*
G01*
X143292102Y-135297445D01*
X142088606Y-134093949D01*
X143292102Y-132890453D01*
X144495598Y-134093949D01*
X144495598Y-134093949D01*
G37*
G36*
X105964928Y-133636764D02*
G01*
X105986009Y-133643160D01*
X106005445Y-133653548D01*
X106022476Y-133667524D01*
X106036452Y-133684555D01*
X106046840Y-133703991D01*
X106053236Y-133725072D01*
X106056000Y-133753140D01*
X106056000Y-134216860D01*
X106053236Y-134244928D01*
X106046840Y-134266009D01*
X106036452Y-134285445D01*
X106022476Y-134302476D01*
X106005445Y-134316452D01*
X105986009Y-134326840D01*
X105964928Y-134333236D01*
X105936860Y-134336000D01*
X104023140Y-134336000D01*
X103995072Y-134333236D01*
X103973991Y-134326840D01*
X103954555Y-134316452D01*
X103937524Y-134302476D01*
X103923548Y-134285445D01*
X103913160Y-134266009D01*
X103906764Y-134244928D01*
X103904000Y-134216860D01*
X103904000Y-133753140D01*
X103906764Y-133725072D01*
X103913160Y-133703991D01*
X103923548Y-133684555D01*
X103937524Y-133667524D01*
X103954555Y-133653548D01*
X103973991Y-133643160D01*
X103995072Y-133636764D01*
X104023140Y-133634000D01*
X105936860Y-133634000D01*
X105964928Y-133636764D01*
X105964928Y-133636764D01*
G37*
G36*
X96664928Y-133636764D02*
G01*
X96686009Y-133643160D01*
X96705445Y-133653548D01*
X96722476Y-133667524D01*
X96736452Y-133684555D01*
X96746840Y-133703991D01*
X96753236Y-133725072D01*
X96756000Y-133753140D01*
X96756000Y-134216860D01*
X96753236Y-134244928D01*
X96746840Y-134266009D01*
X96736452Y-134285445D01*
X96722476Y-134302476D01*
X96705445Y-134316452D01*
X96686009Y-134326840D01*
X96664928Y-134333236D01*
X96636860Y-134336000D01*
X94723140Y-134336000D01*
X94695072Y-134333236D01*
X94673991Y-134326840D01*
X94654555Y-134316452D01*
X94637524Y-134302476D01*
X94623548Y-134285445D01*
X94613160Y-134266009D01*
X94606764Y-134244928D01*
X94604000Y-134216860D01*
X94604000Y-133753140D01*
X94606764Y-133725072D01*
X94613160Y-133703991D01*
X94623548Y-133684555D01*
X94637524Y-133667524D01*
X94654555Y-133653548D01*
X94673991Y-133643160D01*
X94695072Y-133636764D01*
X94723140Y-133634000D01*
X96636860Y-133634000D01*
X96664928Y-133636764D01*
X96664928Y-133636764D01*
G37*
G36*
X131923240Y-132297898D02*
G01*
X130719744Y-133501394D01*
X129516248Y-132297898D01*
X130719744Y-131094402D01*
X131923240Y-132297898D01*
X131923240Y-132297898D01*
G37*
G36*
X142699547Y-132297898D02*
G01*
X141496051Y-133501394D01*
X140292555Y-132297898D01*
X141496051Y-131094402D01*
X142699547Y-132297898D01*
X142699547Y-132297898D01*
G37*
G36*
X105964928Y-132366764D02*
G01*
X105986009Y-132373160D01*
X106005445Y-132383548D01*
X106022476Y-132397524D01*
X106036452Y-132414555D01*
X106046840Y-132433991D01*
X106053236Y-132455072D01*
X106056000Y-132483140D01*
X106056000Y-132946860D01*
X106053236Y-132974928D01*
X106046840Y-132996009D01*
X106036452Y-133015445D01*
X106022476Y-133032476D01*
X106005445Y-133046452D01*
X105986009Y-133056840D01*
X105964928Y-133063236D01*
X105936860Y-133066000D01*
X104023140Y-133066000D01*
X103995072Y-133063236D01*
X103973991Y-133056840D01*
X103954555Y-133046452D01*
X103937524Y-133032476D01*
X103923548Y-133015445D01*
X103913160Y-132996009D01*
X103906764Y-132974928D01*
X103904000Y-132946860D01*
X103904000Y-132483140D01*
X103906764Y-132455072D01*
X103913160Y-132433991D01*
X103923548Y-132414555D01*
X103937524Y-132397524D01*
X103954555Y-132383548D01*
X103973991Y-132373160D01*
X103995072Y-132366764D01*
X104023140Y-132364000D01*
X105936860Y-132364000D01*
X105964928Y-132366764D01*
X105964928Y-132366764D01*
G37*
G36*
X96664928Y-132366764D02*
G01*
X96686009Y-132373160D01*
X96705445Y-132383548D01*
X96722476Y-132397524D01*
X96736452Y-132414555D01*
X96746840Y-132433991D01*
X96753236Y-132455072D01*
X96756000Y-132483140D01*
X96756000Y-132946860D01*
X96753236Y-132974928D01*
X96746840Y-132996009D01*
X96736452Y-133015445D01*
X96722476Y-133032476D01*
X96705445Y-133046452D01*
X96686009Y-133056840D01*
X96664928Y-133063236D01*
X96636860Y-133066000D01*
X94723140Y-133066000D01*
X94695072Y-133063236D01*
X94673991Y-133056840D01*
X94654555Y-133046452D01*
X94637524Y-133032476D01*
X94623548Y-133015445D01*
X94613160Y-132996009D01*
X94606764Y-132974928D01*
X94604000Y-132946860D01*
X94604000Y-132483140D01*
X94606764Y-132455072D01*
X94613160Y-132433991D01*
X94623548Y-132414555D01*
X94637524Y-132397524D01*
X94654555Y-132383548D01*
X94673991Y-132373160D01*
X94695072Y-132366764D01*
X94723140Y-132364000D01*
X96636860Y-132364000D01*
X96664928Y-132366764D01*
X96664928Y-132366764D01*
G37*
G36*
X105964928Y-131096764D02*
G01*
X105986009Y-131103160D01*
X106005445Y-131113548D01*
X106022476Y-131127524D01*
X106036452Y-131144555D01*
X106046840Y-131163991D01*
X106053236Y-131185072D01*
X106056000Y-131213140D01*
X106056000Y-131676860D01*
X106053236Y-131704928D01*
X106046840Y-131726009D01*
X106036452Y-131745445D01*
X106022476Y-131762476D01*
X106005445Y-131776452D01*
X105986009Y-131786840D01*
X105964928Y-131793236D01*
X105936860Y-131796000D01*
X104023140Y-131796000D01*
X103995072Y-131793236D01*
X103973991Y-131786840D01*
X103954555Y-131776452D01*
X103937524Y-131762476D01*
X103923548Y-131745445D01*
X103913160Y-131726009D01*
X103906764Y-131704928D01*
X103904000Y-131676860D01*
X103904000Y-131213140D01*
X103906764Y-131185072D01*
X103913160Y-131163991D01*
X103923548Y-131144555D01*
X103937524Y-131127524D01*
X103954555Y-131113548D01*
X103973991Y-131103160D01*
X103995072Y-131096764D01*
X104023140Y-131094000D01*
X105936860Y-131094000D01*
X105964928Y-131096764D01*
X105964928Y-131096764D01*
G37*
G36*
X96664928Y-131096764D02*
G01*
X96686009Y-131103160D01*
X96705445Y-131113548D01*
X96722476Y-131127524D01*
X96736452Y-131144555D01*
X96746840Y-131163991D01*
X96753236Y-131185072D01*
X96756000Y-131213140D01*
X96756000Y-131676860D01*
X96753236Y-131704928D01*
X96746840Y-131726009D01*
X96736452Y-131745445D01*
X96722476Y-131762476D01*
X96705445Y-131776452D01*
X96686009Y-131786840D01*
X96664928Y-131793236D01*
X96636860Y-131796000D01*
X94723140Y-131796000D01*
X94695072Y-131793236D01*
X94673991Y-131786840D01*
X94654555Y-131776452D01*
X94637524Y-131762476D01*
X94623548Y-131745445D01*
X94613160Y-131726009D01*
X94606764Y-131704928D01*
X94604000Y-131676860D01*
X94604000Y-131213140D01*
X94606764Y-131185072D01*
X94613160Y-131163991D01*
X94623548Y-131144555D01*
X94637524Y-131127524D01*
X94654555Y-131113548D01*
X94673991Y-131103160D01*
X94695072Y-131096764D01*
X94723140Y-131094000D01*
X96636860Y-131094000D01*
X96664928Y-131096764D01*
X96664928Y-131096764D01*
G37*
G36*
X140903496Y-130501846D02*
G01*
X139700000Y-131705342D01*
X138496504Y-130501846D01*
X139700000Y-129298350D01*
X140903496Y-130501846D01*
X140903496Y-130501846D01*
G37*
G36*
X130127189Y-130501846D02*
G01*
X128923693Y-131705342D01*
X127720197Y-130501846D01*
X128923693Y-129298350D01*
X130127189Y-130501846D01*
X130127189Y-130501846D01*
G37*
G36*
X96664928Y-129826764D02*
G01*
X96686009Y-129833160D01*
X96705445Y-129843548D01*
X96722476Y-129857524D01*
X96736452Y-129874555D01*
X96746840Y-129893991D01*
X96753236Y-129915072D01*
X96756000Y-129943140D01*
X96756000Y-130406860D01*
X96753236Y-130434928D01*
X96746840Y-130456009D01*
X96736452Y-130475445D01*
X96722476Y-130492476D01*
X96705445Y-130506452D01*
X96686009Y-130516840D01*
X96664928Y-130523236D01*
X96636860Y-130526000D01*
X94723140Y-130526000D01*
X94695072Y-130523236D01*
X94673991Y-130516840D01*
X94654555Y-130506452D01*
X94637524Y-130492476D01*
X94623548Y-130475445D01*
X94613160Y-130456009D01*
X94606764Y-130434928D01*
X94604000Y-130406860D01*
X94604000Y-129943140D01*
X94606764Y-129915072D01*
X94613160Y-129893991D01*
X94623548Y-129874555D01*
X94637524Y-129857524D01*
X94654555Y-129843548D01*
X94673991Y-129833160D01*
X94695072Y-129826764D01*
X94723140Y-129824000D01*
X96636860Y-129824000D01*
X96664928Y-129826764D01*
X96664928Y-129826764D01*
G37*
G36*
X105964928Y-129826764D02*
G01*
X105986009Y-129833160D01*
X106005445Y-129843548D01*
X106022476Y-129857524D01*
X106036452Y-129874555D01*
X106046840Y-129893991D01*
X106053236Y-129915072D01*
X106056000Y-129943140D01*
X106056000Y-130406860D01*
X106053236Y-130434928D01*
X106046840Y-130456009D01*
X106036452Y-130475445D01*
X106022476Y-130492476D01*
X106005445Y-130506452D01*
X105986009Y-130516840D01*
X105964928Y-130523236D01*
X105936860Y-130526000D01*
X104023140Y-130526000D01*
X103995072Y-130523236D01*
X103973991Y-130516840D01*
X103954555Y-130506452D01*
X103937524Y-130492476D01*
X103923548Y-130475445D01*
X103913160Y-130456009D01*
X103906764Y-130434928D01*
X103904000Y-130406860D01*
X103904000Y-129943140D01*
X103906764Y-129915072D01*
X103913160Y-129893991D01*
X103923548Y-129874555D01*
X103937524Y-129857524D01*
X103954555Y-129843548D01*
X103973991Y-129833160D01*
X103995072Y-129826764D01*
X104023140Y-129824000D01*
X105936860Y-129824000D01*
X105964928Y-129826764D01*
X105964928Y-129826764D01*
G37*
G36*
X139107445Y-128705795D02*
G01*
X137903949Y-129909291D01*
X136700453Y-128705795D01*
X137903949Y-127502299D01*
X139107445Y-128705795D01*
X139107445Y-128705795D01*
G37*
G36*
X128331137Y-128705795D02*
G01*
X127127641Y-129909291D01*
X125924145Y-128705795D01*
X127127641Y-127502299D01*
X128331137Y-128705795D01*
X128331137Y-128705795D01*
G37*
G36*
X105964928Y-128556764D02*
G01*
X105986009Y-128563160D01*
X106005445Y-128573548D01*
X106022476Y-128587524D01*
X106036452Y-128604555D01*
X106046840Y-128623991D01*
X106053236Y-128645072D01*
X106056000Y-128673140D01*
X106056000Y-129136860D01*
X106053236Y-129164928D01*
X106046840Y-129186009D01*
X106036452Y-129205445D01*
X106022476Y-129222476D01*
X106005445Y-129236452D01*
X105986009Y-129246840D01*
X105964928Y-129253236D01*
X105936860Y-129256000D01*
X104023140Y-129256000D01*
X103995072Y-129253236D01*
X103973991Y-129246840D01*
X103954555Y-129236452D01*
X103937524Y-129222476D01*
X103923548Y-129205445D01*
X103913160Y-129186009D01*
X103906764Y-129164928D01*
X103904000Y-129136860D01*
X103904000Y-128673140D01*
X103906764Y-128645072D01*
X103913160Y-128623991D01*
X103923548Y-128604555D01*
X103937524Y-128587524D01*
X103954555Y-128573548D01*
X103973991Y-128563160D01*
X103995072Y-128556764D01*
X104023140Y-128554000D01*
X105936860Y-128554000D01*
X105964928Y-128556764D01*
X105964928Y-128556764D01*
G37*
G36*
X96664928Y-128556764D02*
G01*
X96686009Y-128563160D01*
X96705445Y-128573548D01*
X96722476Y-128587524D01*
X96736452Y-128604555D01*
X96746840Y-128623991D01*
X96753236Y-128645072D01*
X96756000Y-128673140D01*
X96756000Y-129136860D01*
X96753236Y-129164928D01*
X96746840Y-129186009D01*
X96736452Y-129205445D01*
X96722476Y-129222476D01*
X96705445Y-129236452D01*
X96686009Y-129246840D01*
X96664928Y-129253236D01*
X96636860Y-129256000D01*
X94723140Y-129256000D01*
X94695072Y-129253236D01*
X94673991Y-129246840D01*
X94654555Y-129236452D01*
X94637524Y-129222476D01*
X94623548Y-129205445D01*
X94613160Y-129186009D01*
X94606764Y-129164928D01*
X94604000Y-129136860D01*
X94604000Y-128673140D01*
X94606764Y-128645072D01*
X94613160Y-128623991D01*
X94623548Y-128604555D01*
X94637524Y-128587524D01*
X94654555Y-128573548D01*
X94673991Y-128563160D01*
X94695072Y-128556764D01*
X94723140Y-128554000D01*
X96636860Y-128554000D01*
X96664928Y-128556764D01*
X96664928Y-128556764D01*
G37*
G36*
X126535086Y-126909744D02*
G01*
X125331590Y-128113240D01*
X124128094Y-126909744D01*
X125331590Y-125706248D01*
X126535086Y-126909744D01*
X126535086Y-126909744D01*
G37*
G36*
X137311394Y-126909744D02*
G01*
X136107898Y-128113240D01*
X134904402Y-126909744D01*
X136107898Y-125706248D01*
X137311394Y-126909744D01*
X137311394Y-126909744D01*
G37*
G36*
X96664928Y-127286764D02*
G01*
X96686009Y-127293160D01*
X96705445Y-127303548D01*
X96722476Y-127317524D01*
X96736452Y-127334555D01*
X96746840Y-127353991D01*
X96753236Y-127375072D01*
X96756000Y-127403140D01*
X96756000Y-127866860D01*
X96753236Y-127894928D01*
X96746840Y-127916009D01*
X96736452Y-127935445D01*
X96722476Y-127952476D01*
X96705445Y-127966452D01*
X96686009Y-127976840D01*
X96664928Y-127983236D01*
X96636860Y-127986000D01*
X94723140Y-127986000D01*
X94695072Y-127983236D01*
X94673991Y-127976840D01*
X94654555Y-127966452D01*
X94637524Y-127952476D01*
X94623548Y-127935445D01*
X94613160Y-127916009D01*
X94606764Y-127894928D01*
X94604000Y-127866860D01*
X94604000Y-127403140D01*
X94606764Y-127375072D01*
X94613160Y-127353991D01*
X94623548Y-127334555D01*
X94637524Y-127317524D01*
X94654555Y-127303548D01*
X94673991Y-127293160D01*
X94695072Y-127286764D01*
X94723140Y-127284000D01*
X96636860Y-127284000D01*
X96664928Y-127286764D01*
X96664928Y-127286764D01*
G37*
G36*
X105964928Y-127286764D02*
G01*
X105986009Y-127293160D01*
X106005445Y-127303548D01*
X106022476Y-127317524D01*
X106036452Y-127334555D01*
X106046840Y-127353991D01*
X106053236Y-127375072D01*
X106056000Y-127403140D01*
X106056000Y-127866860D01*
X106053236Y-127894928D01*
X106046840Y-127916009D01*
X106036452Y-127935445D01*
X106022476Y-127952476D01*
X106005445Y-127966452D01*
X105986009Y-127976840D01*
X105964928Y-127983236D01*
X105936860Y-127986000D01*
X104023140Y-127986000D01*
X103995072Y-127983236D01*
X103973991Y-127976840D01*
X103954555Y-127966452D01*
X103937524Y-127952476D01*
X103923548Y-127935445D01*
X103913160Y-127916009D01*
X103906764Y-127894928D01*
X103904000Y-127866860D01*
X103904000Y-127403140D01*
X103906764Y-127375072D01*
X103913160Y-127353991D01*
X103923548Y-127334555D01*
X103937524Y-127317524D01*
X103954555Y-127303548D01*
X103973991Y-127293160D01*
X103995072Y-127286764D01*
X104023140Y-127284000D01*
X105936860Y-127284000D01*
X105964928Y-127286764D01*
X105964928Y-127286764D01*
G37*
G36*
X156801000Y-127568500D02*
G01*
X155499000Y-127568500D01*
X155499000Y-121351500D01*
X156801000Y-121351500D01*
X156801000Y-127568500D01*
X156801000Y-127568500D01*
G37*
G36*
X162001000Y-127568500D02*
G01*
X160699000Y-127568500D01*
X160699000Y-121351500D01*
X162001000Y-121351500D01*
X162001000Y-127568500D01*
X162001000Y-127568500D01*
G37*
G36*
X145250338Y-126714833D02*
G01*
X144541817Y-127423354D01*
X143232256Y-126113793D01*
X143940777Y-125405272D01*
X145250338Y-126714833D01*
X145250338Y-126714833D01*
G37*
G36*
X105964928Y-126016764D02*
G01*
X105986009Y-126023160D01*
X106005445Y-126033548D01*
X106022476Y-126047524D01*
X106036452Y-126064555D01*
X106046840Y-126083991D01*
X106053236Y-126105072D01*
X106056000Y-126133140D01*
X106056000Y-126596860D01*
X106053236Y-126624928D01*
X106046840Y-126646009D01*
X106036452Y-126665445D01*
X106022476Y-126682476D01*
X106005445Y-126696452D01*
X105986009Y-126706840D01*
X105964928Y-126713236D01*
X105936860Y-126716000D01*
X104023140Y-126716000D01*
X103995072Y-126713236D01*
X103973991Y-126706840D01*
X103954555Y-126696452D01*
X103937524Y-126682476D01*
X103923548Y-126665445D01*
X103913160Y-126646009D01*
X103906764Y-126624928D01*
X103904000Y-126596860D01*
X103904000Y-126133140D01*
X103906764Y-126105072D01*
X103913160Y-126083991D01*
X103923548Y-126064555D01*
X103937524Y-126047524D01*
X103954555Y-126033548D01*
X103973991Y-126023160D01*
X103995072Y-126016764D01*
X104023140Y-126014000D01*
X105936860Y-126014000D01*
X105964928Y-126016764D01*
X105964928Y-126016764D01*
G37*
G36*
X96664928Y-126016764D02*
G01*
X96686009Y-126023160D01*
X96705445Y-126033548D01*
X96722476Y-126047524D01*
X96736452Y-126064555D01*
X96746840Y-126083991D01*
X96753236Y-126105072D01*
X96756000Y-126133140D01*
X96756000Y-126596860D01*
X96753236Y-126624928D01*
X96746840Y-126646009D01*
X96736452Y-126665445D01*
X96722476Y-126682476D01*
X96705445Y-126696452D01*
X96686009Y-126706840D01*
X96664928Y-126713236D01*
X96636860Y-126716000D01*
X94723140Y-126716000D01*
X94695072Y-126713236D01*
X94673991Y-126706840D01*
X94654555Y-126696452D01*
X94637524Y-126682476D01*
X94623548Y-126665445D01*
X94613160Y-126646009D01*
X94606764Y-126624928D01*
X94604000Y-126596860D01*
X94604000Y-126133140D01*
X94606764Y-126105072D01*
X94613160Y-126083991D01*
X94623548Y-126064555D01*
X94637524Y-126047524D01*
X94654555Y-126033548D01*
X94673991Y-126023160D01*
X94695072Y-126016764D01*
X94723140Y-126014000D01*
X96636860Y-126014000D01*
X96664928Y-126016764D01*
X96664928Y-126016764D01*
G37*
G36*
X146346354Y-125618817D02*
G01*
X145637833Y-126327338D01*
X144328272Y-125017777D01*
X145036793Y-124309256D01*
X146346354Y-125618817D01*
X146346354Y-125618817D01*
G37*
G36*
X135515342Y-125113693D02*
G01*
X134311846Y-126317189D01*
X133108350Y-125113693D01*
X134311846Y-123910197D01*
X135515342Y-125113693D01*
X135515342Y-125113693D01*
G37*
G36*
X143199728Y-124664223D02*
G01*
X142491207Y-125372744D01*
X141181646Y-124063183D01*
X141890167Y-123354662D01*
X143199728Y-124664223D01*
X143199728Y-124664223D01*
G37*
G36*
X149126683Y-123768444D02*
G01*
X149138388Y-123771995D01*
X149149178Y-123777762D01*
X149163402Y-123789436D01*
X149203244Y-123829278D01*
X149203255Y-123829287D01*
X149423165Y-124049197D01*
X149423174Y-124049208D01*
X149463016Y-124089050D01*
X149474690Y-124103274D01*
X149480458Y-124114067D01*
X149486778Y-124134897D01*
X149496156Y-124157535D01*
X149509770Y-124177909D01*
X149527098Y-124195235D01*
X149547473Y-124208848D01*
X149570103Y-124218222D01*
X149590933Y-124224542D01*
X149601726Y-124230310D01*
X149615950Y-124241984D01*
X149655792Y-124281826D01*
X149655803Y-124281835D01*
X149875713Y-124501745D01*
X149875722Y-124501756D01*
X149915564Y-124541598D01*
X149927238Y-124555822D01*
X149933005Y-124566612D01*
X149936556Y-124578317D01*
X149937755Y-124590487D01*
X149936556Y-124602657D01*
X149933005Y-124614362D01*
X149927238Y-124625152D01*
X149915564Y-124639376D01*
X149875722Y-124679218D01*
X149875713Y-124679229D01*
X149698229Y-124856713D01*
X149698218Y-124856722D01*
X149658376Y-124896564D01*
X149644152Y-124908238D01*
X149633362Y-124914005D01*
X149621657Y-124917556D01*
X149609487Y-124918755D01*
X149597317Y-124917556D01*
X149585612Y-124914005D01*
X149574822Y-124908238D01*
X149560598Y-124896564D01*
X149520756Y-124856722D01*
X149520745Y-124856713D01*
X149300835Y-124636803D01*
X149300826Y-124636792D01*
X149260984Y-124596950D01*
X149249310Y-124582726D01*
X149243542Y-124571933D01*
X149237222Y-124551103D01*
X149227844Y-124528465D01*
X149214230Y-124508091D01*
X149196902Y-124490765D01*
X149176527Y-124477152D01*
X149153897Y-124467778D01*
X149133067Y-124461458D01*
X149122274Y-124455690D01*
X149108050Y-124444016D01*
X149068208Y-124404174D01*
X149068197Y-124404165D01*
X148848287Y-124184255D01*
X148848278Y-124184244D01*
X148808436Y-124144402D01*
X148796762Y-124130178D01*
X148790995Y-124119388D01*
X148787444Y-124107683D01*
X148786245Y-124095513D01*
X148787444Y-124083343D01*
X148790995Y-124071638D01*
X148796762Y-124060848D01*
X148808436Y-124046624D01*
X148848278Y-124006782D01*
X148848287Y-124006771D01*
X149025771Y-123829287D01*
X149025782Y-123829278D01*
X149065624Y-123789436D01*
X149079848Y-123777762D01*
X149090638Y-123771995D01*
X149102343Y-123768444D01*
X149114513Y-123767245D01*
X149126683Y-123768444D01*
X149126683Y-123768444D01*
G37*
G36*
X168228674Y-123348465D02*
G01*
X168266367Y-123359899D01*
X168301103Y-123378466D01*
X168331548Y-123403452D01*
X168356534Y-123433897D01*
X168375101Y-123468633D01*
X168386535Y-123506326D01*
X168391000Y-123551661D01*
X168391000Y-124388339D01*
X168386535Y-124433674D01*
X168375101Y-124471367D01*
X168356534Y-124506103D01*
X168331548Y-124536548D01*
X168301103Y-124561534D01*
X168266367Y-124580101D01*
X168228674Y-124591535D01*
X168183339Y-124596000D01*
X167096661Y-124596000D01*
X167051326Y-124591535D01*
X167013633Y-124580101D01*
X166978897Y-124561534D01*
X166948452Y-124536548D01*
X166923466Y-124506103D01*
X166904899Y-124471367D01*
X166893465Y-124433674D01*
X166889000Y-124388339D01*
X166889000Y-123551661D01*
X166893465Y-123506326D01*
X166904899Y-123468633D01*
X166923466Y-123433897D01*
X166948452Y-123403452D01*
X166978897Y-123378466D01*
X167013633Y-123359899D01*
X167051326Y-123348465D01*
X167096661Y-123344000D01*
X168183339Y-123344000D01*
X168228674Y-123348465D01*
X168228674Y-123348465D01*
G37*
G36*
X133719291Y-123317641D02*
G01*
X132515795Y-124521137D01*
X131312299Y-123317641D01*
X132515795Y-122114145D01*
X133719291Y-123317641D01*
X133719291Y-123317641D01*
G37*
G36*
X144295744Y-123568207D02*
G01*
X143587223Y-124276728D01*
X142277662Y-122967167D01*
X142986183Y-122258646D01*
X144295744Y-123568207D01*
X144295744Y-123568207D01*
G37*
G36*
X131923240Y-121521590D02*
G01*
X130719744Y-122725086D01*
X129516248Y-121521590D01*
X130719744Y-120318094D01*
X131923240Y-121521590D01*
X131923240Y-121521590D01*
G37*
G36*
X168228674Y-121298465D02*
G01*
X168266367Y-121309899D01*
X168301103Y-121328466D01*
X168331548Y-121353452D01*
X168356534Y-121383897D01*
X168375101Y-121418633D01*
X168386535Y-121456326D01*
X168391000Y-121501661D01*
X168391000Y-122338339D01*
X168386535Y-122383674D01*
X168375101Y-122421367D01*
X168356534Y-122456103D01*
X168331548Y-122486548D01*
X168301103Y-122511534D01*
X168266367Y-122530101D01*
X168228674Y-122541535D01*
X168183339Y-122546000D01*
X167096661Y-122546000D01*
X167051326Y-122541535D01*
X167013633Y-122530101D01*
X166978897Y-122511534D01*
X166948452Y-122486548D01*
X166923466Y-122456103D01*
X166904899Y-122421367D01*
X166893465Y-122383674D01*
X166889000Y-122338339D01*
X166889000Y-121501661D01*
X166893465Y-121456326D01*
X166904899Y-121418633D01*
X166923466Y-121383897D01*
X166948452Y-121353452D01*
X166978897Y-121328466D01*
X167013633Y-121309899D01*
X167051326Y-121298465D01*
X167096661Y-121294000D01*
X168183339Y-121294000D01*
X168228674Y-121298465D01*
X168228674Y-121298465D01*
G37*
G36*
X47435674Y-119141465D02*
G01*
X47473367Y-119152899D01*
X47508103Y-119171466D01*
X47538548Y-119196452D01*
X47563534Y-119226897D01*
X47582101Y-119261633D01*
X47593535Y-119299326D01*
X47598000Y-119344661D01*
X47598000Y-120431339D01*
X47593535Y-120476674D01*
X47582101Y-120514367D01*
X47563534Y-120549103D01*
X47538548Y-120579548D01*
X47508103Y-120604534D01*
X47473367Y-120623101D01*
X47435674Y-120634535D01*
X47390339Y-120639000D01*
X46553661Y-120639000D01*
X46508326Y-120634535D01*
X46470633Y-120623101D01*
X46435897Y-120604534D01*
X46405452Y-120579548D01*
X46380466Y-120549103D01*
X46361899Y-120514367D01*
X46350465Y-120476674D01*
X46346000Y-120431339D01*
X46346000Y-119344661D01*
X46350465Y-119299326D01*
X46361899Y-119261633D01*
X46380466Y-119226897D01*
X46405452Y-119196452D01*
X46435897Y-119171466D01*
X46470633Y-119152899D01*
X46508326Y-119141465D01*
X46553661Y-119137000D01*
X47390339Y-119137000D01*
X47435674Y-119141465D01*
X47435674Y-119141465D01*
G37*
G36*
X49485674Y-119141465D02*
G01*
X49523367Y-119152899D01*
X49558103Y-119171466D01*
X49588548Y-119196452D01*
X49613534Y-119226897D01*
X49632101Y-119261633D01*
X49643535Y-119299326D01*
X49648000Y-119344661D01*
X49648000Y-120431339D01*
X49643535Y-120476674D01*
X49632101Y-120514367D01*
X49613534Y-120549103D01*
X49588548Y-120579548D01*
X49558103Y-120604534D01*
X49523367Y-120623101D01*
X49485674Y-120634535D01*
X49440339Y-120639000D01*
X48603661Y-120639000D01*
X48558326Y-120634535D01*
X48520633Y-120623101D01*
X48485897Y-120604534D01*
X48455452Y-120579548D01*
X48430466Y-120549103D01*
X48411899Y-120514367D01*
X48400465Y-120476674D01*
X48396000Y-120431339D01*
X48396000Y-119344661D01*
X48400465Y-119299326D01*
X48411899Y-119261633D01*
X48430466Y-119226897D01*
X48455452Y-119196452D01*
X48485897Y-119171466D01*
X48520633Y-119152899D01*
X48558326Y-119141465D01*
X48603661Y-119137000D01*
X49440339Y-119137000D01*
X49485674Y-119141465D01*
X49485674Y-119141465D01*
G37*
G36*
X143810409Y-119087170D02*
G01*
X143822114Y-119090721D01*
X143832904Y-119096488D01*
X143847128Y-119108162D01*
X143886970Y-119148004D01*
X143886981Y-119148013D01*
X144106891Y-119367923D01*
X144106900Y-119367934D01*
X144146742Y-119407776D01*
X144158416Y-119422000D01*
X144164184Y-119432793D01*
X144170504Y-119453623D01*
X144179882Y-119476261D01*
X144193496Y-119496635D01*
X144210824Y-119513961D01*
X144231199Y-119527574D01*
X144253829Y-119536948D01*
X144274659Y-119543268D01*
X144285452Y-119549036D01*
X144299676Y-119560710D01*
X144339518Y-119600552D01*
X144339529Y-119600561D01*
X144559439Y-119820471D01*
X144559448Y-119820482D01*
X144599290Y-119860324D01*
X144610964Y-119874548D01*
X144616731Y-119885338D01*
X144620282Y-119897043D01*
X144621481Y-119909213D01*
X144620282Y-119921383D01*
X144616731Y-119933088D01*
X144610964Y-119943878D01*
X144599290Y-119958102D01*
X144559448Y-119997944D01*
X144559439Y-119997955D01*
X144381955Y-120175439D01*
X144381944Y-120175448D01*
X144342102Y-120215290D01*
X144327878Y-120226964D01*
X144317088Y-120232731D01*
X144305383Y-120236282D01*
X144293213Y-120237481D01*
X144281043Y-120236282D01*
X144269338Y-120232731D01*
X144258548Y-120226964D01*
X144244324Y-120215290D01*
X144204482Y-120175448D01*
X144204471Y-120175439D01*
X143984561Y-119955529D01*
X143984552Y-119955518D01*
X143944710Y-119915676D01*
X143933036Y-119901452D01*
X143927268Y-119890659D01*
X143920948Y-119869829D01*
X143911570Y-119847191D01*
X143897956Y-119826817D01*
X143880628Y-119809491D01*
X143860253Y-119795878D01*
X143837623Y-119786504D01*
X143816793Y-119780184D01*
X143806000Y-119774416D01*
X143791776Y-119762742D01*
X143751934Y-119722900D01*
X143751923Y-119722891D01*
X143532013Y-119502981D01*
X143532004Y-119502970D01*
X143492162Y-119463128D01*
X143480488Y-119448904D01*
X143474721Y-119438114D01*
X143471170Y-119426409D01*
X143469971Y-119414239D01*
X143471170Y-119402069D01*
X143474721Y-119390364D01*
X143480488Y-119379574D01*
X143492162Y-119365350D01*
X143532004Y-119325508D01*
X143532013Y-119325497D01*
X143709497Y-119148013D01*
X143709508Y-119148004D01*
X143749350Y-119108162D01*
X143763574Y-119096488D01*
X143774364Y-119090721D01*
X143786069Y-119087170D01*
X143798239Y-119085971D01*
X143810409Y-119087170D01*
X143810409Y-119087170D01*
G37*
G36*
X62056674Y-118776465D02*
G01*
X62094367Y-118787899D01*
X62129103Y-118806466D01*
X62159548Y-118831452D01*
X62184534Y-118861897D01*
X62203101Y-118896633D01*
X62214535Y-118934326D01*
X62219000Y-118979661D01*
X62219000Y-119816339D01*
X62214535Y-119861674D01*
X62203101Y-119899367D01*
X62184534Y-119934103D01*
X62159548Y-119964548D01*
X62129103Y-119989534D01*
X62094367Y-120008101D01*
X62056674Y-120019535D01*
X62011339Y-120024000D01*
X60924661Y-120024000D01*
X60879326Y-120019535D01*
X60841633Y-120008101D01*
X60806897Y-119989534D01*
X60776452Y-119964548D01*
X60751466Y-119934103D01*
X60732899Y-119899367D01*
X60721465Y-119861674D01*
X60717000Y-119816339D01*
X60717000Y-118979661D01*
X60721465Y-118934326D01*
X60732899Y-118896633D01*
X60751466Y-118861897D01*
X60776452Y-118831452D01*
X60806897Y-118806466D01*
X60841633Y-118787899D01*
X60879326Y-118776465D01*
X60924661Y-118772000D01*
X62011339Y-118772000D01*
X62056674Y-118776465D01*
X62056674Y-118776465D01*
G37*
G36*
X58754674Y-118758465D02*
G01*
X58792367Y-118769899D01*
X58827103Y-118788466D01*
X58857548Y-118813452D01*
X58882534Y-118843897D01*
X58901101Y-118878633D01*
X58912535Y-118916326D01*
X58917000Y-118961661D01*
X58917000Y-119798339D01*
X58912535Y-119843674D01*
X58901101Y-119881367D01*
X58882534Y-119916103D01*
X58857548Y-119946548D01*
X58827103Y-119971534D01*
X58792367Y-119990101D01*
X58754674Y-120001535D01*
X58709339Y-120006000D01*
X57622661Y-120006000D01*
X57577326Y-120001535D01*
X57539633Y-119990101D01*
X57504897Y-119971534D01*
X57474452Y-119946548D01*
X57449466Y-119916103D01*
X57430899Y-119881367D01*
X57419465Y-119843674D01*
X57415000Y-119798339D01*
X57415000Y-118961661D01*
X57419465Y-118916326D01*
X57430899Y-118878633D01*
X57449466Y-118843897D01*
X57474452Y-118813452D01*
X57504897Y-118788466D01*
X57539633Y-118769899D01*
X57577326Y-118758465D01*
X57622661Y-118754000D01*
X58709339Y-118754000D01*
X58754674Y-118758465D01*
X58754674Y-118758465D01*
G37*
G36*
X62056674Y-116726465D02*
G01*
X62094367Y-116737899D01*
X62129103Y-116756466D01*
X62159548Y-116781452D01*
X62184534Y-116811897D01*
X62203101Y-116846633D01*
X62214535Y-116884326D01*
X62219000Y-116929661D01*
X62219000Y-117766339D01*
X62214535Y-117811674D01*
X62203101Y-117849367D01*
X62184534Y-117884103D01*
X62159548Y-117914548D01*
X62129103Y-117939534D01*
X62094367Y-117958101D01*
X62056674Y-117969535D01*
X62011339Y-117974000D01*
X60924661Y-117974000D01*
X60879326Y-117969535D01*
X60841633Y-117958101D01*
X60806897Y-117939534D01*
X60776452Y-117914548D01*
X60751466Y-117884103D01*
X60732899Y-117849367D01*
X60721465Y-117811674D01*
X60717000Y-117766339D01*
X60717000Y-116929661D01*
X60721465Y-116884326D01*
X60732899Y-116846633D01*
X60751466Y-116811897D01*
X60776452Y-116781452D01*
X60806897Y-116756466D01*
X60841633Y-116737899D01*
X60879326Y-116726465D01*
X60924661Y-116722000D01*
X62011339Y-116722000D01*
X62056674Y-116726465D01*
X62056674Y-116726465D01*
G37*
G36*
X58754674Y-116708465D02*
G01*
X58792367Y-116719899D01*
X58827103Y-116738466D01*
X58857548Y-116763452D01*
X58882534Y-116793897D01*
X58901101Y-116828633D01*
X58912535Y-116866326D01*
X58917000Y-116911661D01*
X58917000Y-117748339D01*
X58912535Y-117793674D01*
X58901101Y-117831367D01*
X58882534Y-117866103D01*
X58857548Y-117896548D01*
X58827103Y-117921534D01*
X58792367Y-117940101D01*
X58754674Y-117951535D01*
X58709339Y-117956000D01*
X57622661Y-117956000D01*
X57577326Y-117951535D01*
X57539633Y-117940101D01*
X57504897Y-117921534D01*
X57474452Y-117896548D01*
X57449466Y-117866103D01*
X57430899Y-117831367D01*
X57419465Y-117793674D01*
X57415000Y-117748339D01*
X57415000Y-116911661D01*
X57419465Y-116866326D01*
X57430899Y-116828633D01*
X57449466Y-116793897D01*
X57474452Y-116763452D01*
X57504897Y-116738466D01*
X57539633Y-116719899D01*
X57577326Y-116708465D01*
X57622661Y-116704000D01*
X58709339Y-116704000D01*
X58754674Y-116708465D01*
X58754674Y-116708465D01*
G37*
G36*
X55452674Y-115973465D02*
G01*
X55490367Y-115984899D01*
X55525103Y-116003466D01*
X55555548Y-116028452D01*
X55580534Y-116058897D01*
X55599101Y-116093633D01*
X55610535Y-116131326D01*
X55615000Y-116176661D01*
X55615000Y-117013339D01*
X55610535Y-117058674D01*
X55599101Y-117096367D01*
X55580534Y-117131103D01*
X55555548Y-117161548D01*
X55525103Y-117186534D01*
X55490367Y-117205101D01*
X55452674Y-117216535D01*
X55407339Y-117221000D01*
X54320661Y-117221000D01*
X54275326Y-117216535D01*
X54237633Y-117205101D01*
X54202897Y-117186534D01*
X54172452Y-117161548D01*
X54147466Y-117131103D01*
X54128899Y-117096367D01*
X54117465Y-117058674D01*
X54113000Y-117013339D01*
X54113000Y-116176661D01*
X54117465Y-116131326D01*
X54128899Y-116093633D01*
X54147466Y-116058897D01*
X54172452Y-116028452D01*
X54202897Y-116003466D01*
X54237633Y-115984899D01*
X54275326Y-115973465D01*
X54320661Y-115969000D01*
X55407339Y-115969000D01*
X55452674Y-115973465D01*
X55452674Y-115973465D01*
G37*
G36*
X51780674Y-114061465D02*
G01*
X51818367Y-114072899D01*
X51853103Y-114091466D01*
X51883548Y-114116452D01*
X51908534Y-114146897D01*
X51927101Y-114181633D01*
X51938535Y-114219326D01*
X51943000Y-114264661D01*
X51943000Y-115351339D01*
X51938535Y-115396674D01*
X51927101Y-115434367D01*
X51908534Y-115469103D01*
X51883548Y-115499548D01*
X51853103Y-115524534D01*
X51818367Y-115543101D01*
X51780674Y-115554535D01*
X51735339Y-115559000D01*
X50898661Y-115559000D01*
X50853326Y-115554535D01*
X50815633Y-115543101D01*
X50780897Y-115524534D01*
X50750452Y-115499548D01*
X50725466Y-115469103D01*
X50706899Y-115434367D01*
X50695465Y-115396674D01*
X50691000Y-115351339D01*
X50691000Y-114264661D01*
X50695465Y-114219326D01*
X50706899Y-114181633D01*
X50725466Y-114146897D01*
X50750452Y-114116452D01*
X50780897Y-114091466D01*
X50815633Y-114072899D01*
X50853326Y-114061465D01*
X50898661Y-114057000D01*
X51735339Y-114057000D01*
X51780674Y-114061465D01*
X51780674Y-114061465D01*
G37*
G36*
X49730674Y-114061465D02*
G01*
X49768367Y-114072899D01*
X49803103Y-114091466D01*
X49833548Y-114116452D01*
X49858534Y-114146897D01*
X49877101Y-114181633D01*
X49888535Y-114219326D01*
X49893000Y-114264661D01*
X49893000Y-115351339D01*
X49888535Y-115396674D01*
X49877101Y-115434367D01*
X49858534Y-115469103D01*
X49833548Y-115499548D01*
X49803103Y-115524534D01*
X49768367Y-115543101D01*
X49730674Y-115554535D01*
X49685339Y-115559000D01*
X48848661Y-115559000D01*
X48803326Y-115554535D01*
X48765633Y-115543101D01*
X48730897Y-115524534D01*
X48700452Y-115499548D01*
X48675466Y-115469103D01*
X48656899Y-115434367D01*
X48645465Y-115396674D01*
X48641000Y-115351339D01*
X48641000Y-114264661D01*
X48645465Y-114219326D01*
X48656899Y-114181633D01*
X48675466Y-114146897D01*
X48700452Y-114116452D01*
X48730897Y-114091466D01*
X48765633Y-114072899D01*
X48803326Y-114061465D01*
X48848661Y-114057000D01*
X49685339Y-114057000D01*
X49730674Y-114061465D01*
X49730674Y-114061465D01*
G37*
G36*
X55452674Y-113923465D02*
G01*
X55490367Y-113934899D01*
X55525103Y-113953466D01*
X55555548Y-113978452D01*
X55580534Y-114008897D01*
X55599101Y-114043633D01*
X55610535Y-114081326D01*
X55615000Y-114126661D01*
X55615000Y-114963339D01*
X55610535Y-115008674D01*
X55599101Y-115046367D01*
X55580534Y-115081103D01*
X55555548Y-115111548D01*
X55525103Y-115136534D01*
X55490367Y-115155101D01*
X55452674Y-115166535D01*
X55407339Y-115171000D01*
X54320661Y-115171000D01*
X54275326Y-115166535D01*
X54237633Y-115155101D01*
X54202897Y-115136534D01*
X54172452Y-115111548D01*
X54147466Y-115081103D01*
X54128899Y-115046367D01*
X54117465Y-115008674D01*
X54113000Y-114963339D01*
X54113000Y-114126661D01*
X54117465Y-114081326D01*
X54128899Y-114043633D01*
X54147466Y-114008897D01*
X54172452Y-113978452D01*
X54202897Y-113953466D01*
X54237633Y-113934899D01*
X54275326Y-113923465D01*
X54320661Y-113919000D01*
X55407339Y-113919000D01*
X55452674Y-113923465D01*
X55452674Y-113923465D01*
G37*
G36*
X56320295Y-110595323D02*
G01*
X56327309Y-110597451D01*
X56341077Y-110604810D01*
X56363716Y-110614187D01*
X56387749Y-110618967D01*
X56412253Y-110618967D01*
X56436286Y-110614186D01*
X56458923Y-110604810D01*
X56472691Y-110597451D01*
X56479705Y-110595323D01*
X56493140Y-110594000D01*
X56806860Y-110594000D01*
X56820295Y-110595323D01*
X56827309Y-110597451D01*
X56841077Y-110604810D01*
X56863716Y-110614187D01*
X56887749Y-110618967D01*
X56912253Y-110618967D01*
X56936286Y-110614186D01*
X56958923Y-110604810D01*
X56972691Y-110597451D01*
X56979705Y-110595323D01*
X56993140Y-110594000D01*
X57306860Y-110594000D01*
X57320295Y-110595323D01*
X57327309Y-110597451D01*
X57341077Y-110604810D01*
X57363716Y-110614187D01*
X57387749Y-110618967D01*
X57412253Y-110618967D01*
X57436286Y-110614186D01*
X57458923Y-110604810D01*
X57472691Y-110597451D01*
X57479705Y-110595323D01*
X57493140Y-110594000D01*
X57806860Y-110594000D01*
X57820295Y-110595323D01*
X57827309Y-110597451D01*
X57841077Y-110604810D01*
X57863716Y-110614187D01*
X57887749Y-110618967D01*
X57912253Y-110618967D01*
X57936286Y-110614186D01*
X57958923Y-110604810D01*
X57972691Y-110597451D01*
X57979705Y-110595323D01*
X57993140Y-110594000D01*
X58306860Y-110594000D01*
X58320295Y-110595323D01*
X58327310Y-110597451D01*
X58333776Y-110600908D01*
X58339442Y-110605558D01*
X58344092Y-110611224D01*
X58347549Y-110617690D01*
X58349677Y-110624705D01*
X58351000Y-110638140D01*
X58351000Y-112126860D01*
X58349677Y-112140295D01*
X58347549Y-112147310D01*
X58344092Y-112153776D01*
X58339442Y-112159442D01*
X58333776Y-112164092D01*
X58327310Y-112167549D01*
X58320295Y-112169677D01*
X58306860Y-112171000D01*
X57993140Y-112171000D01*
X57979705Y-112169677D01*
X57972691Y-112167549D01*
X57958923Y-112160190D01*
X57936284Y-112150813D01*
X57912251Y-112146033D01*
X57887747Y-112146033D01*
X57863714Y-112150814D01*
X57841077Y-112160190D01*
X57827309Y-112167549D01*
X57820295Y-112169677D01*
X57806860Y-112171000D01*
X57493140Y-112171000D01*
X57479705Y-112169677D01*
X57472691Y-112167549D01*
X57458923Y-112160190D01*
X57436284Y-112150813D01*
X57412251Y-112146033D01*
X57387747Y-112146033D01*
X57363714Y-112150814D01*
X57341077Y-112160190D01*
X57327309Y-112167549D01*
X57320295Y-112169677D01*
X57306860Y-112171000D01*
X56993140Y-112171000D01*
X56979705Y-112169677D01*
X56972691Y-112167549D01*
X56958923Y-112160190D01*
X56936284Y-112150813D01*
X56912251Y-112146033D01*
X56887747Y-112146033D01*
X56863714Y-112150814D01*
X56841077Y-112160190D01*
X56827309Y-112167549D01*
X56820295Y-112169677D01*
X56806860Y-112171000D01*
X56493140Y-112171000D01*
X56479705Y-112169677D01*
X56472691Y-112167549D01*
X56458923Y-112160190D01*
X56436284Y-112150813D01*
X56412251Y-112146033D01*
X56387747Y-112146033D01*
X56363714Y-112150814D01*
X56341077Y-112160190D01*
X56327309Y-112167549D01*
X56320295Y-112169677D01*
X56306860Y-112171000D01*
X55993140Y-112171000D01*
X55979705Y-112169677D01*
X55972690Y-112167549D01*
X55966224Y-112164092D01*
X55960558Y-112159442D01*
X55955908Y-112153776D01*
X55952451Y-112147310D01*
X55950323Y-112140295D01*
X55949000Y-112126860D01*
X55949000Y-110638140D01*
X55950323Y-110624705D01*
X55952451Y-110617690D01*
X55955908Y-110611224D01*
X55960558Y-110605558D01*
X55966224Y-110600908D01*
X55972690Y-110597451D01*
X55979705Y-110595323D01*
X55993140Y-110594000D01*
X56306860Y-110594000D01*
X56320295Y-110595323D01*
X56320295Y-110595323D01*
G37*
G36*
X168088254Y-107507818D02*
G01*
X168448025Y-107656840D01*
X168461513Y-107662427D01*
X168797436Y-107886884D01*
X169083116Y-108172564D01*
X169249556Y-108421658D01*
X169307574Y-108508489D01*
X169462182Y-108881746D01*
X169541000Y-109277993D01*
X169541000Y-109682007D01*
X169462182Y-110078254D01*
X169307574Y-110451511D01*
X169307573Y-110451513D01*
X169083116Y-110787436D01*
X168797436Y-111073116D01*
X168461513Y-111297573D01*
X168461512Y-111297574D01*
X168461511Y-111297574D01*
X168088254Y-111452182D01*
X167692007Y-111531000D01*
X167287993Y-111531000D01*
X166891746Y-111452182D01*
X166518489Y-111297574D01*
X166518488Y-111297574D01*
X166518487Y-111297573D01*
X166182564Y-111073116D01*
X165896884Y-110787436D01*
X165672427Y-110451513D01*
X165672426Y-110451511D01*
X165517818Y-110078254D01*
X165439000Y-109682007D01*
X165439000Y-109277993D01*
X165517818Y-108881746D01*
X165672426Y-108508489D01*
X165730445Y-108421658D01*
X165896884Y-108172564D01*
X166182564Y-107886884D01*
X166518487Y-107662427D01*
X166531975Y-107656840D01*
X166891746Y-107507818D01*
X167287993Y-107429000D01*
X167692007Y-107429000D01*
X168088254Y-107507818D01*
X168088254Y-107507818D01*
G37*
G36*
X33768254Y-107507818D02*
G01*
X34128025Y-107656840D01*
X34141513Y-107662427D01*
X34477436Y-107886884D01*
X34763116Y-108172564D01*
X34929556Y-108421658D01*
X34987574Y-108508489D01*
X35142182Y-108881746D01*
X35221000Y-109277993D01*
X35221000Y-109682007D01*
X35142182Y-110078254D01*
X34987574Y-110451511D01*
X34987573Y-110451513D01*
X34763116Y-110787436D01*
X34477436Y-111073116D01*
X34141513Y-111297573D01*
X34141512Y-111297574D01*
X34141511Y-111297574D01*
X33768254Y-111452182D01*
X33372007Y-111531000D01*
X32967993Y-111531000D01*
X32571746Y-111452182D01*
X32198489Y-111297574D01*
X32198488Y-111297574D01*
X32198487Y-111297573D01*
X31862564Y-111073116D01*
X31576884Y-110787436D01*
X31352427Y-110451513D01*
X31352426Y-110451511D01*
X31197818Y-110078254D01*
X31119000Y-109682007D01*
X31119000Y-109277993D01*
X31197818Y-108881746D01*
X31352426Y-108508489D01*
X31410445Y-108421658D01*
X31576884Y-108172564D01*
X31862564Y-107886884D01*
X32198487Y-107662427D01*
X32211975Y-107656840D01*
X32571746Y-107507818D01*
X32967993Y-107429000D01*
X33372007Y-107429000D01*
X33768254Y-107507818D01*
X33768254Y-107507818D01*
G37*
G36*
X154539928Y-109506764D02*
G01*
X154561009Y-109513160D01*
X154580445Y-109523548D01*
X154597476Y-109537524D01*
X154611452Y-109554555D01*
X154621840Y-109573991D01*
X154628236Y-109595072D01*
X154631000Y-109623140D01*
X154631000Y-110086860D01*
X154628236Y-110114928D01*
X154621840Y-110136009D01*
X154611452Y-110155445D01*
X154597476Y-110172476D01*
X154580445Y-110186452D01*
X154561009Y-110196840D01*
X154539928Y-110203236D01*
X154511860Y-110206000D01*
X152698140Y-110206000D01*
X152670072Y-110203236D01*
X152648991Y-110196840D01*
X152629555Y-110186452D01*
X152612524Y-110172476D01*
X152598548Y-110155445D01*
X152588160Y-110136009D01*
X152581764Y-110114928D01*
X152579000Y-110086860D01*
X152579000Y-109623140D01*
X152581764Y-109595072D01*
X152588160Y-109573991D01*
X152598548Y-109554555D01*
X152612524Y-109537524D01*
X152629555Y-109523548D01*
X152648991Y-109513160D01*
X152670072Y-109506764D01*
X152698140Y-109504000D01*
X154511860Y-109504000D01*
X154539928Y-109506764D01*
X154539928Y-109506764D01*
G37*
G36*
X149589928Y-109506764D02*
G01*
X149611009Y-109513160D01*
X149630445Y-109523548D01*
X149647476Y-109537524D01*
X149661452Y-109554555D01*
X149671840Y-109573991D01*
X149678236Y-109595072D01*
X149681000Y-109623140D01*
X149681000Y-110086860D01*
X149678236Y-110114928D01*
X149671840Y-110136009D01*
X149661452Y-110155445D01*
X149647476Y-110172476D01*
X149630445Y-110186452D01*
X149611009Y-110196840D01*
X149589928Y-110203236D01*
X149561860Y-110206000D01*
X147748140Y-110206000D01*
X147720072Y-110203236D01*
X147698991Y-110196840D01*
X147679555Y-110186452D01*
X147662524Y-110172476D01*
X147648548Y-110155445D01*
X147638160Y-110136009D01*
X147631764Y-110114928D01*
X147629000Y-110086860D01*
X147629000Y-109623140D01*
X147631764Y-109595072D01*
X147638160Y-109573991D01*
X147648548Y-109554555D01*
X147662524Y-109537524D01*
X147679555Y-109523548D01*
X147698991Y-109513160D01*
X147720072Y-109506764D01*
X147748140Y-109504000D01*
X149561860Y-109504000D01*
X149589928Y-109506764D01*
X149589928Y-109506764D01*
G37*
G36*
X58049322Y-108307972D02*
G01*
X58082206Y-108317947D01*
X58112502Y-108334141D01*
X58139062Y-108355938D01*
X58160859Y-108382498D01*
X58177053Y-108412794D01*
X58187028Y-108445678D01*
X58191000Y-108486008D01*
X58191000Y-109953992D01*
X58187028Y-109994322D01*
X58177053Y-110027206D01*
X58160859Y-110057502D01*
X58139062Y-110084062D01*
X58112502Y-110105859D01*
X58082206Y-110122053D01*
X58049322Y-110132028D01*
X58008992Y-110136000D01*
X56291008Y-110136000D01*
X56250678Y-110132028D01*
X56217794Y-110122053D01*
X56187498Y-110105859D01*
X56160938Y-110084062D01*
X56139141Y-110057502D01*
X56122947Y-110027206D01*
X56112972Y-109994322D01*
X56109000Y-109953992D01*
X56109000Y-108486008D01*
X56112972Y-108445678D01*
X56122947Y-108412794D01*
X56139141Y-108382498D01*
X56160938Y-108355938D01*
X56187498Y-108334141D01*
X56217794Y-108317947D01*
X56250678Y-108307972D01*
X56291008Y-108304000D01*
X58008992Y-108304000D01*
X58049322Y-108307972D01*
X58049322Y-108307972D01*
G37*
G36*
X154539928Y-108236764D02*
G01*
X154561009Y-108243160D01*
X154580445Y-108253548D01*
X154597476Y-108267524D01*
X154611452Y-108284555D01*
X154621840Y-108303991D01*
X154628236Y-108325072D01*
X154631000Y-108353140D01*
X154631000Y-108816860D01*
X154628236Y-108844928D01*
X154621840Y-108866009D01*
X154611452Y-108885445D01*
X154597476Y-108902476D01*
X154580445Y-108916452D01*
X154561009Y-108926840D01*
X154539928Y-108933236D01*
X154511860Y-108936000D01*
X152698140Y-108936000D01*
X152670072Y-108933236D01*
X152648991Y-108926840D01*
X152629555Y-108916452D01*
X152612524Y-108902476D01*
X152598548Y-108885445D01*
X152588160Y-108866009D01*
X152581764Y-108844928D01*
X152579000Y-108816860D01*
X152579000Y-108353140D01*
X152581764Y-108325072D01*
X152588160Y-108303991D01*
X152598548Y-108284555D01*
X152612524Y-108267524D01*
X152629555Y-108253548D01*
X152648991Y-108243160D01*
X152670072Y-108236764D01*
X152698140Y-108234000D01*
X154511860Y-108234000D01*
X154539928Y-108236764D01*
X154539928Y-108236764D01*
G37*
G36*
X149589928Y-108236764D02*
G01*
X149611009Y-108243160D01*
X149630445Y-108253548D01*
X149647476Y-108267524D01*
X149661452Y-108284555D01*
X149671840Y-108303991D01*
X149678236Y-108325072D01*
X149681000Y-108353140D01*
X149681000Y-108816860D01*
X149678236Y-108844928D01*
X149671840Y-108866009D01*
X149661452Y-108885445D01*
X149647476Y-108902476D01*
X149630445Y-108916452D01*
X149611009Y-108926840D01*
X149589928Y-108933236D01*
X149561860Y-108936000D01*
X147748140Y-108936000D01*
X147720072Y-108933236D01*
X147698991Y-108926840D01*
X147679555Y-108916452D01*
X147662524Y-108902476D01*
X147648548Y-108885445D01*
X147638160Y-108866009D01*
X147631764Y-108844928D01*
X147629000Y-108816860D01*
X147629000Y-108353140D01*
X147631764Y-108325072D01*
X147638160Y-108303991D01*
X147648548Y-108284555D01*
X147662524Y-108267524D01*
X147679555Y-108253548D01*
X147698991Y-108243160D01*
X147720072Y-108236764D01*
X147748140Y-108234000D01*
X149561860Y-108234000D01*
X149589928Y-108236764D01*
X149589928Y-108236764D01*
G37*
G36*
X56320295Y-106270323D02*
G01*
X56327309Y-106272451D01*
X56341077Y-106279810D01*
X56363716Y-106289187D01*
X56387749Y-106293967D01*
X56412253Y-106293967D01*
X56436286Y-106289186D01*
X56458923Y-106279810D01*
X56472691Y-106272451D01*
X56479705Y-106270323D01*
X56493140Y-106269000D01*
X56806860Y-106269000D01*
X56820295Y-106270323D01*
X56827309Y-106272451D01*
X56841077Y-106279810D01*
X56863716Y-106289187D01*
X56887749Y-106293967D01*
X56912253Y-106293967D01*
X56936286Y-106289186D01*
X56958923Y-106279810D01*
X56972691Y-106272451D01*
X56979705Y-106270323D01*
X56993140Y-106269000D01*
X57306860Y-106269000D01*
X57320295Y-106270323D01*
X57327309Y-106272451D01*
X57341077Y-106279810D01*
X57363716Y-106289187D01*
X57387749Y-106293967D01*
X57412253Y-106293967D01*
X57436286Y-106289186D01*
X57458923Y-106279810D01*
X57472691Y-106272451D01*
X57479705Y-106270323D01*
X57493140Y-106269000D01*
X57806860Y-106269000D01*
X57820295Y-106270323D01*
X57827309Y-106272451D01*
X57841077Y-106279810D01*
X57863716Y-106289187D01*
X57887749Y-106293967D01*
X57912253Y-106293967D01*
X57936286Y-106289186D01*
X57958923Y-106279810D01*
X57972691Y-106272451D01*
X57979705Y-106270323D01*
X57993140Y-106269000D01*
X58306860Y-106269000D01*
X58320295Y-106270323D01*
X58327310Y-106272451D01*
X58333776Y-106275908D01*
X58339442Y-106280558D01*
X58344092Y-106286224D01*
X58347549Y-106292690D01*
X58349677Y-106299705D01*
X58351000Y-106313140D01*
X58351000Y-107801860D01*
X58349677Y-107815295D01*
X58347549Y-107822310D01*
X58344092Y-107828776D01*
X58339442Y-107834442D01*
X58333776Y-107839092D01*
X58327310Y-107842549D01*
X58320295Y-107844677D01*
X58306860Y-107846000D01*
X57993140Y-107846000D01*
X57979705Y-107844677D01*
X57972691Y-107842549D01*
X57958923Y-107835190D01*
X57936284Y-107825813D01*
X57912251Y-107821033D01*
X57887747Y-107821033D01*
X57863714Y-107825814D01*
X57841077Y-107835190D01*
X57827309Y-107842549D01*
X57820295Y-107844677D01*
X57806860Y-107846000D01*
X57493140Y-107846000D01*
X57479705Y-107844677D01*
X57472691Y-107842549D01*
X57458923Y-107835190D01*
X57436284Y-107825813D01*
X57412251Y-107821033D01*
X57387747Y-107821033D01*
X57363714Y-107825814D01*
X57341077Y-107835190D01*
X57327309Y-107842549D01*
X57320295Y-107844677D01*
X57306860Y-107846000D01*
X56993140Y-107846000D01*
X56979705Y-107844677D01*
X56972691Y-107842549D01*
X56958923Y-107835190D01*
X56936284Y-107825813D01*
X56912251Y-107821033D01*
X56887747Y-107821033D01*
X56863714Y-107825814D01*
X56841077Y-107835190D01*
X56827309Y-107842549D01*
X56820295Y-107844677D01*
X56806860Y-107846000D01*
X56493140Y-107846000D01*
X56479705Y-107844677D01*
X56472691Y-107842549D01*
X56458923Y-107835190D01*
X56436284Y-107825813D01*
X56412251Y-107821033D01*
X56387747Y-107821033D01*
X56363714Y-107825814D01*
X56341077Y-107835190D01*
X56327309Y-107842549D01*
X56320295Y-107844677D01*
X56306860Y-107846000D01*
X55993140Y-107846000D01*
X55979705Y-107844677D01*
X55972690Y-107842549D01*
X55966224Y-107839092D01*
X55960558Y-107834442D01*
X55955908Y-107828776D01*
X55952451Y-107822310D01*
X55950323Y-107815295D01*
X55949000Y-107801860D01*
X55949000Y-106313140D01*
X55950323Y-106299705D01*
X55952451Y-106292690D01*
X55955908Y-106286224D01*
X55960558Y-106280558D01*
X55966224Y-106275908D01*
X55972690Y-106272451D01*
X55979705Y-106270323D01*
X55993140Y-106269000D01*
X56306860Y-106269000D01*
X56320295Y-106270323D01*
X56320295Y-106270323D01*
G37*
G36*
X154539928Y-106966764D02*
G01*
X154561009Y-106973160D01*
X154580445Y-106983548D01*
X154597476Y-106997524D01*
X154611452Y-107014555D01*
X154621840Y-107033991D01*
X154628236Y-107055072D01*
X154631000Y-107083140D01*
X154631000Y-107546860D01*
X154628236Y-107574928D01*
X154621840Y-107596009D01*
X154611452Y-107615445D01*
X154597476Y-107632476D01*
X154580445Y-107646452D01*
X154561009Y-107656840D01*
X154539928Y-107663236D01*
X154511860Y-107666000D01*
X152698140Y-107666000D01*
X152670072Y-107663236D01*
X152648991Y-107656840D01*
X152629555Y-107646452D01*
X152612524Y-107632476D01*
X152598548Y-107615445D01*
X152588160Y-107596009D01*
X152581764Y-107574928D01*
X152579000Y-107546860D01*
X152579000Y-107083140D01*
X152581764Y-107055072D01*
X152588160Y-107033991D01*
X152598548Y-107014555D01*
X152612524Y-106997524D01*
X152629555Y-106983548D01*
X152648991Y-106973160D01*
X152670072Y-106966764D01*
X152698140Y-106964000D01*
X154511860Y-106964000D01*
X154539928Y-106966764D01*
X154539928Y-106966764D01*
G37*
G36*
X149589928Y-106966764D02*
G01*
X149611009Y-106973160D01*
X149630445Y-106983548D01*
X149647476Y-106997524D01*
X149661452Y-107014555D01*
X149671840Y-107033991D01*
X149678236Y-107055072D01*
X149681000Y-107083140D01*
X149681000Y-107546860D01*
X149678236Y-107574928D01*
X149671840Y-107596009D01*
X149661452Y-107615445D01*
X149647476Y-107632476D01*
X149630445Y-107646452D01*
X149611009Y-107656840D01*
X149589928Y-107663236D01*
X149561860Y-107666000D01*
X147748140Y-107666000D01*
X147720072Y-107663236D01*
X147698991Y-107656840D01*
X147679555Y-107646452D01*
X147662524Y-107632476D01*
X147648548Y-107615445D01*
X147638160Y-107596009D01*
X147631764Y-107574928D01*
X147629000Y-107546860D01*
X147629000Y-107083140D01*
X147631764Y-107055072D01*
X147638160Y-107033991D01*
X147648548Y-107014555D01*
X147662524Y-106997524D01*
X147679555Y-106983548D01*
X147698991Y-106973160D01*
X147720072Y-106966764D01*
X147748140Y-106964000D01*
X149561860Y-106964000D01*
X149589928Y-106966764D01*
X149589928Y-106966764D01*
G37*
G36*
X64453674Y-105933465D02*
G01*
X64491367Y-105944899D01*
X64526103Y-105963466D01*
X64556548Y-105988452D01*
X64581534Y-106018897D01*
X64600101Y-106053633D01*
X64611535Y-106091326D01*
X64616000Y-106136661D01*
X64616000Y-107223339D01*
X64611535Y-107268674D01*
X64600101Y-107306367D01*
X64581534Y-107341103D01*
X64556548Y-107371548D01*
X64526103Y-107396534D01*
X64491367Y-107415101D01*
X64453674Y-107426535D01*
X64408339Y-107431000D01*
X63571661Y-107431000D01*
X63526326Y-107426535D01*
X63488633Y-107415101D01*
X63453897Y-107396534D01*
X63423452Y-107371548D01*
X63398466Y-107341103D01*
X63379899Y-107306367D01*
X63368465Y-107268674D01*
X63364000Y-107223339D01*
X63364000Y-106136661D01*
X63368465Y-106091326D01*
X63379899Y-106053633D01*
X63398466Y-106018897D01*
X63423452Y-105988452D01*
X63453897Y-105963466D01*
X63488633Y-105944899D01*
X63526326Y-105933465D01*
X63571661Y-105929000D01*
X64408339Y-105929000D01*
X64453674Y-105933465D01*
X64453674Y-105933465D01*
G37*
G36*
X66503674Y-105933465D02*
G01*
X66541367Y-105944899D01*
X66576103Y-105963466D01*
X66606548Y-105988452D01*
X66631534Y-106018897D01*
X66650101Y-106053633D01*
X66661535Y-106091326D01*
X66666000Y-106136661D01*
X66666000Y-107223339D01*
X66661535Y-107268674D01*
X66650101Y-107306367D01*
X66631534Y-107341103D01*
X66606548Y-107371548D01*
X66576103Y-107396534D01*
X66541367Y-107415101D01*
X66503674Y-107426535D01*
X66458339Y-107431000D01*
X65621661Y-107431000D01*
X65576326Y-107426535D01*
X65538633Y-107415101D01*
X65503897Y-107396534D01*
X65473452Y-107371548D01*
X65448466Y-107341103D01*
X65429899Y-107306367D01*
X65418465Y-107268674D01*
X65414000Y-107223339D01*
X65414000Y-106136661D01*
X65418465Y-106091326D01*
X65429899Y-106053633D01*
X65448466Y-106018897D01*
X65473452Y-105988452D01*
X65503897Y-105963466D01*
X65538633Y-105944899D01*
X65576326Y-105933465D01*
X65621661Y-105929000D01*
X66458339Y-105929000D01*
X66503674Y-105933465D01*
X66503674Y-105933465D01*
G37*
G36*
X154539928Y-105696764D02*
G01*
X154561009Y-105703160D01*
X154580445Y-105713548D01*
X154597476Y-105727524D01*
X154611452Y-105744555D01*
X154621840Y-105763991D01*
X154628236Y-105785072D01*
X154631000Y-105813140D01*
X154631000Y-106276860D01*
X154628236Y-106304928D01*
X154621840Y-106326009D01*
X154611452Y-106345445D01*
X154597476Y-106362476D01*
X154580445Y-106376452D01*
X154561009Y-106386840D01*
X154539928Y-106393236D01*
X154511860Y-106396000D01*
X152698140Y-106396000D01*
X152670072Y-106393236D01*
X152648991Y-106386840D01*
X152629555Y-106376452D01*
X152612524Y-106362476D01*
X152598548Y-106345445D01*
X152588160Y-106326009D01*
X152581764Y-106304928D01*
X152579000Y-106276860D01*
X152579000Y-105813140D01*
X152581764Y-105785072D01*
X152588160Y-105763991D01*
X152598548Y-105744555D01*
X152612524Y-105727524D01*
X152629555Y-105713548D01*
X152648991Y-105703160D01*
X152670072Y-105696764D01*
X152698140Y-105694000D01*
X154511860Y-105694000D01*
X154539928Y-105696764D01*
X154539928Y-105696764D01*
G37*
G36*
X149589928Y-105696764D02*
G01*
X149611009Y-105703160D01*
X149630445Y-105713548D01*
X149647476Y-105727524D01*
X149661452Y-105744555D01*
X149671840Y-105763991D01*
X149678236Y-105785072D01*
X149681000Y-105813140D01*
X149681000Y-106276860D01*
X149678236Y-106304928D01*
X149671840Y-106326009D01*
X149661452Y-106345445D01*
X149647476Y-106362476D01*
X149630445Y-106376452D01*
X149611009Y-106386840D01*
X149589928Y-106393236D01*
X149561860Y-106396000D01*
X147748140Y-106396000D01*
X147720072Y-106393236D01*
X147698991Y-106386840D01*
X147679555Y-106376452D01*
X147662524Y-106362476D01*
X147648548Y-106345445D01*
X147638160Y-106326009D01*
X147631764Y-106304928D01*
X147629000Y-106276860D01*
X147629000Y-105813140D01*
X147631764Y-105785072D01*
X147638160Y-105763991D01*
X147648548Y-105744555D01*
X147662524Y-105727524D01*
X147679555Y-105713548D01*
X147698991Y-105703160D01*
X147720072Y-105696764D01*
X147748140Y-105694000D01*
X149561860Y-105694000D01*
X149589928Y-105696764D01*
X149589928Y-105696764D01*
G37*
G36*
X102795065Y-88393766D02*
G01*
X103776217Y-88800173D01*
X104333050Y-89030821D01*
X105717199Y-89955679D01*
X106894321Y-91132801D01*
X107819179Y-92516950D01*
X107819180Y-92516952D01*
X108456234Y-94054935D01*
X108781000Y-95687648D01*
X108781000Y-97352352D01*
X108456234Y-98985065D01*
X107819180Y-100523048D01*
X107819179Y-100523050D01*
X106894321Y-101907199D01*
X105717199Y-103084321D01*
X104333050Y-104009179D01*
X104333049Y-104009180D01*
X104333048Y-104009180D01*
X102795065Y-104646234D01*
X101162352Y-104971000D01*
X99497648Y-104971000D01*
X97864935Y-104646234D01*
X96326952Y-104009180D01*
X96326951Y-104009180D01*
X96326950Y-104009179D01*
X94942801Y-103084321D01*
X93765679Y-101907199D01*
X92840821Y-100523050D01*
X92840820Y-100523048D01*
X92203766Y-98985065D01*
X91879000Y-97352352D01*
X91879000Y-95687648D01*
X92203766Y-94054935D01*
X92840820Y-92516952D01*
X92840821Y-92516950D01*
X93765679Y-91132801D01*
X94942801Y-89955679D01*
X96326950Y-89030821D01*
X96883783Y-88800173D01*
X97864935Y-88393766D01*
X99497648Y-88069000D01*
X101162352Y-88069000D01*
X102795065Y-88393766D01*
X102795065Y-88393766D01*
G37*
G36*
X66503674Y-102758465D02*
G01*
X66541367Y-102769899D01*
X66576103Y-102788466D01*
X66606548Y-102813452D01*
X66631534Y-102843897D01*
X66650101Y-102878633D01*
X66661535Y-102916326D01*
X66666000Y-102961661D01*
X66666000Y-104048339D01*
X66661535Y-104093674D01*
X66650101Y-104131367D01*
X66631534Y-104166103D01*
X66606548Y-104196548D01*
X66576103Y-104221534D01*
X66541367Y-104240101D01*
X66503674Y-104251535D01*
X66458339Y-104256000D01*
X65621661Y-104256000D01*
X65576326Y-104251535D01*
X65538633Y-104240101D01*
X65503897Y-104221534D01*
X65473452Y-104196548D01*
X65448466Y-104166103D01*
X65429899Y-104131367D01*
X65418465Y-104093674D01*
X65414000Y-104048339D01*
X65414000Y-102961661D01*
X65418465Y-102916326D01*
X65429899Y-102878633D01*
X65448466Y-102843897D01*
X65473452Y-102813452D01*
X65503897Y-102788466D01*
X65538633Y-102769899D01*
X65576326Y-102758465D01*
X65621661Y-102754000D01*
X66458339Y-102754000D01*
X66503674Y-102758465D01*
X66503674Y-102758465D01*
G37*
G36*
X64453674Y-102758465D02*
G01*
X64491367Y-102769899D01*
X64526103Y-102788466D01*
X64556548Y-102813452D01*
X64581534Y-102843897D01*
X64600101Y-102878633D01*
X64611535Y-102916326D01*
X64616000Y-102961661D01*
X64616000Y-104048339D01*
X64611535Y-104093674D01*
X64600101Y-104131367D01*
X64581534Y-104166103D01*
X64556548Y-104196548D01*
X64526103Y-104221534D01*
X64491367Y-104240101D01*
X64453674Y-104251535D01*
X64408339Y-104256000D01*
X63571661Y-104256000D01*
X63526326Y-104251535D01*
X63488633Y-104240101D01*
X63453897Y-104221534D01*
X63423452Y-104196548D01*
X63398466Y-104166103D01*
X63379899Y-104131367D01*
X63368465Y-104093674D01*
X63364000Y-104048339D01*
X63364000Y-102961661D01*
X63368465Y-102916326D01*
X63379899Y-102878633D01*
X63398466Y-102843897D01*
X63423452Y-102813452D01*
X63453897Y-102788466D01*
X63488633Y-102769899D01*
X63526326Y-102758465D01*
X63571661Y-102754000D01*
X64408339Y-102754000D01*
X64453674Y-102758465D01*
X64453674Y-102758465D01*
G37*
G36*
X31998228Y-101701703D02*
G01*
X32153100Y-101765853D01*
X32292481Y-101858985D01*
X32411015Y-101977519D01*
X32504147Y-102116900D01*
X32568297Y-102271772D01*
X32601000Y-102436184D01*
X32601000Y-102603816D01*
X32568297Y-102768228D01*
X32504147Y-102923100D01*
X32411015Y-103062481D01*
X32292481Y-103181015D01*
X32153100Y-103274147D01*
X31998228Y-103338297D01*
X31833816Y-103371000D01*
X31666184Y-103371000D01*
X31501772Y-103338297D01*
X31346900Y-103274147D01*
X31207519Y-103181015D01*
X31088985Y-103062481D01*
X30995853Y-102923100D01*
X30931703Y-102768228D01*
X30899000Y-102603816D01*
X30899000Y-102436184D01*
X30931703Y-102271772D01*
X30995853Y-102116900D01*
X31088985Y-101977519D01*
X31207519Y-101858985D01*
X31346900Y-101765853D01*
X31501772Y-101701703D01*
X31666184Y-101669000D01*
X31833816Y-101669000D01*
X31998228Y-101701703D01*
X31998228Y-101701703D01*
G37*
G36*
X169158228Y-101701703D02*
G01*
X169313100Y-101765853D01*
X169452481Y-101858985D01*
X169571015Y-101977519D01*
X169664147Y-102116900D01*
X169728297Y-102271772D01*
X169761000Y-102436184D01*
X169761000Y-102603816D01*
X169728297Y-102768228D01*
X169664147Y-102923100D01*
X169571015Y-103062481D01*
X169452481Y-103181015D01*
X169313100Y-103274147D01*
X169158228Y-103338297D01*
X168993816Y-103371000D01*
X168826184Y-103371000D01*
X168661772Y-103338297D01*
X168506900Y-103274147D01*
X168367519Y-103181015D01*
X168248985Y-103062481D01*
X168155853Y-102923100D01*
X168091703Y-102768228D01*
X168059000Y-102603816D01*
X168059000Y-102436184D01*
X168091703Y-102271772D01*
X168155853Y-102116900D01*
X168248985Y-101977519D01*
X168367519Y-101858985D01*
X168506900Y-101765853D01*
X168661772Y-101701703D01*
X168826184Y-101669000D01*
X168993816Y-101669000D01*
X169158228Y-101701703D01*
X169158228Y-101701703D01*
G37*
G36*
X166318228Y-100316703D02*
G01*
X166473100Y-100380853D01*
X166612481Y-100473985D01*
X166731015Y-100592519D01*
X166824147Y-100731900D01*
X166888297Y-100886772D01*
X166921000Y-101051184D01*
X166921000Y-101218816D01*
X166888297Y-101383228D01*
X166824147Y-101538100D01*
X166731015Y-101677481D01*
X166612481Y-101796015D01*
X166473100Y-101889147D01*
X166318228Y-101953297D01*
X166153816Y-101986000D01*
X165986184Y-101986000D01*
X165821772Y-101953297D01*
X165666900Y-101889147D01*
X165527519Y-101796015D01*
X165408985Y-101677481D01*
X165315853Y-101538100D01*
X165251703Y-101383228D01*
X165219000Y-101218816D01*
X165219000Y-101051184D01*
X165251703Y-100886772D01*
X165315853Y-100731900D01*
X165408985Y-100592519D01*
X165527519Y-100473985D01*
X165666900Y-100380853D01*
X165821772Y-100316703D01*
X165986184Y-100284000D01*
X166153816Y-100284000D01*
X166318228Y-100316703D01*
X166318228Y-100316703D01*
G37*
G36*
X34838228Y-100316703D02*
G01*
X34993100Y-100380853D01*
X35132481Y-100473985D01*
X35251015Y-100592519D01*
X35344147Y-100731900D01*
X35408297Y-100886772D01*
X35441000Y-101051184D01*
X35441000Y-101218816D01*
X35408297Y-101383228D01*
X35344147Y-101538100D01*
X35251015Y-101677481D01*
X35132481Y-101796015D01*
X34993100Y-101889147D01*
X34838228Y-101953297D01*
X34673816Y-101986000D01*
X34506184Y-101986000D01*
X34341772Y-101953297D01*
X34186900Y-101889147D01*
X34047519Y-101796015D01*
X33928985Y-101677481D01*
X33835853Y-101538100D01*
X33771703Y-101383228D01*
X33739000Y-101218816D01*
X33739000Y-101051184D01*
X33771703Y-100886772D01*
X33835853Y-100731900D01*
X33928985Y-100592519D01*
X34047519Y-100473985D01*
X34186900Y-100380853D01*
X34341772Y-100316703D01*
X34506184Y-100284000D01*
X34673816Y-100284000D01*
X34838228Y-100316703D01*
X34838228Y-100316703D01*
G37*
G36*
X64453674Y-99583465D02*
G01*
X64491367Y-99594899D01*
X64526103Y-99613466D01*
X64556548Y-99638452D01*
X64581534Y-99668897D01*
X64600101Y-99703633D01*
X64611535Y-99741326D01*
X64616000Y-99786661D01*
X64616000Y-100873339D01*
X64611535Y-100918674D01*
X64600101Y-100956367D01*
X64581534Y-100991103D01*
X64556548Y-101021548D01*
X64526103Y-101046534D01*
X64491367Y-101065101D01*
X64453674Y-101076535D01*
X64408339Y-101081000D01*
X63571661Y-101081000D01*
X63526326Y-101076535D01*
X63488633Y-101065101D01*
X63453897Y-101046534D01*
X63423452Y-101021548D01*
X63398466Y-100991103D01*
X63379899Y-100956367D01*
X63368465Y-100918674D01*
X63364000Y-100873339D01*
X63364000Y-99786661D01*
X63368465Y-99741326D01*
X63379899Y-99703633D01*
X63398466Y-99668897D01*
X63423452Y-99638452D01*
X63453897Y-99613466D01*
X63488633Y-99594899D01*
X63526326Y-99583465D01*
X63571661Y-99579000D01*
X64408339Y-99579000D01*
X64453674Y-99583465D01*
X64453674Y-99583465D01*
G37*
G36*
X66503674Y-99583465D02*
G01*
X66541367Y-99594899D01*
X66576103Y-99613466D01*
X66606548Y-99638452D01*
X66631534Y-99668897D01*
X66650101Y-99703633D01*
X66661535Y-99741326D01*
X66666000Y-99786661D01*
X66666000Y-100873339D01*
X66661535Y-100918674D01*
X66650101Y-100956367D01*
X66631534Y-100991103D01*
X66606548Y-101021548D01*
X66576103Y-101046534D01*
X66541367Y-101065101D01*
X66503674Y-101076535D01*
X66458339Y-101081000D01*
X65621661Y-101081000D01*
X65576326Y-101076535D01*
X65538633Y-101065101D01*
X65503897Y-101046534D01*
X65473452Y-101021548D01*
X65448466Y-100991103D01*
X65429899Y-100956367D01*
X65418465Y-100918674D01*
X65414000Y-100873339D01*
X65414000Y-99786661D01*
X65418465Y-99741326D01*
X65429899Y-99703633D01*
X65448466Y-99668897D01*
X65473452Y-99638452D01*
X65503897Y-99613466D01*
X65538633Y-99594899D01*
X65576326Y-99583465D01*
X65621661Y-99579000D01*
X66458339Y-99579000D01*
X66503674Y-99583465D01*
X66503674Y-99583465D01*
G37*
G36*
X169158228Y-98931703D02*
G01*
X169313100Y-98995853D01*
X169452481Y-99088985D01*
X169571015Y-99207519D01*
X169664147Y-99346900D01*
X169728297Y-99501772D01*
X169761000Y-99666184D01*
X169761000Y-99833816D01*
X169728297Y-99998228D01*
X169664147Y-100153100D01*
X169571015Y-100292481D01*
X169452481Y-100411015D01*
X169313100Y-100504147D01*
X169158228Y-100568297D01*
X168993816Y-100601000D01*
X168826184Y-100601000D01*
X168661772Y-100568297D01*
X168506900Y-100504147D01*
X168367519Y-100411015D01*
X168248985Y-100292481D01*
X168155853Y-100153100D01*
X168091703Y-99998228D01*
X168059000Y-99833816D01*
X168059000Y-99666184D01*
X168091703Y-99501772D01*
X168155853Y-99346900D01*
X168248985Y-99207519D01*
X168367519Y-99088985D01*
X168506900Y-98995853D01*
X168661772Y-98931703D01*
X168826184Y-98899000D01*
X168993816Y-98899000D01*
X169158228Y-98931703D01*
X169158228Y-98931703D01*
G37*
G36*
X31998228Y-98931703D02*
G01*
X32153100Y-98995853D01*
X32292481Y-99088985D01*
X32411015Y-99207519D01*
X32504147Y-99346900D01*
X32568297Y-99501772D01*
X32601000Y-99666184D01*
X32601000Y-99833816D01*
X32568297Y-99998228D01*
X32504147Y-100153100D01*
X32411015Y-100292481D01*
X32292481Y-100411015D01*
X32153100Y-100504147D01*
X31998228Y-100568297D01*
X31833816Y-100601000D01*
X31666184Y-100601000D01*
X31501772Y-100568297D01*
X31346900Y-100504147D01*
X31207519Y-100411015D01*
X31088985Y-100292481D01*
X30995853Y-100153100D01*
X30931703Y-99998228D01*
X30899000Y-99833816D01*
X30899000Y-99666184D01*
X30931703Y-99501772D01*
X30995853Y-99346900D01*
X31088985Y-99207519D01*
X31207519Y-99088985D01*
X31346900Y-98995853D01*
X31501772Y-98931703D01*
X31666184Y-98899000D01*
X31833816Y-98899000D01*
X31998228Y-98931703D01*
X31998228Y-98931703D01*
G37*
G36*
X59008674Y-98438465D02*
G01*
X59046367Y-98449899D01*
X59081103Y-98468466D01*
X59111548Y-98493452D01*
X59136534Y-98523897D01*
X59155101Y-98558633D01*
X59166535Y-98596326D01*
X59171000Y-98641661D01*
X59171000Y-99478339D01*
X59166535Y-99523674D01*
X59155101Y-99561367D01*
X59136534Y-99596103D01*
X59111548Y-99626548D01*
X59081103Y-99651534D01*
X59046367Y-99670101D01*
X59008674Y-99681535D01*
X58963339Y-99686000D01*
X57876661Y-99686000D01*
X57831326Y-99681535D01*
X57793633Y-99670101D01*
X57758897Y-99651534D01*
X57728452Y-99626548D01*
X57703466Y-99596103D01*
X57684899Y-99561367D01*
X57673465Y-99523674D01*
X57669000Y-99478339D01*
X57669000Y-98641661D01*
X57673465Y-98596326D01*
X57684899Y-98558633D01*
X57703466Y-98523897D01*
X57728452Y-98493452D01*
X57758897Y-98468466D01*
X57793633Y-98449899D01*
X57831326Y-98438465D01*
X57876661Y-98434000D01*
X58963339Y-98434000D01*
X59008674Y-98438465D01*
X59008674Y-98438465D01*
G37*
G36*
X166318228Y-97546703D02*
G01*
X166473100Y-97610853D01*
X166612481Y-97703985D01*
X166731015Y-97822519D01*
X166824147Y-97961900D01*
X166888297Y-98116772D01*
X166921000Y-98281184D01*
X166921000Y-98448816D01*
X166888297Y-98613228D01*
X166824147Y-98768100D01*
X166731015Y-98907481D01*
X166612481Y-99026015D01*
X166473100Y-99119147D01*
X166318228Y-99183297D01*
X166153816Y-99216000D01*
X165986184Y-99216000D01*
X165821772Y-99183297D01*
X165666900Y-99119147D01*
X165527519Y-99026015D01*
X165408985Y-98907481D01*
X165315853Y-98768100D01*
X165251703Y-98613228D01*
X165219000Y-98448816D01*
X165219000Y-98281184D01*
X165251703Y-98116772D01*
X165315853Y-97961900D01*
X165408985Y-97822519D01*
X165527519Y-97703985D01*
X165666900Y-97610853D01*
X165821772Y-97546703D01*
X165986184Y-97514000D01*
X166153816Y-97514000D01*
X166318228Y-97546703D01*
X166318228Y-97546703D01*
G37*
G36*
X34838228Y-97546703D02*
G01*
X34993100Y-97610853D01*
X35132481Y-97703985D01*
X35251015Y-97822519D01*
X35344147Y-97961900D01*
X35408297Y-98116772D01*
X35441000Y-98281184D01*
X35441000Y-98448816D01*
X35408297Y-98613228D01*
X35344147Y-98768100D01*
X35251015Y-98907481D01*
X35132481Y-99026015D01*
X34993100Y-99119147D01*
X34838228Y-99183297D01*
X34673816Y-99216000D01*
X34506184Y-99216000D01*
X34341772Y-99183297D01*
X34186900Y-99119147D01*
X34047519Y-99026015D01*
X33928985Y-98907481D01*
X33835853Y-98768100D01*
X33771703Y-98613228D01*
X33739000Y-98448816D01*
X33739000Y-98281184D01*
X33771703Y-98116772D01*
X33835853Y-97961900D01*
X33928985Y-97822519D01*
X34047519Y-97703985D01*
X34186900Y-97610853D01*
X34341772Y-97546703D01*
X34506184Y-97514000D01*
X34673816Y-97514000D01*
X34838228Y-97546703D01*
X34838228Y-97546703D01*
G37*
G36*
X66503674Y-96408465D02*
G01*
X66541367Y-96419899D01*
X66576103Y-96438466D01*
X66606548Y-96463452D01*
X66631534Y-96493897D01*
X66650101Y-96528633D01*
X66661535Y-96566326D01*
X66666000Y-96611661D01*
X66666000Y-97698339D01*
X66661535Y-97743674D01*
X66650101Y-97781367D01*
X66631534Y-97816103D01*
X66606548Y-97846548D01*
X66576103Y-97871534D01*
X66541367Y-97890101D01*
X66503674Y-97901535D01*
X66458339Y-97906000D01*
X65621661Y-97906000D01*
X65576326Y-97901535D01*
X65538633Y-97890101D01*
X65503897Y-97871534D01*
X65473452Y-97846548D01*
X65448466Y-97816103D01*
X65429899Y-97781367D01*
X65418465Y-97743674D01*
X65414000Y-97698339D01*
X65414000Y-96611661D01*
X65418465Y-96566326D01*
X65429899Y-96528633D01*
X65448466Y-96493897D01*
X65473452Y-96463452D01*
X65503897Y-96438466D01*
X65538633Y-96419899D01*
X65576326Y-96408465D01*
X65621661Y-96404000D01*
X66458339Y-96404000D01*
X66503674Y-96408465D01*
X66503674Y-96408465D01*
G37*
G36*
X64453674Y-96408465D02*
G01*
X64491367Y-96419899D01*
X64526103Y-96438466D01*
X64556548Y-96463452D01*
X64581534Y-96493897D01*
X64600101Y-96528633D01*
X64611535Y-96566326D01*
X64616000Y-96611661D01*
X64616000Y-97698339D01*
X64611535Y-97743674D01*
X64600101Y-97781367D01*
X64581534Y-97816103D01*
X64556548Y-97846548D01*
X64526103Y-97871534D01*
X64491367Y-97890101D01*
X64453674Y-97901535D01*
X64408339Y-97906000D01*
X63571661Y-97906000D01*
X63526326Y-97901535D01*
X63488633Y-97890101D01*
X63453897Y-97871534D01*
X63423452Y-97846548D01*
X63398466Y-97816103D01*
X63379899Y-97781367D01*
X63368465Y-97743674D01*
X63364000Y-97698339D01*
X63364000Y-96611661D01*
X63368465Y-96566326D01*
X63379899Y-96528633D01*
X63398466Y-96493897D01*
X63423452Y-96463452D01*
X63453897Y-96438466D01*
X63488633Y-96419899D01*
X63526326Y-96408465D01*
X63571661Y-96404000D01*
X64408339Y-96404000D01*
X64453674Y-96408465D01*
X64453674Y-96408465D01*
G37*
G36*
X31998228Y-96161703D02*
G01*
X32153100Y-96225853D01*
X32292481Y-96318985D01*
X32411015Y-96437519D01*
X32504147Y-96576900D01*
X32568297Y-96731772D01*
X32601000Y-96896184D01*
X32601000Y-97063816D01*
X32568297Y-97228228D01*
X32504147Y-97383100D01*
X32411015Y-97522481D01*
X32292481Y-97641015D01*
X32153100Y-97734147D01*
X31998228Y-97798297D01*
X31833816Y-97831000D01*
X31666184Y-97831000D01*
X31501772Y-97798297D01*
X31346900Y-97734147D01*
X31207519Y-97641015D01*
X31088985Y-97522481D01*
X30995853Y-97383100D01*
X30931703Y-97228228D01*
X30899000Y-97063816D01*
X30899000Y-96896184D01*
X30931703Y-96731772D01*
X30995853Y-96576900D01*
X31088985Y-96437519D01*
X31207519Y-96318985D01*
X31346900Y-96225853D01*
X31501772Y-96161703D01*
X31666184Y-96129000D01*
X31833816Y-96129000D01*
X31998228Y-96161703D01*
X31998228Y-96161703D01*
G37*
G36*
X169158228Y-96161703D02*
G01*
X169313100Y-96225853D01*
X169452481Y-96318985D01*
X169571015Y-96437519D01*
X169664147Y-96576900D01*
X169728297Y-96731772D01*
X169761000Y-96896184D01*
X169761000Y-97063816D01*
X169728297Y-97228228D01*
X169664147Y-97383100D01*
X169571015Y-97522481D01*
X169452481Y-97641015D01*
X169313100Y-97734147D01*
X169158228Y-97798297D01*
X168993816Y-97831000D01*
X168826184Y-97831000D01*
X168661772Y-97798297D01*
X168506900Y-97734147D01*
X168367519Y-97641015D01*
X168248985Y-97522481D01*
X168155853Y-97383100D01*
X168091703Y-97228228D01*
X168059000Y-97063816D01*
X168059000Y-96896184D01*
X168091703Y-96731772D01*
X168155853Y-96576900D01*
X168248985Y-96437519D01*
X168367519Y-96318985D01*
X168506900Y-96225853D01*
X168661772Y-96161703D01*
X168826184Y-96129000D01*
X168993816Y-96129000D01*
X169158228Y-96161703D01*
X169158228Y-96161703D01*
G37*
G36*
X53286674Y-96281465D02*
G01*
X53324367Y-96292899D01*
X53359103Y-96311466D01*
X53389548Y-96336452D01*
X53414534Y-96366897D01*
X53433101Y-96401633D01*
X53444535Y-96439326D01*
X53449000Y-96484661D01*
X53449000Y-97571339D01*
X53444535Y-97616674D01*
X53433101Y-97654367D01*
X53414534Y-97689103D01*
X53389548Y-97719548D01*
X53359103Y-97744534D01*
X53324367Y-97763101D01*
X53286674Y-97774535D01*
X53241339Y-97779000D01*
X52404661Y-97779000D01*
X52359326Y-97774535D01*
X52321633Y-97763101D01*
X52286897Y-97744534D01*
X52256452Y-97719548D01*
X52231466Y-97689103D01*
X52212899Y-97654367D01*
X52201465Y-97616674D01*
X52197000Y-97571339D01*
X52197000Y-96484661D01*
X52201465Y-96439326D01*
X52212899Y-96401633D01*
X52231466Y-96366897D01*
X52256452Y-96336452D01*
X52286897Y-96311466D01*
X52321633Y-96292899D01*
X52359326Y-96281465D01*
X52404661Y-96277000D01*
X53241339Y-96277000D01*
X53286674Y-96281465D01*
X53286674Y-96281465D01*
G37*
G36*
X55336674Y-96281465D02*
G01*
X55374367Y-96292899D01*
X55409103Y-96311466D01*
X55439548Y-96336452D01*
X55464534Y-96366897D01*
X55483101Y-96401633D01*
X55494535Y-96439326D01*
X55499000Y-96484661D01*
X55499000Y-97571339D01*
X55494535Y-97616674D01*
X55483101Y-97654367D01*
X55464534Y-97689103D01*
X55439548Y-97719548D01*
X55409103Y-97744534D01*
X55374367Y-97763101D01*
X55336674Y-97774535D01*
X55291339Y-97779000D01*
X54454661Y-97779000D01*
X54409326Y-97774535D01*
X54371633Y-97763101D01*
X54336897Y-97744534D01*
X54306452Y-97719548D01*
X54281466Y-97689103D01*
X54262899Y-97654367D01*
X54251465Y-97616674D01*
X54247000Y-97571339D01*
X54247000Y-96484661D01*
X54251465Y-96439326D01*
X54262899Y-96401633D01*
X54281466Y-96366897D01*
X54306452Y-96336452D01*
X54336897Y-96311466D01*
X54371633Y-96292899D01*
X54409326Y-96281465D01*
X54454661Y-96277000D01*
X55291339Y-96277000D01*
X55336674Y-96281465D01*
X55336674Y-96281465D01*
G37*
G36*
X59008674Y-96388465D02*
G01*
X59046367Y-96399899D01*
X59081103Y-96418466D01*
X59111548Y-96443452D01*
X59136534Y-96473897D01*
X59155101Y-96508633D01*
X59166535Y-96546326D01*
X59171000Y-96591661D01*
X59171000Y-97428339D01*
X59166535Y-97473674D01*
X59155101Y-97511367D01*
X59136534Y-97546103D01*
X59111548Y-97576548D01*
X59081103Y-97601534D01*
X59046367Y-97620101D01*
X59008674Y-97631535D01*
X58963339Y-97636000D01*
X57876661Y-97636000D01*
X57831326Y-97631535D01*
X57793633Y-97620101D01*
X57758897Y-97601534D01*
X57728452Y-97576548D01*
X57703466Y-97546103D01*
X57684899Y-97511367D01*
X57673465Y-97473674D01*
X57669000Y-97428339D01*
X57669000Y-96591661D01*
X57673465Y-96546326D01*
X57684899Y-96508633D01*
X57703466Y-96473897D01*
X57728452Y-96443452D01*
X57758897Y-96418466D01*
X57793633Y-96399899D01*
X57831326Y-96388465D01*
X57876661Y-96384000D01*
X58963339Y-96384000D01*
X59008674Y-96388465D01*
X59008674Y-96388465D01*
G37*
G36*
X166318228Y-94776703D02*
G01*
X166473100Y-94840853D01*
X166612481Y-94933985D01*
X166731015Y-95052519D01*
X166824147Y-95191900D01*
X166888297Y-95346772D01*
X166921000Y-95511184D01*
X166921000Y-95678816D01*
X166888297Y-95843228D01*
X166824147Y-95998100D01*
X166731015Y-96137481D01*
X166612481Y-96256015D01*
X166473100Y-96349147D01*
X166318228Y-96413297D01*
X166153816Y-96446000D01*
X165986184Y-96446000D01*
X165821772Y-96413297D01*
X165666900Y-96349147D01*
X165527519Y-96256015D01*
X165408985Y-96137481D01*
X165315853Y-95998100D01*
X165251703Y-95843228D01*
X165219000Y-95678816D01*
X165219000Y-95511184D01*
X165251703Y-95346772D01*
X165315853Y-95191900D01*
X165408985Y-95052519D01*
X165527519Y-94933985D01*
X165666900Y-94840853D01*
X165821772Y-94776703D01*
X165986184Y-94744000D01*
X166153816Y-94744000D01*
X166318228Y-94776703D01*
X166318228Y-94776703D01*
G37*
G36*
X34838228Y-94776703D02*
G01*
X34993100Y-94840853D01*
X35132481Y-94933985D01*
X35251015Y-95052519D01*
X35344147Y-95191900D01*
X35408297Y-95346772D01*
X35441000Y-95511184D01*
X35441000Y-95678816D01*
X35408297Y-95843228D01*
X35344147Y-95998100D01*
X35251015Y-96137481D01*
X35132481Y-96256015D01*
X34993100Y-96349147D01*
X34838228Y-96413297D01*
X34673816Y-96446000D01*
X34506184Y-96446000D01*
X34341772Y-96413297D01*
X34186900Y-96349147D01*
X34047519Y-96256015D01*
X33928985Y-96137481D01*
X33835853Y-95998100D01*
X33771703Y-95843228D01*
X33739000Y-95678816D01*
X33739000Y-95511184D01*
X33771703Y-95346772D01*
X33835853Y-95191900D01*
X33928985Y-95052519D01*
X34047519Y-94933985D01*
X34186900Y-94840853D01*
X34341772Y-94776703D01*
X34506184Y-94744000D01*
X34673816Y-94744000D01*
X34838228Y-94776703D01*
X34838228Y-94776703D01*
G37*
G36*
X141969928Y-95409764D02*
G01*
X141991009Y-95416160D01*
X142010445Y-95426548D01*
X142027476Y-95440524D01*
X142041452Y-95457555D01*
X142051840Y-95476991D01*
X142058236Y-95498072D01*
X142061000Y-95526140D01*
X142061000Y-95989860D01*
X142058236Y-96017928D01*
X142051840Y-96039009D01*
X142041452Y-96058445D01*
X142027476Y-96075476D01*
X142010445Y-96089452D01*
X141991009Y-96099840D01*
X141969928Y-96106236D01*
X141941860Y-96109000D01*
X140128140Y-96109000D01*
X140100072Y-96106236D01*
X140078991Y-96099840D01*
X140059555Y-96089452D01*
X140042524Y-96075476D01*
X140028548Y-96058445D01*
X140018160Y-96039009D01*
X140011764Y-96017928D01*
X140009000Y-95989860D01*
X140009000Y-95526140D01*
X140011764Y-95498072D01*
X140018160Y-95476991D01*
X140028548Y-95457555D01*
X140042524Y-95440524D01*
X140059555Y-95426548D01*
X140078991Y-95416160D01*
X140100072Y-95409764D01*
X140128140Y-95407000D01*
X141941860Y-95407000D01*
X141969928Y-95409764D01*
X141969928Y-95409764D01*
G37*
G36*
X146919928Y-95409764D02*
G01*
X146941009Y-95416160D01*
X146960445Y-95426548D01*
X146977476Y-95440524D01*
X146991452Y-95457555D01*
X147001840Y-95476991D01*
X147008236Y-95498072D01*
X147011000Y-95526140D01*
X147011000Y-95989860D01*
X147008236Y-96017928D01*
X147001840Y-96039009D01*
X146991452Y-96058445D01*
X146977476Y-96075476D01*
X146960445Y-96089452D01*
X146941009Y-96099840D01*
X146919928Y-96106236D01*
X146891860Y-96109000D01*
X145078140Y-96109000D01*
X145050072Y-96106236D01*
X145028991Y-96099840D01*
X145009555Y-96089452D01*
X144992524Y-96075476D01*
X144978548Y-96058445D01*
X144968160Y-96039009D01*
X144961764Y-96017928D01*
X144959000Y-95989860D01*
X144959000Y-95526140D01*
X144961764Y-95498072D01*
X144968160Y-95476991D01*
X144978548Y-95457555D01*
X144992524Y-95440524D01*
X145009555Y-95426548D01*
X145028991Y-95416160D01*
X145050072Y-95409764D01*
X145078140Y-95407000D01*
X146891860Y-95407000D01*
X146919928Y-95409764D01*
X146919928Y-95409764D01*
G37*
G36*
X169158228Y-93391703D02*
G01*
X169313100Y-93455853D01*
X169452481Y-93548985D01*
X169571015Y-93667519D01*
X169664147Y-93806900D01*
X169728297Y-93961772D01*
X169761000Y-94126184D01*
X169761000Y-94293816D01*
X169728297Y-94458228D01*
X169664147Y-94613100D01*
X169571015Y-94752481D01*
X169452481Y-94871015D01*
X169313100Y-94964147D01*
X169158228Y-95028297D01*
X168993816Y-95061000D01*
X168826184Y-95061000D01*
X168661772Y-95028297D01*
X168506900Y-94964147D01*
X168367519Y-94871015D01*
X168248985Y-94752481D01*
X168155853Y-94613100D01*
X168091703Y-94458228D01*
X168059000Y-94293816D01*
X168059000Y-94126184D01*
X168091703Y-93961772D01*
X168155853Y-93806900D01*
X168248985Y-93667519D01*
X168367519Y-93548985D01*
X168506900Y-93455853D01*
X168661772Y-93391703D01*
X168826184Y-93359000D01*
X168993816Y-93359000D01*
X169158228Y-93391703D01*
X169158228Y-93391703D01*
G37*
G36*
X31998228Y-93391703D02*
G01*
X32153100Y-93455853D01*
X32292481Y-93548985D01*
X32411015Y-93667519D01*
X32504147Y-93806900D01*
X32568297Y-93961772D01*
X32601000Y-94126184D01*
X32601000Y-94293816D01*
X32568297Y-94458228D01*
X32504147Y-94613100D01*
X32411015Y-94752481D01*
X32292481Y-94871015D01*
X32153100Y-94964147D01*
X31998228Y-95028297D01*
X31833816Y-95061000D01*
X31666184Y-95061000D01*
X31501772Y-95028297D01*
X31346900Y-94964147D01*
X31207519Y-94871015D01*
X31088985Y-94752481D01*
X30995853Y-94613100D01*
X30931703Y-94458228D01*
X30899000Y-94293816D01*
X30899000Y-94126184D01*
X30931703Y-93961772D01*
X30995853Y-93806900D01*
X31088985Y-93667519D01*
X31207519Y-93548985D01*
X31346900Y-93455853D01*
X31501772Y-93391703D01*
X31666184Y-93359000D01*
X31833816Y-93359000D01*
X31998228Y-93391703D01*
X31998228Y-93391703D01*
G37*
G36*
X135462674Y-93612465D02*
G01*
X135500367Y-93623899D01*
X135535103Y-93642466D01*
X135565548Y-93667452D01*
X135590534Y-93697897D01*
X135609101Y-93732633D01*
X135620535Y-93770326D01*
X135625000Y-93815661D01*
X135625000Y-94652339D01*
X135620535Y-94697674D01*
X135609101Y-94735367D01*
X135590534Y-94770103D01*
X135565548Y-94800548D01*
X135535103Y-94825534D01*
X135500367Y-94844101D01*
X135462674Y-94855535D01*
X135417339Y-94860000D01*
X134330661Y-94860000D01*
X134285326Y-94855535D01*
X134247633Y-94844101D01*
X134212897Y-94825534D01*
X134182452Y-94800548D01*
X134157466Y-94770103D01*
X134138899Y-94735367D01*
X134127465Y-94697674D01*
X134123000Y-94652339D01*
X134123000Y-93815661D01*
X134127465Y-93770326D01*
X134138899Y-93732633D01*
X134157466Y-93697897D01*
X134182452Y-93667452D01*
X134212897Y-93642466D01*
X134247633Y-93623899D01*
X134285326Y-93612465D01*
X134330661Y-93608000D01*
X135417339Y-93608000D01*
X135462674Y-93612465D01*
X135462674Y-93612465D01*
G37*
G36*
X146919928Y-94139764D02*
G01*
X146941009Y-94146160D01*
X146960445Y-94156548D01*
X146977476Y-94170524D01*
X146991452Y-94187555D01*
X147001840Y-94206991D01*
X147008236Y-94228072D01*
X147011000Y-94256140D01*
X147011000Y-94719860D01*
X147008236Y-94747928D01*
X147001840Y-94769009D01*
X146991452Y-94788445D01*
X146977476Y-94805476D01*
X146960445Y-94819452D01*
X146941009Y-94829840D01*
X146919928Y-94836236D01*
X146891860Y-94839000D01*
X145078140Y-94839000D01*
X145050072Y-94836236D01*
X145028991Y-94829840D01*
X145009555Y-94819452D01*
X144992524Y-94805476D01*
X144978548Y-94788445D01*
X144968160Y-94769009D01*
X144961764Y-94747928D01*
X144959000Y-94719860D01*
X144959000Y-94256140D01*
X144961764Y-94228072D01*
X144968160Y-94206991D01*
X144978548Y-94187555D01*
X144992524Y-94170524D01*
X145009555Y-94156548D01*
X145028991Y-94146160D01*
X145050072Y-94139764D01*
X145078140Y-94137000D01*
X146891860Y-94137000D01*
X146919928Y-94139764D01*
X146919928Y-94139764D01*
G37*
G36*
X141969928Y-94139764D02*
G01*
X141991009Y-94146160D01*
X142010445Y-94156548D01*
X142027476Y-94170524D01*
X142041452Y-94187555D01*
X142051840Y-94206991D01*
X142058236Y-94228072D01*
X142061000Y-94256140D01*
X142061000Y-94719860D01*
X142058236Y-94747928D01*
X142051840Y-94769009D01*
X142041452Y-94788445D01*
X142027476Y-94805476D01*
X142010445Y-94819452D01*
X141991009Y-94829840D01*
X141969928Y-94836236D01*
X141941860Y-94839000D01*
X140128140Y-94839000D01*
X140100072Y-94836236D01*
X140078991Y-94829840D01*
X140059555Y-94819452D01*
X140042524Y-94805476D01*
X140028548Y-94788445D01*
X140018160Y-94769009D01*
X140011764Y-94747928D01*
X140009000Y-94719860D01*
X140009000Y-94256140D01*
X140011764Y-94228072D01*
X140018160Y-94206991D01*
X140028548Y-94187555D01*
X140042524Y-94170524D01*
X140059555Y-94156548D01*
X140078991Y-94146160D01*
X140100072Y-94139764D01*
X140128140Y-94137000D01*
X141941860Y-94137000D01*
X141969928Y-94139764D01*
X141969928Y-94139764D01*
G37*
G36*
X166318228Y-92006703D02*
G01*
X166473100Y-92070853D01*
X166612481Y-92163985D01*
X166731015Y-92282519D01*
X166824147Y-92421900D01*
X166888297Y-92576772D01*
X166921000Y-92741184D01*
X166921000Y-92908816D01*
X166888297Y-93073228D01*
X166824147Y-93228100D01*
X166731015Y-93367481D01*
X166612481Y-93486015D01*
X166473100Y-93579147D01*
X166318228Y-93643297D01*
X166153816Y-93676000D01*
X165986184Y-93676000D01*
X165821772Y-93643297D01*
X165666900Y-93579147D01*
X165527519Y-93486015D01*
X165408985Y-93367481D01*
X165315853Y-93228100D01*
X165251703Y-93073228D01*
X165219000Y-92908816D01*
X165219000Y-92741184D01*
X165251703Y-92576772D01*
X165315853Y-92421900D01*
X165408985Y-92282519D01*
X165527519Y-92163985D01*
X165666900Y-92070853D01*
X165821772Y-92006703D01*
X165986184Y-91974000D01*
X166153816Y-91974000D01*
X166318228Y-92006703D01*
X166318228Y-92006703D01*
G37*
G36*
X34838228Y-92006703D02*
G01*
X34993100Y-92070853D01*
X35132481Y-92163985D01*
X35251015Y-92282519D01*
X35344147Y-92421900D01*
X35408297Y-92576772D01*
X35441000Y-92741184D01*
X35441000Y-92908816D01*
X35408297Y-93073228D01*
X35344147Y-93228100D01*
X35251015Y-93367481D01*
X35132481Y-93486015D01*
X34993100Y-93579147D01*
X34838228Y-93643297D01*
X34673816Y-93676000D01*
X34506184Y-93676000D01*
X34341772Y-93643297D01*
X34186900Y-93579147D01*
X34047519Y-93486015D01*
X33928985Y-93367481D01*
X33835853Y-93228100D01*
X33771703Y-93073228D01*
X33739000Y-92908816D01*
X33739000Y-92741184D01*
X33771703Y-92576772D01*
X33835853Y-92421900D01*
X33928985Y-92282519D01*
X34047519Y-92163985D01*
X34186900Y-92070853D01*
X34341772Y-92006703D01*
X34506184Y-91974000D01*
X34673816Y-91974000D01*
X34838228Y-92006703D01*
X34838228Y-92006703D01*
G37*
G36*
X146919928Y-92869764D02*
G01*
X146941009Y-92876160D01*
X146960445Y-92886548D01*
X146977476Y-92900524D01*
X146991452Y-92917555D01*
X147001840Y-92936991D01*
X147008236Y-92958072D01*
X147011000Y-92986140D01*
X147011000Y-93449860D01*
X147008236Y-93477928D01*
X147001840Y-93499009D01*
X146991452Y-93518445D01*
X146977476Y-93535476D01*
X146960445Y-93549452D01*
X146941009Y-93559840D01*
X146919928Y-93566236D01*
X146891860Y-93569000D01*
X145078140Y-93569000D01*
X145050072Y-93566236D01*
X145028991Y-93559840D01*
X145009555Y-93549452D01*
X144992524Y-93535476D01*
X144978548Y-93518445D01*
X144968160Y-93499009D01*
X144961764Y-93477928D01*
X144959000Y-93449860D01*
X144959000Y-92986140D01*
X144961764Y-92958072D01*
X144968160Y-92936991D01*
X144978548Y-92917555D01*
X144992524Y-92900524D01*
X145009555Y-92886548D01*
X145028991Y-92876160D01*
X145050072Y-92869764D01*
X145078140Y-92867000D01*
X146891860Y-92867000D01*
X146919928Y-92869764D01*
X146919928Y-92869764D01*
G37*
G36*
X141969928Y-92869764D02*
G01*
X141991009Y-92876160D01*
X142010445Y-92886548D01*
X142027476Y-92900524D01*
X142041452Y-92917555D01*
X142051840Y-92936991D01*
X142058236Y-92958072D01*
X142061000Y-92986140D01*
X142061000Y-93449860D01*
X142058236Y-93477928D01*
X142051840Y-93499009D01*
X142041452Y-93518445D01*
X142027476Y-93535476D01*
X142010445Y-93549452D01*
X141991009Y-93559840D01*
X141969928Y-93566236D01*
X141941860Y-93569000D01*
X140128140Y-93569000D01*
X140100072Y-93566236D01*
X140078991Y-93559840D01*
X140059555Y-93549452D01*
X140042524Y-93535476D01*
X140028548Y-93518445D01*
X140018160Y-93499009D01*
X140011764Y-93477928D01*
X140009000Y-93449860D01*
X140009000Y-92986140D01*
X140011764Y-92958072D01*
X140018160Y-92936991D01*
X140028548Y-92917555D01*
X140042524Y-92900524D01*
X140059555Y-92886548D01*
X140078991Y-92876160D01*
X140100072Y-92869764D01*
X140128140Y-92867000D01*
X141941860Y-92867000D01*
X141969928Y-92869764D01*
X141969928Y-92869764D01*
G37*
G36*
X135462674Y-91562465D02*
G01*
X135500367Y-91573899D01*
X135535103Y-91592466D01*
X135565548Y-91617452D01*
X135590534Y-91647897D01*
X135609101Y-91682633D01*
X135620535Y-91720326D01*
X135625000Y-91765661D01*
X135625000Y-92602339D01*
X135620535Y-92647674D01*
X135609101Y-92685367D01*
X135590534Y-92720103D01*
X135565548Y-92750548D01*
X135535103Y-92775534D01*
X135500367Y-92794101D01*
X135462674Y-92805535D01*
X135417339Y-92810000D01*
X134330661Y-92810000D01*
X134285326Y-92805535D01*
X134247633Y-92794101D01*
X134212897Y-92775534D01*
X134182452Y-92750548D01*
X134157466Y-92720103D01*
X134138899Y-92685367D01*
X134127465Y-92647674D01*
X134123000Y-92602339D01*
X134123000Y-91765661D01*
X134127465Y-91720326D01*
X134138899Y-91682633D01*
X134157466Y-91647897D01*
X134182452Y-91617452D01*
X134212897Y-91592466D01*
X134247633Y-91573899D01*
X134285326Y-91562465D01*
X134330661Y-91558000D01*
X135417339Y-91558000D01*
X135462674Y-91562465D01*
X135462674Y-91562465D01*
G37*
G36*
X146919928Y-91599764D02*
G01*
X146941009Y-91606160D01*
X146960445Y-91616548D01*
X146977476Y-91630524D01*
X146991452Y-91647555D01*
X147001840Y-91666991D01*
X147008236Y-91688072D01*
X147011000Y-91716140D01*
X147011000Y-92179860D01*
X147008236Y-92207928D01*
X147001840Y-92229009D01*
X146991452Y-92248445D01*
X146977476Y-92265476D01*
X146960445Y-92279452D01*
X146941009Y-92289840D01*
X146919928Y-92296236D01*
X146891860Y-92299000D01*
X145078140Y-92299000D01*
X145050072Y-92296236D01*
X145028991Y-92289840D01*
X145009555Y-92279452D01*
X144992524Y-92265476D01*
X144978548Y-92248445D01*
X144968160Y-92229009D01*
X144961764Y-92207928D01*
X144959000Y-92179860D01*
X144959000Y-91716140D01*
X144961764Y-91688072D01*
X144968160Y-91666991D01*
X144978548Y-91647555D01*
X144992524Y-91630524D01*
X145009555Y-91616548D01*
X145028991Y-91606160D01*
X145050072Y-91599764D01*
X145078140Y-91597000D01*
X146891860Y-91597000D01*
X146919928Y-91599764D01*
X146919928Y-91599764D01*
G37*
G36*
X141969928Y-91599764D02*
G01*
X141991009Y-91606160D01*
X142010445Y-91616548D01*
X142027476Y-91630524D01*
X142041452Y-91647555D01*
X142051840Y-91666991D01*
X142058236Y-91688072D01*
X142061000Y-91716140D01*
X142061000Y-92179860D01*
X142058236Y-92207928D01*
X142051840Y-92229009D01*
X142041452Y-92248445D01*
X142027476Y-92265476D01*
X142010445Y-92279452D01*
X141991009Y-92289840D01*
X141969928Y-92296236D01*
X141941860Y-92299000D01*
X140128140Y-92299000D01*
X140100072Y-92296236D01*
X140078991Y-92289840D01*
X140059555Y-92279452D01*
X140042524Y-92265476D01*
X140028548Y-92248445D01*
X140018160Y-92229009D01*
X140011764Y-92207928D01*
X140009000Y-92179860D01*
X140009000Y-91716140D01*
X140011764Y-91688072D01*
X140018160Y-91666991D01*
X140028548Y-91647555D01*
X140042524Y-91630524D01*
X140059555Y-91616548D01*
X140078991Y-91606160D01*
X140100072Y-91599764D01*
X140128140Y-91597000D01*
X141941860Y-91597000D01*
X141969928Y-91599764D01*
X141969928Y-91599764D01*
G37*
G36*
X32601000Y-92291000D02*
G01*
X30899000Y-92291000D01*
X30899000Y-90589000D01*
X32601000Y-90589000D01*
X32601000Y-92291000D01*
X32601000Y-92291000D01*
G37*
G36*
X169761000Y-92291000D02*
G01*
X168059000Y-92291000D01*
X168059000Y-90589000D01*
X169761000Y-90589000D01*
X169761000Y-92291000D01*
X169761000Y-92291000D01*
G37*
G36*
X141969928Y-90329764D02*
G01*
X141991009Y-90336160D01*
X142010445Y-90346548D01*
X142027476Y-90360524D01*
X142041452Y-90377555D01*
X142051840Y-90396991D01*
X142058236Y-90418072D01*
X142061000Y-90446140D01*
X142061000Y-90909860D01*
X142058236Y-90937928D01*
X142051840Y-90959009D01*
X142041452Y-90978445D01*
X142027476Y-90995476D01*
X142010445Y-91009452D01*
X141991009Y-91019840D01*
X141969928Y-91026236D01*
X141941860Y-91029000D01*
X140128140Y-91029000D01*
X140100072Y-91026236D01*
X140078991Y-91019840D01*
X140059555Y-91009452D01*
X140042524Y-90995476D01*
X140028548Y-90978445D01*
X140018160Y-90959009D01*
X140011764Y-90937928D01*
X140009000Y-90909860D01*
X140009000Y-90446140D01*
X140011764Y-90418072D01*
X140018160Y-90396991D01*
X140028548Y-90377555D01*
X140042524Y-90360524D01*
X140059555Y-90346548D01*
X140078991Y-90336160D01*
X140100072Y-90329764D01*
X140128140Y-90327000D01*
X141941860Y-90327000D01*
X141969928Y-90329764D01*
X141969928Y-90329764D01*
G37*
G36*
X146919928Y-90329764D02*
G01*
X146941009Y-90336160D01*
X146960445Y-90346548D01*
X146977476Y-90360524D01*
X146991452Y-90377555D01*
X147001840Y-90396991D01*
X147008236Y-90418072D01*
X147011000Y-90446140D01*
X147011000Y-90909860D01*
X147008236Y-90937928D01*
X147001840Y-90959009D01*
X146991452Y-90978445D01*
X146977476Y-90995476D01*
X146960445Y-91009452D01*
X146941009Y-91019840D01*
X146919928Y-91026236D01*
X146891860Y-91029000D01*
X145078140Y-91029000D01*
X145050072Y-91026236D01*
X145028991Y-91019840D01*
X145009555Y-91009452D01*
X144992524Y-90995476D01*
X144978548Y-90978445D01*
X144968160Y-90959009D01*
X144961764Y-90937928D01*
X144959000Y-90909860D01*
X144959000Y-90446140D01*
X144961764Y-90418072D01*
X144968160Y-90396991D01*
X144978548Y-90377555D01*
X144992524Y-90360524D01*
X145009555Y-90346548D01*
X145028991Y-90336160D01*
X145050072Y-90329764D01*
X145078140Y-90327000D01*
X146891860Y-90327000D01*
X146919928Y-90329764D01*
X146919928Y-90329764D01*
G37*
G36*
X135335674Y-88532465D02*
G01*
X135373367Y-88543899D01*
X135408103Y-88562466D01*
X135438548Y-88587452D01*
X135463534Y-88617897D01*
X135482101Y-88652633D01*
X135493535Y-88690326D01*
X135498000Y-88735661D01*
X135498000Y-89572339D01*
X135493535Y-89617674D01*
X135482101Y-89655367D01*
X135463534Y-89690103D01*
X135438548Y-89720548D01*
X135408103Y-89745534D01*
X135373367Y-89764101D01*
X135335674Y-89775535D01*
X135290339Y-89780000D01*
X134203661Y-89780000D01*
X134158326Y-89775535D01*
X134120633Y-89764101D01*
X134085897Y-89745534D01*
X134055452Y-89720548D01*
X134030466Y-89690103D01*
X134011899Y-89655367D01*
X134000465Y-89617674D01*
X133996000Y-89572339D01*
X133996000Y-88735661D01*
X134000465Y-88690326D01*
X134011899Y-88652633D01*
X134030466Y-88617897D01*
X134055452Y-88587452D01*
X134085897Y-88562466D01*
X134120633Y-88543899D01*
X134158326Y-88532465D01*
X134203661Y-88528000D01*
X135290339Y-88528000D01*
X135335674Y-88532465D01*
X135335674Y-88532465D01*
G37*
G36*
X141969928Y-89059764D02*
G01*
X141991009Y-89066160D01*
X142010445Y-89076548D01*
X142027476Y-89090524D01*
X142041452Y-89107555D01*
X142051840Y-89126991D01*
X142058236Y-89148072D01*
X142061000Y-89176140D01*
X142061000Y-89639860D01*
X142058236Y-89667928D01*
X142051840Y-89689009D01*
X142041452Y-89708445D01*
X142027476Y-89725476D01*
X142010445Y-89739452D01*
X141991009Y-89749840D01*
X141969928Y-89756236D01*
X141941860Y-89759000D01*
X140128140Y-89759000D01*
X140100072Y-89756236D01*
X140078991Y-89749840D01*
X140059555Y-89739452D01*
X140042524Y-89725476D01*
X140028548Y-89708445D01*
X140018160Y-89689009D01*
X140011764Y-89667928D01*
X140009000Y-89639860D01*
X140009000Y-89176140D01*
X140011764Y-89148072D01*
X140018160Y-89126991D01*
X140028548Y-89107555D01*
X140042524Y-89090524D01*
X140059555Y-89076548D01*
X140078991Y-89066160D01*
X140100072Y-89059764D01*
X140128140Y-89057000D01*
X141941860Y-89057000D01*
X141969928Y-89059764D01*
X141969928Y-89059764D01*
G37*
G36*
X146919928Y-89059764D02*
G01*
X146941009Y-89066160D01*
X146960445Y-89076548D01*
X146977476Y-89090524D01*
X146991452Y-89107555D01*
X147001840Y-89126991D01*
X147008236Y-89148072D01*
X147011000Y-89176140D01*
X147011000Y-89639860D01*
X147008236Y-89667928D01*
X147001840Y-89689009D01*
X146991452Y-89708445D01*
X146977476Y-89725476D01*
X146960445Y-89739452D01*
X146941009Y-89749840D01*
X146919928Y-89756236D01*
X146891860Y-89759000D01*
X145078140Y-89759000D01*
X145050072Y-89756236D01*
X145028991Y-89749840D01*
X145009555Y-89739452D01*
X144992524Y-89725476D01*
X144978548Y-89708445D01*
X144968160Y-89689009D01*
X144961764Y-89667928D01*
X144959000Y-89639860D01*
X144959000Y-89176140D01*
X144961764Y-89148072D01*
X144968160Y-89126991D01*
X144978548Y-89107555D01*
X144992524Y-89090524D01*
X145009555Y-89076548D01*
X145028991Y-89066160D01*
X145050072Y-89059764D01*
X145078140Y-89057000D01*
X146891860Y-89057000D01*
X146919928Y-89059764D01*
X146919928Y-89059764D01*
G37*
G36*
X152734674Y-88278465D02*
G01*
X152772367Y-88289899D01*
X152807103Y-88308466D01*
X152837548Y-88333452D01*
X152862534Y-88363897D01*
X152881101Y-88398633D01*
X152892535Y-88436326D01*
X152897000Y-88481661D01*
X152897000Y-89318339D01*
X152892535Y-89363674D01*
X152881101Y-89401367D01*
X152862534Y-89436103D01*
X152837548Y-89466548D01*
X152807103Y-89491534D01*
X152772367Y-89510101D01*
X152734674Y-89521535D01*
X152689339Y-89526000D01*
X151602661Y-89526000D01*
X151557326Y-89521535D01*
X151519633Y-89510101D01*
X151484897Y-89491534D01*
X151454452Y-89466548D01*
X151429466Y-89436103D01*
X151410899Y-89401367D01*
X151399465Y-89363674D01*
X151395000Y-89318339D01*
X151395000Y-88481661D01*
X151399465Y-88436326D01*
X151410899Y-88398633D01*
X151429466Y-88363897D01*
X151454452Y-88333452D01*
X151484897Y-88308466D01*
X151519633Y-88289899D01*
X151557326Y-88278465D01*
X151602661Y-88274000D01*
X152689339Y-88274000D01*
X152734674Y-88278465D01*
X152734674Y-88278465D01*
G37*
G36*
X141969928Y-87789764D02*
G01*
X141991009Y-87796160D01*
X142010445Y-87806548D01*
X142027476Y-87820524D01*
X142041452Y-87837555D01*
X142051840Y-87856991D01*
X142058236Y-87878072D01*
X142061000Y-87906140D01*
X142061000Y-88369860D01*
X142058236Y-88397928D01*
X142051840Y-88419009D01*
X142041452Y-88438445D01*
X142027476Y-88455476D01*
X142010445Y-88469452D01*
X141991009Y-88479840D01*
X141969928Y-88486236D01*
X141941860Y-88489000D01*
X140128140Y-88489000D01*
X140100072Y-88486236D01*
X140078991Y-88479840D01*
X140059555Y-88469452D01*
X140042524Y-88455476D01*
X140028548Y-88438445D01*
X140018160Y-88419009D01*
X140011764Y-88397928D01*
X140009000Y-88369860D01*
X140009000Y-87906140D01*
X140011764Y-87878072D01*
X140018160Y-87856991D01*
X140028548Y-87837555D01*
X140042524Y-87820524D01*
X140059555Y-87806548D01*
X140078991Y-87796160D01*
X140100072Y-87789764D01*
X140128140Y-87787000D01*
X141941860Y-87787000D01*
X141969928Y-87789764D01*
X141969928Y-87789764D01*
G37*
G36*
X146919928Y-87789764D02*
G01*
X146941009Y-87796160D01*
X146960445Y-87806548D01*
X146977476Y-87820524D01*
X146991452Y-87837555D01*
X147001840Y-87856991D01*
X147008236Y-87878072D01*
X147011000Y-87906140D01*
X147011000Y-88369860D01*
X147008236Y-88397928D01*
X147001840Y-88419009D01*
X146991452Y-88438445D01*
X146977476Y-88455476D01*
X146960445Y-88469452D01*
X146941009Y-88479840D01*
X146919928Y-88486236D01*
X146891860Y-88489000D01*
X145078140Y-88489000D01*
X145050072Y-88486236D01*
X145028991Y-88479840D01*
X145009555Y-88469452D01*
X144992524Y-88455476D01*
X144978548Y-88438445D01*
X144968160Y-88419009D01*
X144961764Y-88397928D01*
X144959000Y-88369860D01*
X144959000Y-87906140D01*
X144961764Y-87878072D01*
X144968160Y-87856991D01*
X144978548Y-87837555D01*
X144992524Y-87820524D01*
X145009555Y-87806548D01*
X145028991Y-87796160D01*
X145050072Y-87789764D01*
X145078140Y-87787000D01*
X146891860Y-87787000D01*
X146919928Y-87789764D01*
X146919928Y-87789764D01*
G37*
G36*
X135335674Y-86482465D02*
G01*
X135373367Y-86493899D01*
X135408103Y-86512466D01*
X135438548Y-86537452D01*
X135463534Y-86567897D01*
X135482101Y-86602633D01*
X135493535Y-86640326D01*
X135498000Y-86685661D01*
X135498000Y-87522339D01*
X135493535Y-87567674D01*
X135482101Y-87605367D01*
X135463534Y-87640103D01*
X135438548Y-87670548D01*
X135408103Y-87695534D01*
X135373367Y-87714101D01*
X135335674Y-87725535D01*
X135290339Y-87730000D01*
X134203661Y-87730000D01*
X134158326Y-87725535D01*
X134120633Y-87714101D01*
X134085897Y-87695534D01*
X134055452Y-87670548D01*
X134030466Y-87640103D01*
X134011899Y-87605367D01*
X134000465Y-87567674D01*
X133996000Y-87522339D01*
X133996000Y-86685661D01*
X134000465Y-86640326D01*
X134011899Y-86602633D01*
X134030466Y-86567897D01*
X134055452Y-86537452D01*
X134085897Y-86512466D01*
X134120633Y-86493899D01*
X134158326Y-86482465D01*
X134203661Y-86478000D01*
X135290339Y-86478000D01*
X135335674Y-86482465D01*
X135335674Y-86482465D01*
G37*
G36*
X152734674Y-86228465D02*
G01*
X152772367Y-86239899D01*
X152807103Y-86258466D01*
X152837548Y-86283452D01*
X152862534Y-86313897D01*
X152881101Y-86348633D01*
X152892535Y-86386326D01*
X152897000Y-86431661D01*
X152897000Y-87268339D01*
X152892535Y-87313674D01*
X152881101Y-87351367D01*
X152862534Y-87386103D01*
X152837548Y-87416548D01*
X152807103Y-87441534D01*
X152772367Y-87460101D01*
X152734674Y-87471535D01*
X152689339Y-87476000D01*
X151602661Y-87476000D01*
X151557326Y-87471535D01*
X151519633Y-87460101D01*
X151484897Y-87441534D01*
X151454452Y-87416548D01*
X151429466Y-87386103D01*
X151410899Y-87351367D01*
X151399465Y-87313674D01*
X151395000Y-87268339D01*
X151395000Y-86431661D01*
X151399465Y-86386326D01*
X151410899Y-86348633D01*
X151429466Y-86313897D01*
X151454452Y-86283452D01*
X151484897Y-86258466D01*
X151519633Y-86239899D01*
X151557326Y-86228465D01*
X151602661Y-86224000D01*
X152689339Y-86224000D01*
X152734674Y-86228465D01*
X152734674Y-86228465D01*
G37*
G36*
X141969928Y-86519764D02*
G01*
X141991009Y-86526160D01*
X142010445Y-86536548D01*
X142027476Y-86550524D01*
X142041452Y-86567555D01*
X142051840Y-86586991D01*
X142058236Y-86608072D01*
X142061000Y-86636140D01*
X142061000Y-87099860D01*
X142058236Y-87127928D01*
X142051840Y-87149009D01*
X142041452Y-87168445D01*
X142027476Y-87185476D01*
X142010445Y-87199452D01*
X141991009Y-87209840D01*
X141969928Y-87216236D01*
X141941860Y-87219000D01*
X140128140Y-87219000D01*
X140100072Y-87216236D01*
X140078991Y-87209840D01*
X140059555Y-87199452D01*
X140042524Y-87185476D01*
X140028548Y-87168445D01*
X140018160Y-87149009D01*
X140011764Y-87127928D01*
X140009000Y-87099860D01*
X140009000Y-86636140D01*
X140011764Y-86608072D01*
X140018160Y-86586991D01*
X140028548Y-86567555D01*
X140042524Y-86550524D01*
X140059555Y-86536548D01*
X140078991Y-86526160D01*
X140100072Y-86519764D01*
X140128140Y-86517000D01*
X141941860Y-86517000D01*
X141969928Y-86519764D01*
X141969928Y-86519764D01*
G37*
G36*
X146919928Y-86519764D02*
G01*
X146941009Y-86526160D01*
X146960445Y-86536548D01*
X146977476Y-86550524D01*
X146991452Y-86567555D01*
X147001840Y-86586991D01*
X147008236Y-86608072D01*
X147011000Y-86636140D01*
X147011000Y-87099860D01*
X147008236Y-87127928D01*
X147001840Y-87149009D01*
X146991452Y-87168445D01*
X146977476Y-87185476D01*
X146960445Y-87199452D01*
X146941009Y-87209840D01*
X146919928Y-87216236D01*
X146891860Y-87219000D01*
X145078140Y-87219000D01*
X145050072Y-87216236D01*
X145028991Y-87209840D01*
X145009555Y-87199452D01*
X144992524Y-87185476D01*
X144978548Y-87168445D01*
X144968160Y-87149009D01*
X144961764Y-87127928D01*
X144959000Y-87099860D01*
X144959000Y-86636140D01*
X144961764Y-86608072D01*
X144968160Y-86586991D01*
X144978548Y-86567555D01*
X144992524Y-86550524D01*
X145009555Y-86536548D01*
X145028991Y-86526160D01*
X145050072Y-86519764D01*
X145078140Y-86517000D01*
X146891860Y-86517000D01*
X146919928Y-86519764D01*
X146919928Y-86519764D01*
G37*
G36*
X33768254Y-82507818D02*
G01*
X34141511Y-82662426D01*
X34141513Y-82662427D01*
X34477436Y-82886884D01*
X34763116Y-83172564D01*
X34987574Y-83508489D01*
X35142182Y-83881746D01*
X35221000Y-84277993D01*
X35221000Y-84682007D01*
X35142182Y-85078254D01*
X34987574Y-85451511D01*
X34987573Y-85451513D01*
X34763116Y-85787436D01*
X34477436Y-86073116D01*
X34141513Y-86297573D01*
X34141512Y-86297574D01*
X34141511Y-86297574D01*
X33768254Y-86452182D01*
X33372007Y-86531000D01*
X32967993Y-86531000D01*
X32571746Y-86452182D01*
X32198489Y-86297574D01*
X32198488Y-86297574D01*
X32198487Y-86297573D01*
X31862564Y-86073116D01*
X31576884Y-85787436D01*
X31352427Y-85451513D01*
X31352426Y-85451511D01*
X31197818Y-85078254D01*
X31119000Y-84682007D01*
X31119000Y-84277993D01*
X31197818Y-83881746D01*
X31352426Y-83508489D01*
X31576884Y-83172564D01*
X31862564Y-82886884D01*
X32198487Y-82662427D01*
X32198489Y-82662426D01*
X32571746Y-82507818D01*
X32967993Y-82429000D01*
X33372007Y-82429000D01*
X33768254Y-82507818D01*
X33768254Y-82507818D01*
G37*
G36*
X168088254Y-82507818D02*
G01*
X168461511Y-82662426D01*
X168461513Y-82662427D01*
X168797436Y-82886884D01*
X169083116Y-83172564D01*
X169307574Y-83508489D01*
X169462182Y-83881746D01*
X169541000Y-84277993D01*
X169541000Y-84682007D01*
X169462182Y-85078254D01*
X169307574Y-85451511D01*
X169307573Y-85451513D01*
X169083116Y-85787436D01*
X168797436Y-86073116D01*
X168461513Y-86297573D01*
X168461512Y-86297574D01*
X168461511Y-86297574D01*
X168088254Y-86452182D01*
X167692007Y-86531000D01*
X167287993Y-86531000D01*
X166891746Y-86452182D01*
X166518489Y-86297574D01*
X166518488Y-86297574D01*
X166518487Y-86297573D01*
X166182564Y-86073116D01*
X165896884Y-85787436D01*
X165672427Y-85451513D01*
X165672426Y-85451511D01*
X165517818Y-85078254D01*
X165439000Y-84682007D01*
X165439000Y-84277993D01*
X165517818Y-83881746D01*
X165672426Y-83508489D01*
X165896884Y-83172564D01*
X166182564Y-82886884D01*
X166518487Y-82662427D01*
X166518489Y-82662426D01*
X166891746Y-82507818D01*
X167287993Y-82429000D01*
X167692007Y-82429000D01*
X168088254Y-82507818D01*
X168088254Y-82507818D01*
G37*
G36*
X144236674Y-80025465D02*
G01*
X144274367Y-80036899D01*
X144309103Y-80055466D01*
X144339548Y-80080452D01*
X144364534Y-80110897D01*
X144383101Y-80145633D01*
X144394535Y-80183326D01*
X144399000Y-80228661D01*
X144399000Y-81315339D01*
X144394535Y-81360674D01*
X144383101Y-81398367D01*
X144364534Y-81433103D01*
X144339548Y-81463548D01*
X144309103Y-81488534D01*
X144274367Y-81507101D01*
X144236674Y-81518535D01*
X144191339Y-81523000D01*
X143354661Y-81523000D01*
X143309326Y-81518535D01*
X143271633Y-81507101D01*
X143236897Y-81488534D01*
X143206452Y-81463548D01*
X143181466Y-81433103D01*
X143162899Y-81398367D01*
X143151465Y-81360674D01*
X143147000Y-81315339D01*
X143147000Y-80228661D01*
X143151465Y-80183326D01*
X143162899Y-80145633D01*
X143181466Y-80110897D01*
X143206452Y-80080452D01*
X143236897Y-80055466D01*
X143271633Y-80036899D01*
X143309326Y-80025465D01*
X143354661Y-80021000D01*
X144191339Y-80021000D01*
X144236674Y-80025465D01*
X144236674Y-80025465D01*
G37*
G36*
X142186674Y-80025465D02*
G01*
X142224367Y-80036899D01*
X142259103Y-80055466D01*
X142289548Y-80080452D01*
X142314534Y-80110897D01*
X142333101Y-80145633D01*
X142344535Y-80183326D01*
X142349000Y-80228661D01*
X142349000Y-81315339D01*
X142344535Y-81360674D01*
X142333101Y-81398367D01*
X142314534Y-81433103D01*
X142289548Y-81463548D01*
X142259103Y-81488534D01*
X142224367Y-81507101D01*
X142186674Y-81518535D01*
X142141339Y-81523000D01*
X141304661Y-81523000D01*
X141259326Y-81518535D01*
X141221633Y-81507101D01*
X141186897Y-81488534D01*
X141156452Y-81463548D01*
X141131466Y-81433103D01*
X141112899Y-81398367D01*
X141101465Y-81360674D01*
X141097000Y-81315339D01*
X141097000Y-80228661D01*
X141101465Y-80183326D01*
X141112899Y-80145633D01*
X141131466Y-80110897D01*
X141156452Y-80080452D01*
X141186897Y-80055466D01*
X141221633Y-80036899D01*
X141259326Y-80025465D01*
X141304661Y-80021000D01*
X142141339Y-80021000D01*
X142186674Y-80025465D01*
X142186674Y-80025465D01*
G37*
G36*
X87721674Y-78501465D02*
G01*
X87759367Y-78512899D01*
X87794103Y-78531466D01*
X87824548Y-78556452D01*
X87849534Y-78586897D01*
X87868101Y-78621633D01*
X87879535Y-78659326D01*
X87884000Y-78704661D01*
X87884000Y-79791339D01*
X87879535Y-79836674D01*
X87868101Y-79874367D01*
X87849534Y-79909103D01*
X87824548Y-79939548D01*
X87794103Y-79964534D01*
X87759367Y-79983101D01*
X87721674Y-79994535D01*
X87676339Y-79999000D01*
X86839661Y-79999000D01*
X86794326Y-79994535D01*
X86756633Y-79983101D01*
X86721897Y-79964534D01*
X86691452Y-79939548D01*
X86666466Y-79909103D01*
X86647899Y-79874367D01*
X86636465Y-79836674D01*
X86632000Y-79791339D01*
X86632000Y-78704661D01*
X86636465Y-78659326D01*
X86647899Y-78621633D01*
X86666466Y-78586897D01*
X86691452Y-78556452D01*
X86721897Y-78531466D01*
X86756633Y-78512899D01*
X86794326Y-78501465D01*
X86839661Y-78497000D01*
X87676339Y-78497000D01*
X87721674Y-78501465D01*
X87721674Y-78501465D01*
G37*
G36*
X85671674Y-78501465D02*
G01*
X85709367Y-78512899D01*
X85744103Y-78531466D01*
X85774548Y-78556452D01*
X85799534Y-78586897D01*
X85818101Y-78621633D01*
X85829535Y-78659326D01*
X85834000Y-78704661D01*
X85834000Y-79791339D01*
X85829535Y-79836674D01*
X85818101Y-79874367D01*
X85799534Y-79909103D01*
X85774548Y-79939548D01*
X85744103Y-79964534D01*
X85709367Y-79983101D01*
X85671674Y-79994535D01*
X85626339Y-79999000D01*
X84789661Y-79999000D01*
X84744326Y-79994535D01*
X84706633Y-79983101D01*
X84671897Y-79964534D01*
X84641452Y-79939548D01*
X84616466Y-79909103D01*
X84597899Y-79874367D01*
X84586465Y-79836674D01*
X84582000Y-79791339D01*
X84582000Y-78704661D01*
X84586465Y-78659326D01*
X84597899Y-78621633D01*
X84616466Y-78586897D01*
X84641452Y-78556452D01*
X84671897Y-78531466D01*
X84706633Y-78512899D01*
X84744326Y-78501465D01*
X84789661Y-78497000D01*
X85626339Y-78497000D01*
X85671674Y-78501465D01*
X85671674Y-78501465D01*
G37*
G36*
X72368062Y-77945181D02*
G01*
X72402981Y-77955774D01*
X72435163Y-77972976D01*
X72463373Y-77996127D01*
X72486524Y-78024337D01*
X72503726Y-78056519D01*
X72514319Y-78091438D01*
X72518500Y-78133895D01*
X72518500Y-79600105D01*
X72514319Y-79642562D01*
X72503726Y-79677481D01*
X72486524Y-79709663D01*
X72463373Y-79737873D01*
X72435163Y-79761024D01*
X72402981Y-79778226D01*
X72368062Y-79788819D01*
X72325605Y-79793000D01*
X71184395Y-79793000D01*
X71141938Y-79788819D01*
X71107019Y-79778226D01*
X71074837Y-79761024D01*
X71046627Y-79737873D01*
X71023476Y-79709663D01*
X71006274Y-79677481D01*
X70995681Y-79642562D01*
X70991500Y-79600105D01*
X70991500Y-78133895D01*
X70995681Y-78091438D01*
X71006274Y-78056519D01*
X71023476Y-78024337D01*
X71046627Y-77996127D01*
X71074837Y-77972976D01*
X71107019Y-77955774D01*
X71141938Y-77945181D01*
X71184395Y-77941000D01*
X72325605Y-77941000D01*
X72368062Y-77945181D01*
X72368062Y-77945181D01*
G37*
G36*
X75343062Y-77945181D02*
G01*
X75377981Y-77955774D01*
X75410163Y-77972976D01*
X75438373Y-77996127D01*
X75461524Y-78024337D01*
X75478726Y-78056519D01*
X75489319Y-78091438D01*
X75493500Y-78133895D01*
X75493500Y-79600105D01*
X75489319Y-79642562D01*
X75478726Y-79677481D01*
X75461524Y-79709663D01*
X75438373Y-79737873D01*
X75410163Y-79761024D01*
X75377981Y-79778226D01*
X75343062Y-79788819D01*
X75300605Y-79793000D01*
X74159395Y-79793000D01*
X74116938Y-79788819D01*
X74082019Y-79778226D01*
X74049837Y-79761024D01*
X74021627Y-79737873D01*
X73998476Y-79709663D01*
X73981274Y-79677481D01*
X73970681Y-79642562D01*
X73966500Y-79600105D01*
X73966500Y-78133895D01*
X73970681Y-78091438D01*
X73981274Y-78056519D01*
X73998476Y-78024337D01*
X74021627Y-77996127D01*
X74049837Y-77972976D01*
X74082019Y-77955774D01*
X74116938Y-77945181D01*
X74159395Y-77941000D01*
X75300605Y-77941000D01*
X75343062Y-77945181D01*
X75343062Y-77945181D01*
G37*
G36*
X97596500Y-76149000D02*
G01*
X91379500Y-76149000D01*
X91379500Y-74847000D01*
X97596500Y-74847000D01*
X97596500Y-76149000D01*
X97596500Y-76149000D01*
G37*
G36*
X73187000Y-75712000D02*
G01*
X72485000Y-75712000D01*
X72485000Y-74910000D01*
X73187000Y-74910000D01*
X73187000Y-75712000D01*
X73187000Y-75712000D01*
G37*
G36*
X71787000Y-75712000D02*
G01*
X71085000Y-75712000D01*
X71085000Y-74910000D01*
X71787000Y-74910000D01*
X71787000Y-75712000D01*
X71787000Y-75712000D01*
G37*
G36*
X79856000Y-74203000D02*
G01*
X76354000Y-74203000D01*
X76354000Y-72101000D01*
X79856000Y-72101000D01*
X79856000Y-74203000D01*
X79856000Y-74203000D01*
G37*
G36*
X41062365Y-70949000D02*
G01*
X41913563Y-71523140D01*
X42286984Y-71775016D01*
X40809596Y-73965333D01*
X38550447Y-72441518D01*
X37815113Y-71945529D01*
X37815112Y-71945528D01*
X39292500Y-69755211D01*
X41062365Y-70949000D01*
X41062365Y-70949000D01*
G37*
G36*
X66585928Y-71406764D02*
G01*
X66607009Y-71413160D01*
X66626445Y-71423548D01*
X66643476Y-71437524D01*
X66657452Y-71454555D01*
X66667840Y-71473991D01*
X66674236Y-71495072D01*
X66677000Y-71523140D01*
X66677000Y-71986860D01*
X66674236Y-72014928D01*
X66667840Y-72036009D01*
X66657452Y-72055445D01*
X66643476Y-72072476D01*
X66626445Y-72086452D01*
X66607009Y-72096840D01*
X66585928Y-72103236D01*
X66557860Y-72106000D01*
X64944140Y-72106000D01*
X64916072Y-72103236D01*
X64894991Y-72096840D01*
X64875555Y-72086452D01*
X64858524Y-72072476D01*
X64844548Y-72055445D01*
X64834160Y-72036009D01*
X64827764Y-72014928D01*
X64825000Y-71986860D01*
X64825000Y-71523140D01*
X64827764Y-71495072D01*
X64834160Y-71473991D01*
X64844548Y-71454555D01*
X64858524Y-71437524D01*
X64875555Y-71423548D01*
X64894991Y-71413160D01*
X64916072Y-71406764D01*
X64944140Y-71404000D01*
X66557860Y-71404000D01*
X66585928Y-71406764D01*
X66585928Y-71406764D01*
G37*
G36*
X71735928Y-71406764D02*
G01*
X71757009Y-71413160D01*
X71776445Y-71423548D01*
X71793476Y-71437524D01*
X71807452Y-71454555D01*
X71817840Y-71473991D01*
X71824236Y-71495072D01*
X71827000Y-71523140D01*
X71827000Y-71986860D01*
X71824236Y-72014928D01*
X71817840Y-72036009D01*
X71807452Y-72055445D01*
X71793476Y-72072476D01*
X71776445Y-72086452D01*
X71757009Y-72096840D01*
X71735928Y-72103236D01*
X71707860Y-72106000D01*
X70094140Y-72106000D01*
X70066072Y-72103236D01*
X70044991Y-72096840D01*
X70025555Y-72086452D01*
X70008524Y-72072476D01*
X69994548Y-72055445D01*
X69984160Y-72036009D01*
X69977764Y-72014928D01*
X69975000Y-71986860D01*
X69975000Y-71523140D01*
X69977764Y-71495072D01*
X69984160Y-71473991D01*
X69994548Y-71454555D01*
X70008524Y-71437524D01*
X70025555Y-71423548D01*
X70044991Y-71413160D01*
X70066072Y-71406764D01*
X70094140Y-71404000D01*
X71707860Y-71404000D01*
X71735928Y-71406764D01*
X71735928Y-71406764D01*
G37*
G36*
X97596500Y-70949000D02*
G01*
X91379500Y-70949000D01*
X91379500Y-69647000D01*
X97596500Y-69647000D01*
X97596500Y-70949000D01*
X97596500Y-70949000D01*
G37*
G36*
X71735928Y-70136764D02*
G01*
X71757009Y-70143160D01*
X71776445Y-70153548D01*
X71793476Y-70167524D01*
X71807452Y-70184555D01*
X71817840Y-70203991D01*
X71824236Y-70225072D01*
X71827000Y-70253140D01*
X71827000Y-70716860D01*
X71824236Y-70744928D01*
X71817840Y-70766009D01*
X71807452Y-70785445D01*
X71793476Y-70802476D01*
X71776445Y-70816452D01*
X71757009Y-70826840D01*
X71735928Y-70833236D01*
X71707860Y-70836000D01*
X70094140Y-70836000D01*
X70066072Y-70833236D01*
X70044991Y-70826840D01*
X70025555Y-70816452D01*
X70008524Y-70802476D01*
X69994548Y-70785445D01*
X69984160Y-70766009D01*
X69977764Y-70744928D01*
X69975000Y-70716860D01*
X69975000Y-70253140D01*
X69977764Y-70225072D01*
X69984160Y-70203991D01*
X69994548Y-70184555D01*
X70008524Y-70167524D01*
X70025555Y-70153548D01*
X70044991Y-70143160D01*
X70066072Y-70136764D01*
X70094140Y-70134000D01*
X71707860Y-70134000D01*
X71735928Y-70136764D01*
X71735928Y-70136764D01*
G37*
G36*
X66585928Y-70136764D02*
G01*
X66607009Y-70143160D01*
X66626445Y-70153548D01*
X66643476Y-70167524D01*
X66657452Y-70184555D01*
X66667840Y-70203991D01*
X66674236Y-70225072D01*
X66677000Y-70253140D01*
X66677000Y-70716860D01*
X66674236Y-70744928D01*
X66667840Y-70766009D01*
X66657452Y-70785445D01*
X66643476Y-70802476D01*
X66626445Y-70816452D01*
X66607009Y-70826840D01*
X66585928Y-70833236D01*
X66557860Y-70836000D01*
X64944140Y-70836000D01*
X64916072Y-70833236D01*
X64894991Y-70826840D01*
X64875555Y-70816452D01*
X64858524Y-70802476D01*
X64844548Y-70785445D01*
X64834160Y-70766009D01*
X64827764Y-70744928D01*
X64825000Y-70716860D01*
X64825000Y-70253140D01*
X64827764Y-70225072D01*
X64834160Y-70203991D01*
X64844548Y-70184555D01*
X64858524Y-70167524D01*
X64875555Y-70153548D01*
X64894991Y-70143160D01*
X64916072Y-70136764D01*
X64944140Y-70134000D01*
X66557860Y-70134000D01*
X66585928Y-70136764D01*
X66585928Y-70136764D01*
G37*
G36*
X71735928Y-68866764D02*
G01*
X71757009Y-68873160D01*
X71776445Y-68883548D01*
X71793476Y-68897524D01*
X71807452Y-68914555D01*
X71817840Y-68933991D01*
X71824236Y-68955072D01*
X71827000Y-68983140D01*
X71827000Y-69446860D01*
X71824236Y-69474928D01*
X71817840Y-69496009D01*
X71807452Y-69515445D01*
X71793476Y-69532476D01*
X71776445Y-69546452D01*
X71757009Y-69556840D01*
X71735928Y-69563236D01*
X71707860Y-69566000D01*
X70094140Y-69566000D01*
X70066072Y-69563236D01*
X70044991Y-69556840D01*
X70025555Y-69546452D01*
X70008524Y-69532476D01*
X69994548Y-69515445D01*
X69984160Y-69496009D01*
X69977764Y-69474928D01*
X69975000Y-69446860D01*
X69975000Y-68983140D01*
X69977764Y-68955072D01*
X69984160Y-68933991D01*
X69994548Y-68914555D01*
X70008524Y-68897524D01*
X70025555Y-68883548D01*
X70044991Y-68873160D01*
X70066072Y-68866764D01*
X70094140Y-68864000D01*
X71707860Y-68864000D01*
X71735928Y-68866764D01*
X71735928Y-68866764D01*
G37*
G36*
X66585928Y-68866764D02*
G01*
X66607009Y-68873160D01*
X66626445Y-68883548D01*
X66643476Y-68897524D01*
X66657452Y-68914555D01*
X66667840Y-68933991D01*
X66674236Y-68955072D01*
X66677000Y-68983140D01*
X66677000Y-69446860D01*
X66674236Y-69474928D01*
X66667840Y-69496009D01*
X66657452Y-69515445D01*
X66643476Y-69532476D01*
X66626445Y-69546452D01*
X66607009Y-69556840D01*
X66585928Y-69563236D01*
X66557860Y-69566000D01*
X64944140Y-69566000D01*
X64916072Y-69563236D01*
X64894991Y-69556840D01*
X64875555Y-69546452D01*
X64858524Y-69532476D01*
X64844548Y-69515445D01*
X64834160Y-69496009D01*
X64827764Y-69474928D01*
X64825000Y-69446860D01*
X64825000Y-68983140D01*
X64827764Y-68955072D01*
X64834160Y-68933991D01*
X64844548Y-68914555D01*
X64858524Y-68897524D01*
X64875555Y-68883548D01*
X64894991Y-68873160D01*
X64916072Y-68866764D01*
X64944140Y-68864000D01*
X66557860Y-68864000D01*
X66585928Y-68866764D01*
X66585928Y-68866764D01*
G37*
G36*
X79856000Y-68503000D02*
G01*
X76354000Y-68503000D01*
X76354000Y-66401000D01*
X79856000Y-66401000D01*
X79856000Y-68503000D01*
X79856000Y-68503000D01*
G37*
G36*
X66585928Y-67596764D02*
G01*
X66607009Y-67603160D01*
X66626445Y-67613548D01*
X66643476Y-67627524D01*
X66657452Y-67644555D01*
X66667840Y-67663991D01*
X66674236Y-67685072D01*
X66677000Y-67713140D01*
X66677000Y-68176860D01*
X66674236Y-68204928D01*
X66667840Y-68226009D01*
X66657452Y-68245445D01*
X66643476Y-68262476D01*
X66626445Y-68276452D01*
X66607009Y-68286840D01*
X66585928Y-68293236D01*
X66557860Y-68296000D01*
X64944140Y-68296000D01*
X64916072Y-68293236D01*
X64894991Y-68286840D01*
X64875555Y-68276452D01*
X64858524Y-68262476D01*
X64844548Y-68245445D01*
X64834160Y-68226009D01*
X64827764Y-68204928D01*
X64825000Y-68176860D01*
X64825000Y-67713140D01*
X64827764Y-67685072D01*
X64834160Y-67663991D01*
X64844548Y-67644555D01*
X64858524Y-67627524D01*
X64875555Y-67613548D01*
X64894991Y-67603160D01*
X64916072Y-67596764D01*
X64944140Y-67594000D01*
X66557860Y-67594000D01*
X66585928Y-67596764D01*
X66585928Y-67596764D01*
G37*
G36*
X71735928Y-67596764D02*
G01*
X71757009Y-67603160D01*
X71776445Y-67613548D01*
X71793476Y-67627524D01*
X71807452Y-67644555D01*
X71817840Y-67663991D01*
X71824236Y-67685072D01*
X71827000Y-67713140D01*
X71827000Y-68176860D01*
X71824236Y-68204928D01*
X71817840Y-68226009D01*
X71807452Y-68245445D01*
X71793476Y-68262476D01*
X71776445Y-68276452D01*
X71757009Y-68286840D01*
X71735928Y-68293236D01*
X71707860Y-68296000D01*
X70094140Y-68296000D01*
X70066072Y-68293236D01*
X70044991Y-68286840D01*
X70025555Y-68276452D01*
X70008524Y-68262476D01*
X69994548Y-68245445D01*
X69984160Y-68226009D01*
X69977764Y-68204928D01*
X69975000Y-68176860D01*
X69975000Y-67713140D01*
X69977764Y-67685072D01*
X69984160Y-67663991D01*
X69994548Y-67644555D01*
X70008524Y-67627524D01*
X70025555Y-67613548D01*
X70044991Y-67603160D01*
X70066072Y-67596764D01*
X70094140Y-67594000D01*
X71707860Y-67594000D01*
X71735928Y-67596764D01*
X71735928Y-67596764D01*
G37*
G36*
X155379197Y-66495905D02*
G01*
X155379197Y-66495906D01*
X154507879Y-67083617D01*
X153636560Y-67671329D01*
X152768693Y-66384663D01*
X152768693Y-66384662D01*
X153640011Y-65796951D01*
X154511330Y-65209239D01*
X155379197Y-66495905D01*
X155379197Y-66495905D01*
G37*
G36*
X75488000Y-64489000D02*
G01*
X72086000Y-64489000D01*
X72086000Y-61887000D01*
X75488000Y-61887000D01*
X75488000Y-64489000D01*
X75488000Y-64489000D01*
G37*
G36*
X90347786Y-62123746D02*
G01*
X90378461Y-62133051D01*
X90406729Y-62148161D01*
X90431506Y-62168494D01*
X90451839Y-62193271D01*
X90466949Y-62221539D01*
X90476254Y-62252214D01*
X90480000Y-62290251D01*
X90480000Y-64301749D01*
X90476254Y-64339786D01*
X90466949Y-64370461D01*
X90451839Y-64398729D01*
X90431506Y-64423506D01*
X90406729Y-64443839D01*
X90378461Y-64458949D01*
X90347786Y-64468254D01*
X90309749Y-64472000D01*
X87998251Y-64472000D01*
X87960214Y-64468254D01*
X87929539Y-64458949D01*
X87901271Y-64443839D01*
X87876494Y-64423506D01*
X87856161Y-64398729D01*
X87841051Y-64370461D01*
X87831746Y-64339786D01*
X87828000Y-64301749D01*
X87828000Y-62290251D01*
X87831746Y-62252214D01*
X87841051Y-62221539D01*
X87856161Y-62193271D01*
X87876494Y-62168494D01*
X87901271Y-62148161D01*
X87929539Y-62133051D01*
X87960214Y-62123746D01*
X87998251Y-62120000D01*
X90309749Y-62120000D01*
X90347786Y-62123746D01*
X90347786Y-62123746D01*
G37*
G36*
X83198562Y-62867681D02*
G01*
X83233481Y-62878274D01*
X83265663Y-62895476D01*
X83293873Y-62918627D01*
X83317024Y-62946837D01*
X83334226Y-62979019D01*
X83344819Y-63013938D01*
X83349000Y-63056395D01*
X83349000Y-64197605D01*
X83344819Y-64240062D01*
X83334226Y-64274981D01*
X83317024Y-64307163D01*
X83293873Y-64335373D01*
X83265663Y-64358524D01*
X83233481Y-64375726D01*
X83198562Y-64386319D01*
X83156105Y-64390500D01*
X81689895Y-64390500D01*
X81647438Y-64386319D01*
X81612519Y-64375726D01*
X81580337Y-64358524D01*
X81552127Y-64335373D01*
X81528976Y-64307163D01*
X81511774Y-64274981D01*
X81501181Y-64240062D01*
X81497000Y-64197605D01*
X81497000Y-63056395D01*
X81501181Y-63013938D01*
X81511774Y-62979019D01*
X81528976Y-62946837D01*
X81552127Y-62918627D01*
X81580337Y-62895476D01*
X81612519Y-62878274D01*
X81647438Y-62867681D01*
X81689895Y-62863500D01*
X83156105Y-62863500D01*
X83198562Y-62867681D01*
X83198562Y-62867681D01*
G37*
G36*
X134081000Y-63461000D02*
G01*
X133079000Y-63461000D01*
X133079000Y-62459000D01*
X134081000Y-62459000D01*
X134081000Y-63461000D01*
X134081000Y-63461000D01*
G37*
G36*
X131081000Y-63461000D02*
G01*
X130079000Y-63461000D01*
X130079000Y-62459000D01*
X131081000Y-62459000D01*
X131081000Y-63461000D01*
X131081000Y-63461000D01*
G37*
G36*
X162260209Y-61854604D02*
G01*
X162260209Y-61854605D01*
X161422561Y-62419605D01*
X160517572Y-63030028D01*
X159649705Y-61743362D01*
X159649705Y-61743361D01*
X160543296Y-61140627D01*
X161392342Y-60567938D01*
X162260209Y-61854604D01*
X162260209Y-61854604D01*
G37*
G36*
X150524908Y-55096639D02*
G01*
X150854778Y-55585692D01*
X150954173Y-55733051D01*
X151399991Y-56394003D01*
X151399990Y-56394003D01*
X151469882Y-56497622D01*
X151469889Y-56497634D01*
X151510711Y-56558154D01*
X152004233Y-57289830D01*
X152085002Y-57409575D01*
X152350315Y-57802918D01*
X152613994Y-58193837D01*
X152700114Y-58321516D01*
X152740935Y-58382036D01*
X153245327Y-59129827D01*
X153286149Y-59190349D01*
X153356048Y-59293978D01*
X153778627Y-59920476D01*
X153930339Y-60145399D01*
X153971160Y-60205919D01*
X154464683Y-60937596D01*
X154586272Y-61117860D01*
X155090664Y-61865651D01*
X155090664Y-61865652D01*
X153762546Y-62761478D01*
X153258154Y-62013687D01*
X153188255Y-61910057D01*
X152801747Y-61337035D01*
X152643042Y-61101746D01*
X152282984Y-60567938D01*
X152027930Y-60189805D01*
X151958031Y-60086175D01*
X151855150Y-59933648D01*
X151412817Y-59277863D01*
X151342918Y-59174233D01*
X151302097Y-59113713D01*
X150797705Y-58365922D01*
X150686985Y-58201772D01*
X150182593Y-57453981D01*
X150182594Y-57453981D01*
X150112702Y-57350362D01*
X150112695Y-57350350D01*
X150071873Y-57289830D01*
X149567481Y-56542039D01*
X149497582Y-56438409D01*
X149456761Y-56377889D01*
X148952369Y-55630098D01*
X148952369Y-55630097D01*
X150280487Y-54734271D01*
X150524908Y-55096639D01*
X150524908Y-55096639D01*
G37*
G36*
X96787562Y-61089681D02*
G01*
X96822481Y-61100274D01*
X96854663Y-61117476D01*
X96882873Y-61140627D01*
X96906024Y-61168837D01*
X96923226Y-61201019D01*
X96933819Y-61235938D01*
X96938000Y-61278395D01*
X96938000Y-62419605D01*
X96933819Y-62462062D01*
X96923226Y-62496981D01*
X96906024Y-62529163D01*
X96882873Y-62557373D01*
X96854663Y-62580524D01*
X96822481Y-62597726D01*
X96787562Y-62608319D01*
X96745105Y-62612500D01*
X95278895Y-62612500D01*
X95236438Y-62608319D01*
X95201519Y-62597726D01*
X95169337Y-62580524D01*
X95141127Y-62557373D01*
X95117976Y-62529163D01*
X95100774Y-62496981D01*
X95090181Y-62462062D01*
X95086000Y-62419605D01*
X95086000Y-61278395D01*
X95090181Y-61235938D01*
X95100774Y-61201019D01*
X95117976Y-61168837D01*
X95141127Y-61140627D01*
X95169337Y-61117476D01*
X95201519Y-61100274D01*
X95236438Y-61089681D01*
X95278895Y-61085500D01*
X96745105Y-61085500D01*
X96787562Y-61089681D01*
X96787562Y-61089681D01*
G37*
G36*
X121551000Y-62286000D02*
G01*
X119749000Y-62286000D01*
X119749000Y-61534000D01*
X121551000Y-61534000D01*
X121551000Y-62286000D01*
X121551000Y-62286000D01*
G37*
G36*
X134081000Y-62121000D02*
G01*
X133079000Y-62121000D01*
X133079000Y-61119000D01*
X134081000Y-61119000D01*
X134081000Y-62121000D01*
X134081000Y-62121000D01*
G37*
G36*
X131081000Y-62121000D02*
G01*
X130079000Y-62121000D01*
X130079000Y-61119000D01*
X131081000Y-61119000D01*
X131081000Y-62121000D01*
X131081000Y-62121000D01*
G37*
G36*
X83198562Y-59892681D02*
G01*
X83233481Y-59903274D01*
X83265663Y-59920476D01*
X83293873Y-59943627D01*
X83317024Y-59971837D01*
X83334226Y-60004019D01*
X83344819Y-60038938D01*
X83349000Y-60081395D01*
X83349000Y-61222605D01*
X83344819Y-61265062D01*
X83334226Y-61299981D01*
X83317024Y-61332163D01*
X83293873Y-61360373D01*
X83265663Y-61383524D01*
X83233481Y-61400726D01*
X83198562Y-61411319D01*
X83156105Y-61415500D01*
X81689895Y-61415500D01*
X81647438Y-61411319D01*
X81612519Y-61400726D01*
X81580337Y-61383524D01*
X81552127Y-61360373D01*
X81528976Y-61332163D01*
X81511774Y-61299981D01*
X81501181Y-61265062D01*
X81497000Y-61222605D01*
X81497000Y-60081395D01*
X81501181Y-60038938D01*
X81511774Y-60004019D01*
X81528976Y-59971837D01*
X81552127Y-59943627D01*
X81580337Y-59920476D01*
X81612519Y-59903274D01*
X81647438Y-59892681D01*
X81689895Y-59888500D01*
X83156105Y-59888500D01*
X83198562Y-59892681D01*
X83198562Y-59892681D01*
G37*
G36*
X131081000Y-60801000D02*
G01*
X130079000Y-60801000D01*
X130079000Y-59799000D01*
X131081000Y-59799000D01*
X131081000Y-60801000D01*
X131081000Y-60801000D01*
G37*
G36*
X134081000Y-60801000D02*
G01*
X133079000Y-60801000D01*
X133079000Y-59799000D01*
X134081000Y-59799000D01*
X134081000Y-60801000D01*
X134081000Y-60801000D01*
G37*
G36*
X121551000Y-60386000D02*
G01*
X119749000Y-60386000D01*
X119749000Y-59634000D01*
X121551000Y-59634000D01*
X121551000Y-60386000D01*
X121551000Y-60386000D01*
G37*
G36*
X96787562Y-58114681D02*
G01*
X96822481Y-58125274D01*
X96854663Y-58142476D01*
X96882873Y-58165627D01*
X96906024Y-58193837D01*
X96923226Y-58226019D01*
X96933819Y-58260938D01*
X96938000Y-58303395D01*
X96938000Y-59444605D01*
X96933819Y-59487062D01*
X96923226Y-59521981D01*
X96906024Y-59554163D01*
X96882873Y-59582373D01*
X96854663Y-59605524D01*
X96822481Y-59622726D01*
X96787562Y-59633319D01*
X96745105Y-59637500D01*
X95278895Y-59637500D01*
X95236438Y-59633319D01*
X95201519Y-59622726D01*
X95169337Y-59605524D01*
X95141127Y-59582373D01*
X95117976Y-59554163D01*
X95100774Y-59521981D01*
X95090181Y-59487062D01*
X95086000Y-59444605D01*
X95086000Y-58303395D01*
X95090181Y-58260938D01*
X95100774Y-58226019D01*
X95117976Y-58193837D01*
X95141127Y-58165627D01*
X95169337Y-58142476D01*
X95201519Y-58125274D01*
X95236438Y-58114681D01*
X95278895Y-58110500D01*
X96745105Y-58110500D01*
X96787562Y-58114681D01*
X96787562Y-58114681D01*
G37*
G36*
X131081000Y-59461000D02*
G01*
X130079000Y-59461000D01*
X130079000Y-58459000D01*
X131081000Y-58459000D01*
X131081000Y-59461000D01*
X131081000Y-59461000D01*
G37*
G36*
X134081000Y-59461000D02*
G01*
X133079000Y-59461000D01*
X133079000Y-58459000D01*
X134081000Y-58459000D01*
X134081000Y-59461000D01*
X134081000Y-59461000D01*
G37*
G36*
X90347786Y-55723746D02*
G01*
X90378461Y-55733051D01*
X90406729Y-55748161D01*
X90431506Y-55768494D01*
X90451839Y-55793271D01*
X90466949Y-55821539D01*
X90476254Y-55852214D01*
X90480000Y-55890251D01*
X90480000Y-57901749D01*
X90476254Y-57939786D01*
X90466949Y-57970461D01*
X90451839Y-57998729D01*
X90431506Y-58023506D01*
X90406729Y-58043839D01*
X90378461Y-58058949D01*
X90347786Y-58068254D01*
X90309749Y-58072000D01*
X87998251Y-58072000D01*
X87960214Y-58068254D01*
X87929539Y-58058949D01*
X87901271Y-58043839D01*
X87876494Y-58023506D01*
X87856161Y-57998729D01*
X87841051Y-57970461D01*
X87831746Y-57939786D01*
X87828000Y-57901749D01*
X87828000Y-55890251D01*
X87831746Y-55852214D01*
X87841051Y-55821539D01*
X87856161Y-55793271D01*
X87876494Y-55768494D01*
X87901271Y-55748161D01*
X87929539Y-55733051D01*
X87960214Y-55723746D01*
X87998251Y-55720000D01*
X90309749Y-55720000D01*
X90347786Y-55723746D01*
X90347786Y-55723746D01*
G37*
G36*
X75488000Y-57689000D02*
G01*
X72086000Y-57689000D01*
X72086000Y-55087000D01*
X75488000Y-55087000D01*
X75488000Y-57689000D01*
X75488000Y-57689000D01*
G37*
G36*
X147690295Y-55096638D02*
G01*
X147690295Y-55096639D01*
X146875518Y-55646212D01*
X145947658Y-56272062D01*
X145079791Y-54985396D01*
X145079791Y-54985395D01*
X145951109Y-54397684D01*
X146822428Y-53809972D01*
X147690295Y-55096638D01*
X147690295Y-55096638D01*
G37*
G36*
X111441000Y-55911000D02*
G01*
X109539000Y-55911000D01*
X109539000Y-53309000D01*
X111441000Y-53309000D01*
X111441000Y-55911000D01*
X111441000Y-55911000D01*
G37*
G36*
X111441000Y-51911000D02*
G01*
X109539000Y-51911000D01*
X109539000Y-49309000D01*
X111441000Y-49309000D01*
X111441000Y-51911000D01*
X111441000Y-51911000D01*
G37*
G36*
X75855522Y-47938831D02*
G01*
X76201482Y-48082133D01*
X76512838Y-48290174D01*
X76777624Y-48554960D01*
X76985665Y-48866316D01*
X77128967Y-49212276D01*
X77202021Y-49579545D01*
X77202021Y-49954009D01*
X77128967Y-50321278D01*
X76985665Y-50667238D01*
X76777624Y-50978594D01*
X76512838Y-51243380D01*
X76201482Y-51451421D01*
X75855522Y-51594723D01*
X75674351Y-51630760D01*
X75488254Y-51667777D01*
X75113788Y-51667777D01*
X74927691Y-51630760D01*
X74746520Y-51594723D01*
X74400560Y-51451421D01*
X74089204Y-51243380D01*
X73824418Y-50978594D01*
X73616377Y-50667238D01*
X73473075Y-50321278D01*
X73400021Y-49954009D01*
X73400021Y-49579545D01*
X73473075Y-49212276D01*
X73616377Y-48866316D01*
X73824418Y-48554960D01*
X74089204Y-48290174D01*
X74400560Y-48082133D01*
X74746520Y-47938831D01*
X75113788Y-47865777D01*
X75488254Y-47865777D01*
X75855522Y-47938831D01*
X75855522Y-47938831D01*
G37*
G36*
X154571307Y-50455337D02*
G01*
X154571307Y-50455338D01*
X153795547Y-50978594D01*
X152828670Y-51630761D01*
X151960803Y-50344095D01*
X151960803Y-50344094D01*
X153300276Y-49440609D01*
X153703440Y-49168671D01*
X154571307Y-50455337D01*
X154571307Y-50455337D01*
G37*
G36*
X57694809Y-46753165D02*
G01*
X58624737Y-47380409D01*
X58704888Y-47434472D01*
X57227500Y-49624789D01*
X54940417Y-48082132D01*
X54233017Y-47604985D01*
X54233016Y-47604984D01*
X55710404Y-45414667D01*
X57694809Y-46753165D01*
X57694809Y-46753165D01*
G37*
G36*
X80842244Y-45659915D02*
G01*
X81102400Y-45711663D01*
X81448360Y-45854965D01*
X81759716Y-46063006D01*
X82024502Y-46327792D01*
X82232543Y-46639148D01*
X82375845Y-46985108D01*
X82448899Y-47352377D01*
X82448899Y-47726841D01*
X82375845Y-48094110D01*
X82232543Y-48440070D01*
X82024502Y-48751426D01*
X81759716Y-49016212D01*
X81448360Y-49224253D01*
X81102400Y-49367555D01*
X80918765Y-49404082D01*
X80735132Y-49440609D01*
X80360666Y-49440609D01*
X80177033Y-49404082D01*
X79993398Y-49367555D01*
X79647438Y-49224253D01*
X79336082Y-49016212D01*
X79071296Y-48751426D01*
X78863255Y-48440070D01*
X78719953Y-48094110D01*
X78646899Y-47726841D01*
X78646899Y-47352377D01*
X78719953Y-46985108D01*
X78863255Y-46639148D01*
X79071296Y-46327792D01*
X79336082Y-46063006D01*
X79647438Y-45854965D01*
X79993398Y-45711663D01*
X80253554Y-45659915D01*
X80360666Y-45638609D01*
X80735132Y-45638609D01*
X80842244Y-45659915D01*
X80842244Y-45659915D01*
G37*
G36*
X120309550Y-43892847D02*
G01*
X120574329Y-43970650D01*
X120574331Y-43970651D01*
X120818841Y-44098613D01*
X121033690Y-44271820D01*
X121210621Y-44483614D01*
X121342834Y-44725857D01*
X121412352Y-44948030D01*
X121425246Y-44989236D01*
X121454691Y-45263634D01*
X121430039Y-45538503D01*
X121371966Y-45736137D01*
X121371730Y-45736939D01*
X120945566Y-46791734D01*
X120849667Y-46974977D01*
X120676460Y-47189826D01*
X120464666Y-47366757D01*
X120222423Y-47498970D01*
X120030307Y-47559083D01*
X119959044Y-47581382D01*
X119821845Y-47596104D01*
X119684648Y-47610827D01*
X119684646Y-47610827D01*
X119409778Y-47586175D01*
X119144999Y-47508372D01*
X119127030Y-47498968D01*
X118900487Y-47380409D01*
X118685638Y-47207202D01*
X118508707Y-46995408D01*
X118376494Y-46753165D01*
X118304869Y-46524258D01*
X118294082Y-46489786D01*
X118264637Y-46215388D01*
X118289289Y-45940520D01*
X118347597Y-45742087D01*
X118358194Y-45715858D01*
X118773762Y-44687288D01*
X118869661Y-44504045D01*
X119042868Y-44289196D01*
X119144851Y-44204000D01*
X119254662Y-44112264D01*
X119353367Y-44058393D01*
X119496905Y-43980052D01*
X119689020Y-43919939D01*
X119760283Y-43897640D01*
X119897482Y-43882918D01*
X120034679Y-43868195D01*
X120034681Y-43868195D01*
X120309550Y-43892847D01*
X120309550Y-43892847D01*
G37*
G36*
X86349278Y-43484496D02*
G01*
X86593909Y-43585826D01*
X86677982Y-43620650D01*
X86695238Y-43627798D01*
X87006594Y-43835839D01*
X87271380Y-44100625D01*
X87407791Y-44304779D01*
X87479422Y-44411983D01*
X87622723Y-44757942D01*
X87695777Y-45125209D01*
X87695777Y-45499675D01*
X87682089Y-45568488D01*
X87622723Y-45866943D01*
X87479421Y-46212903D01*
X87271380Y-46524259D01*
X87006594Y-46789045D01*
X86695238Y-46997086D01*
X86695237Y-46997087D01*
X86695236Y-46997087D01*
X86593909Y-47039058D01*
X86349278Y-47140388D01*
X85982010Y-47213442D01*
X85607544Y-47213442D01*
X85240276Y-47140388D01*
X84995645Y-47039058D01*
X84894318Y-46997087D01*
X84894317Y-46997087D01*
X84894316Y-46997086D01*
X84582960Y-46789045D01*
X84318174Y-46524259D01*
X84110133Y-46212903D01*
X83966831Y-45866943D01*
X83907465Y-45568488D01*
X83893777Y-45499675D01*
X83893777Y-45125209D01*
X83966831Y-44757942D01*
X84110132Y-44411983D01*
X84181763Y-44304779D01*
X84318174Y-44100625D01*
X84582960Y-43835839D01*
X84894316Y-43627798D01*
X84911573Y-43620650D01*
X84995645Y-43585826D01*
X85240276Y-43484496D01*
X85607544Y-43411442D01*
X85982010Y-43411442D01*
X86349278Y-43484496D01*
X86349278Y-43484496D01*
G37*
G36*
X74107915Y-42260853D02*
G01*
X74135788Y-42269043D01*
X74161523Y-42282511D01*
X74184137Y-42300743D01*
X74202762Y-42323037D01*
X74219635Y-42353953D01*
X74259475Y-42447810D01*
X74259476Y-42447812D01*
X74806602Y-43736761D01*
X75584124Y-45568488D01*
X75594643Y-45602104D01*
X75597742Y-45630982D01*
X75595147Y-45659915D01*
X75586957Y-45687788D01*
X75573489Y-45713523D01*
X75555257Y-45736137D01*
X75532963Y-45754762D01*
X75502047Y-45771635D01*
X75408190Y-45811475D01*
X75408188Y-45811476D01*
X74456626Y-46215390D01*
X72287512Y-47136124D01*
X72253896Y-47146643D01*
X72225018Y-47149742D01*
X72196085Y-47147147D01*
X72168212Y-47138957D01*
X72142477Y-47125489D01*
X72119863Y-47107257D01*
X72101238Y-47084963D01*
X72084365Y-47054047D01*
X71956649Y-46753166D01*
X71079736Y-44687288D01*
X70719876Y-43839512D01*
X70709357Y-43805896D01*
X70706258Y-43777018D01*
X70708853Y-43748085D01*
X70717043Y-43720212D01*
X70730511Y-43694477D01*
X70748743Y-43671863D01*
X70771037Y-43653238D01*
X70801953Y-43636365D01*
X70895810Y-43596525D01*
X70895812Y-43596524D01*
X72758171Y-42806000D01*
X74016488Y-42271876D01*
X74050104Y-42261357D01*
X74078982Y-42258258D01*
X74107915Y-42260853D01*
X74107915Y-42260853D01*
G37*
G36*
X143426000Y-45406000D02*
G01*
X141874000Y-45406000D01*
X141874000Y-40954000D01*
X143426000Y-40954000D01*
X143426000Y-45406000D01*
X143426000Y-45406000D01*
G37*
G36*
X137526000Y-45406000D02*
G01*
X135974000Y-45406000D01*
X135974000Y-40954000D01*
X137526000Y-40954000D01*
X137526000Y-45406000D01*
X137526000Y-45406000D01*
G37*
G36*
X78769744Y-40612360D02*
G01*
X78953379Y-40648887D01*
X79299339Y-40792189D01*
X79610695Y-41000230D01*
X79875481Y-41265016D01*
X80006754Y-41461481D01*
X80083523Y-41576374D01*
X80125494Y-41677701D01*
X80226824Y-41922332D01*
X80232598Y-41951359D01*
X80299878Y-42289600D01*
X80299878Y-42664066D01*
X80286383Y-42731909D01*
X80226824Y-43031334D01*
X80083522Y-43377294D01*
X79875481Y-43688650D01*
X79610695Y-43953436D01*
X79299339Y-44161477D01*
X78953379Y-44304779D01*
X78769744Y-44341306D01*
X78586111Y-44377833D01*
X78211645Y-44377833D01*
X77844377Y-44304779D01*
X77498417Y-44161477D01*
X77187061Y-43953436D01*
X76922275Y-43688650D01*
X76714234Y-43377294D01*
X76570932Y-43031334D01*
X76511373Y-42731909D01*
X76497878Y-42664066D01*
X76497878Y-42289600D01*
X76565158Y-41951359D01*
X76570932Y-41922332D01*
X76672262Y-41677701D01*
X76714233Y-41576374D01*
X76791002Y-41461481D01*
X76922275Y-41265016D01*
X77187061Y-41000230D01*
X77498417Y-40792189D01*
X77844377Y-40648887D01*
X78028012Y-40612360D01*
X78211645Y-40575833D01*
X78586111Y-40575833D01*
X78769744Y-40612360D01*
X78769744Y-40612360D01*
G37*
G36*
X121449504Y-38403519D02*
G01*
X121484959Y-38413937D01*
X123779295Y-39340909D01*
X123812032Y-39358041D01*
X123835995Y-39377360D01*
X123855721Y-39400973D01*
X123870468Y-39427993D01*
X123879657Y-39457359D01*
X123882940Y-39487960D01*
X123880192Y-39518609D01*
X123869774Y-39554064D01*
X122568196Y-42775584D01*
X122551064Y-42808321D01*
X122531745Y-42832284D01*
X122508132Y-42852010D01*
X122481112Y-42866757D01*
X122451746Y-42875946D01*
X122421145Y-42879229D01*
X122390496Y-42876481D01*
X122355041Y-42866063D01*
X120060705Y-41939091D01*
X120027968Y-41921959D01*
X120004005Y-41902640D01*
X119984279Y-41879027D01*
X119969532Y-41852007D01*
X119960343Y-41822641D01*
X119957060Y-41792040D01*
X119959808Y-41761391D01*
X119970226Y-41725936D01*
X121271804Y-38504416D01*
X121288936Y-38471679D01*
X121308255Y-38447716D01*
X121331868Y-38427990D01*
X121358888Y-38413243D01*
X121388254Y-38404054D01*
X121418855Y-38400771D01*
X121449504Y-38403519D01*
X121449504Y-38403519D01*
G37*
G36*
X104991000Y-42761000D02*
G01*
X103289000Y-42761000D01*
X103289000Y-41059000D01*
X104991000Y-41059000D01*
X104991000Y-42761000D01*
X104991000Y-42761000D01*
G37*
G36*
X97371000Y-42761000D02*
G01*
X95669000Y-42761000D01*
X95669000Y-41059000D01*
X97371000Y-41059000D01*
X97371000Y-42761000D01*
X97371000Y-42761000D01*
G37*
G36*
X84016621Y-38385192D02*
G01*
X84200256Y-38421719D01*
X84546216Y-38565021D01*
X84857572Y-38773062D01*
X85122358Y-39037848D01*
X85316659Y-39328641D01*
X85330400Y-39349206D01*
X85334371Y-39358794D01*
X85473701Y-39695164D01*
X85546755Y-40062433D01*
X85546755Y-40436897D01*
X85473701Y-40804166D01*
X85330399Y-41150126D01*
X85122358Y-41461482D01*
X84857572Y-41726268D01*
X84546216Y-41934309D01*
X84546215Y-41934310D01*
X84546214Y-41934310D01*
X84505054Y-41951359D01*
X84200256Y-42077611D01*
X83832988Y-42150665D01*
X83458522Y-42150665D01*
X83091254Y-42077611D01*
X82786456Y-41951359D01*
X82745296Y-41934310D01*
X82745295Y-41934310D01*
X82745294Y-41934309D01*
X82433938Y-41726268D01*
X82169152Y-41461482D01*
X81961111Y-41150126D01*
X81817809Y-40804166D01*
X81744755Y-40436897D01*
X81744755Y-40062433D01*
X81817809Y-39695164D01*
X81957139Y-39358794D01*
X81961110Y-39349206D01*
X81974851Y-39328641D01*
X82169152Y-39037848D01*
X82433938Y-38773062D01*
X82745294Y-38565021D01*
X83091254Y-38421719D01*
X83458522Y-38348665D01*
X83832988Y-38348665D01*
X84016621Y-38385192D01*
X84016621Y-38385192D01*
G37*
G36*
X104991000Y-40221000D02*
G01*
X103289000Y-40221000D01*
X103289000Y-38519000D01*
X104991000Y-38519000D01*
X104991000Y-40221000D01*
X104991000Y-40221000D01*
G37*
G36*
X97371000Y-40221000D02*
G01*
X95669000Y-40221000D01*
X95669000Y-38519000D01*
X97371000Y-38519000D01*
X97371000Y-40221000D01*
X97371000Y-40221000D01*
G37*
G36*
X128040931Y-36822855D02*
G01*
X128147254Y-36844004D01*
X128447717Y-36968460D01*
X128718126Y-37149142D01*
X128948090Y-37379106D01*
X129128772Y-37649515D01*
X129253228Y-37949978D01*
X129316675Y-38268948D01*
X129316675Y-38594166D01*
X129253228Y-38913136D01*
X129201570Y-39037849D01*
X129138939Y-39189055D01*
X129128772Y-39213599D01*
X128948090Y-39484008D01*
X128718126Y-39713972D01*
X128447717Y-39894654D01*
X128147254Y-40019110D01*
X128040931Y-40040259D01*
X127828286Y-40082557D01*
X127503064Y-40082557D01*
X127290419Y-40040259D01*
X127184096Y-40019110D01*
X126883633Y-39894654D01*
X126613224Y-39713972D01*
X126383260Y-39484008D01*
X126202578Y-39213599D01*
X126192412Y-39189055D01*
X126129780Y-39037849D01*
X126078122Y-38913136D01*
X126014675Y-38594166D01*
X126014675Y-38268948D01*
X126078122Y-37949978D01*
X126202578Y-37649515D01*
X126383260Y-37379106D01*
X126613224Y-37149142D01*
X126883633Y-36968460D01*
X127184096Y-36844004D01*
X127290419Y-36822855D01*
X127503064Y-36780557D01*
X127828286Y-36780557D01*
X128040931Y-36822855D01*
X128040931Y-36822855D01*
G37*
G36*
X70602248Y-36463117D02*
G01*
X70752073Y-36492919D01*
X71034337Y-36609836D01*
X71288368Y-36779574D01*
X71504404Y-36995610D01*
X71674142Y-37249641D01*
X71791059Y-37531905D01*
X71850663Y-37831555D01*
X71850663Y-38137075D01*
X71791059Y-38436725D01*
X71674142Y-38718989D01*
X71504404Y-38973020D01*
X71288368Y-39189056D01*
X71034337Y-39358794D01*
X70752073Y-39475711D01*
X70666276Y-39492777D01*
X70452424Y-39535315D01*
X70146902Y-39535315D01*
X69933050Y-39492777D01*
X69847253Y-39475711D01*
X69564989Y-39358794D01*
X69310958Y-39189056D01*
X69094922Y-38973020D01*
X68925184Y-38718989D01*
X68808267Y-38436725D01*
X68748663Y-38137075D01*
X68748663Y-37831555D01*
X68808267Y-37531905D01*
X68925184Y-37249641D01*
X69094922Y-36995610D01*
X69310958Y-36779574D01*
X69564989Y-36609836D01*
X69847253Y-36492919D01*
X69997078Y-36463117D01*
X70146902Y-36433315D01*
X70452424Y-36433315D01*
X70602248Y-36463117D01*
X70602248Y-36463117D01*
G37*
G36*
X104991000Y-37681000D02*
G01*
X103289000Y-37681000D01*
X103289000Y-35979000D01*
X104991000Y-35979000D01*
X104991000Y-37681000D01*
X104991000Y-37681000D01*
G37*
G36*
X97371000Y-37681000D02*
G01*
X95669000Y-37681000D01*
X95669000Y-35979000D01*
X97371000Y-35979000D01*
X97371000Y-37681000D01*
X97371000Y-37681000D01*
G37*
G36*
X119633957Y-33439000D02*
G01*
X119802599Y-33472545D01*
X120103062Y-33597001D01*
X120373471Y-33777683D01*
X120603435Y-34007647D01*
X120784117Y-34278056D01*
X120883789Y-34518684D01*
X120908573Y-34578520D01*
X120939644Y-34734721D01*
X120972020Y-34897489D01*
X120972020Y-35222707D01*
X120908573Y-35541677D01*
X120784117Y-35842140D01*
X120603435Y-36112549D01*
X120373471Y-36342513D01*
X120103062Y-36523195D01*
X119802599Y-36647651D01*
X119696276Y-36668800D01*
X119483631Y-36711098D01*
X119158409Y-36711098D01*
X118945764Y-36668800D01*
X118839441Y-36647651D01*
X118538978Y-36523195D01*
X118268569Y-36342513D01*
X118038605Y-36112549D01*
X117857923Y-35842140D01*
X117733467Y-35541677D01*
X117670020Y-35222707D01*
X117670020Y-34897489D01*
X117702397Y-34734721D01*
X117733467Y-34578520D01*
X117758252Y-34518684D01*
X117857923Y-34278056D01*
X118038605Y-34007647D01*
X118268569Y-33777683D01*
X118538978Y-33597001D01*
X118839441Y-33472545D01*
X119008083Y-33439000D01*
X119158409Y-33409098D01*
X119483631Y-33409098D01*
X119633957Y-33439000D01*
X119633957Y-33439000D01*
G37*
G36*
X97371000Y-35141000D02*
G01*
X95669000Y-35141000D01*
X95669000Y-33439000D01*
X97371000Y-33439000D01*
X97371000Y-35141000D01*
X97371000Y-35141000D01*
G37*
G36*
X104991000Y-35141000D02*
G01*
X103289000Y-35141000D01*
X103289000Y-33439000D01*
X104991000Y-33439000D01*
X104991000Y-35141000D01*
X104991000Y-35141000D01*
G37*
G36*
X81096003Y-32008782D02*
G01*
X81245828Y-32038584D01*
X81528092Y-32155501D01*
X81782123Y-32325239D01*
X81998159Y-32541275D01*
X82167897Y-32795306D01*
X82284814Y-33077570D01*
X82344418Y-33377220D01*
X82344418Y-33682740D01*
X82284814Y-33982390D01*
X82167897Y-34264654D01*
X81998159Y-34518685D01*
X81782123Y-34734721D01*
X81528092Y-34904459D01*
X81245828Y-35021376D01*
X81096003Y-35051178D01*
X80946179Y-35080980D01*
X80640657Y-35080980D01*
X80490833Y-35051178D01*
X80341008Y-35021376D01*
X80058744Y-34904459D01*
X79804713Y-34734721D01*
X79588677Y-34518685D01*
X79418939Y-34264654D01*
X79302022Y-33982390D01*
X79242418Y-33682740D01*
X79242418Y-33377220D01*
X79302022Y-33077570D01*
X79418939Y-32795306D01*
X79588677Y-32541275D01*
X79804713Y-32325239D01*
X80058744Y-32155501D01*
X80341008Y-32038584D01*
X80490833Y-32008782D01*
X80640657Y-31978980D01*
X80946179Y-31978980D01*
X81096003Y-32008782D01*
X81096003Y-32008782D01*
G37*
G36*
X104991000Y-32601000D02*
G01*
X103289000Y-32601000D01*
X103289000Y-30899000D01*
X104991000Y-30899000D01*
X104991000Y-32601000D01*
X104991000Y-32601000D01*
G37*
G36*
X97371000Y-32601000D02*
G01*
X95669000Y-32601000D01*
X95669000Y-30899000D01*
X97371000Y-30899000D01*
X97371000Y-32601000D01*
X97371000Y-32601000D01*
G37*
G36*
X104991000Y-30061000D02*
G01*
X103289000Y-30061000D01*
X103289000Y-28359000D01*
X104991000Y-28359000D01*
X104991000Y-30061000D01*
X104991000Y-30061000D01*
G37*
G36*
X97371000Y-30061000D02*
G01*
X95669000Y-30061000D01*
X95669000Y-28359000D01*
X97371000Y-28359000D01*
X97371000Y-30061000D01*
X97371000Y-30061000D01*
G37*
G36*
X97371000Y-27521000D02*
G01*
X95669000Y-27521000D01*
X95669000Y-25819000D01*
X97371000Y-25819000D01*
X97371000Y-27521000D01*
X97371000Y-27521000D01*
G37*
G36*
X104991000Y-27521000D02*
G01*
X103289000Y-27521000D01*
X103289000Y-25819000D01*
X104991000Y-25819000D01*
X104991000Y-27521000D01*
X104991000Y-27521000D01*
G37*
G36*
X113601000Y-26351000D02*
G01*
X110999000Y-26351000D01*
X110999000Y-24449000D01*
X113601000Y-24449000D01*
X113601000Y-26351000D01*
X113601000Y-26351000D01*
G37*
G36*
X117601000Y-26351000D02*
G01*
X114999000Y-26351000D01*
X114999000Y-24449000D01*
X117601000Y-24449000D01*
X117601000Y-26351000D01*
X117601000Y-26351000D01*
G37*
G36*
X104991000Y-24981000D02*
G01*
X103289000Y-24981000D01*
X103289000Y-23279000D01*
X104991000Y-23279000D01*
X104991000Y-24981000D01*
X104991000Y-24981000D01*
G37*
G36*
X97371000Y-24981000D02*
G01*
X95669000Y-24981000D01*
X95669000Y-23279000D01*
X97371000Y-23279000D01*
X97371000Y-24981000D01*
X97371000Y-24981000D01*
G37*
M02*
