G04 #@! TF.GenerationSoftware,KiCad,Pcbnew,5.1.5-52549c5~84~ubuntu18.04.1*
G04 #@! TF.CreationDate,2020-01-17T16:06:34-05:00*
G04 #@! TF.ProjectId,datapod,64617461-706f-4642-9e6b-696361645f70,1*
G04 #@! TF.SameCoordinates,Original*
G04 #@! TF.FileFunction,Legend,Bot*
G04 #@! TF.FilePolarity,Positive*
%FSLAX46Y46*%
G04 Gerber Fmt 4.6, Leading zero omitted, Abs format (unit mm)*
G04 Created by KiCad (PCBNEW 5.1.5-52549c5~84~ubuntu18.04.1) date 2020-01-17 16:06:34*
%MOMM*%
%LPD*%
G04 APERTURE LIST*
%ADD10C,0.150000*%
%ADD11C,0.120000*%
G04 APERTURE END LIST*
D10*
X154761904Y-77500000D02*
X154857142Y-77452380D01*
X155000000Y-77452380D01*
X155142857Y-77500000D01*
X155238095Y-77595238D01*
X155285714Y-77690476D01*
X155333333Y-77880952D01*
X155333333Y-78023809D01*
X155285714Y-78214285D01*
X155238095Y-78309523D01*
X155142857Y-78404761D01*
X155000000Y-78452380D01*
X154904761Y-78452380D01*
X154761904Y-78404761D01*
X154714285Y-78357142D01*
X154714285Y-78023809D01*
X154904761Y-78023809D01*
X154285714Y-78452380D02*
X154285714Y-77452380D01*
X153714285Y-78452380D01*
X153714285Y-77452380D01*
X153238095Y-78452380D02*
X153238095Y-77452380D01*
X153000000Y-77452380D01*
X152857142Y-77500000D01*
X152761904Y-77595238D01*
X152714285Y-77690476D01*
X152666666Y-77880952D01*
X152666666Y-78023809D01*
X152714285Y-78214285D01*
X152761904Y-78309523D01*
X152857142Y-78404761D01*
X153000000Y-78452380D01*
X153238095Y-78452380D01*
X155809523Y-74785714D02*
X155428571Y-74785714D01*
X155666666Y-74452380D02*
X155666666Y-75309523D01*
X155619047Y-75404761D01*
X155523809Y-75452380D01*
X155428571Y-75452380D01*
X155095238Y-75452380D02*
X155095238Y-74785714D01*
X155095238Y-74976190D02*
X155047619Y-74880952D01*
X155000000Y-74833333D01*
X154904761Y-74785714D01*
X154809523Y-74785714D01*
X154047619Y-75452380D02*
X154047619Y-74928571D01*
X154095238Y-74833333D01*
X154190476Y-74785714D01*
X154380952Y-74785714D01*
X154476190Y-74833333D01*
X154047619Y-75404761D02*
X154142857Y-75452380D01*
X154380952Y-75452380D01*
X154476190Y-75404761D01*
X154523809Y-75309523D01*
X154523809Y-75214285D01*
X154476190Y-75119047D01*
X154380952Y-75071428D01*
X154142857Y-75071428D01*
X154047619Y-75023809D01*
X153571428Y-74785714D02*
X153571428Y-75452380D01*
X153571428Y-74880952D02*
X153523809Y-74833333D01*
X153428571Y-74785714D01*
X153285714Y-74785714D01*
X153190476Y-74833333D01*
X153142857Y-74928571D01*
X153142857Y-75452380D01*
X152714285Y-75404761D02*
X152619047Y-75452380D01*
X152428571Y-75452380D01*
X152333333Y-75404761D01*
X152285714Y-75309523D01*
X152285714Y-75261904D01*
X152333333Y-75166666D01*
X152428571Y-75119047D01*
X152571428Y-75119047D01*
X152666666Y-75071428D01*
X152714285Y-74976190D01*
X152714285Y-74928571D01*
X152666666Y-74833333D01*
X152571428Y-74785714D01*
X152428571Y-74785714D01*
X152333333Y-74833333D01*
D11*
X148800000Y-78200000D02*
X148500000Y-77900000D01*
X148500000Y-78500000D02*
X148500000Y-77900000D01*
X148800000Y-78200000D02*
X148500000Y-78500000D01*
X149700000Y-79050000D02*
X150300000Y-79050000D01*
X149000000Y-75600000D02*
X149000000Y-78400000D01*
X150300000Y-74950000D02*
X149700000Y-74950000D01*
X151000000Y-78400000D02*
X151000000Y-75600000D01*
X151000000Y-75650000D02*
G75*
G03X150300000Y-74950000I-700000J0D01*
G01*
X149700000Y-74950000D02*
G75*
G03X149000000Y-75650000I0J-700000D01*
G01*
X149000000Y-78350000D02*
G75*
G03X149700000Y-79050000I700000J0D01*
G01*
X150300000Y-79050000D02*
G75*
G03X151000000Y-78350000I0J700000D01*
G01*
D10*
X151252380Y-76166666D02*
X151966666Y-76166666D01*
X152109523Y-76119047D01*
X152204761Y-76023809D01*
X152252380Y-75880952D01*
X152252380Y-75785714D01*
X152252380Y-76642857D02*
X151252380Y-76642857D01*
X151252380Y-77023809D01*
X151300000Y-77119047D01*
X151347619Y-77166666D01*
X151442857Y-77214285D01*
X151585714Y-77214285D01*
X151680952Y-77166666D01*
X151728571Y-77119047D01*
X151776190Y-77023809D01*
X151776190Y-76642857D01*
X151347619Y-77595238D02*
X151300000Y-77642857D01*
X151252380Y-77738095D01*
X151252380Y-77976190D01*
X151300000Y-78071428D01*
X151347619Y-78119047D01*
X151442857Y-78166666D01*
X151538095Y-78166666D01*
X151680952Y-78119047D01*
X152252380Y-77547619D01*
X152252380Y-78166666D01*
M02*
