G04 #@! TF.GenerationSoftware,KiCad,Pcbnew,5.1.4-e60b266~84~ubuntu18.04.1*
G04 #@! TF.CreationDate,2019-11-06T11:35:47-05:00*
G04 #@! TF.ProjectId,datapod,64617461-706f-4642-9e6b-696361645f70,1*
G04 #@! TF.SameCoordinates,Original*
G04 #@! TF.FileFunction,Soldermask,Bot*
G04 #@! TF.FilePolarity,Negative*
%FSLAX46Y46*%
G04 Gerber Fmt 4.6, Leading zero omitted, Abs format (unit mm)*
G04 Created by KiCad (PCBNEW 5.1.4-e60b266~84~ubuntu18.04.1) date 2019-11-06 11:35:47*
%MOMM*%
%LPD*%
G04 APERTURE LIST*
%ADD10C,0.100000*%
G04 APERTURE END LIST*
D10*
G36*
X126344922Y-155058487D02*
G01*
X126494747Y-155088289D01*
X126777011Y-155205206D01*
X127031042Y-155374944D01*
X127247078Y-155590980D01*
X127416816Y-155845011D01*
X127533733Y-156127275D01*
X127593337Y-156426925D01*
X127593337Y-156732445D01*
X127533733Y-157032095D01*
X127416816Y-157314359D01*
X127247078Y-157568390D01*
X127031042Y-157784426D01*
X126777011Y-157954164D01*
X126494747Y-158071081D01*
X126344922Y-158100883D01*
X126195098Y-158130685D01*
X125889576Y-158130685D01*
X125739752Y-158100883D01*
X125589927Y-158071081D01*
X125307663Y-157954164D01*
X125053632Y-157784426D01*
X124837596Y-157568390D01*
X124667858Y-157314359D01*
X124550941Y-157032095D01*
X124491337Y-156732445D01*
X124491337Y-156426925D01*
X124550941Y-156127275D01*
X124667858Y-155845011D01*
X124837596Y-155590980D01*
X125053632Y-155374944D01*
X125307663Y-155205206D01*
X125589927Y-155088289D01*
X125739752Y-155058487D01*
X125889576Y-155028685D01*
X126195098Y-155028685D01*
X126344922Y-155058487D01*
X126344922Y-155058487D01*
G37*
G36*
X124145915Y-147416853D02*
G01*
X124173788Y-147425043D01*
X124199523Y-147438511D01*
X124222137Y-147456743D01*
X124240762Y-147479037D01*
X124257635Y-147509953D01*
X124297475Y-147603810D01*
X124297476Y-147603812D01*
X124844602Y-148892761D01*
X125622124Y-150724488D01*
X125632643Y-150758104D01*
X125635742Y-150786982D01*
X125633147Y-150815915D01*
X125624957Y-150843788D01*
X125611489Y-150869523D01*
X125593257Y-150892137D01*
X125570963Y-150910762D01*
X125540047Y-150927635D01*
X125446190Y-150967475D01*
X125446188Y-150967476D01*
X124424306Y-151401239D01*
X122325512Y-152292124D01*
X122291896Y-152302643D01*
X122263018Y-152305742D01*
X122234085Y-152303147D01*
X122206212Y-152294957D01*
X122180477Y-152281489D01*
X122157863Y-152263257D01*
X122139238Y-152240963D01*
X122122365Y-152210047D01*
X121554338Y-150871858D01*
X121411962Y-150536443D01*
X120757876Y-148995512D01*
X120747357Y-148961896D01*
X120744258Y-148933018D01*
X120746853Y-148904085D01*
X120755043Y-148876212D01*
X120768511Y-148850477D01*
X120786743Y-148827863D01*
X120809037Y-148809238D01*
X120839953Y-148792365D01*
X120933810Y-148752525D01*
X120933812Y-148752524D01*
X122891415Y-147921571D01*
X124054488Y-147427876D01*
X124088104Y-147417357D01*
X124116982Y-147414258D01*
X124145915Y-147416853D01*
X124145915Y-147416853D01*
G37*
G36*
X61802509Y-145035864D02*
G01*
X55437134Y-151401239D01*
X51970897Y-147935002D01*
X58336272Y-141569627D01*
X61802509Y-145035864D01*
X61802509Y-145035864D01*
G37*
G36*
X62844826Y-147256825D02*
G01*
X63218083Y-147411433D01*
X63218085Y-147411434D01*
X63554008Y-147635891D01*
X63839688Y-147921571D01*
X63990405Y-148147134D01*
X64064146Y-148257496D01*
X64218754Y-148630753D01*
X64297572Y-149027000D01*
X64297572Y-149431014D01*
X64218754Y-149827261D01*
X64064146Y-150200518D01*
X64064145Y-150200520D01*
X63839688Y-150536443D01*
X63554008Y-150822123D01*
X63218085Y-151046580D01*
X63218084Y-151046581D01*
X63218083Y-151046581D01*
X62844826Y-151201189D01*
X62448579Y-151280007D01*
X62044565Y-151280007D01*
X61648318Y-151201189D01*
X61275061Y-151046581D01*
X61275060Y-151046581D01*
X61275059Y-151046580D01*
X60939136Y-150822123D01*
X60653456Y-150536443D01*
X60428999Y-150200520D01*
X60428998Y-150200518D01*
X60274390Y-149827261D01*
X60195572Y-149431014D01*
X60195572Y-149027000D01*
X60274390Y-148630753D01*
X60428998Y-148257496D01*
X60502740Y-148147134D01*
X60653456Y-147921571D01*
X60939136Y-147635891D01*
X61275059Y-147411434D01*
X61275061Y-147411433D01*
X61648318Y-147256825D01*
X62044565Y-147178007D01*
X62448579Y-147178007D01*
X62844826Y-147256825D01*
X62844826Y-147256825D01*
G37*
G36*
X121411845Y-142932750D02*
G01*
X121595480Y-142969277D01*
X121941440Y-143112579D01*
X122252796Y-143320620D01*
X122517582Y-143585406D01*
X122725623Y-143896762D01*
X122868925Y-144242722D01*
X122941979Y-144609991D01*
X122941979Y-144984455D01*
X122868925Y-145351724D01*
X122725623Y-145697684D01*
X122517582Y-146009040D01*
X122252796Y-146273826D01*
X121941440Y-146481867D01*
X121595480Y-146625169D01*
X121228212Y-146698223D01*
X120853746Y-146698223D01*
X120486478Y-146625169D01*
X120140518Y-146481867D01*
X119829162Y-146273826D01*
X119564376Y-146009040D01*
X119356335Y-145697684D01*
X119213033Y-145351724D01*
X119139979Y-144984455D01*
X119139979Y-144609991D01*
X119213033Y-144242722D01*
X119356335Y-143896762D01*
X119564376Y-143585406D01*
X119829162Y-143320620D01*
X120140518Y-143112579D01*
X120486478Y-142969277D01*
X120670113Y-142932750D01*
X120853746Y-142896223D01*
X121228212Y-142896223D01*
X121411845Y-142932750D01*
X121411845Y-142932750D01*
G37*
G36*
X54731441Y-137964796D02*
G01*
X48366066Y-144330171D01*
X44899829Y-140863934D01*
X51265204Y-134498559D01*
X54731441Y-137964796D01*
X54731441Y-137964796D01*
G37*
G36*
X47670315Y-132082314D02*
G01*
X48043572Y-132236922D01*
X48043574Y-132236923D01*
X48379497Y-132461380D01*
X48665177Y-132747060D01*
X48889635Y-133082985D01*
X49044243Y-133456242D01*
X49123061Y-133852489D01*
X49123061Y-134256503D01*
X49044243Y-134652750D01*
X48889635Y-135026007D01*
X48889634Y-135026009D01*
X48665177Y-135361932D01*
X48379497Y-135647612D01*
X48043574Y-135872069D01*
X48043573Y-135872070D01*
X48043572Y-135872070D01*
X47670315Y-136026678D01*
X47274068Y-136105496D01*
X46870054Y-136105496D01*
X46473807Y-136026678D01*
X46100550Y-135872070D01*
X46100549Y-135872070D01*
X46100548Y-135872069D01*
X45764625Y-135647612D01*
X45478945Y-135361932D01*
X45254488Y-135026009D01*
X45254487Y-135026007D01*
X45099879Y-134652750D01*
X45021061Y-134256503D01*
X45021061Y-133852489D01*
X45099879Y-133456242D01*
X45254487Y-133082985D01*
X45478945Y-132747060D01*
X45764625Y-132461380D01*
X46100548Y-132236923D01*
X46100550Y-132236922D01*
X46473807Y-132082314D01*
X46870054Y-132003496D01*
X47274068Y-132003496D01*
X47670315Y-132082314D01*
X47670315Y-132082314D01*
G37*
G36*
X168088254Y-107507818D02*
G01*
X168461511Y-107662426D01*
X168461513Y-107662427D01*
X168797436Y-107886884D01*
X169083116Y-108172564D01*
X169307574Y-108508489D01*
X169462182Y-108881746D01*
X169541000Y-109277993D01*
X169541000Y-109682007D01*
X169462182Y-110078254D01*
X169307574Y-110451511D01*
X169307573Y-110451513D01*
X169083116Y-110787436D01*
X168797436Y-111073116D01*
X168461513Y-111297573D01*
X168461512Y-111297574D01*
X168461511Y-111297574D01*
X168088254Y-111452182D01*
X167692007Y-111531000D01*
X167287993Y-111531000D01*
X166891746Y-111452182D01*
X166518489Y-111297574D01*
X166518488Y-111297574D01*
X166518487Y-111297573D01*
X166182564Y-111073116D01*
X165896884Y-110787436D01*
X165672427Y-110451513D01*
X165672426Y-110451511D01*
X165517818Y-110078254D01*
X165439000Y-109682007D01*
X165439000Y-109277993D01*
X165517818Y-108881746D01*
X165672426Y-108508489D01*
X165896884Y-108172564D01*
X166182564Y-107886884D01*
X166518487Y-107662427D01*
X166518489Y-107662426D01*
X166891746Y-107507818D01*
X167287993Y-107429000D01*
X167692007Y-107429000D01*
X168088254Y-107507818D01*
X168088254Y-107507818D01*
G37*
G36*
X33768254Y-107507818D02*
G01*
X34141511Y-107662426D01*
X34141513Y-107662427D01*
X34477436Y-107886884D01*
X34763116Y-108172564D01*
X34987574Y-108508489D01*
X35142182Y-108881746D01*
X35221000Y-109277993D01*
X35221000Y-109682007D01*
X35142182Y-110078254D01*
X34987574Y-110451511D01*
X34987573Y-110451513D01*
X34763116Y-110787436D01*
X34477436Y-111073116D01*
X34141513Y-111297573D01*
X34141512Y-111297574D01*
X34141511Y-111297574D01*
X33768254Y-111452182D01*
X33372007Y-111531000D01*
X32967993Y-111531000D01*
X32571746Y-111452182D01*
X32198489Y-111297574D01*
X32198488Y-111297574D01*
X32198487Y-111297573D01*
X31862564Y-111073116D01*
X31576884Y-110787436D01*
X31352427Y-110451513D01*
X31352426Y-110451511D01*
X31197818Y-110078254D01*
X31119000Y-109682007D01*
X31119000Y-109277993D01*
X31197818Y-108881746D01*
X31352426Y-108508489D01*
X31576884Y-108172564D01*
X31862564Y-107886884D01*
X32198487Y-107662427D01*
X32198489Y-107662426D01*
X32571746Y-107507818D01*
X32967993Y-107429000D01*
X33372007Y-107429000D01*
X33768254Y-107507818D01*
X33768254Y-107507818D01*
G37*
G36*
X102795065Y-88393766D02*
G01*
X104333048Y-89030820D01*
X104333050Y-89030821D01*
X105717199Y-89955679D01*
X106894321Y-91132801D01*
X107819179Y-92516950D01*
X107819180Y-92516952D01*
X108456234Y-94054935D01*
X108781000Y-95687648D01*
X108781000Y-97352352D01*
X108456234Y-98985065D01*
X107819180Y-100523048D01*
X107819179Y-100523050D01*
X106894321Y-101907199D01*
X105717199Y-103084321D01*
X104333050Y-104009179D01*
X104333049Y-104009180D01*
X104333048Y-104009180D01*
X102795065Y-104646234D01*
X101162352Y-104971000D01*
X99497648Y-104971000D01*
X97864935Y-104646234D01*
X96326952Y-104009180D01*
X96326951Y-104009180D01*
X96326950Y-104009179D01*
X94942801Y-103084321D01*
X93765679Y-101907199D01*
X92840821Y-100523050D01*
X92840820Y-100523048D01*
X92203766Y-98985065D01*
X91879000Y-97352352D01*
X91879000Y-95687648D01*
X92203766Y-94054935D01*
X92840820Y-92516952D01*
X92840821Y-92516950D01*
X93765679Y-91132801D01*
X94942801Y-89955679D01*
X96326950Y-89030821D01*
X96326952Y-89030820D01*
X97864935Y-88393766D01*
X99497648Y-88069000D01*
X101162352Y-88069000D01*
X102795065Y-88393766D01*
X102795065Y-88393766D01*
G37*
G36*
X31998228Y-101701703D02*
G01*
X32153100Y-101765853D01*
X32292481Y-101858985D01*
X32411015Y-101977519D01*
X32504147Y-102116900D01*
X32568297Y-102271772D01*
X32601000Y-102436184D01*
X32601000Y-102603816D01*
X32568297Y-102768228D01*
X32504147Y-102923100D01*
X32411015Y-103062481D01*
X32292481Y-103181015D01*
X32153100Y-103274147D01*
X31998228Y-103338297D01*
X31833816Y-103371000D01*
X31666184Y-103371000D01*
X31501772Y-103338297D01*
X31346900Y-103274147D01*
X31207519Y-103181015D01*
X31088985Y-103062481D01*
X30995853Y-102923100D01*
X30931703Y-102768228D01*
X30899000Y-102603816D01*
X30899000Y-102436184D01*
X30931703Y-102271772D01*
X30995853Y-102116900D01*
X31088985Y-101977519D01*
X31207519Y-101858985D01*
X31346900Y-101765853D01*
X31501772Y-101701703D01*
X31666184Y-101669000D01*
X31833816Y-101669000D01*
X31998228Y-101701703D01*
X31998228Y-101701703D01*
G37*
G36*
X169158228Y-101701703D02*
G01*
X169313100Y-101765853D01*
X169452481Y-101858985D01*
X169571015Y-101977519D01*
X169664147Y-102116900D01*
X169728297Y-102271772D01*
X169761000Y-102436184D01*
X169761000Y-102603816D01*
X169728297Y-102768228D01*
X169664147Y-102923100D01*
X169571015Y-103062481D01*
X169452481Y-103181015D01*
X169313100Y-103274147D01*
X169158228Y-103338297D01*
X168993816Y-103371000D01*
X168826184Y-103371000D01*
X168661772Y-103338297D01*
X168506900Y-103274147D01*
X168367519Y-103181015D01*
X168248985Y-103062481D01*
X168155853Y-102923100D01*
X168091703Y-102768228D01*
X168059000Y-102603816D01*
X168059000Y-102436184D01*
X168091703Y-102271772D01*
X168155853Y-102116900D01*
X168248985Y-101977519D01*
X168367519Y-101858985D01*
X168506900Y-101765853D01*
X168661772Y-101701703D01*
X168826184Y-101669000D01*
X168993816Y-101669000D01*
X169158228Y-101701703D01*
X169158228Y-101701703D01*
G37*
G36*
X166318228Y-100316703D02*
G01*
X166473100Y-100380853D01*
X166612481Y-100473985D01*
X166731015Y-100592519D01*
X166824147Y-100731900D01*
X166888297Y-100886772D01*
X166921000Y-101051184D01*
X166921000Y-101218816D01*
X166888297Y-101383228D01*
X166824147Y-101538100D01*
X166731015Y-101677481D01*
X166612481Y-101796015D01*
X166473100Y-101889147D01*
X166318228Y-101953297D01*
X166153816Y-101986000D01*
X165986184Y-101986000D01*
X165821772Y-101953297D01*
X165666900Y-101889147D01*
X165527519Y-101796015D01*
X165408985Y-101677481D01*
X165315853Y-101538100D01*
X165251703Y-101383228D01*
X165219000Y-101218816D01*
X165219000Y-101051184D01*
X165251703Y-100886772D01*
X165315853Y-100731900D01*
X165408985Y-100592519D01*
X165527519Y-100473985D01*
X165666900Y-100380853D01*
X165821772Y-100316703D01*
X165986184Y-100284000D01*
X166153816Y-100284000D01*
X166318228Y-100316703D01*
X166318228Y-100316703D01*
G37*
G36*
X34838228Y-100316703D02*
G01*
X34993100Y-100380853D01*
X35132481Y-100473985D01*
X35251015Y-100592519D01*
X35344147Y-100731900D01*
X35408297Y-100886772D01*
X35441000Y-101051184D01*
X35441000Y-101218816D01*
X35408297Y-101383228D01*
X35344147Y-101538100D01*
X35251015Y-101677481D01*
X35132481Y-101796015D01*
X34993100Y-101889147D01*
X34838228Y-101953297D01*
X34673816Y-101986000D01*
X34506184Y-101986000D01*
X34341772Y-101953297D01*
X34186900Y-101889147D01*
X34047519Y-101796015D01*
X33928985Y-101677481D01*
X33835853Y-101538100D01*
X33771703Y-101383228D01*
X33739000Y-101218816D01*
X33739000Y-101051184D01*
X33771703Y-100886772D01*
X33835853Y-100731900D01*
X33928985Y-100592519D01*
X34047519Y-100473985D01*
X34186900Y-100380853D01*
X34341772Y-100316703D01*
X34506184Y-100284000D01*
X34673816Y-100284000D01*
X34838228Y-100316703D01*
X34838228Y-100316703D01*
G37*
G36*
X169158228Y-98931703D02*
G01*
X169313100Y-98995853D01*
X169452481Y-99088985D01*
X169571015Y-99207519D01*
X169664147Y-99346900D01*
X169728297Y-99501772D01*
X169761000Y-99666184D01*
X169761000Y-99833816D01*
X169728297Y-99998228D01*
X169664147Y-100153100D01*
X169571015Y-100292481D01*
X169452481Y-100411015D01*
X169313100Y-100504147D01*
X169158228Y-100568297D01*
X168993816Y-100601000D01*
X168826184Y-100601000D01*
X168661772Y-100568297D01*
X168506900Y-100504147D01*
X168367519Y-100411015D01*
X168248985Y-100292481D01*
X168155853Y-100153100D01*
X168091703Y-99998228D01*
X168059000Y-99833816D01*
X168059000Y-99666184D01*
X168091703Y-99501772D01*
X168155853Y-99346900D01*
X168248985Y-99207519D01*
X168367519Y-99088985D01*
X168506900Y-98995853D01*
X168661772Y-98931703D01*
X168826184Y-98899000D01*
X168993816Y-98899000D01*
X169158228Y-98931703D01*
X169158228Y-98931703D01*
G37*
G36*
X31998228Y-98931703D02*
G01*
X32153100Y-98995853D01*
X32292481Y-99088985D01*
X32411015Y-99207519D01*
X32504147Y-99346900D01*
X32568297Y-99501772D01*
X32601000Y-99666184D01*
X32601000Y-99833816D01*
X32568297Y-99998228D01*
X32504147Y-100153100D01*
X32411015Y-100292481D01*
X32292481Y-100411015D01*
X32153100Y-100504147D01*
X31998228Y-100568297D01*
X31833816Y-100601000D01*
X31666184Y-100601000D01*
X31501772Y-100568297D01*
X31346900Y-100504147D01*
X31207519Y-100411015D01*
X31088985Y-100292481D01*
X30995853Y-100153100D01*
X30931703Y-99998228D01*
X30899000Y-99833816D01*
X30899000Y-99666184D01*
X30931703Y-99501772D01*
X30995853Y-99346900D01*
X31088985Y-99207519D01*
X31207519Y-99088985D01*
X31346900Y-98995853D01*
X31501772Y-98931703D01*
X31666184Y-98899000D01*
X31833816Y-98899000D01*
X31998228Y-98931703D01*
X31998228Y-98931703D01*
G37*
G36*
X34838228Y-97546703D02*
G01*
X34993100Y-97610853D01*
X35132481Y-97703985D01*
X35251015Y-97822519D01*
X35344147Y-97961900D01*
X35408297Y-98116772D01*
X35441000Y-98281184D01*
X35441000Y-98448816D01*
X35408297Y-98613228D01*
X35344147Y-98768100D01*
X35251015Y-98907481D01*
X35132481Y-99026015D01*
X34993100Y-99119147D01*
X34838228Y-99183297D01*
X34673816Y-99216000D01*
X34506184Y-99216000D01*
X34341772Y-99183297D01*
X34186900Y-99119147D01*
X34047519Y-99026015D01*
X33928985Y-98907481D01*
X33835853Y-98768100D01*
X33771703Y-98613228D01*
X33739000Y-98448816D01*
X33739000Y-98281184D01*
X33771703Y-98116772D01*
X33835853Y-97961900D01*
X33928985Y-97822519D01*
X34047519Y-97703985D01*
X34186900Y-97610853D01*
X34341772Y-97546703D01*
X34506184Y-97514000D01*
X34673816Y-97514000D01*
X34838228Y-97546703D01*
X34838228Y-97546703D01*
G37*
G36*
X166318228Y-97546703D02*
G01*
X166473100Y-97610853D01*
X166612481Y-97703985D01*
X166731015Y-97822519D01*
X166824147Y-97961900D01*
X166888297Y-98116772D01*
X166921000Y-98281184D01*
X166921000Y-98448816D01*
X166888297Y-98613228D01*
X166824147Y-98768100D01*
X166731015Y-98907481D01*
X166612481Y-99026015D01*
X166473100Y-99119147D01*
X166318228Y-99183297D01*
X166153816Y-99216000D01*
X165986184Y-99216000D01*
X165821772Y-99183297D01*
X165666900Y-99119147D01*
X165527519Y-99026015D01*
X165408985Y-98907481D01*
X165315853Y-98768100D01*
X165251703Y-98613228D01*
X165219000Y-98448816D01*
X165219000Y-98281184D01*
X165251703Y-98116772D01*
X165315853Y-97961900D01*
X165408985Y-97822519D01*
X165527519Y-97703985D01*
X165666900Y-97610853D01*
X165821772Y-97546703D01*
X165986184Y-97514000D01*
X166153816Y-97514000D01*
X166318228Y-97546703D01*
X166318228Y-97546703D01*
G37*
G36*
X169158228Y-96161703D02*
G01*
X169313100Y-96225853D01*
X169452481Y-96318985D01*
X169571015Y-96437519D01*
X169664147Y-96576900D01*
X169728297Y-96731772D01*
X169761000Y-96896184D01*
X169761000Y-97063816D01*
X169728297Y-97228228D01*
X169664147Y-97383100D01*
X169571015Y-97522481D01*
X169452481Y-97641015D01*
X169313100Y-97734147D01*
X169158228Y-97798297D01*
X168993816Y-97831000D01*
X168826184Y-97831000D01*
X168661772Y-97798297D01*
X168506900Y-97734147D01*
X168367519Y-97641015D01*
X168248985Y-97522481D01*
X168155853Y-97383100D01*
X168091703Y-97228228D01*
X168059000Y-97063816D01*
X168059000Y-96896184D01*
X168091703Y-96731772D01*
X168155853Y-96576900D01*
X168248985Y-96437519D01*
X168367519Y-96318985D01*
X168506900Y-96225853D01*
X168661772Y-96161703D01*
X168826184Y-96129000D01*
X168993816Y-96129000D01*
X169158228Y-96161703D01*
X169158228Y-96161703D01*
G37*
G36*
X31998228Y-96161703D02*
G01*
X32153100Y-96225853D01*
X32292481Y-96318985D01*
X32411015Y-96437519D01*
X32504147Y-96576900D01*
X32568297Y-96731772D01*
X32601000Y-96896184D01*
X32601000Y-97063816D01*
X32568297Y-97228228D01*
X32504147Y-97383100D01*
X32411015Y-97522481D01*
X32292481Y-97641015D01*
X32153100Y-97734147D01*
X31998228Y-97798297D01*
X31833816Y-97831000D01*
X31666184Y-97831000D01*
X31501772Y-97798297D01*
X31346900Y-97734147D01*
X31207519Y-97641015D01*
X31088985Y-97522481D01*
X30995853Y-97383100D01*
X30931703Y-97228228D01*
X30899000Y-97063816D01*
X30899000Y-96896184D01*
X30931703Y-96731772D01*
X30995853Y-96576900D01*
X31088985Y-96437519D01*
X31207519Y-96318985D01*
X31346900Y-96225853D01*
X31501772Y-96161703D01*
X31666184Y-96129000D01*
X31833816Y-96129000D01*
X31998228Y-96161703D01*
X31998228Y-96161703D01*
G37*
G36*
X34838228Y-94776703D02*
G01*
X34993100Y-94840853D01*
X35132481Y-94933985D01*
X35251015Y-95052519D01*
X35344147Y-95191900D01*
X35408297Y-95346772D01*
X35441000Y-95511184D01*
X35441000Y-95678816D01*
X35408297Y-95843228D01*
X35344147Y-95998100D01*
X35251015Y-96137481D01*
X35132481Y-96256015D01*
X34993100Y-96349147D01*
X34838228Y-96413297D01*
X34673816Y-96446000D01*
X34506184Y-96446000D01*
X34341772Y-96413297D01*
X34186900Y-96349147D01*
X34047519Y-96256015D01*
X33928985Y-96137481D01*
X33835853Y-95998100D01*
X33771703Y-95843228D01*
X33739000Y-95678816D01*
X33739000Y-95511184D01*
X33771703Y-95346772D01*
X33835853Y-95191900D01*
X33928985Y-95052519D01*
X34047519Y-94933985D01*
X34186900Y-94840853D01*
X34341772Y-94776703D01*
X34506184Y-94744000D01*
X34673816Y-94744000D01*
X34838228Y-94776703D01*
X34838228Y-94776703D01*
G37*
G36*
X166318228Y-94776703D02*
G01*
X166473100Y-94840853D01*
X166612481Y-94933985D01*
X166731015Y-95052519D01*
X166824147Y-95191900D01*
X166888297Y-95346772D01*
X166921000Y-95511184D01*
X166921000Y-95678816D01*
X166888297Y-95843228D01*
X166824147Y-95998100D01*
X166731015Y-96137481D01*
X166612481Y-96256015D01*
X166473100Y-96349147D01*
X166318228Y-96413297D01*
X166153816Y-96446000D01*
X165986184Y-96446000D01*
X165821772Y-96413297D01*
X165666900Y-96349147D01*
X165527519Y-96256015D01*
X165408985Y-96137481D01*
X165315853Y-95998100D01*
X165251703Y-95843228D01*
X165219000Y-95678816D01*
X165219000Y-95511184D01*
X165251703Y-95346772D01*
X165315853Y-95191900D01*
X165408985Y-95052519D01*
X165527519Y-94933985D01*
X165666900Y-94840853D01*
X165821772Y-94776703D01*
X165986184Y-94744000D01*
X166153816Y-94744000D01*
X166318228Y-94776703D01*
X166318228Y-94776703D01*
G37*
G36*
X31998228Y-93391703D02*
G01*
X32153100Y-93455853D01*
X32292481Y-93548985D01*
X32411015Y-93667519D01*
X32504147Y-93806900D01*
X32568297Y-93961772D01*
X32601000Y-94126184D01*
X32601000Y-94293816D01*
X32568297Y-94458228D01*
X32504147Y-94613100D01*
X32411015Y-94752481D01*
X32292481Y-94871015D01*
X32153100Y-94964147D01*
X31998228Y-95028297D01*
X31833816Y-95061000D01*
X31666184Y-95061000D01*
X31501772Y-95028297D01*
X31346900Y-94964147D01*
X31207519Y-94871015D01*
X31088985Y-94752481D01*
X30995853Y-94613100D01*
X30931703Y-94458228D01*
X30899000Y-94293816D01*
X30899000Y-94126184D01*
X30931703Y-93961772D01*
X30995853Y-93806900D01*
X31088985Y-93667519D01*
X31207519Y-93548985D01*
X31346900Y-93455853D01*
X31501772Y-93391703D01*
X31666184Y-93359000D01*
X31833816Y-93359000D01*
X31998228Y-93391703D01*
X31998228Y-93391703D01*
G37*
G36*
X169158228Y-93391703D02*
G01*
X169313100Y-93455853D01*
X169452481Y-93548985D01*
X169571015Y-93667519D01*
X169664147Y-93806900D01*
X169728297Y-93961772D01*
X169761000Y-94126184D01*
X169761000Y-94293816D01*
X169728297Y-94458228D01*
X169664147Y-94613100D01*
X169571015Y-94752481D01*
X169452481Y-94871015D01*
X169313100Y-94964147D01*
X169158228Y-95028297D01*
X168993816Y-95061000D01*
X168826184Y-95061000D01*
X168661772Y-95028297D01*
X168506900Y-94964147D01*
X168367519Y-94871015D01*
X168248985Y-94752481D01*
X168155853Y-94613100D01*
X168091703Y-94458228D01*
X168059000Y-94293816D01*
X168059000Y-94126184D01*
X168091703Y-93961772D01*
X168155853Y-93806900D01*
X168248985Y-93667519D01*
X168367519Y-93548985D01*
X168506900Y-93455853D01*
X168661772Y-93391703D01*
X168826184Y-93359000D01*
X168993816Y-93359000D01*
X169158228Y-93391703D01*
X169158228Y-93391703D01*
G37*
G36*
X34838228Y-92006703D02*
G01*
X34993100Y-92070853D01*
X35132481Y-92163985D01*
X35251015Y-92282519D01*
X35344147Y-92421900D01*
X35408297Y-92576772D01*
X35441000Y-92741184D01*
X35441000Y-92908816D01*
X35408297Y-93073228D01*
X35344147Y-93228100D01*
X35251015Y-93367481D01*
X35132481Y-93486015D01*
X34993100Y-93579147D01*
X34838228Y-93643297D01*
X34673816Y-93676000D01*
X34506184Y-93676000D01*
X34341772Y-93643297D01*
X34186900Y-93579147D01*
X34047519Y-93486015D01*
X33928985Y-93367481D01*
X33835853Y-93228100D01*
X33771703Y-93073228D01*
X33739000Y-92908816D01*
X33739000Y-92741184D01*
X33771703Y-92576772D01*
X33835853Y-92421900D01*
X33928985Y-92282519D01*
X34047519Y-92163985D01*
X34186900Y-92070853D01*
X34341772Y-92006703D01*
X34506184Y-91974000D01*
X34673816Y-91974000D01*
X34838228Y-92006703D01*
X34838228Y-92006703D01*
G37*
G36*
X166318228Y-92006703D02*
G01*
X166473100Y-92070853D01*
X166612481Y-92163985D01*
X166731015Y-92282519D01*
X166824147Y-92421900D01*
X166888297Y-92576772D01*
X166921000Y-92741184D01*
X166921000Y-92908816D01*
X166888297Y-93073228D01*
X166824147Y-93228100D01*
X166731015Y-93367481D01*
X166612481Y-93486015D01*
X166473100Y-93579147D01*
X166318228Y-93643297D01*
X166153816Y-93676000D01*
X165986184Y-93676000D01*
X165821772Y-93643297D01*
X165666900Y-93579147D01*
X165527519Y-93486015D01*
X165408985Y-93367481D01*
X165315853Y-93228100D01*
X165251703Y-93073228D01*
X165219000Y-92908816D01*
X165219000Y-92741184D01*
X165251703Y-92576772D01*
X165315853Y-92421900D01*
X165408985Y-92282519D01*
X165527519Y-92163985D01*
X165666900Y-92070853D01*
X165821772Y-92006703D01*
X165986184Y-91974000D01*
X166153816Y-91974000D01*
X166318228Y-92006703D01*
X166318228Y-92006703D01*
G37*
G36*
X32601000Y-92291000D02*
G01*
X30899000Y-92291000D01*
X30899000Y-90589000D01*
X32601000Y-90589000D01*
X32601000Y-92291000D01*
X32601000Y-92291000D01*
G37*
G36*
X169761000Y-92291000D02*
G01*
X168059000Y-92291000D01*
X168059000Y-90589000D01*
X169761000Y-90589000D01*
X169761000Y-92291000D01*
X169761000Y-92291000D01*
G37*
G36*
X168088254Y-82507818D02*
G01*
X168461511Y-82662426D01*
X168461513Y-82662427D01*
X168797436Y-82886884D01*
X169083116Y-83172564D01*
X169307574Y-83508489D01*
X169462182Y-83881746D01*
X169541000Y-84277993D01*
X169541000Y-84682007D01*
X169462182Y-85078254D01*
X169307574Y-85451511D01*
X169307573Y-85451513D01*
X169083116Y-85787436D01*
X168797436Y-86073116D01*
X168461513Y-86297573D01*
X168461512Y-86297574D01*
X168461511Y-86297574D01*
X168088254Y-86452182D01*
X167692007Y-86531000D01*
X167287993Y-86531000D01*
X166891746Y-86452182D01*
X166518489Y-86297574D01*
X166518488Y-86297574D01*
X166518487Y-86297573D01*
X166182564Y-86073116D01*
X165896884Y-85787436D01*
X165672427Y-85451513D01*
X165672426Y-85451511D01*
X165517818Y-85078254D01*
X165439000Y-84682007D01*
X165439000Y-84277993D01*
X165517818Y-83881746D01*
X165672426Y-83508489D01*
X165896884Y-83172564D01*
X166182564Y-82886884D01*
X166518487Y-82662427D01*
X166518489Y-82662426D01*
X166891746Y-82507818D01*
X167287993Y-82429000D01*
X167692007Y-82429000D01*
X168088254Y-82507818D01*
X168088254Y-82507818D01*
G37*
G36*
X33768254Y-82507818D02*
G01*
X34141511Y-82662426D01*
X34141513Y-82662427D01*
X34477436Y-82886884D01*
X34763116Y-83172564D01*
X34987574Y-83508489D01*
X35142182Y-83881746D01*
X35221000Y-84277993D01*
X35221000Y-84682007D01*
X35142182Y-85078254D01*
X34987574Y-85451511D01*
X34987573Y-85451513D01*
X34763116Y-85787436D01*
X34477436Y-86073116D01*
X34141513Y-86297573D01*
X34141512Y-86297574D01*
X34141511Y-86297574D01*
X33768254Y-86452182D01*
X33372007Y-86531000D01*
X32967993Y-86531000D01*
X32571746Y-86452182D01*
X32198489Y-86297574D01*
X32198488Y-86297574D01*
X32198487Y-86297573D01*
X31862564Y-86073116D01*
X31576884Y-85787436D01*
X31352427Y-85451513D01*
X31352426Y-85451511D01*
X31197818Y-85078254D01*
X31119000Y-84682007D01*
X31119000Y-84277993D01*
X31197818Y-83881746D01*
X31352426Y-83508489D01*
X31576884Y-83172564D01*
X31862564Y-82886884D01*
X32198487Y-82662427D01*
X32198489Y-82662426D01*
X32571746Y-82507818D01*
X32967993Y-82429000D01*
X33372007Y-82429000D01*
X33768254Y-82507818D01*
X33768254Y-82507818D01*
G37*
G36*
X75855522Y-47938831D02*
G01*
X76201482Y-48082133D01*
X76512838Y-48290174D01*
X76777624Y-48554960D01*
X76985665Y-48866316D01*
X77128967Y-49212276D01*
X77202021Y-49579545D01*
X77202021Y-49954009D01*
X77128967Y-50321278D01*
X76985665Y-50667238D01*
X76777624Y-50978594D01*
X76512838Y-51243380D01*
X76201482Y-51451421D01*
X75855522Y-51594723D01*
X75488254Y-51667777D01*
X75113788Y-51667777D01*
X74746520Y-51594723D01*
X74400560Y-51451421D01*
X74089204Y-51243380D01*
X73824418Y-50978594D01*
X73616377Y-50667238D01*
X73473075Y-50321278D01*
X73400021Y-49954009D01*
X73400021Y-49579545D01*
X73473075Y-49212276D01*
X73616377Y-48866316D01*
X73824418Y-48554960D01*
X74089204Y-48290174D01*
X74400560Y-48082133D01*
X74746520Y-47938831D01*
X75113788Y-47865777D01*
X75488254Y-47865777D01*
X75855522Y-47938831D01*
X75855522Y-47938831D01*
G37*
G36*
X80842244Y-45659915D02*
G01*
X81102400Y-45711663D01*
X81448360Y-45854965D01*
X81759716Y-46063006D01*
X82024502Y-46327792D01*
X82232543Y-46639148D01*
X82375845Y-46985108D01*
X82448899Y-47352377D01*
X82448899Y-47726841D01*
X82375845Y-48094110D01*
X82232543Y-48440070D01*
X82024502Y-48751426D01*
X81759716Y-49016212D01*
X81448360Y-49224253D01*
X81102400Y-49367555D01*
X80918765Y-49404082D01*
X80735132Y-49440609D01*
X80360666Y-49440609D01*
X80177033Y-49404082D01*
X79993398Y-49367555D01*
X79647438Y-49224253D01*
X79336082Y-49016212D01*
X79071296Y-48751426D01*
X78863255Y-48440070D01*
X78719953Y-48094110D01*
X78646899Y-47726841D01*
X78646899Y-47352377D01*
X78719953Y-46985108D01*
X78863255Y-46639148D01*
X79071296Y-46327792D01*
X79336082Y-46063006D01*
X79647438Y-45854965D01*
X79993398Y-45711663D01*
X80253554Y-45659915D01*
X80360666Y-45638609D01*
X80735132Y-45638609D01*
X80842244Y-45659915D01*
X80842244Y-45659915D01*
G37*
G36*
X120309550Y-43892847D02*
G01*
X120574329Y-43970650D01*
X120574331Y-43970651D01*
X120818841Y-44098613D01*
X121033690Y-44271820D01*
X121210621Y-44483614D01*
X121342834Y-44725857D01*
X121412352Y-44948030D01*
X121425246Y-44989236D01*
X121454691Y-45263634D01*
X121430039Y-45538503D01*
X121371966Y-45736137D01*
X121371730Y-45736939D01*
X120945566Y-46791734D01*
X120849667Y-46974977D01*
X120676460Y-47189826D01*
X120464666Y-47366757D01*
X120222423Y-47498970D01*
X120030307Y-47559083D01*
X119959044Y-47581382D01*
X119821845Y-47596104D01*
X119684648Y-47610827D01*
X119684646Y-47610827D01*
X119409778Y-47586175D01*
X119144999Y-47508372D01*
X119127030Y-47498968D01*
X118900487Y-47380409D01*
X118685638Y-47207202D01*
X118508707Y-46995408D01*
X118376494Y-46753165D01*
X118304869Y-46524258D01*
X118294082Y-46489786D01*
X118264637Y-46215388D01*
X118289289Y-45940520D01*
X118347597Y-45742087D01*
X118358194Y-45715858D01*
X118773762Y-44687288D01*
X118869661Y-44504045D01*
X119042868Y-44289196D01*
X119139268Y-44208664D01*
X119254662Y-44112264D01*
X119353367Y-44058393D01*
X119496905Y-43980052D01*
X119689020Y-43919939D01*
X119760283Y-43897640D01*
X119897482Y-43882918D01*
X120034679Y-43868195D01*
X120034681Y-43868195D01*
X120309550Y-43892847D01*
X120309550Y-43892847D01*
G37*
G36*
X86349278Y-43484496D02*
G01*
X86593909Y-43585826D01*
X86677982Y-43620650D01*
X86695238Y-43627798D01*
X87006594Y-43835839D01*
X87271380Y-44100625D01*
X87407791Y-44304779D01*
X87479422Y-44411983D01*
X87622723Y-44757942D01*
X87695777Y-45125209D01*
X87695777Y-45499675D01*
X87682089Y-45568488D01*
X87622723Y-45866943D01*
X87479421Y-46212903D01*
X87271380Y-46524259D01*
X87006594Y-46789045D01*
X86695238Y-46997086D01*
X86695237Y-46997087D01*
X86695236Y-46997087D01*
X86593909Y-47039058D01*
X86349278Y-47140388D01*
X85982010Y-47213442D01*
X85607544Y-47213442D01*
X85240276Y-47140388D01*
X84995645Y-47039058D01*
X84894318Y-46997087D01*
X84894317Y-46997087D01*
X84894316Y-46997086D01*
X84582960Y-46789045D01*
X84318174Y-46524259D01*
X84110133Y-46212903D01*
X83966831Y-45866943D01*
X83907465Y-45568488D01*
X83893777Y-45499675D01*
X83893777Y-45125209D01*
X83966831Y-44757942D01*
X84110132Y-44411983D01*
X84181763Y-44304779D01*
X84318174Y-44100625D01*
X84582960Y-43835839D01*
X84894316Y-43627798D01*
X84911573Y-43620650D01*
X84995645Y-43585826D01*
X85240276Y-43484496D01*
X85607544Y-43411442D01*
X85982010Y-43411442D01*
X86349278Y-43484496D01*
X86349278Y-43484496D01*
G37*
G36*
X74107915Y-42260853D02*
G01*
X74135788Y-42269043D01*
X74161523Y-42282511D01*
X74184137Y-42300743D01*
X74202762Y-42323037D01*
X74219635Y-42353953D01*
X74259475Y-42447810D01*
X74259476Y-42447812D01*
X74806602Y-43736761D01*
X75584124Y-45568488D01*
X75594643Y-45602104D01*
X75597742Y-45630982D01*
X75595147Y-45659915D01*
X75586957Y-45687788D01*
X75573489Y-45713523D01*
X75555257Y-45736137D01*
X75532963Y-45754762D01*
X75502047Y-45771635D01*
X75408190Y-45811475D01*
X75408188Y-45811476D01*
X74456626Y-46215390D01*
X72287512Y-47136124D01*
X72253896Y-47146643D01*
X72225018Y-47149742D01*
X72196085Y-47147147D01*
X72168212Y-47138957D01*
X72142477Y-47125489D01*
X72119863Y-47107257D01*
X72101238Y-47084963D01*
X72084365Y-47054047D01*
X71956649Y-46753166D01*
X71079736Y-44687288D01*
X70719876Y-43839512D01*
X70709357Y-43805896D01*
X70706258Y-43777018D01*
X70708853Y-43748085D01*
X70717043Y-43720212D01*
X70730511Y-43694477D01*
X70748743Y-43671863D01*
X70771037Y-43653238D01*
X70801953Y-43636365D01*
X70895810Y-43596525D01*
X70895812Y-43596524D01*
X72752703Y-42808321D01*
X74016488Y-42271876D01*
X74050104Y-42261357D01*
X74078982Y-42258258D01*
X74107915Y-42260853D01*
X74107915Y-42260853D01*
G37*
G36*
X78769744Y-40612360D02*
G01*
X78953379Y-40648887D01*
X79299339Y-40792189D01*
X79610695Y-41000230D01*
X79875481Y-41265016D01*
X80006754Y-41461481D01*
X80083523Y-41576374D01*
X80125494Y-41677701D01*
X80226824Y-41922332D01*
X80232598Y-41951359D01*
X80299878Y-42289600D01*
X80299878Y-42664066D01*
X80286383Y-42731909D01*
X80226824Y-43031334D01*
X80083522Y-43377294D01*
X79875481Y-43688650D01*
X79610695Y-43953436D01*
X79299339Y-44161477D01*
X78953379Y-44304779D01*
X78769744Y-44341306D01*
X78586111Y-44377833D01*
X78211645Y-44377833D01*
X77844377Y-44304779D01*
X77498417Y-44161477D01*
X77187061Y-43953436D01*
X76922275Y-43688650D01*
X76714234Y-43377294D01*
X76570932Y-43031334D01*
X76511373Y-42731909D01*
X76497878Y-42664066D01*
X76497878Y-42289600D01*
X76565158Y-41951359D01*
X76570932Y-41922332D01*
X76672262Y-41677701D01*
X76714233Y-41576374D01*
X76791002Y-41461481D01*
X76922275Y-41265016D01*
X77187061Y-41000230D01*
X77498417Y-40792189D01*
X77844377Y-40648887D01*
X78028012Y-40612360D01*
X78211645Y-40575833D01*
X78586111Y-40575833D01*
X78769744Y-40612360D01*
X78769744Y-40612360D01*
G37*
G36*
X121449504Y-38403519D02*
G01*
X121484959Y-38413937D01*
X123779295Y-39340909D01*
X123812032Y-39358041D01*
X123835995Y-39377360D01*
X123855721Y-39400973D01*
X123870468Y-39427993D01*
X123879657Y-39457359D01*
X123882940Y-39487960D01*
X123880192Y-39518609D01*
X123869774Y-39554064D01*
X122568196Y-42775584D01*
X122551064Y-42808321D01*
X122531745Y-42832284D01*
X122508132Y-42852010D01*
X122481112Y-42866757D01*
X122451746Y-42875946D01*
X122421145Y-42879229D01*
X122390496Y-42876481D01*
X122355041Y-42866063D01*
X120060705Y-41939091D01*
X120027968Y-41921959D01*
X120004005Y-41902640D01*
X119984279Y-41879027D01*
X119969532Y-41852007D01*
X119960343Y-41822641D01*
X119957060Y-41792040D01*
X119959808Y-41761391D01*
X119970226Y-41725936D01*
X121271804Y-38504416D01*
X121288936Y-38471679D01*
X121308255Y-38447716D01*
X121331868Y-38427990D01*
X121358888Y-38413243D01*
X121388254Y-38404054D01*
X121418855Y-38400771D01*
X121449504Y-38403519D01*
X121449504Y-38403519D01*
G37*
G36*
X84016621Y-38385192D02*
G01*
X84200256Y-38421719D01*
X84546216Y-38565021D01*
X84857572Y-38773062D01*
X85122358Y-39037848D01*
X85316659Y-39328641D01*
X85330400Y-39349206D01*
X85334371Y-39358794D01*
X85473701Y-39695164D01*
X85546755Y-40062433D01*
X85546755Y-40436897D01*
X85473701Y-40804166D01*
X85330399Y-41150126D01*
X85122358Y-41461482D01*
X84857572Y-41726268D01*
X84546216Y-41934309D01*
X84546215Y-41934310D01*
X84546214Y-41934310D01*
X84505054Y-41951359D01*
X84200256Y-42077611D01*
X83832988Y-42150665D01*
X83458522Y-42150665D01*
X83091254Y-42077611D01*
X82786456Y-41951359D01*
X82745296Y-41934310D01*
X82745295Y-41934310D01*
X82745294Y-41934309D01*
X82433938Y-41726268D01*
X82169152Y-41461482D01*
X81961111Y-41150126D01*
X81817809Y-40804166D01*
X81744755Y-40436897D01*
X81744755Y-40062433D01*
X81817809Y-39695164D01*
X81957139Y-39358794D01*
X81961110Y-39349206D01*
X81974851Y-39328641D01*
X82169152Y-39037848D01*
X82433938Y-38773062D01*
X82745294Y-38565021D01*
X83091254Y-38421719D01*
X83458522Y-38348665D01*
X83832988Y-38348665D01*
X84016621Y-38385192D01*
X84016621Y-38385192D01*
G37*
G36*
X128040931Y-36822855D02*
G01*
X128147254Y-36844004D01*
X128447717Y-36968460D01*
X128718126Y-37149142D01*
X128948090Y-37379106D01*
X129128772Y-37649515D01*
X129253228Y-37949978D01*
X129316675Y-38268948D01*
X129316675Y-38594166D01*
X129253228Y-38913136D01*
X129201570Y-39037849D01*
X129138939Y-39189055D01*
X129128772Y-39213599D01*
X128948090Y-39484008D01*
X128718126Y-39713972D01*
X128447717Y-39894654D01*
X128147254Y-40019110D01*
X128040931Y-40040259D01*
X127828286Y-40082557D01*
X127503064Y-40082557D01*
X127290419Y-40040259D01*
X127184096Y-40019110D01*
X126883633Y-39894654D01*
X126613224Y-39713972D01*
X126383260Y-39484008D01*
X126202578Y-39213599D01*
X126192412Y-39189055D01*
X126129780Y-39037849D01*
X126078122Y-38913136D01*
X126014675Y-38594166D01*
X126014675Y-38268948D01*
X126078122Y-37949978D01*
X126202578Y-37649515D01*
X126383260Y-37379106D01*
X126613224Y-37149142D01*
X126883633Y-36968460D01*
X127184096Y-36844004D01*
X127290419Y-36822855D01*
X127503064Y-36780557D01*
X127828286Y-36780557D01*
X128040931Y-36822855D01*
X128040931Y-36822855D01*
G37*
G36*
X70602248Y-36463117D02*
G01*
X70752073Y-36492919D01*
X71034337Y-36609836D01*
X71288368Y-36779574D01*
X71504404Y-36995610D01*
X71674142Y-37249641D01*
X71791059Y-37531905D01*
X71850663Y-37831555D01*
X71850663Y-38137075D01*
X71791059Y-38436725D01*
X71674142Y-38718989D01*
X71504404Y-38973020D01*
X71288368Y-39189056D01*
X71034337Y-39358794D01*
X70752073Y-39475711D01*
X70666276Y-39492777D01*
X70452424Y-39535315D01*
X70146902Y-39535315D01*
X69933050Y-39492777D01*
X69847253Y-39475711D01*
X69564989Y-39358794D01*
X69310958Y-39189056D01*
X69094922Y-38973020D01*
X68925184Y-38718989D01*
X68808267Y-38436725D01*
X68748663Y-38137075D01*
X68748663Y-37831555D01*
X68808267Y-37531905D01*
X68925184Y-37249641D01*
X69094922Y-36995610D01*
X69310958Y-36779574D01*
X69564989Y-36609836D01*
X69847253Y-36492919D01*
X69997078Y-36463117D01*
X70146902Y-36433315D01*
X70452424Y-36433315D01*
X70602248Y-36463117D01*
X70602248Y-36463117D01*
G37*
G36*
X119696276Y-33451396D02*
G01*
X119802599Y-33472545D01*
X120103062Y-33597001D01*
X120373471Y-33777683D01*
X120603435Y-34007647D01*
X120784117Y-34278056D01*
X120883789Y-34518684D01*
X120908573Y-34578520D01*
X120939644Y-34734721D01*
X120972020Y-34897489D01*
X120972020Y-35222707D01*
X120908573Y-35541677D01*
X120784117Y-35842140D01*
X120603435Y-36112549D01*
X120373471Y-36342513D01*
X120103062Y-36523195D01*
X119802599Y-36647651D01*
X119696276Y-36668800D01*
X119483631Y-36711098D01*
X119158409Y-36711098D01*
X118945764Y-36668800D01*
X118839441Y-36647651D01*
X118538978Y-36523195D01*
X118268569Y-36342513D01*
X118038605Y-36112549D01*
X117857923Y-35842140D01*
X117733467Y-35541677D01*
X117670020Y-35222707D01*
X117670020Y-34897489D01*
X117702397Y-34734721D01*
X117733467Y-34578520D01*
X117758252Y-34518684D01*
X117857923Y-34278056D01*
X118038605Y-34007647D01*
X118268569Y-33777683D01*
X118538978Y-33597001D01*
X118839441Y-33472545D01*
X118945764Y-33451396D01*
X119158409Y-33409098D01*
X119483631Y-33409098D01*
X119696276Y-33451396D01*
X119696276Y-33451396D01*
G37*
G36*
X81096003Y-32008782D02*
G01*
X81245828Y-32038584D01*
X81528092Y-32155501D01*
X81782123Y-32325239D01*
X81998159Y-32541275D01*
X82167897Y-32795306D01*
X82284814Y-33077570D01*
X82344418Y-33377220D01*
X82344418Y-33682740D01*
X82284814Y-33982390D01*
X82167897Y-34264654D01*
X81998159Y-34518685D01*
X81782123Y-34734721D01*
X81528092Y-34904459D01*
X81245828Y-35021376D01*
X81096003Y-35051178D01*
X80946179Y-35080980D01*
X80640657Y-35080980D01*
X80490833Y-35051178D01*
X80341008Y-35021376D01*
X80058744Y-34904459D01*
X79804713Y-34734721D01*
X79588677Y-34518685D01*
X79418939Y-34264654D01*
X79302022Y-33982390D01*
X79242418Y-33682740D01*
X79242418Y-33377220D01*
X79302022Y-33077570D01*
X79418939Y-32795306D01*
X79588677Y-32541275D01*
X79804713Y-32325239D01*
X80058744Y-32155501D01*
X80341008Y-32038584D01*
X80490833Y-32008782D01*
X80640657Y-31978980D01*
X80946179Y-31978980D01*
X81096003Y-32008782D01*
X81096003Y-32008782D01*
G37*
M02*
