M48
; DRILL file {KiCad 5.1.5-52549c5~84~ubuntu18.04.1} date Wed 12 Feb 2020 07:06:40 PM EST
; FORMAT={3:3/ absolute / metric / suppress leading zeros}
; #@! TF.CreationDate,2020-02-12T19:06:40-05:00
; #@! TF.GenerationSoftware,Kicad,Pcbnew,5.1.5-52549c5~84~ubuntu18.04.1
FMAT,2
METRIC,TZ
T1C1.000
T2C1.300
T3C3.200
%
G90
G05
T1
X139214Y-86847
X140599Y-89687
X141984Y-86847
X143369Y-89687
X144754Y-86847
X146139Y-89687
X147524Y-86847
X148909Y-89687
X150294Y-86847
X116945Y-78497
X118330Y-75657
X119715Y-78497
X121100Y-75657
X122485Y-78497
X123870Y-75657
X125255Y-78497
X126640Y-75657
X128025Y-78497
X129410Y-75657
X130795Y-78497
X132180Y-75657
X133565Y-78497
X134950Y-75657
X136335Y-78497
X137720Y-75657
X139105Y-78497
X140490Y-75657
X141875Y-78497
X143260Y-75657
X144645Y-78497
X146030Y-75657
X147415Y-78497
X148800Y-75657
X150185Y-78497
T2
X122428Y-87630
X122428Y-92630
T3
X132254Y-88267
X157254Y-88267
X110015Y-77077
X157115Y-77077
T0
M30
