G04 #@! TF.GenerationSoftware,KiCad,Pcbnew,5.1.5-52549c5~84~ubuntu18.04.1*
G04 #@! TF.CreationDate,2020-02-12T19:06:33-05:00*
G04 #@! TF.ProjectId,a3la_db25_to_db9,61336c61-5f64-4623-9235-5f746f5f6462,1*
G04 #@! TF.SameCoordinates,Original*
G04 #@! TF.FileFunction,Soldermask,Top*
G04 #@! TF.FilePolarity,Negative*
%FSLAX46Y46*%
G04 Gerber Fmt 4.6, Leading zero omitted, Abs format (unit mm)*
G04 Created by KiCad (PCBNEW 5.1.5-52549c5~84~ubuntu18.04.1) date 2020-02-12 19:06:33*
%MOMM*%
%LPD*%
G04 APERTURE LIST*
%ADD10C,0.100000*%
G04 APERTURE END LIST*
D10*
G36*
X122822072Y-91330918D02*
G01*
X123067939Y-91432759D01*
X123289212Y-91580610D01*
X123477390Y-91768788D01*
X123625241Y-91990061D01*
X123727082Y-92235928D01*
X123779000Y-92496938D01*
X123779000Y-92763062D01*
X123727082Y-93024072D01*
X123625241Y-93269939D01*
X123477390Y-93491212D01*
X123289212Y-93679390D01*
X123067939Y-93827241D01*
X123067938Y-93827242D01*
X123067937Y-93827242D01*
X122822072Y-93929082D01*
X122561063Y-93981000D01*
X122294937Y-93981000D01*
X122033928Y-93929082D01*
X121788063Y-93827242D01*
X121788062Y-93827242D01*
X121788061Y-93827241D01*
X121566788Y-93679390D01*
X121378610Y-93491212D01*
X121230759Y-93269939D01*
X121128918Y-93024072D01*
X121077000Y-92763062D01*
X121077000Y-92496938D01*
X121128918Y-92235928D01*
X121230759Y-91990061D01*
X121378610Y-91768788D01*
X121566788Y-91580610D01*
X121788061Y-91432759D01*
X122033928Y-91330918D01*
X122294937Y-91279000D01*
X122561063Y-91279000D01*
X122822072Y-91330918D01*
G37*
G36*
X149157216Y-88868229D02*
G01*
X149312088Y-88932379D01*
X149451469Y-89025511D01*
X149570003Y-89144045D01*
X149663135Y-89283426D01*
X149727285Y-89438298D01*
X149759988Y-89602710D01*
X149759988Y-89770342D01*
X149727285Y-89934754D01*
X149663135Y-90089626D01*
X149570003Y-90229007D01*
X149451469Y-90347541D01*
X149312088Y-90440673D01*
X149157216Y-90504823D01*
X148992804Y-90537526D01*
X148825172Y-90537526D01*
X148660760Y-90504823D01*
X148505888Y-90440673D01*
X148366507Y-90347541D01*
X148247973Y-90229007D01*
X148154841Y-90089626D01*
X148090691Y-89934754D01*
X148057988Y-89770342D01*
X148057988Y-89602710D01*
X148090691Y-89438298D01*
X148154841Y-89283426D01*
X148247973Y-89144045D01*
X148366507Y-89025511D01*
X148505888Y-88932379D01*
X148660760Y-88868229D01*
X148825172Y-88835526D01*
X148992804Y-88835526D01*
X149157216Y-88868229D01*
G37*
G36*
X140847216Y-88868229D02*
G01*
X141002088Y-88932379D01*
X141141469Y-89025511D01*
X141260003Y-89144045D01*
X141353135Y-89283426D01*
X141417285Y-89438298D01*
X141449988Y-89602710D01*
X141449988Y-89770342D01*
X141417285Y-89934754D01*
X141353135Y-90089626D01*
X141260003Y-90229007D01*
X141141469Y-90347541D01*
X141002088Y-90440673D01*
X140847216Y-90504823D01*
X140682804Y-90537526D01*
X140515172Y-90537526D01*
X140350760Y-90504823D01*
X140195888Y-90440673D01*
X140056507Y-90347541D01*
X139937973Y-90229007D01*
X139844841Y-90089626D01*
X139780691Y-89934754D01*
X139747988Y-89770342D01*
X139747988Y-89602710D01*
X139780691Y-89438298D01*
X139844841Y-89283426D01*
X139937973Y-89144045D01*
X140056507Y-89025511D01*
X140195888Y-88932379D01*
X140350760Y-88868229D01*
X140515172Y-88835526D01*
X140682804Y-88835526D01*
X140847216Y-88868229D01*
G37*
G36*
X143617216Y-88868229D02*
G01*
X143772088Y-88932379D01*
X143911469Y-89025511D01*
X144030003Y-89144045D01*
X144123135Y-89283426D01*
X144187285Y-89438298D01*
X144219988Y-89602710D01*
X144219988Y-89770342D01*
X144187285Y-89934754D01*
X144123135Y-90089626D01*
X144030003Y-90229007D01*
X143911469Y-90347541D01*
X143772088Y-90440673D01*
X143617216Y-90504823D01*
X143452804Y-90537526D01*
X143285172Y-90537526D01*
X143120760Y-90504823D01*
X142965888Y-90440673D01*
X142826507Y-90347541D01*
X142707973Y-90229007D01*
X142614841Y-90089626D01*
X142550691Y-89934754D01*
X142517988Y-89770342D01*
X142517988Y-89602710D01*
X142550691Y-89438298D01*
X142614841Y-89283426D01*
X142707973Y-89144045D01*
X142826507Y-89025511D01*
X142965888Y-88932379D01*
X143120760Y-88868229D01*
X143285172Y-88835526D01*
X143452804Y-88835526D01*
X143617216Y-88868229D01*
G37*
G36*
X146387216Y-88868229D02*
G01*
X146542088Y-88932379D01*
X146681469Y-89025511D01*
X146800003Y-89144045D01*
X146893135Y-89283426D01*
X146957285Y-89438298D01*
X146989988Y-89602710D01*
X146989988Y-89770342D01*
X146957285Y-89934754D01*
X146893135Y-90089626D01*
X146800003Y-90229007D01*
X146681469Y-90347541D01*
X146542088Y-90440673D01*
X146387216Y-90504823D01*
X146222804Y-90537526D01*
X146055172Y-90537526D01*
X145890760Y-90504823D01*
X145735888Y-90440673D01*
X145596507Y-90347541D01*
X145477973Y-90229007D01*
X145384841Y-90089626D01*
X145320691Y-89934754D01*
X145287988Y-89770342D01*
X145287988Y-89602710D01*
X145320691Y-89438298D01*
X145384841Y-89283426D01*
X145477973Y-89144045D01*
X145596507Y-89025511D01*
X145735888Y-88932379D01*
X145890760Y-88868229D01*
X146055172Y-88835526D01*
X146222804Y-88835526D01*
X146387216Y-88868229D01*
G37*
G36*
X157852242Y-86294344D02*
G01*
X158212158Y-86443426D01*
X158225501Y-86448953D01*
X158561424Y-86673410D01*
X158847104Y-86959090D01*
X158937753Y-87094755D01*
X159071562Y-87295015D01*
X159226170Y-87668272D01*
X159304988Y-88064519D01*
X159304988Y-88468533D01*
X159226170Y-88864780D01*
X159110494Y-89144046D01*
X159071561Y-89238039D01*
X158847104Y-89573962D01*
X158561424Y-89859642D01*
X158225501Y-90084099D01*
X158225500Y-90084100D01*
X158225499Y-90084100D01*
X157852242Y-90238708D01*
X157455995Y-90317526D01*
X157051981Y-90317526D01*
X156655734Y-90238708D01*
X156282477Y-90084100D01*
X156282476Y-90084100D01*
X156282475Y-90084099D01*
X155946552Y-89859642D01*
X155660872Y-89573962D01*
X155436415Y-89238039D01*
X155397482Y-89144046D01*
X155281806Y-88864780D01*
X155202988Y-88468533D01*
X155202988Y-88064519D01*
X155281806Y-87668272D01*
X155436414Y-87295015D01*
X155570224Y-87094755D01*
X155660872Y-86959090D01*
X155946552Y-86673410D01*
X156282475Y-86448953D01*
X156295818Y-86443426D01*
X156655734Y-86294344D01*
X157051981Y-86215526D01*
X157455995Y-86215526D01*
X157852242Y-86294344D01*
G37*
G36*
X132852242Y-86294344D02*
G01*
X133212158Y-86443426D01*
X133225501Y-86448953D01*
X133561424Y-86673410D01*
X133847104Y-86959090D01*
X133937753Y-87094755D01*
X134071562Y-87295015D01*
X134226170Y-87668272D01*
X134304988Y-88064519D01*
X134304988Y-88468533D01*
X134226170Y-88864780D01*
X134110494Y-89144046D01*
X134071561Y-89238039D01*
X133847104Y-89573962D01*
X133561424Y-89859642D01*
X133225501Y-90084099D01*
X133225500Y-90084100D01*
X133225499Y-90084100D01*
X132852242Y-90238708D01*
X132455995Y-90317526D01*
X132051981Y-90317526D01*
X131655734Y-90238708D01*
X131282477Y-90084100D01*
X131282476Y-90084100D01*
X131282475Y-90084099D01*
X130946552Y-89859642D01*
X130660872Y-89573962D01*
X130436415Y-89238039D01*
X130397482Y-89144046D01*
X130281806Y-88864780D01*
X130202988Y-88468533D01*
X130202988Y-88064519D01*
X130281806Y-87668272D01*
X130436414Y-87295015D01*
X130570224Y-87094755D01*
X130660872Y-86959090D01*
X130946552Y-86673410D01*
X131282475Y-86448953D01*
X131295818Y-86443426D01*
X131655734Y-86294344D01*
X132051981Y-86215526D01*
X132455995Y-86215526D01*
X132852242Y-86294344D01*
G37*
G36*
X123779000Y-88981000D02*
G01*
X121077000Y-88981000D01*
X121077000Y-86279000D01*
X123779000Y-86279000D01*
X123779000Y-88981000D01*
G37*
G36*
X151144988Y-87697526D02*
G01*
X149442988Y-87697526D01*
X149442988Y-85995526D01*
X151144988Y-85995526D01*
X151144988Y-87697526D01*
G37*
G36*
X147772216Y-86028229D02*
G01*
X147927088Y-86092379D01*
X148066469Y-86185511D01*
X148185003Y-86304045D01*
X148278135Y-86443426D01*
X148342285Y-86598298D01*
X148374988Y-86762710D01*
X148374988Y-86930342D01*
X148342285Y-87094754D01*
X148278135Y-87249626D01*
X148185003Y-87389007D01*
X148066469Y-87507541D01*
X147927088Y-87600673D01*
X147772216Y-87664823D01*
X147607804Y-87697526D01*
X147440172Y-87697526D01*
X147275760Y-87664823D01*
X147120888Y-87600673D01*
X146981507Y-87507541D01*
X146862973Y-87389007D01*
X146769841Y-87249626D01*
X146705691Y-87094754D01*
X146672988Y-86930342D01*
X146672988Y-86762710D01*
X146705691Y-86598298D01*
X146769841Y-86443426D01*
X146862973Y-86304045D01*
X146981507Y-86185511D01*
X147120888Y-86092379D01*
X147275760Y-86028229D01*
X147440172Y-85995526D01*
X147607804Y-85995526D01*
X147772216Y-86028229D01*
G37*
G36*
X145002216Y-86028229D02*
G01*
X145157088Y-86092379D01*
X145296469Y-86185511D01*
X145415003Y-86304045D01*
X145508135Y-86443426D01*
X145572285Y-86598298D01*
X145604988Y-86762710D01*
X145604988Y-86930342D01*
X145572285Y-87094754D01*
X145508135Y-87249626D01*
X145415003Y-87389007D01*
X145296469Y-87507541D01*
X145157088Y-87600673D01*
X145002216Y-87664823D01*
X144837804Y-87697526D01*
X144670172Y-87697526D01*
X144505760Y-87664823D01*
X144350888Y-87600673D01*
X144211507Y-87507541D01*
X144092973Y-87389007D01*
X143999841Y-87249626D01*
X143935691Y-87094754D01*
X143902988Y-86930342D01*
X143902988Y-86762710D01*
X143935691Y-86598298D01*
X143999841Y-86443426D01*
X144092973Y-86304045D01*
X144211507Y-86185511D01*
X144350888Y-86092379D01*
X144505760Y-86028229D01*
X144670172Y-85995526D01*
X144837804Y-85995526D01*
X145002216Y-86028229D01*
G37*
G36*
X142232216Y-86028229D02*
G01*
X142387088Y-86092379D01*
X142526469Y-86185511D01*
X142645003Y-86304045D01*
X142738135Y-86443426D01*
X142802285Y-86598298D01*
X142834988Y-86762710D01*
X142834988Y-86930342D01*
X142802285Y-87094754D01*
X142738135Y-87249626D01*
X142645003Y-87389007D01*
X142526469Y-87507541D01*
X142387088Y-87600673D01*
X142232216Y-87664823D01*
X142067804Y-87697526D01*
X141900172Y-87697526D01*
X141735760Y-87664823D01*
X141580888Y-87600673D01*
X141441507Y-87507541D01*
X141322973Y-87389007D01*
X141229841Y-87249626D01*
X141165691Y-87094754D01*
X141132988Y-86930342D01*
X141132988Y-86762710D01*
X141165691Y-86598298D01*
X141229841Y-86443426D01*
X141322973Y-86304045D01*
X141441507Y-86185511D01*
X141580888Y-86092379D01*
X141735760Y-86028229D01*
X141900172Y-85995526D01*
X142067804Y-85995526D01*
X142232216Y-86028229D01*
G37*
G36*
X139462216Y-86028229D02*
G01*
X139617088Y-86092379D01*
X139756469Y-86185511D01*
X139875003Y-86304045D01*
X139968135Y-86443426D01*
X140032285Y-86598298D01*
X140064988Y-86762710D01*
X140064988Y-86930342D01*
X140032285Y-87094754D01*
X139968135Y-87249626D01*
X139875003Y-87389007D01*
X139756469Y-87507541D01*
X139617088Y-87600673D01*
X139462216Y-87664823D01*
X139297804Y-87697526D01*
X139130172Y-87697526D01*
X138965760Y-87664823D01*
X138810888Y-87600673D01*
X138671507Y-87507541D01*
X138552973Y-87389007D01*
X138459841Y-87249626D01*
X138395691Y-87094754D01*
X138362988Y-86930342D01*
X138362988Y-86762710D01*
X138395691Y-86598298D01*
X138459841Y-86443426D01*
X138552973Y-86304045D01*
X138671507Y-86185511D01*
X138810888Y-86092379D01*
X138965760Y-86028229D01*
X139130172Y-85995526D01*
X139297804Y-85995526D01*
X139462216Y-86028229D01*
G37*
G36*
X147663550Y-77678563D02*
G01*
X147818422Y-77742713D01*
X147957803Y-77835845D01*
X148076337Y-77954379D01*
X148169469Y-78093760D01*
X148233619Y-78248632D01*
X148266322Y-78413044D01*
X148266322Y-78580676D01*
X148233619Y-78745088D01*
X148169469Y-78899960D01*
X148076337Y-79039341D01*
X147957803Y-79157875D01*
X147818422Y-79251007D01*
X147663550Y-79315157D01*
X147499138Y-79347860D01*
X147331506Y-79347860D01*
X147167094Y-79315157D01*
X147012222Y-79251007D01*
X146872841Y-79157875D01*
X146754307Y-79039341D01*
X146661175Y-78899960D01*
X146597025Y-78745088D01*
X146564322Y-78580676D01*
X146564322Y-78413044D01*
X146597025Y-78248632D01*
X146661175Y-78093760D01*
X146754307Y-77954379D01*
X146872841Y-77835845D01*
X147012222Y-77742713D01*
X147167094Y-77678563D01*
X147331506Y-77645860D01*
X147499138Y-77645860D01*
X147663550Y-77678563D01*
G37*
G36*
X144893550Y-77678563D02*
G01*
X145048422Y-77742713D01*
X145187803Y-77835845D01*
X145306337Y-77954379D01*
X145399469Y-78093760D01*
X145463619Y-78248632D01*
X145496322Y-78413044D01*
X145496322Y-78580676D01*
X145463619Y-78745088D01*
X145399469Y-78899960D01*
X145306337Y-79039341D01*
X145187803Y-79157875D01*
X145048422Y-79251007D01*
X144893550Y-79315157D01*
X144729138Y-79347860D01*
X144561506Y-79347860D01*
X144397094Y-79315157D01*
X144242222Y-79251007D01*
X144102841Y-79157875D01*
X143984307Y-79039341D01*
X143891175Y-78899960D01*
X143827025Y-78745088D01*
X143794322Y-78580676D01*
X143794322Y-78413044D01*
X143827025Y-78248632D01*
X143891175Y-78093760D01*
X143984307Y-77954379D01*
X144102841Y-77835845D01*
X144242222Y-77742713D01*
X144397094Y-77678563D01*
X144561506Y-77645860D01*
X144729138Y-77645860D01*
X144893550Y-77678563D01*
G37*
G36*
X139353550Y-77678563D02*
G01*
X139508422Y-77742713D01*
X139647803Y-77835845D01*
X139766337Y-77954379D01*
X139859469Y-78093760D01*
X139923619Y-78248632D01*
X139956322Y-78413044D01*
X139956322Y-78580676D01*
X139923619Y-78745088D01*
X139859469Y-78899960D01*
X139766337Y-79039341D01*
X139647803Y-79157875D01*
X139508422Y-79251007D01*
X139353550Y-79315157D01*
X139189138Y-79347860D01*
X139021506Y-79347860D01*
X138857094Y-79315157D01*
X138702222Y-79251007D01*
X138562841Y-79157875D01*
X138444307Y-79039341D01*
X138351175Y-78899960D01*
X138287025Y-78745088D01*
X138254322Y-78580676D01*
X138254322Y-78413044D01*
X138287025Y-78248632D01*
X138351175Y-78093760D01*
X138444307Y-77954379D01*
X138562841Y-77835845D01*
X138702222Y-77742713D01*
X138857094Y-77678563D01*
X139021506Y-77645860D01*
X139189138Y-77645860D01*
X139353550Y-77678563D01*
G37*
G36*
X136583550Y-77678563D02*
G01*
X136738422Y-77742713D01*
X136877803Y-77835845D01*
X136996337Y-77954379D01*
X137089469Y-78093760D01*
X137153619Y-78248632D01*
X137186322Y-78413044D01*
X137186322Y-78580676D01*
X137153619Y-78745088D01*
X137089469Y-78899960D01*
X136996337Y-79039341D01*
X136877803Y-79157875D01*
X136738422Y-79251007D01*
X136583550Y-79315157D01*
X136419138Y-79347860D01*
X136251506Y-79347860D01*
X136087094Y-79315157D01*
X135932222Y-79251007D01*
X135792841Y-79157875D01*
X135674307Y-79039341D01*
X135581175Y-78899960D01*
X135517025Y-78745088D01*
X135484322Y-78580676D01*
X135484322Y-78413044D01*
X135517025Y-78248632D01*
X135581175Y-78093760D01*
X135674307Y-77954379D01*
X135792841Y-77835845D01*
X135932222Y-77742713D01*
X136087094Y-77678563D01*
X136251506Y-77645860D01*
X136419138Y-77645860D01*
X136583550Y-77678563D01*
G37*
G36*
X133813550Y-77678563D02*
G01*
X133968422Y-77742713D01*
X134107803Y-77835845D01*
X134226337Y-77954379D01*
X134319469Y-78093760D01*
X134383619Y-78248632D01*
X134416322Y-78413044D01*
X134416322Y-78580676D01*
X134383619Y-78745088D01*
X134319469Y-78899960D01*
X134226337Y-79039341D01*
X134107803Y-79157875D01*
X133968422Y-79251007D01*
X133813550Y-79315157D01*
X133649138Y-79347860D01*
X133481506Y-79347860D01*
X133317094Y-79315157D01*
X133162222Y-79251007D01*
X133022841Y-79157875D01*
X132904307Y-79039341D01*
X132811175Y-78899960D01*
X132747025Y-78745088D01*
X132714322Y-78580676D01*
X132714322Y-78413044D01*
X132747025Y-78248632D01*
X132811175Y-78093760D01*
X132904307Y-77954379D01*
X133022841Y-77835845D01*
X133162222Y-77742713D01*
X133317094Y-77678563D01*
X133481506Y-77645860D01*
X133649138Y-77645860D01*
X133813550Y-77678563D01*
G37*
G36*
X131043550Y-77678563D02*
G01*
X131198422Y-77742713D01*
X131337803Y-77835845D01*
X131456337Y-77954379D01*
X131549469Y-78093760D01*
X131613619Y-78248632D01*
X131646322Y-78413044D01*
X131646322Y-78580676D01*
X131613619Y-78745088D01*
X131549469Y-78899960D01*
X131456337Y-79039341D01*
X131337803Y-79157875D01*
X131198422Y-79251007D01*
X131043550Y-79315157D01*
X130879138Y-79347860D01*
X130711506Y-79347860D01*
X130547094Y-79315157D01*
X130392222Y-79251007D01*
X130252841Y-79157875D01*
X130134307Y-79039341D01*
X130041175Y-78899960D01*
X129977025Y-78745088D01*
X129944322Y-78580676D01*
X129944322Y-78413044D01*
X129977025Y-78248632D01*
X130041175Y-78093760D01*
X130134307Y-77954379D01*
X130252841Y-77835845D01*
X130392222Y-77742713D01*
X130547094Y-77678563D01*
X130711506Y-77645860D01*
X130879138Y-77645860D01*
X131043550Y-77678563D01*
G37*
G36*
X125503550Y-77678563D02*
G01*
X125658422Y-77742713D01*
X125797803Y-77835845D01*
X125916337Y-77954379D01*
X126009469Y-78093760D01*
X126073619Y-78248632D01*
X126106322Y-78413044D01*
X126106322Y-78580676D01*
X126073619Y-78745088D01*
X126009469Y-78899960D01*
X125916337Y-79039341D01*
X125797803Y-79157875D01*
X125658422Y-79251007D01*
X125503550Y-79315157D01*
X125339138Y-79347860D01*
X125171506Y-79347860D01*
X125007094Y-79315157D01*
X124852222Y-79251007D01*
X124712841Y-79157875D01*
X124594307Y-79039341D01*
X124501175Y-78899960D01*
X124437025Y-78745088D01*
X124404322Y-78580676D01*
X124404322Y-78413044D01*
X124437025Y-78248632D01*
X124501175Y-78093760D01*
X124594307Y-77954379D01*
X124712841Y-77835845D01*
X124852222Y-77742713D01*
X125007094Y-77678563D01*
X125171506Y-77645860D01*
X125339138Y-77645860D01*
X125503550Y-77678563D01*
G37*
G36*
X122733550Y-77678563D02*
G01*
X122888422Y-77742713D01*
X123027803Y-77835845D01*
X123146337Y-77954379D01*
X123239469Y-78093760D01*
X123303619Y-78248632D01*
X123336322Y-78413044D01*
X123336322Y-78580676D01*
X123303619Y-78745088D01*
X123239469Y-78899960D01*
X123146337Y-79039341D01*
X123027803Y-79157875D01*
X122888422Y-79251007D01*
X122733550Y-79315157D01*
X122569138Y-79347860D01*
X122401506Y-79347860D01*
X122237094Y-79315157D01*
X122082222Y-79251007D01*
X121942841Y-79157875D01*
X121824307Y-79039341D01*
X121731175Y-78899960D01*
X121667025Y-78745088D01*
X121634322Y-78580676D01*
X121634322Y-78413044D01*
X121667025Y-78248632D01*
X121731175Y-78093760D01*
X121824307Y-77954379D01*
X121942841Y-77835845D01*
X122082222Y-77742713D01*
X122237094Y-77678563D01*
X122401506Y-77645860D01*
X122569138Y-77645860D01*
X122733550Y-77678563D01*
G37*
G36*
X119963550Y-77678563D02*
G01*
X120118422Y-77742713D01*
X120257803Y-77835845D01*
X120376337Y-77954379D01*
X120469469Y-78093760D01*
X120533619Y-78248632D01*
X120566322Y-78413044D01*
X120566322Y-78580676D01*
X120533619Y-78745088D01*
X120469469Y-78899960D01*
X120376337Y-79039341D01*
X120257803Y-79157875D01*
X120118422Y-79251007D01*
X119963550Y-79315157D01*
X119799138Y-79347860D01*
X119631506Y-79347860D01*
X119467094Y-79315157D01*
X119312222Y-79251007D01*
X119172841Y-79157875D01*
X119054307Y-79039341D01*
X118961175Y-78899960D01*
X118897025Y-78745088D01*
X118864322Y-78580676D01*
X118864322Y-78413044D01*
X118897025Y-78248632D01*
X118961175Y-78093760D01*
X119054307Y-77954379D01*
X119172841Y-77835845D01*
X119312222Y-77742713D01*
X119467094Y-77678563D01*
X119631506Y-77645860D01*
X119799138Y-77645860D01*
X119963550Y-77678563D01*
G37*
G36*
X142123550Y-77678563D02*
G01*
X142278422Y-77742713D01*
X142417803Y-77835845D01*
X142536337Y-77954379D01*
X142629469Y-78093760D01*
X142693619Y-78248632D01*
X142726322Y-78413044D01*
X142726322Y-78580676D01*
X142693619Y-78745088D01*
X142629469Y-78899960D01*
X142536337Y-79039341D01*
X142417803Y-79157875D01*
X142278422Y-79251007D01*
X142123550Y-79315157D01*
X141959138Y-79347860D01*
X141791506Y-79347860D01*
X141627094Y-79315157D01*
X141472222Y-79251007D01*
X141332841Y-79157875D01*
X141214307Y-79039341D01*
X141121175Y-78899960D01*
X141057025Y-78745088D01*
X141024322Y-78580676D01*
X141024322Y-78413044D01*
X141057025Y-78248632D01*
X141121175Y-78093760D01*
X141214307Y-77954379D01*
X141332841Y-77835845D01*
X141472222Y-77742713D01*
X141627094Y-77678563D01*
X141791506Y-77645860D01*
X141959138Y-77645860D01*
X142123550Y-77678563D01*
G37*
G36*
X150433550Y-77678563D02*
G01*
X150588422Y-77742713D01*
X150727803Y-77835845D01*
X150846337Y-77954379D01*
X150939469Y-78093760D01*
X151003619Y-78248632D01*
X151036322Y-78413044D01*
X151036322Y-78580676D01*
X151003619Y-78745088D01*
X150939469Y-78899960D01*
X150846337Y-79039341D01*
X150727803Y-79157875D01*
X150588422Y-79251007D01*
X150433550Y-79315157D01*
X150269138Y-79347860D01*
X150101506Y-79347860D01*
X149937094Y-79315157D01*
X149782222Y-79251007D01*
X149642841Y-79157875D01*
X149524307Y-79039341D01*
X149431175Y-78899960D01*
X149367025Y-78745088D01*
X149334322Y-78580676D01*
X149334322Y-78413044D01*
X149367025Y-78248632D01*
X149431175Y-78093760D01*
X149524307Y-77954379D01*
X149642841Y-77835845D01*
X149782222Y-77742713D01*
X149937094Y-77678563D01*
X150101506Y-77645860D01*
X150269138Y-77645860D01*
X150433550Y-77678563D01*
G37*
G36*
X117796322Y-79347860D02*
G01*
X116094322Y-79347860D01*
X116094322Y-77645860D01*
X117796322Y-77645860D01*
X117796322Y-79347860D01*
G37*
G36*
X128273550Y-77678563D02*
G01*
X128428422Y-77742713D01*
X128567803Y-77835845D01*
X128686337Y-77954379D01*
X128779469Y-78093760D01*
X128843619Y-78248632D01*
X128876322Y-78413044D01*
X128876322Y-78580676D01*
X128843619Y-78745088D01*
X128779469Y-78899960D01*
X128686337Y-79039341D01*
X128567803Y-79157875D01*
X128428422Y-79251007D01*
X128273550Y-79315157D01*
X128109138Y-79347860D01*
X127941506Y-79347860D01*
X127777094Y-79315157D01*
X127622222Y-79251007D01*
X127482841Y-79157875D01*
X127364307Y-79039341D01*
X127271175Y-78899960D01*
X127207025Y-78745088D01*
X127174322Y-78580676D01*
X127174322Y-78413044D01*
X127207025Y-78248632D01*
X127271175Y-78093760D01*
X127364307Y-77954379D01*
X127482841Y-77835845D01*
X127622222Y-77742713D01*
X127777094Y-77678563D01*
X127941506Y-77645860D01*
X128109138Y-77645860D01*
X128273550Y-77678563D01*
G37*
G36*
X110613576Y-75104678D02*
G01*
X110973492Y-75253760D01*
X110986835Y-75259287D01*
X111322758Y-75483744D01*
X111608438Y-75769424D01*
X111699087Y-75905089D01*
X111832896Y-76105349D01*
X111987504Y-76478606D01*
X112066322Y-76874853D01*
X112066322Y-77278867D01*
X111987504Y-77675114D01*
X111871828Y-77954380D01*
X111832895Y-78048373D01*
X111608438Y-78384296D01*
X111322758Y-78669976D01*
X110986835Y-78894433D01*
X110986834Y-78894434D01*
X110986833Y-78894434D01*
X110613576Y-79049042D01*
X110217329Y-79127860D01*
X109813315Y-79127860D01*
X109417068Y-79049042D01*
X109043811Y-78894434D01*
X109043810Y-78894434D01*
X109043809Y-78894433D01*
X108707886Y-78669976D01*
X108422206Y-78384296D01*
X108197749Y-78048373D01*
X108158816Y-77954380D01*
X108043140Y-77675114D01*
X107964322Y-77278867D01*
X107964322Y-76874853D01*
X108043140Y-76478606D01*
X108197748Y-76105349D01*
X108331558Y-75905089D01*
X108422206Y-75769424D01*
X108707886Y-75483744D01*
X109043809Y-75259287D01*
X109057152Y-75253760D01*
X109417068Y-75104678D01*
X109813315Y-75025860D01*
X110217329Y-75025860D01*
X110613576Y-75104678D01*
G37*
G36*
X157713576Y-75104678D02*
G01*
X158073492Y-75253760D01*
X158086835Y-75259287D01*
X158422758Y-75483744D01*
X158708438Y-75769424D01*
X158799087Y-75905089D01*
X158932896Y-76105349D01*
X159087504Y-76478606D01*
X159166322Y-76874853D01*
X159166322Y-77278867D01*
X159087504Y-77675114D01*
X158971828Y-77954380D01*
X158932895Y-78048373D01*
X158708438Y-78384296D01*
X158422758Y-78669976D01*
X158086835Y-78894433D01*
X158086834Y-78894434D01*
X158086833Y-78894434D01*
X157713576Y-79049042D01*
X157317329Y-79127860D01*
X156913315Y-79127860D01*
X156517068Y-79049042D01*
X156143811Y-78894434D01*
X156143810Y-78894434D01*
X156143809Y-78894433D01*
X155807886Y-78669976D01*
X155522206Y-78384296D01*
X155297749Y-78048373D01*
X155258816Y-77954380D01*
X155143140Y-77675114D01*
X155064322Y-77278867D01*
X155064322Y-76874853D01*
X155143140Y-76478606D01*
X155297748Y-76105349D01*
X155431558Y-75905089D01*
X155522206Y-75769424D01*
X155807886Y-75483744D01*
X156143809Y-75259287D01*
X156157152Y-75253760D01*
X156517068Y-75104678D01*
X156913315Y-75025860D01*
X157317329Y-75025860D01*
X157713576Y-75104678D01*
G37*
G36*
X124118550Y-74838563D02*
G01*
X124273422Y-74902713D01*
X124412803Y-74995845D01*
X124531337Y-75114379D01*
X124624469Y-75253760D01*
X124688619Y-75408632D01*
X124721322Y-75573044D01*
X124721322Y-75740676D01*
X124688619Y-75905088D01*
X124624469Y-76059960D01*
X124531337Y-76199341D01*
X124412803Y-76317875D01*
X124273422Y-76411007D01*
X124118550Y-76475157D01*
X123954138Y-76507860D01*
X123786506Y-76507860D01*
X123622094Y-76475157D01*
X123467222Y-76411007D01*
X123327841Y-76317875D01*
X123209307Y-76199341D01*
X123116175Y-76059960D01*
X123052025Y-75905088D01*
X123019322Y-75740676D01*
X123019322Y-75573044D01*
X123052025Y-75408632D01*
X123116175Y-75253760D01*
X123209307Y-75114379D01*
X123327841Y-74995845D01*
X123467222Y-74902713D01*
X123622094Y-74838563D01*
X123786506Y-74805860D01*
X123954138Y-74805860D01*
X124118550Y-74838563D01*
G37*
G36*
X126888550Y-74838563D02*
G01*
X127043422Y-74902713D01*
X127182803Y-74995845D01*
X127301337Y-75114379D01*
X127394469Y-75253760D01*
X127458619Y-75408632D01*
X127491322Y-75573044D01*
X127491322Y-75740676D01*
X127458619Y-75905088D01*
X127394469Y-76059960D01*
X127301337Y-76199341D01*
X127182803Y-76317875D01*
X127043422Y-76411007D01*
X126888550Y-76475157D01*
X126724138Y-76507860D01*
X126556506Y-76507860D01*
X126392094Y-76475157D01*
X126237222Y-76411007D01*
X126097841Y-76317875D01*
X125979307Y-76199341D01*
X125886175Y-76059960D01*
X125822025Y-75905088D01*
X125789322Y-75740676D01*
X125789322Y-75573044D01*
X125822025Y-75408632D01*
X125886175Y-75253760D01*
X125979307Y-75114379D01*
X126097841Y-74995845D01*
X126237222Y-74902713D01*
X126392094Y-74838563D01*
X126556506Y-74805860D01*
X126724138Y-74805860D01*
X126888550Y-74838563D01*
G37*
G36*
X129658550Y-74838563D02*
G01*
X129813422Y-74902713D01*
X129952803Y-74995845D01*
X130071337Y-75114379D01*
X130164469Y-75253760D01*
X130228619Y-75408632D01*
X130261322Y-75573044D01*
X130261322Y-75740676D01*
X130228619Y-75905088D01*
X130164469Y-76059960D01*
X130071337Y-76199341D01*
X129952803Y-76317875D01*
X129813422Y-76411007D01*
X129658550Y-76475157D01*
X129494138Y-76507860D01*
X129326506Y-76507860D01*
X129162094Y-76475157D01*
X129007222Y-76411007D01*
X128867841Y-76317875D01*
X128749307Y-76199341D01*
X128656175Y-76059960D01*
X128592025Y-75905088D01*
X128559322Y-75740676D01*
X128559322Y-75573044D01*
X128592025Y-75408632D01*
X128656175Y-75253760D01*
X128749307Y-75114379D01*
X128867841Y-74995845D01*
X129007222Y-74902713D01*
X129162094Y-74838563D01*
X129326506Y-74805860D01*
X129494138Y-74805860D01*
X129658550Y-74838563D01*
G37*
G36*
X132428550Y-74838563D02*
G01*
X132583422Y-74902713D01*
X132722803Y-74995845D01*
X132841337Y-75114379D01*
X132934469Y-75253760D01*
X132998619Y-75408632D01*
X133031322Y-75573044D01*
X133031322Y-75740676D01*
X132998619Y-75905088D01*
X132934469Y-76059960D01*
X132841337Y-76199341D01*
X132722803Y-76317875D01*
X132583422Y-76411007D01*
X132428550Y-76475157D01*
X132264138Y-76507860D01*
X132096506Y-76507860D01*
X131932094Y-76475157D01*
X131777222Y-76411007D01*
X131637841Y-76317875D01*
X131519307Y-76199341D01*
X131426175Y-76059960D01*
X131362025Y-75905088D01*
X131329322Y-75740676D01*
X131329322Y-75573044D01*
X131362025Y-75408632D01*
X131426175Y-75253760D01*
X131519307Y-75114379D01*
X131637841Y-74995845D01*
X131777222Y-74902713D01*
X131932094Y-74838563D01*
X132096506Y-74805860D01*
X132264138Y-74805860D01*
X132428550Y-74838563D01*
G37*
G36*
X135198550Y-74838563D02*
G01*
X135353422Y-74902713D01*
X135492803Y-74995845D01*
X135611337Y-75114379D01*
X135704469Y-75253760D01*
X135768619Y-75408632D01*
X135801322Y-75573044D01*
X135801322Y-75740676D01*
X135768619Y-75905088D01*
X135704469Y-76059960D01*
X135611337Y-76199341D01*
X135492803Y-76317875D01*
X135353422Y-76411007D01*
X135198550Y-76475157D01*
X135034138Y-76507860D01*
X134866506Y-76507860D01*
X134702094Y-76475157D01*
X134547222Y-76411007D01*
X134407841Y-76317875D01*
X134289307Y-76199341D01*
X134196175Y-76059960D01*
X134132025Y-75905088D01*
X134099322Y-75740676D01*
X134099322Y-75573044D01*
X134132025Y-75408632D01*
X134196175Y-75253760D01*
X134289307Y-75114379D01*
X134407841Y-74995845D01*
X134547222Y-74902713D01*
X134702094Y-74838563D01*
X134866506Y-74805860D01*
X135034138Y-74805860D01*
X135198550Y-74838563D01*
G37*
G36*
X137968550Y-74838563D02*
G01*
X138123422Y-74902713D01*
X138262803Y-74995845D01*
X138381337Y-75114379D01*
X138474469Y-75253760D01*
X138538619Y-75408632D01*
X138571322Y-75573044D01*
X138571322Y-75740676D01*
X138538619Y-75905088D01*
X138474469Y-76059960D01*
X138381337Y-76199341D01*
X138262803Y-76317875D01*
X138123422Y-76411007D01*
X137968550Y-76475157D01*
X137804138Y-76507860D01*
X137636506Y-76507860D01*
X137472094Y-76475157D01*
X137317222Y-76411007D01*
X137177841Y-76317875D01*
X137059307Y-76199341D01*
X136966175Y-76059960D01*
X136902025Y-75905088D01*
X136869322Y-75740676D01*
X136869322Y-75573044D01*
X136902025Y-75408632D01*
X136966175Y-75253760D01*
X137059307Y-75114379D01*
X137177841Y-74995845D01*
X137317222Y-74902713D01*
X137472094Y-74838563D01*
X137636506Y-74805860D01*
X137804138Y-74805860D01*
X137968550Y-74838563D01*
G37*
G36*
X140738550Y-74838563D02*
G01*
X140893422Y-74902713D01*
X141032803Y-74995845D01*
X141151337Y-75114379D01*
X141244469Y-75253760D01*
X141308619Y-75408632D01*
X141341322Y-75573044D01*
X141341322Y-75740676D01*
X141308619Y-75905088D01*
X141244469Y-76059960D01*
X141151337Y-76199341D01*
X141032803Y-76317875D01*
X140893422Y-76411007D01*
X140738550Y-76475157D01*
X140574138Y-76507860D01*
X140406506Y-76507860D01*
X140242094Y-76475157D01*
X140087222Y-76411007D01*
X139947841Y-76317875D01*
X139829307Y-76199341D01*
X139736175Y-76059960D01*
X139672025Y-75905088D01*
X139639322Y-75740676D01*
X139639322Y-75573044D01*
X139672025Y-75408632D01*
X139736175Y-75253760D01*
X139829307Y-75114379D01*
X139947841Y-74995845D01*
X140087222Y-74902713D01*
X140242094Y-74838563D01*
X140406506Y-74805860D01*
X140574138Y-74805860D01*
X140738550Y-74838563D01*
G37*
G36*
X143508550Y-74838563D02*
G01*
X143663422Y-74902713D01*
X143802803Y-74995845D01*
X143921337Y-75114379D01*
X144014469Y-75253760D01*
X144078619Y-75408632D01*
X144111322Y-75573044D01*
X144111322Y-75740676D01*
X144078619Y-75905088D01*
X144014469Y-76059960D01*
X143921337Y-76199341D01*
X143802803Y-76317875D01*
X143663422Y-76411007D01*
X143508550Y-76475157D01*
X143344138Y-76507860D01*
X143176506Y-76507860D01*
X143012094Y-76475157D01*
X142857222Y-76411007D01*
X142717841Y-76317875D01*
X142599307Y-76199341D01*
X142506175Y-76059960D01*
X142442025Y-75905088D01*
X142409322Y-75740676D01*
X142409322Y-75573044D01*
X142442025Y-75408632D01*
X142506175Y-75253760D01*
X142599307Y-75114379D01*
X142717841Y-74995845D01*
X142857222Y-74902713D01*
X143012094Y-74838563D01*
X143176506Y-74805860D01*
X143344138Y-74805860D01*
X143508550Y-74838563D01*
G37*
G36*
X146278550Y-74838563D02*
G01*
X146433422Y-74902713D01*
X146572803Y-74995845D01*
X146691337Y-75114379D01*
X146784469Y-75253760D01*
X146848619Y-75408632D01*
X146881322Y-75573044D01*
X146881322Y-75740676D01*
X146848619Y-75905088D01*
X146784469Y-76059960D01*
X146691337Y-76199341D01*
X146572803Y-76317875D01*
X146433422Y-76411007D01*
X146278550Y-76475157D01*
X146114138Y-76507860D01*
X145946506Y-76507860D01*
X145782094Y-76475157D01*
X145627222Y-76411007D01*
X145487841Y-76317875D01*
X145369307Y-76199341D01*
X145276175Y-76059960D01*
X145212025Y-75905088D01*
X145179322Y-75740676D01*
X145179322Y-75573044D01*
X145212025Y-75408632D01*
X145276175Y-75253760D01*
X145369307Y-75114379D01*
X145487841Y-74995845D01*
X145627222Y-74902713D01*
X145782094Y-74838563D01*
X145946506Y-74805860D01*
X146114138Y-74805860D01*
X146278550Y-74838563D01*
G37*
G36*
X149048550Y-74838563D02*
G01*
X149203422Y-74902713D01*
X149342803Y-74995845D01*
X149461337Y-75114379D01*
X149554469Y-75253760D01*
X149618619Y-75408632D01*
X149651322Y-75573044D01*
X149651322Y-75740676D01*
X149618619Y-75905088D01*
X149554469Y-76059960D01*
X149461337Y-76199341D01*
X149342803Y-76317875D01*
X149203422Y-76411007D01*
X149048550Y-76475157D01*
X148884138Y-76507860D01*
X148716506Y-76507860D01*
X148552094Y-76475157D01*
X148397222Y-76411007D01*
X148257841Y-76317875D01*
X148139307Y-76199341D01*
X148046175Y-76059960D01*
X147982025Y-75905088D01*
X147949322Y-75740676D01*
X147949322Y-75573044D01*
X147982025Y-75408632D01*
X148046175Y-75253760D01*
X148139307Y-75114379D01*
X148257841Y-74995845D01*
X148397222Y-74902713D01*
X148552094Y-74838563D01*
X148716506Y-74805860D01*
X148884138Y-74805860D01*
X149048550Y-74838563D01*
G37*
G36*
X118578550Y-74838563D02*
G01*
X118733422Y-74902713D01*
X118872803Y-74995845D01*
X118991337Y-75114379D01*
X119084469Y-75253760D01*
X119148619Y-75408632D01*
X119181322Y-75573044D01*
X119181322Y-75740676D01*
X119148619Y-75905088D01*
X119084469Y-76059960D01*
X118991337Y-76199341D01*
X118872803Y-76317875D01*
X118733422Y-76411007D01*
X118578550Y-76475157D01*
X118414138Y-76507860D01*
X118246506Y-76507860D01*
X118082094Y-76475157D01*
X117927222Y-76411007D01*
X117787841Y-76317875D01*
X117669307Y-76199341D01*
X117576175Y-76059960D01*
X117512025Y-75905088D01*
X117479322Y-75740676D01*
X117479322Y-75573044D01*
X117512025Y-75408632D01*
X117576175Y-75253760D01*
X117669307Y-75114379D01*
X117787841Y-74995845D01*
X117927222Y-74902713D01*
X118082094Y-74838563D01*
X118246506Y-74805860D01*
X118414138Y-74805860D01*
X118578550Y-74838563D01*
G37*
G36*
X121348550Y-74838563D02*
G01*
X121503422Y-74902713D01*
X121642803Y-74995845D01*
X121761337Y-75114379D01*
X121854469Y-75253760D01*
X121918619Y-75408632D01*
X121951322Y-75573044D01*
X121951322Y-75740676D01*
X121918619Y-75905088D01*
X121854469Y-76059960D01*
X121761337Y-76199341D01*
X121642803Y-76317875D01*
X121503422Y-76411007D01*
X121348550Y-76475157D01*
X121184138Y-76507860D01*
X121016506Y-76507860D01*
X120852094Y-76475157D01*
X120697222Y-76411007D01*
X120557841Y-76317875D01*
X120439307Y-76199341D01*
X120346175Y-76059960D01*
X120282025Y-75905088D01*
X120249322Y-75740676D01*
X120249322Y-75573044D01*
X120282025Y-75408632D01*
X120346175Y-75253760D01*
X120439307Y-75114379D01*
X120557841Y-74995845D01*
X120697222Y-74902713D01*
X120852094Y-74838563D01*
X121016506Y-74805860D01*
X121184138Y-74805860D01*
X121348550Y-74838563D01*
G37*
M02*
