G04 #@! TF.GenerationSoftware,KiCad,Pcbnew,5.1.5-52549c5~84~ubuntu18.04.1*
G04 #@! TF.CreationDate,2020-02-12T19:06:33-05:00*
G04 #@! TF.ProjectId,a3la_db25_to_db9,61336c61-5f64-4623-9235-5f746f5f6462,1*
G04 #@! TF.SameCoordinates,Original*
G04 #@! TF.FileFunction,Copper,L2,Bot*
G04 #@! TF.FilePolarity,Positive*
%FSLAX46Y46*%
G04 Gerber Fmt 4.6, Leading zero omitted, Abs format (unit mm)*
G04 Created by KiCad (PCBNEW 5.1.5-52549c5~84~ubuntu18.04.1) date 2020-02-12 19:06:33*
%MOMM*%
%LPD*%
G04 APERTURE LIST*
%ADD10R,2.600000X2.600000*%
%ADD11C,2.600000*%
%ADD12R,1.600000X1.600000*%
%ADD13C,1.600000*%
%ADD14C,4.000000*%
%ADD15C,0.250000*%
%ADD16C,0.254000*%
G04 APERTURE END LIST*
D10*
X122428000Y-87630000D03*
D11*
X122428000Y-92630000D03*
D12*
X150293988Y-86846526D03*
D13*
X147523988Y-86846526D03*
X144753988Y-86846526D03*
X141983988Y-86846526D03*
X139213988Y-86846526D03*
X148908988Y-89686526D03*
X146138988Y-89686526D03*
X143368988Y-89686526D03*
X140598988Y-89686526D03*
D14*
X132253988Y-88266526D03*
X157253988Y-88266526D03*
D12*
X116945322Y-78496860D03*
D13*
X119715322Y-78496860D03*
X122485322Y-78496860D03*
X125255322Y-78496860D03*
X128025322Y-78496860D03*
X130795322Y-78496860D03*
X133565322Y-78496860D03*
X136335322Y-78496860D03*
X139105322Y-78496860D03*
X141875322Y-78496860D03*
X144645322Y-78496860D03*
X147415322Y-78496860D03*
X150185322Y-78496860D03*
X118330322Y-75656860D03*
X121100322Y-75656860D03*
X123870322Y-75656860D03*
X126640322Y-75656860D03*
X129410322Y-75656860D03*
X132180322Y-75656860D03*
X134950322Y-75656860D03*
X137720322Y-75656860D03*
X140490322Y-75656860D03*
X143260322Y-75656860D03*
X146030322Y-75656860D03*
X148800322Y-75656860D03*
D14*
X157115322Y-77076860D03*
X110015322Y-77076860D03*
D15*
X150185322Y-84185192D02*
X147523988Y-86846526D01*
X150185322Y-78496860D02*
X150185322Y-84185192D01*
X144753988Y-84145526D02*
X139105322Y-78496860D01*
X144753988Y-86846526D02*
X144753988Y-84145526D01*
X133311692Y-75656860D02*
X132180322Y-75656860D01*
X134690323Y-77035491D02*
X133311692Y-75656860D01*
X141983988Y-86846526D02*
X134690323Y-79552861D01*
X134690323Y-79552861D02*
X134690323Y-77035491D01*
X138845323Y-76781861D02*
X138520321Y-76456859D01*
X141825325Y-76781861D02*
X138845323Y-76781861D01*
X143000323Y-77956859D02*
X141825325Y-76781861D01*
X145878989Y-83085527D02*
X143000323Y-80206861D01*
X138520321Y-76456859D02*
X137720322Y-75656860D01*
X143000323Y-80206861D02*
X143000323Y-77956859D01*
X145878989Y-87787897D02*
X145878989Y-83085527D01*
X147777618Y-89686526D02*
X145878989Y-87787897D01*
X148908988Y-89686526D02*
X147777618Y-89686526D01*
X143108989Y-85270527D02*
X137135321Y-79296859D01*
X137135321Y-79296859D02*
X136335322Y-78496860D01*
X143108989Y-86866529D02*
X143108989Y-85270527D01*
X145128987Y-88886527D02*
X143108989Y-86866529D01*
X145338989Y-88886527D02*
X145128987Y-88886527D01*
X146138988Y-89686526D02*
X145338989Y-88886527D01*
D16*
G36*
X159614000Y-76238569D02*
G01*
X159552601Y-76042334D01*
X159329580Y-75625088D01*
X158962821Y-75408966D01*
X157294927Y-77076860D01*
X158962821Y-78744754D01*
X159329580Y-78528632D01*
X159570260Y-78068755D01*
X159614000Y-77919904D01*
X159614001Y-87087444D01*
X159468246Y-86814754D01*
X159101487Y-86598632D01*
X157433593Y-88266526D01*
X159101487Y-89934420D01*
X159468246Y-89718298D01*
X159614001Y-89439799D01*
X159614001Y-96622000D01*
X107086000Y-96622000D01*
X107086000Y-92439419D01*
X120493000Y-92439419D01*
X120493000Y-92820581D01*
X120567361Y-93194419D01*
X120713225Y-93546566D01*
X120924987Y-93863491D01*
X121194509Y-94133013D01*
X121511434Y-94344775D01*
X121863581Y-94490639D01*
X122237419Y-94565000D01*
X122618581Y-94565000D01*
X122992419Y-94490639D01*
X123344566Y-94344775D01*
X123661491Y-94133013D01*
X123931013Y-93863491D01*
X124142775Y-93546566D01*
X124288639Y-93194419D01*
X124363000Y-92820581D01*
X124363000Y-92439419D01*
X124288639Y-92065581D01*
X124142775Y-91713434D01*
X123931013Y-91396509D01*
X123661491Y-91126987D01*
X123344566Y-90915225D01*
X122992419Y-90769361D01*
X122618581Y-90695000D01*
X122237419Y-90695000D01*
X121863581Y-90769361D01*
X121511434Y-90915225D01*
X121194509Y-91126987D01*
X120924987Y-91396509D01*
X120713225Y-91713434D01*
X120567361Y-92065581D01*
X120493000Y-92439419D01*
X107086000Y-92439419D01*
X107086000Y-90114025D01*
X130586094Y-90114025D01*
X130802216Y-90480784D01*
X131262093Y-90721464D01*
X131760086Y-90867801D01*
X132277059Y-90914174D01*
X132793147Y-90858799D01*
X133288514Y-90703805D01*
X133705760Y-90480784D01*
X133921882Y-90114025D01*
X132253988Y-88446131D01*
X130586094Y-90114025D01*
X107086000Y-90114025D01*
X107086000Y-88930000D01*
X120489928Y-88930000D01*
X120502188Y-89054482D01*
X120538498Y-89174180D01*
X120597463Y-89284494D01*
X120676815Y-89381185D01*
X120773506Y-89460537D01*
X120883820Y-89519502D01*
X121003518Y-89555812D01*
X121128000Y-89568072D01*
X122142250Y-89565000D01*
X122301000Y-89406250D01*
X122301000Y-87757000D01*
X122555000Y-87757000D01*
X122555000Y-89406250D01*
X122713750Y-89565000D01*
X123728000Y-89568072D01*
X123852482Y-89555812D01*
X123972180Y-89519502D01*
X124082494Y-89460537D01*
X124179185Y-89381185D01*
X124258537Y-89284494D01*
X124317502Y-89174180D01*
X124353812Y-89054482D01*
X124366072Y-88930000D01*
X124364133Y-88289597D01*
X129606340Y-88289597D01*
X129661715Y-88805685D01*
X129816709Y-89301052D01*
X130039730Y-89718298D01*
X130406489Y-89934420D01*
X132074383Y-88266526D01*
X132433593Y-88266526D01*
X134101487Y-89934420D01*
X134468246Y-89718298D01*
X134708926Y-89258421D01*
X134855263Y-88760428D01*
X134901636Y-88243455D01*
X134858264Y-87839228D01*
X138400891Y-87839228D01*
X138472474Y-88083197D01*
X138727984Y-88204097D01*
X139002172Y-88272826D01*
X139284500Y-88286743D01*
X139564118Y-88245313D01*
X139830280Y-88150129D01*
X139955502Y-88083197D01*
X140027085Y-87839228D01*
X139213988Y-87026131D01*
X138400891Y-87839228D01*
X134858264Y-87839228D01*
X134846261Y-87727367D01*
X134691267Y-87232000D01*
X134522918Y-86917038D01*
X137773771Y-86917038D01*
X137815201Y-87196656D01*
X137910385Y-87462818D01*
X137977317Y-87588040D01*
X138221286Y-87659623D01*
X139034383Y-86846526D01*
X138221286Y-86033429D01*
X137977317Y-86105012D01*
X137856417Y-86360522D01*
X137787688Y-86634710D01*
X137773771Y-86917038D01*
X134522918Y-86917038D01*
X134468246Y-86814754D01*
X134101487Y-86598632D01*
X132433593Y-88266526D01*
X132074383Y-88266526D01*
X130406489Y-86598632D01*
X130039730Y-86814754D01*
X129799050Y-87274631D01*
X129652713Y-87772624D01*
X129606340Y-88289597D01*
X124364133Y-88289597D01*
X124363000Y-87915750D01*
X124204250Y-87757000D01*
X122555000Y-87757000D01*
X122301000Y-87757000D01*
X120651750Y-87757000D01*
X120493000Y-87915750D01*
X120489928Y-88930000D01*
X107086000Y-88930000D01*
X107086000Y-86330000D01*
X120489928Y-86330000D01*
X120493000Y-87344250D01*
X120651750Y-87503000D01*
X122301000Y-87503000D01*
X122301000Y-85853750D01*
X122555000Y-85853750D01*
X122555000Y-87503000D01*
X124204250Y-87503000D01*
X124363000Y-87344250D01*
X124365802Y-86419027D01*
X130586094Y-86419027D01*
X132253988Y-88086921D01*
X133921882Y-86419027D01*
X133705760Y-86052268D01*
X133245883Y-85811588D01*
X132747890Y-85665251D01*
X132230917Y-85618878D01*
X131714829Y-85674253D01*
X131219462Y-85829247D01*
X130802216Y-86052268D01*
X130586094Y-86419027D01*
X124365802Y-86419027D01*
X124366072Y-86330000D01*
X124353812Y-86205518D01*
X124317502Y-86085820D01*
X124258537Y-85975506D01*
X124179185Y-85878815D01*
X124082494Y-85799463D01*
X123972180Y-85740498D01*
X123852482Y-85704188D01*
X123728000Y-85691928D01*
X122713750Y-85695000D01*
X122555000Y-85853750D01*
X122301000Y-85853750D01*
X122142250Y-85695000D01*
X121128000Y-85691928D01*
X121003518Y-85704188D01*
X120883820Y-85740498D01*
X120773506Y-85799463D01*
X120676815Y-85878815D01*
X120597463Y-85975506D01*
X120538498Y-86085820D01*
X120502188Y-86205518D01*
X120489928Y-86330000D01*
X107086000Y-86330000D01*
X107086000Y-78924359D01*
X108347428Y-78924359D01*
X108563550Y-79291118D01*
X109023427Y-79531798D01*
X109521420Y-79678135D01*
X110038393Y-79724508D01*
X110554481Y-79669133D01*
X111049848Y-79514139D01*
X111467094Y-79291118D01*
X111683216Y-78924359D01*
X110015322Y-77256465D01*
X108347428Y-78924359D01*
X107086000Y-78924359D01*
X107086000Y-77099931D01*
X107367674Y-77099931D01*
X107423049Y-77616019D01*
X107578043Y-78111386D01*
X107801064Y-78528632D01*
X108167823Y-78744754D01*
X109835717Y-77076860D01*
X110194927Y-77076860D01*
X111862821Y-78744754D01*
X112229580Y-78528632D01*
X112470260Y-78068755D01*
X112579542Y-77696860D01*
X115507250Y-77696860D01*
X115507250Y-79296860D01*
X115519510Y-79421342D01*
X115555820Y-79541040D01*
X115614785Y-79651354D01*
X115694137Y-79748045D01*
X115790828Y-79827397D01*
X115901142Y-79886362D01*
X116020840Y-79922672D01*
X116145322Y-79934932D01*
X117745322Y-79934932D01*
X117869804Y-79922672D01*
X117989502Y-79886362D01*
X118099816Y-79827397D01*
X118196507Y-79748045D01*
X118275859Y-79651354D01*
X118334824Y-79541040D01*
X118371134Y-79421342D01*
X118383394Y-79296860D01*
X118383394Y-79031135D01*
X118443642Y-79176587D01*
X118600685Y-79411619D01*
X118800563Y-79611497D01*
X119035595Y-79768540D01*
X119296748Y-79876713D01*
X119573987Y-79931860D01*
X119856657Y-79931860D01*
X120133896Y-79876713D01*
X120395049Y-79768540D01*
X120630081Y-79611497D01*
X120829959Y-79411619D01*
X120987002Y-79176587D01*
X121095175Y-78915434D01*
X121100322Y-78889559D01*
X121105469Y-78915434D01*
X121213642Y-79176587D01*
X121370685Y-79411619D01*
X121570563Y-79611497D01*
X121805595Y-79768540D01*
X122066748Y-79876713D01*
X122343987Y-79931860D01*
X122626657Y-79931860D01*
X122903896Y-79876713D01*
X123165049Y-79768540D01*
X123400081Y-79611497D01*
X123599959Y-79411619D01*
X123757002Y-79176587D01*
X123865175Y-78915434D01*
X123870322Y-78889559D01*
X123875469Y-78915434D01*
X123983642Y-79176587D01*
X124140685Y-79411619D01*
X124340563Y-79611497D01*
X124575595Y-79768540D01*
X124836748Y-79876713D01*
X125113987Y-79931860D01*
X125396657Y-79931860D01*
X125673896Y-79876713D01*
X125935049Y-79768540D01*
X126170081Y-79611497D01*
X126369959Y-79411619D01*
X126527002Y-79176587D01*
X126635175Y-78915434D01*
X126640322Y-78889559D01*
X126645469Y-78915434D01*
X126753642Y-79176587D01*
X126910685Y-79411619D01*
X127110563Y-79611497D01*
X127345595Y-79768540D01*
X127606748Y-79876713D01*
X127883987Y-79931860D01*
X128166657Y-79931860D01*
X128443896Y-79876713D01*
X128705049Y-79768540D01*
X128940081Y-79611497D01*
X129139959Y-79411619D01*
X129297002Y-79176587D01*
X129405175Y-78915434D01*
X129410322Y-78889559D01*
X129415469Y-78915434D01*
X129523642Y-79176587D01*
X129680685Y-79411619D01*
X129880563Y-79611497D01*
X130115595Y-79768540D01*
X130376748Y-79876713D01*
X130653987Y-79931860D01*
X130936657Y-79931860D01*
X131213896Y-79876713D01*
X131475049Y-79768540D01*
X131710081Y-79611497D01*
X131909959Y-79411619D01*
X132067002Y-79176587D01*
X132175175Y-78915434D01*
X132180322Y-78889559D01*
X132185469Y-78915434D01*
X132293642Y-79176587D01*
X132450685Y-79411619D01*
X132650563Y-79611497D01*
X132885595Y-79768540D01*
X133146748Y-79876713D01*
X133423987Y-79931860D01*
X133706657Y-79931860D01*
X133983896Y-79876713D01*
X133998449Y-79870685D01*
X134055349Y-79977137D01*
X134095194Y-80025687D01*
X134150322Y-80092862D01*
X134179326Y-80116665D01*
X139501981Y-85439321D01*
X139425804Y-85420226D01*
X139143476Y-85406309D01*
X138863858Y-85447739D01*
X138597696Y-85542923D01*
X138472474Y-85609855D01*
X138400891Y-85853824D01*
X139213988Y-86666921D01*
X139228131Y-86652779D01*
X139407736Y-86832384D01*
X139393593Y-86846526D01*
X140206690Y-87659623D01*
X140450659Y-87588040D01*
X140571559Y-87332530D01*
X140597200Y-87230237D01*
X140604135Y-87265100D01*
X140712308Y-87526253D01*
X140869351Y-87761285D01*
X141069229Y-87961163D01*
X141304261Y-88118206D01*
X141565414Y-88226379D01*
X141842653Y-88281526D01*
X142125323Y-88281526D01*
X142402562Y-88226379D01*
X142663715Y-88118206D01*
X142898747Y-87961163D01*
X143013784Y-87846126D01*
X143419185Y-88251526D01*
X143227653Y-88251526D01*
X142950414Y-88306673D01*
X142689261Y-88414846D01*
X142454229Y-88571889D01*
X142254351Y-88771767D01*
X142097308Y-89006799D01*
X141989135Y-89267952D01*
X141983988Y-89293827D01*
X141978841Y-89267952D01*
X141870668Y-89006799D01*
X141713625Y-88771767D01*
X141513747Y-88571889D01*
X141278715Y-88414846D01*
X141017562Y-88306673D01*
X140740323Y-88251526D01*
X140457653Y-88251526D01*
X140180414Y-88306673D01*
X139919261Y-88414846D01*
X139684229Y-88571889D01*
X139484351Y-88771767D01*
X139327308Y-89006799D01*
X139219135Y-89267952D01*
X139163988Y-89545191D01*
X139163988Y-89827861D01*
X139219135Y-90105100D01*
X139327308Y-90366253D01*
X139484351Y-90601285D01*
X139684229Y-90801163D01*
X139919261Y-90958206D01*
X140180414Y-91066379D01*
X140457653Y-91121526D01*
X140740323Y-91121526D01*
X141017562Y-91066379D01*
X141278715Y-90958206D01*
X141513747Y-90801163D01*
X141713625Y-90601285D01*
X141870668Y-90366253D01*
X141978841Y-90105100D01*
X141983988Y-90079225D01*
X141989135Y-90105100D01*
X142097308Y-90366253D01*
X142254351Y-90601285D01*
X142454229Y-90801163D01*
X142689261Y-90958206D01*
X142950414Y-91066379D01*
X143227653Y-91121526D01*
X143510323Y-91121526D01*
X143787562Y-91066379D01*
X144048715Y-90958206D01*
X144283747Y-90801163D01*
X144483625Y-90601285D01*
X144640668Y-90366253D01*
X144748841Y-90105100D01*
X144753988Y-90079225D01*
X144759135Y-90105100D01*
X144867308Y-90366253D01*
X145024351Y-90601285D01*
X145224229Y-90801163D01*
X145459261Y-90958206D01*
X145720414Y-91066379D01*
X145997653Y-91121526D01*
X146280323Y-91121526D01*
X146557562Y-91066379D01*
X146818715Y-90958206D01*
X147053747Y-90801163D01*
X147253625Y-90601285D01*
X147410668Y-90366253D01*
X147415453Y-90354700D01*
X147485369Y-90392071D01*
X147485371Y-90392072D01*
X147628632Y-90435529D01*
X147687469Y-90441324D01*
X147794351Y-90601285D01*
X147994229Y-90801163D01*
X148229261Y-90958206D01*
X148490414Y-91066379D01*
X148767653Y-91121526D01*
X149050323Y-91121526D01*
X149327562Y-91066379D01*
X149588715Y-90958206D01*
X149823747Y-90801163D01*
X150023625Y-90601285D01*
X150180668Y-90366253D01*
X150285144Y-90114025D01*
X155586094Y-90114025D01*
X155802216Y-90480784D01*
X156262093Y-90721464D01*
X156760086Y-90867801D01*
X157277059Y-90914174D01*
X157793147Y-90858799D01*
X158288514Y-90703805D01*
X158705760Y-90480784D01*
X158921882Y-90114025D01*
X157253988Y-88446131D01*
X155586094Y-90114025D01*
X150285144Y-90114025D01*
X150288841Y-90105100D01*
X150343988Y-89827861D01*
X150343988Y-89545191D01*
X150288841Y-89267952D01*
X150180668Y-89006799D01*
X150023625Y-88771767D01*
X149823747Y-88571889D01*
X149588715Y-88414846D01*
X149327562Y-88306673D01*
X149241717Y-88289597D01*
X154606340Y-88289597D01*
X154661715Y-88805685D01*
X154816709Y-89301052D01*
X155039730Y-89718298D01*
X155406489Y-89934420D01*
X157074383Y-88266526D01*
X155406489Y-86598632D01*
X155039730Y-86814754D01*
X154799050Y-87274631D01*
X154652713Y-87772624D01*
X154606340Y-88289597D01*
X149241717Y-88289597D01*
X149050323Y-88251526D01*
X148767653Y-88251526D01*
X148490414Y-88306673D01*
X148229261Y-88414846D01*
X147994229Y-88571889D01*
X147866006Y-88700112D01*
X147447420Y-88281526D01*
X147665323Y-88281526D01*
X147942562Y-88226379D01*
X148203715Y-88118206D01*
X148438747Y-87961163D01*
X148638625Y-87761285D01*
X148795668Y-87526253D01*
X148855916Y-87380801D01*
X148855916Y-87646526D01*
X148868176Y-87771008D01*
X148904486Y-87890706D01*
X148963451Y-88001020D01*
X149042803Y-88097711D01*
X149139494Y-88177063D01*
X149249808Y-88236028D01*
X149369506Y-88272338D01*
X149493988Y-88284598D01*
X151093988Y-88284598D01*
X151218470Y-88272338D01*
X151338168Y-88236028D01*
X151448482Y-88177063D01*
X151545173Y-88097711D01*
X151624525Y-88001020D01*
X151683490Y-87890706D01*
X151719800Y-87771008D01*
X151732060Y-87646526D01*
X151732060Y-86419027D01*
X155586094Y-86419027D01*
X157253988Y-88086921D01*
X158921882Y-86419027D01*
X158705760Y-86052268D01*
X158245883Y-85811588D01*
X157747890Y-85665251D01*
X157230917Y-85618878D01*
X156714829Y-85674253D01*
X156219462Y-85829247D01*
X155802216Y-86052268D01*
X155586094Y-86419027D01*
X151732060Y-86419027D01*
X151732060Y-86046526D01*
X151719800Y-85922044D01*
X151683490Y-85802346D01*
X151624525Y-85692032D01*
X151545173Y-85595341D01*
X151448482Y-85515989D01*
X151338168Y-85457024D01*
X151218470Y-85420714D01*
X151093988Y-85408454D01*
X150036862Y-85408454D01*
X150696325Y-84748991D01*
X150725323Y-84725193D01*
X150820296Y-84609468D01*
X150890868Y-84477439D01*
X150934325Y-84334178D01*
X150945322Y-84222525D01*
X150945322Y-84222517D01*
X150948998Y-84185192D01*
X150945322Y-84147867D01*
X150945322Y-79714903D01*
X151100081Y-79611497D01*
X151299959Y-79411619D01*
X151457002Y-79176587D01*
X151561478Y-78924359D01*
X155447428Y-78924359D01*
X155663550Y-79291118D01*
X156123427Y-79531798D01*
X156621420Y-79678135D01*
X157138393Y-79724508D01*
X157654481Y-79669133D01*
X158149848Y-79514139D01*
X158567094Y-79291118D01*
X158783216Y-78924359D01*
X157115322Y-77256465D01*
X155447428Y-78924359D01*
X151561478Y-78924359D01*
X151565175Y-78915434D01*
X151620322Y-78638195D01*
X151620322Y-78355525D01*
X151565175Y-78078286D01*
X151457002Y-77817133D01*
X151299959Y-77582101D01*
X151100081Y-77382223D01*
X150865049Y-77225180D01*
X150603896Y-77117007D01*
X150518051Y-77099931D01*
X154467674Y-77099931D01*
X154523049Y-77616019D01*
X154678043Y-78111386D01*
X154901064Y-78528632D01*
X155267823Y-78744754D01*
X156935717Y-77076860D01*
X155267823Y-75408966D01*
X154901064Y-75625088D01*
X154660384Y-76084965D01*
X154514047Y-76582958D01*
X154467674Y-77099931D01*
X150518051Y-77099931D01*
X150326657Y-77061860D01*
X150043987Y-77061860D01*
X149766748Y-77117007D01*
X149505595Y-77225180D01*
X149270563Y-77382223D01*
X149070685Y-77582101D01*
X148913642Y-77817133D01*
X148805469Y-78078286D01*
X148800322Y-78104161D01*
X148795175Y-78078286D01*
X148687002Y-77817133D01*
X148529959Y-77582101D01*
X148330081Y-77382223D01*
X148095049Y-77225180D01*
X147833896Y-77117007D01*
X147556657Y-77061860D01*
X147273987Y-77061860D01*
X146996748Y-77117007D01*
X146735595Y-77225180D01*
X146500563Y-77382223D01*
X146300685Y-77582101D01*
X146143642Y-77817133D01*
X146035469Y-78078286D01*
X146030322Y-78104161D01*
X146025175Y-78078286D01*
X145917002Y-77817133D01*
X145759959Y-77582101D01*
X145560081Y-77382223D01*
X145325049Y-77225180D01*
X145063896Y-77117007D01*
X144786657Y-77061860D01*
X144503987Y-77061860D01*
X144226748Y-77117007D01*
X143965595Y-77225180D01*
X143730563Y-77382223D01*
X143610463Y-77502323D01*
X143564122Y-77445856D01*
X143540324Y-77416858D01*
X143511326Y-77393060D01*
X143209355Y-77091089D01*
X143330834Y-77097077D01*
X143610452Y-77055647D01*
X143876614Y-76960463D01*
X144001836Y-76893531D01*
X144073419Y-76649562D01*
X143260322Y-75836465D01*
X143246180Y-75850608D01*
X143066575Y-75671003D01*
X143080717Y-75656860D01*
X143439927Y-75656860D01*
X144253024Y-76469957D01*
X144496993Y-76398374D01*
X144617893Y-76142864D01*
X144643534Y-76040571D01*
X144650469Y-76075434D01*
X144758642Y-76336587D01*
X144915685Y-76571619D01*
X145115563Y-76771497D01*
X145350595Y-76928540D01*
X145611748Y-77036713D01*
X145888987Y-77091860D01*
X146171657Y-77091860D01*
X146448896Y-77036713D01*
X146710049Y-76928540D01*
X146945081Y-76771497D01*
X147067016Y-76649562D01*
X147987225Y-76649562D01*
X148058808Y-76893531D01*
X148314318Y-77014431D01*
X148588506Y-77083160D01*
X148870834Y-77097077D01*
X149150452Y-77055647D01*
X149416614Y-76960463D01*
X149541836Y-76893531D01*
X149613419Y-76649562D01*
X148800322Y-75836465D01*
X147987225Y-76649562D01*
X147067016Y-76649562D01*
X147144959Y-76571619D01*
X147302002Y-76336587D01*
X147410175Y-76075434D01*
X147415835Y-76046978D01*
X147496719Y-76273152D01*
X147563651Y-76398374D01*
X147807620Y-76469957D01*
X148620717Y-75656860D01*
X148979927Y-75656860D01*
X149793024Y-76469957D01*
X150036993Y-76398374D01*
X150157893Y-76142864D01*
X150226622Y-75868676D01*
X150240539Y-75586348D01*
X150199109Y-75306730D01*
X150171441Y-75229361D01*
X155447428Y-75229361D01*
X157115322Y-76897255D01*
X158783216Y-75229361D01*
X158567094Y-74862602D01*
X158107217Y-74621922D01*
X157609224Y-74475585D01*
X157092251Y-74429212D01*
X156576163Y-74484587D01*
X156080796Y-74639581D01*
X155663550Y-74862602D01*
X155447428Y-75229361D01*
X150171441Y-75229361D01*
X150103925Y-75040568D01*
X150036993Y-74915346D01*
X149793024Y-74843763D01*
X148979927Y-75656860D01*
X148620717Y-75656860D01*
X147807620Y-74843763D01*
X147563651Y-74915346D01*
X147442751Y-75170856D01*
X147417110Y-75273149D01*
X147410175Y-75238286D01*
X147302002Y-74977133D01*
X147144959Y-74742101D01*
X147067016Y-74664158D01*
X147987225Y-74664158D01*
X148800322Y-75477255D01*
X149613419Y-74664158D01*
X149541836Y-74420189D01*
X149286326Y-74299289D01*
X149012138Y-74230560D01*
X148729810Y-74216643D01*
X148450192Y-74258073D01*
X148184030Y-74353257D01*
X148058808Y-74420189D01*
X147987225Y-74664158D01*
X147067016Y-74664158D01*
X146945081Y-74542223D01*
X146710049Y-74385180D01*
X146448896Y-74277007D01*
X146171657Y-74221860D01*
X145888987Y-74221860D01*
X145611748Y-74277007D01*
X145350595Y-74385180D01*
X145115563Y-74542223D01*
X144915685Y-74742101D01*
X144758642Y-74977133D01*
X144650469Y-75238286D01*
X144644809Y-75266742D01*
X144563925Y-75040568D01*
X144496993Y-74915346D01*
X144253024Y-74843763D01*
X143439927Y-75656860D01*
X143080717Y-75656860D01*
X142267620Y-74843763D01*
X142023651Y-74915346D01*
X141902751Y-75170856D01*
X141877110Y-75273149D01*
X141870175Y-75238286D01*
X141762002Y-74977133D01*
X141604959Y-74742101D01*
X141527016Y-74664158D01*
X142447225Y-74664158D01*
X143260322Y-75477255D01*
X144073419Y-74664158D01*
X144001836Y-74420189D01*
X143746326Y-74299289D01*
X143472138Y-74230560D01*
X143189810Y-74216643D01*
X142910192Y-74258073D01*
X142644030Y-74353257D01*
X142518808Y-74420189D01*
X142447225Y-74664158D01*
X141527016Y-74664158D01*
X141405081Y-74542223D01*
X141170049Y-74385180D01*
X140908896Y-74277007D01*
X140631657Y-74221860D01*
X140348987Y-74221860D01*
X140071748Y-74277007D01*
X139810595Y-74385180D01*
X139575563Y-74542223D01*
X139375685Y-74742101D01*
X139218642Y-74977133D01*
X139110469Y-75238286D01*
X139105322Y-75264161D01*
X139100175Y-75238286D01*
X138992002Y-74977133D01*
X138834959Y-74742101D01*
X138635081Y-74542223D01*
X138400049Y-74385180D01*
X138138896Y-74277007D01*
X137861657Y-74221860D01*
X137578987Y-74221860D01*
X137301748Y-74277007D01*
X137040595Y-74385180D01*
X136805563Y-74542223D01*
X136605685Y-74742101D01*
X136448642Y-74977133D01*
X136340469Y-75238286D01*
X136335322Y-75264161D01*
X136330175Y-75238286D01*
X136222002Y-74977133D01*
X136064959Y-74742101D01*
X135865081Y-74542223D01*
X135630049Y-74385180D01*
X135368896Y-74277007D01*
X135091657Y-74221860D01*
X134808987Y-74221860D01*
X134531748Y-74277007D01*
X134270595Y-74385180D01*
X134035563Y-74542223D01*
X133835685Y-74742101D01*
X133678642Y-74977133D01*
X133673857Y-74988686D01*
X133603939Y-74951314D01*
X133460678Y-74907857D01*
X133401841Y-74902062D01*
X133294959Y-74742101D01*
X133095081Y-74542223D01*
X132860049Y-74385180D01*
X132598896Y-74277007D01*
X132321657Y-74221860D01*
X132038987Y-74221860D01*
X131761748Y-74277007D01*
X131500595Y-74385180D01*
X131265563Y-74542223D01*
X131065685Y-74742101D01*
X130908642Y-74977133D01*
X130800469Y-75238286D01*
X130795322Y-75264161D01*
X130790175Y-75238286D01*
X130682002Y-74977133D01*
X130524959Y-74742101D01*
X130325081Y-74542223D01*
X130090049Y-74385180D01*
X129828896Y-74277007D01*
X129551657Y-74221860D01*
X129268987Y-74221860D01*
X128991748Y-74277007D01*
X128730595Y-74385180D01*
X128495563Y-74542223D01*
X128295685Y-74742101D01*
X128138642Y-74977133D01*
X128030469Y-75238286D01*
X128024809Y-75266742D01*
X127943925Y-75040568D01*
X127876993Y-74915346D01*
X127633024Y-74843763D01*
X126819927Y-75656860D01*
X127633024Y-76469957D01*
X127876993Y-76398374D01*
X127997893Y-76142864D01*
X128023534Y-76040571D01*
X128030469Y-76075434D01*
X128138642Y-76336587D01*
X128295685Y-76571619D01*
X128495563Y-76771497D01*
X128730595Y-76928540D01*
X128991748Y-77036713D01*
X129268987Y-77091860D01*
X129551657Y-77091860D01*
X129828896Y-77036713D01*
X130090049Y-76928540D01*
X130325081Y-76771497D01*
X130524959Y-76571619D01*
X130682002Y-76336587D01*
X130790175Y-76075434D01*
X130795322Y-76049559D01*
X130800469Y-76075434D01*
X130908642Y-76336587D01*
X131065685Y-76571619D01*
X131265563Y-76771497D01*
X131500595Y-76928540D01*
X131761748Y-77036713D01*
X132038987Y-77091860D01*
X132321657Y-77091860D01*
X132598896Y-77036713D01*
X132860049Y-76928540D01*
X133095081Y-76771497D01*
X133223304Y-76643274D01*
X133641890Y-77061860D01*
X133423987Y-77061860D01*
X133146748Y-77117007D01*
X132885595Y-77225180D01*
X132650563Y-77382223D01*
X132450685Y-77582101D01*
X132293642Y-77817133D01*
X132185469Y-78078286D01*
X132180322Y-78104161D01*
X132175175Y-78078286D01*
X132067002Y-77817133D01*
X131909959Y-77582101D01*
X131710081Y-77382223D01*
X131475049Y-77225180D01*
X131213896Y-77117007D01*
X130936657Y-77061860D01*
X130653987Y-77061860D01*
X130376748Y-77117007D01*
X130115595Y-77225180D01*
X129880563Y-77382223D01*
X129680685Y-77582101D01*
X129523642Y-77817133D01*
X129415469Y-78078286D01*
X129410322Y-78104161D01*
X129405175Y-78078286D01*
X129297002Y-77817133D01*
X129139959Y-77582101D01*
X128940081Y-77382223D01*
X128705049Y-77225180D01*
X128443896Y-77117007D01*
X128166657Y-77061860D01*
X127883987Y-77061860D01*
X127606748Y-77117007D01*
X127345595Y-77225180D01*
X127110563Y-77382223D01*
X126910685Y-77582101D01*
X126753642Y-77817133D01*
X126645469Y-78078286D01*
X126640322Y-78104161D01*
X126635175Y-78078286D01*
X126527002Y-77817133D01*
X126369959Y-77582101D01*
X126170081Y-77382223D01*
X125935049Y-77225180D01*
X125673896Y-77117007D01*
X125396657Y-77061860D01*
X125113987Y-77061860D01*
X124836748Y-77117007D01*
X124575595Y-77225180D01*
X124340563Y-77382223D01*
X124140685Y-77582101D01*
X123983642Y-77817133D01*
X123875469Y-78078286D01*
X123870322Y-78104161D01*
X123865175Y-78078286D01*
X123757002Y-77817133D01*
X123599959Y-77582101D01*
X123400081Y-77382223D01*
X123165049Y-77225180D01*
X122903896Y-77117007D01*
X122626657Y-77061860D01*
X122343987Y-77061860D01*
X122066748Y-77117007D01*
X121805595Y-77225180D01*
X121570563Y-77382223D01*
X121370685Y-77582101D01*
X121213642Y-77817133D01*
X121105469Y-78078286D01*
X121100322Y-78104161D01*
X121095175Y-78078286D01*
X120987002Y-77817133D01*
X120829959Y-77582101D01*
X120630081Y-77382223D01*
X120395049Y-77225180D01*
X120133896Y-77117007D01*
X119856657Y-77061860D01*
X119573987Y-77061860D01*
X119296748Y-77117007D01*
X119035595Y-77225180D01*
X118800563Y-77382223D01*
X118600685Y-77582101D01*
X118443642Y-77817133D01*
X118383394Y-77962585D01*
X118383394Y-77696860D01*
X118371134Y-77572378D01*
X118334824Y-77452680D01*
X118275859Y-77342366D01*
X118196507Y-77245675D01*
X118099816Y-77166323D01*
X117989502Y-77107358D01*
X117869804Y-77071048D01*
X117745322Y-77058788D01*
X116145322Y-77058788D01*
X116020840Y-77071048D01*
X115901142Y-77107358D01*
X115790828Y-77166323D01*
X115694137Y-77245675D01*
X115614785Y-77342366D01*
X115555820Y-77452680D01*
X115519510Y-77572378D01*
X115507250Y-77696860D01*
X112579542Y-77696860D01*
X112616597Y-77570762D01*
X112662970Y-77053789D01*
X112607595Y-76537701D01*
X112452601Y-76042334D01*
X112229580Y-75625088D01*
X112043652Y-75515525D01*
X116895322Y-75515525D01*
X116895322Y-75798195D01*
X116950469Y-76075434D01*
X117058642Y-76336587D01*
X117215685Y-76571619D01*
X117415563Y-76771497D01*
X117650595Y-76928540D01*
X117911748Y-77036713D01*
X118188987Y-77091860D01*
X118471657Y-77091860D01*
X118748896Y-77036713D01*
X119010049Y-76928540D01*
X119245081Y-76771497D01*
X119444959Y-76571619D01*
X119602002Y-76336587D01*
X119710175Y-76075434D01*
X119715322Y-76049559D01*
X119720469Y-76075434D01*
X119828642Y-76336587D01*
X119985685Y-76571619D01*
X120185563Y-76771497D01*
X120420595Y-76928540D01*
X120681748Y-77036713D01*
X120958987Y-77091860D01*
X121241657Y-77091860D01*
X121518896Y-77036713D01*
X121780049Y-76928540D01*
X122015081Y-76771497D01*
X122214959Y-76571619D01*
X122372002Y-76336587D01*
X122480175Y-76075434D01*
X122485322Y-76049559D01*
X122490469Y-76075434D01*
X122598642Y-76336587D01*
X122755685Y-76571619D01*
X122955563Y-76771497D01*
X123190595Y-76928540D01*
X123451748Y-77036713D01*
X123728987Y-77091860D01*
X124011657Y-77091860D01*
X124288896Y-77036713D01*
X124550049Y-76928540D01*
X124785081Y-76771497D01*
X124907016Y-76649562D01*
X125827225Y-76649562D01*
X125898808Y-76893531D01*
X126154318Y-77014431D01*
X126428506Y-77083160D01*
X126710834Y-77097077D01*
X126990452Y-77055647D01*
X127256614Y-76960463D01*
X127381836Y-76893531D01*
X127453419Y-76649562D01*
X126640322Y-75836465D01*
X125827225Y-76649562D01*
X124907016Y-76649562D01*
X124984959Y-76571619D01*
X125142002Y-76336587D01*
X125250175Y-76075434D01*
X125255835Y-76046978D01*
X125336719Y-76273152D01*
X125403651Y-76398374D01*
X125647620Y-76469957D01*
X126460717Y-75656860D01*
X125647620Y-74843763D01*
X125403651Y-74915346D01*
X125282751Y-75170856D01*
X125257110Y-75273149D01*
X125250175Y-75238286D01*
X125142002Y-74977133D01*
X124984959Y-74742101D01*
X124907016Y-74664158D01*
X125827225Y-74664158D01*
X126640322Y-75477255D01*
X127453419Y-74664158D01*
X127381836Y-74420189D01*
X127126326Y-74299289D01*
X126852138Y-74230560D01*
X126569810Y-74216643D01*
X126290192Y-74258073D01*
X126024030Y-74353257D01*
X125898808Y-74420189D01*
X125827225Y-74664158D01*
X124907016Y-74664158D01*
X124785081Y-74542223D01*
X124550049Y-74385180D01*
X124288896Y-74277007D01*
X124011657Y-74221860D01*
X123728987Y-74221860D01*
X123451748Y-74277007D01*
X123190595Y-74385180D01*
X122955563Y-74542223D01*
X122755685Y-74742101D01*
X122598642Y-74977133D01*
X122490469Y-75238286D01*
X122485322Y-75264161D01*
X122480175Y-75238286D01*
X122372002Y-74977133D01*
X122214959Y-74742101D01*
X122015081Y-74542223D01*
X121780049Y-74385180D01*
X121518896Y-74277007D01*
X121241657Y-74221860D01*
X120958987Y-74221860D01*
X120681748Y-74277007D01*
X120420595Y-74385180D01*
X120185563Y-74542223D01*
X119985685Y-74742101D01*
X119828642Y-74977133D01*
X119720469Y-75238286D01*
X119715322Y-75264161D01*
X119710175Y-75238286D01*
X119602002Y-74977133D01*
X119444959Y-74742101D01*
X119245081Y-74542223D01*
X119010049Y-74385180D01*
X118748896Y-74277007D01*
X118471657Y-74221860D01*
X118188987Y-74221860D01*
X117911748Y-74277007D01*
X117650595Y-74385180D01*
X117415563Y-74542223D01*
X117215685Y-74742101D01*
X117058642Y-74977133D01*
X116950469Y-75238286D01*
X116895322Y-75515525D01*
X112043652Y-75515525D01*
X111862821Y-75408966D01*
X110194927Y-77076860D01*
X109835717Y-77076860D01*
X108167823Y-75408966D01*
X107801064Y-75625088D01*
X107560384Y-76084965D01*
X107414047Y-76582958D01*
X107367674Y-77099931D01*
X107086000Y-77099931D01*
X107086000Y-75229361D01*
X108347428Y-75229361D01*
X110015322Y-76897255D01*
X111683216Y-75229361D01*
X111467094Y-74862602D01*
X111007217Y-74621922D01*
X110509224Y-74475585D01*
X109992251Y-74429212D01*
X109476163Y-74484587D01*
X108980796Y-74639581D01*
X108563550Y-74862602D01*
X108347428Y-75229361D01*
X107086000Y-75229361D01*
X107086000Y-68732000D01*
X159614000Y-68732000D01*
X159614000Y-76238569D01*
G37*
X159614000Y-76238569D02*
X159552601Y-76042334D01*
X159329580Y-75625088D01*
X158962821Y-75408966D01*
X157294927Y-77076860D01*
X158962821Y-78744754D01*
X159329580Y-78528632D01*
X159570260Y-78068755D01*
X159614000Y-77919904D01*
X159614001Y-87087444D01*
X159468246Y-86814754D01*
X159101487Y-86598632D01*
X157433593Y-88266526D01*
X159101487Y-89934420D01*
X159468246Y-89718298D01*
X159614001Y-89439799D01*
X159614001Y-96622000D01*
X107086000Y-96622000D01*
X107086000Y-92439419D01*
X120493000Y-92439419D01*
X120493000Y-92820581D01*
X120567361Y-93194419D01*
X120713225Y-93546566D01*
X120924987Y-93863491D01*
X121194509Y-94133013D01*
X121511434Y-94344775D01*
X121863581Y-94490639D01*
X122237419Y-94565000D01*
X122618581Y-94565000D01*
X122992419Y-94490639D01*
X123344566Y-94344775D01*
X123661491Y-94133013D01*
X123931013Y-93863491D01*
X124142775Y-93546566D01*
X124288639Y-93194419D01*
X124363000Y-92820581D01*
X124363000Y-92439419D01*
X124288639Y-92065581D01*
X124142775Y-91713434D01*
X123931013Y-91396509D01*
X123661491Y-91126987D01*
X123344566Y-90915225D01*
X122992419Y-90769361D01*
X122618581Y-90695000D01*
X122237419Y-90695000D01*
X121863581Y-90769361D01*
X121511434Y-90915225D01*
X121194509Y-91126987D01*
X120924987Y-91396509D01*
X120713225Y-91713434D01*
X120567361Y-92065581D01*
X120493000Y-92439419D01*
X107086000Y-92439419D01*
X107086000Y-90114025D01*
X130586094Y-90114025D01*
X130802216Y-90480784D01*
X131262093Y-90721464D01*
X131760086Y-90867801D01*
X132277059Y-90914174D01*
X132793147Y-90858799D01*
X133288514Y-90703805D01*
X133705760Y-90480784D01*
X133921882Y-90114025D01*
X132253988Y-88446131D01*
X130586094Y-90114025D01*
X107086000Y-90114025D01*
X107086000Y-88930000D01*
X120489928Y-88930000D01*
X120502188Y-89054482D01*
X120538498Y-89174180D01*
X120597463Y-89284494D01*
X120676815Y-89381185D01*
X120773506Y-89460537D01*
X120883820Y-89519502D01*
X121003518Y-89555812D01*
X121128000Y-89568072D01*
X122142250Y-89565000D01*
X122301000Y-89406250D01*
X122301000Y-87757000D01*
X122555000Y-87757000D01*
X122555000Y-89406250D01*
X122713750Y-89565000D01*
X123728000Y-89568072D01*
X123852482Y-89555812D01*
X123972180Y-89519502D01*
X124082494Y-89460537D01*
X124179185Y-89381185D01*
X124258537Y-89284494D01*
X124317502Y-89174180D01*
X124353812Y-89054482D01*
X124366072Y-88930000D01*
X124364133Y-88289597D01*
X129606340Y-88289597D01*
X129661715Y-88805685D01*
X129816709Y-89301052D01*
X130039730Y-89718298D01*
X130406489Y-89934420D01*
X132074383Y-88266526D01*
X132433593Y-88266526D01*
X134101487Y-89934420D01*
X134468246Y-89718298D01*
X134708926Y-89258421D01*
X134855263Y-88760428D01*
X134901636Y-88243455D01*
X134858264Y-87839228D01*
X138400891Y-87839228D01*
X138472474Y-88083197D01*
X138727984Y-88204097D01*
X139002172Y-88272826D01*
X139284500Y-88286743D01*
X139564118Y-88245313D01*
X139830280Y-88150129D01*
X139955502Y-88083197D01*
X140027085Y-87839228D01*
X139213988Y-87026131D01*
X138400891Y-87839228D01*
X134858264Y-87839228D01*
X134846261Y-87727367D01*
X134691267Y-87232000D01*
X134522918Y-86917038D01*
X137773771Y-86917038D01*
X137815201Y-87196656D01*
X137910385Y-87462818D01*
X137977317Y-87588040D01*
X138221286Y-87659623D01*
X139034383Y-86846526D01*
X138221286Y-86033429D01*
X137977317Y-86105012D01*
X137856417Y-86360522D01*
X137787688Y-86634710D01*
X137773771Y-86917038D01*
X134522918Y-86917038D01*
X134468246Y-86814754D01*
X134101487Y-86598632D01*
X132433593Y-88266526D01*
X132074383Y-88266526D01*
X130406489Y-86598632D01*
X130039730Y-86814754D01*
X129799050Y-87274631D01*
X129652713Y-87772624D01*
X129606340Y-88289597D01*
X124364133Y-88289597D01*
X124363000Y-87915750D01*
X124204250Y-87757000D01*
X122555000Y-87757000D01*
X122301000Y-87757000D01*
X120651750Y-87757000D01*
X120493000Y-87915750D01*
X120489928Y-88930000D01*
X107086000Y-88930000D01*
X107086000Y-86330000D01*
X120489928Y-86330000D01*
X120493000Y-87344250D01*
X120651750Y-87503000D01*
X122301000Y-87503000D01*
X122301000Y-85853750D01*
X122555000Y-85853750D01*
X122555000Y-87503000D01*
X124204250Y-87503000D01*
X124363000Y-87344250D01*
X124365802Y-86419027D01*
X130586094Y-86419027D01*
X132253988Y-88086921D01*
X133921882Y-86419027D01*
X133705760Y-86052268D01*
X133245883Y-85811588D01*
X132747890Y-85665251D01*
X132230917Y-85618878D01*
X131714829Y-85674253D01*
X131219462Y-85829247D01*
X130802216Y-86052268D01*
X130586094Y-86419027D01*
X124365802Y-86419027D01*
X124366072Y-86330000D01*
X124353812Y-86205518D01*
X124317502Y-86085820D01*
X124258537Y-85975506D01*
X124179185Y-85878815D01*
X124082494Y-85799463D01*
X123972180Y-85740498D01*
X123852482Y-85704188D01*
X123728000Y-85691928D01*
X122713750Y-85695000D01*
X122555000Y-85853750D01*
X122301000Y-85853750D01*
X122142250Y-85695000D01*
X121128000Y-85691928D01*
X121003518Y-85704188D01*
X120883820Y-85740498D01*
X120773506Y-85799463D01*
X120676815Y-85878815D01*
X120597463Y-85975506D01*
X120538498Y-86085820D01*
X120502188Y-86205518D01*
X120489928Y-86330000D01*
X107086000Y-86330000D01*
X107086000Y-78924359D01*
X108347428Y-78924359D01*
X108563550Y-79291118D01*
X109023427Y-79531798D01*
X109521420Y-79678135D01*
X110038393Y-79724508D01*
X110554481Y-79669133D01*
X111049848Y-79514139D01*
X111467094Y-79291118D01*
X111683216Y-78924359D01*
X110015322Y-77256465D01*
X108347428Y-78924359D01*
X107086000Y-78924359D01*
X107086000Y-77099931D01*
X107367674Y-77099931D01*
X107423049Y-77616019D01*
X107578043Y-78111386D01*
X107801064Y-78528632D01*
X108167823Y-78744754D01*
X109835717Y-77076860D01*
X110194927Y-77076860D01*
X111862821Y-78744754D01*
X112229580Y-78528632D01*
X112470260Y-78068755D01*
X112579542Y-77696860D01*
X115507250Y-77696860D01*
X115507250Y-79296860D01*
X115519510Y-79421342D01*
X115555820Y-79541040D01*
X115614785Y-79651354D01*
X115694137Y-79748045D01*
X115790828Y-79827397D01*
X115901142Y-79886362D01*
X116020840Y-79922672D01*
X116145322Y-79934932D01*
X117745322Y-79934932D01*
X117869804Y-79922672D01*
X117989502Y-79886362D01*
X118099816Y-79827397D01*
X118196507Y-79748045D01*
X118275859Y-79651354D01*
X118334824Y-79541040D01*
X118371134Y-79421342D01*
X118383394Y-79296860D01*
X118383394Y-79031135D01*
X118443642Y-79176587D01*
X118600685Y-79411619D01*
X118800563Y-79611497D01*
X119035595Y-79768540D01*
X119296748Y-79876713D01*
X119573987Y-79931860D01*
X119856657Y-79931860D01*
X120133896Y-79876713D01*
X120395049Y-79768540D01*
X120630081Y-79611497D01*
X120829959Y-79411619D01*
X120987002Y-79176587D01*
X121095175Y-78915434D01*
X121100322Y-78889559D01*
X121105469Y-78915434D01*
X121213642Y-79176587D01*
X121370685Y-79411619D01*
X121570563Y-79611497D01*
X121805595Y-79768540D01*
X122066748Y-79876713D01*
X122343987Y-79931860D01*
X122626657Y-79931860D01*
X122903896Y-79876713D01*
X123165049Y-79768540D01*
X123400081Y-79611497D01*
X123599959Y-79411619D01*
X123757002Y-79176587D01*
X123865175Y-78915434D01*
X123870322Y-78889559D01*
X123875469Y-78915434D01*
X123983642Y-79176587D01*
X124140685Y-79411619D01*
X124340563Y-79611497D01*
X124575595Y-79768540D01*
X124836748Y-79876713D01*
X125113987Y-79931860D01*
X125396657Y-79931860D01*
X125673896Y-79876713D01*
X125935049Y-79768540D01*
X126170081Y-79611497D01*
X126369959Y-79411619D01*
X126527002Y-79176587D01*
X126635175Y-78915434D01*
X126640322Y-78889559D01*
X126645469Y-78915434D01*
X126753642Y-79176587D01*
X126910685Y-79411619D01*
X127110563Y-79611497D01*
X127345595Y-79768540D01*
X127606748Y-79876713D01*
X127883987Y-79931860D01*
X128166657Y-79931860D01*
X128443896Y-79876713D01*
X128705049Y-79768540D01*
X128940081Y-79611497D01*
X129139959Y-79411619D01*
X129297002Y-79176587D01*
X129405175Y-78915434D01*
X129410322Y-78889559D01*
X129415469Y-78915434D01*
X129523642Y-79176587D01*
X129680685Y-79411619D01*
X129880563Y-79611497D01*
X130115595Y-79768540D01*
X130376748Y-79876713D01*
X130653987Y-79931860D01*
X130936657Y-79931860D01*
X131213896Y-79876713D01*
X131475049Y-79768540D01*
X131710081Y-79611497D01*
X131909959Y-79411619D01*
X132067002Y-79176587D01*
X132175175Y-78915434D01*
X132180322Y-78889559D01*
X132185469Y-78915434D01*
X132293642Y-79176587D01*
X132450685Y-79411619D01*
X132650563Y-79611497D01*
X132885595Y-79768540D01*
X133146748Y-79876713D01*
X133423987Y-79931860D01*
X133706657Y-79931860D01*
X133983896Y-79876713D01*
X133998449Y-79870685D01*
X134055349Y-79977137D01*
X134095194Y-80025687D01*
X134150322Y-80092862D01*
X134179326Y-80116665D01*
X139501981Y-85439321D01*
X139425804Y-85420226D01*
X139143476Y-85406309D01*
X138863858Y-85447739D01*
X138597696Y-85542923D01*
X138472474Y-85609855D01*
X138400891Y-85853824D01*
X139213988Y-86666921D01*
X139228131Y-86652779D01*
X139407736Y-86832384D01*
X139393593Y-86846526D01*
X140206690Y-87659623D01*
X140450659Y-87588040D01*
X140571559Y-87332530D01*
X140597200Y-87230237D01*
X140604135Y-87265100D01*
X140712308Y-87526253D01*
X140869351Y-87761285D01*
X141069229Y-87961163D01*
X141304261Y-88118206D01*
X141565414Y-88226379D01*
X141842653Y-88281526D01*
X142125323Y-88281526D01*
X142402562Y-88226379D01*
X142663715Y-88118206D01*
X142898747Y-87961163D01*
X143013784Y-87846126D01*
X143419185Y-88251526D01*
X143227653Y-88251526D01*
X142950414Y-88306673D01*
X142689261Y-88414846D01*
X142454229Y-88571889D01*
X142254351Y-88771767D01*
X142097308Y-89006799D01*
X141989135Y-89267952D01*
X141983988Y-89293827D01*
X141978841Y-89267952D01*
X141870668Y-89006799D01*
X141713625Y-88771767D01*
X141513747Y-88571889D01*
X141278715Y-88414846D01*
X141017562Y-88306673D01*
X140740323Y-88251526D01*
X140457653Y-88251526D01*
X140180414Y-88306673D01*
X139919261Y-88414846D01*
X139684229Y-88571889D01*
X139484351Y-88771767D01*
X139327308Y-89006799D01*
X139219135Y-89267952D01*
X139163988Y-89545191D01*
X139163988Y-89827861D01*
X139219135Y-90105100D01*
X139327308Y-90366253D01*
X139484351Y-90601285D01*
X139684229Y-90801163D01*
X139919261Y-90958206D01*
X140180414Y-91066379D01*
X140457653Y-91121526D01*
X140740323Y-91121526D01*
X141017562Y-91066379D01*
X141278715Y-90958206D01*
X141513747Y-90801163D01*
X141713625Y-90601285D01*
X141870668Y-90366253D01*
X141978841Y-90105100D01*
X141983988Y-90079225D01*
X141989135Y-90105100D01*
X142097308Y-90366253D01*
X142254351Y-90601285D01*
X142454229Y-90801163D01*
X142689261Y-90958206D01*
X142950414Y-91066379D01*
X143227653Y-91121526D01*
X143510323Y-91121526D01*
X143787562Y-91066379D01*
X144048715Y-90958206D01*
X144283747Y-90801163D01*
X144483625Y-90601285D01*
X144640668Y-90366253D01*
X144748841Y-90105100D01*
X144753988Y-90079225D01*
X144759135Y-90105100D01*
X144867308Y-90366253D01*
X145024351Y-90601285D01*
X145224229Y-90801163D01*
X145459261Y-90958206D01*
X145720414Y-91066379D01*
X145997653Y-91121526D01*
X146280323Y-91121526D01*
X146557562Y-91066379D01*
X146818715Y-90958206D01*
X147053747Y-90801163D01*
X147253625Y-90601285D01*
X147410668Y-90366253D01*
X147415453Y-90354700D01*
X147485369Y-90392071D01*
X147485371Y-90392072D01*
X147628632Y-90435529D01*
X147687469Y-90441324D01*
X147794351Y-90601285D01*
X147994229Y-90801163D01*
X148229261Y-90958206D01*
X148490414Y-91066379D01*
X148767653Y-91121526D01*
X149050323Y-91121526D01*
X149327562Y-91066379D01*
X149588715Y-90958206D01*
X149823747Y-90801163D01*
X150023625Y-90601285D01*
X150180668Y-90366253D01*
X150285144Y-90114025D01*
X155586094Y-90114025D01*
X155802216Y-90480784D01*
X156262093Y-90721464D01*
X156760086Y-90867801D01*
X157277059Y-90914174D01*
X157793147Y-90858799D01*
X158288514Y-90703805D01*
X158705760Y-90480784D01*
X158921882Y-90114025D01*
X157253988Y-88446131D01*
X155586094Y-90114025D01*
X150285144Y-90114025D01*
X150288841Y-90105100D01*
X150343988Y-89827861D01*
X150343988Y-89545191D01*
X150288841Y-89267952D01*
X150180668Y-89006799D01*
X150023625Y-88771767D01*
X149823747Y-88571889D01*
X149588715Y-88414846D01*
X149327562Y-88306673D01*
X149241717Y-88289597D01*
X154606340Y-88289597D01*
X154661715Y-88805685D01*
X154816709Y-89301052D01*
X155039730Y-89718298D01*
X155406489Y-89934420D01*
X157074383Y-88266526D01*
X155406489Y-86598632D01*
X155039730Y-86814754D01*
X154799050Y-87274631D01*
X154652713Y-87772624D01*
X154606340Y-88289597D01*
X149241717Y-88289597D01*
X149050323Y-88251526D01*
X148767653Y-88251526D01*
X148490414Y-88306673D01*
X148229261Y-88414846D01*
X147994229Y-88571889D01*
X147866006Y-88700112D01*
X147447420Y-88281526D01*
X147665323Y-88281526D01*
X147942562Y-88226379D01*
X148203715Y-88118206D01*
X148438747Y-87961163D01*
X148638625Y-87761285D01*
X148795668Y-87526253D01*
X148855916Y-87380801D01*
X148855916Y-87646526D01*
X148868176Y-87771008D01*
X148904486Y-87890706D01*
X148963451Y-88001020D01*
X149042803Y-88097711D01*
X149139494Y-88177063D01*
X149249808Y-88236028D01*
X149369506Y-88272338D01*
X149493988Y-88284598D01*
X151093988Y-88284598D01*
X151218470Y-88272338D01*
X151338168Y-88236028D01*
X151448482Y-88177063D01*
X151545173Y-88097711D01*
X151624525Y-88001020D01*
X151683490Y-87890706D01*
X151719800Y-87771008D01*
X151732060Y-87646526D01*
X151732060Y-86419027D01*
X155586094Y-86419027D01*
X157253988Y-88086921D01*
X158921882Y-86419027D01*
X158705760Y-86052268D01*
X158245883Y-85811588D01*
X157747890Y-85665251D01*
X157230917Y-85618878D01*
X156714829Y-85674253D01*
X156219462Y-85829247D01*
X155802216Y-86052268D01*
X155586094Y-86419027D01*
X151732060Y-86419027D01*
X151732060Y-86046526D01*
X151719800Y-85922044D01*
X151683490Y-85802346D01*
X151624525Y-85692032D01*
X151545173Y-85595341D01*
X151448482Y-85515989D01*
X151338168Y-85457024D01*
X151218470Y-85420714D01*
X151093988Y-85408454D01*
X150036862Y-85408454D01*
X150696325Y-84748991D01*
X150725323Y-84725193D01*
X150820296Y-84609468D01*
X150890868Y-84477439D01*
X150934325Y-84334178D01*
X150945322Y-84222525D01*
X150945322Y-84222517D01*
X150948998Y-84185192D01*
X150945322Y-84147867D01*
X150945322Y-79714903D01*
X151100081Y-79611497D01*
X151299959Y-79411619D01*
X151457002Y-79176587D01*
X151561478Y-78924359D01*
X155447428Y-78924359D01*
X155663550Y-79291118D01*
X156123427Y-79531798D01*
X156621420Y-79678135D01*
X157138393Y-79724508D01*
X157654481Y-79669133D01*
X158149848Y-79514139D01*
X158567094Y-79291118D01*
X158783216Y-78924359D01*
X157115322Y-77256465D01*
X155447428Y-78924359D01*
X151561478Y-78924359D01*
X151565175Y-78915434D01*
X151620322Y-78638195D01*
X151620322Y-78355525D01*
X151565175Y-78078286D01*
X151457002Y-77817133D01*
X151299959Y-77582101D01*
X151100081Y-77382223D01*
X150865049Y-77225180D01*
X150603896Y-77117007D01*
X150518051Y-77099931D01*
X154467674Y-77099931D01*
X154523049Y-77616019D01*
X154678043Y-78111386D01*
X154901064Y-78528632D01*
X155267823Y-78744754D01*
X156935717Y-77076860D01*
X155267823Y-75408966D01*
X154901064Y-75625088D01*
X154660384Y-76084965D01*
X154514047Y-76582958D01*
X154467674Y-77099931D01*
X150518051Y-77099931D01*
X150326657Y-77061860D01*
X150043987Y-77061860D01*
X149766748Y-77117007D01*
X149505595Y-77225180D01*
X149270563Y-77382223D01*
X149070685Y-77582101D01*
X148913642Y-77817133D01*
X148805469Y-78078286D01*
X148800322Y-78104161D01*
X148795175Y-78078286D01*
X148687002Y-77817133D01*
X148529959Y-77582101D01*
X148330081Y-77382223D01*
X148095049Y-77225180D01*
X147833896Y-77117007D01*
X147556657Y-77061860D01*
X147273987Y-77061860D01*
X146996748Y-77117007D01*
X146735595Y-77225180D01*
X146500563Y-77382223D01*
X146300685Y-77582101D01*
X146143642Y-77817133D01*
X146035469Y-78078286D01*
X146030322Y-78104161D01*
X146025175Y-78078286D01*
X145917002Y-77817133D01*
X145759959Y-77582101D01*
X145560081Y-77382223D01*
X145325049Y-77225180D01*
X145063896Y-77117007D01*
X144786657Y-77061860D01*
X144503987Y-77061860D01*
X144226748Y-77117007D01*
X143965595Y-77225180D01*
X143730563Y-77382223D01*
X143610463Y-77502323D01*
X143564122Y-77445856D01*
X143540324Y-77416858D01*
X143511326Y-77393060D01*
X143209355Y-77091089D01*
X143330834Y-77097077D01*
X143610452Y-77055647D01*
X143876614Y-76960463D01*
X144001836Y-76893531D01*
X144073419Y-76649562D01*
X143260322Y-75836465D01*
X143246180Y-75850608D01*
X143066575Y-75671003D01*
X143080717Y-75656860D01*
X143439927Y-75656860D01*
X144253024Y-76469957D01*
X144496993Y-76398374D01*
X144617893Y-76142864D01*
X144643534Y-76040571D01*
X144650469Y-76075434D01*
X144758642Y-76336587D01*
X144915685Y-76571619D01*
X145115563Y-76771497D01*
X145350595Y-76928540D01*
X145611748Y-77036713D01*
X145888987Y-77091860D01*
X146171657Y-77091860D01*
X146448896Y-77036713D01*
X146710049Y-76928540D01*
X146945081Y-76771497D01*
X147067016Y-76649562D01*
X147987225Y-76649562D01*
X148058808Y-76893531D01*
X148314318Y-77014431D01*
X148588506Y-77083160D01*
X148870834Y-77097077D01*
X149150452Y-77055647D01*
X149416614Y-76960463D01*
X149541836Y-76893531D01*
X149613419Y-76649562D01*
X148800322Y-75836465D01*
X147987225Y-76649562D01*
X147067016Y-76649562D01*
X147144959Y-76571619D01*
X147302002Y-76336587D01*
X147410175Y-76075434D01*
X147415835Y-76046978D01*
X147496719Y-76273152D01*
X147563651Y-76398374D01*
X147807620Y-76469957D01*
X148620717Y-75656860D01*
X148979927Y-75656860D01*
X149793024Y-76469957D01*
X150036993Y-76398374D01*
X150157893Y-76142864D01*
X150226622Y-75868676D01*
X150240539Y-75586348D01*
X150199109Y-75306730D01*
X150171441Y-75229361D01*
X155447428Y-75229361D01*
X157115322Y-76897255D01*
X158783216Y-75229361D01*
X158567094Y-74862602D01*
X158107217Y-74621922D01*
X157609224Y-74475585D01*
X157092251Y-74429212D01*
X156576163Y-74484587D01*
X156080796Y-74639581D01*
X155663550Y-74862602D01*
X155447428Y-75229361D01*
X150171441Y-75229361D01*
X150103925Y-75040568D01*
X150036993Y-74915346D01*
X149793024Y-74843763D01*
X148979927Y-75656860D01*
X148620717Y-75656860D01*
X147807620Y-74843763D01*
X147563651Y-74915346D01*
X147442751Y-75170856D01*
X147417110Y-75273149D01*
X147410175Y-75238286D01*
X147302002Y-74977133D01*
X147144959Y-74742101D01*
X147067016Y-74664158D01*
X147987225Y-74664158D01*
X148800322Y-75477255D01*
X149613419Y-74664158D01*
X149541836Y-74420189D01*
X149286326Y-74299289D01*
X149012138Y-74230560D01*
X148729810Y-74216643D01*
X148450192Y-74258073D01*
X148184030Y-74353257D01*
X148058808Y-74420189D01*
X147987225Y-74664158D01*
X147067016Y-74664158D01*
X146945081Y-74542223D01*
X146710049Y-74385180D01*
X146448896Y-74277007D01*
X146171657Y-74221860D01*
X145888987Y-74221860D01*
X145611748Y-74277007D01*
X145350595Y-74385180D01*
X145115563Y-74542223D01*
X144915685Y-74742101D01*
X144758642Y-74977133D01*
X144650469Y-75238286D01*
X144644809Y-75266742D01*
X144563925Y-75040568D01*
X144496993Y-74915346D01*
X144253024Y-74843763D01*
X143439927Y-75656860D01*
X143080717Y-75656860D01*
X142267620Y-74843763D01*
X142023651Y-74915346D01*
X141902751Y-75170856D01*
X141877110Y-75273149D01*
X141870175Y-75238286D01*
X141762002Y-74977133D01*
X141604959Y-74742101D01*
X141527016Y-74664158D01*
X142447225Y-74664158D01*
X143260322Y-75477255D01*
X144073419Y-74664158D01*
X144001836Y-74420189D01*
X143746326Y-74299289D01*
X143472138Y-74230560D01*
X143189810Y-74216643D01*
X142910192Y-74258073D01*
X142644030Y-74353257D01*
X142518808Y-74420189D01*
X142447225Y-74664158D01*
X141527016Y-74664158D01*
X141405081Y-74542223D01*
X141170049Y-74385180D01*
X140908896Y-74277007D01*
X140631657Y-74221860D01*
X140348987Y-74221860D01*
X140071748Y-74277007D01*
X139810595Y-74385180D01*
X139575563Y-74542223D01*
X139375685Y-74742101D01*
X139218642Y-74977133D01*
X139110469Y-75238286D01*
X139105322Y-75264161D01*
X139100175Y-75238286D01*
X138992002Y-74977133D01*
X138834959Y-74742101D01*
X138635081Y-74542223D01*
X138400049Y-74385180D01*
X138138896Y-74277007D01*
X137861657Y-74221860D01*
X137578987Y-74221860D01*
X137301748Y-74277007D01*
X137040595Y-74385180D01*
X136805563Y-74542223D01*
X136605685Y-74742101D01*
X136448642Y-74977133D01*
X136340469Y-75238286D01*
X136335322Y-75264161D01*
X136330175Y-75238286D01*
X136222002Y-74977133D01*
X136064959Y-74742101D01*
X135865081Y-74542223D01*
X135630049Y-74385180D01*
X135368896Y-74277007D01*
X135091657Y-74221860D01*
X134808987Y-74221860D01*
X134531748Y-74277007D01*
X134270595Y-74385180D01*
X134035563Y-74542223D01*
X133835685Y-74742101D01*
X133678642Y-74977133D01*
X133673857Y-74988686D01*
X133603939Y-74951314D01*
X133460678Y-74907857D01*
X133401841Y-74902062D01*
X133294959Y-74742101D01*
X133095081Y-74542223D01*
X132860049Y-74385180D01*
X132598896Y-74277007D01*
X132321657Y-74221860D01*
X132038987Y-74221860D01*
X131761748Y-74277007D01*
X131500595Y-74385180D01*
X131265563Y-74542223D01*
X131065685Y-74742101D01*
X130908642Y-74977133D01*
X130800469Y-75238286D01*
X130795322Y-75264161D01*
X130790175Y-75238286D01*
X130682002Y-74977133D01*
X130524959Y-74742101D01*
X130325081Y-74542223D01*
X130090049Y-74385180D01*
X129828896Y-74277007D01*
X129551657Y-74221860D01*
X129268987Y-74221860D01*
X128991748Y-74277007D01*
X128730595Y-74385180D01*
X128495563Y-74542223D01*
X128295685Y-74742101D01*
X128138642Y-74977133D01*
X128030469Y-75238286D01*
X128024809Y-75266742D01*
X127943925Y-75040568D01*
X127876993Y-74915346D01*
X127633024Y-74843763D01*
X126819927Y-75656860D01*
X127633024Y-76469957D01*
X127876993Y-76398374D01*
X127997893Y-76142864D01*
X128023534Y-76040571D01*
X128030469Y-76075434D01*
X128138642Y-76336587D01*
X128295685Y-76571619D01*
X128495563Y-76771497D01*
X128730595Y-76928540D01*
X128991748Y-77036713D01*
X129268987Y-77091860D01*
X129551657Y-77091860D01*
X129828896Y-77036713D01*
X130090049Y-76928540D01*
X130325081Y-76771497D01*
X130524959Y-76571619D01*
X130682002Y-76336587D01*
X130790175Y-76075434D01*
X130795322Y-76049559D01*
X130800469Y-76075434D01*
X130908642Y-76336587D01*
X131065685Y-76571619D01*
X131265563Y-76771497D01*
X131500595Y-76928540D01*
X131761748Y-77036713D01*
X132038987Y-77091860D01*
X132321657Y-77091860D01*
X132598896Y-77036713D01*
X132860049Y-76928540D01*
X133095081Y-76771497D01*
X133223304Y-76643274D01*
X133641890Y-77061860D01*
X133423987Y-77061860D01*
X133146748Y-77117007D01*
X132885595Y-77225180D01*
X132650563Y-77382223D01*
X132450685Y-77582101D01*
X132293642Y-77817133D01*
X132185469Y-78078286D01*
X132180322Y-78104161D01*
X132175175Y-78078286D01*
X132067002Y-77817133D01*
X131909959Y-77582101D01*
X131710081Y-77382223D01*
X131475049Y-77225180D01*
X131213896Y-77117007D01*
X130936657Y-77061860D01*
X130653987Y-77061860D01*
X130376748Y-77117007D01*
X130115595Y-77225180D01*
X129880563Y-77382223D01*
X129680685Y-77582101D01*
X129523642Y-77817133D01*
X129415469Y-78078286D01*
X129410322Y-78104161D01*
X129405175Y-78078286D01*
X129297002Y-77817133D01*
X129139959Y-77582101D01*
X128940081Y-77382223D01*
X128705049Y-77225180D01*
X128443896Y-77117007D01*
X128166657Y-77061860D01*
X127883987Y-77061860D01*
X127606748Y-77117007D01*
X127345595Y-77225180D01*
X127110563Y-77382223D01*
X126910685Y-77582101D01*
X126753642Y-77817133D01*
X126645469Y-78078286D01*
X126640322Y-78104161D01*
X126635175Y-78078286D01*
X126527002Y-77817133D01*
X126369959Y-77582101D01*
X126170081Y-77382223D01*
X125935049Y-77225180D01*
X125673896Y-77117007D01*
X125396657Y-77061860D01*
X125113987Y-77061860D01*
X124836748Y-77117007D01*
X124575595Y-77225180D01*
X124340563Y-77382223D01*
X124140685Y-77582101D01*
X123983642Y-77817133D01*
X123875469Y-78078286D01*
X123870322Y-78104161D01*
X123865175Y-78078286D01*
X123757002Y-77817133D01*
X123599959Y-77582101D01*
X123400081Y-77382223D01*
X123165049Y-77225180D01*
X122903896Y-77117007D01*
X122626657Y-77061860D01*
X122343987Y-77061860D01*
X122066748Y-77117007D01*
X121805595Y-77225180D01*
X121570563Y-77382223D01*
X121370685Y-77582101D01*
X121213642Y-77817133D01*
X121105469Y-78078286D01*
X121100322Y-78104161D01*
X121095175Y-78078286D01*
X120987002Y-77817133D01*
X120829959Y-77582101D01*
X120630081Y-77382223D01*
X120395049Y-77225180D01*
X120133896Y-77117007D01*
X119856657Y-77061860D01*
X119573987Y-77061860D01*
X119296748Y-77117007D01*
X119035595Y-77225180D01*
X118800563Y-77382223D01*
X118600685Y-77582101D01*
X118443642Y-77817133D01*
X118383394Y-77962585D01*
X118383394Y-77696860D01*
X118371134Y-77572378D01*
X118334824Y-77452680D01*
X118275859Y-77342366D01*
X118196507Y-77245675D01*
X118099816Y-77166323D01*
X117989502Y-77107358D01*
X117869804Y-77071048D01*
X117745322Y-77058788D01*
X116145322Y-77058788D01*
X116020840Y-77071048D01*
X115901142Y-77107358D01*
X115790828Y-77166323D01*
X115694137Y-77245675D01*
X115614785Y-77342366D01*
X115555820Y-77452680D01*
X115519510Y-77572378D01*
X115507250Y-77696860D01*
X112579542Y-77696860D01*
X112616597Y-77570762D01*
X112662970Y-77053789D01*
X112607595Y-76537701D01*
X112452601Y-76042334D01*
X112229580Y-75625088D01*
X112043652Y-75515525D01*
X116895322Y-75515525D01*
X116895322Y-75798195D01*
X116950469Y-76075434D01*
X117058642Y-76336587D01*
X117215685Y-76571619D01*
X117415563Y-76771497D01*
X117650595Y-76928540D01*
X117911748Y-77036713D01*
X118188987Y-77091860D01*
X118471657Y-77091860D01*
X118748896Y-77036713D01*
X119010049Y-76928540D01*
X119245081Y-76771497D01*
X119444959Y-76571619D01*
X119602002Y-76336587D01*
X119710175Y-76075434D01*
X119715322Y-76049559D01*
X119720469Y-76075434D01*
X119828642Y-76336587D01*
X119985685Y-76571619D01*
X120185563Y-76771497D01*
X120420595Y-76928540D01*
X120681748Y-77036713D01*
X120958987Y-77091860D01*
X121241657Y-77091860D01*
X121518896Y-77036713D01*
X121780049Y-76928540D01*
X122015081Y-76771497D01*
X122214959Y-76571619D01*
X122372002Y-76336587D01*
X122480175Y-76075434D01*
X122485322Y-76049559D01*
X122490469Y-76075434D01*
X122598642Y-76336587D01*
X122755685Y-76571619D01*
X122955563Y-76771497D01*
X123190595Y-76928540D01*
X123451748Y-77036713D01*
X123728987Y-77091860D01*
X124011657Y-77091860D01*
X124288896Y-77036713D01*
X124550049Y-76928540D01*
X124785081Y-76771497D01*
X124907016Y-76649562D01*
X125827225Y-76649562D01*
X125898808Y-76893531D01*
X126154318Y-77014431D01*
X126428506Y-77083160D01*
X126710834Y-77097077D01*
X126990452Y-77055647D01*
X127256614Y-76960463D01*
X127381836Y-76893531D01*
X127453419Y-76649562D01*
X126640322Y-75836465D01*
X125827225Y-76649562D01*
X124907016Y-76649562D01*
X124984959Y-76571619D01*
X125142002Y-76336587D01*
X125250175Y-76075434D01*
X125255835Y-76046978D01*
X125336719Y-76273152D01*
X125403651Y-76398374D01*
X125647620Y-76469957D01*
X126460717Y-75656860D01*
X125647620Y-74843763D01*
X125403651Y-74915346D01*
X125282751Y-75170856D01*
X125257110Y-75273149D01*
X125250175Y-75238286D01*
X125142002Y-74977133D01*
X124984959Y-74742101D01*
X124907016Y-74664158D01*
X125827225Y-74664158D01*
X126640322Y-75477255D01*
X127453419Y-74664158D01*
X127381836Y-74420189D01*
X127126326Y-74299289D01*
X126852138Y-74230560D01*
X126569810Y-74216643D01*
X126290192Y-74258073D01*
X126024030Y-74353257D01*
X125898808Y-74420189D01*
X125827225Y-74664158D01*
X124907016Y-74664158D01*
X124785081Y-74542223D01*
X124550049Y-74385180D01*
X124288896Y-74277007D01*
X124011657Y-74221860D01*
X123728987Y-74221860D01*
X123451748Y-74277007D01*
X123190595Y-74385180D01*
X122955563Y-74542223D01*
X122755685Y-74742101D01*
X122598642Y-74977133D01*
X122490469Y-75238286D01*
X122485322Y-75264161D01*
X122480175Y-75238286D01*
X122372002Y-74977133D01*
X122214959Y-74742101D01*
X122015081Y-74542223D01*
X121780049Y-74385180D01*
X121518896Y-74277007D01*
X121241657Y-74221860D01*
X120958987Y-74221860D01*
X120681748Y-74277007D01*
X120420595Y-74385180D01*
X120185563Y-74542223D01*
X119985685Y-74742101D01*
X119828642Y-74977133D01*
X119720469Y-75238286D01*
X119715322Y-75264161D01*
X119710175Y-75238286D01*
X119602002Y-74977133D01*
X119444959Y-74742101D01*
X119245081Y-74542223D01*
X119010049Y-74385180D01*
X118748896Y-74277007D01*
X118471657Y-74221860D01*
X118188987Y-74221860D01*
X117911748Y-74277007D01*
X117650595Y-74385180D01*
X117415563Y-74542223D01*
X117215685Y-74742101D01*
X117058642Y-74977133D01*
X116950469Y-75238286D01*
X116895322Y-75515525D01*
X112043652Y-75515525D01*
X111862821Y-75408966D01*
X110194927Y-77076860D01*
X109835717Y-77076860D01*
X108167823Y-75408966D01*
X107801064Y-75625088D01*
X107560384Y-76084965D01*
X107414047Y-76582958D01*
X107367674Y-77099931D01*
X107086000Y-77099931D01*
X107086000Y-75229361D01*
X108347428Y-75229361D01*
X110015322Y-76897255D01*
X111683216Y-75229361D01*
X111467094Y-74862602D01*
X111007217Y-74621922D01*
X110509224Y-74475585D01*
X109992251Y-74429212D01*
X109476163Y-74484587D01*
X108980796Y-74639581D01*
X108563550Y-74862602D01*
X108347428Y-75229361D01*
X107086000Y-75229361D01*
X107086000Y-68732000D01*
X159614000Y-68732000D01*
X159614000Y-76238569D01*
M02*
